<?xml version="1.0" encoding="UTF-8"?>
<!DOCTYPE svg PUBLIC "-//W3C//DTD SVG 1.1//EN" "http://www.w3.org/Graphics/SVG/1.1/DTD/svg11.dtd">
<!-- Creator: CorelDRAW X7 -->
<svg xmlns="http://www.w3.org/2000/svg" xml:space="preserve" width="140px" height="140px" version="1.1" style="shape-rendering:geometricPrecision; text-rendering:geometricPrecision; image-rendering:optimizeQuality; fill-rule:evenodd; clip-rule:evenodd"
viewBox="0 0 140 140"
 xmlns:xlink="http://www.w3.org/1999/xlink">
 <defs>
  <style type="text/css">
   <![CDATA[
    .fil0 {fill:black}
    .fil1 {fill:#676767}
   ]]>
  </style>
 </defs>
 <g id="Слой_x0020_1">
  <metadata id="CorelCorpID_0Corel-Layer"/>
  <g id="_1815201392000">
   <path class="fil0" d="M46 42c1,6 4,16 6,22 1,6 5,17 6,23 0,2 1,3 -2,4 -6,3 -14,-1 -19,0 -6,1 -10,10 -1,10 2,0 4,0 6,1 10,1 12,4 20,9 4,3 10,4 14,6 2,2 2,2 3,4 2,0 6,-2 7,-2l22 -9c0,-2 0,-3 0,-6 1,-6 2,-10 1,-17 -1,-7 -3,-14 -6,-20 -2,-4 -9,-14 -14,-11 -1,1 -2,3 -4,2 -1,-1 -2,-2 -4,-3 -2,0 -4,1 -4,2 -1,1 -2,3 -3,4 -2,0 -2,-4 -7,-2 -4,1 -2,4 -3,6 -1,0 -1,-1 -2,-2 -1,-2 -2,-6 -2,-8 -1,-4 -2,-8 -3,-11 -1,-4 -3,-8 -6,-9 -2,-1 -4,0 -5,1 -1,2 -1,4 0,6z"/>
   <path class="fil0" d="M43 52l1 1 0 -1 -2 -6c0,-1 -1,-1 -1,-1 -7,-6 -5,-17 3,-20 7,-2 14,2 15,9 0,2 0,4 0,5l2 3c0,1 0,4 1,4 1,-2 1,-1 2,-4 1,-2 1,-4 1,-6 0,-4 -1,-8 -3,-11 -11,-13 -32,-5 -31,12 0,6 3,10 8,13 0,1 3,2 4,2z"/>
   <path class="fil1" d="M43 52c1,1 0,1 1,1 0,-1 0,0 0,-1 0,0 0,0 0,0l0 1 -1 -1z"/>
  </g>
 </g>
</svg>
