<?xml version="1.0" encoding="utf-8"?>
<!-- Generator: Adobe Illustrator 22.0.1, SVG Export Plug-In . SVG Version: 6.00 Build 0)  -->
<svg version="1.2" baseProfile="tiny" id="Слой_1"
	 xmlns="http://www.w3.org/2000/svg" xmlns:xlink="http://www.w3.org/1999/xlink" x="0px" y="0px" viewBox="0 0 280 80"
	 xml:space="preserve">
<g>
	<path d="M70.3,72.7l-8.5,1.8v-18h2.4C65.8,55.3,69,35,69,12.7h25.1v43.9h3v16.2l-8.5,1.8V65H70.3V72.7z M84.7,56.5V21.2H78
		c-0.3,11.2-0.7,24.1-3.1,35.4H84.7z"/>
	<path d="M113.8,58.3l-0.9,6.7h-9.3l9.1-52.3h10.9l9.1,52.3h-9.2l-1-6.7H113.8z M114.8,51.3h6.6l-3.2-25.9L114.8,51.3z"/>
	<path d="M168.9,65h-9.5V21.2h-7.3V65h-12.8c-0.5-3.1-1.1-5.5-1.6-8.5h5V12.7h26.3V65z"/>
	<path d="M176.8,12.7h19.5l1.6,8.5h-11.5v14.4h8.9v7.8h-8.9v13.2h11.1l-1.7,8.5h-19V12.7z"/>
	<path d="M205.1,12.7h19.5l1.6,8.5h-11.5v14.4h8.9v7.8h-8.9v13.2h11.1l-1.7,8.5h-19V12.7z"/>
</g>
</svg>
