<?xml version="1.0" encoding="UTF-8"?>
<!DOCTYPE svg PUBLIC "-//W3C//DTD SVG 1.1//EN" "http://www.w3.org/Graphics/SVG/1.1/DTD/svg11.dtd">
<!-- Creator: CorelDRAW X8 -->
<svg xmlns="http://www.w3.org/2000/svg" xml:space="preserve" width="500px" height="500px" version="1.1" style="shape-rendering:geometricPrecision; text-rendering:geometricPrecision; image-rendering:optimizeQuality; fill-rule:evenodd; clip-rule:evenodd"
viewBox="0 0 500 500"
 xmlns:xlink="http://www.w3.org/1999/xlink">
 <defs>
  <style type="text/css">
   <![CDATA[
    .fil0 {fill:#C3C3C3}
   ]]>
  </style>
 </defs>
 <g id="Слой_x0020_1">
  <metadata id="CorelCorpID_0Corel-Layer"/>
  <path class="fil0" d="M250 19c128,0 231,103 231,231 0,128 -103,231 -231,231 -128,0 -231,-103 -231,-231 0,-128 103,-231 231,-231zm0 37c109,0 198,87 198,194 0,107 -89,194 -198,194 -109,0 -198,-87 -198,-194 0,-107 89,-194 198,-194zm-101 201l0 115 74 0 0 -77 56 0 0 76c5,0 67,1 73,1l0 -115c0,-1 -91,-66 -101,-75 -15,12 -100,74 -102,75l0 0 0 0zm-42 -32c1,2 14,19 15,21 16,-10 107,-77 128,-93 24,20 112,87 127,93 2,-2 15,-20 15,-21 -4,-5 -41,-29 -41,-29l0 -76 -34 0 0 49c-1,0 -56,-39 -63,-44 -6,-4 -4,-5 -10,0 -33,24 -110,78 -137,100l0 0z"/>
 </g>
</svg>
