<?xml version="1.0" encoding="UTF-8"?>
<!DOCTYPE svg PUBLIC "-//W3C//DTD SVG 1.1//EN" "http://www.w3.org/Graphics/SVG/1.1/DTD/svg11.dtd">
<!-- Creator: CorelDRAW X8 -->
<svg xmlns="http://www.w3.org/2000/svg" xml:space="preserve" width="500px" height="500px" version="1.1" style="shape-rendering:geometricPrecision; text-rendering:geometricPrecision; image-rendering:optimizeQuality; fill-rule:evenodd; clip-rule:evenodd"
viewBox="0 0 500 500"
 xmlns:xlink="http://www.w3.org/1999/xlink">
 <defs>
  <style type="text/css">
   <![CDATA[
    .str0 {stroke:#2B2A29;stroke-width:9.20283}
    .fil0 {fill:white}
   ]]>
  </style>
 </defs>
 <g id="Слой_x0020_1">
  <metadata id="CorelCorpID_0Corel-Layer"/>
  <path class="fil0 str0" d="M250 11c132,0 239,107 239,239 0,132 -107,239 -239,239 -132,0 -239,-107 -239,-239 0,-132 107,-239 239,-239zm0 38c113,0 205,90 205,201 0,111 -92,201 -205,201 -113,0 -205,-90 -205,-201 0,-111 92,-201 205,-201zm-104 208l0 119 76 0 0 -79 58 0 0 78c5,0 69,1 76,1l0 -119c0,-1 -95,-68 -105,-77 -15,12 -103,76 -105,77l0 0zm-44 -33c1,2 15,20 16,22 16,-10 110,-80 132,-96 25,20 116,90 131,96 2,-2 16,-21 16,-22 -4,-5 -42,-30 -42,-30l0 -78 -36 0 0 50c-1,0 -58,-40 -65,-45 -6,-4 -4,-5 -10,0 -34,24 -114,80 -142,103l0 0z"/>
 </g>
</svg>
