<?xml version="1.0" encoding="UTF-8"?>
<!DOCTYPE svg PUBLIC "-//W3C//DTD SVG 1.1//EN" "http://www.w3.org/Graphics/SVG/1.1/DTD/svg11.dtd">
<!-- Creator: CorelDRAW X7 -->
<svg xmlns="http://www.w3.org/2000/svg" xml:space="preserve" width="50px" height="50px" version="1.1" style="shape-rendering:geometricPrecision; text-rendering:geometricPrecision; image-rendering:optimizeQuality; fill-rule:evenodd; clip-rule:evenodd"
viewBox="0 0 50 50"
 xmlns:xlink="http://www.w3.org/1999/xlink">
 <defs>
  <style type="text/css">
   <![CDATA[
    .fil0 {fill:#F15E29}
   ]]>
  </style>
 </defs>
 <g id="Слой_x0020_1">
  <metadata id="CorelCorpID_0Corel-Layer"/>
  <g id="_2678762039584">
   <path class="fil0" d="M38 16l1 0c0,0 1,0 1,0 0,0 1,1 1,1 0,0 0,0 0,1l0 14c0,1 0,0 0,1 0,0 -1,1 -1,1 -1,0 -1,0 -1,0l-3 0c-1,0 -2,0 -2,0l-6 0 0 -4c0,0 0,0 0,0 -1,0 0,0 -1,0 0,0 0,0 0,0l-7 5c-1,0 -1,0 -1,0l-2 1c0,1 2,2 2,2 1,1 8,5 9,5 0,0 0,-1 0,-1 0,-1 0,-3 0,-3l3 0c0,0 8,0 9,0 0,0 1,0 1,-1 1,0 2,0 3,-1 0,0 1,0 1,-1 0,0 0,0 0,0 1,-1 2,-2 2,-3 0,0 0,0 0,-1l0 -13 0 -2c0,0 0,-1 -1,-1l0 -1c0,0 0,0 0,0 0,0 0,0 0,0 0,-1 0,-1 0,-1 -1,0 -1,-1 -2,-1 -1,-1 -2,-1 -4,-2 0,0 -1,0 -1,0 0,0 -2,0 -2,0l-1 0 0 5 2 0z"/>
   <path class="fil0" d="M19 11c0,0 -3,0 -3,0 -2,0 -3,0 -4,0 -1,0 -2,0 -3,0 -1,1 -2,1 -3,2 0,0 -1,1 -1,1 -1,1 -1,2 -2,2 0,1 0,1 0,1 0,0 0,0 0,1l0 13 0 2c0,0 0,0 0,0 0,0 0,1 0,1 1,1 1,1 2,2 0,0 0,0 0,0l1 1 1 1c1,0 2,1 3,1 1,0 2,0 3,0l1 0 0 -5c0,0 -1,0 -1,0 0,0 0,0 -1,0 0,0 0,0 0,0 -1,0 -2,0 -3,-1l0 0c0,0 0,0 0,-1l0 -13c0,-1 -1,-1 0,-2 0,0 0,0 1,-1 0,0 0,0 1,0l7 0 4 0 0 4c0,0 0,0 0,0 1,0 0,0 1,0l10 -6c0,-1 -3,-3 -4,-3l-4 -3c0,0 -1,0 -1,0 -1,-1 -1,-1 -1,-1 0,0 -1,0 -1,0 0,0 0,0 0,0l0 4 -3 0z"/>
   <path class="fil0" d="M28 30c0,0 0,0 0,0l0 4 6 0 -6 0 0 -4c0,0 0,0 0,0z"/>
   <path class="fil0" d="M22 20c0,0 0,0 0,0l0 -4 -4 0 4 0 0 4c0,0 0,0 0,0z"/>
   <path class="fil0" d="M13 39c0,0 0,0 0,0l1 0 0 -5 -1 0c0,0 1,0 1,0l0 5 -1 0z"/>
   <path class="fil0" d="M38 16l-2 0 0 -5 1 0c0,0 0,0 0,0l-1 0 0 5 2 0z"/>
   <path class="fil0" d="M28 43l0 -4 3 0c0,0 0,0 0,0l-3 0c0,0 0,2 0,3 0,0 0,1 0,1z"/>
   <path class="fil0" d="M19 11l3 0 0 -4c0,0 0,0 0,0l0 4 -2 0c0,0 -1,0 -1,0 0,0 0,0 0,0z"/>
  </g>
 </g>
</svg>
