<?xml version="1.0" encoding="UTF-8"?>
<!DOCTYPE svg PUBLIC "-//W3C//DTD SVG 1.1//EN" "http://www.w3.org/Graphics/SVG/1.1/DTD/svg11.dtd">
<!-- Creator: CorelDRAW X7 -->
<svg xmlns="http://www.w3.org/2000/svg" xml:space="preserve" width="50px" height="50px" version="1.1" style="shape-rendering:geometricPrecision; text-rendering:geometricPrecision; image-rendering:optimizeQuality; fill-rule:evenodd; clip-rule:evenodd"
viewBox="0 0 50 50"
 xmlns:xlink="http://www.w3.org/1999/xlink">
 <defs>
  <style type="text/css">
   <![CDATA[
    .fil0 {fill:#F15E29}
   ]]>
  </style>
 </defs>
 <g id="Слой_x0020_1">
  <metadata id="CorelCorpID_0Corel-Layer"/>
  <g id="_2678761716880">
   <path class="fil0" d="M38 11l-10 0c-1,0 -1,2 -2,2 0,1 -1,2 -1,3 0,1 -1,2 -1,3 -1,1 -1,2 -2,2l-4 8c0,1 -1,3 -1,3l-13 0 0 7 16 0c0,0 1,-2 1,-2l8 -16c0,-1 1,-3 2,-3l7 0 0 4 6 -6c1,0 2,-1 2,-1l0 -1c0,0 -3,-3 -4,-3 -1,-1 -2,-3 -4,-4l0 4z"/>
   <path class="fil0" d="M25 34c0,1 2,3 2,4 0,0 0,1 1,1l10 0 0 4c1,0 8,-7 8,-7l0 -1c0,0 0,0 -1,0l-3 -3c-1,-1 -3,-3 -4,-4l0 4 -7 0c-1,0 -1,-1 -2,-2 0,0 0,-1 -1,-2 0,0 -1,3 -1,3 0,0 -2,3 -2,3z"/>
   <path class="fil0" d="M4 18l13 0c0,0 2,4 2,4 1,-2 2,-4 3,-6 0,-1 -1,-2 -1,-3 0,0 -1,-2 -1,-2l-16 0 0 7z"/>
  </g>
 </g>
</svg>
