<?xml version="1.0" encoding="utf-8"?>
<!-- Generator: Adobe Illustrator 22.0.1, SVG Export Plug-In . SVG Version: 6.00 Build 0)  -->
<svg version="1.2" baseProfile="tiny" id="Слой_1"
	 xmlns="http://www.w3.org/2000/svg" xmlns:xlink="http://www.w3.org/1999/xlink" x="0px" y="0px" viewBox="0 0 280 80"
	 xml:space="preserve">
<g>
	<path d="M38.7,66.8c-5.6,0-7.5-2-7.5-7.4V20.3c0-3.7,2.6-5.8,5.8-5.8h13.2l1.7,8.5h-9.3c-1.3,0-1.7,0.6-1.7,1.7v32
		c0,1.1,0.2,1.7,1.5,1.7h9.4l-1.7,8.5H38.7z"/>
	<path d="M68.5,37.6h2.8l7-22.2c0.2-0.7,0.9-1,1.7-1h7.3l1.7,8.5h-3c-0.9,0-1.2,0.1-1.4,1.1l-4.4,14.5c2.7,9.3,5.5,18.9,8.2,28.3H78
		l-6-22.4h-3.5v22.4H59V14.5h9.5V37.6z"/>
	<path d="M104.5,60.1l-0.9,6.7h-9.3l9.1-52.3h10.9l9.1,52.3h-9.2l-1-6.7H104.5z M105.6,53.1h6.6l-3.2-25.8L105.6,53.1z"/>
	<path d="M144.9,14.5h9.4v52.3h-9.4V45.2h-10.2c-5.5,0-7.4-1.9-7.4-7.3V14.5h9.5v21.1c0,1.3,0.1,1.7,1.6,1.7h6.5V14.5z"/>
	<path d="M171.1,60.1l-0.9,6.7h-9.3l9.1-52.3h10.9l9.1,52.3h-9.2l-1-6.7H171.1z M172.1,53.1h6.6l-3.2-25.8L172.1,53.1z"/>
	<path d="M213.6,14.5l2.2,8.5h-7.3v43.9h-9.5V23h-7.2l2.4-8.5H213.6z"/>
	<path d="M231.8,35.4h10.5c4.5,0,6.5,2.4,6.5,6.2v19.1c0,3.7-2,6.1-6.5,6.1h-20V14.5h9.5V35.4z M238.1,58.9c1.4,0,1.7-0.5,1.7-1.7
		V44.6c0-1.4-0.2-1.7-1.8-1.7h-6.2v16.1H238.1z"/>
</g>
</svg>
