<?xml version="1.0" encoding="utf-8"?>
<!-- Generator: Adobe Illustrator 22.0.1, SVG Export Plug-In . SVG Version: 6.00 Build 0)  -->
<svg version="1.2" baseProfile="tiny" id="Слой_1"
	 xmlns="http://www.w3.org/2000/svg" xmlns:xlink="http://www.w3.org/1999/xlink" x="0px" y="0px" viewBox="0 0 280 80"
	 xml:space="preserve">
<g>
	<path d="M22.6,67.4c-5.6,0-7.5-2-7.5-7.4V20.9c0-3.7,2.6-5.8,5.8-5.8h13.2l1.7,8.5h-9.3c-1.3,0-1.7,0.6-1.7,1.7v32
		c0,1.1,0.2,1.7,1.5,1.7h9.4l-1.7,8.5H22.6z"/>
	<path d="M52.2,38.9v28.5H43V15.1h10l6.6,22.6l6.7-22.6h10.1v52.3h-9.2V38.9l-7.6,22.8L52.2,38.9z"/>
	<path d="M110.7,60.5c0,3.7-1.4,6.9-6.8,6.9H91.2c-5.4,0-6.9-3.2-6.9-6.9V21.3c0-3.7,1.9-6.2,6.5-6.2h13.5c4.5,0,6.4,2.4,6.4,6.2
		V60.5z M95.3,23c-1.3,0-1.7,0.6-1.7,1.8v32.8c0,1.4,0.2,1.9,1.7,1.9h4.1c1.6,0,1.8-0.5,1.8-1.9V24.8c0-1.2-0.4-1.8-1.7-1.8H95.3z"
		/>
	<path d="M138.9,15.1l2.2,8.5h-7.3v43.9h-9.5V23.6h-7.2l2.4-8.5H138.9z"/>
	<path d="M173.4,47c0,3.8-2.5,6.1-7,6.1h-9.6v14.3h-9.2V15.1h19.3c4.5,0,6.5,2.4,6.5,6.1V47z M156.8,23v22.8h5.8
		c1.6,0,1.8-0.6,1.8-1.9V24.6c0-1.2-0.4-1.7-1.7-1.7H156.8z"/>
	<path d="M181.1,15.1h19.5l1.6,8.5h-11.5V38h8.9v7.8h-8.9v13.2h11.1l-1.7,8.5h-19V15.1z"/>
	<path d="M229.7,15.1l2.2,8.5h-7.3v43.9h-9.5V23.6h-7.2l2.4-8.5H229.7z"/>
	<path d="M247.9,36h10.5c4.5,0,6.5,2.4,6.5,6.2v19.1c0,3.7-2,6.1-6.5,6.1h-20V15.1h9.5V36z M254.2,59.5c1.4,0,1.7-0.5,1.7-1.7V45.2
		c0-1.4-0.2-1.7-1.8-1.7h-6.2v16.1H254.2z"/>
</g>
</svg>
