<?xml version="1.0" encoding="utf-8"?>
<!-- Generator: Adobe Illustrator 20.1.0, SVG Export Plug-In . SVG Version: 6.00 Build 0)  -->
<svg version="1.2" baseProfile="tiny" id="Слой_1"
	 xmlns="http://www.w3.org/2000/svg" xmlns:xlink="http://www.w3.org/1999/xlink" x="0px" y="0px" viewBox="0 0 280 80"
	 overflow="scroll" xml:space="preserve">
<g>
	<path d="M49.3,18h7.9v43.6h-7.9v-18h-8.5c-4.6,0-6.2-1.6-6.2-6.1V18h7.9v17.6c0,1.1,0.1,1.4,1.3,1.4h5.4V18z"/>
	<path d="M68.6,49l6.7-29.6V18h7.9v43.6h-7.9V30.1l-6.7,30.2v1.4h-7.9V18h7.9V49z"/>
	<path d="M103.7,18l1.9,7.1h-6.1v36.5h-7.9V25.1h-6l2-7.1H103.7z"/>
	<path d="M112.7,56l-0.8,5.6h-7.7l7.6-43.6h9.1l7.6,43.6h-7.7l-0.8-5.6H112.7z M113.6,50.2h5.5l-2.7-21.5L113.6,50.2z"/>
	<path d="M145.2,18l1.9,7.1H141v36.5h-7.9V25.1h-6l2-7.1H145.2z"/>
	<path d="M157.4,35.5h8.8c3.7,0,5.4,2,5.4,5.2v15.9c0,3.1-1.7,5.1-5.4,5.1h-16.7V18h7.9V35.5z M162.6,55c1.1,0,1.4-0.4,1.4-1.4V43.1
		c0-1.1-0.2-1.4-1.5-1.4h-5.2V55H162.6z"/>
	<path d="M204.6,44.3v11c0,4.5-1.7,6.3-6.4,6.3h-15.6V18h16.1c3.6,0,5.4,1.8,5.4,5.3v13c0,1.9-0.7,3.5-2.8,4
		C203.7,40.6,204.6,42.6,204.6,44.3z M190.3,24.6v13.1h4.9c1,0,1.7-0.5,1.7-1.8v-9.8c0-1-0.3-1.5-1.4-1.5H190.3z M196.9,45.1
		c0-1.4-0.8-1.9-1.9-1.9h-4.7V55h5.2c1.2,0,1.5-0.4,1.5-1.6V45.1z"/>
	<path d="M214.4,61.6c-4.7,0-6.2-1.7-6.2-6.2V22.9c0-3.1,2.2-4.9,4.8-4.9h11l1.4,7.1h-7.7c-1.1,0-1.4,0.5-1.4,1.4v26.7
		c0,0.9,0.2,1.4,1.3,1.4h7.9l-1.4,7.1H214.4z"/>
	<path d="M231.9,8.2c2.2,0,3.8,1.9,3.8,4c0,2.2-1.7,4-3.8,4c-2.3,0-4-1.8-4-4C227.9,10.1,229.6,8.2,231.9,8.2z M228.4,61.6h15.8
		l1.4-7.1h-9.2v-11h7.4v-6.5h-7.4v-12h9.6l-1.3-7.1h-16.3V61.6z M242.1,8.2c2.2,0,4,1.9,4,4c0,2.2-1.7,4-4,4s-4-1.8-4-4
		C238.1,10.1,239.9,8.2,242.1,8.2z"/>
</g>
</svg>
