<?xml version="1.0" standalone="no"?>
<!DOCTYPE svg PUBLIC "-//W3C//DTD SVG 1.1//EN" "http://www.w3.org/Graphics/SVG/1.1/DTD/svg11.dtd" >
<svg xmlns="http://www.w3.org/2000/svg" xmlns:xlink="http://www.w3.org/1999/xlink" version="1.1">
<metadata>
Created by FontForge 20160405 at Sat Nov 24 08:25:44 2018
 By www-data
1.2, Copyright Copr. Castcraft Software, Inc. 1990-1991.
</metadata>
<defs>
<font id="OPTINational-Gothic" horiz-adv-x="211" >
  <font-face 
    font-family="OPTINational-Gothic"
    font-weight="500"
    font-stretch="normal"
    units-per-em="1000"
    panose-1="0 0 0 0 0 0 0 0 0 0"
    ascent="800"
    descent="-200"
    x-height="640"
    cap-height="817"
    bbox="-75 -248.75 912 1133"
    underline-thickness="61"
    underline-position="-201"
    unicode-range="U+0020-221E"
  />
<missing-glyph horiz-adv-x="280" 
 />
    <glyph glyph-name=".notdef" horiz-adv-x="280" 
 />
    <glyph glyph-name=".null" horiz-adv-x="0" 
 />
    <glyph glyph-name="nonmarkingreturn" horiz-adv-x="333" 
 />
    <glyph glyph-name="space" unicode=" " horiz-adv-x="156" 
 />
    <glyph glyph-name="exclam" unicode="!" horiz-adv-x="232" 
d="M114 189l-61 469q0 6 -3 28t-2.5 48t8 50.5t27.5 36.5q14 8 39 8.5t43 -12.5q18 -12 24.5 -33.5t7.5 -45t-1.5 -44t-3.5 -29.5l-55 -476h-23zM127 133q29 0 50.5 -21.5t21.5 -50.5t-21.5 -50t-50.5 -21q-30 0 -51.5 21t-21.5 50t21.5 50.5t51.5 21.5z" />
    <glyph glyph-name="quotedbl" unicode="&#x22;" horiz-adv-x="367" 
d="M113 463l-26 206q-2 10 -6 32t-5 46t3.5 45t19.5 30q8 6 22 6t28 -8q13 -8 17.5 -28.5t3.5 -43.5t-4 -44.5t-4 -32.5l-25 -208h-24zM246 463l-26 206q-2 10 -6 32t-5 46t3.5 45t19.5 30q8 6 22 6t28 -8t18.5 -28.5t3.5 -43.5t-4.5 -44.5t-4.5 -32.5l-25 -208h-24z" />
    <glyph glyph-name="numbersign" unicode="#" horiz-adv-x="851" 
d="M495 758l-80 -237h149l84 237h88l-78 -237h162l-24 -79h-166l-52 -158h162l-27 -79h-165l-83 -237h-91l80 236h-152l-83 -236h-91l82 234h-167l29 82h166l52 158h-165l28 79h167l85 237h90zM483 284l52 158h-150l-52 -158h150z" />
    <glyph glyph-name="dollar" unicode="$" horiz-adv-x="465" 
d="M304 828v-89q38 -11 60.5 -27.5t35 -41t18 -57t8.5 -74.5h-111q-3 26 -9.5 48.5t-29.5 37.5q-15 9 -35.5 8.5t-35.5 -8.5q-16 -9 -23.5 -24t-7.5 -27q0 -15 9 -28.5t23 -25.5t30 -22.5t30 -19.5l21 -11q40 -24 68 -45.5t45 -45t24.5 -50.5t5.5 -61q-5 -62 -35.5 -98
t-90.5 -62v-105h-110v105q-17 2 -31 9t-29 18q-24 18 -41 42t-27.5 50t-15 51.5t-4.5 46.5h110q0 -37 10 -62t47 -45q19 -10 37.5 -7t33.5 11q19 10 23 25t5 31q1 17 -8.5 31.5t-24.5 26t-32 21.5t-31 18l-20 11q-39 22 -66 41.5t-43.5 41.5t-23.5 48t-5 60q1 21 8.5 47
t24 50t42 43t61.5 25v89h110z" />
    <glyph glyph-name="percent" unicode="%" horiz-adv-x="799" 
d="M689 798l-474 -794h-96l474 794h96zM156 826q9 1 24.5 1.5t33 -2.5t35 -9t31.5 -18q17 -15 26.5 -34t14 -40t6 -41.5t2.5 -37.5v-107q0 -19 -1.5 -41t-7.5 -44t-19.5 -41.5t-37.5 -34.5q-15 -9 -35 -13t-40.5 -4t-40 4t-35.5 12q-26 14 -39 34.5t-19 42.5t-6.5 44.5
t-1.5 41.5v106q0 17 0.5 39.5t6 45t17.5 43t35 35.5q11 7 23 11t28 7zM133 543v-21t2.5 -28t9 -28.5t18.5 -21.5t27 -7t23 6q12 7 18.5 21t8.5 29t2 28.5v20.5v98v19t-1.5 28t-7 29t-15.5 22q-11 8 -25.5 9t-22.5 -1q-16 -5 -23.5 -21t-10.5 -34.5t-3 -35v-20.5v-92z
M593 441q9 1 24 1.5t32.5 -2.5t35 -9t31.5 -18q17 -15 26.5 -34t14.5 -40t6.5 -41.5t1.5 -37.5v-92q0 -19 -1 -41t-7.5 -44t-20 -41.5t-37.5 -34.5q-15 -9 -35 -13.5t-40.5 -4.5t-40 4t-35.5 13q-25 14 -38 34t-19 42.5t-7 45t-2 41.5v91q0 17 1 39.5t6.5 45t17.5 43
t35 35.5q11 7 23 11t28 7zM569 172v-21t2.5 -28t8.5 -28.5t19 -21.5q12 -7 27 -6t23 5q13 7 19 21t8 29t2 28.5v20.5v84q0 6 0.5 19t-1.5 28t-7 29t-16 22t-25.5 9t-22.5 -1q-15 -5 -22.5 -21.5t-10.5 -35t-3.5 -34.5t-0.5 -20v-78z" />
    <glyph glyph-name="ampersand" unicode="&#x26;" horiz-adv-x="518" 
d="M391 248q6 19 9.5 35t5.5 31t3.5 31t1.5 36h98q1 -23 -1 -49.5t-6 -51t-8 -43.5t-7 -28q-8 -26 -14 -41t-17 -37l69 -131h-118q-5 12 -10.5 23.5t-13.5 23.5q-52 -43 -107.5 -53.5t-103.5 4.5q-53 17 -85 50.5t-46 85.5q-8 27 -8.5 59t6.5 65.5t23 67.5t42 64
q26 26 50 53q-18 31 -34 63t-25 64.5t-7.5 65t19.5 63.5q23 42 56.5 59.5t71.5 18.5q34 1 70.5 -14t62.5 -56q12 -19 17.5 -42.5t4.5 -48t-7 -49t-16 -45.5q-17 -31 -35.5 -52.5t-41.5 -45.5zM283 584q9 20 9.5 39.5t-10.5 32.5q-7 8 -17 13.5t-27 4.5q-14 -1 -23.5 -9.5
t-14.5 -18.5q-6 -12 -4.5 -28t8 -33.5t16 -34.5t18.5 -32q13 15 20.5 25t12 17.5t7 12.5zM174 309q-12 -18 -18.5 -38.5t-9 -40.5t-0.5 -38.5t7 -32.5q19 -51 69 -62q25 -7 50 2t57 38l-120 212q-11 -10 -20.5 -22t-14.5 -18z" />
    <glyph glyph-name="quotesingle" unicode="'" horiz-adv-x="222" 
d="M121 695q-28 2 -47.5 20.5t-19.5 45.5q0 28 19.5 47.5t47.5 19.5t47.5 -19.5t19.5 -47.5q0 -11 -5.5 -23t-7.5 -15l-88 -165l-22 11l68 126h-12v0z" />
    <glyph glyph-name="parenleft" unicode="(" horiz-adv-x="304" 
d="M231 -52q-23 39 -42 72q-17 29 -32.5 56.5t-21.5 40.5q-47 99 -62 191.5t-1.5 184t53.5 184t105 192.5h62q-15 -26 -25.5 -51.5t-19 -50.5t-16 -50t-16.5 -52q-25 -84 -33 -175.5t1.5 -184t37 -183.5t72.5 -174h-62v0z" />
    <glyph glyph-name="parenright" unicode=")" horiz-adv-x="302" 
d="M30 -52q45 83 72.5 174t37 183.5t1.5 184t-33 175.5q-9 27 -16.5 52t-16 50t-19 50.5t-25.5 51.5h62q64 -100 104.5 -192.5t54 -184t-2 -184t-61.5 -191.5q-6 -13 -21.5 -40.5t-32.5 -56.5q-19 -33 -42 -72h-62v0z" />
    <glyph glyph-name="asterisk" unicode="*" horiz-adv-x="396" 
d="M174 828q10 -2 16.5 -2.5t12.5 -0.5t13 0.5t18 2.5l-13 -139l112 82q7 -13 12.5 -23t21.5 -30l-133 -58q34 -16 62 -28q23 -11 44 -20t24 -10q-5 -8 -9 -14t-7 -11.5t-6 -12t-7 -15.5l-115 85l14 -142q-10 1 -17 1h-13.5t-13.5 -0.5t-17 -1.5l17 144l-116 -86
q-7 15 -12 24.5t-19 28.5l128 57l-128 57q8 10 15.5 21.5t13.5 30.5l116 -80l-14 140v0z" />
    <glyph glyph-name="plus" unicode="+" horiz-adv-x="834" 
d="M497 754v-307h300v-142h-300v-305h-142v305h-303v142h303v307h142z" />
    <glyph glyph-name="comma" unicode="," horiz-adv-x="223" 
d="M123 -10q-27 2 -46.5 20.5t-19.5 46.5q0 27 19.5 46.5t46.5 19.5q28 0 47.5 -19.5t19.5 -46.5q0 -12 -3.5 -21.5t-8.5 -17.5l-89 -165l-21 12l67 125h-12v0z" />
    <glyph glyph-name="hyphen" unicode="-" horiz-adv-x="273" 
d="M243 313h-193v100h193v-100z" />
    <glyph glyph-name="period" unicode="." horiz-adv-x="226" 
d="M123 137q31 0 53 -22t22 -53t-21.5 -52t-52.5 -21t-53 21t-22 52t21.5 53t52.5 22z" />
    <glyph glyph-name="slash" unicode="/" horiz-adv-x="612" 
d="M583 857l-444 -894h-97l444 894h97z" />
    <glyph glyph-name="zero" unicode="0" horiz-adv-x="549" 
d="M222 825q19 2 43.5 2.5t50 -4t51.5 -14.5t48 -28q27 -23 41 -47.5t20.5 -51t7 -54t0.5 -54.5v-299q0 -24 -2 -59.5t-11.5 -73.5t-30 -73t-57.5 -56q-20 -12 -50 -18t-62 -6t-62 5.5t-50 17.5q-34 19 -54 48.5t-30.5 62.5t-14 66t-3.5 59v318q0 25 1 56t8.5 62t25 60
t50.5 51q15 9 37.5 17.5t42.5 12.5zM179 248v-37.5t3 -40t12 -36.5t27 -27q9 -6 22.5 -8t28 -2t28 3t22.5 8q15 8 23.5 27t12 41.5t4 44.5t0.5 34v307q0 16 0.5 35.5t-2.5 38t-11.5 35.5t-26.5 29q-21 14 -48 15.5t-42 -5.5q-23 -10 -34 -30t-15 -43t-4 -46v-39v-304z" />
    <glyph glyph-name="one" unicode="1" horiz-adv-x="549" 
d="M378 817v-817h-127v610h-141v103q14 0 32 -0.5t36.5 2t36.5 8.5t31 18q14 14 20 34.5t10 41.5h102z" />
    <glyph glyph-name="two" unicode="2" horiz-adv-x="549" 
d="M478 107v-107h-400q0 43 1 83t12 79.5t34.5 80.5t68.5 86l48 45q39 37 62.5 68t36.5 62t17.5 64.5t4.5 75.5q0 26 -15 46.5t-42 25.5q-20 4 -41 -1t-40 -20q-17 -14 -25 -31t-10 -35t-1.5 -37t-0.5 -37h-119q-2 26 -0.5 58t11.5 64.5t29.5 63t53.5 53.5q23 15 51 23.5
t56 10.5t55 -2t49 -14q55 -23 85 -66.5t29 -88.5q0 -38 -5.5 -81t-23 -89.5t-49 -94.5t-83.5 -96l-36 -34q-22 -20 -38 -36.5t-26.5 -34.5t-16 -38t-8.5 -46h276z" />
    <glyph glyph-name="three" unicode="3" horiz-adv-x="549" 
d="M357 427q26 -9 46 -19t35 -25t26 -35.5t20 -48.5q7 -25 9 -56.5t-3 -64.5t-16.5 -63.5t-29.5 -54.5q-18 -23 -38 -37t-41.5 -21.5t-44.5 -10t-47 -2.5q-19 0 -41.5 3t-45.5 12t-45 25t-40 42q-27 38 -34.5 82t-6.5 86h122q0 -17 1 -35t6 -34.5t16.5 -32t32.5 -27.5
q17 -11 40 -11.5t43 10.5q16 9 26.5 23t16 30.5t7.5 33.5t2 32t-1.5 32t-7 34t-16 32.5t-28.5 26.5q-22 14 -56.5 14.5t-70.5 0.5v117q18 0 38.5 0.5t40 5t37 15.5t30.5 33q6 11 9 31t2.5 41.5t-3.5 40.5t-8 28q-11 20 -29 28t-41 8q-21 0 -40 -10.5t-30 -34.5
q-8 -17 -11 -35t-4 -43h-116q-2 23 1 51t12 55.5t26.5 53.5t44.5 44q21 14 49.5 21.5t58 9t57 -2.5t46.5 -13q51 -23 76 -62t32 -90q3 -21 1.5 -47t-8.5 -52.5t-20.5 -52t-35.5 -45.5q-11 -11 -21 -18t-30 -18z" />
    <glyph glyph-name="four" unicode="4" horiz-adv-x="549" 
d="M425 817v-520h91v-116h-91v-181h-128v181h-261v121l241 515h148zM297 297v317l-153 -317h153z" />
    <glyph glyph-name="five" unicode="5" horiz-adv-x="549" 
d="M452 817v-110h-258v-193q38 47 83.5 60.5t93.5 -0.5q40 -12 62.5 -38t33 -57.5t12.5 -65.5t2 -63v-97q0 -30 -0.5 -63t-9.5 -65t-31 -61.5t-65 -51.5q-20 -11 -46.5 -17t-55 -6t-56.5 6.5t-52 21.5q-33 20 -51.5 46.5t-28 57t-11.5 64t-2 67.5h120v-28.5t4.5 -42
t14 -43.5t29.5 -31q13 -8 34 -9t40 10q17 9 26 31.5t12.5 47.5t3.5 46.5v29.5v44v23.5t-3 41.5t-10.5 45.5t-23.5 35.5q-12 9 -32.5 11.5t-37.5 -3.5q-34 -13 -51.5 -44.5t-22.5 -62.5l-94 46v417h371z" />
    <glyph glyph-name="six" unicode="6" horiz-adv-x="549" 
d="M352 579q0 16 -0.5 32.5t-5 32t-13.5 29.5t-27 26q-6 4 -17 6t-23 2t-24 -3t-20 -8q-18 -12 -26.5 -32t-11.5 -42.5t-3 -43.5v-34v-112q17 35 40 55t55 28t70.5 2t69.5 -29q23 -18 36.5 -39.5t20.5 -45t9.5 -46t3.5 -41.5v-66q0 -25 -1 -57t-10 -65t-29.5 -63.5
t-58.5 -52.5q-21 -12 -51.5 -18t-62.5 -5.5t-61.5 7t-49.5 17.5q-37 21 -57 48.5t-29.5 59t-11.5 66t-3 69.5v289q0 30 2.5 66t12.5 71t30.5 66t55.5 51q52 29 110.5 28.5t109.5 -30.5q31 -18 50 -46.5t29 -59t12.5 -60.5t2.5 -52h-124zM186 339q-2 -14 -3 -44t1 -63
t7.5 -62.5t16.5 -42.5q20 -24 44 -30t44 -3q27 5 46.5 28.5t19.5 66.5v155q0 35 -16 59.5t-52 24.5q-21 0 -40.5 -8t-45.5 -36q-8 -8 -14 -21t-8 -24z" />
    <glyph glyph-name="seven" unicode="7" horiz-adv-x="549" 
d="M496 817v-112l-64 -116q-32 -56 -55.5 -100t-40 -83t-26.5 -75t-16 -76t-8 -87t-2 -107v-61h-129v50q2 86 18 163t39.5 143t50.5 121t52.5 98.5t45.5 75t29 50.5h-290v116h396z" />
    <glyph glyph-name="eight" unicode="8" horiz-adv-x="549" 
d="M373 423q26 -10 45 -20t32.5 -24.5t22.5 -35t15 -50.5q4 -20 6 -50.5t-2.5 -64.5t-16 -67.5t-34.5 -58.5q-24 -26 -51.5 -39.5t-55 -18.5t-54 -4.5t-48.5 3.5q-46 6 -85.5 35t-62.5 79q-11 23 -16.5 55t-5 66t7.5 65.5t20 53.5q16 28 35 44t54 32q-30 15 -49.5 31.5
t-31 35.5t-17 42.5t-8.5 52.5q-2 20 -1 46t8 53.5t21.5 54t40.5 47.5q23 18 51.5 27.5t57.5 12.5t55.5 0.5t45.5 -8.5q48 -15 76 -42.5t43 -81.5q4 -14 6.5 -42t0.5 -60.5t-11.5 -64.5t-29.5 -54q-4 -4 -13.5 -12t-20 -16t-19 -14.5t-11.5 -7.5zM196 552q5 -23 18.5 -40
t33.5 -25q18 -8 39 -5t34 12q15 11 22.5 27.5t10 34.5t2.5 35v28q0 24 -6 50.5t-30 40.5q-19 11 -42.5 10t-38.5 -9q-20 -9 -30.5 -30t-14 -45.5t-2.5 -47.5t4 -36zM183 272v-31t3.5 -44t12.5 -45t26 -35q18 -14 44.5 -17t49.5 7q27 11 38.5 31t14.5 42q1 12 1.5 36t-2 50
t-9 49.5t-19.5 35.5q-10 9 -22.5 13.5t-25.5 6t-24.5 0.5t-19.5 -4q-35 -11 -50.5 -37.5t-17.5 -57.5z" />
    <glyph glyph-name="nine" unicode="9" horiz-adv-x="549" 
d="M196 239q0 -16 0.5 -32.5t5 -32t13.5 -29.5t27 -26q6 -4 17 -6t23.5 -2t24 3t19.5 8q18 12 26.5 32t11.5 42.5t3 43.5v34v112q-17 -35 -40 -55t-55 -28t-70.5 -2t-69.5 29q-23 18 -36.5 39.5t-20.5 45t-9.5 46t-3.5 41.5v66q0 25 1 57t10 65t29.5 63.5t58.5 52.5
q21 12 51.5 18t62.5 5.5t61.5 -7t49.5 -17.5q37 -21 57 -48.5t29.5 -59t11.5 -66t3 -69.5v-289q0 -30 -2.5 -66t-12.5 -71t-30 -66t-56 -51q-52 -29 -110.5 -28.5t-109.5 30.5q-32 18 -50.5 46.5t-28.5 59t-12.5 60.5t-2.5 52h124zM362 479q2 13 3 43.5t-0.5 63.5t-7 62.5
t-16.5 42.5q-21 24 -44.5 29.5t-44.5 2.5q-27 -5 -46.5 -28.5t-19.5 -65.5v-155q0 -42 16 -63t52 -21q23 0 43.5 7.5t43.5 36.5q7 8 13 21t8 24z" />
    <glyph glyph-name="colon" unicode=":" horiz-adv-x="228" 
d="M123 137q31 0 53 -22t22 -53t-21.5 -52t-52.5 -21t-53 21t-22 52t21.5 53t52.5 22zM123 569q31 0 53 -21.5t22 -52.5t-21.5 -52t-52.5 -21t-53 21t-22 52t21.5 52.5t52.5 21.5z" />
    <glyph glyph-name="semicolon" unicode=";" horiz-adv-x="225" 
d="M123 549q31 0 53 -21.5t22 -52.5t-21.5 -52t-52.5 -21t-53 21t-22 52t21.5 52.5t52.5 21.5zM119 1q-28 2 -47.5 20.5t-19.5 46.5q0 27 19.5 46.5t47.5 19.5q27 0 46.5 -19.5t19.5 -46.5q0 -22 -12 -39l-89 -164l-21 11l68 125h-12z" />
    <glyph glyph-name="less" unicode="&#x3c;" horiz-adv-x="575" 
d="M537 627v-110l-374 -132l374 -132v-110l-488 182v120z" />
    <glyph glyph-name="equal" unicode="=" horiz-adv-x="820" 
d="M778 198h-721v102h721v-102zM778 477h-721v101h721v-101z" />
    <glyph glyph-name="greater" unicode="&#x3e;" horiz-adv-x="575" 
d="M48 143v110l374 132l-374 132v110l488 -182v-120z" />
    <glyph glyph-name="question" unicode="?" horiz-adv-x="495" 
d="M181 222q-2 24 -3 49.5t3.5 52t16.5 54t36 56.5l14 16q28 32 48 58t31 50.5t12 50t-8 57.5q-6 19 -19.5 36.5t-38.5 21.5q-17 2 -35.5 -0.5t-32.5 -16.5q-24 -23 -30.5 -57.5t-4.5 -62.5h-126q1 10 4.5 37.5t13.5 60.5t28.5 66t49.5 53q21 13 47.5 22t54.5 12t56 0
t51 -14q51 -26 74 -63.5t32 -85.5q7 -36 6 -70.5t-13.5 -70.5t-38 -74t-67.5 -82l-17 -17q-16 -17 -24 -34.5t-11 -35t-3 -35v-34.5h-106zM240 135q30 0 51.5 -21.5t21.5 -51.5t-21.5 -51t-51.5 -21t-52 21t-22 51t22 51.5t52 21.5z" />
    <glyph glyph-name="at" unicode="@" horiz-adv-x="882" 
d="M529 239q-31 -51 -66.5 -70t-77.5 -18q-30 0 -64 15.5t-57 52.5q-14 23 -18.5 50t-2.5 55.5t10.5 57t21.5 53.5q15 29 35 53t43.5 41t49 26.5t50.5 11.5q17 1 34.5 -1t33.5 -9.5t30 -22.5t25 -39l17 57h112l-59 -208q-2 -8 -7 -25t-9 -35.5t-4 -35t8 -25.5q14 -14 46 -9
q19 4 35 14.5t29.5 25.5t23.5 32.5t17 35.5q12 29 18 63t4 69t-12.5 69t-32.5 64q-26 37 -63 59.5t-76 35t-76.5 16.5t-62.5 3q-44 -2 -86.5 -12.5t-82 -33t-75.5 -58.5t-66 -90q-20 -37 -30.5 -82.5t-11.5 -92.5t8 -92t29 -81q24 -43 57 -73t70.5 -49.5t77 -29t76.5 -11.5
q78 -5 155.5 17t154.5 70l24 -37q-64 -41 -134 -65.5t-139.5 -33t-135 0.5t-119.5 36q-52 26 -90 62t-63.5 77.5t-39.5 86.5t-17 90q-3 44 3 92.5t25.5 97t55 94.5t89.5 84q48 34 107.5 53.5t121 25t121 -2t107.5 -27.5q44 -19 75.5 -42.5t52.5 -52.5t33 -64t18 -77
q4 -28 1.5 -66.5t-13.5 -78.5t-32.5 -78t-55.5 -64q-18 -14 -39.5 -23.5t-43.5 -14t-43 -4t-39 7.5q-29 11 -42.5 29.5t-18.5 49.5zM361 272q0 -35 31 -57q10 -7 25 -7t29 7q23 11 41 41t31 64t20 65.5t9 45.5q2 18 -1.5 36t-18.5 29q-11 9 -30 10.5t-30 -2.5
q-24 -8 -43 -41t-33 -71.5t-22 -73t-8 -46.5z" />
    <glyph glyph-name="A" unicode="A" horiz-adv-x="509" 
d="M358 817l151 -817h-126l-40 203h-159l-33 -203h-127l140 817h194zM324 317l-64 376l-60 -376h124z" />
    <glyph glyph-name="B" unicode="B" horiz-adv-x="554" 
d="M226 817h70.5t68.5 -9t61 -31.5t48 -67.5q10 -23 15.5 -54t3 -64t-13.5 -64.5t-32 -54.5q-8 -8 -17 -15.5t-27 -20.5q26 -12 44.5 -25.5t31 -30t21.5 -36.5t16 -47q6 -23 8 -51.5t-2.5 -58t-16.5 -58.5t-32 -52q-26 -30 -50.5 -45.5t-50 -22.5t-53.5 -8t-59 -1h-199v817
h165zM183 486h86q26 0 51 13t38 40q5 10 7.5 24t3 29.5t-2 30.5t-8.5 27q-13 28 -38 41t-51 13h-86v-218zM182 114h100q26 0 55 13.5t44 40.5q7 12 11 32t4.5 41.5t-3 42t-12.5 35.5q-16 26 -43.5 39.5t-55.5 13.5h-100v-258z" />
    <glyph glyph-name="C" unicode="C" horiz-adv-x="531" 
d="M386 555q-1 16 -2 37t-6 42t-17 39.5t-34 29.5q-10 5 -24.5 7.5t-29.5 1.5t-29 -4.5t-24 -10.5q-20 -12 -30.5 -31.5t-14.5 -40.5t-4 -41.5v-34.5v-284v-31t4 -40t14.5 -41t30.5 -33q10 -7 23 -11t27 -5t28 0.5t26 6.5q25 10 39 29.5t19 45.5q2 14 3 32.5t1 35.5v38h121
v-69.5t-8.5 -72t-28.5 -68.5t-60 -59q-26 -17 -59.5 -25t-68.5 -8.5t-67.5 6.5t-55.5 20q-37 20 -58.5 46t-33 56t-15 62t-3.5 63v313q0 28 0.5 58.5t8.5 61t26.5 59.5t55.5 55q21 15 50.5 23.5t61.5 11.5t63 0.5t55 -9.5q55 -17 92 -54.5t42 -95.5q2 -17 3 -47.5t0 -63.5
h-121z" />
    <glyph glyph-name="D" unicode="D" horiz-adv-x="525" 
d="M196 817q26 0 55.5 -0.5t59.5 -6.5t59 -18.5t55 -36.5q26 -25 40 -51.5t20.5 -53.5t7.5 -53t1 -51v-271q0 -26 -1 -54t-7.5 -56t-21 -56t-41.5 -54q-26 -24 -59.5 -35.5t-68 -16t-66.5 -4t-54 0.5h-116v817h137zM182 115q27 -1 52 0q21 1 41 3t31 7q26 12 39.5 37.5
t19 54t6 55t0.5 40.5v205q0 15 -0.5 36t-4 42.5t-12 41.5t-23.5 34q-14 13 -36.5 19t-45.5 8t-41.5 1.5t-25.5 -0.5v-584z" />
    <glyph glyph-name="E" unicode="E" horiz-adv-x="436" 
d="M402 703h-222v-217h222v-114h-223v-258h224v-114h-346v816h345v-113z" />
    <glyph glyph-name="F" unicode="F" horiz-adv-x="427" 
d="M183 0q-34 -2 -61 -2q-23 -1 -42.5 -0.5t-18.5 2.5v816h345v-113h-222v-217h222v-114h-223v-372v0z" />
    <glyph glyph-name="G" unicode="G" horiz-adv-x="535" 
d="M277 336v115h226v-452l-93 76q-7 -13 -17.5 -26.5t-25 -25.5t-32 -20.5t-39.5 -11.5q-10 -1 -23 -2t-30 1t-37 8t-43 19q-37 20 -58.5 46t-33 55.5t-15 61.5t-3.5 63v313q0 28 0.5 58.5t8.5 61t27 59.5t55 55q21 15 50.5 24t61 12t62 0.5t53.5 -10.5q54 -20 86.5 -57.5
t47.5 -92.5q5 -17 6.5 -47.5t0.5 -63.5h-121q-2 16 -2.5 37t-6 42t-17 39.5t-33.5 29.5q-11 5 -25 7.5t-29 1.5t-29.5 -4.5t-24.5 -10.5q-20 -12 -30 -31.5t-14.5 -40.5t-4.5 -41.5v-34.5v-284v-31t4.5 -40t14.5 -41t30 -33q20 -14 50.5 -16.5t54.5 7.5q49 21 57 75
q5 27 5 51v55v44h-114z" />
    <glyph glyph-name="H" unicode="H" horiz-adv-x="537" 
d="M182 817v-323h201v323h122v-817h-122v373h-201v-373h-122v817h122z" />
    <glyph glyph-name="I" unicode="I" 
d="M54 0v817h122v-817h-122z" />
    <glyph glyph-name="J" unicode="J" horiz-adv-x="504" 
d="M373 17q-24 -14 -55.5 -20.5t-64.5 -6t-65 7t-56 20.5q-35 19 -55 49t-29.5 65t-11.5 73t-2 74h121v-44t3.5 -44.5t13.5 -39.5t30 -30q9 -5 23 -8t29 -3t30 3t26 10q16 11 25 28t13 36.5t4.5 39.5t0.5 38v552h122v-552q0 -30 -1 -64t-10 -67.5t-30 -64t-61 -52.5z" />
    <glyph glyph-name="K" unicode="K" horiz-adv-x="503" 
d="M63 0v817h122v-324l207 324h134l-212 -336l244 -481h-134l-190 358l-49 -73v-285h-122z" />
    <glyph glyph-name="L" unicode="L" horiz-adv-x="424" 
d="M60 0v817h122v-697h223v-120h-346h1z" />
    <glyph glyph-name="M" unicode="M" horiz-adv-x="728" 
d="M322 0l-140 669v-669h-121v817h204l113 -534l110 534h207v-818h-121v670l-138 -669h-114z" />
    <glyph glyph-name="N" unicode="N" horiz-adv-x="565" 
d="M176 0h-122v817h140l213 -548v548h122v-817h-138l-215 547v-547z" />
    <glyph glyph-name="O" unicode="O" horiz-adv-x="544" 
d="M391 575q0 31 -4.5 56.5t-16.5 43.5t-33 28t-54 10q-34 0 -55 -10t-33 -28t-16 -43.5t-4 -56.5v-333q0 -32 4 -57.5t16 -43.5t33 -27.5t55 -9.5q33 0 54 9.5t33 27.5t16.5 43.5t4.5 57.5v333zM513 277q0 -57 -8 -109t-32 -92t-69.5 -63.5t-120.5 -23.5q-77 0 -122.5 24.5
t-69.5 65t-31 92t-7 106.5v262q0 55 7 107t31 92.5t69.5 65t122.5 24.5q75 0 120.5 -24t69.5 -63.5t32 -92t8 -109.5v-262z" />
    <glyph glyph-name="P" unicode="P" horiz-adv-x="526" 
d="M285 452q23 0 43 12t35 43q7 13 10 33t2.5 41t-5.5 40.5t-15 31.5q-17 22 -31 31.5t-31.5 13t-43 2.5t-65.5 0v-248h101zM63 817h143q33 0 69.5 -1.5t72 -11t67.5 -30.5t56 -61q15 -26 22.5 -63t7.5 -76t-8 -75.5t-25 -62.5q-24 -38 -50 -59t-55.5 -31t-63.5 -12t-74 -2
h-40v-332h-122v817z" />
    <glyph glyph-name="Q" unicode="Q" horiz-adv-x="544" 
d="M477 81q14 -20 30.5 -29t41.5 -9v-94q-41 0 -77 13t-71 48q-23 -10 -52 -15.5t-66 -5.5q-77 0 -122.5 24.5t-69.5 65t-31 92t-7 106.5v262q0 55 7 107t31 92.5t69.5 65t122.5 24.5q75 0 120.5 -24t69.5 -63.5t32 -92t8 -109.5v-262q0 -54 -7 -103.5t-29 -89.5v-3z
M350 127q-2 14 -12 24.5t-24.5 17t-31 11t-31.5 6.5v101q45 0 81.5 -11t52.5 -43l6 -9v18v333q0 31 -4.5 56.5t-16.5 43.5t-33 28t-54 10q-34 0 -55 -10t-33 -28t-16 -43.5t-4 -56.5v-333q0 -32 4 -57.5t16 -43.5t33 -27.5t55 -9.5q43 0 67 18v5z" />
    <glyph glyph-name="R" unicode="R" horiz-adv-x="533" 
d="M280 453q24 0 42 10.5t35 43.5q7 14 10.5 34t2.5 40.5t-6 39.5t-14 32q-15 22 -41 32.5t-53 13.5t-49 2t-28 -1v-247h101zM180 332v-332h-122v817h143q32 0 68.5 -1.5t72.5 -11t68 -30.5t55 -61q15 -26 23 -63t8 -76t-8 -76t-25 -62q-9 -14 -17.5 -26t-22.5 -24
q21 -21 33.5 -42.5t18.5 -45.5t8 -52t2 -61q0 -35 1 -68q1 -29 3 -61t7 -56h-133q-4 23 -6 53.5t-3 58.5q-2 33 -2 66q0 27 -2.5 54t-11 49.5t-23 36.5t-38.5 14h-97z" />
    <glyph glyph-name="S" unicode="S" horiz-adv-x="550" 
d="M384 568q-1 15 -3 33t-9 36.5t-20.5 36t-36.5 30.5q-17 9 -38.5 9t-38.5 -12q-24 -15 -34 -36.5t-10 -46.5q0 -22 6.5 -38.5t19 -31.5t32 -29t45.5 -31l42 -26q52 -34 88 -61t58 -55.5t31.5 -63.5t7.5 -84q-1 -22 -7 -47.5t-19 -50.5t-34 -48t-51 -39q-24 -12 -56.5 -18
t-67.5 -5t-69 10t-61 26q-36 22 -58 52.5t-33.5 63.5t-15 66t-2.5 62h123q1 -34 9 -65q6 -26 19.5 -52t37.5 -40q22 -12 53.5 -13.5t54.5 12.5q27 16 38 41t11 49q0 26 -6 44t-19.5 33t-35.5 29.5t-52 35.5l-44 28q-47 31 -80.5 56.5t-54.5 53t-30 61t-6 81.5q1 22 7.5 47
t19.5 49t33.5 46t50.5 38q51 26 107.5 24.5t106.5 -30.5q30 -18 51.5 -45.5t35 -58.5t20 -64t6.5 -62h-122z" />
    <glyph glyph-name="T" unicode="T" horiz-adv-x="453" 
d="M173 699h-150v117h423v-117l-147 -1v-700h-123v700z" />
    <glyph glyph-name="U" unicode="U" horiz-adv-x="562" 
d="M522 277q0 -57 -8 -109t-32 -92t-69.5 -63.5t-120.5 -23.5q-77 0 -122.5 24.5t-69.5 65t-31 92t-7 106.5v540h122v-575q0 -32 4 -57.5t16 -43.5t33 -27.5t55 -9.5q32 0 53 9.5t33 27.5t17 43.5t5 57.5v575h122v-540z" />
    <glyph glyph-name="V" unicode="V" horiz-adv-x="529" 
d="M158 817l119 -633l117 633h131l-158 -817h-175l-169 817h135z" />
    <glyph glyph-name="W" unicode="W" horiz-adv-x="810" 
d="M576 295l4 23t10.5 59.5t15.5 83.5t18 96q21 114 49 260h134l-169 -817h-121l-101 583l-104 -583h-121l-169 817h134l95 -524l93 524h141z" />
    <glyph glyph-name="X" unicode="X" horiz-adv-x="546" 
d="M161 0h-138l177 436l-150 381h134l105 -269l104 269h134l-161 -381l177 -436h-138l-122 319z" />
    <glyph glyph-name="Y" unicode="Y" horiz-adv-x="533" 
d="M160 817l117 -343l119 343h135l-192 -527v-290h-123v290l-192 527h136z" />
    <glyph glyph-name="Z" unicode="Z" horiz-adv-x="515" 
d="M477 817v-99l-275 -597h279v-121h-427v99l278 596h-269v122h414z" />
    <glyph glyph-name="bracketleft" unicode="[" horiz-adv-x="313" 
d="M168 -57h131v-34h-242v930h242v-30h-131v-866z" />
    <glyph glyph-name="backslash" unicode="\" horiz-adv-x="602" 
d="M487 -39l-444 894h97l444 -894h-97z" />
    <glyph glyph-name="bracketright" unicode="]" horiz-adv-x="313" 
d="M277 839v-930h-241v34h130v866h-130v30h241z" />
    <glyph glyph-name="asciicircum" unicode="^" horiz-adv-x="493" 
d="M317 828l98 -131h-113l-52 70l-56 -70h-110l101 131h132z" />
    <glyph glyph-name="underscore" unicode="_" horiz-adv-x="628" 
d="M-24 -111v44h666v-44h-666z" />
    <glyph glyph-name="grave" unicode="`" horiz-adv-x="386" 
d="M228 816l84 -129h-103l-141 129h160z" />
    <glyph glyph-name="a" unicode="a" horiz-adv-x="461" 
d="M335 0q-5 18 -8.5 34t-6.5 35q-23 -39 -46.5 -58.5t-68.5 -21.5q-13 -1 -29.5 0.5t-34 6.5t-35 16t-32.5 29q-17 21 -26 47t-12 53t-1 53t7 46q8 30 24 52t37 38t46 29t50 25q18 10 36.5 17.5t33.5 16.5t25 21t11 30q1 19 -4.5 36t-25.5 29q-29 18 -72 5q-21 -5 -37 -27
t-16 -70h-110q7 45 15 77.5t20 55t30 37t44 25.5q12 4 38.5 8t58 4t61.5 -5t49 -18q26 -18 40.5 -44.5t21 -55t7.5 -57t1 -51.5v-309q2 -69 18 -109h-109zM269 310q-20 -13 -40.5 -26.5t-37 -29.5t-26 -35.5t-6.5 -44.5q2 -26 8.5 -42t25.5 -27q17 -10 36.5 -7.5t34.5 11.5
q18 10 27 31.5t12 45.5t2.5 46t-0.5 34v71z" />
    <glyph glyph-name="b" unicode="b" horiz-adv-x="478" 
d="M181 817v-224q18 34 42.5 47.5t71.5 13.5q54 0 85.5 -26t47 -62.5t19.5 -75.5t4 -66v-222q0 -18 -1.5 -44t-10 -54t-25.5 -54.5t-47 -43.5q-11 -7 -26 -11.5t-33 -6t-37 1.5t-36 11q-22 12 -33.5 24t-23.5 30q0 -3 -1.5 -5.5t-2.5 -9.5t-1 -13.5v-12.5v-14h-113v817h121z
M210 529q-13 -9 -19 -28t-8.5 -39.5t-2 -38.5t0.5 -25v-160q0 -11 -0.5 -28.5t1.5 -36.5t9.5 -37t24.5 -29q35 -22 69 -3q18 10 27 29.5t12.5 42t3.5 43t1 32.5v132v52t-3 39t-9 30t-18 24q-14 13 -27.5 16t-25.5 1q-11 -1 -19.5 -5.5t-16.5 -10.5z" />
    <glyph glyph-name="c" unicode="c" horiz-adv-x="458" 
d="M315 418v21t-3 32.5t-12 34.5t-27 27q-15 8 -36.5 8t-36.5 -9q-15 -10 -22.5 -28t-10.5 -38t-3 -39v-30v-156v-25t3 -37t11.5 -39t25.5 -30q14 -9 32 -13t33 2q19 7 30.5 23t16.5 39q1 4 2.5 12.5t2.5 19t1.5 22t0.5 21.5h112q0 -20 -1 -50t-9.5 -61.5t-26.5 -61.5
t-52 -50q-20 -12 -46.5 -18t-55 -6t-56 5.5t-48.5 17.5q-33 18 -52 44.5t-29 56.5t-13 62t-3 61v177q1 24 1 53t6.5 59t25 57t57.5 47q19 10 47 16t58 7t58.5 -4t49.5 -18q30 -18 47.5 -42.5t25.5 -52.5t10.5 -58.5t2.5 -58.5h-117z" />
    <glyph glyph-name="d" unicode="d" horiz-adv-x="468" 
d="M322 0v14q0 6 -0.5 12.5t-0.5 13.5q-1 7 -2.5 9.5t-1.5 5.5q-12 -18 -23.5 -30t-33.5 -24q-17 -8 -36 -11t-37 -1.5t-33.5 6t-25.5 11.5q-30 17 -47 43.5t-25.5 54.5t-10 54t-1.5 44v222q0 27 4 66t19.5 75.5t47 62.5t85.5 26q47 0 71.5 -13.5t42.5 -47.5v224h121v-817
h-113zM249 545q-12 2 -25.5 -1t-27.5 -16q-12 -11 -18 -24t-9 -30t-3 -39v-52v-132q1 -12 1 -32.5t3.5 -43t12.5 -42t27 -29.5q34 -19 69 3q17 11 24.5 29t9.5 37t1.5 36.5t-0.5 28.5v160q0 7 0.5 25t-2 38.5t-8.5 39.5t-19 28q-8 6 -16.5 10.5t-19.5 5.5z" />
    <glyph glyph-name="e" unicode="e" horiz-adv-x="464" 
d="M169 241v-25t3 -37t11.5 -39t25.5 -30q14 -9 32 -13.5t33 1.5q20 7 31 23.5t16 39.5q2 8 4 31.5t2 43.5h113q-1 -20 -2 -49.5t-9.5 -61.5t-26 -62t-51.5 -50q-20 -12 -46.5 -18t-55.5 -6t-56.5 5.5t-48.5 17.5q-32 18 -51 44.5t-29 56.5t-13 62t-3 61v177v53.5t7.5 59.5
t26.5 57t56 46q19 10 47 16t58 7t58.5 -4t49.5 -18q30 -18 47.5 -42.5t25.5 -52.5t10 -58.5t2 -58.5v-112h-267v-65zM320 412q0 6 0.5 22t-2.5 35t-11.5 37t-26.5 28q-15 8 -38 7.5t-38 -9.5q-23 -14 -29 -40t-6 -52v-28h151z" />
    <glyph glyph-name="f" unicode="f" horiz-adv-x="332" 
d="M28 640h80v84q0 53 22.5 78.5t84.5 25.5h125v-99h-111v-89h97v-111h-97v-529h-121v529h-80v111z" />
    <glyph glyph-name="g" unicode="g" horiz-adv-x="524" 
d="M310 458q0 41 -23 60.5t-52 19.5t-49.5 -20t-21.5 -62v-100q0 -38 21 -59t50 -21q30 0 52.5 22t22.5 56v104zM139 -189q-39 0 -64 29t-25 69q0 19 8 35t20 27.5t26.5 18.5t27.5 7v7q-38 0 -60 28.5t-22 68.5q0 19 8 35t20 28t26 19t27 7v6q-42 26 -64.5 73.5t-22.5 112.5
v74q0 40 15.5 76t41.5 63t61.5 42.5t75.5 15.5q46 0 84.5 -19.5t64.5 -51.5q0 6 -2 12.5t-2 14.5q1 28 21.5 45t48.5 17q27 0 44 -20t17 -48t-20.5 -45t-48.5 -17q-22 0 -38 13q24 -41 24 -91v-89q0 -42 -12 -79.5t-36 -65.5t-60 -44.5t-85 -16.5q-24 0 -47 4t-40 17v-88
h143h48t57 -4.5t55 -17.5t42 -38q10 -16 14.5 -37t4 -43.5t-6 -44.5t-14.5 -38q-16 -28 -43 -42t-56.5 -19.5t-57 -5.5h-43.5h-155zM360 -92q21 0 37 15t16 35q0 18 -11.5 32t-40.5 14h-74h-136v-96h209z" />
    <glyph glyph-name="h" unicode="h" horiz-adv-x="473" 
d="M319 393v59t-3 42t-10.5 28.5t-22.5 18.5q-15 6 -36.5 4.5t-35.5 -9.5q-15 -9 -22.5 -28t-10 -40t-2.5 -40.5v-30.5v-397h-121v817h121v-230q14 21 23.5 31t22.5 18q16 9 36 13t40 3.5t38 -4.5t29 -9q31 -14 46.5 -36.5t22 -49t6.5 -54.5v-52v-447l-121 -1v394z" />
    <glyph glyph-name="i" unicode="i" 
d="M178 640v-640h-121v640h121zM118 828q30 0 51.5 -20.5t21.5 -50.5t-20.5 -51.5t-50.5 -21.5t-51.5 20.5t-21.5 50.5t20.5 51.5t50.5 21.5z" />
    <glyph glyph-name="j" unicode="j" horiz-adv-x="205" 
d="M111 828q30 0 51.5 -20.5t21.5 -50.5t-20.5 -51.5t-50.5 -21.5t-51.5 20.5t-21.5 50.5t20.5 51.5t50.5 21.5zM98 -165q-13 -6 -34.5 -9t-44 -4t-42.5 -1h-30v104q6 0 18 -0.5t25.5 1t26.5 4.5t20 11q6 7 9 12.5t3.5 11.5t0.5 14.5v20.5v640h121v-640q0 -22 -0.5 -45
t-7 -44.5t-21.5 -41t-44 -34.5z" />
    <glyph glyph-name="k" unicode="k" horiz-adv-x="468" 
d="M59 0v817h121v-403l150 226h131l-176 -263l183 -377h-128l-131 262l-29 -43v-219h-121z" />
    <glyph glyph-name="l" unicode="l" 
d="M178 817v-817h-121v817h121z" />
    <glyph glyph-name="m" unicode="m" horiz-adv-x="727" 
d="M317 401q0 10 0.5 28.5t-2 38t-9.5 36t-21 24.5q-16 10 -34 9t-33 -10q-16 -9 -23.5 -26.5t-10.5 -37t-2.5 -38t0.5 -29.5v-396h-121v640h113v-62q30 50 63.5 63t79.5 9q29 -2 48.5 -17.5t42.5 -48.5q17 25 36.5 39t40.5 20.5t43.5 7.5t45.5 0q68 -6 94.5 -59.5
t26.5 -150.5v-441h-121v401v28t-2.5 37.5t-9.5 36.5t-20 25q-37 16 -68 -1q-15 -8 -22.5 -26t-10.5 -38.5t-3 -39.5v-30v-393h-121v401z" />
    <glyph glyph-name="n" unicode="n" horiz-adv-x="466" 
d="M433 0h-121v401v29.5t-2.5 38t-9.5 37t-20 25.5q-16 9 -34.5 8.5t-33.5 -10.5q-15 -9 -22.5 -27.5t-10.5 -39t-3 -39.5v-30v-393h-121v640h114v-60q15 25 30.5 39.5t33 22t37 9.5t42.5 2q16 0 37 -7t39.5 -22.5t31.5 -41.5t13 -65v-517z" />
    <glyph glyph-name="o" unicode="o" horiz-adv-x="469" 
d="M321 385q0 23 0.5 50t-6 50t-22.5 38t-49 15q-32 0 -48 -15.5t-23 -38.5t-7 -49.5v-49.5v-131q0 -23 -0.5 -50t6 -50t22.5 -38t49 -15q32 0 48.5 15.5t23 38.5t6.5 49.5v49.5v131zM46 368q0 58 6 110t26.5 91t60 61.5t106.5 22.5q69 0 108 -22.5t59 -61.5t25 -91t5 -110
v-95q0 -58 -5 -109.5t-25 -90.5t-59 -61.5t-108 -22.5q-67 0 -106.5 22.5t-60 61.5t-26.5 90.5t-6 109.5v95z" />
    <glyph glyph-name="p" unicode="p" horiz-adv-x="469" 
d="M168 640v-14v-13t1 -13t2 -9t1 -6q13 18 24.5 30.5t33.5 23.5q17 8 35.5 11t36.5 2t33.5 -5.5t26.5 -11.5q30 -18 47 -44t25 -54.5t9.5 -54.5t1.5 -44v-222q0 -27 -4 -66t-19.5 -75t-46.5 -62t-85 -26q-48 0 -72 13t-43 48v-224h-121v816h114zM241 95q11 -2 24.5 1
t27.5 16q12 11 18 24t9 30t3 39v52v133v32.5t-3.5 42.5t-12.5 42t-27 29q-16 9 -34.5 8.5t-34.5 -10.5q-17 -11 -25 -29t-10 -37t-1.5 -36.5t0.5 -28.5v-161q0 -8 -0.5 -25.5t2 -38t8.5 -39t19 -28.5q17 -13 37 -16z" />
    <glyph glyph-name="q" unicode="q" horiz-adv-x="467" 
d="M312 -176v224q-9 -18 -19.5 -29.5t-23.5 -18.5t-30 -10t-41 -3q-54 0 -85.5 26t-47 62t-19.5 75t-4 66v222q0 18 1.5 44t9.5 54.5t25 54.5t47 44q11 7 26.5 11.5t33.5 5.5t36.5 -2t35.5 -11q22 -11 34 -23.5t24 -30.5q0 3 1 6l3 9q0 6 0.5 13t0.5 13v14h113v-816h-121z
M283 111q13 10 19 28.5t8 39t2 38v25.5v161q0 11 0.5 28.5t-1.5 36.5t-10 37t-25 29q-16 10 -34 10.5t-34 -8.5q-18 -9 -27 -29t-13 -42t-4 -42.5v-32.5v-133v-52t3 -39t9 -30t18 -24q14 -13 27.5 -16t24.5 -1q20 3 37 16z" />
    <glyph glyph-name="r" unicode="r" horiz-adv-x="325" 
d="M63 -1v641h116q0 -20 -1.5 -30t-1.5 -30q4 17 8.5 28.5t13.5 18.5t24.5 10t41.5 3h61v-107h-141v-534h-121z" />
    <glyph glyph-name="s" unicode="s" horiz-adv-x="489" 
d="M335 442q-1 14 -3.5 29.5t-8.5 29t-17.5 24t-29.5 14.5q-43 11 -71 -12q-12 -9 -19 -23t-5 -31q1 -14 9.5 -26t20.5 -22.5t26.5 -20t29.5 -18.5l28 -15q42 -25 73.5 -45t51.5 -42.5t30 -49.5t9 -66q0 -48 -20 -88t-73 -70q-17 -10 -46 -15t-61 -5t-63 5.5t-51 17.5
q-30 18 -50.5 43.5t-32.5 53t-17 56t-4 52.5h119q0 -17 2 -33.5t8.5 -31.5t19.5 -28t35 -23q18 -8 39 -6.5t37 13.5q17 11 25 27.5t6 34.5q-4 33 -33.5 56t-65.5 43l-22 12q-39 21 -67 38t-46.5 36.5t-28 44.5t-10.5 63q-1 19 2.5 40.5t12.5 42.5t25 40.5t41 35.5
q19 13 46 20t55 8.5t55 -3t47 -14.5q31 -15 51.5 -36.5t33.5 -47t18.5 -53t5.5 -55.5h-117z" />
    <glyph glyph-name="t" unicode="t" horiz-adv-x="314" 
d="M222 758v-118h92v-107h-92v-345q0 -31 2 -54.5t8.5 -44t18 -41.5t30.5 -48h-130q-15 22 -24.5 42t-15 39t-8 39.5t-2.5 44.5v368h-69v107h69v118h121z" />
    <glyph glyph-name="u" unicode="u" horiz-adv-x="477" 
d="M178 232v-26.5t2.5 -36.5t9.5 -36t21 -25q15 -10 36.5 -8.5t35.5 8.5q16 8 24.5 27.5t11.5 40.5t3 38v21v405h121v-640h-119v22t-2 28q-14 -23 -36.5 -37.5t-49.5 -19.5t-56 -0.5t-55 20.5q-27 18 -41 43t-20 51.5t-6.5 50.5t-0.5 40v442h121v-408z" />
    <glyph glyph-name="v" unicode="v" horiz-adv-x="451" 
d="M236 223l85 417h126l-143 -640h-135l-145 640h125z" />
    <glyph glyph-name="w" unicode="w" horiz-adv-x="688" 
d="M405 640l77 -429l76 429h125l-131 -640h-129l-71 405l-73 -405h-129l-131 640h124l77 -429l76 429h109z" />
    <glyph glyph-name="x" unicode="x" horiz-adv-x="459" 
d="M159 640l79 -197l88 197h124l-136 -309l132 -331h-124l-84 221l-91 -221h-128l143 321l-129 319h126z" />
    <glyph glyph-name="y" unicode="y" horiz-adv-x="434" 
d="M223 236l83 404h120l-150 -659q-14 -61 -35 -93.5t-50.5 -47.5t-67 -17t-83.5 -2v106q7 0 20.5 -0.5t28.5 0.5t28.5 4t21.5 10q13 12 17 27t3.5 31.5t-4.5 33.5t-7 34l-128 573h122z" />
    <glyph glyph-name="z" unicode="z" horiz-adv-x="450" 
d="M411 539l-223 -430h230v-109h-369v108l221 425h-210v107h351v-101z" />
    <glyph glyph-name="braceleft" unicode="{" horiz-adv-x="508" 
d="M486 835q-26 -6 -48.5 -11.5t-45.5 -18.5q-26 -14 -40 -32t-20 -38t-7 -41.5t-1 -42.5v-74q-3 -62 -16.5 -100.5t-40.5 -61.5t-67.5 -35.5t-95.5 -22.5q43 -4 82.5 -13t75.5 -35q24 -18 37 -43.5t19 -52.5t7 -51.5t1 -39.5v-43q1 -44 7 -77t23.5 -57t49 -38.5t83.5 -20.5
q2 -7 1 -20t-1 -21q-46 0 -88 6.5t-84 30.5q-33 20 -50.5 42.5t-25.5 48t-9 52.5t-2 56v72q0 50 -10.5 82t-32 51.5t-54.5 29.5t-79 17v51q33 5 64 13t54 25q24 16 36 33.5t17 36t5 37.5v38v83q1 21 1 41t3 38.5t11 36t25 35.5q21 23 49 37t58 21.5t58.5 10.5t50.5 5v-40v0z
" />
    <glyph glyph-name="bar" unicode="|" horiz-adv-x="235" 
d="M100 -113v930h50v-930h-50z" />
    <glyph glyph-name="braceright" unicode="}" horiz-adv-x="507" 
d="M39 875q22 -2 50.5 -5t58.5 -10.5t58 -21.5t49 -37q16 -18 24.5 -35.5t11.5 -36t3 -38.5t1 -41v-83v-38t5 -37.5t17 -36t36 -33.5q23 -17 54 -25t64 -13v-51q-46 -7 -79 -17t-54.5 -29.5t-32 -51.5t-10.5 -82v-72q-1 -29 -2 -56t-9 -52.5t-25.5 -48t-50.5 -42.5
q-42 -24 -84 -30.5t-88 -6.5q0 8 -1 21t1 20q52 6 83.5 20.5t49 38.5t23.5 57t7 77v43q0 15 1 39.5t7 51.5t19 52.5t37 43.5q36 26 75.5 35t82.5 13q-56 10 -96 22.5t-67 35.5t-40.5 61.5t-16.5 100.5v74q0 21 -1 42.5t-7 41.5t-20 38t-40 32q-23 13 -45.5 18.5t-48.5 11.5
v40v0z" />
    <glyph glyph-name="asciitilde" unicode="~" horiz-adv-x="495" 
d="M417 828q-2 -14 -6 -29.5t-11 -30.5t-18 -27.5t-27 -19.5q-19 -8 -32.5 -9t-28 2.5t-34.5 11.5t-51 17q-12 3 -24 3t-21 -8q-5 -4 -8.5 -10.5t-8.5 -20.5h-63q5 29 18 60t45 50q31 16 58.5 10t59.5 -18l15 -7q20 -9 33 -11.5t27 8.5q5 4 8.5 9t5.5 10t3 10h60z" />
    <glyph glyph-name="cent" unicode="&#xa2;" horiz-adv-x="427" 
d="M281 720q16 -2 27.5 -8.5t20.5 -11.5q29 -16 44.5 -40.5t21.5 -51.5t6.5 -54t-0.5 -48h-108q0 34 -5 63t-34 43q-14 6 -34.5 5.5t-35.5 -9.5t-22 -25.5t-8.5 -34.5t-0.5 -35t1 -27v-140q0 -15 -0.5 -34t2.5 -38t11 -35.5t26 -27.5q14 -9 31.5 -8.5t31.5 7.5
q18 8 26.5 24.5t11.5 35.5t2.5 36t-0.5 25h105v-39q-2 -33 -7.5 -63t-19 -54.5t-36.5 -42t-58 -25.5v-107h-118v109q-12 0 -26 6.5t-28 18.5t-26.5 30t-21.5 42q-12 33 -14.5 59t-2.5 62v187q0 40 2.5 70t14.5 54t36 43t67 39v97h118v-97z" />
    <glyph glyph-name="sterling" unicode="&#xa3;" horiz-adv-x="550" 
d="M376 382h-136q3 -14 7 -28.5t5 -31t-1 -36t-11 -43.5q-23 -61 -52.5 -97.5t-49.5 -62.5q25 16 47 27t45.5 15.5t51.5 1.5t64 -15q33 -12 53 -16t35.5 -1.5t30.5 11.5t39 25l34 -78q-34 -42 -72.5 -54.5t-75 -8.5t-67.5 16.5t-50 20.5q-35 14 -62 14t-48 -7t-37 -17.5
t-27 -17.5l-46 75q23 26 47.5 52.5t43.5 62.5q20 38 26 68t3.5 53t-9.5 40.5t-12 31.5h-106v63h79q-17 29 -27 49.5t-15.5 38t-8 35t-2.5 40.5q0 51 20.5 96t56 78t82.5 50.5t99 13.5q50 -4 84 -20.5t55.5 -40t32.5 -51.5t15 -56t3.5 -52.5t-2.5 -40.5h-86q2 27 -2 56
t-17 54t-37 42t-63 19q-19 1 -48 -6t-54 -27.5t-39 -58t-3 -97.5q3 -18 17 -49t34 -73h156v-63z" />
    <glyph glyph-name="dieresis" unicode="&#xa8;" horiz-adv-x="433" 
d="M188 828v-111h-107v111h107zM325 828v-111h-106v111h106z" />
    <glyph glyph-name="acute" unicode="&#xb4;" horiz-adv-x="384" 
d="M72 699l86 129h159l-141 -129h-104z" />
    <glyph glyph-name="periodcentered" unicode="&#xb7;" horiz-adv-x="355" 
d="M242 6l-48 -76q13 2 29 2t32 -3.5t31 -11t26 -20.5q11 -14 15 -30.5t-1 -36.5q-10 -45 -62 -65q-22 -10 -50.5 -12.5t-58 0t-57 9t-45.5 14.5l24 39q34 -16 67 -22t56 11q11 8 17.5 18t4.5 24q-2 12 -7 20t-19 16q-11 6 -26 7t-41 -10l-14 17l81 110h46z" />
    <glyph glyph-name="Agrave" unicode="&#xc0;" horiz-adv-x="509" 
d="M356 817l151 -817h-126l-40 203h-159l-33 -203h-127l140 817h194zM322 317l-65 376l-59 -376h124zM228 1006l84 -129h-103l-141 129h160z" />
    <glyph glyph-name="Aacute" unicode="&#xc1;" horiz-adv-x="509" 
d="M353 817l151 -817h-127l-40 203h-158l-34 -203h-126l140 817h194zM319 317l-65 376l-60 -376h125zM193 879l86 129h159l-141 -129h-104z" />
    <glyph glyph-name="Acircumflex" unicode="&#xc2;" horiz-adv-x="509" 
d="M355 817l151 -817h-126l-40 203h-159l-33 -203h-127l140 817h194zM321 317l-65 376l-60 -376h125zM317 1008l98 -131h-113l-52 70l-56 -70h-110l101 131h132z" />
    <glyph glyph-name="Atilde" unicode="&#xc3;" horiz-adv-x="509" 
d="M355 817l151 -817h-126l-40 203h-159l-33 -203h-127l140 817h194zM321 317l-65 376l-60 -376h125zM414 1008q-2 -14 -6 -29.5t-11 -30.5t-18 -27.5t-27 -19.5q-19 -8 -32.5 -9t-28.5 2.5t-34.5 11t-51.5 16.5q-11 4 -23 4t-21 -8q-5 -5 -9 -11t-9 -20h-62q5 29 17.5 60
t44.5 50q15 8 29.5 10t29 0t29.5 -7t31 -11l14 -7q21 -9 34 -11.5t26 8.5q5 4 9 9t6 10q3 5 3 10h60z" />
    <glyph glyph-name="Adieresis" unicode="&#xc4;" horiz-adv-x="509" 
d="M355 817l151 -817h-126l-40 203h-159l-33 -203h-127l140 817h194zM321 317l-65 376l-60 -376h125zM234 981v-111h-106v111h106zM372 981v-111h-107v111h107z" />
    <glyph glyph-name="Aring" unicode="&#xc5;" horiz-adv-x="509" 
d="M357 817l151 -817h-126l-40 203h-159l-33 -203h-127l140 817h194zM323 317l-64 376l-60 -376h124zM244 1130q12 3 28 3t32.5 -3.5t33 -12t29.5 -22.5q23 -25 28.5 -60t-1.5 -64t-23 -50t-46 -32q-12 -5 -29 -7t-34.5 -0.5t-34.5 6.5t-29 14q-29 21 -39.5 52t-8.5 59
q1 26 12 54t43 48q21 12 39 15zM219 996q2 -20 9 -33.5t24 -21.5q14 -7 27.5 -5.5t22.5 6.5q20 12 24.5 31.5t4.5 35.5q0 20 -5 36t-22 27q-13 8 -27.5 7.5t-25.5 -5.5q-23 -11 -28.5 -34.5t-3.5 -43.5z" />
    <glyph glyph-name="Ccedilla" unicode="&#xc7;" horiz-adv-x="531" 
d="M251 -9q-27 0 -50.5 7t-41.5 18q-37 20 -58.5 46t-33 56t-15 62t-3.5 63v313q0 28 0.5 58.5t8.5 61t26.5 59.5t55.5 55q21 15 50.5 23.5t61.5 11.5t63 0.5t55 -9.5q55 -17 92 -54.5t42 -95.5q0 -17 1.5 -47.5t1.5 -63.5h-121q0 16 -1 37t-6 42t-17.5 39.5t-34.5 29.5
q-10 5 -24.5 7.5t-29.5 1.5t-29 -4.5t-24 -10.5q-20 -12 -30.5 -31.5t-14.5 -40.5t-4 -41.5v-34.5v-284v-31t4 -40t14.5 -41t30.5 -33q10 -7 23 -11t27 -5t28 0.5t26 6.5q25 10 39 29.5t19 45.5q2 14 3 32.5t1 35.5v38h121v-69.5t-8.5 -72t-28.5 -68.5t-60 -59
q-23 -15 -51.5 -24t-59.5 -9l-38 -60q12 2 28 2t32.5 -3.5t31 -11t25.5 -20.5q11 -14 15.5 -30.5t-0.5 -36.5q-12 -45 -62 -65q-22 -10 -50.5 -12.5t-58 0t-57 9t-45.5 14.5l23 39q35 -16 67.5 -22t55.5 11q23 15 23 42q0 12 -6 20t-20 16q-11 6 -26 7t-42 -10l-13 17l69 95
v0z" />
    <glyph glyph-name="Egrave" unicode="&#xc8;" horiz-adv-x="436" 
d="M402 703h-222v-217h222v-114h-223v-258h224v-114h-346v816h345v-113zM201 1006l84 -129h-103l-141 129h160z" />
    <glyph glyph-name="Eacute" unicode="&#xc9;" horiz-adv-x="436" 
d="M405 703h-222v-217h222v-114h-223v-258h224v-114h-346v817h345v-114zM175 876l86 128h160l-141 -128h-105z" />
    <glyph glyph-name="Ecircumflex" unicode="&#xca;" horiz-adv-x="436" 
d="M407 703h-222v-217h222v-114h-223v-258h224v-114h-346v816h345v-113zM291 1024l97 -131h-113l-52 70l-55 -70h-110l101 131h132z" />
    <glyph glyph-name="Edieresis" unicode="&#xcb;" horiz-adv-x="436" 
d="M404 703h-222v-217h222v-114h-223v-258h224v-114h-346v816h345v-113zM234 991v-111h-106v111h106zM372 991v-111h-107v111h107z" />
    <glyph glyph-name="Igrave" unicode="&#xcc;" 
d="M60 0v817h122v-817h-122zM84 1022l85 -129h-104l-140 129h159z" />
    <glyph glyph-name="Iacute" unicode="&#xcd;" 
d="M59 0v817h122v-817h-122zM59 879l85 129h160l-141 -129h-104z" />
    <glyph glyph-name="Icircumflex" unicode="&#xce;" 
d="M60 0v817h122v-817h-122zM181 1011l98 -131h-114l-52 70l-55 -70h-110l101 131h132z" />
    <glyph glyph-name="Idieresis" unicode="&#xcf;" 
d="M57 0v817h122v-817h-122zM104 984v-111h-106v111h106zM242 984v-111h-107v111h107z" />
    <glyph glyph-name="Ntilde" unicode="&#xd1;" horiz-adv-x="565" 
d="M179 0h-121v817h138l214 -548v548h121v-817h-138l-214 547v-547zM451 998q-2 -14 -6 -29.5t-11 -30.5t-18.5 -27.5t-27.5 -19.5q-19 -8 -32.5 -9t-28 2.5t-34.5 11t-51 16.5q-12 4 -23.5 4t-20.5 -8q-5 -5 -9 -11t-9 -20h-62q4 29 17 60t45 50q15 8 29.5 10t29 0t29 -7
t31.5 -11l14 -7q21 -9 33.5 -11.5t26.5 8.5q5 4 8.5 9t5.5 10q3 5 4 10h60z" />
    <glyph glyph-name="Ograve" unicode="&#xd2;" horiz-adv-x="544" 
d="M391 575q0 31 -4.5 56.5t-16.5 43.5t-33 28t-54 10q-34 0 -55 -10t-33 -28t-16 -43.5t-4 -56.5v-333q0 -32 4 -57.5t16 -43.5t33 -27.5t55 -9.5q33 0 54 9.5t33 27.5t16.5 43.5t4.5 57.5v333zM513 277q0 -57 -8 -109t-32 -92t-69.5 -63.5t-120.5 -23.5q-77 0 -122.5 24.5
t-69.5 65t-31 92t-7 106.5v262q0 55 7 107t31 92.5t69.5 65t122.5 24.5q75 0 120.5 -24t69.5 -63.5t32 -92t8 -109.5v-262zM274 1019l84 -129h-103l-141 129h160z" />
    <glyph glyph-name="Oacute" unicode="&#xd3;" horiz-adv-x="544" 
d="M391 575q0 31 -4.5 56.5t-16.5 43.5t-33 28t-54 10q-34 0 -55 -10t-33 -28t-16 -43.5t-4 -56.5v-333q0 -32 4 -57.5t16 -43.5t33 -27.5t55 -9.5q33 0 54 9.5t33 27.5t16.5 43.5t4.5 57.5v333zM513 277q0 -57 -8 -109t-32 -92t-69.5 -63.5t-120.5 -23.5q-77 0 -122.5 24.5
t-69.5 65t-31 92t-7 106.5v262q0 55 7 107t31 92.5t69.5 65t122.5 24.5q75 0 120.5 -24t69.5 -63.5t32 -92t8 -109.5v-262zM229 892l85 129h160l-141 -129h-104z" />
    <glyph glyph-name="Ocircumflex" unicode="&#xd4;" horiz-adv-x="544" 
d="M391 575q0 31 -4.5 56.5t-16.5 43.5t-33 28t-54 10q-34 0 -55 -10t-33 -28t-16 -43.5t-4 -56.5v-333q0 -32 4 -57.5t16 -43.5t33 -27.5t55 -9.5q33 0 54 9.5t33 27.5t16.5 43.5t4.5 57.5v333zM513 277q0 -57 -8 -109t-32 -92t-69.5 -63.5t-120.5 -23.5q-77 0 -122.5 24.5
t-69.5 65t-31 92t-7 106.5v262q0 55 7 107t31 92.5t69.5 65t122.5 24.5q75 0 120.5 -24t69.5 -63.5t32 -92t8 -109.5v-262zM347 1034l98 -131h-113l-52 70l-56 -70h-110l101 131h132z" />
    <glyph glyph-name="Otilde" unicode="&#xd5;" horiz-adv-x="544" 
d="M391 575q0 31 -4.5 56.5t-16.5 43.5t-33 28t-54 10q-34 0 -55 -10t-33 -28t-16 -43.5t-4 -56.5v-333q0 -32 4 -57.5t16 -43.5t33 -27.5t55 -9.5q33 0 54 9.5t33 27.5t16.5 43.5t4.5 57.5v333zM513 277q0 -57 -8 -109t-32 -92t-69.5 -63.5t-120.5 -23.5q-77 0 -122.5 24.5
t-69.5 65t-31 92t-7 106.5v262q0 55 7 107t31 92.5t69.5 65t122.5 24.5q75 0 120.5 -24t69.5 -63.5t32 -92t8 -109.5v-262zM454 1004q-2 -13 -6 -28.5t-11 -30.5t-18 -27.5t-27 -19.5q-19 -8 -32.5 -9t-28.5 2.5t-34.5 11t-51.5 16.5q-11 3 -23 3.5t-21 -7.5q-5 -5 -9 -11.5
t-9 -20.5h-62q2 14 6 29.5t11.5 30.5t18 28t26.5 22q15 9 29.5 11t29 0t29.5 -7t31 -11l14 -7q21 -9 33.5 -11.5t26.5 8.5q9 7 15 18q3 5 3 10h60z" />
    <glyph glyph-name="Odieresis" unicode="&#xd6;" horiz-adv-x="544" 
d="M391 575q0 31 -4.5 56.5t-16.5 43.5t-33 28t-54 10q-34 0 -55 -10t-33 -28t-16 -43.5t-4 -56.5v-333q0 -32 4 -57.5t16 -43.5t33 -27.5t55 -9.5q33 0 54 9.5t33 27.5t16.5 43.5t4.5 57.5v333zM513 277q0 -57 -8 -109t-32 -92t-69.5 -63.5t-120.5 -23.5q-77 0 -122.5 24.5
t-69.5 65t-31 92t-7 106.5v262q0 55 7 107t31 92.5t69.5 65t122.5 24.5q75 0 120.5 -24t69.5 -63.5t32 -92t8 -109.5v-262zM244 998v-111h-106v111h106zM382 998v-111h-107v111h107z" />
    <glyph glyph-name="Ugrave" unicode="&#xd9;" horiz-adv-x="562" 
d="M519 277q0 -57 -8 -109t-32 -92t-69 -63.5t-120 -23.5q-77 0 -122.5 24.5t-69.5 65t-31 92t-7 106.5v540h122v-575q0 -32 4 -57.5t16 -43.5t33 -27.5t55 -9.5q32 0 53 9.5t33 27.5t16.5 43.5t4.5 57.5v575h122v-540zM259 1002l84 -129h-103l-141 129h160z" />
    <glyph glyph-name="Uacute" unicode="&#xda;" horiz-adv-x="562" 
d="M521 277q0 -57 -8 -109t-32 -92t-69.5 -63.5t-120.5 -23.5q-77 0 -122.5 24.5t-69.5 65t-31 92t-7 106.5v540h122v-575q0 -32 4 -57.5t16 -43.5t33 -27.5t55 -9.5q32 0 53 9.5t33 27.5t16.5 43.5t4.5 57.5v575h123v-540zM214 876l86 128h159l-140 -128h-105z" />
    <glyph glyph-name="Ucircumflex" unicode="&#xdb;" horiz-adv-x="562" 
d="M519 277q0 -57 -8 -109t-32 -92t-69 -63.5t-120 -23.5q-77 0 -122.5 24.5t-69.5 65t-31 92t-7 106.5v540h122v-575q0 -32 4 -57.5t16 -43.5t33 -27.5t55 -9.5q32 0 53 9.5t33 27.5t16.5 43.5t4.5 57.5v575h122v-540zM345 1034l98 -131h-113l-53 70l-55 -70h-110l101 131
h132z" />
    <glyph glyph-name="Udieresis" unicode="&#xdc;" horiz-adv-x="563" 
d="M515 277q0 -57 -8 -109t-32 -92t-69.5 -63.5t-120.5 -23.5q-77 0 -122.5 24.5t-69.5 65t-31 92t-7 106.5v540h123v-575q0 -32 4 -57.5t15.5 -43.5t32.5 -27.5t55 -9.5q33 0 54 9.5t33 27.5t16.5 43.5t4.5 57.5v575h122v-540zM264 998v-111h-106v111h106zM402 998v-111
h-107v111h107z" />
    <glyph glyph-name="germandbls" unicode="&#xdf;" horiz-adv-x="489" 
d="M434 536h-92h-29.5t-42.5 -2.5t-42 -7.5t-28 -14q-19 -24 -12 -55q3 -15 10.5 -26.5t19.5 -20.5t27.5 -17.5t33.5 -18.5l26 -16q40 -22 70 -39.5t49.5 -37.5t29.5 -45.5t10 -63.5q1 -41 -23 -84t-75 -71q-50 -29 -108 -28t-108 32q-33 20 -54.5 45.5t-33.5 53.5t-16.5 57
t-3.5 56h120q0 -23 2 -41.5t9 -33.5t20 -27t35 -21q16 -8 36 -7.5t37 11.5q30 22 28 56q-2 19 -11.5 34.5t-24 27.5t-32.5 22.5t-36 20.5l-25 12q-31 18 -54 31.5t-39.5 29t-26.5 36.5t-16 53q-5 34 2 72t38 70q22 22 44 34.5t45.5 19t49 8t54.5 1.5h137v-106z" />
    <glyph glyph-name="agrave" unicode="&#xe0;" horiz-adv-x="461" 
d="M335 0q-5 18 -8.5 34t-6.5 35q-23 -39 -46.5 -58.5t-68.5 -21.5q-13 -1 -29.5 0.5t-34 6.5t-35 16t-32.5 29q-17 21 -26 47t-12 53t-1 53t7 46q8 30 24 52t37 38t46 29t50 25q18 10 36.5 17.5t33.5 16.5t25 21t11 30q1 19 -4.5 36t-25.5 29q-29 18 -72 5q-21 -5 -37 -27
t-16 -70h-110q7 45 15 77.5t20 55t30 37t44 25.5q12 4 38.5 8t58 4t61.5 -5t49 -18q26 -18 40.5 -44.5t21 -55t7.5 -57t1 -51.5v-309q2 -69 18 -109h-109zM269 310q-20 -13 -40.5 -26.5t-37 -29.5t-26 -35.5t-6.5 -44.5q2 -26 8.5 -42t25.5 -27q17 -10 36.5 -7.5t34.5 11.5
q18 10 27 31.5t12 45.5t2.5 46t-0.5 34v71zM248 836l84 -129h-103l-141 129h160z" />
    <glyph glyph-name="aacute" unicode="&#xe1;" horiz-adv-x="461" 
d="M335 0q-5 18 -8.5 34t-6.5 35q-23 -39 -46.5 -58.5t-68.5 -21.5q-13 -1 -29.5 0.5t-34 6.5t-35 16t-32.5 29q-17 21 -26 47t-12 53t-1 53t7 46q8 30 24 52t37 38t46 29t50 25q18 10 36.5 17.5t33.5 16.5t25 21t11 30q1 19 -4.5 36t-25.5 29q-29 18 -72 5q-21 -5 -37 -27
t-16 -70h-110q7 45 15 77.5t20 55t30 37t44 25.5q12 4 38.5 8t58 4t61.5 -5t49 -18q26 -18 40.5 -44.5t21 -55t7.5 -57t1 -51.5v-309q2 -69 18 -109h-109zM269 310q-20 -13 -40.5 -26.5t-37 -29.5t-26 -35.5t-6.5 -44.5q2 -26 8.5 -42t25.5 -27q17 -10 36.5 -7.5t34.5 11.5
q18 10 27 31.5t12 45.5t2.5 46t-0.5 34v71zM179 719l85 129h160l-141 -129h-104z" />
    <glyph glyph-name="acircumflex" unicode="&#xe2;" horiz-adv-x="461" 
d="M335 0q-5 18 -8.5 34t-6.5 35q-23 -39 -46.5 -58.5t-68.5 -21.5q-13 -1 -29.5 0.5t-34 6.5t-35 16t-32.5 29q-17 21 -26 47t-12 53t-1 53t7 46q8 30 24 52t37 38t46 29t50 25q18 10 36.5 17.5t33.5 16.5t25 21t11 30q1 19 -4.5 36t-25.5 29q-29 18 -72 5q-21 -5 -37 -27
t-16 -70h-110q7 45 15 77.5t20 55t30 37t44 25.5q12 4 38.5 8t58 4t61.5 -5t49 -18q26 -18 40.5 -44.5t21 -55t7.5 -57t1 -51.5v-309q2 -69 18 -109h-109zM269 310q-20 -13 -40.5 -26.5t-37 -29.5t-26 -35.5t-6.5 -44.5q2 -26 8.5 -42t25.5 -27q17 -10 36.5 -7.5t34.5 11.5
q18 10 27 31.5t12 45.5t2.5 46t-0.5 34v71zM317 828l98 -131h-113l-52 70l-56 -70h-110l101 131h132z" />
    <glyph glyph-name="atilde" unicode="&#xe3;" horiz-adv-x="461" 
d="M335 0q-5 18 -8.5 34t-6.5 35q-23 -39 -46.5 -58.5t-68.5 -21.5q-13 -1 -29.5 0.5t-34 6.5t-35 16t-32.5 29q-17 21 -26 47t-12 53t-1 53t7 46q8 30 24 52t37 38t46 29t50 25q18 10 36.5 17.5t33.5 16.5t25 21t11 30q1 19 -4.5 36t-25.5 29q-29 18 -72 5q-21 -5 -37 -27
t-16 -70h-110q7 45 15 77.5t20 55t30 37t44 25.5q12 4 38.5 8t58 4t61.5 -5t49 -18q26 -18 40.5 -44.5t21 -55t7.5 -57t1 -51.5v-309q2 -69 18 -109h-109zM269 310q-20 -13 -40.5 -26.5t-37 -29.5t-26 -35.5t-6.5 -44.5q2 -26 8.5 -42t25.5 -27q17 -10 36.5 -7.5t34.5 11.5
q18 10 27 31.5t12 45.5t2.5 46t-0.5 34v71zM417 828q-2 -14 -6 -29.5t-11 -30.5t-18 -27.5t-27 -19.5q-19 -8 -32.5 -9t-28 2.5t-34.5 11.5t-51 17q-12 3 -24 3t-21 -8q-5 -4 -8.5 -10.5t-8.5 -20.5h-63q5 29 18 60t45 50q31 16 58.5 10t59.5 -18l15 -7q20 -9 33 -11.5
t27 8.5q5 4 8.5 9t5.5 10t3 10h60z" />
    <glyph glyph-name="adieresis" unicode="&#xe4;" horiz-adv-x="461" 
d="M335 0q-5 18 -8.5 34t-6.5 35q-23 -39 -46.5 -58.5t-68.5 -21.5q-13 -1 -29.5 0.5t-34 6.5t-35 16t-32.5 29q-17 21 -26 47t-12 53t-1 53t7 46q8 30 24 52t37 38t46 29t50 25q18 10 36.5 17.5t33.5 16.5t25 21t11 30q1 19 -4.5 36t-25.5 29q-29 18 -72 5q-21 -5 -37 -27
t-16 -70h-110q7 45 15 77.5t20 55t30 37t44 25.5q12 4 38.5 8t58 4t61.5 -5t49 -18q26 -18 40.5 -44.5t21 -55t7.5 -57t1 -51.5v-309q2 -69 18 -109h-109zM269 310q-20 -13 -40.5 -26.5t-37 -29.5t-26 -35.5t-6.5 -44.5q2 -26 8.5 -42t25.5 -27q17 -10 36.5 -7.5t34.5 11.5
q18 10 27 31.5t12 45.5t2.5 46t-0.5 34v71zM214 828v-111h-106v111h106zM352 828v-111h-107v111h107z" />
    <glyph glyph-name="aring" unicode="&#xe5;" horiz-adv-x="461" 
d="M335 0q-5 18 -8.5 34t-6.5 35q-23 -39 -46.5 -58.5t-68.5 -21.5q-13 -1 -29.5 0.5t-34 6.5t-35 16t-32.5 29q-17 21 -26 47t-12 53t-1 53t7 46q8 30 24 52t37 38t46 29t50 25q18 10 36.5 17.5t33.5 16.5t25 21t11 30q1 19 -4.5 36t-25.5 29q-29 18 -72 5q-21 -5 -37 -27
t-16 -70h-110q7 45 15 77.5t20 55t30 37t44 25.5q12 4 38.5 8t58 4t61.5 -5t49 -18q26 -18 40.5 -44.5t21 -55t7.5 -57t1 -51.5v-309q2 -69 18 -109h-109zM269 310q-20 -13 -40.5 -26.5t-37 -29.5t-26 -35.5t-6.5 -44.5q2 -26 8.5 -42t25.5 -27q17 -10 36.5 -7.5t34.5 11.5
q18 10 27 31.5t12 45.5t2.5 46t-0.5 34v71zM224 940q12 3 28 3t32.5 -3.5t33 -11.5t29.5 -22q23 -26 28.5 -61t-1.5 -64q-7 -28 -23 -49.5t-46 -32.5q-12 -5 -29 -7t-34.5 -0.5t-34.5 6.5t-29 15q-29 20 -39.5 51t-8.5 60q1 25 12 53.5t43 48.5q22 11 39 14zM199 806
q2 -20 9 -33.5t24 -21.5q14 -6 27.5 -5t22.5 6q20 12 24.5 31.5t4.5 35.5q0 20 -5 36t-22 27q-13 8 -27.5 7.5t-25.5 -4.5q-11 -6 -18 -15t-10.5 -20t-4 -22.5t0.5 -21.5z" />
    <glyph glyph-name="ccedilla" unicode="&#xe7;" horiz-adv-x="458" 
d="M204 -7q-17 0 -32.5 5.5t-29.5 13.5q-33 18 -52 44.5t-28.5 56.5t-12.5 62t-3 61v177q0 24 -0.5 53t6.5 59t25.5 57t57.5 47q19 10 47 16t58 7t59 -4t50 -18q30 -18 47.5 -42.5t25.5 -52.5t10 -58.5t2 -58.5h-117v21t-3 32.5t-12 34.5t-27 27q-15 8 -36.5 8t-36.5 -9
q-15 -10 -22.5 -28t-10.5 -38t-3 -39v-30v-156v-25t3 -37t11.5 -39t25.5 -30q14 -9 32 -13t33 2q19 7 30.5 23t17.5 39q0 4 1 12.5t2 19t2 22t1 21.5h112q0 -20 -1 -50t-9.5 -61.5t-26.5 -61.5t-51 -50q-20 -11 -46 -17t-53 -6l-38 -60q12 2 28 2t32.5 -3.5t31.5 -11
t26 -20.5q11 -14 15 -30.5t-1 -36.5q-12 -45 -62 -65q-22 -10 -50.5 -12.5t-58 0t-57 9t-45.5 14.5l23 39q35 -16 68 -22t56 11q22 16 22 42q0 12 -6 20t-20 16q-11 6 -26 7t-41 -10l-14 17l71 97v0z" />
    <glyph glyph-name="egrave" unicode="&#xe8;" horiz-adv-x="464" 
d="M170 241v-25t3 -37t11.5 -39t25.5 -30q14 -9 32 -13.5t33 1.5q20 7 31 23.5t16 39.5q2 8 4.5 31.5t2.5 43.5h112q0 -20 -1.5 -49.5t-9.5 -61.5t-26 -62t-52 -50q-20 -12 -46.5 -18t-55.5 -6t-56.5 5.5t-48.5 17.5q-32 18 -51 44.5t-29 56.5t-13 62t-3 61v177v53.5
t7.5 59.5t26.5 57t56 46q19 10 47 16t58 7t58.5 -4t49.5 -18q30 -18 47.5 -42.5t25.5 -52.5t10 -58.5t2 -58.5v-112h-267v-65zM321 412q0 6 0.5 22t-2.5 35t-11.5 37t-26.5 28q-15 8 -38 7.5t-38 -9.5q-23 -14 -29 -40t-6 -52v-28h151zM238 816l84 -129h-103l-141 129h160z
" />
    <glyph glyph-name="eacute" unicode="&#xe9;" horiz-adv-x="464" 
d="M170 241v-25t3 -37t11.5 -39t25.5 -30q14 -9 32 -13.5t33 1.5q20 7 31 23.5t16 39.5q2 8 4.5 31.5t2.5 43.5h112q0 -20 -1.5 -49.5t-9.5 -61.5t-26 -62t-52 -50q-20 -12 -46.5 -18t-55.5 -6t-56.5 5.5t-48.5 17.5q-32 18 -51 44.5t-29 56.5t-13 62t-3 61v177v53.5
t7.5 59.5t26.5 57t56 46q19 10 47 16t58 7t58.5 -4t49.5 -18q30 -18 47.5 -42.5t25.5 -52.5t10 -58.5t2 -58.5v-112h-267v-65zM321 412q0 6 0.5 22t-2.5 35t-11.5 37t-26.5 28q-15 8 -38 7.5t-38 -9.5q-23 -14 -29 -40t-6 -52v-28h151zM185 716l86 129h160l-141 -129h-105z
" />
    <glyph glyph-name="ecircumflex" unicode="&#xea;" horiz-adv-x="464" 
d="M171 241v-25t3 -37t11.5 -39t25.5 -30q14 -9 32 -13.5t33 1.5q20 7 31 23.5t16 39.5q2 8 4.5 31.5t2.5 43.5h112q0 -20 -1.5 -49.5t-9.5 -61.5t-26 -62t-52 -50q-20 -12 -46.5 -18t-55 -6t-56 5.5t-48.5 17.5q-33 18 -52 44.5t-29 56.5t-13 62t-3 61v177v53.5t7.5 59.5
t26.5 57t56 46q19 10 47 16t58 7t58.5 -4t49.5 -18q30 -18 47.5 -42.5t25.5 -52.5t10 -58.5t2 -58.5v-112h-267v-65zM322 412q0 6 0.5 22t-2.5 35t-11.5 37t-26.5 28q-15 8 -38 7.5t-38 -9.5q-23 -14 -29 -40t-6 -52v-28h151zM305 838l98 -131h-113l-52 70l-56 -70h-110
l101 131h132z" />
    <glyph glyph-name="edieresis" unicode="&#xeb;" horiz-adv-x="464" 
d="M170 241v-25t3 -37t11.5 -39t25.5 -30q14 -9 32 -13.5t33 1.5q20 7 31 23.5t16 39.5q2 8 4.5 31.5t2.5 43.5h112q0 -20 -1.5 -49.5t-9.5 -61.5t-26 -62t-52 -50q-20 -12 -46.5 -18t-55.5 -6t-56.5 5.5t-48.5 17.5q-32 18 -51 44.5t-29 56.5t-13 62t-3 61v177v53.5
t7.5 59.5t26.5 57t56 46q19 10 47 16t58 7t58.5 -4t49.5 -18q30 -18 47.5 -42.5t25.5 -52.5t10 -58.5t2 -58.5v-112h-267v-65zM321 412q0 6 0.5 22t-2.5 35t-11.5 37t-26.5 28q-15 8 -38 7.5t-38 -9.5q-23 -14 -29 -40t-6 -52v-28h151zM198 828v-111h-107v111h107zM335 828
v-111h-106v111h106z" />
    <glyph glyph-name="igrave" unicode="&#xec;" 
d="M179 640v-640h-121v640h121zM121 846l84 -129h-103l-141 129h160z" />
    <glyph glyph-name="iacute" unicode="&#xed;" 
d="M171 640v-640h-121v640h121zM18 703l85 128h160l-141 -128h-104z" />
    <glyph glyph-name="icircumflex" unicode="&#xee;" 
d="M178 640v-640h-121v640h121zM191 841l98 -131h-114l-52 70l-55 -70h-110l101 131h132z" />
    <glyph glyph-name="idieresis" unicode="&#xef;" 
d="M180 640v-640h-121v640h121zM107 831v-111h-107v111h107zM244 831v-111h-106v111h106z" />
    <glyph glyph-name="ntilde" unicode="&#xf1;" horiz-adv-x="466" 
d="M434 -1l-121 1v401v29.5t-2.5 38t-9.5 37t-20 25.5q-16 9 -34 8.5t-34 -10.5q-16 -9 -23.5 -27.5t-10 -39t-2 -39.5t0.5 -30v-394h-121v643h113v-62q15 25 30.5 39.5t33 22t37 9.5t42.5 2q16 0 37 -7t39.5 -22.5t31.5 -41.5t13 -65v-518zM388 838q-2 -14 -5.5 -29.5
t-10.5 -30.5t-18.5 -27.5t-27.5 -19.5q-19 -8 -32.5 -9t-28 2.5t-34.5 11t-51 16.5q-12 4 -23.5 4t-21.5 -8q-5 -4 -8.5 -10.5t-8.5 -20.5h-63q5 29 18 60t45 50q31 16 58.5 10t59.5 -18l15 -7q21 -9 33.5 -11.5t26.5 8.5q5 4 8.5 9t5.5 10q3 5 4 10h59z" />
    <glyph glyph-name="ograve" unicode="&#xf2;" horiz-adv-x="469" 
d="M319 385q0 23 0.5 50t-6 50t-22.5 38t-49 15q-32 0 -48.5 -15.5t-23 -38.5t-6.5 -49.5v-49.5v-131q0 -23 -0.5 -50t6 -50t22.5 -38t49 -15q32 0 48 15.5t23 38.5t7 49.5v49.5v131zM43 368q0 58 6 110t27 91t60.5 61.5t106.5 22.5q69 0 108 -22.5t59 -61.5t25 -91t5 -110
v-95q0 -58 -5 -109.5t-25 -90.5t-59 -61.5t-108 -22.5q-67 0 -106.5 22.5t-60.5 61.5t-27 90.5t-6 109.5v95zM196 849l85 -129h-103l-141 129h159z" />
    <glyph glyph-name="oacute" unicode="&#xf3;" horiz-adv-x="469" 
d="M321 385q0 23 0.5 50t-6 50t-22.5 38t-49 15q-32 0 -48 -15.5t-23 -38.5t-7 -49.5v-49.5v-131q0 -23 -0.5 -50t6 -50t22.5 -38t49 -15q32 0 48.5 15.5t23 38.5t6.5 49.5v49.5v131zM46 368q0 58 6 110t26.5 91t60 61.5t106.5 22.5q69 0 108 -22.5t59 -61.5t25 -91t5 -110
v-95q0 -58 -5 -109.5t-25 -90.5t-59 -61.5t-108 -22.5q-67 0 -106.5 22.5t-60 61.5t-26.5 90.5t-6 109.5v95zM176 729l86 129h160l-141 -129h-105z" />
    <glyph glyph-name="ocircumflex" unicode="&#xf4;" horiz-adv-x="469" 
d="M321 385q0 23 0.5 50t-6 50t-22.5 38t-49 15q-32 0 -48 -15.5t-23 -38.5t-7 -49.5v-49.5v-131q0 -23 -0.5 -50t6 -50t22.5 -38t49 -15q32 0 48.5 15.5t23 38.5t6.5 49.5v49.5v131zM46 368q0 58 6 110t26.5 91t60 61.5t106.5 22.5q69 0 108 -22.5t59 -61.5t25 -91t5 -110
v-95q0 -58 -5 -109.5t-25 -90.5t-59 -61.5t-108 -22.5q-67 0 -106.5 22.5t-60 61.5t-26.5 90.5t-6 109.5v95zM309 838l97 -131h-113l-52 70l-56 -70h-110l101 131h133z" />
    <glyph glyph-name="otilde" unicode="&#xf5;" horiz-adv-x="469" 
d="M321 385q0 23 0.5 50t-6 50t-22.5 38t-49 15q-32 0 -48 -15.5t-23 -38.5t-7 -49.5v-49.5v-131q0 -23 -0.5 -50t6 -50t22.5 -38t49 -15q32 0 48.5 15.5t23 38.5t6.5 49.5v49.5v131zM46 368q0 58 6 110t26.5 91t60 61.5t106.5 22.5q69 0 108 -22.5t59 -61.5t25 -91t5 -110
v-95q0 -58 -5 -109.5t-25 -90.5t-59 -61.5t-108 -22.5q-67 0 -106.5 22.5t-60 61.5t-26.5 90.5t-6 109.5v95zM402 828q-2 -14 -6 -29.5t-11 -30.5t-18 -27.5t-27 -19.5q-19 -8 -32.5 -9t-28.5 2.5t-35 11.5t-51 17q-11 3 -23 3t-21 -8q-5 -4 -9 -10.5t-9 -20.5h-62
q4 29 17 60t45 50q31 16 58.5 10t60.5 -18l14 -7q21 -9 33.5 -11.5t26.5 8.5q5 4 9 9t6 10q3 5 3 10h60z" />
    <glyph glyph-name="odieresis" unicode="&#xf6;" horiz-adv-x="469" 
d="M321 385q0 23 0.5 50t-6 50t-22.5 38t-49 15q-32 0 -48 -15.5t-23 -38.5t-7 -49.5v-49.5v-131q0 -23 -0.5 -50t6 -50t22.5 -38t49 -15q32 0 48.5 15.5t23 38.5t6.5 49.5v49.5v131zM46 368q0 58 6 110t26.5 91t60 61.5t106.5 22.5q69 0 108 -22.5t59 -61.5t25 -91t5 -110
v-95q0 -58 -5 -109.5t-25 -90.5t-59 -61.5t-108 -22.5q-67 0 -106.5 22.5t-60 61.5t-26.5 90.5t-6 109.5v95zM215 828v-111h-106v111h106zM353 828v-111h-107v111h107z" />
    <glyph glyph-name="ugrave" unicode="&#xf9;" horiz-adv-x="477" 
d="M178 232v-26.5t2.5 -36.5t9.5 -36t21 -25q15 -10 36.5 -8.5t35.5 8.5q16 8 24.5 27.5t11.5 40.5t3 38v21v405h121v-640h-119v22t-2 28q-14 -23 -36.5 -37.5t-49.5 -19.5t-56 -0.5t-55 20.5q-27 18 -41 43t-20 51.5t-6.5 50.5t-0.5 40v442h121v-408zM221 832l84 -128h-103
l-141 128h160z" />
    <glyph glyph-name="uacute" unicode="&#xfa;" horiz-adv-x="477" 
d="M178 232v-26.5t2.5 -36.5t9.5 -36t21 -25q15 -10 36.5 -8.5t35.5 8.5q16 8 24.5 27.5t11.5 40.5t3 38v21v405h121v-640h-119v22t-2 28q-14 -23 -36.5 -37.5t-49.5 -19.5t-56 -0.5t-55 20.5q-27 18 -41 43t-20 51.5t-6.5 50.5t-0.5 40v442h121v-408zM182 706l85 129h160
l-141 -129h-104z" />
    <glyph glyph-name="ucircumflex" unicode="&#xfb;" horiz-adv-x="477" 
d="M178 232v-26.5t2.5 -36.5t9.5 -36t21 -25q15 -10 36.5 -8.5t35.5 8.5q16 8 24.5 27.5t11.5 40.5t3 38v21v405h121v-640h-119v22t-2 28q-14 -23 -36.5 -37.5t-49.5 -19.5t-56 -0.5t-55 20.5q-27 18 -41 43t-20 51.5t-6.5 50.5t-0.5 40v442h121v-408zM317 828l98 -131h-113
l-52 70l-56 -70h-110l101 131h132z" />
    <glyph glyph-name="udieresis" unicode="&#xfc;" horiz-adv-x="477" 
d="M178 232v-26.5t2.5 -36.5t9.5 -36t21 -25q15 -10 36.5 -8.5t35.5 8.5q16 8 24.5 27.5t11.5 40.5t3 38v21v405h121v-640h-119v22t-2 28q-14 -23 -36.5 -37.5t-49.5 -19.5t-56 -0.5t-55 20.5q-27 18 -41 43t-20 51.5t-6.5 50.5t-0.5 40v442h121v-408zM228 838v-111h-107
v111h107zM365 838v-111h-106v111h106z" />
    <glyph glyph-name="ydieresis" unicode="&#xff;" horiz-adv-x="434" 
d="M221 236l83 406h120l-150 -661q-14 -61 -35 -94t-50.5 -48t-67 -17t-83.5 0v105q7 0 20.5 -0.5t28.5 0.5t29 4t21 10q13 13 17 28.5t3 32t-5 33.5t-7 32l-127 575h122zM188 828v-111h-107v111h107zM325 828v-111h-106v111h106z" />
    <glyph glyph-name="dotlessi" unicode="&#x131;" 
d="M174 642v-642h-121v642h121z" />
    <glyph glyph-name="Ydieresis" unicode="&#x178;" horiz-adv-x="533" 
d="M159 817l117 -343l119 343h134l-192 -527v-290h-122v290l-192 527h136zM202 859l85 129h160l-141 -129h-104z" />
    <glyph glyph-name="florin" unicode="&#x192;" horiz-adv-x="343" 
d="M31 647h73v90q0 20 2 37t11.5 29t28.5 18.5t53 6.5h144v-99h-72q-24 0 -32 -6t-8 -33v-43h100v-111h-99v-536h-121v536h-80v111z" />
    <glyph glyph-name="circumflex" unicode="&#x2c6;" horiz-adv-x="493" 
d="M317 828l98 -131h-113l-52 70l-56 -70h-110l101 131h132z" />
    <glyph glyph-name="ring" unicode="&#x2da;" horiz-adv-x="392" 
d="M171 830q12 3 28 3t32.5 -3.5t33 -11.5t29.5 -22q23 -26 28.5 -61t-1.5 -64q-7 -28 -23 -49.5t-46 -32.5q-12 -5 -29 -7t-34.5 -0.5t-34.5 6.5t-30 15q-29 20 -39 51t-8 60q1 25 12 53.5t43 48.5q10 6 20 9t19 5zM145 696q2 -20 9.5 -33.5t24.5 -20.5q13 -7 26.5 -6
t23.5 7q19 11 23.5 30.5t4.5 35.5q0 20 -4.5 36t-21.5 27q-13 9 -27.5 8t-25.5 -5q-11 -6 -18 -15t-10.5 -20t-4.5 -22.5t0 -21.5z" />
    <glyph glyph-name="tilde" unicode="&#x2dc;" horiz-adv-x="495" 
d="M417 828q-2 -14 -6 -29.5t-11 -30.5t-18 -27.5t-27 -19.5q-19 -8 -32.5 -9t-28 2.5t-34.5 11.5t-51 17q-12 3 -24 3t-21 -8q-5 -4 -8.5 -10.5t-8.5 -20.5h-63q5 29 18 60t45 50q31 16 58.5 10t59.5 -18l15 -7q20 -9 33 -11.5t27 8.5q5 4 8.5 9t5.5 10t3 10h60z" />
    <glyph glyph-name="Delta" unicode="&#x394;" horiz-adv-x="337" 
d="M42 121h62q28 0 43 10t21 26t6.5 36.5t0.5 42.5v581h122v-609q1 -47 -3 -85.5t-19.5 -66t-45.5 -42t-79 -14.5l-108 -1v122z" />
    <glyph glyph-name="afii10023" unicode="&#x401;" horiz-adv-x="436" 
d="M402 703h-222v-217h222v-114h-223v-258h224v-114h-346v816h345v-113zM203 1005v-111h-107v111h107zM340 1005v-111h-106v111h106z" />
    <glyph glyph-name="afii10055" unicode="&#x406;" horiz-adv-x="747" 
d="M200 539q-15 -17 -22.5 -35t-10.5 -38t-3 -39v-211q0 -17 3 -37t11.5 -39t25.5 -30q14 -9 32 -13t33 2q19 7 30.5 23t16.5 39q1 4 2.5 12.5t2.5 19t1.5 22t0.5 21.5h112q0 -20 -1 -50t-9.5 -61.5t-26.5 -61.5t-52 -50q-20 -12 -46.5 -18t-55 -6t-56 5.5t-48.5 17.5
q-33 18 -52 44.5t-29 56.5t-13 62t-3 61v177q1 24 1 53t6.5 59t25 60.5t57.5 50.5q19 10 562 2q10 0 10 -9v-90q0 -9 -10 -9l-104 -1v-521q0 -10 -10 -10h-94q-10 0 -10 10v526z" />
    <glyph glyph-name="afii10017" unicode="&#x410;" horiz-adv-x="509" 
d="M358 817l151 -817h-126l-40 203h-159l-33 -203h-127l140 817h194zM324 317l-64 376l-60 -376h124z" />
    <glyph glyph-name="afii10018" unicode="&#x411;" horiz-adv-x="526" 
d="M185 703v-218h40q40 0 74 -2t63.5 -12t55.5 -31t50 -59q17 -26 25 -62.5t8 -75.5t-7.5 -76t-22.5 -63q-24 -40 -56 -61t-67.5 -30.5t-72 -11t-69.5 -1.5h-28q-31 -2 -56 -2q-23 -1 -42.5 -0.5t-18.5 2.5v816h2v1h343v-114h-221zM184 365v-248q40 1 65.5 0t43 2.5t31.5 13
t31 31.5q10 12 15 31.5t5.5 40.5t-2.5 41t-10 33q-15 31 -35 43t-43 12h-101z" />
    <glyph glyph-name="afii10019" unicode="&#x412;" horiz-adv-x="554" 
d="M226 817h70.5t68.5 -9t61 -31.5t48 -67.5q10 -23 15.5 -54t3 -64t-13.5 -64.5t-32 -54.5q-8 -8 -17 -15.5t-27 -20.5q26 -12 44.5 -25.5t31 -30t21.5 -36.5t16 -47q6 -23 8 -51.5t-2.5 -58t-16.5 -58.5t-32 -52q-26 -30 -50.5 -45.5t-50 -22.5t-53.5 -8t-59 -1h-199v817
h165zM183 486h86q26 0 51 13t38 40q5 10 7.5 24t3 29.5t-2 30.5t-8.5 27q-13 28 -38 41t-51 13h-86v-218zM182 114h100q26 0 55 13.5t44 40.5q7 12 11 32t4.5 41.5t-3 42t-12.5 35.5q-16 26 -43.5 39.5t-55.5 13.5h-100v-258z" />
    <glyph glyph-name="afii10020" unicode="&#x413;" horiz-adv-x="427" 
d="M183 0q-34 -2 -61 -2q-23 -1 -42.5 -0.5t-18.5 2.5v816h345v-113h-222l-1 -703v0z" />
    <glyph glyph-name="afii10021" unicode="&#x414;" horiz-adv-x="682" 
d="M537 -1h-371v-156h-118v263h15v3q16 0 31.5 3t26.5 11q16 11 26.5 28t16 36.5t7 39.5t1.5 38l22 552l372 -1v-710h87v-256h-116v149zM294 265q0 -36 -4 -78t-22 -81h176l-1 597h-132z" />
    <glyph glyph-name="afii10022" unicode="&#x415;" horiz-adv-x="436" 
d="M402 703h-222v-217h222v-114h-223v-258h224v-114h-346v816h345v-113z" />
    <glyph glyph-name="afii10024" unicode="&#x416;" horiz-adv-x="850" 
d="M593 461q24 0 38.5 18t23 44.5t11 57.5t2.5 58q0 33 2 66q1 28 3 58.5t6 53.5h133q-5 -25 -7 -56.5t-3 -60.5q-1 -33 -1 -68q0 -33 -2 -64t-8 -59.5t-17.5 -53.5t-31.5 -45h3l-5 -4l5 -4h-3q20 -20 31.5 -41.5t17.5 -45.5t8 -51.5t2 -59.5q0 -40 1 -78q1 -32 3 -67t7 -59
h-133q-4 23 -6 56t-3 65q-2 37 -2 76q0 27 -2.5 54t-11 49.5t-23 36.5t-38.5 14h-97v-351h-122v351h-97q-24 0 -38.5 -14t-23 -36.5t-11 -49.5t-2.5 -54q-1 -39 -2 -76q-2 -32 -3.5 -65t-5.5 -56h-133q5 24 7 59t3 67q1 38 1 78q0 32 2 59.5t8 51.5t17.5 45.5t31.5 41.5h-3
l5 4l-5 4h3q-20 20 -31.5 45t-17.5 53.5t-8 59.5t-2 64q0 35 -1 68q-1 29 -3 60.5t-7 56.5h133q4 -23 5.5 -53.5t3.5 -58.5l2 -66q0 -27 2.5 -58t11 -57.5t23 -44.5t38.5 -18h97v356h122v-356h97z" />
    <glyph glyph-name="afii10025" unicode="&#x417;" horiz-adv-x="602" 
d="M416 427q26 -9 46 -19t35 -25t26 -35.5t20 -48.5q7 -25 9 -56.5t-3 -64.5t-16.5 -63.5t-29.5 -54.5q-18 -23 -47 -37t-62 -21.5t-65 -10t-56 -2.5q-19 0 -41.5 3t-45.5 12t-45 25t-40 42q-27 38 -34.5 82t-6.5 86h122q0 -17 1 -35t6 -34.5t16.5 -32t32.5 -27.5
q9 -6 28.5 -9t41.5 -3t42 2.5t30 8.5q16 9 26.5 23t16 30.5t7.5 33.5t2 32t-1.5 32t-7 34t-16 32.5t-28.5 26.5q-11 7 -28 10t-37 4t-41 1h-39v117q18 0 41 0.5t46 5t43.5 15.5t33.5 33q6 11 9 31t2.5 41.5t-3.5 40.5t-8 28q-6 10 -18.5 16.5t-28 11t-31.5 6.5t-27 2
t-24.5 -2.5t-27 -8t-25 -14t-17.5 -20.5q-8 -17 -11 -35t-4 -43h-116q-2 23 1 51t12 55.5t26.5 53.5t44.5 44q21 14 58.5 21.5t78 9t77.5 -2.5t56 -13q51 -23 76 -62t32 -90q3 -21 1.5 -47t-8.5 -52.5t-20.5 -52t-35.5 -45.5q-11 -11 -21 -18t-30 -18z" />
    <glyph glyph-name="afii10026" unicode="&#x418;" horiz-adv-x="565" 
d="M176 270l215 547h138v-817h-122v548l-213 -548h-140v817h122v-547z" />
    <glyph glyph-name="afii10027" unicode="&#x419;" horiz-adv-x="565" 
d="M176 270l215 547h138v-817h-122v548l-213 -548h-140v817h122v-547zM158 942h277v-83h-277v83z" />
    <glyph glyph-name="afii10028" unicode="&#x41a;" horiz-adv-x="533" 
d="M277 461q24 0 38.5 18t23 44.5t11 57.5t2.5 58q0 33 2 66q1 28 3 58.5t6 53.5h133q-5 -25 -7 -56.5t-3 -60.5q-1 -33 -1 -68q0 -33 -2 -64t-8 -59.5t-17.5 -53.5t-31.5 -45h3l-5 -4l5 -4h-3q20 -20 31.5 -41.5t17.5 -45.5t8 -51.5t2 -59.5q0 -40 1 -78q1 -32 3 -67t7 -59
h-133q-4 23 -6 56t-3 65q-2 37 -2 76q0 27 -2.5 54t-11 49.5t-23 36.5t-38.5 14h-97v-351h-122v817h122v-356h97z" />
    <glyph glyph-name="afii10029" unicode="&#x41b;" horiz-adv-x="598" 
d="M412 703h-132l-18 -438q0 -30 -2 -64t-12.5 -67.5t-32.5 -64t-62 -52.5q-24 -14 -56 -20.5t-65 -5.5v118q16 0 31.5 3t26.5 11q16 11 26.5 28t15.5 36.5t6.5 39.5t1.5 38l23 552l372 -1v-816q0 -2 -19 -2.5t-42 0.5q-27 0 -61 2z" />
    <glyph glyph-name="afii10030" unicode="&#x41c;" horiz-adv-x="728" 
d="M322 0l-140 669v-669h-121v817h204l113 -534l110 534h207v-818h-121v670l-138 -669h-114z" />
    <glyph glyph-name="afii10031" unicode="&#x41d;" horiz-adv-x="537" 
d="M182 817v-323h201v323h122v-817h-122v373h-201v-373h-122v817h122z" />
    <glyph glyph-name="afii10032" unicode="&#x41e;" horiz-adv-x="544" 
d="M391 575q0 31 -4.5 56.5t-16.5 43.5t-33 28t-54 10q-34 0 -55 -10t-33 -28t-16 -43.5t-4 -56.5v-333q0 -32 4 -57.5t16 -43.5t33 -27.5t55 -9.5q33 0 54 9.5t33 27.5t16.5 43.5t4.5 57.5v333zM513 277q0 -57 -8 -109t-32 -92t-69.5 -63.5t-120.5 -23.5q-77 0 -122.5 24.5
t-69.5 65t-31 92t-7 106.5v262q0 55 7 107t31 92.5t69.5 65t122.5 24.5q75 0 120.5 -24t69.5 -63.5t32 -92t8 -109.5v-262z" />
    <glyph glyph-name="afii10033" unicode="&#x41f;" horiz-adv-x="537" 
d="M505 817v-817h-122v695h-201v-695h-122v817h445z" />
    <glyph glyph-name="afii10034" unicode="&#x420;" horiz-adv-x="526" 
d="M285 452q23 0 43 12t35 43q7 13 10 33t2.5 41t-5.5 40.5t-15 31.5q-17 22 -31 31.5t-31.5 13t-43 2.5t-65.5 0v-248h101zM63 817h143q33 0 69.5 -1.5t72 -11t67.5 -30.5t56 -61q15 -26 22.5 -63t7.5 -76t-8 -75.5t-25 -62.5q-24 -38 -50 -59t-55.5 -31t-63.5 -12t-74 -2
h-40v-332h-122v817z" />
    <glyph glyph-name="afii10035" unicode="&#x421;" horiz-adv-x="531" 
d="M386 555q-1 16 -2 37t-6 42t-17 39.5t-34 29.5q-10 5 -24.5 7.5t-29.5 1.5t-29 -4.5t-24 -10.5q-20 -12 -30.5 -31.5t-14.5 -40.5t-4 -41.5v-34.5v-284v-31t4 -40t14.5 -41t30.5 -33q10 -7 23 -11t27 -5t28 0.5t26 6.5q25 10 39 29.5t19 45.5q2 14 3 32.5t1 35.5v38h121
v-69.5t-8.5 -72t-28.5 -68.5t-60 -59q-26 -17 -59.5 -25t-68.5 -8.5t-67.5 6.5t-55.5 20q-37 20 -58.5 46t-33 56t-15 62t-3.5 63v313q0 28 0.5 58.5t8.5 61t26.5 59.5t55.5 55q21 15 50.5 23.5t61.5 11.5t63 0.5t55 -9.5q55 -17 92 -54.5t42 -95.5q2 -17 3 -47.5t0 -63.5
h-121z" />
    <glyph glyph-name="afii10036" unicode="&#x422;" horiz-adv-x="453" 
d="M173 699h-150v117h423v-117l-147 -1v-700h-123v700z" />
    <glyph glyph-name="afii10037" unicode="&#x423;" horiz-adv-x="533" 
d="M160 817l117 -343l119 343h135l-287 -817h-123l95 290l-192 527h136z" />
    <glyph glyph-name="afii10038" unicode="&#x424;" horiz-adv-x="667" 
d="M264 0v118q-73 6 -104 22q-45 25 -69 65.5t-31 92t-7 106.5v15q0 55 7 107t31 92.5t69 64.5q31 17 104 22v112h122v-110q84 -4 120 -23q46 -24 70 -63.5t32 -92t8 -109.5v-72q-16 -104 -40 -144t-70 -64q-36 -19 -120 -22v-117h-122zM494 455q0 31 -4.5 56.5t-16.5 43.5
t-33 28q-14 6 -54 9v-360q40 2 54 8q21 10 33 28t16.5 43.5t4.5 57.5v86zM264 233v357q-26 -2 -36 -7q-21 -10 -33 -28t-16 -43.5t-4 -56.5v-86q0 -32 4 -57.5t16 -43.5t33 -28z" />
    <glyph glyph-name="afii10039" unicode="&#x425;" horiz-adv-x="546" 
d="M161 0h-138l177 436l-150 381h134l105 -269l104 269h134l-161 -381l177 -436h-138l-122 319z" />
    <glyph glyph-name="afii10040" unicode="&#x426;" horiz-adv-x="663" 
d="M478 0h-418v817h122v-695h201v695h122v-694h93v-258h-120v135z" />
    <glyph glyph-name="afii10041" unicode="&#x427;" horiz-adv-x="562" 
d="M385 353q-43 -18 -109 -18q-77 0 -122.5 24.5t-69.5 65t-31 92t-7 106.5v194h122v-229q0 -32 4 -57.5t16 -43.5t33 -27.5t55 -9.5q32 0 108 19v348h122l1 -817h-122v353z" />
    <glyph glyph-name="afii10042" unicode="&#x428;" horiz-adv-x="893" 
d="M60 0v817h122v-695h201v695h122v-695h201v695h122v-817h-768z" />
    <glyph glyph-name="afii10043" unicode="&#x429;" horiz-adv-x="955" 
d="M784 0h-724v817h122v-695h201v695h122v-695h201v695h122v-695h84v-278h-128v156z" />
    <glyph glyph-name="afii10044" unicode="&#x42a;" horiz-adv-x="632" 
d="M38 817h253v-332h40q40 0 74 -2t63.5 -12t55.5 -31t50 -59q17 -26 25 -62.5t8 -75.5t-7.5 -76t-22.5 -63q-24 -40 -56 -61t-67.5 -30.5t-72 -11t-69.5 -1.5h-143v711h-131v106zM290 365v-248q40 1 65.5 0t43 2.5t31.5 13t31 31.5q10 12 15 31.5t5.5 40.5t-2.5 41t-10 33
q-15 31 -35 43t-43 12h-101z" />
    <glyph glyph-name="afii10045" unicode="&#x42b;" horiz-adv-x="733" 
d="M63 817h122v-332h40q40 0 74 -2t63.5 -12t55.5 -31t50 -59q17 -26 25 -62.5t8 -75.5t-7.5 -76t-22.5 -63q-24 -40 -56 -61t-67.5 -30.5t-72 -11t-69.5 -1.5h-143v817zM184 365v-248q40 1 65.5 0t43 2.5t31.5 13t31 31.5q10 12 15 31.5t5.5 40.5t-2.5 41t-10 33
q-15 31 -35 43t-43 12h-101zM541 0v817h122v-817h-122z" />
    <glyph glyph-name="afii10046" unicode="&#x42c;" horiz-adv-x="526" 
d="M63 817h122v-332h40q40 0 74 -2t63.5 -12t55.5 -31t50 -59q17 -26 25 -62.5t8 -75.5t-7.5 -76t-22.5 -63q-24 -40 -56 -61t-67.5 -30.5t-72 -11t-69.5 -1.5h-143v817zM184 365v-248q40 1 65.5 0t43 2.5t31.5 13t31 31.5q10 12 15 31.5t5.5 40.5t-2.5 41t-10 33
q-15 31 -35 43t-43 12h-101z" />
    <glyph glyph-name="afii10047" unicode="&#x42d;" horiz-adv-x="531" 
d="M50 555q-1 33 0 63.5t3 47.5q5 58 42 95.5t92 54.5q24 7 55 9.5t63 -0.5t61.5 -11.5t50.5 -23.5q37 -26 55.5 -55t26.5 -59.5t8.5 -61t0.5 -58.5v-313q0 -31 -3.5 -63t-15 -62t-33 -56t-58.5 -46q-23 -13 -55.5 -20t-67.5 -6.5t-68.5 8.5t-59.5 25q-40 26 -60 59
t-28.5 68.5t-8.5 71.5v70h121v-38q0 -17 1 -35.5t3 -32.5q5 -26 19 -45.5t39 -29.5q12 -5 26 -6.5t28 -0.5t27 5t23 11q20 13 30.5 33t14.5 41t4 40v125h-198v90h198v134q0 21 -4 42t-14.5 40.5t-30.5 31.5q-10 7 -24 10.5t-29 4.5t-29.5 -1.5t-24.5 -7.5q-22 -11 -34 -29.5
t-17 -39.5t-6 -42t-2 -37h-121z" />
    <glyph glyph-name="afii10048" unicode="&#x42e;" horiz-adv-x="808" 
d="M182 817v-323h124v45q0 55 7 107t31 92.5t69.5 65t122.5 24.5q75 0 120.5 -24t69.5 -63.5t32 -92t8 -109.5v-262q0 -57 -8 -109t-32 -92t-69.5 -63.5t-120.5 -23.5q-77 0 -122.5 24.5t-69.5 65t-31 92t-7 106.5v96h-124v-373h-122v817h122zM644 575q0 31 -4.5 56.5
t-16.5 43.5t-33 28t-54 10q-34 0 -55 -10t-33 -28t-16 -43.5t-4 -56.5v-333q0 -32 4 -57.5t16 -43.5t33 -27.5t55 -9.5q33 0 54 9.5t33 27.5t16.5 43.5t4.5 57.5v333z" />
    <glyph glyph-name="afii10049" unicode="&#x42f;" horiz-adv-x="533" 
d="M278 332q-24 0 -38.5 -14t-23 -36.5t-11 -49.5t-2.5 -54l-2 -66q-2 -28 -3.5 -58.5t-5.5 -53.5h-133q5 24 7 56t3 61q1 33 1 68q0 33 2 61t8 52t18.5 45.5t33.5 42.5q-14 12 -22.5 24t-17.5 26q-17 25 -25 62t-8 76t8 76t23 63q23 40 55 61t68 30.5t72.5 11t68.5 1.5h143
v-817h-122v332h-97zM376 700q-6 0 -28 1t-49 -2t-53 -13.5t-41 -32.5q-9 -13 -14 -32t-6 -39.5t2 -40.5t11 -34q17 -33 35 -43.5t42 -10.5h101v247z" />
    <glyph glyph-name="afii10065" unicode="&#x430;" horiz-adv-x="461" 
d="M335 0q-5 18 -8.5 34t-6.5 35q-23 -39 -46.5 -58.5t-68.5 -21.5q-13 -1 -29.5 0.5t-34 6.5t-35 16t-32.5 29q-17 21 -26 47t-12 53t-1 53t7 46q8 30 24 52t37 38t46 29t50 25q18 10 36.5 17.5t33.5 16.5t25 21t11 30q1 19 -4.5 36t-25.5 29q-29 18 -72 5q-21 -5 -37 -27
t-16 -70h-110q7 45 15 77.5t20 55t30 37t44 25.5q12 4 38.5 8t58 4t61.5 -5t49 -18q26 -18 40.5 -44.5t21 -55t7.5 -57t1 -51.5v-309q2 -69 18 -109h-109zM269 310q-20 -13 -40.5 -26.5t-37 -29.5t-26 -35.5t-6.5 -44.5q2 -26 8.5 -42t25.5 -27q17 -10 36.5 -7.5t34.5 11.5
q18 10 27 31.5t12 45.5t2.5 46t-0.5 34v71z" />
    <glyph glyph-name="afii10066" unicode="&#x431;" horiz-adv-x="469" 
d="M46 368q0 65 3 120.5t1 88.5q0 40 7 82.5t33 76.5q23 29 51.5 43.5t57.5 24.5q26 9 36 12.5t24 7.5q11 3 22 8t19 13q12 9 12 27l119 -16q0 -15 -2 -30.5t-10 -29.5q-11 -23 -29.5 -32.5t-38.5 -15.5q-11 -3 -22 -6.5t-22 -5.5q-15 -3 -29 -6t-28 -8q-16 -5 -35 -13.5
t-32 -23.5q-4 -5 -12.5 -19t-17 -29.5t-15.5 -30t-8 -20.5q9 3 15 13t16.5 21t29.5 20.5t54 12.5q68 5 107.5 -17t59.5 -62t25 -94t5 -112v-95q0 -58 -5 -109.5t-25 -90.5t-59 -61.5t-108 -22.5q-67 0 -106.5 22.5t-60 61.5t-26.5 90.5t-6 109.5v95zM321 385q0 23 0.5 50
t-6 50t-22.5 38t-49 15q-32 0 -48 -15.5t-23 -38.5t-7 -49.5v-49.5v-131q0 -23 -0.5 -50t6 -50t22.5 -38t49 -15q32 0 48.5 15.5t23 38.5t6.5 49.5v49.5v131z" />
    <glyph glyph-name="afii10067" unicode="&#x432;" horiz-adv-x="443" 
d="M198 639q25 0 51 -2t50 -11t44.5 -27t35.5 -48q7 -15 10 -35.5t3 -40.5q0 -33 -8 -62.5t-28 -49.5l-4 -3v1q-5 -6 -8 -10.5t-10 -9.5q34 -18 50 -42t27 -63q3 -10 5 -22.5t2 -28.5q0 -29 -11.5 -62.5t-30.5 -57.5q-35 -41 -76 -53t-83 -12h-166q-10 0 -10 10v620
q0 9 10 9h147zM154 390h57q18 0 33.5 7t23.5 23q11 17 11 42q0 20 -9 38q-8 17 -24.5 25t-34.5 8h-57v-143zM154 106h68q17 0 37.5 8.5t30.5 25.5l-1 -1q5 12 7.5 27.5t2.5 31.5q0 31 -7 42q-11 24 -31.5 33.5t-38.5 9.5h-68v-177z" />
    <glyph glyph-name="afii10068" unicode="&#x433;" horiz-adv-x="342" 
d="M154 10q0 -10 -10 -10h-6q-2 0 -4 -0.5t-4 -0.5q-8 -1 -16.5 -1h-15.5h-21q-16 0 -28 2t-8 12v617q0 9 10 9h265q9 0 9 -9v-87q0 -10 -9 -10h-161z" />
    <glyph glyph-name="afii10069" unicode="&#x434;" horiz-adv-x="546" 
d="M409 -1h-266v-109q0 -10 -10 -10h-91q-10 0 -10 10v201q0 10 10 10l12 2q10 0 21 2t19 6h-1q10 7 16.5 19.5t10.5 26.5t6 28t2 26l17 419q0 9 10 9l286 -1q10 0 10 -9v-528h57q8 0 8 -10v-195q0 -10 -8 -10h-90q-9 0 -9 10v103zM241 211q0 -22 -3 -53t-12 -57h111
q0 55 -0.5 108.5t-0.5 107.5v215h-81z" />
    <glyph glyph-name="afii10070" unicode="&#x435;" horiz-adv-x="464" 
d="M169 241v-25t3 -37t11.5 -39t25.5 -30q14 -9 32 -13.5t33 1.5q20 7 31 23.5t16 39.5q2 8 4 31.5t2 43.5h113q-1 -20 -2 -49.5t-9.5 -61.5t-26 -62t-51.5 -50q-20 -12 -46.5 -18t-55.5 -6t-56.5 5.5t-48.5 17.5q-32 18 -51 44.5t-29 56.5t-13 62t-3 61v177v53.5t7.5 59.5
t26.5 57t56 46q19 10 47 16t58 7t58.5 -4t49.5 -18q30 -18 47.5 -42.5t25.5 -52.5t10 -58.5t2 -58.5v-112h-267v-65zM320 412q0 6 0.5 22t-2.5 35t-11.5 37t-26.5 28q-15 8 -38 7.5t-38 -9.5q-23 -14 -29 -40t-6 -52v-28h151z" />
    <glyph glyph-name="afii10072" unicode="&#x436;" horiz-adv-x="680" 
d="M462 373q16 0 25.5 11.5t14.5 29.5t6.5 39.5t1.5 41.5q0 12 0.5 23.5t1.5 25.5q1 23 2.5 47.5t4.5 39.5q2 8 10 8h103q4 0 7 -4t3 -7q-4 -18 -6 -41.5t-2 -46.5q-1 -11 -1 -23.5v-25.5q0 -49 -7 -94.5t-36 -77.5q30 -31 36.5 -68.5t6.5 -83.5v-32.5t1 -28.5
q0 -22 2 -49.5t6 -44.5q0 -5 -3 -8.5t-7 -3.5h-103q-8 0 -10 8q-3 15 -4.5 44t-2.5 50q-1 12 -1.5 28.5t-0.5 30.5q0 17 -1.5 36t-6.5 35t-14.5 26.5t-25.5 10.5h-64v-259q0 -10 -9 -10h-94q-10 0 -10 10v259h-65q-16 0 -25.5 -10.5t-14.5 -26.5t-6.5 -35t-1.5 -36l-2 -59
l-3 -40q-1 -16 -1.5 -31t-2.5 -23t-10 -8h-102q-3 0 -6 3.5t-3 8.5q4 17 5 44t1 50q1 14 1 28.5v32.5q0 45 7.5 83.5t36.5 69.5q-14 16 -23 36t-13.5 42t-6 45.5t-1.5 47.5v25.5t-1 23.5q0 23 -1 46.5t-5 41.5q0 3 3 7t6 4h102q8 0 10 -8q2 -6 2.5 -19t1.5 -26v-5l3 -37
l2 -49q0 -20 1.5 -41.5t6.5 -39.5t14.5 -29.5t25.5 -11.5h65v257q0 9 10 9h94q9 0 9 -9v-257h64z" />
    <glyph glyph-name="afii10073" unicode="&#x437;" horiz-adv-x="482" 
d="M422 514q4 -35 -6 -79.5t-44 -78.5q-10 -13 -24 -22q16 -7 29 -15t22.5 -19t17.5 -26t15 -36q7 -20 7 -54q0 -35 -10 -71t-31 -65q-15 -18 -38 -29.5t-49 -17.5t-52 -8t-45 -2q-15 0 -33.5 2.5t-37.5 9.5t-37 20.5t-31 36.5q-21 29 -27.5 64t-5.5 67q0 10 8 10h96
q2 0 5 -2.5t3 -7.5q0 -12 0.5 -25t5 -25t13.5 -23t26 -21q2 -2 15.5 -2.5t30.5 -0.5q14 0 29 2.5t22 7.5q20 9 26 33.5t6 45.5q0 9 -1 22t-5.5 25.5t-12.5 24t-22 19.5q-8 5 -32.5 5.5t-50.5 -0.5h-19q-10 0 -10 10v90q0 10 10 10h7q13 0 29 1t31 4.5t28.5 10.5t21.5 20
q4 6 5.5 19t1.5 28q0 14 -2 28.5t-5 21.5q-3 4 -12 8t-20 7t-22 4.5t-18 1.5q-15 0 -35.5 -6.5t-28.5 -20.5h1q-6 -14 -8.5 -26t-3.5 -29q0 -5 -3 -8.5t-6 -3.5h-90q-10 0 -10 12q-1 18 1.5 40t10.5 44.5t22 43t36 35.5q20 11 55.5 16.5t70.5 5.5q29 0 53.5 -2.5t38.5 -8.5
q42 -18 62 -48.5t26 -72.5z" />
    <glyph glyph-name="afii10074" unicode="&#x438;" horiz-adv-x="452" 
d="M149 268l146 365q3 6 10 6h106q10 0 10 -9v-620q0 -10 -10 -10h-93q-10 0 -10 10v363l-58 -147l-83 -211q-7 -15 -14 -15h-108q-8 0 -8 10v620q0 9 8 9h95q3 0 6 -2.5t3 -6.5v-362z" />
    <glyph glyph-name="afii10075" unicode="&#x439;" horiz-adv-x="452" 
d="M149 268l146 365q3 6 10 6h106q10 0 10 -9v-620q0 -10 -10 -10h-93q-10 0 -10 10v363l-58 -147l-83 -211q-7 -15 -14 -15h-108q-8 0 -8 10v620q0 9 8 9h95q3 0 6 -2.5t3 -6.5v-362zM116 725q0 9 10 9h213q9 0 9 -9v-60q0 -11 -9 -11h-213q-10 0 -10 11v60z" />
    <glyph glyph-name="afii10076" unicode="&#x43a;" horiz-adv-x="426" 
d="M218 373q15 0 24.5 11.5t14.5 29.5t7 39.5t2 41.5v25t1 24q1 22 2.5 47.5t4.5 39.5q1 3 4 5.5t5 2.5h102q4 0 7 -4t3 -7q-4 -19 -5.5 -42t-2.5 -46q-1 -11 -1 -23.5v-25.5q0 -48 -7 -94.5t-36 -78.5q28 -30 35.5 -68.5t7.5 -82.5v-32.5t1 -28.5q1 -23 2.5 -50t5.5 -44
q0 -5 -3 -8.5t-7 -3.5h-102q-2 0 -5 2.5t-4 5.5q-3 15 -4.5 44t-2.5 50q-1 12 -1 28.5v30.5q0 17 -2 36t-7 35t-14.5 26.5t-24.5 10.5h-66v-259q0 -10 -10 -10h-94q-10 0 -10 10v620q0 9 10 9h94q10 0 10 -9v-257h66z" />
    <glyph glyph-name="afii10077" unicode="&#x43b;" horiz-adv-x="478" 
d="M312 532h-82l-7 -157q-2 -42 -3.5 -82t-3.5 -82q0 -23 -1.5 -50t-10 -54t-26.5 -51.5t-51 -40.5h1q-20 -13 -46 -18t-52 -4q-10 0 -10 10v90q0 10 10 10h18t11 2q14 8 23 21.5t13.5 28.5t5.5 30t1 26l18 419q0 9 10 9l286 -1q10 0 10 -9v-619q0 -9 -12.5 -10.5
t-30.5 -1.5h-14q-8 0 -17.5 0.5t-20.5 1.5h-9q-10 0 -10 10v522z" />
    <glyph glyph-name="afii10078" unicode="&#x43c;" horiz-adv-x="582" 
d="M254 0q-8 0 -10 8q-12 57 -22.5 107t-21 99.5t-21.5 99.5t-23 107v-411q0 -10 -10 -10h-93q-10 0 -10 10v620q0 9 10 9h157q8 0 10 -8l76 -356q6 27 12.5 55t11.5 57q13 63 25.5 122.5t25.5 121.5q2 8 9 8h160q10 0 10 -9v-621q0 -10 -10 -10h-93q-10 0 -10 10v410
l-86 -411q-2 -8 -10 -8h-87z" />
    <glyph glyph-name="afii10079" unicode="&#x43d;" horiz-adv-x="430" 
d="M144 639q10 0 10 -9v-235h134v235q0 9 10 9h94q10 0 10 -9v-620q0 -10 -10 -10h-94q-10 0 -10 10v273h-134v-273q0 -10 -10 -10h-94q-10 0 -10 10v620q0 9 10 9h94z" />
    <glyph glyph-name="afii10080" unicode="&#x43e;" horiz-adv-x="469" 
d="M321 385q0 23 0.5 50t-6 50t-22.5 38t-49 15q-32 0 -48 -15.5t-23 -38.5t-7 -49.5v-49.5v-131q0 -23 -0.5 -50t6 -50t22.5 -38t49 -15q32 0 48.5 15.5t23 38.5t6.5 49.5v49.5v131zM46 368q0 58 6 110t26.5 91t60 61.5t106.5 22.5q69 0 108 -22.5t59 -61.5t25 -91t5 -110
v-95q0 -58 -5 -109.5t-25 -90.5t-59 -61.5t-108 -22.5q-67 0 -106.5 22.5t-60 61.5t-26.5 90.5t-6 109.5v95z" />
    <glyph glyph-name="afii10081" unicode="&#x43f;" horiz-adv-x="430" 
d="M392 639q10 0 10 -9v-620q0 -10 -10 -10h-94q-10 0 -10 10v517h-134v-517q0 -10 -10 -10h-94q-10 0 -10 10v620q0 9 10 9h342z" />
    <glyph glyph-name="afii10082" unicode="&#x440;" horiz-adv-x="469" 
d="M168 640v-14v-13t1 -13t2 -9t1 -6q13 18 24.5 30.5t33.5 23.5q17 8 35.5 11t36.5 2t33.5 -5.5t26.5 -11.5q30 -18 47 -44t25 -54.5t9.5 -54.5t1.5 -44v-222q0 -27 -4 -66t-19.5 -75t-46.5 -62t-85 -26q-48 0 -72 13t-43 48v-224h-121v816h114zM241 95q11 -2 24.5 1
t27.5 16q12 11 18 24t9 30t3 39v52v133v32.5t-3.5 42.5t-12.5 42t-27 29q-16 9 -34.5 8.5t-34.5 -10.5q-17 -11 -25 -29t-10 -37t-1.5 -36.5t0.5 -28.5v-161q0 -8 -0.5 -25.5t2 -38t8.5 -39t19 -28.5q17 -13 37 -16z" />
    <glyph glyph-name="afii10083" unicode="&#x441;" horiz-adv-x="458" 
d="M315 418v21t-3 32.5t-12 34.5t-27 27q-15 8 -36.5 8t-36.5 -9q-15 -10 -22.5 -28t-10.5 -38t-3 -39v-30v-156v-25t3 -37t11.5 -39t25.5 -30q14 -9 32 -13t33 2q19 7 30.5 23t16.5 39q1 4 2.5 12.5t2.5 19t1.5 22t0.5 21.5h112q0 -20 -1 -50t-9.5 -61.5t-26.5 -61.5
t-52 -50q-20 -12 -46.5 -18t-55 -6t-56 5.5t-48.5 17.5q-33 18 -52 44.5t-29 56.5t-13 62t-3 61v177q1 24 1 53t6.5 59t25 57t57.5 47q19 10 47 16t58 7t58.5 -4t49.5 -18q30 -18 47.5 -42.5t25.5 -52.5t10.5 -58.5t2.5 -58.5h-117z" />
    <glyph glyph-name="afii10084" unicode="&#x442;" horiz-adv-x="362" 
d="M20 530q-8 0 -8 9v90q0 9 8 9h327q10 0 10 -9v-90q0 -9 -10 -9l-104 -1v-521q0 -10 -10 -10h-94q-10 0 -10 10v522h-109z" />
    <glyph glyph-name="afii10085" unicode="&#x443;" horiz-adv-x="434" 
d="M223 236l83 404h120l-150 -659q-14 -61 -35 -93.5t-50.5 -47.5t-67 -17t-83.5 -2v106q7 0 20.5 -0.5t28.5 0.5t28.5 4t21.5 10q13 12 17 27t3.5 31.5t-4.5 33.5t-7 34l-128 573h122z" />
    <glyph glyph-name="afii10086" unicode="&#x444;" horiz-adv-x="772" 
d="M317 0h-2v42q-18 -30 -40 -42q-24 -13 -72 -13q-54 0 -85 26t-46.5 62t-19.5 75t-4 66v222q0 18 1.5 44t9.5 54.5t25 54.5t47 44q11 7 26.5 11.5t33.5 5.5t36 -2q19 -3 36 -11q22 -11 33 -24q9 -9 19 -22v-16h3v12l-3 4v224h121q-4 -211 -3 -217l3 -15q13 18 24.5 30.5
t33.5 23.5q17 8 35.5 11t36.5 2t33.5 -5.5t26.5 -11.5q30 -18 47 -44t25 -54.5t9.5 -54.5t1.5 -44v-222q0 -27 -4 -66t-19.5 -75t-46.5 -62t-85 -26q-48 0 -72 13t-43 48v-224l-122 -1v177zM505 95q11 -2 24.5 1t27.5 16q12 11 18 24t9 30t3 39v217q0 21 -3.5 43t-12.5 42
t-27 29q-16 9 -34.5 8.5t-34.5 -10.5q-17 -11 -25 -29t-10 -37t-1.5 -36.5t0.5 -28.5v-161q0 -8 -0.5 -25.5t2 -38t8.5 -39t19 -28.5q17 -13 37 -16zM318 193q-1 -7 -2 -15q0 -5 -1 -10v312q-3 13 -8 25q-8 18 -25 29q-16 10 -35 10q-18 1 -34 -8q-18 -9 -27 -29t-12.5 -42
t-3.5 -43v-217q0 -22 3 -39t9 -30t18 -24q14 -13 27.5 -16t24.5 -1l37 16q13 10 19 28q4 12 7 27zM317 468l-2 12l3 -24zM315 42l3 6z" />
    <glyph glyph-name="afii10087" unicode="&#x445;" horiz-adv-x="459" 
d="M159 640l79 -197l88 197h124l-136 -309l132 -331h-124l-84 221l-91 -221h-128l143 321l-129 319h126z" />
    <glyph glyph-name="afii10088" unicode="&#x446;" horiz-adv-x="537" 
d="M367 0h-314q-10 0 -10 10v620q0 9 10 9h95q9 0 9 -9v-517h137v517q0 9 10 9h95q8 0 8 -9v-517h63q10 0 10 -10v-196q0 -10 -10 -10h-93q-10 0 -10 10v93z" />
    <glyph glyph-name="afii10089" unicode="&#x447;" horiz-adv-x="455" 
d="M293 263q-14 -4 -34 -6t-40 -2q-63 0 -100 19.5t-56.5 51t-25.5 72.5t-6 84v148q0 9 8 9h96q3 0 6 -2.5t3 -6.5v-173q0 -45 14 -70t61 -25q10 0 30.5 4t43.5 9v255q0 9 10 9h94q10 0 10 -9l1 -620q0 -10 -10 -10h-95q-10 0 -10 10v253z" />
    <glyph glyph-name="afii10090" unicode="&#x448;" horiz-adv-x="714" 
d="M53 0q-9 0 -9 10v620q0 9 9 9h95q9 0 9 -9v-517h135v517q0 9 8 9h96q8 0 8 -9v-517h136v517q0 9 10 9h93q9 0 9 -9v-620q0 -10 -9 -10h-590z" />
    <glyph glyph-name="afii10091" unicode="&#x449;" horiz-adv-x="773" 
d="M609 0h-554q-10 0 -10 10v620q0 9 10 9h95q10 0 10 -9v-517h136v517q0 9 10 9h95q10 0 10 -9v-517h136v517q0 9 10 9h95q10 0 10 -9v-517h56q9 0 9 -10v-212q0 -10 -9 -10h-100q-9 0 -9 10v109z" />
    <glyph glyph-name="afii10092" unicode="&#x44a;" horiz-adv-x="512" 
d="M25 630q0 9 10 9h197q10 0 10 -9v-242h20q31 0 58.5 -2.5t51.5 -11t45.5 -25t41.5 -44.5q14 -20 21.5 -51.5t7.5 -61.5q0 -32 -6.5 -60t-20.5 -50q-19 -32 -45 -48.5t-55 -24t-58 -8.5t-54 -1h-112q-10 0 -10 10v529h-92q-10 0 -10 10v81zM241 278v-169h24h32t23.5 3.5
t19.5 11t21 22.5q5 8 7.5 19.5t2.5 24.5q0 14 -3 27t-7 24h1q-10 22 -23.5 29.5t-29.5 7.5h-68z" />
    <glyph glyph-name="afii10093" unicode="&#x44b;" horiz-adv-x="594" 
d="M45 630q0 9 10 9h94q10 0 10 -9v-242h21q32 0 59.5 -1.5t51.5 -10t45 -25t41 -46.5q15 -21 22 -51.5t7 -60.5q0 -27 -7.5 -58t-21.5 -57q-19 -30 -44 -46t-53.5 -23t-57.5 -8t-56 -1h-111q-10 0 -10 10v620zM159 278v-169h24h32t22.5 2.5t18 8.5t17.5 18q8 8 11.5 25.5
t3.5 33.5q0 28 -8 42q-10 23 -23.5 31t-30.5 8h-67zM426 0q-9 0 -9 10v620q0 9 9 9h95q10 0 10 -9v-620q0 -10 -10 -10h-95z" />
    <glyph glyph-name="afii10094" unicode="&#x44c;" horiz-adv-x="421" 
d="M42 630q0 9 10 9h94q10 0 10 -9v-241h22q32 0 59 -2.5t50 -11t44 -25t41 -44.5q14 -20 20.5 -51t6.5 -61q0 -31 -6 -60t-18 -50v1q-18 -33 -44 -50.5t-54.5 -25t-58.5 -8.5t-55 -1h-111q-10 0 -10 10v620zM155 278v-169h24q35 -1 54.5 5.5t36.5 23.5q7 8 10.5 24.5
t3.5 31.5q0 14 -3.5 26t-8.5 23q-10 22 -22 28.5t-26 6.5h-69z" />
    <glyph glyph-name="afii10095" unicode="&#x44d;" horiz-adv-x="469" 
d="M199 313v100h122v22q1 27 -5.5 50t-22.5 38t-49 15q-32 0 -48 -15.5t-23 -38.5t-7 -50v-8h-119q2 27 5 52q6 52 26.5 91t60 61.5t106.5 22.5q69 0 108 -22.5t59 -61.5t25 -91t5 -110v-95q0 -58 -5 -109.5t-25 -90.5t-59 -61.5t-108 -22.5q-67 0 -106.5 22.5t-60 61.5
t-26.5 90l-4 38h117q0 -26 6 -47q7 -23 23 -38t49 -15q32 0 48.5 15.5t23 38.5t6.5 49v109h-122z" />
    <glyph glyph-name="afii10096" unicode="&#x44e;" horiz-adv-x="680" 
d="M174 642v-258h83q1 49 6 94q6 52 26.5 91t60 61.5t106.5 22.5q69 0 108 -22.5t59 -61.5t25 -91t5 -110v-95q0 -58 -5 -109.5t-25 -90.5t-59 -61.5t-108 -22.5q-67 0 -106.5 22.5t-60 61.5t-26.5 90.5t-6 109.5v12h-83v-285h-121v642h121zM532 385q1 77 -5.5 100t-22.5 38
t-49 15q-32 0 -48 -15.5t-23 -38.5t-7 -50v-180q0 -23 -0.5 -50t6 -50t22.5 -38t49 -15q32 0 48.5 15.5t23 38.5t6.5 49v181z" />
    <glyph glyph-name="afii10097" unicode="&#x44f;" horiz-adv-x="426" 
d="M219 255q-15 -3 -25 -13t-15.5 -25.5t-7 -34.5t-1.5 -39v-23.5t-1 -24.5l-3 -37q-1 -14 -1.5 -28t-2.5 -22t-10 -8h-103q-4 0 -7 3.5t-3 8.5q4 17 5.5 42t2.5 45q1 13 1 24.5v24.5q0 51 8.5 87.5t34.5 67.5q-8 7 -13 15l-10 16q-14 24 -21.5 54t-7.5 58q0 32 6.5 60.5
t20.5 48.5v-1q18 33 44 50.5t55 25t58.5 8.5t53.5 1h109q10 0 10 -9v-620q0 -10 -10 -10h-94q-9 0 -9 10v245h-64zM282 530h-24.5t-31.5 -3t-31.5 -9.5t-24.5 -17.5q-6 -10 -10 -25.5t-4 -33.5q0 -25 8 -41q12 -21 23.5 -29t28.5 -8h68z" />
    <glyph glyph-name="afii10071" unicode="&#x451;" horiz-adv-x="464" 
d="M169 241v-25t3 -37t11.5 -39t25.5 -30q14 -9 32 -13.5t33 1.5q20 7 31 23.5t16 39.5q2 8 4 31.5t2 43.5h113q-1 -20 -2 -49.5t-9.5 -61.5t-26 -62t-51.5 -50q-20 -12 -46.5 -18t-55.5 -6t-56.5 5.5t-48.5 17.5q-32 18 -51 44.5t-29 56.5t-13 62t-3 61v177v53.5t7.5 59.5
t26.5 57t56 46q19 10 47 16t58 7t58.5 -4t49.5 -18q30 -18 47.5 -42.5t25.5 -52.5t10 -58.5t2 -58.5v-112h-267v-65zM320 412q0 6 0.5 22t-2.5 35t-11.5 37t-26.5 28q-15 8 -38 7.5t-38 -9.5q-23 -14 -29 -40t-6 -52v-28h151zM217 828v-111h-107v111h107zM354 828v-111h-106
v111h106z" />
    <glyph glyph-name="endash" unicode="&#x2013;" horiz-adv-x="550" 
d="M528 312h-497v89h497v-89z" />
    <glyph glyph-name="emdash" unicode="&#x2014;" horiz-adv-x="770" 
d="M731 314l-669 -2v89h669v-87z" />
    <glyph glyph-name="quoteleft" unicode="&#x2018;" horiz-adv-x="218" 
d="M119 691q27 -2 46.5 -20.5t19.5 -45.5q0 -28 -19.5 -47.5t-46.5 -19.5q-28 0 -45.5 19t-20.5 47q0 10 4 21.5t7 18.5l89 164l21 -11l-67 -126h12v0z" />
    <glyph glyph-name="quoteright" unicode="&#x2019;" horiz-adv-x="218" 
d="M117 693q-28 2 -47.5 20.5t-19.5 45.5q0 28 19.5 47.5t47.5 19.5q27 0 45 -19t20 -47q0 -10 -4 -21.5t-7 -18.5l-89 -164l-21 11l68 126h-12v0z" />
    <glyph glyph-name="quotedblleft" unicode="&#x201c;" horiz-adv-x="415" 
d="M120 691q27 -2 46.5 -20.5t19.5 -45.5q0 -28 -19.5 -47.5t-46.5 -19.5q-28 0 -45.5 19t-20.5 47q0 10 4 21.5t7 18.5l89 164l21 -11l-67 -126h12zM309 691q27 -2 46.5 -20.5t19.5 -45.5q0 -28 -19.5 -47.5t-46.5 -19.5q-28 0 -46 19t-20 47q0 10 4 21.5t7 18.5l89 164
l21 -11l-68 -126h13z" />
    <glyph glyph-name="quotedblright" unicode="&#x201d;" horiz-adv-x="414" 
d="M309 689q-28 2 -47.5 20.5t-19.5 46.5q0 27 19.5 46.5t47.5 19.5q27 0 45 -18.5t20 -46.5q0 -10 -4 -21.5t-7 -18.5l-89 -164l-21 11l68 125h-12zM120 689q-28 2 -47.5 20.5t-19.5 46.5q0 27 19.5 46.5t47.5 19.5q27 0 45 -18.5t20 -46.5q0 -10 -3.5 -21.5t-7.5 -18.5
l-89 -164l-21 11l68 125h-12z" />
    <glyph glyph-name="dagger" unicode="&#x2020;" horiz-adv-x="766" 
d="M533 758h117v-116h95v-108h-92v-346q0 -31 2 -54.5t8 -44t17.5 -41.5t30.5 -48h-129q-15 22 -24.5 42t-15 39t-8 39.5t-2.5 44.5v369h-201h-30t-42 -2.5t-42.5 -8.5t-30.5 -18q-8 -9 -11 -22.5t1 -30.5q4 -16 12.5 -27.5t21.5 -20.5t28.5 -17t33.5 -17l25 -13
q32 -17 60.5 -34t50 -38.5t34.5 -48.5t14 -63q0 -19 -4 -40.5t-13.5 -42.5t-26.5 -41t-42 -35q-21 -12 -50 -18.5t-59.5 -6.5t-59 5.5t-48.5 16.5q-33 19 -55.5 44t-36 53.5t-19 57.5t-6.5 55h118q3 -18 6 -35t9.5 -32.5t19.5 -28.5t36 -22q15 -7 35.5 -7t39.5 14
q15 11 21 25t4 31q-2 20 -11.5 34.5t-24 26.5t-32.5 22l-36 20l-27 14q-32 18 -55.5 31t-41 28t-28 35t-16.5 51q-5 32 1 70.5t36 74.5q23 27 52 41t60.5 20.5t62.5 7t57 0.5h211v116z" />
    <glyph glyph-name="bullet" unicode="&#x2022;" horiz-adv-x="222" 
d="M122 523q31 0 52.5 -22t21.5 -53t-21 -52t-52 -21t-53 21t-22 52t21.5 53t52.5 22z" />
    <glyph glyph-name="fraction" unicode="&#x2044;" horiz-adv-x="533" 
d="M161 817l118 -343l118 343h135l-192 -527v-290h-122v290l-192 527h135zM257 984v-111h-106v111h106zM395 984v-111h-106v111h106z" />
    <glyph glyph-name="infinity" unicode="&#x221e;" horiz-adv-x="434" 
d="M225 236l84 406h119l-149 -661q-14 -61 -35.5 -94t-51 -48t-67 -17t-83.5 0v105q7 0 20.5 -0.5t28.5 0.5t29 4t21 10q13 13 17 28.5t3.5 32t-4.5 33.5t-7 32l-128 575h122zM160 726l85 129h160l-141 -129h-104z" />
    <glyph glyph-name="afii10020.001" horiz-adv-x="833" 
 />
    <glyph glyph-name="afii10018.001" horiz-adv-x="833" 
 />
    </font>
</defs>
</svg>
