<svg id="Слой_1" data-name="Слой 1" xmlns="http://www.w3.org/2000/svg" viewBox="0 0 300 50">
  <defs>
    <style>
      .cls-1 {
        fill: #e8b533;
      }
    </style>
  </defs>
  <title>big-slogo</title>
  <rect class="cls-1" width="300" height="50"/>
  <g>
    <path d="M88.76,17.47H92L102,35H97.16L90,23,83.59,35H79.21Z"/>
    <path d="M104.71,17.47h4v11.8l13.7-11.8h3.07V35h-4V23.13L107.79,35h-3.08Z"/>
    <path d="M128.06,17.47h16.33c1.73,0,2.6.85,2.6,2.48V26a2.31,2.31,0,0,1-2.6,2.35H132.31V35h-4.25Zm4.25,3.3v4.28H142c.64,0,1-.28,1-.83V21.63c0-.57-.31-.86-1-.86Z"/>
    <path d="M149.21,17.47h4v11.8l13.7-11.8H170V35h-4V23.13L152.29,35h-3.08Z"/>
    <path d="M172.56,17.47h4.25v7.1l9.23-7.1H192l-10.87,8.16L193.36,35h-6.6l-9.95-7.32V35h-4.25Z"/>
    <path d="M205.91,17.5h3.9L219.71,35H215l-2.13-3.77h-10.5l-2,3.77h-4.25Zm1.8,3.77-3.57,6.63h7.07Z"/>
  </g>
</svg>
