<svg id="Слой_1" data-name="Слой 1" xmlns="http://www.w3.org/2000/svg" viewBox="0 0 300 50">
  <defs>
    <style>
      .cls-1 {
        fill: #e8b533;
      }
    </style>
  </defs>
  <title>contacts</title>
  <rect class="cls-1" width="300" height="50"/>
  <path d="M53.81,18h4.25v7.1L67.29,18h5.92L62.34,26.13l12.27,9.34H68l-10-7.32v7.32H53.81Z"/>
  <path d="M79.84,18h14.9c1.63,0,2.46.91,2.5,2.73V32.88c-.07,1.73-.9,2.59-2.5,2.59H80c-1.73,0-2.6-.79-2.6-2.37v-13C77.36,18.68,78.19,18,79.84,18Zm1.55,3.3v10.9H93.21V21.27Z"/>
  <path d="M99.74,18H104V24.6h12.3V18h4.25v17.5h-4.25V28.15H104v7.32H99.74Z"/>
  <path d="M123.26,18h20.1v3.55h-7.8v14h-4.25V21.52h-8Z"/>
  <path d="M155.69,18h3.9l9.9,17.47h-4.73l-2.12-3.77h-10.5l-2,3.77h-4.25Zm1.8,3.77-3.58,6.63H161Z"/>
  <path d="M172.06,18h4.25v7.1l9.23-7.1h5.92l-10.87,8.16,12.27,9.34h-6.6l-9.95-7.32v7.32h-4.25Z"/>
  <path d="M193.61,18h20.1v3.55h-7.8v14h-4.25V21.52h-8Z"/>
  <path d="M220.39,18v6.75h10.27c2.84,0,4.25,1,4.25,3v5.08c-.06,1.82-1.36,2.72-3.9,2.72H216.24V18Zm0,9.93v4.5h9.42q1.2,0,1.2-1.77v-.48q0-2.25-1.2-2.25ZM241.76,18v17.5h-4.5V18Z"/>
</svg>
