<svg id="Слой_1" data-name="Слой 1" xmlns="http://www.w3.org/2000/svg" viewBox="0 0 300 50">
  <defs>
    <style>
      .cls-1 {
        fill: #e8b533;
      }
    </style>
  </defs>
  <title>history</title>
  <rect class="cls-1" width="300" height="50"/>
  <g>
    <path d="M71.24,17h4v11.8L89,17H92v17.5H88V22.63L74.31,34.47H71.24Z"/>
    <path d="M97.31,17H111c1.84,0,2.74,1,2.73,3v3.21l-4.25.69v-3.3H98.84v10.4h10.65V27.38l4.25.72v3.42c0,2-.91,2.95-2.73,2.95H97.31c-1.81,0-2.72-1-2.72-2.95V19.92C94.59,18,95.5,17,97.31,17Z"/>
    <path d="M116.24,17h20.1v3.55h-7.8v14h-4.25V20.52h-8.05Z"/>
    <path d="M141.34,17h14.9c1.63,0,2.47.91,2.5,2.73V31.88c-.07,1.73-.9,2.59-2.5,2.59H141.46c-1.73,0-2.6-.79-2.6-2.37v-13C138.86,17.68,139.69,17,141.34,17Zm1.55,3.3v10.9h11.82V20.27Z"/>
    <path d="M161.24,17h16.32c1.74,0,2.6.85,2.6,2.48V25.5a2.31,2.31,0,0,1-2.6,2.35H165.49v6.62h-4.25Zm4.25,3.3v4.28h9.7c.63,0,.95-.28.95-.83V21.13c0-.57-.32-.86-.95-.86Z"/>
    <path d="M182.39,17h4v11.8L200.11,17h3.08v17.5h-4V22.63L185.46,34.47h-3.07Z"/>
    <path d="M226.44,34.47h-4.25V28.1h-3.8l-6.85,6.37h-5.8l7.57-6.37H210a2.22,2.22,0,0,1-2.48-2.5V19.45c0-1.58.85-2.41,2.6-2.48h16.33Zm-13.95-14.2c-.62,0-.94.28-1,.83V24c0,.55.31.82,1,.82h9.7v-4.5Z"/>
  </g>
</svg>
