<?xml version="1.0" encoding="utf-8"?>
<!-- Generator: Adobe Illustrator 22.0.1, SVG Export Plug-In . SVG Version: 6.00 Build 0)  -->
<svg version="1.1" id="Слой_1" xmlns="http://www.w3.org/2000/svg" xmlns:xlink="http://www.w3.org/1999/xlink" x="0px" y="0px"
	 viewBox="0 0 300 50" style="enable-background:new 0 0 300 50;" xml:space="preserve">
<style type="text/css">
	.st0{fill:#E8B533;}
</style>
<title>kurgan</title>
<rect class="st0" width="300" height="50"/>
<g>
	<path d="M71.2,17.3h4.3v7.1l9.2-7.1h5.9l-10.9,8.2L92,34.8h-6.6l-10-7.3v7.3h-4.3V17.3z"/>
	<path d="M104.6,17.3h3.9l9.9,17.5h-4.7l-2.1-3.8H101l-2,3.8h-4.3L104.6,17.3z M106.4,21.1l-3.6,6.6h7.1L106.4,21.1z"/>
	<path d="M120.9,17.3h16.3c1.7,0,2.6,0.8,2.6,2.5v6.1c-0.1,1.5-1,2.3-2.6,2.3h-12.1v6.6h-4.3V17.3z M125.2,20.6v4.3h9.7
		c0.6,0,0.9-0.3,0.9-0.8v-2.6c0-0.6-0.3-0.9-0.9-0.9H125.2z"/>
	<path d="M142.1,17.2h17.8v3.3h-13.5v3.5h7.8v3.3h-7.8v3.8h13.7v3.5h-18V17.2z"/>
	<path d="M172.2,17.3h3.2l10,17.5h-4.8l-7.1-12l-6.5,12h-4.4L172.2,17.3z"/>
	<path d="M188.2,17.3h4v11.8l13.7-11.8h3.1v17.5h-4V22.9l-13.7,11.8h-3.1V17.3z"/>
	<path d="M232.2,34.8H228v-6.4h-3.8l-6.9,6.4h-5.8l7.6-6.4h-3.3c-1.7,0-2.5-0.9-2.5-2.5v-6.2c0-1.6,0.9-2.4,2.6-2.5h16.3V34.8z
		 M218.3,20.6c-0.6,0-0.9,0.3-1,0.8v2.8c0,0.6,0.3,0.8,1,0.8h9.7v-4.5H218.3z"/>
</g>
</svg>
