<svg id="Слой_1" data-name="Слой 1" xmlns="http://www.w3.org/2000/svg" viewBox="0 0 300 50"><defs><style>.cls-1{fill:#e8b533;}</style></defs><title>kurgan</title><rect class="cls-1" width="300" height="50"/><g id="Слой_1_1" data-name="Слой_1 1"><path d="M18.29,16.31h4.25v7.1l9.22-7.1h5.93L26.81,24.46l12.28,9.35h-6.6l-10-7.33v7.33H18.29Z"/><path d="M41.84,16.31h4.07v6.82h9.93V16.31h4.07V30.63c0,2.12-.87,3.18-2.62,3.18H41.84V30.18h14V26.56H44.46c-1.71,0-2.59-1.17-2.62-3.35Z"/><path d="M62.44,16.31H78.76c1.74,0,2.6.84,2.6,2.47v6a2.3,2.3,0,0,1-2.6,2.35H66.69v6.63H62.44Zm4.25,3.3v4.27h9.7c.63,0,1-.27,1-.82v-2.6c0-.57-.32-.85-1-.85Z"/><path d="M99.24,19.68H87.41V33.81H83.59V16.31H99.24Z"/><path d="M111.46,16.33h3.9l9.9,17.48h-4.72L118.41,30h-10.5l-2,3.78h-4.25Zm1.8,3.78-3.57,6.62h7.07Z"/><path d="M127.84,16.31h4.25v6.62h12.3V16.31h4.25v17.5h-4.25V26.48h-12.3v7.33h-4.25Z"/><path d="M163.51,16.31h13.7c1.83,0,2.74,1,2.73,3v3.2l-4.25.7v-3.3H165v10.4h10.65V26.71l4.25.72v3.43c0,2-.91,3-2.73,3h-13.7c-1.81,0-2.72-1-2.72-3V19.26C160.79,17.31,161.7,16.32,163.51,16.31Z"/><path d="M192,16.31h3.22l10,17.5h-4.85l-7.13-12-6.45,12h-4.37Z"/><path d="M217.74,16.33h3.9l9.9,17.48h-4.73L224.69,30h-10.5l-2,3.78h-4.25Zm1.8,3.78L216,26.73H223Z"/><path d="M234.11,16.31h16.43c1.71.1,2.55.92,2.5,2.47v3.55c0,1.52-.78,2.31-2.38,2.38,1.73,0,2.6.86,2.6,2.47V31q0,2.85-3.42,2.85H234.11Zm4.25,3.12V23H248c.6,0,.91-.29.93-.82v-1.9c0-.52-.33-.79-.93-.83Zm0,6.85v4.23H248c.57-.09.88-.32.93-.7V27c-.09-.4-.4-.63-.93-.7Z"/><path d="M259.39,16.31v6.75h10.27q4.24,0,4.25,3v5.07q-.11,2.73-3.9,2.73H255.24V16.31Zm0,9.92v4.5h9.42q1.2,0,1.2-1.77v-.48q0-2.25-1.2-2.25Zm21.37-9.92v17.5h-4.5V16.31Z"/></g></svg>