<svg id="Слой_1" data-name="Слой 1" xmlns="http://www.w3.org/2000/svg" viewBox="0 0 300 50">
  <defs>
    <style>
      .cls-1 {
        fill: #e8b533;
      }
    </style>
  </defs>
  <title>news</title>
  <rect class="cls-1" width="300" height="50"/>
  <g>
    <path d="M71.49,17h4.25V23.6H88V17h4.25v17.5H88V27.15H75.74v7.32H71.49Z"/>
    <path d="M97.49,17h14.9c1.63,0,2.46.91,2.5,2.73V31.88c-.07,1.73-.9,2.59-2.5,2.59H97.61c-1.73,0-2.6-.79-2.6-2.37v-13C95,17.68,95.84,17,97.49,17ZM99,20.27v10.9h11.82V20.27Z"/>
    <path d="M117.39,17h16.42c1.72.1,2.55.93,2.5,2.48V23c0,1.52-.77,2.31-2.37,2.38,1.73,0,2.6.85,2.6,2.47v3.78q0,2.84-3.43,2.84H117.39Zm4.25,3.13v3.55h9.65c.6,0,.91-.29.92-.83v-1.9c0-.51-.32-.79-.92-.82Zm0,6.85v4.22h9.65c.56-.08.87-.31.92-.7V27.65c-.08-.4-.39-.63-.92-.7Z"/>
    <path d="M141,17h14.9c1.63,0,2.46.91,2.5,2.73V31.88c-.07,1.73-.9,2.59-2.5,2.59H141.11c-1.73,0-2.6-.79-2.6-2.37v-13C138.51,17.68,139.34,17,141,17Zm1.55,3.3v10.9h11.82V20.27Z"/>
    <path d="M163.61,17h13.7c1.83,0,2.74,1,2.73,3v3.21l-4.25.69v-3.3H165.14v10.4h10.65V27.38l4.25.72v3.42c0,2-.91,2.95-2.73,2.95h-13.7c-1.82,0-2.72-1-2.72-2.95V19.92C160.89,18,161.79,17,163.61,17Z"/>
    <path d="M182.54,17h20.1v3.55h-7.8v14h-4.25V20.52h-8.05Z"/>
    <path d="M205.16,17h4v11.8L222.89,17H226v17.5h-4V22.63L208.24,34.47h-3.08Z"/>
  </g>
</svg>
