<svg id="Слой_1" data-name="Слой 1" xmlns="http://www.w3.org/2000/svg" viewBox="0 0 218.56 43">
  <title>otpr</title>
  <path d="M56,56.23c0,3.07-1.18,5.66-5.6,5.66H40.1c-4.42,0-5.66-2.59-5.66-5.66V24.07C34.44,21,36,19,39.75,19h11C54.44,19,56,21,56,24.07ZM43.46,25.49c-1.06,0-1.35.53-1.35,1.47V53.87c0,1.12.17,1.53,1.41,1.53h3.37c1.3,0,1.47-.41,1.47-1.53V27c0-.94-.35-1.47-1.41-1.47Z" transform="translate(-34.44 -19)"/>
  <path d="M76.21,19,78,26h-6V61.89H64.29V26h-5.9l2-7Z" transform="translate(-34.44 -19)"/>
  <path d="M101.93,61.89H94.2V26h-6V61.89H80.4V19h21.53Z" transform="translate(-34.44 -19)"/>
  <path d="M126.6,45.19c0,3.13-2.07,5-5.73,5H113V61.89h-7.55V19h15.81c3.66,0,5.32,1.94,5.32,5ZM113,25.49V44.13h4.78c1.3,0,1.48-.47,1.48-1.59V26.84c0-.94-.36-1.35-1.42-1.35Z" transform="translate(-34.44 -19)"/>
  <path d="M136,56.41l-.77,5.48H127.6L135.09,19H144l7.43,42.89h-7.55l-.82-5.48Zm.88-5.73h5.37L139.57,29.5Z" transform="translate(-34.44 -19)"/>
  <path d="M175.39,44.84V55.7c0,4.42-1.65,6.19-6.26,6.19H153.79V19h15.87c3.55,0,5.32,1.77,5.32,5.25v12.8c0,1.89-.65,3.48-2.78,4A3.6,3.6,0,0,1,175.39,44.84Zm-14.1-19.35V38.35h4.78a1.56,1.56,0,0,0,1.65-1.77V27c0-.94-.3-1.47-1.36-1.47Zm6.55,20.18c0-1.42-.77-1.83-1.89-1.83h-4.66V55.4h5.07c1.18,0,1.48-.41,1.48-1.53Z" transform="translate(-34.44 -19)"/>
  <path d="M186.62,43l8-22.65V19H203V61.89h-8.41L195.33,39,187.4,60.54v1.35h-8.47V19h8.47Z" transform="translate(-34.44 -19)"/>
  <path d="M229,19l2,7h-9V62h-8V26h-9l2-7Z" transform="translate(-34.44 -19)"/>
  <path d="M240.44,36.17h7.77c3.3,0,4.79,2,4.79,5.07V56.88c0,3.07-1.49,5-4.79,5H233.42V19h7Zm4.63,19.23c1,0,1.28-.41,1.28-1.36V43.66c0-1.12-.16-1.42-1.33-1.42h-4.58V55.4Z" transform="translate(-34.44 -19)"/>
</svg>
