<svg id="Слой_1" data-name="Слой 1" xmlns="http://www.w3.org/2000/svg" viewBox="0 0 300 50">
  <defs>
    <style>
      .cls-1 {
        fill: #e8b533;
      }
    </style>
  </defs>
  <title>rai-photo</title>
  <rect class="cls-1" width="300" height="50"/>
  <path d="M44.05,17.31H59c1.88.11,2.82,1,2.8,2.67v6.65q0,3.11-2.92,3.13h-5.7v5.05H49.65V29.76H43.92C42,29.71,41,29,41,27.76v-8.1C41,18.09,42,17.31,44.05,17.31Zm.65,4.15v4.25c0,.61.26.92.78.92h3.37a.71.71,0,0,0,.8-.8V21.36c0-.54-.31-.8-.92-.8H45.6A.8.8,0,0,0,44.7,21.46Zm8.43,0v4.25c0,.61.25.92.77.92h3.35a.71.71,0,0,0,.8-.8V21.36c0-.54-.3-.8-.9-.8H54A.79.79,0,0,0,53.13,21.46Z"/>
  <path d="M66.6,17.31H81.5c1.63,0,2.47.91,2.5,2.72V32.21c-.07,1.73-.9,2.6-2.5,2.6H66.72c-1.73,0-2.6-.79-2.6-2.38v-13C64.12,18,65,17.31,66.6,17.31Zm1.55,3.3v10.9H80V20.61Z"/>
  <path d="M86.5,17.31h20.1v3.55H98.8v14H94.55v-14h-8Z"/>
  <path d="M111.6,17.31h14.9c1.63,0,2.47.91,2.5,2.72V32.21c-.07,1.73-.9,2.6-2.5,2.6H111.72c-1.73,0-2.6-.79-2.6-2.38v-13C109.12,18,110,17.31,111.6,17.31Zm1.55,3.3v10.9H125V20.61Z"/>
  <path d="M147.15,20.68H135.32V34.81H131.5V17.31h15.65Z"/>
  <path d="M149.57,17.31H165.9c1.73,0,2.6.84,2.6,2.47v6a2.31,2.31,0,0,1-2.6,2.35H153.82v6.63h-4.25Zm4.25,3.3v4.27h9.7c.64,0,.95-.27.95-.82v-2.6c0-.57-.31-.85-.95-.85Z"/>
  <path d="M178.52,17.33h3.9l9.9,17.48H187.6L185.47,31H175l-2,3.78h-4.25Zm1.8,3.78-3.57,6.62h7.07Z"/>
  <path d="M196,17.31h14.9c1.88.11,2.82,1,2.8,2.67v6.65c0,2.07-1,3.11-2.93,3.13H205v5.05h-3.47V29.76h-5.73c-1.95-.05-2.92-.72-2.92-2v-8.1C192.9,18.09,193.92,17.31,196,17.31Zm.65,4.15v4.25c0,.61.26.92.77.92h3.38a.71.71,0,0,0,.8-.8V21.36c0-.54-.31-.8-.93-.8H197.5A.8.8,0,0,0,196.6,21.46Zm8.42,0v4.25c0,.61.26.92.78.92h3.35a.71.71,0,0,0,.8-.8V21.36c0-.54-.3-.8-.9-.8h-3.13A.8.8,0,0,0,205,21.46Z"/>
  <path d="M216,17.31h4v11.8l13.7-11.8h3.07v17.5h-4V23L219.1,34.81H216Z"/>
  <path d="M239.37,17.31h4v11.8l13.7-11.8h3.07v17.5h-4V23L242.45,34.81h-3.08Z"/>
</svg>
