<svg id="Слой_1" data-name="Слой 1" xmlns="http://www.w3.org/2000/svg" viewBox="0 0 300 50">
  <defs>
    <style>
      .cls-1 {
        fill: #e8b533;
      }
    </style>
  </defs>
  <title>raspisanie</title>
  <rect class="cls-1" width="300" height="50"/>
  <g>
    <path d="M28,16.85H45.7c1.88,0,2.82.84,2.82,2.48v6.05c-.11,1.53-1.05,2.31-2.82,2.35H32.61v6.62H28Zm4.61,3.3v4.28H43.12c.69,0,1-.28,1-.83V21c0-.57-.34-.85-1-.85Z"/>
    <path d="M61.55,16.88h4.23L76.51,34.35H71.39l-2.3-3.77H57.71l-2.17,3.77H50.93Zm2,3.77-3.87,6.62H67.3Z"/>
    <path d="M82.26,16.85H97.11c2,0,3,1,3,2.95V23l-4.61.7V20.4H83.91V30.8H95.46V27.25l4.61.73V31.4a2.61,2.61,0,0,1-3,3H82.26a2.6,2.6,0,0,1-3-3V19.8C79.31,17.85,80.29,16.87,82.26,16.85Z"/>
    <path d="M102.78,16.85h21.08v17.5h-4.69V20.45H107.38v13.9h-4.6Z"/>
    <path d="M126.63,16.85H131v11.8l14.85-11.8h3.33v17.5h-4.33V22.5L130,34.35h-3.33Z"/>
    <path d="M154.89,16.85h14.85c2,0,3,1,3,2.95V23l-4.61.7V20.4H156.55V30.8h11.54V27.25l4.61.73V31.4a2.61,2.61,0,0,1-3,3H154.89a2.6,2.6,0,0,1-2.95-3V19.8C151.94,17.85,152.92,16.87,154.89,16.85Z"/>
    <path d="M186,16.88h4.23L201,34.35h-5.12l-2.3-3.77H182.18L180,34.35h-4.61ZM188,20.65l-3.87,6.62h7.67Z"/>
    <path d="M203.78,16.85h4.61v6.63h13.34V16.85h4.6v17.5h-4.6V27H208.39v7.33h-4.61Z"/>
    <path d="M229.29,16.85h4.36v11.8l14.85-11.8h3.34v17.5H247.5V22.5L232.62,34.35h-3.33Z"/>
    <path d="M254.6,16.83h19.24v3.32H259.23V23.7h8.46V27h-8.46v3.8h14.88v3.55H254.6Z"/>
  </g>
</svg>
