<svg id="Слой_1" data-name="Слой 1" xmlns="http://www.w3.org/2000/svg" viewBox="0 0 300 50">
  <defs>
    <style>
      .cls-1 {
        fill: #e8b533;
      }
    </style>
  </defs>
  <title>scool</title>
  <rect class="cls-1" width="300" height="50"/>
  <path d="M87.67,18h3.89V31.88H97L97,18h4.47V31.88h5.14V18H111v17.5H87.67Z"/>
  <path d="M114.63,18h4.25v7.1L128.1,18H134l-10.88,8.16,12.28,9.34h-6.6l-10-7.32v7.32h-4.25Z"/>
  <path d="M140.65,18h14.9c1.63,0,2.47.91,2.5,2.73V32.88c-.07,1.73-.9,2.59-2.5,2.59H140.78c-1.74,0-2.6-.79-2.6-2.37v-13C138.18,18.68,139,18,140.65,18Zm1.55,3.3v10.9H154V21.27Z"/>
  <path d="M170.1,18h3.23l10,17.5H178.5l-7.12-12-6.46,12h-4.37Z"/>
  <path d="M194.85,18h3.9l9.9,17.47h-4.73L201.8,31.7H191.3l-2,3.77h-4.25Zm1.8,3.77-3.57,6.63h7.07Z"/>
</svg>
