<svg id="Слой_1" data-name="Слой 1" xmlns="http://www.w3.org/2000/svg" viewBox="0 0 300 50">
  <defs>
    <style>
      .cls-1 {
        fill: #e8b533;
      }
    </style>
  </defs>
  <title>uprava</title>
  <rect class="cls-1" width="300" height="50"/>
  <g>
    <path d="M81.39,17h4.07V23.8h9.93V17h4.07V31.3c0,2.12-.87,3.17-2.62,3.17H81.39V30.85h14V27.22H84c-1.71,0-2.59-1.16-2.62-3.34Z"/>
    <path d="M102,17h19.45v17.5h-4.33V20.57H106.24v13.9H102Z"/>
    <path d="M124,17h16.32c1.74,0,2.6.85,2.6,2.48V25.5a2.31,2.31,0,0,1-2.6,2.35H128.24v6.62H124Zm4.25,3.3v4.28h9.7c.63,0,.95-.28.95-.83V21.13c0-.57-.32-.86-.95-.86Z"/>
    <path d="M154.94,17h3.9l9.9,17.47H164l-2.12-3.77h-10.5l-2,3.77h-4.25Zm1.8,3.77-3.58,6.63h7.08Z"/>
    <path d="M171.31,17h16.43c1.71.1,2.55.93,2.5,2.48V23c0,1.52-.78,2.31-2.38,2.38,1.74,0,2.6.85,2.6,2.47v3.78q0,2.84-3.42,2.84H171.31Zm4.25,3.13v3.55h9.65c.6,0,.91-.29.93-.83v-1.9c0-.51-.33-.79-.93-.82Zm0,6.85v4.22h9.65c.57-.08.88-.31.93-.7V27.65c-.09-.4-.39-.63-.93-.7Z"/>
    <path d="M202.24,17h3.9L216,34.47h-4.73l-2.12-3.77h-10.5l-2,3.77h-4.25Zm1.8,3.77-3.58,6.63h7.08Z"/>
  </g>
</svg>
