<svg id="Слой_1" data-name="Слой 1" xmlns="http://www.w3.org/2000/svg" viewBox="0 0 300 50"><defs><style>.cls-1{fill:#e8b533;}</style></defs><title>vk-1</title><rect class="cls-1" width="300" height="50"/><path d="M71.76,19.51H59.94V33.63H56.11V16.13H71.76Z"/><path d="M74.19,16.13H90.51c1.74,0,2.6.85,2.6,2.48v6.05A2.31,2.31,0,0,1,90.51,27H78.44v6.62H74.19Zm4.25,3.3v4.28h9.7c.63,0,1-.28,1-.83v-2.6c0-.56-.32-.85-1-.85Z"/><path d="M95.34,16.13h4.07V23h9.93V16.13h4.07V30.46c0,2.12-.87,3.17-2.62,3.17H95.34V30h14V26.38H98c-1.71-.05-2.59-1.16-2.62-3.35Z"/><path d="M115.94,16.13h19.45v17.5h-4.33V19.73H120.19v13.9h-4.25Z"/><path d="M137.94,16.13h19.45v17.5h-4.33V19.73H142.19v13.9h-4.25Z"/><path d="M169.74,16.16h3.9l9.9,17.47h-4.73l-2.12-3.77h-10.5l-2,3.77h-4.25Zm1.8,3.77L168,26.56H175Z"/><path d="M195.74,16.13h4.5l6.67,12.33,6.8-12.33H218l-9.45,17.5h-3.07Z"/><path d="M220.54,16.13h4.25v7.1l9.22-7.1h5.93l-10.88,8.15,12.28,9.35h-6.6l-10-7.32v7.32h-4.25Z"/><path d="M251.89,16.13v17.5h-4v-14h-3.77v-2.6Z"/></svg>