<svg id="Слой_1" data-name="Слой 1" xmlns="http://www.w3.org/2000/svg" viewBox="0 0 300 50"><defs><style>.cls-1{fill:#e8b533;}</style></defs><title>vk-2</title><rect class="cls-1" width="300" height="50"/><path d="M64.2,20.11H52.38V34.24H48.55V16.74H64.2Z"/><path d="M66.63,16.74H83c1.73,0,2.6.84,2.6,2.47v6.05A2.31,2.31,0,0,1,83,27.61H70.88v6.63H66.63ZM70.88,20v4.27h9.7c.63,0,1-.27,1-.82v-2.6c0-.57-.32-.85-1-.85Z"/><path d="M87.78,16.74h4.07v6.82h9.93V16.74h4.07V31.06c0,2.12-.87,3.18-2.62,3.18H87.78V30.61h14V27H90.4c-1.72,0-2.59-1.17-2.62-3.35Z"/><path d="M108.38,16.74h19.45v17.5H123.5V20.34H112.63v13.9h-4.25Z"/><path d="M130.38,16.74h19.45v17.5H145.5V20.34H134.63v13.9h-4.25Z"/><path d="M162.17,16.76h3.9L176,34.24h-4.72l-2.13-3.78h-10.5l-2,3.78h-4.25Zm1.8,3.78-3.57,6.62h7.07Z"/><path d="M188.17,16.74h4.5l6.68,12.32,6.8-12.32h4.25L201,34.24h-3.08Z"/><path d="M213,16.74h4.25v7.1l9.23-7.1h5.92L221.5,24.89l12.27,9.35h-6.6l-9.95-7.33v7.33H213Z"/><path d="M239.82,16.74h12.3c1.57,0,2.36.63,2.38,1.9v4.25a3.18,3.18,0,0,1-1.18,1.42l-10.77,6.63h9.35v-2.6l3.55.92v2.5c0,1.65-.81,2.48-2.38,2.48H236.52v-2a5.18,5.18,0,0,1,2.7-3.18l11.5-6.87V20h-9.47v3.55l-3.78-1.05V19.21C237.51,17.56,238.29,16.74,239.82,16.74Z"/></svg>