<svg id="Слой_1" data-name="Слой 1" xmlns="http://www.w3.org/2000/svg" viewBox="0 0 300 50">
  <defs>
    <style>
      .cls-1 {
        fill: #e8b533;
      }
    </style>
  </defs>
  <title>vov</title>
  <rect class="cls-1" width="300" height="50"/>
  <g>
    <path d="M58.15,17H74.58c1.71.1,2.55.93,2.5,2.48V23c0,1.52-.78,2.31-2.38,2.38,1.73,0,2.6.85,2.6,2.47v3.78q0,2.84-3.42,2.84H58.15ZM62.4,20.1v3.55h9.65c.6,0,.91-.29.93-.83v-1.9c0-.51-.33-.79-.93-.82Zm0,6.85v4.22h9.65c.57-.08.88-.31.93-.7V27.65c-.09-.4-.4-.63-.93-.7Z"/>
    <path d="M79.27,17H97v3.32H83.55v3.55h7.8v3.31h-7.8v3.79H97.27v3.55h-18Z"/>
    <path d="M99.85,17H120v3.55h-7.8v14H107.9V20.52H99.85Z"/>
    <path d="M122.47,17h17.75v3.32H126.75v3.55h7.8v3.31h-7.8v3.79h13.72v3.55h-18Z"/>
    <path d="M143.05,17h16.33c1.73,0,2.59.85,2.59,2.48V25.5a2.3,2.3,0,0,1-2.59,2.35H147.3v6.62h-4.25Zm4.25,3.3v4.28H157c.63,0,.95-.28.95-.83V21.13c0-.57-.32-.86-.95-.86Z"/>
    <path d="M174,17h3.9l9.9,17.47h-4.73L181,30.7h-10.5l-2,3.77H164.2Zm1.8,3.77-3.58,6.63h7.08Z"/>
    <path d="M190.37,17h4.25V23.6h12.3V17h4.25v17.5h-4.25V27.15h-12.3v7.32h-4.25Z"/>
    <path d="M218.05,17v6.75h10.27c2.84,0,4.25,1,4.25,3v5.08c-.06,1.82-1.36,2.72-3.9,2.72H213.9V17Zm0,9.93v4.5h9.42q1.2,0,1.2-1.77v-.48q0-2.25-1.2-2.25ZM239.42,17v17.5h-4.5V17Z"/>
  </g>
</svg>
