<?xml version="1.0" standalone="no"?>
<!DOCTYPE svg PUBLIC "-//W3C//DTD SVG 1.1//EN" "http://www.w3.org/Graphics/SVG/1.1/DTD/svg11.dtd" >
<svg xmlns="http://www.w3.org/2000/svg" xmlns:xlink="http://www.w3.org/1999/xlink" version="1.1">
<metadata>
Created by FontForge 20160405 at Sat Nov 24 06:41:33 2018
 By www-data
1.2, Copyright Copr. Castcraft Software, Inc. 1990-1993.
</metadata>
<defs>
<font id="CampOpti-Caps_Cyrillic-Medium" horiz-adv-x="1220" >
  <font-face 
    font-family="CampOpti-Caps_Cyrillic"
    font-weight="500"
    font-variant="small-caps"
    font-stretch="normal"
    units-per-em="1000"
    panose-1="2 0 6 7 3 0 0 2 0 4"
    ascent="800"
    descent="-200"
    x-height="766"
    cap-height="763"
    bbox="-72 -289.095 2043 1073"
    underline-thickness="59"
    underline-position="-106"
    unicode-range="U+001D-25CA"
  />
<missing-glyph horiz-adv-x="500" 
 />
    <glyph glyph-name=".notdef" horiz-adv-x="500" 
 />
    <glyph glyph-name=".null" horiz-adv-x="0" 
 />
    <glyph glyph-name=".null" horiz-adv-x="0" 
 />
    <glyph glyph-name="nonmarkingreturn" horiz-adv-x="340" 
 />
    <glyph glyph-name="space" unicode=" " horiz-adv-x="340" 
 />
    <glyph glyph-name="numbersign" unicode="#" horiz-adv-x="667" 
d="M400 474h-93l-38 -183h92zM69 291h124l38 183h-122l15 77h124l45 215h76l-45 -215h92l46 215h76l-45 -215h122l-16 -77h-122l-40 -183h123l-16 -76h-123l-45 -215h-77l46 215h-93l-46 -215h-76l46 215h-123z" />
    <glyph glyph-name="dollar" unicode="$" horiz-adv-x="1293" 
d="M541 766v82h207v-82h452v-188h-943v-92l744 2q73 0 137 -44q50 -36 77 -83t30 -97t-17 -99.5t-64 -90.5q-40 -38 -83 -56t-81 -18h-247v-67h-212v67h-446v195h949v95h-770q-42 0 -83 18.5t-76 55.5q-27 28 -42 59q-54 111 5 216q16 31 42 57q35 34 76 52t75 18h270z" />
    <glyph glyph-name="percent" unicode="%" horiz-adv-x="1302" 
d="M344 571h-88v-84h88v84zM1049 284h-87v-84h87v84zM48 526q0 47 17.5 89.5t49.5 75.5t76 53t95 22q42 2 80 -8t71 -30q53 -34 81.5 -84t31.5 -104.5t-19.5 -107t-71.5 -91.5q-15 -11 -31.5 -20t-33.5 -17q-48 -18 -98 -17t-98 22q-71 30 -110 87.5t-40 129.5zM759 244
q0 29 6 57t20 54q32 68 101 106q19 10 34 15q28 10 58 13.5t59 -1.5q42 -5 77.5 -22.5t63.5 -43.5q47 -45 65.5 -101t7.5 -117q-5 -36 -23 -68.5t-47 -61.5q-35 -33 -79 -50.5t-93 -18.5q-31 0 -58.5 7t-52.5 19q-66 32 -102 88.5t-37 124.5zM619 766h74v-766h-74v766z" />
    <glyph glyph-name="ampersand" unicode="&#x26;" horiz-adv-x="1279" 
d="M257 349v-152l662 1zM85 456l-5 9q-24 44 -23 91t30 104q15 29 34 46q58 60 139 60h889v-198h-867l672 -155v73h198v-117l75 -20v-206l-76 16l-2 -7l-4 -9q-33 -74 -80 -108.5t-104 -34.5h-654q-50 0 -93 15.5t-76 45.5t-55 73.5t-30 99.5q-4 27 -4.5 49t2.5 44t10 44.5
t18 50.5l10 27z" />
    <glyph glyph-name="quotesingle" unicode="'" horiz-adv-x="224" 
d="M99 418l-42 228q-2 15 -4 35.5t2.5 39.5t17.5 32t41 13q25 0 37.5 -12.5t17.5 -31t4 -38.5t-4 -35l-40 -231h-30z" />
    <glyph glyph-name="parenleft" unicode="(" horiz-adv-x="350" 
d="M53 568q0 49 23.5 88t80.5 74q40 23 86 32q25 6 55 4v-168h-46v-651h46v-168q-30 -2 -55 4q-23 4 -44 12t-42 20q-57 35 -80.5 74t-23.5 88v591z" />
    <glyph glyph-name="parenright" unicode=")" horiz-adv-x="350" 
d="M53 -53h46v651h-46v168q29 2 57 -4q22 -5 43 -12.5t41 -19.5q57 -35 80.5 -74t23.5 -88v-591q0 -49 -23.5 -88t-80.5 -74q-42 -25 -84 -32q-28 -6 -57 -4v168z" />
    <glyph glyph-name="asterisk" unicode="*" horiz-adv-x="585" 
d="M53 602h124l-64 97l124 68l58 -93l54 93l127 -70l-54 -95h111v-130h-109l55 -98l-120 -68l-62 90l-58 -90l-124 68l52 98h-114v130z" />
    <glyph glyph-name="plus" unicode="+" horiz-adv-x="695" 
d="M405 237v-237h-115v237h-237v115h237v237h115v-237h238v-115h-238z" />
    <glyph glyph-name="comma" unicode="," horiz-adv-x="335" 
d="M53 227h230v-294q0 -35 -14.5 -67t-41.5 -56.5t-64 -40t-82 -16.5h-14h-13v163h64v84h-65v227z" />
    <glyph glyph-name="hyphen" unicode="-" horiz-adv-x="556" 
d="M53 460h451v-192h-451v192z" />
    <glyph glyph-name="hyphen" unicode="&#xad;" horiz-adv-x="556" 
d="M53 460h451v-192h-451v192z" />
    <glyph glyph-name="period" unicode="." horiz-adv-x="335" 
d="M53 230h230v-230h-230v230z" />
    <glyph glyph-name="slash" unicode="/" horiz-adv-x="902" 
d="M597 766h253l-543 -766h-253z" />
    <glyph glyph-name="zero" unicode="0" horiz-adv-x="1180" 
d="M929 197v382h-677v-382h677zM53 548q0 54 27.5 99t88.5 81q67 38 148 38h549q62 0 104.5 -16t77.5 -51q44 -44 62 -85.5t18 -98.5v-260q0 -57 -18 -100.5t-60 -85.5q-40 -41 -85 -56q-19 -7 -38.5 -10t-45.5 -3h-563q-36 0 -63 6q-19 4 -34.5 9.5t-30 14t-29 20
t-30.5 28.5q-42 41 -60 82t-18 92v296z" />
    <glyph glyph-name="one" unicode="1" horiz-adv-x="1180" 
d="M327 711q16 15 36 27q49 29 97.5 34.5t90.5 -9.5t74 -49t47 -84q5 -14 6.5 -27.5t1.5 -28.5v-574h-199v586l-148 -148l-139 148z" />
    <glyph glyph-name="two" unicode="2" horiz-adv-x="1180" 
d="M48 766h913q26 0 47.5 -8.5t47.5 -30.5l15 -15q27 -29 42 -60q10 -21 13 -34.5t3 -20.5v-113q0 -32 -17 -73q-11 -26 -25.5 -44.5t-37.5 -35.5q-5 -4 -10.5 -8t-10.5 -7q-21 -12 -36 -17t-28 -5h-711v-104l859 -2v-188h-1059v273q1 65 31 111q35 54 75 77t89 23h682v94
h-882v188z" />
    <glyph glyph-name="three" unicode="3" horiz-adv-x="1180" 
d="M53 483h880v94h-880v189h813q63 0 113 -20t85 -55q94 -94 53 -229q-5 -18 -12 -33.5t-14 -27.5l-3 -6l-4 -7l5 -5l5 -5q7 -10 15 -25t14 -35q14 -42 10 -87.5t-27 -93.5q-25 -53 -56.5 -81.5t-80.5 -44.5q-32 -11 -83 -11h-830v195h877v90h-880v198z" />
    <glyph glyph-name="four" unicode="4" horiz-adv-x="1180" 
d="M53 766h199v-366h592v366h199v-366h84v-191h-84v-209h-199v209h-492q-38 0 -67 3.5t-52.5 10.5t-43.5 18t-39 26q-10 8 -18 16t-16 17t-14 17.5t-12 17.5q-9 15 -15.5 28t-10.5 27t-6.5 31t-3.5 40q-1 5 -1 9.5v9.5v286z" />
    <glyph glyph-name="five" unicode="5" horiz-adv-x="1180" 
d="M1083 766v-189h-827v-89h626q67 0 123 -31.5t91 -88.5q10 -16 16 -33t10 -35q15 -60 1.5 -114.5t-53 -96t-103.5 -65.5t-151 -24h-761v186h874v99h-876v481h1030z" />
    <glyph glyph-name="six" unicode="6" horiz-adv-x="1180" 
d="M931 282h-679v-95h679v95zM53 518q0 102 70 173q35 36 77 54t105 20l29 1h28h729v-190h-839v-92h645q37 0 72 -12t64.5 -33.5t52 -52.5t34.5 -68q22 -67 6 -132.5t-67 -115.5q-28 -26 -63 -43t-74 -24q-20 -3 -39 -3h-592q-31 0 -59 9q-35 9 -59.5 24t-49.5 41
q-19 20 -32.5 40t-21.5 42.5t-12 47.5t-4 56v258z" />
    <glyph glyph-name="seven" unicode="7" horiz-adv-x="1180" 
d="M53 766h865q42 0 81 -14.5t68 -41.5q50 -47 61 -108q18 -119 -91 -191l-613 -411h-347l859 578h-883v188z" />
    <glyph glyph-name="eight" unicode="8" horiz-adv-x="1180" 
d="M924 285h-663v-90h663v90zM921 579h-660v-89h660v89zM886 766q123 0 193 -90q39 -49 46 -101t-16 -119q-9 -27 -24 -54l-3 -6l-3 -7l5 -7l4 -5q8 -12 16.5 -29t13.5 -36q22 -66 0 -136q-26 -81 -93.5 -128.5t-178.5 -47.5h-505q-76 0 -130.5 22.5t-96.5 70.5
q-54 60 -59.5 128.5t39.5 143.5l5 8l4 8l-4 7l-4 8q-10 19 -17 38q-5 12 -10 26q-11 36 -14 66t3.5 57t23 53.5t43.5 54.5q34 35 82 55t107 20h573z" />
    <glyph glyph-name="nine" unicode="9" horiz-adv-x="1180" 
d="M930 577h-679v-95h679v95zM891 766q31 0 60 -9q38 -11 66.5 -30t56.5 -54q29 -35 42 -73.5t13 -95.5v-258q1 -52 -16.5 -94t-52.5 -78q-36 -36 -78 -53.5t-105 -19.5l-28 -1h-29h-730v188l840 -1v94h-645q-38 0 -72.5 11.5t-63.5 33.5t-51.5 52t-34.5 68q-23 67 -7 133
t67 116q29 27 64 44t74 24q18 3 39 3h591z" />
    <glyph glyph-name="colon" unicode=":" horiz-adv-x="335" 
d="M53 227h230v-227h-230v227zM53 540h230v-229h-230v229z" />
    <glyph glyph-name="semicolon" unicode=";" horiz-adv-x="335" 
d="M53 540h230v-229h-230v229zM53 227h230v-294q0 -35 -14.5 -67t-41.5 -56.5t-64 -40t-82 -16.5h-14h-13v163h64v84h-65v227z" />
    <glyph glyph-name="semicolon" unicode="&#x37e;" horiz-adv-x="335" 
d="M53 540h230v-229h-230v229zM53 227h230v-294q0 -35 -14.5 -67t-41.5 -56.5t-64 -40t-82 -16.5h-14h-13v163h64v84h-65v227z" />
    <glyph glyph-name="less" unicode="&#x3c;" horiz-adv-x="652" 
d="M53 331v95l547 252v-117l-398 -183l398 -183v-117z" />
    <glyph glyph-name="equal" unicode="=" horiz-adv-x="695" 
d="M53 427v114h590v-114h-590zM53 197v115h590v-115h-590z" />
    <glyph glyph-name="greater" unicode="&#x3e;" horiz-adv-x="652" 
d="M53 78v117l398 183l-398 183v117l547 -252v-95z" />
    <glyph glyph-name="question" unicode="?" horiz-adv-x="1249" 
d="M53 766h874q20 0 41 -3q42 -5 79 -21t66 -40q45 -36 65.5 -85.5t17.5 -101.5t-29.5 -100t-76.5 -81q-16 -11 -33.5 -19t-37.5 -15q-40 -13 -81 -13h-411v192h467v95h-941v192zM527 199h199v-199h-199v199z" />
    <glyph glyph-name="at" unicode="@" horiz-adv-x="1059" 
d="M435 216q-1 -29 14.5 -50.5t41.5 -21.5q23 0 42.5 15.5t35.5 40t28.5 54t21.5 58.5t14.5 53t6.5 37q2 13 -1.5 28t-11 27.5t-19 20.5t-25.5 8q-26 0 -47 -17t-37 -43.5t-28 -58.5t-20 -62t-12 -54t-4 -35zM620 178q-37 -59 -79 -80.5t-90 -21.5q-36 0 -67 12t-53 35
t-34.5 56.5t-12.5 77.5q0 64 22.5 119t60 95t86 62.5t99.5 22.5q24 0 45 -7t37.5 -18.5t27.5 -25.5t15 -29l19 62h139l-68 -237q-2 -8 -6.5 -22.5t-9 -32t-7 -35t0 -32t12 -23.5t29.5 -9q25 0 53.5 19t53 53.5t40.5 81.5t16 104q0 66 -24.5 122.5t-72.5 97t-120 63.5
t-167 23q-63 0 -132.5 -29.5t-128.5 -85t-97.5 -135t-38.5 -178.5q0 -91 28.5 -163t80.5 -121.5t123 -76t157 -26.5q85 0 165 24t167 76l29 -43q-91 -58 -188 -90t-197 -32q-81 0 -148 19t-120.5 52.5t-93 77.5t-66 94.5t-39.5 103.5t-13 104q0 52 14 108t42.5 110.5
t71.5 103.5t102.5 85.5t134.5 58.5t167 22q98 0 176 -27.5t132.5 -75.5t83.5 -113.5t29 -141.5q0 -71 -19 -132t-53 -106t-80 -71t-100 -26t-89 23t-45 78z" />
    <glyph glyph-name="A" unicode="A" horiz-adv-x="1085" 
d="M544 571l-93 -166h184zM326 581l31 62q4 5 7 10.5t6 10.5q37 57 72 82.5t73 33.5q60 10 107 -16.5t93 -99.5q4 -7 8 -13t8 -13l32 -61l319 -577h-225l-113 210h-401l-112 -210h-227z" />
    <glyph glyph-name="B" unicode="B" 
d="M962 287h-710v-96h710v96zM953 574h-701v-89h701v89zM53 766h828q55 0 95 -6.5t69.5 -21.5t50 -38.5t37.5 -56.5q54 -113 -2 -228l-4 -8t-5 -8l-3 -5l-3 -7l5 -8l9 -14q4 -7 7 -13t8 -13q28 -53 28.5 -108t-24 -102t-73.5 -81t-120 -45q-20 -3 -41 -3h-862v766z" />
    <glyph glyph-name="C" unicode="C" horiz-adv-x="1199" 
d="M48 486q0 46 6.5 83t20 66t34.5 51.5t50 41.5q13 8 26.5 14.5t28.5 10.5q19 6 35 8.5t47 3.5l30 1h15h811v-192h-905v-383h905v-191h-849q-56 0 -94 13t-74 44q-48 42 -67.5 82.5t-19.5 87.5v259z" />
    <glyph glyph-name="D" unicode="D" horiz-adv-x="1195" 
d="M948 574h-696v-383h696v383zM53 766h830h12.5t11.5 -1q54 -3 92 -19t70 -48q43 -42 61 -83t18 -89v-285q0 -48 -16 -85t-54 -76q-39 -42 -85.5 -61t-111.5 -19h-828v766z" />
    <glyph glyph-name="E" unicode="E" horiz-adv-x="1189" 
d="M48 521v10.5t1 11.5q3 45 17.5 78t44.5 64q8 8 16 15t17 15q33 26 67.5 37.5t90.5 13.5h21h813v-192h-889v-93h889v-198l-889 -2v-90h889v-191h-816q-66 0 -110 17t-81 52q-45 45 -63 85.5t-18 89.5v277z" />
    <glyph glyph-name="F" unicode="F" horiz-adv-x="1149" 
d="M53 522q0 46 11 79.5t37 67.5q20 26 42.5 44.5t51 30t65.5 17t87 5.5h771v-192h-866v-87h866v-191h-866v-296h-199v522z" />
    <glyph glyph-name="G" unicode="G" horiz-adv-x="1199" 
d="M48 556q0 14 5.5 32.5t19.5 43.5q5 6 8.5 12.5t7.5 12.5q34 47 78 72t110 34q12 2 23.5 2.5t31.5 0.5h820v-192h-905v-383h706v97h-348v192h547v-239q0 -49 -19 -91.5t-64 -84.5q-17 -17 -35 -28.5t-40 -19.5t-48.5 -12t-60.5 -5h-28h-522q-43 0 -76.5 5.5t-61 17.5
t-51 31.5t-46.5 47.5q-27 34 -39.5 69t-12.5 77v308z" />
    <glyph glyph-name="H" unicode="H" horiz-adv-x="1214" 
d="M53 766h199v-279h711v279h199v-766h-199v296h-711v-296h-199v766z" />
    <glyph glyph-name="I" unicode="I" horiz-adv-x="304" 
d="M53 766h199v-766h-199v766z" />
    <glyph glyph-name="J" unicode="J" horiz-adv-x="1181" 
d="M249 270v-79h681v575h199v-554q0 -45 -17.5 -81.5t-59.5 -74.5q-34 -29 -67.5 -42.5t-77.5 -13.5h-626q-84 0 -148 57q-18 17 -34 39.5t-30 51.5q-7 15 -12.5 31.5t-10.5 39.5q-8 34 -9.5 42.5t0.5 8.5h212z" />
    <glyph glyph-name="K" unicode="K" horiz-adv-x="1154" 
d="M53 766h199v-363q8 24 21 46t39 51q21 22 55 45l24 15l19 10l337 196h403l-669 -386l674 -380h-406l-352 198q-71 40 -104.5 84t-39.5 98v-380h-200v766z" />
    <glyph glyph-name="L" unicode="L" horiz-adv-x="1159" 
d="M53 766h199v-575h886v-191h-844q-57 0 -112 30q-64 35 -96.5 87.5t-32.5 114.5v534z" />
    <glyph glyph-name="M" unicode="M" horiz-adv-x="1278" 
d="M53 587q0 53 24 96.5t71 70.5q26 14 55.5 21t61.5 5q46 -2 81 -22t70 -64q26 -33 46 -81l175 -436l192 459q9 23 18 38.5t20 28.5q27 34 58 52t69 24q46 7 88 -6t74 -41.5t51 -71.5t19 -96v-564h-199v576l-188 -412l-11 -27l-13 -25q-29 -57 -59.5 -85.5t-65.5 -38.5
q-69 -19 -128.5 14t-111.5 133q-4 8 -8 15t-7 15l-183 402v-567h-199v587z" />
    <glyph glyph-name="N" unicode="N" horiz-adv-x="1191" 
d="M53 604q0 52 30 94.5t87 66.5q62 26 123.5 12t118.5 -71l528 -519v579h199v-566q0 -74 -26.5 -121.5t-78.5 -74.5q-60 -32 -125.5 -20t-127.5 72l-529 517v-573h-199v604z" />
    <glyph glyph-name="O" unicode="O" horiz-adv-x="1186" 
d="M940 574h-693v-383h693v383zM48 538q0 51 24.5 94t81.5 85q32 25 65.5 36t83.5 13h20h573q42 0 76 -11.5t66 -36.5q14 -10 28 -27q21 -23 35 -43t22.5 -40t12 -41.5t3.5 -45.5v-285q0 -49 -16.5 -86t-55.5 -78q-39 -38 -79 -55t-95 -17h-598q-31 0 -56.5 4.5t-47.5 14
t-42 25t-40 38.5q-32 35 -46.5 74t-14.5 92v290z" />
    <glyph glyph-name="P" unicode="P" horiz-adv-x="1229" 
d="M981 574h-729v-98h729v98zM53 766h857q20 0 40 -3q66 -9 119 -40q51 -31 80.5 -76.5t35.5 -96.5t-12 -102.5t-61 -93.5q-55 -53 -139 -67q-18 -3 -39 -3h-682v-284h-199v766z" />
    <glyph glyph-name="Q" unicode="Q" horiz-adv-x="1206" 
d="M922 574h-675v-383h675v383zM48 534q0 51 16.5 88t55.5 75q38 38 78.5 53.5t101.5 15.5h564q36 0 63 -5t50 -14q29 -13 48.5 -28.5t41.5 -40.5q32 -38 43.5 -69.5t11.5 -71.5v-346h81v-191h-908h-10.5t-10.5 1q-29 2 -51 9t-45 19l-15 7l-19 12q-41 24 -62.5 55.5
t-31.5 84.5q-1 7 -1.5 13t-0.5 14v319z" />
    <glyph glyph-name="R" unicode="R" horiz-adv-x="1197" 
d="M941 574h-689v-91h689v91zM901 766q60 0 106 -25t87 -82q62 -88 35 -191q-5 -16 -11 -30.5t-17 -31.5l-4 -7l-4 -5l7 -10l6 -8q5 -5 8 -10.5t6 -11.5q25 -49 25 -91v-263h-199v291h-694v-291h-199v766h848z" />
    <glyph glyph-name="S" unicode="S" horiz-adv-x="1285" 
d="M1185 766v-192h-925v-89h713q20 0 41 -3q42 -7 79.5 -24.5t66.5 -43.5q44 -39 63 -89.5t14.5 -102t-32 -98.5t-77.5 -79q-17 -11 -35 -19.5t-37 -13.5q-39 -12 -79 -12h-880v191h940v96h-725q-84 0 -152 45q-54 34 -81.5 82t-30 100t20 101.5t69.5 85.5q17 12 35 22.5
t40 19.5q29 11 60.5 17t65.5 6h846z" />
    <glyph glyph-name="T" unicode="T" horiz-adv-x="1097" 
d="M5 766h1088v-192h-444v-574h-199v574h-445v192z" />
    <glyph glyph-name="U" unicode="U" 
d="M53 766h199v-575h717v575h199v-543q0 -38 -10.5 -65.5t-39.5 -61.5q-5 -6 -10 -11.5t-10 -10.5q-38 -36 -79.5 -55t-83.5 -19h-640q-27 0 -50 5t-44.5 16t-42.5 30t-44 46q-35 40 -48 73t-13 77v519z" />
    <glyph glyph-name="V" unicode="V" horiz-adv-x="1081" 
d="M231 766l307 -582l314 582h226l-337 -625q-16 -28 -24.5 -42.5t-18.5 -26.5q-32 -39 -61.5 -58t-67.5 -26q-36 -6 -67.5 -0.5t-61.5 26.5t-59 59t-60 96l-316 597h226z" />
    <glyph glyph-name="W" unicode="W" horiz-adv-x="1085" 
d="M206 766l70 -529l61 366q5 32 17.5 58t31.5 49q29 32 69.5 50t88.5 17q48 1 87.5 -17t68.5 -50q40 -44 50 -107l61 -366l70 529h200l-75 -567q-8 -58 -29 -100.5t-51 -68.5t-67.5 -36.5t-77.5 -3.5q-47 8 -81 36t-57 81q-8 17 -14.5 37.5t-13.5 55.5l-74 365l-70 -365
q-6 -33 -12 -54.5t-14 -38.5q-25 -53 -59 -81t-81 -36q-40 -7 -77 3.5t-67.5 36.5t-52 68.5t-28.5 100.5l-75 567h201z" />
    <glyph glyph-name="X" unicode="X" horiz-adv-x="1098" 
d="M266 766l220 -256l29 -34l4 -6q8 -11 15 -21.5t15 -21.5q8 14 15 24.5t15 18.5l4 7l29 33l220 256h262l-349 -380l334 -386h-259l-203 243q-15 18 -25.5 31t-18 24.5t-13 23t-11.5 25.5q-6 -14 -11.5 -25t-13 -22.5t-18 -24.5t-26.5 -32l-203 -243h-258l333 386l-348 380
h262z" />
    <glyph glyph-name="Y" unicode="Y" horiz-adv-x="1074" 
d="M255 766l284 -349l288 349h243l-424 -538v-228h-199v228l-442 538h250z" />
    <glyph glyph-name="Z" unicode="Z" horiz-adv-x="1307" 
d="M1032 574h-952v192h972q53 0 97 -22q46 -23 74.5 -62.5t35.5 -86.5q6 -39 -3 -75t-30 -65.5t-54 -51t-76 -31.5l-786 -181h913v-191h-934q-65 0 -114.5 23t-80.5 60t-41.5 84.5t3.5 95.5q16 52 53.5 86.5t92.5 46.5z" />
    <glyph glyph-name="bracketleft" unicode="[" horiz-adv-x="348" 
d="M184 -111h112v-54h-243v931h243v-50h-112v-827z" />
    <glyph glyph-name="backslash" unicode="\" horiz-adv-x="900" 
d="M595 766h253l-543 -766h-253z" />
    <glyph glyph-name="bracketright" unicode="]" horiz-adv-x="348" 
d="M53 -165v54h112v827h-112v50h243v-931h-243z" />
    <glyph glyph-name="asciicircum" unicode="^" horiz-adv-x="518" 
d="M260 1059l206 -135l-47 -95l-159 69l-162 -68l-46 94z" />
    <glyph glyph-name="underscore" unicode="_" horiz-adv-x="585" 
d="M594 -149h-608v80h608v-80z" />
    <glyph glyph-name="grave" unicode="`" horiz-adv-x="354" 
d="M204 1073l97 -187l-116 -56l-132 171z" />
    <glyph glyph-name="a" unicode="a" horiz-adv-x="1219" 
d="M968 288h-715v-97h715v97zM968 481v93h-881v192h851q80 0 145 -56q32 -28 53.5 -69.5t28.5 -92.5q1 -8 1.5 -16t0.5 -16v-516h-862q-64 0 -116 26q-39 19 -68 47t-47 61t-24 70.5t0 76.5q6 37 24 70t45 59t61.5 44t74.5 24q19 3 39 3h674z" />
    <glyph glyph-name="b" unicode="b" 
d="M962 287h-710v-96h710v96zM953 574h-701v-89h701v89zM53 766h828q55 0 95 -6.5t69.5 -21.5t50 -38.5t37.5 -56.5q54 -113 -2 -228l-4 -8t-5 -8l-3 -5l-3 -7l5 -8l9 -14q4 -7 7 -13t8 -13q28 -53 28.5 -108t-24 -102t-73.5 -81t-120 -45q-20 -3 -41 -3h-862v766z" />
    <glyph glyph-name="c" unicode="c" horiz-adv-x="1199" 
d="M48 486q0 46 6.5 83t20 66t34.5 51.5t50 41.5q13 8 26.5 14.5t28.5 10.5q19 6 35 8.5t47 3.5l30 1h15h811v-192h-905v-383h905v-191h-849q-56 0 -94 13t-74 44q-48 42 -67.5 82.5t-19.5 87.5v259z" />
    <glyph glyph-name="d" unicode="d" horiz-adv-x="1195" 
d="M948 574h-696v-383h696v383zM53 766h830h12.5t11.5 -1q54 -3 92 -19t70 -48q43 -42 61 -83t18 -89v-285q0 -48 -16 -85t-54 -76q-39 -42 -85.5 -61t-111.5 -19h-828v766z" />
    <glyph glyph-name="e" unicode="e" horiz-adv-x="1167" 
d="M921 574h-674v-91h674v91zM48 526q0 67 30 114q26 44 54 68t70 39q20 8 44.5 12t66.5 6q6 1 12.5 1h12.5h530q62 0 106 -19t86 -67q32 -36 46 -75t14 -96v-222h-873v-96h873v-191h-830q-56 0 -103.5 22.5t-85.5 70.5q-27 33 -40 67t-13 58v308z" />
    <glyph glyph-name="f" unicode="f" horiz-adv-x="1149" 
d="M53 522q0 46 11 79.5t37 67.5q20 26 42.5 44.5t51 30t65.5 17t87 5.5h771v-192h-866v-87h866v-191h-866v-296h-199v522z" />
    <glyph glyph-name="g" unicode="g" horiz-adv-x="1199" 
d="M48 556q0 14 5.5 32.5t19.5 43.5q5 6 8.5 12.5t7.5 12.5q34 47 78 72t110 34q12 2 23.5 2.5t31.5 0.5h820v-192h-905v-383h706v97h-348v192h547v-239q0 -49 -19 -91.5t-64 -84.5q-17 -17 -35 -28.5t-40 -19.5t-48.5 -12t-60.5 -5h-28h-522q-43 0 -76.5 5.5t-61 17.5
t-51 31.5t-46.5 47.5q-27 34 -39.5 69t-12.5 77v308z" />
    <glyph glyph-name="h" unicode="h" horiz-adv-x="1214" 
d="M53 766h199v-279h711v279h199v-766h-199v296h-711v-296h-199v766z" />
    <glyph glyph-name="i" unicode="i" horiz-adv-x="304" 
d="M53 766h199v-766h-199v766z" />
    <glyph glyph-name="j" unicode="j" horiz-adv-x="1181" 
d="M249 270v-79h681v575h199v-554q0 -45 -17.5 -81.5t-59.5 -74.5q-34 -29 -67.5 -42.5t-77.5 -13.5h-626q-84 0 -148 57q-18 17 -34 39.5t-30 51.5q-7 15 -12.5 31.5t-10.5 39.5q-8 34 -9.5 42.5t0.5 8.5h212z" />
    <glyph glyph-name="k" unicode="k" horiz-adv-x="1154" 
d="M53 766h199v-363q8 24 21 46t39 51q21 22 55 45l24 15l19 10l337 196h403l-669 -386l674 -380h-406l-352 198q-71 40 -104.5 84t-39.5 98v-380h-200v766z" />
    <glyph glyph-name="l" unicode="l" horiz-adv-x="859" 
d="M53 766h199v-575h586v-191h-522q-51 0 -89.5 14t-72.5 45q-31 26 -45 42.5t-26 37.5q-16 28 -23 54t-7 62v511z" />
    <glyph glyph-name="m" unicode="m" horiz-adv-x="1174" 
d="M53 579q0 23 4 41.5t11 35.5q17 40 44 64.5t69 41.5q22 8 43.5 11t44.5 1q62 -5 111 -43q26 -20 42.5 -45.5t27.5 -56.5l136 -429l136 422q16 49 46 83q33 38 74.5 57t86.5 17q92 -3 149 -75q35 -44 42 -105q1 -8 1.5 -14.5t0.5 -14.5v-570h-200v547l-127 -380
q-34 -101 -84 -144.5t-120 -42.5q-45 1 -85 22.5t-75 67.5q-13 18 -24 39t-21 50l-134 385v-544h-199v579z" />
    <glyph glyph-name="n" unicode="n" horiz-adv-x="1191" 
d="M53 604q0 52 30 94.5t87 66.5q62 26 123.5 12t118.5 -71l528 -519v579h199v-566q0 -74 -26.5 -121.5t-78.5 -74.5q-60 -32 -125.5 -20t-127.5 72l-529 517v-573h-199v604z" />
    <glyph glyph-name="o" unicode="o" horiz-adv-x="1186" 
d="M940 574h-693v-383h693v383zM48 538q0 51 24.5 94t81.5 85q32 25 65.5 36t83.5 13h20h573q42 0 76 -11.5t66 -36.5q14 -10 28 -27q21 -23 35 -43t22.5 -40t12 -41.5t3.5 -45.5v-285q0 -49 -16.5 -86t-55.5 -78q-39 -38 -79 -55t-95 -17h-598q-31 0 -56.5 4.5t-47.5 14
t-42 25t-40 38.5q-32 35 -46.5 74t-14.5 92v290z" />
    <glyph glyph-name="p" unicode="p" horiz-adv-x="1174" 
d="M935 574h-683v-163h683v163zM53 766h830q41 0 82 -15q45 -17 80 -52t58 -88q25 -59 25 -121q-1 -60 -20.5 -110t-52.5 -86t-76 -55.5t-90 -19.5h-637v-219h-199v766z" />
    <glyph glyph-name="q" unicode="q" horiz-adv-x="1174" 
d="M922 574h-675v-383h675v383zM48 534q0 51 16.5 88t55.5 75q38 38 78.5 53.5t101.5 15.5h564q36 0 63 -5t50 -14q29 -13 48.5 -28.5t41.5 -40.5q32 -38 43.5 -69.5t11.5 -71.5v-346h81v-191h-908h-10.5t-10.5 1q-29 2 -51 9t-45 19l-15 7l-19 12q-41 24 -62.5 55.5
t-31.5 84.5q-1 7 -1.5 13t-0.5 14v319z" />
    <glyph glyph-name="r" unicode="r" horiz-adv-x="1206" 
d="M953 574h-701v-170h701v170zM53 766h853q28 2 57.5 -3.5t58.5 -21.5q39 -20 70.5 -61t48.5 -103q8 -27 11 -50.5t1.5 -46.5t-8 -47t-16.5 -53q-6 -15 -12 -29t-12 -25l-3 -6l-4 -6l5 -10l8 -15q3 -5 6 -11.5t5 -11.5q17 -36 22 -56.5t5 -39.5v-170h-199v213h-698v-213
h-199v766z" />
    <glyph glyph-name="s" unicode="s" horiz-adv-x="1285" 
d="M1185 766v-192h-925v-89h713q20 0 41 -3q42 -7 79.5 -24.5t66.5 -43.5q44 -39 63 -89.5t14.5 -102t-32 -98.5t-77.5 -79q-17 -11 -35 -19.5t-37 -13.5q-39 -12 -79 -12h-880v191h940v96h-725q-84 0 -152 45q-54 34 -81.5 82t-30 100t20 101.5t69.5 85.5q17 12 35 22.5
t40 19.5q29 11 60.5 17t65.5 6h846z" />
    <glyph glyph-name="t" unicode="t" horiz-adv-x="1097" 
d="M5 766h1088v-192h-444v-574h-199v574h-445v192z" />
    <glyph glyph-name="u" unicode="u" 
d="M53 766h199v-575h717v575h199v-543q0 -38 -10.5 -65.5t-39.5 -61.5q-5 -6 -10 -11.5t-10 -10.5q-38 -36 -79.5 -55t-83.5 -19h-640q-27 0 -50 5t-44.5 16t-42.5 30t-44 46q-35 40 -48 73t-13 77v519z" />
    <glyph glyph-name="v" unicode="v" horiz-adv-x="1081" 
d="M231 766l307 -582l314 582h226l-337 -625q-16 -28 -24.5 -42.5t-18.5 -26.5q-32 -39 -61.5 -58t-67.5 -26q-36 -6 -67.5 -0.5t-61.5 26.5t-59 59t-60 96l-316 597h226z" />
    <glyph glyph-name="w" unicode="w" horiz-adv-x="1269" 
d="M212 766l104 -581l131 438q6 23 15.5 42t20.5 34q35 48 84.5 67t108.5 8q54 -8 93.5 -44.5t57.5 -96.5l130 -436l111 569h197l-116 -613q-10 -50 -32 -85t-54 -57q-34 -24 -77 -32q-70 -11 -129 23.5t-88 107.5q-2 6 -4.5 12.5t-4.5 13.5l-119 424l-128 -421
q-2 -7 -4.5 -13.5t-5.5 -13.5q-26 -61 -68 -94t-99 -38q-14 -1 -28 -0.5t-28 3.5q-63 13 -104 57t-55 116l-116 610h207z" />
    <glyph glyph-name="x" unicode="x" horiz-adv-x="1098" 
d="M266 766l220 -256l29 -34l4 -6q8 -11 15 -21.5t15 -21.5q8 14 15 24.5t15 18.5l4 7l29 33l220 256h262l-349 -380l334 -386h-259l-203 243q-15 18 -25.5 31t-18 24.5t-13 23t-11.5 25.5q-6 -14 -11.5 -25t-13 -22.5t-18 -24.5t-26.5 -32l-203 -243h-258l333 386l-348 380
h262z" />
    <glyph glyph-name="y" unicode="y" 
d="M53 191h915v102h-680q-51 0 -90.5 17.5t-77.5 59.5q-37 39 -52 75t-15 81v240h199v-282h716v282h200v-536q0 -50 -20.5 -91t-71.5 -83q-27 -22 -51.5 -33.5t-57.5 -18.5q-23 -4 -64 -4h-850v191z" />
    <glyph glyph-name="z" unicode="z" horiz-adv-x="1307" 
d="M1032 574h-952v192h972q53 0 97 -22q46 -23 74.5 -62.5t35.5 -86.5q6 -39 -3 -75t-30 -65.5t-54 -51t-76 -31.5l-786 -181h913v-191h-934q-65 0 -114.5 23t-80.5 60t-41.5 84.5t3.5 95.5q16 52 53.5 86.5t92.5 46.5z" />
    <glyph glyph-name="braceleft" unicode="{" horiz-adv-x="566" 
d="M514 714q-31 -3 -61 -12.5t-53.5 -27.5t-38 -45t-14.5 -66v-128q0 -53 -19.5 -86t-51.5 -53.5t-73.5 -31.5t-85.5 -19q110 -13 169.5 -56t59.5 -128v-122q0 -32 6.5 -58.5t24.5 -47.5t51 -36t86 -23v-48q-149 0 -215.5 55t-66.5 158v133q0 34 -11.5 58t-34.5 40.5
t-56.5 27t-76.5 17.5v59q51 9 85.5 22t55.5 32.5t29.5 46.5t8.5 64v125q0 42 16 79t50 64t87.5 43t128.5 16v-52z" />
    <glyph glyph-name="bar" unicode="|" horiz-adv-x="185" 
d="M53 -149v915h80v-915h-80z" />
    <glyph glyph-name="braceright" unicode="}" horiz-adv-x="566" 
d="M514 215q-44 -7 -77 -17.5t-56 -27t-34.5 -40.5t-11.5 -58v-133q0 -103 -66.5 -158t-215.5 -55v48q53 8 86 23t51 36t24.5 47.5t6.5 58.5v122q0 85 59.5 128t169.5 56q-44 8 -85.5 19t-73.5 31.5t-51.5 53.5t-19.5 86v128q0 39 -14.5 66t-38 45t-53.5 27.5t-61 12.5v52
q75 0 128.5 -16t87.5 -43t50 -64t16 -79v-125q0 -37 8.5 -64t29.5 -46.5t55.5 -32.5t85.5 -22v-59z" />
    <glyph glyph-name="asciitilde" unicode="~" horiz-adv-x="480" 
d="M53 949q5 2 9.5 3.5t9.5 3.5q32 11 59.5 12t67.5 -6l6 -1l44 -9q5 -2 9.5 -2.5t9.5 -1.5q54 -9 90.5 -4.5t69.5 20.5v-119q-5 -2 -8 -3t-7 -2q-35 -9 -63 -10.5t-61 3.5l-24 5l-22 5l-24 4l-29 4q-29 5 -51.5 4t-43.5 -7q-24 -8 -42 -19v120z" />
    <glyph glyph-name="Adieresis" unicode="&#xc4;" horiz-adv-x="1085" 
d="M563 926q0 38 27 67q28 29 67 29t67 -28q29 -29 29.5 -68.5t-27.5 -68.5q-29 -28 -68 -28t-68 28q-27 28 -27 69zM303 926q0 19 7.5 36.5t21.5 31.5t31.5 21t36 7t35.5 -7.5t31 -21.5q28 -29 28 -68t-28 -68q-28 -28 -67.5 -28t-67.5 28q-28 30 -28 69zM544 571l-93 -166
h184zM326 581l31 62q4 5 7 10.5t6 10.5q37 57 72 82.5t73 33.5q60 10 107 -16.5t93 -99.5q4 -7 8 -13t8 -13l32 -61l319 -577h-225l-113 210h-401l-112 -210h-227z" />
    <glyph glyph-name="Aring" unicode="&#xc5;" horiz-adv-x="1085" 
d="M503 901q12 -13 29.5 -13t29.5 12q12 13 12 30t-12 29q-12 13 -29 13t-29 -12q-13 -13 -13 -30q0 -15 12 -29zM415 930q0 19 8.5 37.5t24 32t37 22t48.5 8.5q49 0 86 -32q16 -13 23.5 -31t7.5 -37t-7.5 -37t-23.5 -31q-37 -32 -86 -32q-27 0 -48.5 8.5t-37 22.5t-24 32
t-8.5 37zM544 571l-93 -166h184zM326 581l31 62q4 5 7 10.5t6 10.5q37 57 72 82.5t73 33.5q60 10 107 -16.5t93 -99.5q4 -7 8 -13t8 -13l32 -61l319 -577h-225l-113 210h-401l-112 -210h-227z" />
    <glyph glyph-name="Ccedilla" unicode="&#xc7;" horiz-adv-x="1199" 
d="M303 0q-56 0 -94 13t-74 44q-48 42 -67.5 82.5t-19.5 87.5v259q0 46 6.5 83t20 66t34.5 51.5t50 41.5q13 8 26.5 14.5t28.5 10.5q19 6 35 8.5t47 3.5l30 1h15h811v-192h-905v-383h905v-191h-485l-28 -46q13 2 24.5 3.5t22.5 1.5q46 0 79 -27t33 -76q0 -22 -10 -42.5
t-29 -36t-46.5 -24.5t-61.5 -9q-41 -1 -84.5 8.5t-77.5 24.5l24 54q21 -8 50 -16t55 -8q60 0 62 43q2 24 -12.5 36.5t-37.5 12.5q-13 0 -25.5 -2.5t-26.5 -5.5l-30 23l53 86h-298z" />
    <glyph glyph-name="Eacute" unicode="&#xc9;" horiz-adv-x="1189" 
d="M597 1071l150 -72l-133 -171l-114 54zM48 521v10.5t1 11.5q3 45 17.5 78t44.5 64q8 8 16 15t17 15q33 26 67.5 37.5t90.5 13.5h21h813v-192h-889v-93h889v-198l-889 -2v-90h889v-191h-816q-66 0 -110 17t-81 52q-45 45 -63 85.5t-18 89.5v277z" />
    <glyph glyph-name="Ntilde" unicode="&#xd1;" horiz-adv-x="1191" 
d="M404 950q5 2 9.5 3.5t9.5 3.5q32 11 59.5 12t67.5 -6l6 -1l44 -9q5 -2 9.5 -2.5t9.5 -1.5q54 -9 90.5 -4.5t69.5 20.5v-119q-5 -2 -8 -2.5t-7 -2.5q-35 -9 -63 -10.5t-61 3.5l-24 5l-22 5l-24 4l-29 4q-29 5 -51.5 4t-43.5 -7q-24 -8 -42 -19v120zM53 604q0 52 30 94.5
t87 66.5q62 26 123.5 12t118.5 -71l528 -519v579h199v-566q0 -74 -26.5 -121.5t-78.5 -74.5q-60 -32 -125.5 -20t-127.5 72l-529 517v-573h-199v604z" />
    <glyph glyph-name="Odieresis" unicode="&#xd6;" horiz-adv-x="1186" 
d="M616 926q0 37 28 67q13 14 30.5 21.5t35.5 7.5t36 -7t32 -21q29 -29 29 -68.5t-28 -68.5q-29 -28 -68 -28t-67 28q-28 30 -28 69zM356 926q0 19 7.5 36.5t21.5 31.5t31.5 21t36 7t35.5 -7.5t31 -21.5q28 -29 28 -68t-28 -68q-28 -28 -67.5 -28t-67.5 28q-28 30 -28 69z
M940 574h-693v-383h693v383zM48 538q0 51 24.5 94t81.5 85q32 25 65.5 36t83.5 13h20h573q42 0 76 -11.5t66 -36.5q14 -10 28 -27q21 -23 35 -43t22.5 -40t12 -41.5t3.5 -45.5v-285q0 -49 -16.5 -86t-55.5 -78q-39 -38 -79 -55t-95 -17h-598q-31 0 -56.5 4.5t-47.5 14
t-42 25t-40 38.5q-32 35 -46.5 74t-14.5 92v290z" />
    <glyph glyph-name="Udieresis" unicode="&#xdc;" 
d="M648 926q0 39 28 67q13 14 30.5 21.5t35.5 7.5t36 -7t32 -21q29 -29 29 -68.5t-28 -68.5q-29 -28 -68 -28t-67 28t-28 69zM388 926q0 19 7.5 36.5t21.5 31.5t31.5 21t36 7t35.5 -7.5t31 -21.5q28 -29 28 -68t-28 -68q-28 -28 -67.5 -28t-67.5 28q-28 30 -28 69zM53 766
h199v-575h717v575h199v-543q0 -38 -10.5 -65.5t-39.5 -61.5q-5 -6 -10 -11.5t-10 -10.5q-38 -36 -79.5 -55t-83.5 -19h-640q-27 0 -50 5t-44.5 16t-42.5 30t-44 46q-35 40 -48 73t-13 77v519z" />
    <glyph glyph-name="aacute" unicode="&#xe1;" horiz-adv-x="1219" 
d="M586 1071l150 -72l-133 -171l-114 54zM968 288h-715v-97h715v97zM968 481v93h-881v192h851q80 0 145 -56q32 -28 53.5 -69.5t28.5 -92.5q1 -8 1.5 -16t0.5 -16v-516h-862q-64 0 -116 26q-39 19 -68 47t-47 61t-24 70.5t0 76.5q6 37 24 70t45 59t61.5 44t74.5 24
q19 3 39 3h674z" />
    <glyph glyph-name="agrave" unicode="&#xe0;" horiz-adv-x="1219" 
d="M598 1073l97 -187l-116 -56l-132 171zM968 288h-715v-97h715v97zM968 481v93h-881v192h851q80 0 145 -56q32 -28 53.5 -69.5t28.5 -92.5q1 -8 1.5 -16t0.5 -16v-516h-862q-64 0 -116 26q-39 19 -68 47t-47 61t-24 70.5t0 76.5q6 37 24 70t45 59t61.5 44t74.5 24
q19 3 39 3h674z" />
    <glyph glyph-name="acircumflex" unicode="&#xe2;" horiz-adv-x="1219" 
d="M557 1059l207 -135l-47 -95l-160 69l-161 -68l-46 94zM968 288h-715v-97h715v97zM968 481v93h-881v192h851q80 0 145 -56q32 -28 53.5 -69.5t28.5 -92.5q1 -8 1.5 -16t0.5 -16v-516h-862q-64 0 -116 26q-39 19 -68 47t-47 61t-24 70.5t0 76.5q6 37 24 70t45 59t61.5 44
t74.5 24q19 3 39 3h674z" />
    <glyph glyph-name="adieresis" unicode="&#xe4;" horiz-adv-x="1219" 
d="M605 926q0 37 28 67q13 14 30.5 21.5t36 7.5t36 -7t31.5 -21q29 -29 29 -68.5t-28 -68.5q-28 -28 -67.5 -28t-67.5 28q-28 30 -28 69zM346 926q0 40 28 68q14 14 32 21t36 7t35.5 -7.5t31.5 -21.5q28 -29 28 -68t-28 -68q-29 -28 -68 -28t-68 28q-27 28 -27 69zM968 288
h-715v-97h715v97zM968 481v93h-881v192h851q80 0 145 -56q32 -28 53.5 -69.5t28.5 -92.5q1 -8 1.5 -16t0.5 -16v-516h-862q-64 0 -116 26q-39 19 -68 47t-47 61t-24 70.5t0 76.5q6 37 24 70t45 59t61.5 44t74.5 24q19 3 39 3h674z" />
    <glyph glyph-name="atilde" unicode="&#xe3;" horiz-adv-x="1219" 
d="M383 950q5 2 9.5 3.5t9.5 3.5q32 11 59.5 12t67.5 -6l6 -1l44 -9q7 -2 19 -4q54 -9 90.5 -4.5t68.5 20.5v-119q-4 -2 -7 -2.5t-7 -2.5q-35 -9 -63 -10.5t-61 3.5l-24 5l-23 5l-23 4l-29 4q-29 5 -51.5 4t-44.5 -7q-11 -4 -21 -8.5t-20 -10.5v120zM968 288h-715v-97h715
v97zM968 481v93h-881v192h851q80 0 145 -56q32 -28 53.5 -69.5t28.5 -92.5q1 -8 1.5 -16t0.5 -16v-516h-862q-64 0 -116 26q-39 19 -68 47t-47 61t-24 70.5t0 76.5q6 37 24 70t45 59t61.5 44t74.5 24q19 3 39 3h674z" />
    <glyph glyph-name="aring" unicode="&#xe5;" horiz-adv-x="1219" 
d="M546 901q12 -13 29 -13t29 12q12 13 12 30t-12 29q-12 13 -28.5 13t-28.5 -12q-13 -12 -13 -30q0 -17 12 -29zM457 930q0 19 8.5 37.5t24 32t37.5 22t49 8.5q48 0 86 -32q15 -13 23 -31t8 -37t-8 -37t-23 -31q-19 -16 -41 -24t-45 -8q-27 0 -49 8.5t-37.5 22.5t-24 32
t-8.5 37zM968 288h-715v-97h715v97zM968 481v93h-881v192h851q80 0 145 -56q32 -28 53.5 -69.5t28.5 -92.5q1 -8 1.5 -16t0.5 -16v-516h-862q-64 0 -116 26q-39 19 -68 47t-47 61t-24 70.5t0 76.5q6 37 24 70t45 59t61.5 44t74.5 24q19 3 39 3h674z" />
    <glyph glyph-name="ccedilla" unicode="&#xe7;" horiz-adv-x="1199" 
d="M303 0q-56 0 -94 13t-74 44q-48 42 -67.5 82.5t-19.5 87.5v259q0 46 6.5 83t20 66t34.5 51.5t50 41.5q13 8 26.5 14.5t28.5 10.5q19 6 35 8.5t47 3.5l30 1h15h811v-192h-905v-383h905v-191h-485l-28 -46q13 2 24.5 3.5t22.5 1.5q46 0 79 -27t33 -76q0 -22 -10 -42.5
t-29 -36t-46.5 -24.5t-61.5 -9q-41 -1 -84.5 8.5t-77.5 24.5l24 54q21 -8 50 -16t55 -8q60 0 62 43q2 24 -12.5 36.5t-37.5 12.5q-13 0 -25.5 -2.5t-26.5 -5.5l-30 23l53 86h-298z" />
    <glyph glyph-name="eacute" unicode="&#xe9;" horiz-adv-x="1167" 
d="M576 1071l150 -72l-133 -171l-114 54zM921 574h-674v-91h674v91zM48 526q0 67 30 114q26 44 54 68t70 39q20 8 44.5 12t66.5 6q6 1 12.5 1h12.5h530q62 0 106 -19t86 -67q32 -36 46 -75t14 -96v-222h-873v-96h873v-191h-830q-56 0 -103.5 22.5t-85.5 70.5q-27 33 -40 67
t-13 58v308z" />
    <glyph glyph-name="egrave" unicode="&#xe8;" horiz-adv-x="1167" 
d="M598 1073l97 -187l-116 -56l-132 171zM921 574h-674v-91h674v91zM48 526q0 67 30 114q26 44 54 68t70 39q20 8 44.5 12t66.5 6q6 1 12.5 1h12.5h530q62 0 106 -19t86 -67q32 -36 46 -75t14 -96v-222h-873v-96h873v-191h-830q-56 0 -103.5 22.5t-85.5 70.5q-27 33 -40 67
t-13 58v308z" />
    <glyph glyph-name="ecircumflex" unicode="&#xea;" horiz-adv-x="1167" 
d="M568 1059l206 -135l-46 -95l-160 69l-162 -68l-45 94zM921 574h-674v-91h674v91zM48 526q0 67 30 114q26 44 54 68t70 39q20 8 44.5 12t66.5 6q6 1 12.5 1h12.5h530q62 0 106 -19t86 -67q32 -36 46 -75t14 -96v-222h-873v-96h873v-191h-830q-56 0 -103.5 22.5t-85.5 70.5
q-27 33 -40 67t-13 58v308z" />
    <glyph glyph-name="edieresis" unicode="&#xeb;" horiz-adv-x="1167" 
d="M595 926q0 38 27 67q28 29 67 29t67 -28q29 -29 29.5 -68.5t-28.5 -68.5q-28 -28 -67 -28t-68 28q-27 28 -27 69zM335 926q0 19 7.5 36.5t21.5 31.5t31.5 21t36 7t35.5 -7.5t31 -21.5q28 -29 28 -68t-28 -68q-28 -28 -67.5 -28t-67.5 28q-28 30 -28 69zM921 574h-674v-91
h674v91zM48 526q0 67 30 114q26 44 54 68t70 39q20 8 44.5 12t66.5 6q6 1 12.5 1h12.5h530q62 0 106 -19t86 -67q32 -36 46 -75t14 -96v-222h-873v-96h873v-191h-830q-56 0 -103.5 22.5t-85.5 70.5q-27 33 -40 67t-13 58v308z" />
    <glyph glyph-name="iacute" unicode="&#xed;" horiz-adv-x="304" 
d="M150 1071l150 -72l-133 -171l-114 54zM53 766h199v-766h-199v766z" />
    <glyph glyph-name="igrave" unicode="&#xec;" horiz-adv-x="304" 
d="M172 1073l97 -187l-116 -56l-132 171zM53 766h199v-766h-199v766z" />
    <glyph glyph-name="icircumflex" unicode="&#xee;" horiz-adv-x="304" 
d="M164 1059l206 -135l-47 -95l-159 69l-162 -68l-46 94zM53 766h199v-766h-199v766z" />
    <glyph glyph-name="idieresis" unicode="&#xef;" horiz-adv-x="304" 
d="M200 926q0 37 28 67q13 14 30.5 21.5t35.5 7.5t36 -7t32 -21q29 -29 29 -68.5t-28 -68.5q-28 -28 -67.5 -28t-67.5 28q-28 30 -28 69zM-60 926q0 19 7.5 36.5t21.5 31.5t31.5 21t36 7t35.5 -7.5t31 -21.5q28 -29 28 -68t-28 -68q-28 -28 -67.5 -28t-67.5 28
q-28 30 -28 69zM53 766h199v-766h-199v766z" />
    <glyph glyph-name="ntilde" unicode="&#xf1;" horiz-adv-x="1191" 
d="M404 950q5 2 9.5 3.5t9.5 3.5q32 11 59.5 12t67.5 -6l6 -1l44 -9q5 -2 9.5 -2.5t9.5 -1.5q54 -9 90.5 -4.5t69.5 20.5v-119q-5 -2 -8 -2.5t-7 -2.5q-35 -9 -63 -10.5t-61 3.5l-24 5l-22 5l-24 4l-29 4q-29 5 -51.5 4t-43.5 -7q-24 -8 -42 -19v120zM53 604q0 52 30 94.5
t87 66.5q62 26 123.5 12t118.5 -71l528 -519v579h199v-566q0 -74 -26.5 -121.5t-78.5 -74.5q-60 -32 -125.5 -20t-127.5 72l-529 517v-573h-199v604z" />
    <glyph glyph-name="oacute" unicode="&#xf3;" horiz-adv-x="1186" 
d="M565 1071l150 -72l-133 -171l-114 54zM940 574h-693v-383h693v383zM48 538q0 51 24.5 94t81.5 85q32 25 65.5 36t83.5 13h20h573q42 0 76 -11.5t66 -36.5q14 -10 28 -27q21 -23 35 -43t22.5 -40t12 -41.5t3.5 -45.5v-285q0 -49 -16.5 -86t-55.5 -78q-39 -38 -79 -55
t-95 -17h-598q-31 0 -56.5 4.5t-47.5 14t-42 25t-40 38.5q-32 35 -46.5 74t-14.5 92v290z" />
    <glyph glyph-name="ograve" unicode="&#xf2;" horiz-adv-x="1186" 
d="M587 1073l97 -187l-116 -56l-132 171zM940 574h-693v-383h693v383zM48 538q0 51 24.5 94t81.5 85q32 25 65.5 36t83.5 13h20h573q42 0 76 -11.5t66 -36.5q14 -10 28 -27q21 -23 35 -43t22.5 -40t12 -41.5t3.5 -45.5v-285q0 -49 -16.5 -86t-55.5 -78q-39 -38 -79 -55
t-95 -17h-598q-31 0 -56.5 4.5t-47.5 14t-42 25t-40 38.5q-32 35 -46.5 74t-14.5 92v290z" />
    <glyph glyph-name="ocircumflex" unicode="&#xf4;" horiz-adv-x="1186" 
d="M589 1059l207 -135l-47 -95l-160 69l-161 -68l-46 94zM940 574h-693v-383h693v383zM48 538q0 51 24.5 94t81.5 85q32 25 65.5 36t83.5 13h20h573q42 0 76 -11.5t66 -36.5q14 -10 28 -27q21 -23 35 -43t22.5 -40t12 -41.5t3.5 -45.5v-285q0 -49 -16.5 -86t-55.5 -78
q-39 -38 -79 -55t-95 -17h-598q-31 0 -56.5 4.5t-47.5 14t-42 25t-40 38.5q-32 35 -46.5 74t-14.5 92v290z" />
    <glyph glyph-name="odieresis" unicode="&#xf6;" horiz-adv-x="1186" 
d="M616 926q0 37 28 67q13 14 30.5 21.5t35.5 7.5t36 -7t32 -21q29 -29 29 -68.5t-28 -68.5q-29 -28 -68 -28t-67 28q-28 30 -28 69zM356 926q0 19 7.5 36.5t21.5 31.5t31.5 21t36 7t35.5 -7.5t31 -21.5q28 -29 28 -68t-28 -68q-28 -28 -67.5 -28t-67.5 28q-28 30 -28 69z
M940 574h-693v-383h693v383zM48 538q0 51 24.5 94t81.5 85q32 25 65.5 36t83.5 13h20h573q42 0 76 -11.5t66 -36.5q14 -10 28 -27q21 -23 35 -43t22.5 -40t12 -41.5t3.5 -45.5v-285q0 -49 -16.5 -86t-55.5 -78q-39 -38 -79 -55t-95 -17h-598q-31 0 -56.5 4.5t-47.5 14
t-42 25t-40 38.5q-32 35 -46.5 74t-14.5 92v290z" />
    <glyph glyph-name="otilde" unicode="&#xf5;" horiz-adv-x="1186" 
d="M404 950q5 2 9.5 3.5t9.5 3.5q32 11 59.5 12t67.5 -6l6 -1l44 -9q5 -2 9.5 -2.5t9.5 -1.5q54 -9 90.5 -4.5t69.5 20.5v-119q-5 -2 -8 -2.5t-7 -2.5q-35 -9 -63 -10.5t-61 3.5l-24 5l-22 5l-24 4l-29 4q-29 5 -51.5 4t-43.5 -7q-24 -8 -42 -19v120zM940 574h-693v-383h693
v383zM48 538q0 51 24.5 94t81.5 85q32 25 65.5 36t83.5 13h20h573q42 0 76 -11.5t66 -36.5q14 -10 28 -27q21 -23 35 -43t22.5 -40t12 -41.5t3.5 -45.5v-285q0 -49 -16.5 -86t-55.5 -78q-39 -38 -79 -55t-95 -17h-598q-31 0 -56.5 4.5t-47.5 14t-42 25t-40 38.5
q-32 35 -46.5 74t-14.5 92v290z" />
    <glyph glyph-name="uacute" unicode="&#xfa;" 
d="M582 1071l150 -72l-133 -171l-114 54zM53 766h199v-575h717v575h199v-543q0 -38 -10.5 -65.5t-39.5 -61.5q-5 -6 -10 -11.5t-10 -10.5q-38 -36 -79.5 -55t-83.5 -19h-640q-27 0 -50 5t-44.5 16t-42.5 30t-44 46q-35 40 -48 73t-13 77v519z" />
    <glyph glyph-name="ugrave" unicode="&#xf9;" 
d="M619 1073l97 -187l-116 -56l-132 171zM53 766h199v-575h717v575h199v-543q0 -38 -10.5 -65.5t-39.5 -61.5q-5 -6 -10 -11.5t-10 -10.5q-38 -36 -79.5 -55t-83.5 -19h-640q-27 0 -50 5t-44.5 16t-42.5 30t-44 46q-35 40 -48 73t-13 77v519z" />
    <glyph glyph-name="ucircumflex" unicode="&#xfb;" 
d="M600 1059l206 -135l-46 -95l-160 69l-162 -68l-45 94zM53 766h199v-575h717v575h199v-543q0 -38 -10.5 -65.5t-39.5 -61.5q-5 -6 -10 -11.5t-10 -10.5q-38 -36 -79.5 -55t-83.5 -19h-640q-27 0 -50 5t-44.5 16t-42.5 30t-44 46q-35 40 -48 73t-13 77v519z" />
    <glyph glyph-name="udieresis" unicode="&#xfc;" 
d="M648 926q0 39 28 67q13 14 30.5 21.5t35.5 7.5t36 -7t32 -21q29 -29 29 -68.5t-28 -68.5q-29 -28 -68 -28t-67 28t-28 69zM388 926q0 19 7.5 36.5t21.5 31.5t31.5 21t36 7t35.5 -7.5t31 -21.5q28 -29 28 -68t-28 -68q-28 -28 -67.5 -28t-67.5 28q-28 30 -28 69zM53 766
h199v-575h717v575h199v-543q0 -38 -10.5 -65.5t-39.5 -61.5q-5 -6 -10 -11.5t-10 -10.5q-38 -36 -79.5 -55t-83.5 -19h-640q-27 0 -50 5t-44.5 16t-42.5 30t-44 46q-35 40 -48 73t-13 77v519z" />
    <glyph glyph-name="degree" unicode="&#xb0;" horiz-adv-x="424" 
d="M212 723q-24 0 -45.5 -9.5t-37 -25t-24.5 -37t-9 -45.5t9 -45.5t25 -37.5t37.5 -25t45.5 -9t45.5 9t37 25t25 37.5t9.5 45.5t-9.5 45.5t-25.5 37t-37.5 25t-45.5 9.5zM213 447q-33 0 -62.5 12.5t-51 34t-34 50.5t-12.5 62t12 62t34 51t51.5 34.5t62.5 12.5t61.5 -12.5
t50.5 -34.5t34.5 -51t12.5 -62t-12.5 -62t-34.5 -50.5t-50.5 -34t-61.5 -12.5z" />
    <glyph glyph-name="cent" unicode="&#xa2;" horiz-adv-x="1211" 
d="M528 573h-276v-382h276v382zM53 486q0 28 1.5 46t4.5 32q9 55 34 94.5t71 69.5q13 8 26.5 14t29.5 11q19 6 35 8.5t46 3.5l30 1h17h181v73h200v-73h428v-192l-429 -1v-382h429v-191h-430v-79h-200v79h-218q-57 0 -95 13t-74 44q-47 42 -67 82.5t-20 87.5v259z" />
    <glyph glyph-name="sterling" unicode="&#xa3;" horiz-adv-x="883" 
d="M49 474h154v17v40q1 5 1 10.5t1 10.5q8 77 35.5 122t81.5 72q40 20 91 20h416v-186h-430v-101h432v-188h-432v-103l432 -1v-187h-778v189l147 -1v99h-151v187z" />
    <glyph glyph-name="bullet" unicode="&#x2022;" horiz-adv-x="335" 
d="M53 461h230v-230h-230v230z" />
    <glyph glyph-name="registered" unicode="&#xae;" horiz-adv-x="462" 
d="M204 597h18t21 4q36 12 30 44q-2 21 -13 27.5t-17 6.5l-28 2q-10 0 -12 -11zM204 515q0 -10 8 -12.5t17 -2.5v-10h-85v10q9 0 17.5 3t8.5 11v153q0 11 -3.5 13.5t-19.5 2.5v10h88q22 0 42 -6q6 -2 14 -7.5t13 -13.5q11 -19 4.5 -36.5t-14.5 -25.5q-5 -4 -14.5 -9.5
t-23.5 -5.5l64 -82q5 -5 9.5 -6t9.5 -1v-10h-51l-70 94h-14v-69zM231 745q-34 0 -63.5 -13t-51.5 -35t-34.5 -51.5t-12.5 -63.5q0 -33 12.5 -62.5t34.5 -51.5t52 -35t64 -13q33 0 62.5 13t51.5 35t35 51.5t13 63.5q0 33 -13 62.5t-35 51.5t-51.5 35t-63.5 13zM232 399
q-38 0 -71.5 14.5t-58.5 39.5t-39.5 58.5t-14.5 71.5t14.5 71.5t39.5 58t58.5 39t71.5 14.5t71.5 -14.5t58 -39t39 -58t14.5 -71.5t-14.5 -71.5t-39 -58.5t-58 -39.5t-71.5 -14.5z" />
    <glyph glyph-name="copyright" unicode="&#xa9;" horiz-adv-x="462" 
d="M312 614h-11q-2 10 -10.5 26t-25.5 24q-22 9 -43 3.5t-35 -22.5q-15 -19 -19 -44t1 -48.5t20.5 -39.5t39.5 -17q25 -2 39.5 3t32.5 19l6 5l6 -9q-6 -6 -15 -14.5t-22.5 -15t-32 -9t-43.5 4.5q-30 7 -46.5 30.5t-20.5 52t6 56.5t34 45q17 12 33 16t30 3t25.5 -4t19.5 -5
q16 -4 19 8h10zM231 420q33 0 63 13t52 35t35 51.5t13 62.5t-13 63t-35 52t-52 35t-63 13q-34 0 -63.5 -13t-51.5 -35t-34.5 -52t-12.5 -63t12.5 -62.5t34.5 -51.5t51.5 -35t63.5 -13zM231 766q38 0 71.5 -14.5t58.5 -39.5t39.5 -58.5t14.5 -71.5t-14.5 -71.5t-39.5 -58.5
t-58.5 -39.5t-71.5 -14.5t-71.5 14.5t-58 39.5t-39 58.5t-14.5 71.5t14.5 71.5t39 58.5t58 39.5t71.5 14.5z" />
    <glyph glyph-name="trademark" unicode="&#x2122;" horiz-adv-x="996" 
d="M689 460l134 306h120v-19h-18t-17 -2.5t-13 -8t-5 -16.5v-309q0 -19 14.5 -24.5t39.5 -5.5v-19h-171v19q25 0 40 5.5t15 24.5v294l-143 -343h-19l-153 326v-277q0 -19 14.5 -24.5t39.5 -5.5v-19h-137v19q25 0 39.5 5.5t14.5 24.5v299q0 15 -4 22.5t-11.5 11t-17.5 3.5
h-23v19h121zM397 663l-19 -1q2 35 -17.5 56t-64.5 23l-40 2v-332q0 -19 14.5 -24.5t39.5 -5.5v-19h-171v19q25 0 40 5.5t15 24.5v332l-40 -2q-45 -2 -64.5 -23t-17.5 -56l-19 1l3 103h338z" />
    <glyph glyph-name="acute" unicode="&#xb4;" horiz-adv-x="352" 
d="M150 1071l150 -72l-133 -171l-114 54z" />
    <glyph glyph-name="dieresis" unicode="&#xa8;" horiz-adv-x="545" 
d="M307 926q0 37 28 67q13 14 30.5 21.5t36 7.5t36 -7t31.5 -21q29 -29 29 -68.5t-28 -68.5q-28 -28 -67.5 -28t-67.5 28q-28 30 -28 69zM48 926q0 19 7.5 36.5t21.5 31.5q28 28 67 28t67 -29t28 -68t-28 -68q-29 -28 -68 -28t-67 28t-28 69z" />
    <glyph glyph-name="notequal" unicode="&#x2260;" horiz-adv-x="664" 
d="M436 410h176v-59h-208l-83 -148h291v-58h-323l-95 -172l-53 30l79 142h-167v58h200l82 148h-282v59h315l97 174l52 -30z" />
    <glyph glyph-name="AE" unicode="&#xc6;" horiz-adv-x="1634" 
d="M594 571l-93 -166h184zM376 581l31 62q4 5 7 10.5t6 10.5q43 66 86 93t91 25q34 -2 66 -16h487l117 -188l-447 -2l51 -95h450l110 -200h-451l47 -90l453 4l101 -195h-674l-113 210h-401l-112 -210h-227z" />
    <glyph glyph-name="Oslash" unicode="&#xd8;" horiz-adv-x="1186" 
d="M1105 641q19 -29 26.5 -57t7.5 -63v-285q0 -49 -16.5 -86t-55.5 -78q-39 -38 -79 -55t-95 -17h-598q-39 0 -70 7t-57 23q-8 -5 -18 -11q-8 -5 -18.5 -12t-21.5 -14q-26 -17 -57 -38l-68 102l95 62q-17 27 -24.5 58.5t-7.5 70.5v290q0 51 24.5 94t81.5 85q32 25 65.5 36
t83.5 13h20h573q36 0 65.5 -8.5t56.5 -25.5l105 68l68 -102zM778 574h-531v-346zM415 191h525v343z" />
    <glyph glyph-name="infinity" unicode="&#x221e;" 
d="M53 191h915v102h-680q-51 0 -90.5 17.5t-77.5 59.5q-37 39 -52 75t-15 81v240h199v-282h716v282h200v-536q0 -50 -20.5 -91t-71.5 -83q-27 -22 -51.5 -33.5t-57.5 -18.5q-23 -4 -64 -4h-850v191zM571 1071l150 -72l-133 -171l-114 54z" />
    <glyph glyph-name="plusminus" unicode="&#xb1;" horiz-adv-x="668" 
d="M53 59h563v-59h-563v59zM305 686h59v-252h252v-58h-252v-253h-59v253h-252v58h252v252z" />
    <glyph glyph-name="lessequal" unicode="&#x2264;" horiz-adv-x="634" 
d="M582 680v-66l-461 -212l461 -212v-66l-529 245v66zM582 59v-59h-529v59h529z" />
    <glyph glyph-name="greaterequal" unicode="&#x2265;" horiz-adv-x="634" 
d="M53 124v66l461 212l-461 212v66l529 -245v-66zM53 0v59h529v-59h-529z" />
    <glyph glyph-name="yen" unicode="&#xa5;" horiz-adv-x="1169" 
d="M303 766l284 -349l287 349h244l-424 -538l309 -2v-43h-308v-30l307 -2v-47h-308v-104h-199v105h-309v49h310v29l-309 1v47l308 -3l-442 538h250z" />
    <glyph glyph-name="mu" unicode="&#xb5;" horiz-adv-x="668" 
d="M169 178q0 -38 11.5 -68.5t43.5 -44.5q46 -20 88 -1q18 9 42 27.5t35 44.5v396h92v-409q0 -20 6 -41t18 -33q25 -25 57 -9q10 6 15.5 15t8.5 18t4.5 18t4.5 16h21q-3 -14 -7 -28.5t-11.5 -29t-20 -28t-33.5 -24.5q-19 -11 -36.5 -13.5t-32 -1t-25 6t-16.5 9.5
q-14 10 -21.5 20.5t-11.5 21t-6 22t-5 24.5q-7 -11 -21.5 -28.5t-52.5 -44.5q-19 -14 -45 -24t-55 -8q-19 1 -34.5 7.5t-28.5 15t-22 17t-15 12.5v-24q1 -24 4.5 -40.5t8.5 -31.5t10 -31.5t9 -38.5q4 -26 1 -45.5t-10.5 -32.5t-18 -19.5t-21.5 -6.5t-21.5 6.5t-18 19.5
t-11 32.5t1.5 45.5q4 22 9 38.5t9 31.5t7 31.5t3 40.5v523h91v-354z" />
    <glyph glyph-name="mu" unicode="&#x3bc;" horiz-adv-x="668" 
d="M169 178q0 -38 11.5 -68.5t43.5 -44.5q46 -20 88 -1q18 9 42 27.5t35 44.5v396h92v-409q0 -20 6 -41t18 -33q25 -25 57 -9q10 6 15.5 15t8.5 18t4.5 18t4.5 16h21q-3 -14 -7 -28.5t-11.5 -29t-20 -28t-33.5 -24.5q-19 -11 -36.5 -13.5t-32 -1t-25 6t-16.5 9.5
q-14 10 -21.5 20.5t-11.5 21t-6 22t-5 24.5q-7 -11 -21.5 -28.5t-52.5 -44.5q-19 -14 -45 -24t-55 -8q-19 1 -34.5 7.5t-28.5 15t-22 17t-15 12.5v-24q1 -24 4.5 -40.5t8.5 -31.5t10 -31.5t9 -38.5q4 -26 1 -45.5t-10.5 -32.5t-18 -19.5t-21.5 -6.5t-21.5 6.5t-18 19.5
t-11 32.5t1.5 45.5q4 22 9 38.5t9 31.5t7 31.5t3 40.5v523h91v-354z" />
    <glyph glyph-name="partialdiff" unicode="&#x2202;" horiz-adv-x="564" 
d="M295 386q-62 -2 -102 -57q-32 -45 -43 -87.5t-11 -84.5q0 -11 1 -29t5.5 -37t14.5 -37t28 -30q23 -14 44.5 -15t44.5 10q29 13 49 37t37 62q19 48 29.5 98t17.5 102q-9 9 -18.5 21t-23 22.5t-31.5 17.5t-42 7zM89 763q16 7 38 14t47.5 11.5t53 4.5t54.5 -6
q49 -12 95 -43.5t84 -98.5q18 -32 28 -67.5t15.5 -67.5t6.5 -57t1 -35q0 -17 -2.5 -49.5t-9 -72t-17.5 -81.5t-27 -76q-21 -46 -43.5 -78.5t-66.5 -57.5q-56 -30 -111 -25t-97 34q-30 20 -57 57t-32 97q-3 32 2 61t14.5 53t21 42t20.5 30q29 35 64.5 56.5t87.5 19.5
q23 -1 41 -4.5t35 -12t36.5 -22t46.5 -34.5q7 34 9 63.5t3 60.5q0 19 -3 43.5t-8.5 48t-11.5 44t-11 33.5q-5 11 -15 26.5t-25 30t-34.5 25.5t-44.5 13q-29 2 -46.5 1t-31.5 -5.5t-29 -11.5t-39 -17z" />
    <glyph glyph-name="summation" unicode="&#x2211;" horiz-adv-x="834" 
d="M682 623q-8 26 -15.5 48.5t-23 39t-44.5 25.5t-80 9h-280l291 -381l-313 -361h395q31 0 52 5.5t36.5 19t28 37t26.5 58.5h25q-10 -41 -16.5 -67.5t-11.5 -51t-9 -51.5t-9 -68q-21 3 -41.5 7.5t-40.5 4.5h-535q-16 0 -30.5 -1.5t-31.5 -1.5l372 423l-370 483
q28 -2 56 -4.5t55 -2.5h529l6 -170h-21z" />
    <glyph glyph-name="product" unicode="&#x220f;" horiz-adv-x="932" 
d="M776 -30q0 -28 7 -45t20.5 -26t32.5 -12t43 -3v-24h-326v24q23 0 42 3t32.5 12t20.5 26t7 45v737h-381v-737q0 -28 7.5 -45t21 -26t32.5 -12t43 -3v-24h-327v24q24 0 43 3t32.5 12t20.5 26t7 45v666q0 37 -11.5 58t-27.5 31.5t-33.5 13t-28.5 2.5v25h823v-25
q-11 0 -28 -2.5t-33 -13t-27.5 -31.5t-11.5 -58v-666z" />
    <glyph glyph-name="pi" unicode="&#x3c0;" horiz-adv-x="659" 
d="M279 427q-13 -150 -26 -240t-23 -134q-7 -30 -20 -48t-39 -24q-11 -3 -21.5 -0.5t-19.5 8.5t-16 14.5t-9 17.5q-6 27 4.5 42t20.5 28q6 9 14.5 18t16.5 20t14 24t8 30l31 244h-50q-23 0 -42.5 -10.5t-27.5 -23.5l-23 -33h-18q5 11 14.5 40t33.5 63q14 19 38.5 37t61.5 18
h397v-91h-134q-10 -94 -11.5 -157t-1.5 -93q0 -23 7.5 -45t19.5 -33q5 -5 13 -10t18 -7t22 0.5t25 12.5q20 15 23 34.5t5 31.5h22q-1 -36 -9 -64t-19 -48.5t-24 -33t-24 -18.5q-16 -10 -42 -14t-48 12q-13 9 -27.5 29t-24.5 49q-5 16 -7.5 38.5t-3 47.5t0.5 50t3 46l18 172
h-120z" />
    <glyph glyph-name="integral" unicode="&#x222b;" horiz-adv-x="407" 
d="M247 289q-1 -125 -13.5 -199.5t-22.5 -111.5q-9 -31 -17 -44t-14 -21q-3 -4 -13.5 -10.5t-24 -11t-28.5 -5.5t-28 5q-13 7 -22.5 20t-12.5 22q-6 17 0 33t26 25q18 10 32 2t28 -23q12 -13 20.5 -6.5t13.5 24t7.5 42.5t1.5 49q-1 29 -2 60t-2.5 70t-2 88.5t-0.5 115.5v153
q0 63 1.5 112t4.5 88t8.5 70t13.5 60q5 16 18 37t30 32q23 14 47 8.5t36 -13.5q6 -4 12 -12t9 -18t2 -21t-9 -21q-6 -7 -15.5 -12t-20.5 -7t-21.5 0.5t-18.5 11.5q-9 9 -16.5 11.5t-13 -0.5t-9 -9t-3.5 -13q-1 -15 2 -51t7 -84.5t7.5 -105t3.5 -110.5z" />
    <glyph glyph-name="ordfeminine" unicode="&#xaa;" horiz-adv-x="643" 
d="M209 555l209 -428l135 849l37 -6l-159 -1010l-259 534l-102 -50l-17 35z" />
    <glyph glyph-name="ordmasculine" unicode="&#xba;" horiz-adv-x="801" 
d="M577 186q22 -5 43.5 -0.5t39 16.5t28.5 31t12 43q0 17 -8.5 38t-25.5 36.5t-43 22t-60 -5.5q-27 -10 -54 -29t-73 -57q24 -23 40.5 -38.5t31.5 -26.5t30.5 -18t38.5 -12zM239 367q-34 12 -60 5.5t-43 -22t-25.5 -36.5t-8.5 -38q1 -24 12 -43t28.5 -31t39.5 -16.5t44 0.5
t38 12t30.5 18t31 26.5t40.5 38.5q-23 19 -40.5 33t-32 24t-27.5 17t-27 12zM538 416q39 17 76 14t67 -21t49.5 -47.5t22.5 -64.5q3 -30 -7 -60.5t-31 -55t-51 -38.5t-67 -10q-41 4 -73.5 19t-56.5 33t-40 35t-26 26q-9 -9 -25.5 -26t-40.5 -35t-56.5 -33t-73.5 -19
q-37 -4 -67 10t-51 38.5t-31 55t-7 60.5q4 35 23.5 64.5t49 47.5t66.5 21t76 -14q19 -8 33.5 -16.5t29.5 -20t32.5 -26.5t41.5 -37q24 22 41.5 37t32.5 26.5t29.5 20t33.5 16.5z" />
    <glyph glyph-name="Omega" unicode="&#x3a9;" horiz-adv-x="852" 
d="M53 0v172h16q10 -39 23.5 -52t46.5 -13h168l-2 30q-31 9 -56.5 19.5t-47 24t-39.5 31t-34 41.5q-28 41 -40.5 84t-13 84t9.5 78.5t27 67.5q16 29 32.5 49t32.5 33t30.5 21.5t25.5 14.5q37 22 87.5 34.5t107.5 12.5t107 -12.5t87 -34.5q11 -6 25.5 -14.5t30.5 -21.5
t33 -33t33 -49q16 -30 26 -67.5t9.5 -78.5t-12.5 -84t-40 -84q-33 -48 -75 -72.5t-103 -43.5l-2 -30h168q17 0 28 3t19 10t13 19.5t10 32.5h16v-172h-314l17 162q13 6 28 12t31.5 18t33.5 33.5t33 57.5q13 30 20.5 77t4 98t-20 100t-52.5 85q-33 32 -73 43.5t-81 11.5
q-42 0 -82 -11.5t-73 -43.5q-35 -36 -52 -85t-20.5 -100t4 -98t20.5 -77q16 -36 32.5 -57.5t33 -33.5t32 -18t28.5 -12l17 -162h-314z" />
    <glyph glyph-name="Omega" unicode="&#x2126;" horiz-adv-x="852" 
d="M53 0v172h16q10 -39 23.5 -52t46.5 -13h168l-2 30q-31 9 -56.5 19.5t-47 24t-39.5 31t-34 41.5q-28 41 -40.5 84t-13 84t9.5 78.5t27 67.5q16 29 32.5 49t32.5 33t30.5 21.5t25.5 14.5q37 22 87.5 34.5t107.5 12.5t107 -12.5t87 -34.5q11 -6 25.5 -14.5t30.5 -21.5
t33 -33t33 -49q16 -30 26 -67.5t9.5 -78.5t-12.5 -84t-40 -84q-33 -48 -75 -72.5t-103 -43.5l-2 -30h168q17 0 28 3t19 10t13 19.5t10 32.5h16v-172h-314l17 162q13 6 28 12t31.5 18t33.5 33.5t33 57.5q13 30 20.5 77t4 98t-20 100t-52.5 85q-33 32 -73 43.5t-81 11.5
q-42 0 -82 -11.5t-73 -43.5q-35 -36 -52 -85t-20.5 -100t4 -98t20.5 -77q16 -36 32.5 -57.5t33 -33.5t32 -18t28.5 -12l17 -162h-314z" />
    <glyph glyph-name="ae" unicode="&#xe6;" horiz-adv-x="2089" 
d="M306 0q-64 0 -116 26q-39 19 -68 47t-47 61t-24 70.5t0 76.5q6 37 24 70t45 59t61.5 44t74.5 24q19 3 39 3h674v93h-881v192h851q73 0 132 -46q12 8 25 14.5t28 12.5q20 8 44.5 12t66.5 6q7 1 13 1h13h529q61 0 106 -19.5t86 -66.5q32 -36 46.5 -75t14.5 -96v-222h-874
v-96h874v-191h-1737zM969 288h-715v-97h715v97zM1844 574h-675v-91h675v91z" />
    <glyph glyph-name="oslash" unicode="&#xf8;" horiz-adv-x="1186" 
d="M1104 641q19 -29 26.5 -57t7.5 -63v-285q0 -49 -16.5 -86t-55.5 -78q-39 -38 -79 -55t-96 -17h-597q-40 0 -70.5 7t-56.5 23q-8 -5 -18 -11q-8 -5 -18.5 -12t-21.5 -14q-26 -17 -57 -38l-68 102l95 62q-17 27 -24.5 58.5t-7.5 70.5v290q0 51 24.5 94t81.5 85
q32 25 65.5 36t83.5 13h20h573q36 0 65.5 -8.5t56.5 -25.5l105 68l68 -102zM777 574h-531v-346zM414 191h525v343z" />
    <glyph glyph-name="questiondown" unicode="&#xbf;" horiz-adv-x="1243" 
d="M717 476v-192h-467v-96h940v-188h-873q-22 0 -41 3q-42 5 -79 21t-66 39q-45 36 -66 85t-18 100.5t29.5 99.5t76.5 82q16 11 34 19t37 15q42 12 81 12h412zM518 766h199v-199h-199v199z" />
    <glyph glyph-name="exclamdown" unicode="&#xa1;" horiz-adv-x="304" 
d="M53 473h199v-473h-199v473zM53 766h199v-199h-199v199z" />
    <glyph glyph-name="logicalnot" unicode="&#xac;" horiz-adv-x="813" 
d="M761 306v-306h-59v248h-649v58h708z" />
    <glyph glyph-name="radical" unicode="&#x221a;" horiz-adv-x="519" 
d="M99 1060l162 -70l159 71l47 -96l-206 -135l-208 134z" />
    <glyph glyph-name="approxequal" unicode="&#x2248;" horiz-adv-x="651" 
d="M599 233q-16 -26 -39 -44.5t-48.5 -28t-52 -11.5t-49.5 5l-160 46q-38 11 -64.5 6t-44 -16.5t-27.5 -25.5t-15 -20l-46 28q43 57 96 75t112 2l160 -45q17 -5 37 -3t47 13q13 5 29 17.5t26 27.5zM599 394q-16 -27 -39 -45t-48.5 -28t-52 -11.5t-49.5 5.5l-160 46
q-38 10 -64.5 5t-44 -16.5t-27.5 -25.5t-15 -20l-46 29q43 56 96 74.5t112 2.5l160 -45q17 -5 37 -3.5t47 12.5q13 6 29 18.5t26 26.5z" />
    <glyph glyph-name="Delta" unicode="&#x394;" horiz-adv-x="746" 
d="M562 52l-207 498l-232 -498h439zM53 0l341 732l300 -732h-641z" />
    <glyph glyph-name="Delta" unicode="&#x2206;" horiz-adv-x="746" 
d="M562 52l-207 498l-232 -498h439zM53 0l341 732l300 -732h-641z" />
    <glyph glyph-name="uni00A0" unicode="&#xa0;" horiz-adv-x="532" 
 />
    <glyph glyph-name="Agrave" unicode="&#xc0;" horiz-adv-x="1085" 
d="M523 1073l97 -187l-116 -56l-132 171zM544 571l-93 -166h184zM326 581l31 62q4 5 7 10.5t6 10.5q37 57 72 82.5t73 33.5q60 10 107 -16.5t93 -99.5q4 -7 8 -13t8 -13l32 -61l319 -577h-225l-113 210h-401l-112 -210h-227z" />
    <glyph glyph-name="Atilde" unicode="&#xc3;" horiz-adv-x="1085" 
d="M330 950q5 2 9.5 3.5t9.5 3.5q31 11 58.5 12t68.5 -6l6 -1l44 -9q7 -2 19 -4q54 -9 90.5 -4.5t68.5 20.5v-119q-4 -2 -7 -2.5t-8 -2.5q-34 -9 -62 -10.5t-61 3.5l-25 5l-22 5l-23 4l-29 4q-29 5 -51.5 4t-44.5 -7q-22 -7 -41 -19v120zM544 571l-93 -166h184zM326 581
l31 62q4 5 7 10.5t6 10.5q37 57 72 82.5t73 33.5q60 10 107 -16.5t93 -99.5q4 -7 8 -13t8 -13l32 -61l319 -577h-225l-113 210h-401l-112 -210h-227z" />
    <glyph glyph-name="Otilde" unicode="&#xd5;" horiz-adv-x="1186" 
d="M404 950q5 2 9.5 3.5t9.5 3.5q32 11 59.5 12t67.5 -6l6 -1l44 -9q5 -2 9.5 -2.5t9.5 -1.5q54 -9 90.5 -4.5t69.5 20.5v-119q-5 -2 -8 -2.5t-7 -2.5q-35 -9 -63 -10.5t-61 3.5l-24 5l-22 5l-24 4l-29 4q-29 5 -51.5 4t-43.5 -7q-24 -8 -42 -19v120zM940 574h-693v-383h693
v383zM48 538q0 51 24.5 94t81.5 85q32 25 65.5 36t83.5 13h20h573q42 0 76 -11.5t66 -36.5q14 -10 28 -27q21 -23 35 -43t22.5 -40t12 -41.5t3.5 -45.5v-285q0 -49 -16.5 -86t-55.5 -78q-39 -38 -79 -55t-95 -17h-598q-31 0 -56.5 4.5t-47.5 14t-42 25t-40 38.5
q-32 35 -46.5 74t-14.5 92v290z" />
    <glyph glyph-name="OE" unicode="&#x152;" horiz-adv-x="1781" 
d="M946 574h-694v-383h694v383zM53 538q0 51 24.5 94t82.5 85q32 25 65.5 36t83.5 13h20h572q19 0 34.5 -2t28.5 -5q35 -11 52.5 -22t28.5 -30q8 17 22 26.5t52 20.5q26 9 81 12h21h507v-192h-583v-93h583v-198l-583 -2v-90h583v-191h-510q-22 0 -37.5 1.5t-29.5 3.5
q-24 5 -40.5 10.5t-27.5 12t-18 15.5t-12 21q-18 -26 -46 -41.5t-76 -20.5q-8 -1 -16.5 -1.5t-16.5 -0.5h-598q-31 0 -56.5 4.5t-47.5 14t-42 25t-40 38.5q-32 35 -46.5 74t-14.5 92v290z" />
    <glyph glyph-name="oe" unicode="&#x153;" horiz-adv-x="2060" 
d="M1038 718q24 17 57 29q20 8 44 12t66 6q7 1 13 1h13h530q61 0 105.5 -19.5t85.5 -66.5q32 -36 46.5 -75.5t14.5 -95.5v-222h-863v-96h863v-191h-830q-81 0 -144 48q-32 -26 -66.5 -37t-79.5 -11h-598q-31 0 -56.5 4.5t-47.5 14t-42 25t-40 38.5q-32 35 -46.5 74t-14.5 92
v290q0 51 24.5 94t81.5 85q32 25 65.5 36t83.5 13h20h573q42 0 76 -11.5t66 -36.5zM930 574h-683v-383h683v383zM1814 574h-664v-91h664v91z" />
    <glyph glyph-name="endash" unicode="&#x2013;" horiz-adv-x="718" 
d="M53 452h613v-172h-613v172z" />
    <glyph glyph-name="emdash" unicode="&#x2014;" horiz-adv-x="832" 
d="M53 426h727v-163h-727v163z" />
    <glyph glyph-name="quotedblleft" unicode="&#x201c;" horiz-adv-x="578" 
d="M310 597q0 32 13.5 62t38.5 53t60 37.5t78 16.5h13h11v-153h-59v-76h61v-216h-216v276zM53 597q0 32 14 62t39 53t60.5 37.5t77.5 16.5h12h12v-153h-59v-76h60v-216h-216v276z" />
    <glyph glyph-name="quotedblright" unicode="&#x201d;" horiz-adv-x="578" 
d="M310 766h216v-277q0 -32 -14 -62t-39 -53t-60 -37.5t-78 -15.5h-13h-11v152h59v77h-60v216zM53 766h216v-277q0 -32 -13.5 -62t-38.5 -53t-60 -37.5t-77 -15.5h-14h-12v152h61v77h-62v216z" />
    <glyph glyph-name="quoteleft" unicode="&#x2018;" horiz-adv-x="335" 
d="M53 586q0 34 14.5 66t41.5 56.5t64 40t82 17.5h14h13v-163h-64v-81h65v-229h-230v293z" />
    <glyph glyph-name="quoteright" unicode="&#x2019;" horiz-adv-x="335" 
d="M53 766h230v-294q0 -35 -14.5 -66.5t-41.5 -56t-64 -40t-82 -16.5h-14h-13v162h64v81h-65v230z" />
    <glyph glyph-name="divide" unicode="&#xf7;" horiz-adv-x="665" 
d="M328 195q25 0 42 -17.5t17 -42.5t-17 -42t-42 -17t-42.5 17t-17.5 42t17.5 42.5t42.5 17.5zM328 485q25 0 42 -17t17 -42t-17 -42.5t-42 -17.5t-42.5 17.5t-17.5 42.5t17.5 42t42.5 17zM613 310v-59h-560v59h560z" />
    <glyph glyph-name="lozenge" unicode="&#x25ca;" horiz-adv-x="583" 
d="M117 374l174 -343l175 343l-175 335zM53 374l207 392h63l207 -392l-207 -401h-63z" />
    <glyph glyph-name="ydieresis" unicode="&#xff;" 
d="M627 926q0 38 27 67q13 14 30.5 21.5t36 7.5t36 -7t31.5 -21q29 -29 29.5 -68.5t-28.5 -68.5q-28 -28 -67.5 -28t-67.5 28q-27 28 -27 69zM367 926q0 19 7.5 36.5t21.5 31.5t31.5 21t36 7t35.5 -7.5t31 -21.5q28 -29 28 -68t-28 -68q-28 -28 -67.5 -28t-67.5 28
q-28 30 -28 69zM53 191h915v102h-680q-51 0 -90.5 17.5t-77.5 59.5q-37 39 -52 75t-15 81v240h199v-282h716v282h200v-536q0 -50 -20.5 -91t-71.5 -83q-27 -22 -51.5 -33.5t-57.5 -18.5q-23 -4 -64 -4h-850v191z" />
    <glyph glyph-name="Ydieresis" unicode="&#x178;" horiz-adv-x="1074" 
d="M522 1071l150 -72l-133 -171l-113 54zM255 766l284 -349l288 349h243l-424 -538v-228h-199v228l-442 538h250z" />
    <glyph glyph-name="fraction" unicode="&#x2044;" horiz-adv-x="1074" 
d="M573 926q0 37 28 67q13 14 30.5 21.5t36 7.5t36 -7t31.5 -21q29 -29 29 -68.5t-28 -68.5q-28 -28 -67.5 -28t-67.5 28q-28 30 -28 69zM314 926q0 19 7.5 36.5t21.5 31.5q28 28 67 28t67 -29t28 -68t-28 -68q-29 -28 -68 -28t-68 28q-27 28 -27 69zM255 766l284 -349
l288 349h243l-424 -538v-228h-199v228l-442 538h250z" />
    <glyph glyph-name="fraction" unicode="&#x2215;" horiz-adv-x="1074" 
d="M573 926q0 37 28 67q13 14 30.5 21.5t36 7.5t36 -7t31.5 -21q29 -29 29 -68.5t-28 -68.5q-28 -28 -67.5 -28t-67.5 28q-28 30 -28 69zM314 926q0 19 7.5 36.5t21.5 31.5q28 28 67 28t67 -29t28 -68t-28 -68q-29 -28 -68 -28t-68 28q-27 28 -27 69zM255 766l284 -349
l288 349h243l-424 -538v-228h-199v228l-442 538h250z" />
    <glyph glyph-name="guilsinglleft" unicode="&#x2039;" horiz-adv-x="504" 
d="M333 779l120 -92l-209 -298l209 -275l-120 -116l-280 391z" />
    <glyph glyph-name="guilsinglright" unicode="&#x203a;" horiz-adv-x="504" 
d="M263 386l-209 277l120 116l279 -392l-279 -389l-121 91z" />
    <glyph glyph-name="periodcentered" unicode="&#xb7;" horiz-adv-x="415" 
d="M252 0l-48 -79q13 2 24.5 3.5t22.5 1.5q46 0 79 -27t33 -76q0 -22 -10 -42.5t-29 -36t-46.5 -24.5t-61.5 -9q-41 -1 -84.5 8.5t-77.5 24.5l24 54q21 -8 50 -16t55 -8q60 0 62 43q2 24 -13 36.5t-37 12.5q-13 0 -25.5 -2.5t-26.5 -4.5l-30 22l73 119h66z" />
    <glyph glyph-name="periodcentered" unicode="&#x2219;" horiz-adv-x="415" 
d="M252 0l-48 -79q13 2 24.5 3.5t22.5 1.5q46 0 79 -27t33 -76q0 -22 -10 -42.5t-29 -36t-46.5 -24.5t-61.5 -9q-41 -1 -84.5 8.5t-77.5 24.5l24 54q21 -8 50 -16t55 -8q60 0 62 43q2 24 -13 36.5t-37 12.5q-13 0 -25.5 -2.5t-26.5 -4.5l-30 22l73 119h66z" />
    <glyph glyph-name="quotesinglbase" unicode="&#x201a;" horiz-adv-x="335" 
d="M53 227h230v-294q0 -35 -14.5 -67t-41.5 -56.5t-64 -40t-82 -16.5h-14h-13v163h64v84h-65v227z" />
    <glyph glyph-name="quotedblbase" unicode="&#x201e;" horiz-adv-x="607" 
d="M326 227h229v-294q0 -35 -14.5 -67t-41.5 -56.5t-64 -40t-82 -16.5h-14h-12v163h63v84h-64v227zM53 227h230v-294q0 -35 -14.5 -67t-41.5 -56.5t-64 -40t-82 -16.5h-14h-13v163h64v84h-65v227z" />
    <glyph glyph-name="Acircumflex" unicode="&#xc2;" horiz-adv-x="1085" 
d="M536 1059l207 -135l-47 -95l-160 69l-162 -68l-45 94zM544 571l-93 -166h184zM326 581l31 62q4 5 7 10.5t6 10.5q37 57 72 82.5t73 33.5q60 10 107 -16.5t93 -99.5q4 -7 8 -13t8 -13l32 -61l319 -577h-225l-113 210h-401l-112 -210h-227z" />
    <glyph glyph-name="Ecircumflex" unicode="&#xca;" horiz-adv-x="1189" 
d="M621 1059l207 -135l-47 -95l-160 69l-161 -68l-46 94zM48 521v10.5t1 11.5q3 45 17.5 78t44.5 64q8 8 16 15t17 15q33 26 67.5 37.5t90.5 13.5h21h813v-192h-889v-93h889v-198l-889 -2v-90h889v-191h-816q-66 0 -110 17t-81 52q-45 45 -63 85.5t-18 89.5v277z" />
    <glyph glyph-name="Aacute" unicode="&#xc1;" horiz-adv-x="1085" 
d="M544 1071l150 -72l-133 -171l-114 54zM544 571l-93 -166h184zM326 581l31 62q4 5 7 10.5t6 10.5q37 57 72 82.5t73 33.5q60 10 107 -16.5t93 -99.5q4 -7 8 -13t8 -13l32 -61l319 -577h-225l-113 210h-401l-112 -210h-227z" />
    <glyph glyph-name="Edieresis" unicode="&#xcb;" horiz-adv-x="1189" 
d="M648 926q0 39 28 67q13 14 30.5 21.5t35.5 7.5t36 -7t32 -21q29 -29 29 -68.5t-28 -68.5q-29 -28 -68 -28t-67 28t-28 69zM388 926q0 19 7.5 36.5t21.5 31.5t31.5 21t36 7t35.5 -7.5t31 -21.5q28 -29 28 -68t-28 -68q-28 -28 -67.5 -28t-67.5 28q-28 30 -28 69zM48 521
v10.5t1 11.5q3 45 17.5 78t44.5 64q8 8 16 15t17 15q33 26 67.5 37.5t90.5 13.5h21h813v-192h-889v-93h889v-198l-889 -2v-90h889v-191h-816q-66 0 -110 17t-81 52q-45 45 -63 85.5t-18 89.5v277z" />
    <glyph glyph-name="Egrave" unicode="&#xc8;" horiz-adv-x="1189" 
d="M619 1073l97 -187l-116 -56l-132 171zM48 521v10.5t1 11.5q3 45 17.5 78t44.5 64q8 8 16 15t17 15q33 26 67.5 37.5t90.5 13.5h21h813v-192h-889v-93h889v-198l-889 -2v-90h889v-191h-816q-66 0 -110 17t-81 52q-45 45 -63 85.5t-18 89.5v277z" />
    <glyph glyph-name="Iacute" unicode="&#xcd;" horiz-adv-x="304" 
d="M150 1071l150 -72l-133 -171l-114 54zM53 766h199v-766h-199v766z" />
    <glyph glyph-name="Icircumflex" unicode="&#xce;" horiz-adv-x="304" 
d="M164 1059l206 -135l-47 -95l-159 69l-162 -68l-46 94zM53 766h199v-766h-199v766z" />
    <glyph glyph-name="Idieresis" unicode="&#xcf;" horiz-adv-x="304" 
d="M200 926q0 37 28 67q13 14 30.5 21.5t35.5 7.5t36 -7t32 -21q29 -29 29 -68.5t-28 -68.5q-28 -28 -67.5 -28t-67.5 28q-28 30 -28 69zM-60 926q0 19 7.5 36.5t21.5 31.5t31.5 21t36 7t35.5 -7.5t31 -21.5q28 -29 28 -68t-28 -68q-28 -28 -67.5 -28t-67.5 28
q-28 30 -28 69zM53 766h199v-766h-199v766z" />
    <glyph glyph-name="Igrave" unicode="&#xcc;" horiz-adv-x="304" 
d="M172 1073l97 -187l-116 -56l-132 171zM53 766h199v-766h-199v766z" />
    <glyph glyph-name="Oacute" unicode="&#xd3;" horiz-adv-x="1186" 
d="M565 1071l150 -72l-133 -171l-114 54zM940 574h-693v-383h693v383zM48 538q0 51 24.5 94t81.5 85q32 25 65.5 36t83.5 13h20h573q42 0 76 -11.5t66 -36.5q14 -10 28 -27q21 -23 35 -43t22.5 -40t12 -41.5t3.5 -45.5v-285q0 -49 -16.5 -86t-55.5 -78q-39 -38 -79 -55
t-95 -17h-598q-31 0 -56.5 4.5t-47.5 14t-42 25t-40 38.5q-32 35 -46.5 74t-14.5 92v290z" />
    <glyph glyph-name="Ocircumflex" unicode="&#xd4;" horiz-adv-x="1186" 
d="M589 1059l207 -135l-47 -95l-160 69l-161 -68l-46 94zM940 574h-693v-383h693v383zM48 538q0 51 24.5 94t81.5 85q32 25 65.5 36t83.5 13h20h573q42 0 76 -11.5t66 -36.5q14 -10 28 -27q21 -23 35 -43t22.5 -40t12 -41.5t3.5 -45.5v-285q0 -49 -16.5 -86t-55.5 -78
q-39 -38 -79 -55t-95 -17h-598q-31 0 -56.5 4.5t-47.5 14t-42 25t-40 38.5q-32 35 -46.5 74t-14.5 92v290z" />
    <glyph glyph-name="Ograve" unicode="&#xd2;" horiz-adv-x="1186" 
d="M587 1073l97 -187l-116 -56l-132 171zM940 574h-693v-383h693v383zM48 538q0 51 24.5 94t81.5 85q32 25 65.5 36t83.5 13h20h573q42 0 76 -11.5t66 -36.5q14 -10 28 -27q21 -23 35 -43t22.5 -40t12 -41.5t3.5 -45.5v-285q0 -49 -16.5 -86t-55.5 -78q-39 -38 -79 -55
t-95 -17h-598q-31 0 -56.5 4.5t-47.5 14t-42 25t-40 38.5q-32 35 -46.5 74t-14.5 92v290z" />
    <glyph glyph-name="Uacute" unicode="&#xda;" 
d="M582 1071l150 -72l-133 -171l-114 54zM53 766h199v-575h717v575h199v-543q0 -38 -10.5 -65.5t-39.5 -61.5q-5 -6 -10 -11.5t-10 -10.5q-38 -36 -79.5 -55t-83.5 -19h-640q-27 0 -50 5t-44.5 16t-42.5 30t-44 46q-35 40 -48 73t-13 77v519z" />
    <glyph glyph-name="Ucircumflex" unicode="&#xdb;" 
d="M600 1059l206 -135l-46 -95l-160 69l-162 -68l-45 94zM53 766h199v-575h717v575h199v-543q0 -38 -10.5 -65.5t-39.5 -61.5q-5 -6 -10 -11.5t-10 -10.5q-38 -36 -79.5 -55t-83.5 -19h-640q-27 0 -50 5t-44.5 16t-42.5 30t-44 46q-35 40 -48 73t-13 77v519z" />
    <glyph glyph-name="Ugrave" unicode="&#xd9;" 
d="M619 1073l97 -187l-116 -56l-132 171zM53 766h199v-575h717v575h199v-543q0 -38 -10.5 -65.5t-39.5 -61.5q-5 -6 -10 -11.5t-10 -10.5q-38 -36 -79.5 -55t-83.5 -19h-640q-27 0 -50 5t-44.5 16t-42.5 30t-44 46q-35 40 -48 73t-13 77v519z" />
    <glyph glyph-name="dotlessi" unicode="&#x131;" horiz-adv-x="304" 
d="M53 766h199v-766h-199v766z" />
    <glyph glyph-name="circumflex" unicode="&#x2c6;" horiz-adv-x="518" 
d="M261 1059l206 -135l-47 -95l-159 69l-162 -68l-46 94z" />
    <glyph glyph-name="tilde" unicode="&#x2dc;" horiz-adv-x="480" 
d="M53 950q5 2 9.5 3.5t9.5 3.5q32 11 59.5 12t67.5 -6l6 -1l44 -9q5 -2 9.5 -2.5t9.5 -1.5q54 -9 90.5 -4.5t69.5 20.5v-119q-5 -2 -8 -2.5t-7 -2.5q-35 -9 -63 -10.5t-61 3.5l-24 5l-22 5l-24 4l-29 4q-29 5 -51.5 4t-43.5 -7q-24 -8 -42 -19v120z" />
    <glyph glyph-name="macron" unicode="&#xaf;" horiz-adv-x="505" 
d="M53 941h400v-111h-400v111z" />
    <glyph glyph-name="macron" unicode="&#x2c9;" horiz-adv-x="505" 
d="M53 941h400v-111h-400v111z" />
    <glyph glyph-name="breve" unicode="&#x2d8;" horiz-adv-x="518" 
d="M173 1039q1 -3 2 -6.5t2 -6.5q4 -21 10 -36q17 -45 39.5 -60t51.5 -7q16 5 29.5 20t25.5 47q3 8 5.5 16.5t5.5 19.5q2 8 2 13l121 -5q-3 -11 -6 -21t-8 -20q-32 -83 -84.5 -123t-108.5 -40q-57 0 -108.5 39.5t-85.5 123.5q-4 10 -7.5 20t-5.5 21z" />
    <glyph glyph-name="dotaccent" unicode="&#x2d9;" horiz-adv-x="217" 
d="M27 -48l135 -13l-83 -156l-112 12z" />
    <glyph glyph-name="ring" unicode="&#x2da;" horiz-adv-x="340" 
d="M141 901q12 -13 29.5 -13t29.5 12q12 13 12 30t-12 29q-12 13 -28.5 13t-28.5 -12q-13 -12 -13 -30q0 -16 11 -29zM53 930q0 19 8.5 37.5t24 32t37 22t48.5 8.5q49 0 86 -32q16 -13 23.5 -31t7.5 -37t-7.5 -37t-23.5 -31q-37 -32 -86 -32q-27 0 -48.5 8.5t-37 22.5
t-24 32t-8.5 37z" />
    <glyph glyph-name="quotedbl" unicode="&#x22;" horiz-adv-x="385" 
d="M259 418l-41 228q-3 15 -4.5 35.5t2.5 39.5t17.5 32t40.5 13q25 0 37.5 -12.5t17.5 -31t4 -38.5t-4 -35l-40 -231h-30zM99 418l-42 228q-2 15 -4 35.5t2.5 39.5t17.5 32t41 13q25 0 37.5 -12.5t17.5 -31t4 -38.5t-4 -35l-40 -231h-30z" />
    <glyph glyph-name="exclam" unicode="!" horiz-adv-x="304" 
d="M53 766h199v-477h-199v477zM53 199h199v-199h-199v199z" />
    <glyph glyph-name="uni0401" unicode="&#x401;" horiz-adv-x="1189" 
d="M48 521v10.5t1 11.5q3 45 17.5 78t44.5 64q8 8 16 15t17 15q33 26 67.5 37.5t90.5 13.5h21h813v-192h-889v-93h889v-198l-889 -2v-90h889v-191h-816q-66 0 -110 17t-81 52q-45 45 -63 85.5t-18 89.5v277zM626 926q0 37 28 67q13 14 30.5 21.5t36 7.5t36 -7t31.5 -21
q29 -29 29 -68.5t-28 -68.5q-28 -28 -67.5 -28t-67.5 28q-28 30 -28 69zM367 926q0 19 7.5 36.5t21.5 31.5q28 28 67 28t67 -29t28 -68t-28 -68q-29 -28 -68 -28t-67 28t-28 69z" />
    <glyph glyph-name="uni0410" unicode="&#x410;" horiz-adv-x="1085" 
d="M544 571l-93 -166h184zM326 581l31 62q4 5 7 10.5t6 10.5q37 57 72 82.5t73 33.5q60 10 107 -16.5t93 -99.5q4 -7 8 -13t8 -13l32 -61l319 -577h-225l-113 210h-401l-112 -210h-227z" />
    <glyph glyph-name="uni0411" unicode="&#x411;" horiz-adv-x="1212" 
d="M324 -3h574q51 0 98.5 18t83.5 49.5t58.5 75.5t22.5 97q0 51 -21 94t-56 74.5t-80 49t-95 17.5h-660v88h869v200h-820q-49 0 -93.5 -19.5t-78.5 -53.5t-54.5 -78.5t-20.5 -94.5v-516zM978 204h-729v89h729v-89z" />
    <glyph glyph-name="uni0412" unicode="&#x412;" 
d="M962 287h-710v-96h710v96zM953 574h-701v-89h701v89zM53 766h828q55 0 95 -6.5t69.5 -21.5t50 -38.5t37.5 -56.5q54 -113 -2 -228l-4 -8t-5 -8l-3 -5l-3 -7l5 -8l9 -14q4 -7 7 -13t8 -13q28 -53 28.5 -108t-24 -102t-73.5 -81t-120 -45q-20 -3 -41 -3h-862v766z" />
    <glyph glyph-name="uni0413" unicode="&#x413;" horiz-adv-x="1170" 
d="M1119 566v200h-831q-46 0 -88.5 -19.5t-75.5 -52t-53 -75t-20 -88.5v-531h199v566h869z" />
    <glyph glyph-name="uni0414" unicode="&#x414;" horiz-adv-x="1291" 
d="M51 0h1189v203h-79v326q0 50 -21.5 92t-57 72.5t-81 47t-95.5 16.5h-554q-50 0 -95 -17t-79 -48t-54.5 -73.5t-20.5 -92.5v-323h-52v-203zM971 203h-687v359h687v-359z" />
    <glyph glyph-name="uni0415" unicode="&#x415;" horiz-adv-x="1189" 
d="M48 521v10.5t1 11.5q3 45 17.5 78t44.5 64q8 8 16 15t17 15q33 26 67.5 37.5t90.5 13.5h21h813v-192h-889v-93h889v-198l-889 -2v-90h889v-191h-816q-66 0 -110 17t-81 52q-45 45 -63 85.5t-18 89.5v277z" />
    <glyph glyph-name="uni0416" unicode="&#x416;" horiz-adv-x="1381" 
d="M308 763h-252l328 -383l-333 -380h238l215 226q22 22 33.5 34.5t19.5 21.5t13.5 16.5t14.5 21.5v-320h213v324q7 -9 12.5 -18t14.5 -19.5t21.5 -25t32.5 -35.5l215 -226h236l-331 380l326 383h-251l-201 -228q-6 -7 -17 -19t-22 -25.5t-21.5 -27.5t-14.5 -25v325h-213
v-320q-6 10 -16 23.5t-21 26.5t-21 24.5t-16 17.5z" />
    <glyph glyph-name="uni0417" unicode="&#x417;" horiz-adv-x="1166" 
d="M51 763v-194h866v-89h-866v-198h866v-85h-863v-194h817q54 0 98.5 19t77 52t50.5 79.5t18 98.5q0 77 -49 134q20 35 32 72.5t12 76.5q0 53 -21 95t-57 71.5t-83 45.5t-98 16h-800z" />
    <glyph glyph-name="uni0418" unicode="&#x418;" horiz-adv-x="1167" 
d="M1116 595q0 48 -16 82.5t-43 57t-61 33t-71 10.5q-83 0 -159 -74l-521 -512v569h-194v-558q0 -43 13 -82.5t37 -68.5t59.5 -46t80.5 -17q44 0 84.5 17.5t76.5 56.5l521 508v-571h193v595z" />
    <glyph glyph-name="uni0419" unicode="&#x419;" horiz-adv-x="1167" 
d="M1116 595q0 48 -16 82.5t-43 57t-61 33t-71 10.5q-83 0 -159 -74l-521 -512v569h-194v-558q0 -43 13 -82.5t37 -68.5t59.5 -46t80.5 -17q44 0 84.5 17.5t76.5 56.5l521 508v-571h193v595zM498 1039q1 -3 2 -6.5t2 -6.5q4 -21 10 -36q17 -45 39.5 -60t51.5 -7
q16 5 29.5 20t25.5 47q3 8 5.5 16.5t5.5 19.5q2 8 2 13l121 -5q-3 -11 -6 -21t-8 -20q-32 -83 -84.5 -123t-108.5 -40q-57 0 -108.5 39.5t-85.5 123.5q-4 10 -7.5 20t-5.5 21z" />
    <glyph glyph-name="uni041A" unicode="&#x41a;" horiz-adv-x="1187" 
d="M736 762l-334 -195q-52 -31 -85 -59.5t-53 -72.5v328h-213v-763h213v324q18 -45 47.5 -72.5t78.5 -53.5l346 -198h400l-662 381l657 381h-395z" />
    <glyph glyph-name="uni041B" unicode="&#x41b;" horiz-adv-x="1198" 
d="M250 -4v572h695v-572h202v767h-859q-45 0 -87.5 -22t-76 -57.5t-53.5 -80t-20 -90.5v-517h199z" />
    <glyph glyph-name="uni041C" unicode="&#x41c;" horiz-adv-x="1278" 
d="M53 587q0 53 24 96.5t71 70.5q26 14 55.5 21t61.5 5q46 -2 81 -22t70 -64q26 -33 46 -81l175 -436l192 459q9 23 18 38.5t20 28.5q27 34 58 52t69 24q46 7 88 -6t74 -41.5t51 -71.5t19 -96v-564h-199v576l-188 -412l-11 -27l-13 -25q-29 -57 -59.5 -85.5t-65.5 -38.5
q-69 -19 -128.5 14t-111.5 133q-4 8 -8 15t-7 15l-183 402v-567h-199v587z" />
    <glyph glyph-name="uni041D" unicode="&#x41d;" horiz-adv-x="1193" 
d="M244 763h-193v-763h193v289h705v-289h193v763h-193v-280h-705v280z" />
    <glyph glyph-name="uni041E" unicode="&#x41e;" horiz-adv-x="1186" 
d="M940 574h-693v-383h693v383zM48 538q0 51 24.5 94t81.5 85q32 25 65.5 36t83.5 13h20h573q42 0 76 -11.5t66 -36.5q14 -10 28 -27q21 -23 35 -43t22.5 -40t12 -41.5t3.5 -45.5v-285q0 -49 -16.5 -86t-55.5 -78q-39 -38 -79 -55t-95 -17h-598q-31 0 -56.5 4.5t-47.5 14
t-42 25t-40 38.5q-32 35 -46.5 74t-14.5 92v290z" />
    <glyph glyph-name="uni041F" unicode="&#x41f;" horiz-adv-x="1198" 
d="M250 -4v572h695v-572h202v767h-1096v-767h199z" />
    <glyph glyph-name="uni0420" unicode="&#x420;" horiz-adv-x="1219" 
d="M896 763h-845v-763h205v282h663q49 0 94.5 19.5t80 52.5t54.5 77t20 95q0 52 -22 95.5t-60 75t-87 49t-103 17.5zM256 569h709v-97h-709v97z" />
    <glyph glyph-name="uni0421" unicode="&#x421;" horiz-adv-x="1199" 
d="M48 486q0 46 6.5 83t20 66t34.5 51.5t50 41.5q13 8 26.5 14.5t28.5 10.5q19 6 35 8.5t47 3.5l30 1h15h811v-192h-905v-383h905v-191h-849q-56 0 -94 13t-74 44q-48 42 -67.5 82.5t-19.5 87.5v259z" />
    <glyph glyph-name="uni0422" unicode="&#x422;" horiz-adv-x="1097" 
d="M5 766h1088v-192h-444v-574h-199v574h-445v192z" />
    <glyph glyph-name="uni0423" unicode="&#x423;" 
d="M53 191h915v102h-680q-51 0 -90.5 17.5t-77.5 59.5q-37 39 -52 75t-15 81v240h199v-282h716v282h200v-536q0 -50 -20.5 -91t-71.5 -83q-27 -22 -51.5 -33.5t-57.5 -18.5q-23 -4 -64 -4h-850v191z" />
    <glyph glyph-name="uni0424" unicode="&#x424;" horiz-adv-x="1275" 
d="M526 774v-122h-274q-45 0 -82.5 -11.5t-63.5 -32t-40.5 -48t-14.5 -62.5v-199q0 -47 25.5 -79.5t64.5 -52t85.5 -28.5t89.5 -9h210v-124h205v124h228q67 0 117 13.5t83 36.5t49 51.5t16 59.5v195q0 79 -61 122.5t-186 43.5h-246v122h-205zM1051 497v-204h-320v204h320z
M526 497v-204h-312v204h312z" />
    <glyph glyph-name="uni0425" unicode="&#x425;" horiz-adv-x="1098" 
d="M266 766l220 -256l29 -34l4 -6q8 -11 15 -21.5t15 -21.5q8 14 15 24.5t15 18.5l4 7l29 33l220 256h262l-349 -380l334 -386h-259l-203 243q-15 18 -25.5 31t-18 24.5t-13 23t-11.5 25.5q-6 -14 -11.5 -25t-13 -22.5t-18 -24.5t-26.5 -32l-203 -243h-258l333 386l-348 380
h262z" />
    <glyph glyph-name="uni0426" unicode="&#x426;" horiz-adv-x="1239" 
d="M1188 203h-80v554h-195v-554h-665v554h-197v-546q0 -52 21 -91.5t55.5 -66t78 -40t88.5 -13.5h894v203z" />
    <glyph glyph-name="uni0427" unicode="&#x427;" horiz-adv-x="1219" 
d="M974 406h-714v360h-209v-289q0 -65 22.5 -115t62.5 -84t94 -51.5t116 -17.5h628v-209h194v766h-194v-360z" />
    <glyph glyph-name="uni0428" unicode="&#x428;" horiz-adv-x="1178" 
d="M250 762h-199v-767h1076v767h-203v-573h-237v573h-207v-573h-230v573z" />
    <glyph glyph-name="uni0429" unicode="&#x429;" horiz-adv-x="1288" 
d="M250 762h-199v-767h1186v194h-110v573h-203v-573h-237v573h-206v-573h-231v573z" />
    <glyph glyph-name="uni042A" unicode="&#x42a;" horiz-adv-x="1312" 
d="M989 -4q51 0 100 17.5t87.5 49t61.5 75.5t23 96q0 51 -20 95t-54 77t-80 52t-95 19h-663v287h-298v-147h95v-621h843zM349 190v98h709v-98h-709z" />
    <glyph glyph-name="uni042B" unicode="&#x42b;" horiz-adv-x="1246" 
d="M648 -4q52 0 101.5 17.5t87 49t60.5 75.5t23 96q0 51 -20.5 95t-54.5 77t-79.5 52t-95.5 19h-414v286h-205v-767h597zM1195 763h-187v-769h187v769zM256 191v97h461v-97h-461z" />
    <glyph glyph-name="uni042C" unicode="&#x42c;" horiz-adv-x="1217" 
d="M894 -4q51 0 100 17.5t87 49t61.5 75.5t23.5 96q0 51 -20 95t-54.5 77t-80 52t-94.5 19h-664v286h-202v-767h843zM253 190v98h710v-98h-710z" />
    <glyph glyph-name="uni042D" unicode="&#x42d;" horiz-adv-x="1174" 
d="M851 766h-800v-197h877v-89h-877v-200h877v-80h-877v-203h803q52 0 101 18t86 50.5t59.5 77.5t22.5 100v277q0 58 -21.5 103.5t-58 77.5t-86 48.5t-106.5 16.5z" />
    <glyph glyph-name="uni042E" unicode="&#x42e;" horiz-adv-x="1213" 
d="M650 760q-35 0 -77 -17.5t-79 -46t-61 -64.5t-24 -72v-72h-159v265h-199v-751h199v272h159v-55q0 -43 21 -82t53 -69t69.5 -47.5t69.5 -17.5h298q47 0 91 18.5t78 50t54 73.5t20 90v282q0 48 -19.5 92.5t-53 77.5t-77 53t-90.5 20h-273zM962 563v-369h-356v369h356z" />
    <glyph glyph-name="uni042F" unicode="&#x42f;" horiz-adv-x="1177" 
d="M1126 761l-835 -1q-46 0 -88.5 -19.5t-74.5 -52t-51 -75.5t-19 -91q0 -35 11.5 -69t31.5 -64q-23 -28 -36.5 -62.5t-13.5 -66.5v-260h196v286h678v-286h201v761zM925 477h-678v92h678v-92z" />
    <glyph glyph-name="uni0430" unicode="&#x430;" horiz-adv-x="1219" 
d="M968 288h-715v-97h715v97zM968 481v93h-881v192h851q80 0 145 -56q32 -28 53.5 -69.5t28.5 -92.5q1 -8 1.5 -16t0.5 -16v-516h-862q-64 0 -116 26q-39 19 -68 47t-47 61t-24 70.5t0 76.5q6 37 24 70t45 59t61.5 44t74.5 24q19 3 39 3h674z" />
    <glyph glyph-name="uni0431" unicode="&#x431;" horiz-adv-x="1212" 
d="M324 -3h574q51 0 98.5 18t83.5 49.5t58.5 75.5t22.5 97q0 51 -21 94t-56 74.5t-80 49t-95 17.5h-660v88h869v200h-820q-49 0 -93.5 -19.5t-78.5 -53.5t-54.5 -78.5t-20.5 -94.5v-516zM978 204h-729v89h729v-89z" />
    <glyph glyph-name="uni0432" unicode="&#x432;" horiz-adv-x="1208" 
d="M865 763h-814v-763h848q50 0 96.5 19.5t82 53.5t57.5 79t22 96q0 35 -20 71t-40 67q43 67 43 143q0 60 -20.5 104.5t-57.5 73.5t-87.5 42.5t-109.5 13.5zM936 198h-683v88h683v-88zM936 483h-683v86h683v-86z" />
    <glyph glyph-name="uni0433" unicode="&#x433;" horiz-adv-x="1170" 
d="M1119 566v200h-831q-46 0 -88.5 -19.5t-75.5 -52t-53 -75t-20 -88.5v-531h199v566h869z" />
    <glyph glyph-name="uni0434" unicode="&#x434;" horiz-adv-x="1291" 
d="M51 0h1189v203h-79v326q0 50 -21.5 92t-57 72.5t-81 47t-95.5 16.5h-554q-50 0 -95 -17t-79 -48t-54.5 -73.5t-20.5 -92.5v-323h-52v-203zM971 203h-687v359h687v-359z" />
    <glyph glyph-name="uni0435" unicode="&#x435;" horiz-adv-x="1167" 
d="M921 574h-674v-91h674v91zM48 526q0 67 30 114q26 44 54 68t70 39q20 8 44.5 12t66.5 6q6 1 12.5 1h12.5h530q62 0 106 -19t86 -67q32 -36 46 -75t14 -96v-222h-873v-96h873v-191h-830q-56 0 -103.5 22.5t-85.5 70.5q-27 33 -40 67t-13 58v308z" />
    <glyph glyph-name="uni0436" unicode="&#x436;" horiz-adv-x="1381" 
d="M308 763h-252l328 -383l-333 -380h238l215 226q22 22 33.5 34.5t19.5 21.5t13.5 16.5t14.5 21.5v-320h213v324q7 -9 12.5 -18t14.5 -19.5t21.5 -25t32.5 -35.5l215 -226h236l-331 380l326 383h-251l-201 -228q-6 -7 -17 -19t-22 -25.5t-21.5 -27.5t-14.5 -25v325h-213
v-320q-6 10 -16 23.5t-21 26.5t-21 24.5t-16 17.5z" />
    <glyph glyph-name="uni0437" unicode="&#x437;" horiz-adv-x="1166" 
d="M51 763v-194h866v-89h-866v-198h866v-85h-863v-194h817q54 0 98.5 19t77 52t50.5 79.5t18 98.5q0 77 -49 134q20 35 32 72.5t12 76.5q0 53 -21 95t-57 71.5t-83 45.5t-98 16h-800z" />
    <glyph glyph-name="uni0438" unicode="&#x438;" horiz-adv-x="1167" 
d="M1116 595q0 48 -16 82.5t-43 57t-61 33t-71 10.5q-83 0 -159 -74l-521 -512v569h-194v-558q0 -43 13 -82.5t37 -68.5t59.5 -46t80.5 -17q44 0 84.5 17.5t76.5 56.5l521 508v-571h193v595z" />
    <glyph glyph-name="uni0439" unicode="&#x439;" horiz-adv-x="1167" 
d="M1116 595q0 48 -16 82.5t-43 57t-61 33t-71 10.5q-83 0 -159 -74l-521 -512v569h-194v-558q0 -43 13 -82.5t37 -68.5t59.5 -46t80.5 -17q44 0 84.5 17.5t76.5 56.5l521 508v-571h193v595zM498 1039q1 -3 2 -6.5t2 -6.5q4 -21 10 -36q17 -45 39.5 -60t51.5 -7
q16 5 29.5 20t25.5 47q3 8 5.5 16.5t5.5 19.5q2 8 2 13l121 -5q-3 -11 -6 -21t-8 -20q-32 -83 -84.5 -123t-108.5 -40q-57 0 -108.5 39.5t-85.5 123.5q-4 10 -7.5 20t-5.5 21z" />
    <glyph glyph-name="uni043A" unicode="&#x43a;" horiz-adv-x="1187" 
d="M736 762l-334 -195q-52 -31 -85 -59.5t-53 -72.5v328h-213v-763h213v324q18 -45 47.5 -72.5t78.5 -53.5l346 -198h400l-662 381l657 381h-395z" />
    <glyph glyph-name="uni043B" unicode="&#x43b;" horiz-adv-x="1198" 
d="M250 -4v572h695v-572h202v767h-859q-45 0 -87.5 -22t-76 -57.5t-53.5 -80t-20 -90.5v-517h199z" />
    <glyph glyph-name="uni043C" unicode="&#x43c;" horiz-adv-x="1174" 
d="M53 579q0 23 4 41.5t11 35.5q17 40 44 64.5t69 41.5q22 8 43.5 11t44.5 1q62 -5 111 -43q26 -20 42.5 -45.5t27.5 -56.5l136 -429l136 422q16 49 46 83q33 38 74.5 57t86.5 17q92 -3 149 -75q35 -44 42 -105q1 -8 1.5 -14.5t0.5 -14.5v-570h-200v547l-127 -380
q-34 -101 -84 -144.5t-120 -42.5q-45 1 -85 22.5t-75 67.5q-13 18 -24 39t-21 50l-134 385v-544h-199v579z" />
    <glyph glyph-name="uni043D" unicode="&#x43d;" horiz-adv-x="1193" 
d="M244 763h-193v-763h193v289h705v-289h193v763h-193v-280h-705v280z" />
    <glyph glyph-name="uni043E" unicode="&#x43e;" horiz-adv-x="1177" 
d="M322 760q-51 0 -99.5 -16.5t-87 -46.5t-61.5 -71.5t-23 -90.5v-289q0 -53 18.5 -97.5t51 -77t77 -50.5t96.5 -18h589q47 0 91 18.5t77.5 50t54 73.5t20.5 90v282q0 48 -20 92.5t-53 77.5t-76.5 53t-90.5 20h-564zM925 563v-369h-677v369h677z" />
    <glyph glyph-name="uni043F" unicode="&#x43f;" horiz-adv-x="1198" 
d="M250 -4v572h695v-572h202v767h-1096v-767h199z" />
    <glyph glyph-name="uni0440" unicode="&#x440;" horiz-adv-x="1174" 
d="M935 574h-683v-163h683v163zM53 766h830q41 0 82 -15q45 -17 80 -52t58 -88q25 -59 25 -121q-1 -60 -20.5 -110t-52.5 -86t-76 -55.5t-90 -19.5h-637v-219h-199v766z" />
    <glyph glyph-name="uni0441" unicode="&#x441;" horiz-adv-x="1189" 
d="M1138 762h-798q-143 0 -216 -69t-73 -212v-257q0 -49 21.5 -90t57 -71t80.5 -46.5t92 -16.5h836v190h-889v381h889v191z" />
    <glyph glyph-name="uni0442" unicode="&#x442;" horiz-adv-x="1187" 
d="M51 762v-193h444v-569h196v569h445v193h-1085z" />
    <glyph glyph-name="uni0443" unicode="&#x443;" 
d="M53 191h915v102h-680q-51 0 -90.5 17.5t-77.5 59.5q-37 39 -52 75t-15 81v240h199v-282h716v282h200v-536q0 -50 -20.5 -91t-71.5 -83q-27 -22 -51.5 -33.5t-57.5 -18.5q-23 -4 -64 -4h-850v191z" />
    <glyph glyph-name="uni0444" unicode="&#x444;" horiz-adv-x="1275" 
d="M526 774v-122h-274q-45 0 -82.5 -11.5t-63.5 -32t-40.5 -48t-14.5 -62.5v-199q0 -47 25.5 -79.5t64.5 -52t85.5 -28.5t89.5 -9h210v-124h205v124h228q67 0 117 13.5t83 36.5t49 51.5t16 59.5v195q0 79 -61 122.5t-186 43.5h-246v122h-205zM1051 497v-204h-320v204h320z
M526 497v-204h-312v204h312z" />
    <glyph glyph-name="uni0445" unicode="&#x445;" horiz-adv-x="1098" 
d="M266 766l220 -256l29 -34l4 -6q8 -11 15 -21.5t15 -21.5q8 14 15 24.5t15 18.5l4 7l29 33l220 256h262l-349 -380l334 -386h-259l-203 243q-15 18 -25.5 31t-18 24.5t-13 23t-11.5 25.5q-6 -14 -11.5 -25t-13 -22.5t-18 -24.5t-26.5 -32l-203 -243h-258l333 386l-348 380
h262z" />
    <glyph glyph-name="uni0446" unicode="&#x446;" horiz-adv-x="1239" 
d="M1188 203h-80v554h-195v-554h-665v554h-197v-546q0 -52 21 -91.5t55.5 -66t78 -40t88.5 -13.5h894v203z" />
    <glyph glyph-name="uni0447" unicode="&#x447;" horiz-adv-x="1219" 
d="M974 406h-714v360h-209v-289q0 -65 22.5 -115t62.5 -84t94 -51.5t116 -17.5h628v-209h194v766h-194v-360z" />
    <glyph glyph-name="uni0448" unicode="&#x448;" horiz-adv-x="1178" 
d="M250 762h-199v-767h1076v767h-203v-573h-237v573h-207v-573h-230v573z" />
    <glyph glyph-name="uni0449" unicode="&#x449;" horiz-adv-x="1288" 
d="M250 762h-199v-767h1186v194h-110v573h-203v-573h-237v573h-206v-573h-231v573z" />
    <glyph glyph-name="uni044A" unicode="&#x44a;" horiz-adv-x="1312" 
d="M989 -4q51 0 100 17.5t87.5 49t61.5 75.5t23 96q0 51 -20 95t-54 77t-80 52t-95 19h-663v287h-298v-147h95v-621h843zM349 190v98h709v-98h-709z" />
    <glyph glyph-name="uni044B" unicode="&#x44b;" horiz-adv-x="1246" 
d="M648 -4q52 0 101.5 17.5t87 49t60.5 75.5t23 96q0 51 -20.5 95t-54.5 77t-79.5 52t-95.5 19h-414v286h-205v-767h597zM1195 763h-187v-769h187v769zM256 191v97h461v-97h-461z" />
    <glyph glyph-name="uni044C" unicode="&#x44c;" horiz-adv-x="1217" 
d="M894 -4q51 0 100 17.5t87 49t61.5 75.5t23.5 96q0 51 -20 95t-54.5 77t-80 52t-94.5 19h-664v286h-202v-767h843zM253 190v98h710v-98h-710z" />
    <glyph glyph-name="uni044D" unicode="&#x44d;" horiz-adv-x="1174" 
d="M851 766h-800v-197h877v-89h-877v-200h877v-80h-877v-203h803q52 0 101 18t86 50.5t59.5 77.5t22.5 100v277q0 58 -21.5 103.5t-58 77.5t-86 48.5t-106.5 16.5z" />
    <glyph glyph-name="uni044E" unicode="&#x44e;" horiz-adv-x="1213" 
d="M650 760q-35 0 -77 -17.5t-79 -46t-61 -64.5t-24 -72v-72h-159v265h-199v-751h199v272h159v-55q0 -43 21 -82t53 -69t69.5 -47.5t69.5 -17.5h298q47 0 91 18.5t78 50t54 73.5t20 90v282q0 48 -19.5 92.5t-53 77.5t-77 53t-90.5 20h-273zM962 563v-369h-356v369h356z" />
    <glyph glyph-name="uni044F" unicode="&#x44f;" horiz-adv-x="1206" 
d="M254 404h701v170h-701v-170zM1154 0h-199v213h-698v-213h-199v170q0 19 5 39.5t22 56.5q2 5 5 11.5t6 11.5l8 15l5 10l-4 6l-3 6q-6 11 -12 25t-12 29q-10 29 -16.5 53t-8 47t1.5 46.5t11 50.5q17 62 48.5 103t70.5 61q29 16 58.5 21.5t57.5 3.5h853v-766z" />
    <glyph glyph-name="uni0451" unicode="&#x451;" horiz-adv-x="1167" 
d="M921 574h-674v-91h674v91zM48 526q0 67 30 114q26 44 54 68t70 39q20 8 44.5 12t66.5 6q6 1 12.5 1h12.5h530q62 0 106 -19t86 -67q32 -36 46 -75t14 -96v-222h-873v-96h873v-191h-830q-56 0 -103.5 22.5t-85.5 70.5q-27 33 -40 67t-13 58v308zM618 926q0 37 28 67
q13 14 30.5 21.5t36 7.5t36 -7t31.5 -21q29 -29 29 -68.5t-28 -68.5q-28 -28 -67.5 -28t-67.5 28q-28 30 -28 69zM359 926q0 19 7.5 36.5t21.5 31.5q28 28 67 28t67 -29t28 -68t-28 -68q-29 -28 -68 -28t-67 28t-28 69z" />
    <glyph glyph-name="uni0400" unicode="&#x400;" horiz-adv-x="1189" 
d="M48 521v10.5t1 11.5q3 45 17.5 78t44.5 64q8 8 16 15t17 15q33 26 67.5 37.5t90.5 13.5h21h813v-192h-889v-93h889v-198l-889 -2v-90h889v-191h-816q-66 0 -110 17t-81 52q-45 45 -63 85.5t-18 89.5v277zM578 1073l97 -187l-116 -56l-132 171z" />
    <glyph glyph-name="uni0402" unicode="&#x402;" horiz-adv-x="400" 
 />
    <glyph glyph-name="uni0403" unicode="&#x403;" horiz-adv-x="1170" 
d="M1119 566v200h-831q-46 0 -88.5 -19.5t-75.5 -52t-53 -75t-20 -88.5v-531h199v566h869zM601 1071l150 -72l-133 -171l-114 54z" />
    <glyph glyph-name="uni0404" unicode="&#x404;" horiz-adv-x="400" 
 />
    <glyph glyph-name="uni0405" unicode="&#x405;" horiz-adv-x="1285" 
d="M1185 766v-192h-925v-89h713q20 0 41 -3q42 -7 79.5 -24.5t66.5 -43.5q44 -39 63 -89.5t14.5 -102t-32 -98.5t-77.5 -79q-17 -11 -35 -19.5t-37 -13.5q-39 -12 -79 -12h-880v191h940v96h-725q-84 0 -152 45q-54 34 -81.5 82t-30 100t20 101.5t69.5 85.5q17 12 35 22.5
t40 19.5q29 11 60.5 17t65.5 6h846z" />
    <glyph glyph-name="uni0406" unicode="&#x406;" horiz-adv-x="304" 
d="M53 766h199v-766h-199v766z" />
    <glyph glyph-name="uni0407" unicode="&#x407;" horiz-adv-x="304" 
d="M53 766h199v-766h-199v766zM187 926q0 37 28 67q13 14 30.5 21.5t36 7.5t36 -7t31.5 -21q29 -29 29 -68.5t-28 -68.5q-28 -28 -67.5 -28t-67.5 28q-28 30 -28 69zM-72 926q0 19 7.5 36.5t21.5 31.5q28 28 67 28t67 -29t28 -68t-28 -68q-29 -28 -68 -28t-67 28t-28 69z
" />
    <glyph glyph-name="uni0408" unicode="&#x408;" horiz-adv-x="1181" 
d="M249 270v-79h681v575h199v-554q0 -45 -17.5 -81.5t-59.5 -74.5q-34 -29 -67.5 -42.5t-77.5 -13.5h-626q-84 0 -148 57q-18 17 -34 39.5t-30 51.5q-7 15 -12.5 31.5t-10.5 39.5q-8 34 -9.5 42.5t0.5 8.5h212z" />
    <glyph glyph-name="uni0409" unicode="&#x409;" horiz-adv-x="400" 
 />
    <glyph glyph-name="uni040A" unicode="&#x40a;" horiz-adv-x="400" 
 />
    <glyph glyph-name="uni040B" unicode="&#x40b;" horiz-adv-x="400" 
 />
    <glyph glyph-name="uni040C" unicode="&#x40c;" horiz-adv-x="1187" 
d="M736 762l-334 -195q-52 -31 -85 -59.5t-53 -72.5v328h-213v-763h213v324q18 -45 47.5 -72.5t78.5 -53.5l346 -198h400l-662 381l657 381h-395zM609 1071l150 -72l-133 -171l-114 54z" />
    <glyph glyph-name="uni040D" unicode="&#x40d;" horiz-adv-x="1167" 
d="M1116 595q0 48 -16 82.5t-43 57t-61 33t-71 10.5q-83 0 -159 -74l-521 -512v569h-194v-558q0 -43 13 -82.5t37 -68.5t59.5 -46t80.5 -17q44 0 84.5 17.5t76.5 56.5l521 508v-571h193v595zM570 1073l97 -187l-116 -56l-132 171z" />
    <glyph glyph-name="uni040E" unicode="&#x40e;" 
d="M53 191h915v102h-680q-51 0 -90.5 17.5t-77.5 59.5q-37 39 -52 75t-15 81v240h199v-282h716v282h200v-536q0 -50 -20.5 -91t-71.5 -83q-27 -22 -51.5 -33.5t-57.5 -18.5q-23 -4 -64 -4h-850v191zM524 1039q1 -3 2 -6.5t2 -6.5q4 -21 10 -36q17 -45 39.5 -60t51.5 -7
q16 5 29.5 20t25.5 47q3 8 5.5 16.5t5.5 19.5q2 8 2 13l121 -5q-3 -11 -6 -21t-8 -20q-32 -83 -84.5 -123t-108.5 -40q-57 0 -108.5 39.5t-85.5 123.5q-4 10 -7.5 20t-5.5 21z" />
    <glyph glyph-name="uni040F" unicode="&#x40f;" horiz-adv-x="400" 
 />
    <glyph glyph-name="uni0450" unicode="&#x450;" horiz-adv-x="1167" 
d="M921 574h-674v-91h674v91zM48 526q0 67 30 114q26 44 54 68t70 39q20 8 44.5 12t66.5 6q6 1 12.5 1h12.5h530q62 0 106 -19t86 -67q32 -36 46 -75t14 -96v-222h-873v-96h873v-191h-830q-56 0 -103.5 22.5t-85.5 70.5q-27 33 -40 67t-13 58v308zM570 1073l97 -187
l-116 -56l-132 171z" />
    <glyph glyph-name="uni0452" unicode="&#x452;" horiz-adv-x="400" 
 />
    <glyph glyph-name="uni0453" unicode="&#x453;" horiz-adv-x="1170" 
d="M1119 566v200h-831q-46 0 -88.5 -19.5t-75.5 -52t-53 -75t-20 -88.5v-531h199v566h869zM601 1071l150 -72l-133 -171l-114 54z" />
    <glyph glyph-name="uni0454" unicode="&#x454;" horiz-adv-x="400" 
 />
    <glyph glyph-name="uni0455" unicode="&#x455;" horiz-adv-x="1285" 
d="M1185 766v-192h-925v-89h713q20 0 41 -3q42 -7 79.5 -24.5t66.5 -43.5q44 -39 63 -89.5t14.5 -102t-32 -98.5t-77.5 -79q-17 -11 -35 -19.5t-37 -13.5q-39 -12 -79 -12h-880v191h940v96h-725q-84 0 -152 45q-54 34 -81.5 82t-30 100t20 101.5t69.5 85.5q17 12 35 22.5
t40 19.5q29 11 60.5 17t65.5 6h846z" />
    <glyph glyph-name="uni0456" unicode="&#x456;" horiz-adv-x="304" 
d="M53 766h199v-766h-199v766z" />
    <glyph glyph-name="uni0457" unicode="&#x457;" horiz-adv-x="304" 
d="M200 926q0 37 28 67q13 14 30.5 21.5t35.5 7.5t36 -7t32 -21q29 -29 29 -68.5t-28 -68.5q-28 -28 -67.5 -28t-67.5 28q-28 30 -28 69zM-60 926q0 19 7.5 36.5t21.5 31.5t31.5 21t36 7t35.5 -7.5t31 -21.5q28 -29 28 -68t-28 -68q-28 -28 -67.5 -28t-67.5 28
q-28 30 -28 69zM53 766h199v-766h-199v766z" />
    <glyph glyph-name="uni0458" unicode="&#x458;" horiz-adv-x="1181" 
d="M249 270v-79h681v575h199v-554q0 -45 -17.5 -81.5t-59.5 -74.5q-34 -29 -67.5 -42.5t-77.5 -13.5h-626q-84 0 -148 57q-18 17 -34 39.5t-30 51.5q-7 15 -12.5 31.5t-10.5 39.5q-8 34 -9.5 42.5t0.5 8.5h212z" />
    <glyph glyph-name="uni0459" unicode="&#x459;" horiz-adv-x="400" 
 />
    <glyph glyph-name="uni045A" unicode="&#x45a;" horiz-adv-x="400" 
 />
    <glyph glyph-name="uni045B" unicode="&#x45b;" horiz-adv-x="400" 
 />
    <glyph glyph-name="uni045C" unicode="&#x45c;" horiz-adv-x="1187" 
d="M736 762l-334 -195q-52 -31 -85 -59.5t-53 -72.5v328h-213v-763h213v324q18 -45 47.5 -72.5t78.5 -53.5l346 -198h400l-662 381l657 381h-395zM609 1071l150 -72l-133 -171l-114 54z" />
    <glyph glyph-name="uni045D" unicode="&#x45d;" horiz-adv-x="1167" 
d="M1116 595q0 48 -16 82.5t-43 57t-61 33t-71 10.5q-83 0 -159 -74l-521 -512v569h-194v-558q0 -43 13 -82.5t37 -68.5t59.5 -46t80.5 -17q44 0 84.5 17.5t76.5 56.5l521 508v-571h193v595zM570 1073l97 -187l-116 -56l-132 171z" />
    <glyph glyph-name="uni045E" unicode="&#x45e;" 
d="M53 191h915v102h-680q-51 0 -90.5 17.5t-77.5 59.5q-37 39 -52 75t-15 81v240h199v-282h716v282h200v-536q0 -50 -20.5 -91t-71.5 -83q-27 -22 -51.5 -33.5t-57.5 -18.5q-23 -4 -64 -4h-850v191zM524 1039q1 -3 2 -6.5t2 -6.5q4 -21 10 -36q17 -45 39.5 -60t51.5 -7
q16 5 29.5 20t25.5 47q3 8 5.5 16.5t5.5 19.5q2 8 2 13l121 -5q-3 -11 -6 -21t-8 -20q-32 -83 -84.5 -123t-108.5 -40q-57 0 -108.5 39.5t-85.5 123.5q-4 10 -7.5 20t-5.5 21z" />
    <glyph glyph-name="uni045F" unicode="&#x45f;" horiz-adv-x="400" 
 />
    </font>
</defs>
</svg>
