<?xml version="1.0" standalone="no"?>
<!DOCTYPE svg PUBLIC "-//W3C//DTD SVG 1.1//EN" "http://www.w3.org/Graphics/SVG/1.1/DTD/svg11.dtd" >
<svg xmlns="http://www.w3.org/2000/svg" xmlns:xlink="http://www.w3.org/1999/xlink" version="1.1">
<metadata>
Created by FontForge 20160405 at Thu Jun 28 13:07:22 2018
 By www-data
Copyright (c) 2011 by . All rights reserved.
</metadata>
<defs>
<font id="AmericanCaptain01" horiz-adv-x="425" >
  <font-face 
    font-family="American Captain 01"
    font-weight="400"
    font-variant="small-caps"
    font-stretch="normal"
    units-per-em="1000"
    panose-1="0 0 0 0 0 0 0 0 0 0"
    ascent="750"
    descent="-250"
    x-height="535"
    cap-height="727"
    bbox="-140 -339 1267 1026"
    underline-thickness="50"
    underline-position="-100"
    unicode-range="U+0020-FB06"
  />
<missing-glyph horiz-adv-x="125" 
 />
    <glyph glyph-name=".notdef" horiz-adv-x="125" 
 />
    <glyph glyph-name=".null" horiz-adv-x="0" 
 />
    <glyph glyph-name="CR" horiz-adv-x="125" 
 />
    <glyph glyph-name="space" unicode=" " horiz-adv-x="125" 
 />
    <glyph glyph-name="E" unicode="E" horiz-adv-x="343" 
d="M30 0v727h271l22 -118h-160v-200h123v-108h-123v-183h154l-23 -118h-264z" />
    <glyph glyph-name="F" unicode="F" horiz-adv-x="338" 
d="M30 0v727h271l22 -118h-160v-200h123v-108h-123v-301h-133z" />
    <glyph glyph-name="G" unicode="G" horiz-adv-x="408" 
d="M30 89v549c0 59 30 89 90 89h192l23 -118h-152c-18 0 -23 -10 -23 -25v-444c0 -16 5 -25 23 -25h73v299h125v-414h-261c-60 0 -90 30 -90 89z" />
    <glyph glyph-name="H" unicode="H" 
d="M395 727v-727h-131v298h-102v-298h-132v727h132v-321h102v321h131z" />
    <glyph glyph-name="Z" unicode="Z" horiz-adv-x="363" 
d="M348 727l-160 -609h141l-22 -118h-292l168 609h-157l23 118h299z" />
    <glyph glyph-name="Y" unicode="Y" horiz-adv-x="446" 
d="M291 0h-136v184l-140 543h133l75 -356l75 356h133l-140 -543v-184z" />
    <glyph glyph-name="X" unicode="X" horiz-adv-x="422" 
d="M273 0l-62 294l-62 -294h-134l90 378l-86 349h131l61 -296l61 296h131l-86 -349l90 -378h-134z" />
    <glyph glyph-name="W" unicode="W" horiz-adv-x="623" 
d="M425 294l55 433h133c-38 -246 -76 -482 -114 -727h-123l-65 403c-29 -124 -46 -280 -64 -403h-123l-114 727h133l53 -433l73 433h85z" />
    <glyph glyph-name="V" unicode="V" horiz-adv-x="426" 
d="M212 247l73 480h131l-135 -727h-137c-44 245 -90 482 -134 727h129z" />
    <glyph glyph-name="U" unicode="U" 
d="M292 0h-159c-77 0 -103 27 -103 102v625h132v-590c0 -19 3 -27 24 -27h53c21 0 25 8 25 27v590h131v-625c0 -75 -26 -102 -103 -102z" />
    <glyph glyph-name="T" unicode="T" horiz-adv-x="353" 
d="M43 727h269l31 -118h-101v-609h-132v609h-100z" />
    <glyph glyph-name="S" unicode="S" horiz-adv-x="375" 
d="M255 0h-189l-24 118h150c22 0 26 6 26 25v139c0 31 -7 30 -35 30h-81c-39 0 -72 12 -72 77v252c0 52 27 86 89 86h198l22 -118h-159c-19 0 -26 -5 -26 -24v-145c0 -23 2 -26 24 -26h98c41 0 69 -13 69 -61v-267c0 -59 -30 -86 -90 -86z" />
    <glyph glyph-name="R" unicode="R" horiz-adv-x="421" 
d="M242 617h-84v-280h84c19 0 24 7 24 26v228c0 16 -7 26 -24 26zM393 638v-345c0 -28 -25 -55 -71 -55l78 -238h-134l-72 238h-36v-238h-128v727h273c60 0 90 -30 90 -89z" />
    <glyph glyph-name="Q" unicode="Q" horiz-adv-x="429" 
d="M245 617h-61c-17 0 -24 -10 -24 -26v-455c0 -19 3 -26 24 -26h60c22 0 25 7 25 26v456c0 16 -5 25 -24 25zM120 727h190c63 0 89 -34 89 -86v-536c0 -75 -26 -105 -105 -105h-30v-60h-99v60h-30c-78 0 -105 30 -105 105v536c0 52 27 86 90 86z" />
    <glyph glyph-name="P" unicode="P" horiz-adv-x="415" 
d="M240 617h-82v-316h81c22 0 25 8 25 27v266c0 16 -6 23 -24 23zM388 642v-359c0 -53 -35 -85 -97 -85h-133v-198h-128v727h268c62 0 90 -33 90 -85z" />
    <glyph glyph-name="O" unicode="O" horiz-adv-x="426" 
d="M242 617h-59c-18 0 -23 -9 -23 -25v-456c0 -19 3 -26 24 -26h57c22 0 25 7 25 26v456c0 16 -6 25 -24 25zM396 641v-545c0 -52 -20 -96 -95 -96h-175c-75 0 -96 44 -96 96v545c0 52 27 86 90 86h187c62 0 89 -34 89 -86z" />
    <glyph glyph-name="N" unicode="N" horiz-adv-x="411" 
d="M30 0v727h123l103 -364v364h125v-727h-122l-106 367v-367h-123z" />
    <glyph glyph-name="M" unicode="M" horiz-adv-x="524" 
d="M261 80l-103 316v-396h-128v727h139l92 -314l93 314h140v-727h-128v396z" />
    <glyph glyph-name="L" unicode="L" horiz-adv-x="331" 
d="M30 0v727h136v-609h145l-23 -118h-258z" />
    <glyph glyph-name="K" unicode="K" horiz-adv-x="429" 
d="M162 408h33l81 319h138l-92 -334l90 -393h-146l-65 307h-39v-307h-132v727h132v-319z" />
    <glyph glyph-name="J" unicode="J" horiz-adv-x="410" 
d="M27 84v325h124v-271c0 -16 6 -25 24 -25h52c18 0 23 10 23 26v470h-156l23 118h263v-638c0 -52 -29 -89 -87 -89h-180c-54 0 -86 32 -86 84z" />
    <glyph glyph-name="I" unicode="I" horiz-adv-x="199" 
d="M35 0v727h129v-727h-129z" />
    <glyph glyph-name="zero" unicode="0" horiz-adv-x="424" 
d="M240 617h-57c-18 0 -23 -9 -23 -25v-456c0 -19 3 -26 24 -26h55c21 0 25 7 25 26v456c0 16 -6 25 -24 25zM30 93v541c0 53 30 93 91 93h183c60 0 90 -40 90 -93v-541c0 -53 -30 -93 -90 -93h-183c-61 0 -91 40 -91 93z" />
    <glyph glyph-name="one" unicode="1" horiz-adv-x="279" 
d="M20 609l47 118h143v-609h49v-118h-230v118h48v491h-57z" />
    <glyph glyph-name="two" unicode="2" horiz-adv-x="382" 
d="M352 640v-187c0 -32 -12 -47 -41 -70l-141 -113c-8 -6 -11 -15 -11 -25v-127h178l-24 -118h-283v258c0 44 13 71 49 99l138 105c11 8 13 14 13 23v105c0 17 -7 19 -21 19h-174l23 118h203c59 0 91 -28 91 -87z" />
    <glyph glyph-name="three" unicode="3" horiz-adv-x="355" 
d="M266 365c43 0 59 -26 59 -61v-215c0 -59 -30 -89 -89 -89h-190l-23 118h142c19 0 31 2 31 29v124c0 18 -2 27 -27 27h-111v108h109c24 0 29 6 29 31v145c0 24 -9 27 -26 27h-148l23 118h187c59 0 89 -28 89 -87v-205c0 -29 -14 -67 -55 -70z" />
    <glyph glyph-name="four" unicode="4" horiz-adv-x="445" 
d="M192 707v20h187v-494h41v-97h-41v-136h-127v136h-227v156zM147 233h105v304h-18l-87 -250v-54z" />
    <glyph glyph-name="five" unicode="5" horiz-adv-x="376" 
d="M346 344v-242c0 -75 -25 -102 -103 -102h-181l-23 118h158c13 0 19 6 19 20v179c0 15 -7 17 -17 17h-134c-11 13 -24 25 -35 38v355h276l22 -118h-172v-175h101c69 0 89 -30 89 -90z" />
    <glyph glyph-name="nine" unicode="9" horiz-adv-x="418" 
d="M258 347v249c0 16 -4 21 -19 21h-65c-13 0 -19 -4 -19 -21v-234c0 -12 4 -15 17 -15h86zM30 323v315c0 59 31 89 91 89h178c59 0 89 -30 89 -89v-533c0 -75 -28 -105 -106 -105h-205l-23 118h182c15 0 22 6 22 20v116h-158c-39 0 -70 22 -70 69z" />
    <glyph glyph-name="eight" unicode="8" horiz-adv-x="437" 
d="M245 620h-54c-22 0 -28 -8 -28 -27v-143c0 -22 9 -28 32 -28h47c23 0 31 6 31 28v143c0 19 -3 27 -28 27zM194 109h48c19 0 31 3 31 31v161c0 18 -6 28 -30 28h-50c-21 0 -30 -10 -30 -28v-161c0 -28 12 -31 31 -31zM296 0h-155c-78 0 -111 32 -111 107v183
c0 32 9 80 72 87c-62 11 -68 55 -68 89v153c0 75 38 108 116 108h137c78 0 116 -33 116 -108v-153c0 -34 -6 -78 -68 -89c63 -7 72 -55 72 -87v-183c0 -75 -33 -107 -111 -107z" />
    <glyph glyph-name="seven" unicode="7" horiz-adv-x="370" 
d="M12 609l22 118h321l-24 -80l-165 -647h-134l166 609h-186z" />
    <glyph glyph-name="six" unicode="6" horiz-adv-x="417" 
d="M160 362v-231c0 -16 5 -21 20 -21h64c13 0 20 4 20 22v211c0 13 -5 19 -18 19h-86zM283 0h-149c-78 0 -104 28 -104 103v543c0 47 31 81 79 81h220l23 -118h-170c-15 0 -22 -6 -22 -20v-138h157c43 0 70 -21 70 -69v-275c0 -75 -26 -107 -104 -107z" />
    <glyph glyph-name="grave" unicode="`" horiz-adv-x="385" 
d="M230 790l-173 114h135l125 -114h-87z" />
    <glyph glyph-name="braceleft" unicode="{" horiz-adv-x="251" 
d="M0 341v45c89 2 77 82 75 142c-5 153 -47 273 164 273h32v-46c-97 3 -68 -149 -65 -220c4 -68 -10 -160 -87 -171c77 -12 91 -103 87 -171c-3 -71 -32 -224 65 -221v-44h-32c-211 0 -169 118 -164 272c2 59 14 139 -75 141z" />
    <glyph glyph-name="bar" unicode="|" horiz-adv-x="175" 
d="M30 747h115v-976h-115v976z" />
    <glyph glyph-name="braceright" unicode="}" horiz-adv-x="251" 
d="M251 386v-45c-89 -2 -77 -82 -75 -141c5 -154 45 -272 -166 -272h-30v44c97 -3 68 150 64 221c-3 68 11 159 87 171c-76 11 -90 103 -87 171c4 71 33 223 -64 220v46h30c211 0 171 -120 166 -273c-2 -60 -14 -140 75 -142z" />
    <glyph glyph-name="uni00A0" unicode="&#xa0;" horiz-adv-x="100" 
 />
    <glyph glyph-name="brokenbar" unicode="&#xa6;" horiz-adv-x="175" 
d="M145 162v-391h-115v391h115zM145 747v-391h-115v391h115z" />
    <glyph glyph-name="section" unicode="&#xa7;" horiz-adv-x="415" 
d="M280 334c0 53 -24 71 -48 88h-53c-35 0 -40 -12 -40 -34v-28c0 -14 2 -29 11 -38l25 -22h78c19 0 27 18 27 34zM385 317c0 -40 -27 -84 -105 -84h-21c28 -31 44 -85 44 -145c0 -41 -18 -88 -98 -88h-153v91h118c19 0 22 9 22 22c0 65 -39 85 -79 110
c-41 24 -83 50 -83 126v68c0 45 44 85 127 83c-33 20 -44 48 -44 72v71c0 35 20 84 91 84h151v-81h-95c-35 0 -37 -10 -37 -33v-26c0 -41 40 -59 67 -76c45 -26 95 -52 95 -194z" />
    <glyph glyph-name="macron" unicode="&#xaf;" horiz-adv-x="421" 
d="M55 767l19 75h273l19 -75h-311z" />
    <glyph glyph-name="paragraph" unicode="&#xb6;" horiz-adv-x="575" 
d="M545 727v-114h-27v-613h-114v613h-98v-613h-109v266h-38c-105 0 -129 52 -129 100v250c0 72 45 111 110 111h405z" />
    <glyph glyph-name="divide" unicode="&#xf7;" horiz-adv-x="461" 
d="M230 597c39 0 71 -32 71 -70s-32 -70 -71 -70c-38 0 -70 32 -70 70s32 70 70 70zM230 272c39 0 71 -32 71 -71s-32 -71 -71 -71c-38 0 -70 32 -70 71s32 71 70 71zM30 315v98h401v-98h-401z" />
    <glyph glyph-name="D" unicode="D" horiz-adv-x="420" 
d="M239 617h-82v-507h81c21 0 24 7 24 26v456c0 16 -5 25 -23 25zM300 0h-270v727h270c60 0 90 -30 90 -89v-549c0 -59 -30 -89 -90 -89z" />
    <glyph glyph-name="exclam" unicode="!" horiz-adv-x="196" 
d="M55 186l-31 541h147l-32 -541h-84zM20 67c0 43 35 78 78 78s78 -35 78 -78s-35 -77 -78 -77s-78 34 -78 77z" />
    <glyph glyph-name="quotedbl" unicode="&#x22;" horiz-adv-x="319" 
d="M197 460l-19 285h114l-20 -285h-75zM47 460l-20 285h115l-19 -285h-76z" />
    <glyph glyph-name="numbersign" unicode="#" horiz-adv-x="460" 
d="M271 395h-61l-10 -63h60zM440 455l-11 -60h-89l-12 -63h89l-9 -60h-91l-48 -272h-69l49 272h-60l-49 -272h-69l48 272h-89l11 60h89l11 63h-90l13 60h89l48 272h69l-49 -272h60l50 272h67l-47 -272h89z" />
    <glyph glyph-name="dollar" unicode="$" horiz-adv-x="346" 
d="M192 188v78l-130 110c-31 27 -32 54 -32 93v102c0 44 25 72 75 72h43v84h58v-84h78l27 -113h-168v-68l141 -120c25 -21 32 -46 32 -80v-114c0 -44 -26 -63 -73 -63h-37v-85h-58v85h-78l-33 103h155z" />
    <glyph glyph-name="percent" unicode="%" horiz-adv-x="691" 
d="M124 549c0 -98 9 -115 35 -115s34 17 34 115s-8 115 -34 115s-35 -17 -35 -115zM288 549c0 -156 -50 -188 -129 -188s-129 32 -129 188s50 188 129 188s129 -32 129 -188zM441 732h95l-284 -737h-98zM497 178c0 -98 9 -115 35 -115s34 17 34 115s-8 115 -34 115
s-35 -17 -35 -115zM661 178c0 -156 -50 -188 -129 -188s-129 32 -129 188s50 188 129 188s129 -32 129 -188z" />
    <glyph glyph-name="ampersand" unicode="&#x26;" horiz-adv-x="545" 
d="M289 136l-114 239c-17 -3 -25 -8 -25 -45v-192c0 -30 7 -37 35 -37h44c23 0 48 5 60 35zM217 556l40 -81c46 -1 63 13 66 41c3 27 3 50 1 78c-3 36 -13 48 -45 48h-25c-37 0 -49 -20 -49 -47c0 -13 5 -24 12 -39zM497 118l24 -118h-110c-19 0 -50 1 -67 45
c-43 -50 -90 -48 -135 -48h-43c-107 0 -136 27 -136 140v231c0 47 39 93 109 98l-32 63c-35 60 -27 125 11 163c22 24 67 40 125 40h44c91 0 146 -34 146 -128v-60c0 -63 -10 -138 -142 -143l84 -176c16 28 37 80 38 130h99c-5 -61 -34 -161 -69 -210c-5 -10 -13 -27 18 -27
h36z" />
    <glyph glyph-name="quotesingle" unicode="'" horiz-adv-x="169" 
d="M47 460l-20 277h115l-19 -277h-76z" />
    <glyph glyph-name="parenleft" unicode="(" horiz-adv-x="267" 
d="M257 -40h-92c-82 108 -135 249 -135 403c0 156 53 294 135 404h92c-53 -125 -84 -261 -84 -404s29 -278 84 -403z" />
    <glyph glyph-name="parenright" unicode=")" horiz-adv-x="267" 
d="M10 -40c55 125 84 260 84 403s-31 279 -84 404h92c82 -110 135 -248 135 -404c0 -154 -53 -295 -135 -403h-92z" />
    <glyph glyph-name="asterisk" unicode="*" horiz-adv-x="387" 
d="M232 610l121 -28l-50 -86l-88 87l32 -122h-104l30 122l-87 -87l-50 86l120 28v6l-120 29l50 86l87 -90l-30 123h104l-28 -123l84 90l50 -86l-121 -29v-6z" />
    <glyph glyph-name="comma" unicode="," horiz-adv-x="216" 
d="M30 67c0 43 35 78 78 78s78 -35 78 -78c0 -45 -42 -107 -77 -138h-52c14 20 27 42 34 64c-41 5 -61 41 -61 74z" />
    <glyph glyph-name="hyphen" unicode="-" horiz-adv-x="282" 
d="M30 301l9 108h213l-9 -108h-213z" />
    <glyph glyph-name="period" unicode="." horiz-adv-x="216" 
d="M30 67c0 43 35 78 78 78s78 -35 78 -78s-35 -77 -78 -77s-78 34 -78 77z" />
    <glyph glyph-name="slash" unicode="/" horiz-adv-x="361" 
d="M241 737h100l-222 -747h-99z" />
    <glyph glyph-name="colon" unicode=":" horiz-adv-x="216" 
d="M30 444c0 43 35 78 78 78s78 -35 78 -78s-35 -77 -78 -77s-78 34 -78 77zM30 67c0 43 35 78 78 78s78 -35 78 -78s-35 -77 -78 -77s-78 34 -78 77z" />
    <glyph glyph-name="semicolon" unicode=";" horiz-adv-x="216" 
d="M30 444c0 43 35 78 78 78s78 -35 78 -78s-35 -77 -78 -77s-78 34 -78 77zM30 64c0 -33 19 -67 59 -74c-7 -22 -19 -44 -32 -64h52c35 31 77 93 77 138c0 43 -35 78 -78 78s-78 -35 -78 -78z" />
    <glyph glyph-name="question" unicode="?" horiz-adv-x="360" 
d="M330 640v-255c0 -37 -22 -63 -71 -63h-89v-136h-103v202c0 19 8 36 35 36h78c23 0 25 8 25 25v138c0 17 -8 22 -21 22h-164l23 118h200c60 0 87 -28 87 -87zM42 67c0 43 35 78 78 78s78 -35 78 -78s-35 -77 -78 -77s-78 34 -78 77z" />
    <glyph glyph-name="at" unicode="@" horiz-adv-x="547" 
d="M408 475h-56c-17 0 -21 -3 -21 -20v-175c0 -16 6 -19 18 -19h59v214zM220 238v252c0 45 27 62 71 62h117v45c0 26 3 32 -27 32h-201c-23 0 -30 -5 -30 -26v-468c0 -22 8 -25 27 -25h286c-8 -40 -16 -71 -24 -110h-328c-46 0 -81 20 -81 78v560c0 59 29 89 89 89h333
c40 0 65 -21 65 -57v-497h-109v38l-41 -38h-83c-44 0 -64 20 -64 65z" />
    <glyph glyph-name="bracketleft" unicode="[" horiz-adv-x="189" 
d="M30 798h164v-43h-46v-781h46v-45h-164v869z" />
    <glyph glyph-name="bracketright" unicode="]" horiz-adv-x="189" 
d="M-5 798h164v-869h-164v45h46v781h-46v43z" />
    <glyph glyph-name="underscore" unicode="_" horiz-adv-x="382" 
d="M30 -109v95h322v-95h-322z" />
    <glyph glyph-name="multiply" unicode="&#xd7;" horiz-adv-x="470" 
d="M30 500l68 69l136 -137l137 137l69 -69l-136 -136l136 -136l-69 -70l-137 137l-136 -137l-68 70l136 136z" />
    <glyph glyph-name="A" unicode="A" horiz-adv-x="424" 
d="M272 93h-120l-13 -93h-129l127 727h151l126 -727h-128zM213 549l-46 -359h91z" />
    <glyph glyph-name="B" unicode="B" horiz-adv-x="426" 
d="M243 617h-86v-218h81c16 0 28 9 28 30v163c0 16 -5 25 -23 25zM268 136v139c0 24 -13 31 -32 31h-79v-196h86c20 0 25 7 25 26zM342 354c39 -4 54 -37 54 -65v-184c0 -75 -28 -105 -106 -105h-260v727h269c60 0 90 -30 90 -89v-217c0 -32 -11 -59 -47 -67z" />
    <glyph glyph-name="C" unicode="C" horiz-adv-x="337" 
d="M293 0h-159c-78 0 -104 28 -104 103v543c0 52 36 81 80 81h184l23 -118h-129c-18 0 -23 -8 -23 -23v-445c0 -15 3 -23 21 -23h131z" />
    <glyph glyph-name="a" unicode="a" horiz-adv-x="385" 
d="M241 253h-84c-14 0 -20 -4 -20 -21v-102c0 -18 7 -20 21 -20h83v143zM222 424h-172l23 111h212c45 0 70 -23 70 -67v-468h-114v56l-47 -56h-101c-38 0 -63 22 -63 63v212c0 44 23 66 67 66h144v65c0 16 -5 18 -19 18z" />
    <glyph glyph-name="b" unicode="b" horiz-adv-x="391" 
d="M144 535h148c45 0 69 -22 69 -66v-406c0 -40 -21 -63 -61 -63h-108l-48 56v-56h-114v727h114v-192zM226 432h-82v-322h82c14 0 21 2 21 20v281c0 17 -7 21 -21 21z" />
    <glyph glyph-name="c" unicode="c" horiz-adv-x="320" 
d="M151 405v-271c0 -18 8 -20 21 -20h128l-24 -114h-185c-39 0 -61 23 -61 61v410c0 44 25 64 63 64h176l31 -111h-128c-13 0 -21 -3 -21 -19z" />
    <glyph glyph-name="d" unicode="d" horiz-adv-x="391" 
d="M98 535h149v192h114v-727h-114v56l-47 -56h-108c-40 0 -62 23 -62 63v405c0 44 24 67 68 67zM247 432h-83c-13 0 -20 -3 -20 -20v-283c0 -18 7 -19 20 -19h83v322z" />
    <glyph glyph-name="e" unicode="e" horiz-adv-x="380" 
d="M144 200v-68c0 -18 7 -18 20 -18h178l-24 -114h-227c-39 0 -61 22 -61 60v410c0 44 26 65 64 65h193c38 0 63 -20 63 -64v-271h-206zM144 412v-131h101v131c0 17 -8 20 -21 20h-60c-13 0 -20 -3 -20 -20z" />
    <glyph glyph-name="f" unicode="f" horiz-adv-x="314" 
d="M30 0v639c0 64 28 88 93 88h145l31 -111h-129c-19 0 -23 -6 -23 -22v-118h111v-102h-111v-374h-117z" />
    <glyph glyph-name="g" unicode="g" horiz-adv-x="390" 
d="M259 -210h-168l-38 98h172c11 0 19 1 19 17v151l-47 -56h-105c-40 0 -62 23 -62 63v405c0 44 23 67 67 67h263v-648c0 -65 -35 -97 -101 -97zM244 432h-79c-13 0 -21 -3 -21 -20v-290c0 -17 7 -19 20 -19h80v329z" />
    <glyph glyph-name="h" unicode="h" horiz-adv-x="391" 
d="M224 432h-78v-432h-116v727h116v-248l48 56h101c45 0 66 -23 66 -67v-468h-116v412c0 17 -7 20 -21 20z" />
    <glyph glyph-name="i" unicode="i" horiz-adv-x="180" 
d="M32 0v515l116 36v-551h-116zM90 738c42 0 76 -34 76 -77c0 -41 -34 -75 -76 -75s-76 34 -76 75c0 43 34 77 76 77z" />
    <glyph glyph-name="j" unicode="j" horiz-adv-x="180" 
d="M49 -210h-89l-37 95h91c15 0 18 9 18 19v611l116 36v-671c0 -63 -36 -90 -99 -90zM90 738c42 0 76 -34 76 -77c0 -41 -34 -75 -76 -75s-76 34 -76 75c0 43 34 77 76 77z" />
    <glyph glyph-name="k" unicode="k" horiz-adv-x="381" 
d="M163 354l93 181h118l-100 -200l99 -335h-129l-79 288h-19v-288h-116v727h116v-373h17z" />
    <glyph glyph-name="l" unicode="l" horiz-adv-x="184" 
d="M151 727v-727h-119v727h119z" />
    <glyph glyph-name="m" unicode="m" horiz-adv-x="604" 
d="M458 0v412c0 17 -7 20 -21 20h-78v-432h-114v412c0 17 -7 20 -21 20h-78v-432h-116v535h116v-56l48 56h310c45 0 70 -26 70 -70v-465h-116z" />
    <glyph glyph-name="n" unicode="n" horiz-adv-x="391" 
d="M223 432h-77v-432h-116v535h116v-56l48 56h100c45 0 67 -21 67 -65v-470h-116v413c0 17 -8 19 -22 19z" />
    <glyph glyph-name="z" unicode="z" horiz-adv-x="321" 
d="M10 0l144 424h-139l31 111h265l-138 -421h121l-24 -114h-260z" />
    <glyph glyph-name="y" unicode="y" horiz-adv-x="444" 
d="M137 -210l50 210h-51l-121 535h130l72 -395l84 395h128l-180 -745h-112z" />
    <glyph glyph-name="x" unicode="x" horiz-adv-x="389" 
d="M15 0l83 278l-83 257h125l54 -229l52 229h128l-84 -258l83 -277h-126l-54 227l-51 -227h-127z" />
    <glyph glyph-name="w" unicode="w" horiz-adv-x="619" 
d="M365 0l-53 288l-56 -288h-111l-130 535h130l65 -347l68 347h71l63 -343l64 343h128l-126 -535h-113z" />
    <glyph glyph-name="v" unicode="v" horiz-adv-x="426" 
d="M281 0h-140l-126 535h126l70 -404l72 404h128z" />
    <glyph glyph-name="u" unicode="u" horiz-adv-x="384" 
d="M159 100h65c14 0 17 8 17 18v417h113v-478c0 -34 -21 -57 -50 -57h-222c-30 0 -52 24 -52 57v478h112v-417c0 -10 3 -18 17 -18z" />
    <glyph glyph-name="t" unicode="t" horiz-adv-x="298" 
d="M175 732v-197h88v-111h-88v-290c0 -16 5 -20 20 -20h86l-24 -114h-131c-46 0 -69 26 -69 64v360h-35v111h35v108z" />
    <glyph glyph-name="s" unicode="s" horiz-adv-x="361" 
d="M220 133v81h-141c-28 0 -49 15 -49 51v202c0 44 30 68 68 68h192l31 -111h-158c-13 0 -19 -1 -19 -17v-81c0 -18 6 -17 19 -17h115c37 0 53 -18 53 -52v-191c0 -44 -29 -66 -67 -66h-201l-24 114h161c13 0 20 1 20 19z" />
    <glyph glyph-name="r" unicode="r" horiz-adv-x="315" 
d="M30 0v535h117v-56l48 56h107l-31 -111h-69l-52 -62v-362h-120z" />
    <glyph glyph-name="p" unicode="p" horiz-adv-x="391" 
d="M295 0h-103l-48 56v-266h-114v745h270c40 0 61 -23 61 -63v-405c0 -44 -21 -67 -66 -67zM144 110h80c14 0 23 5 23 23v277c0 18 -9 22 -23 22h-80v-322z" />
    <glyph glyph-name="o" unicode="o" horiz-adv-x="391" 
d="M164 105h63c14 0 20 2 20 19v292c0 17 -7 21 -21 21h-61c-13 0 -21 -4 -21 -21v-292c0 -17 7 -19 20 -19zM30 67v401c0 44 22 67 66 67h199c45 0 66 -23 66 -67v-401c0 -44 -21 -67 -66 -67h-199c-44 0 -66 23 -66 67z" />
    <glyph glyph-name="q" unicode="q" horiz-adv-x="391" 
d="M200 0h-104c-44 0 -66 23 -66 67v405c0 40 22 63 62 63h269v-647h53l-44 -98h-123v266zM164 110h83v322h-83c-13 0 -20 -1 -20 -19v-283c0 -18 7 -20 20 -20z" />
    <glyph glyph-name="less" unicode="&#x3c;" horiz-adv-x="421" 
d="M386 127l-356 191v91l356 191v-116l-251 -120l251 -121v-116z" />
    <glyph glyph-name="equal" unicode="=" horiz-adv-x="427" 
d="M35 231v97h357v-97h-357zM35 400v96h357v-96h-357z" />
    <glyph glyph-name="greater" unicode="&#x3e;" horiz-adv-x="421" 
d="M391 318l-356 -191v116l251 121l-251 120v116l356 -191v-91z" />
    <glyph glyph-name="plus" unicode="+" horiz-adv-x="478" 
d="M30 315v97h160v168h97v-168h161v-97h-161v-168h-97v168h-160z" />
    <glyph glyph-name="backslash" unicode="\" horiz-adv-x="361" 
d="M20 737h100l221 -747h-99z" />
    <glyph glyph-name="ellipsis" unicode="&#x2026;" horiz-adv-x="688" 
d="M50 67c0 43 35 78 78 78s78 -35 78 -78s-35 -77 -78 -77s-78 34 -78 77zM266 67c0 43 35 78 78 78s78 -35 78 -78s-35 -77 -78 -77s-78 34 -78 77zM482 67c0 43 35 78 78 78s78 -35 78 -78s-35 -77 -78 -77s-78 34 -78 77z" />
    <glyph glyph-name="germandbls" unicode="&#xdf;" horiz-adv-x="488" 
d="M30 0v632c0 96 68 105 157 105c139 0 206 -53 206 -152c0 -48 -15 -107 -44 -174c-9 -21 -13 -39 -13 -54c0 -32 11 -43 47 -65c35 -22 65 -41 78 -79c5 -15 7 -33 7 -92v-39c0 -70 -48 -82 -103 -82h-150v101h118c25 0 29 10 29 35c0 15 -3 33 -11 43
c-22 27 -58 36 -85 59c-38 32 -53 78 -47 130c4 37 21 92 35 121c16 31 24 62 24 87c0 44 -25 76 -90 71c-38 -3 -43 -18 -43 -53v-594h-115z" />
    <glyph glyph-name="Thorn" unicode="&#xde;" horiz-adv-x="421" 
d="M245 524h-87v-329h86c22 0 23 6 23 24v283c0 15 -4 22 -22 22zM391 549v-370c0 -53 -28 -86 -90 -86h-143v-93h-128v727h128v-93h143c62 0 90 -32 90 -85z" />
    <glyph glyph-name="endash" unicode="&#x2013;" horiz-adv-x="483" 
d="M30 283l10 130h413l-10 -130h-413z" />
    <glyph glyph-name="emdash" unicode="&#x2014;" horiz-adv-x="633" 
d="M30 283l10 130h563l-10 -130h-563z" />
    <glyph glyph-name="exclamdown" unicode="&#xa1;" horiz-adv-x="196" 
d="M24 -150l31 541h84l32 -541h-147zM20 510c0 43 35 77 78 77s78 -34 78 -77s-35 -78 -78 -78s-78 35 -78 78z" />
    <glyph glyph-name="questiondown" unicode="&#xbf;" horiz-adv-x="360" 
d="M30 192v-255c0 -59 27 -87 87 -87h200l23 118h-164c-13 0 -21 5 -21 22v138c0 17 2 25 25 25h78c27 0 35 17 35 36v202h-103v-136h-89c-49 0 -71 -26 -71 -63zM318 510c0 -43 -35 -78 -78 -78s-78 35 -78 78s35 77 78 77s78 -34 78 -77z" />
    <glyph glyph-name="dotlessi" unicode="&#x131;" horiz-adv-x="180" 
d="M32 0v515l116 36v-551h-116z" />
    <glyph glyph-name="caron" unicode="&#x2c7;" horiz-adv-x="462" 
d="M276 786h-93l-104 118h99l52 -65l50 65h101z" />
    <glyph glyph-name="ogonek" unicode="&#x2db;" horiz-adv-x="336" 
d="M78 -111c0 53 29 88 66 111c32 20 71 30 101 34v-28c-42 -8 -103 -46 -98 -105c4 -29 23 -39 46 -39c21 0 46 10 65 21l11 -24c-23 -37 -64 -54 -103 -54c-43 0 -88 25 -88 84z" />
    <glyph glyph-name="hungarumlaut" unicode="&#x2dd;" horiz-adv-x="437" 
d="M398 911l-138 -121h-83l115 121h106zM244 911l-125 -121h-79l97 121h107z" />
    <glyph glyph-name="ring" unicode="&#x2da;" horiz-adv-x="243" 
d="M30 847c0 50 41 92 91 92s92 -42 92 -92s-42 -91 -92 -91s-91 41 -91 91zM86 847c0 -18 17 -35 35 -35s35 17 35 35s-17 35 -35 35s-35 -17 -35 -35z" />
    <glyph glyph-name="dotaccent" unicode="&#x2d9;" horiz-adv-x="222" 
d="M41 826c0 39 31 70 70 70s70 -31 70 -70s-31 -70 -70 -70s-70 31 -70 70z" />
    <glyph glyph-name="breve" unicode="&#x2d8;" horiz-adv-x="206" 
d="M168 872h71c-1 -74 -57 -126 -136 -126s-135 52 -136 126h71c0 -42 30 -68 65 -68c37 0 65 26 65 68z" />
    <glyph glyph-name="Lslash" unicode="&#x141;" horiz-adv-x="382" 
d="M85 0v288l-65 -79v75l65 80v363h132v-197l65 79v-76l-65 -81v-334h148l-22 -118h-258z" />
    <glyph glyph-name="lslash" unicode="&#x142;" horiz-adv-x="302" 
d="M209 727v-209l73 91v-77l-73 -90v-442h-119v295l-70 -85v75l70 86v356h119z" />
    <glyph glyph-name="perthousand" unicode="&#x2030;" horiz-adv-x="995" 
d="M124 549c0 -98 9 -115 35 -115s34 17 34 115s-8 115 -34 115s-35 -17 -35 -115zM288 549c0 -156 -50 -188 -129 -188s-129 32 -129 188s50 188 129 188s129 -32 129 -188zM441 732h95l-284 -737h-98zM497 178c0 -98 9 -115 35 -115s34 17 34 115s-8 115 -34 115
s-35 -17 -35 -115zM661 178c0 -156 -50 -188 -129 -188s-129 32 -129 188s50 188 129 188s129 -32 129 -188zM801 178c0 -98 9 -115 35 -115s34 17 34 115s-8 115 -34 115s-35 -17 -35 -115zM965 178c0 -156 -50 -188 -129 -188s-129 32 -129 188s50 188 129 188
s129 -32 129 -188z" />
    <glyph glyph-name="dagger" unicode="&#x2020;" horiz-adv-x="478" 
d="M448 509c0 -40 -32 -74 -73 -74c-29 0 -55 20 -68 45c-48 -3 -37 -143 55 -143c-92 0 -124 -413 -124 -413s-30 413 -120 413c90 0 100 139 52 143c-12 -25 -37 -45 -67 -45c-41 0 -73 34 -73 74s32 75 73 75c31 0 63 -24 69 -54c26 4 39 23 36 69c-25 13 -42 38 -42 69
c0 40 34 72 72 72c40 0 74 -32 74 -72c0 -31 -18 -56 -42 -69c-4 -47 10 -65 37 -70c6 31 37 55 68 55c41 0 73 -35 73 -75z" />
    <glyph glyph-name="daggerdbl" unicode="&#x2021;" horiz-adv-x="478" 
d="M448 205c0 -40 -32 -75 -73 -75c-31 0 -62 24 -68 55c-27 -5 -41 -23 -37 -70c24 -13 42 -38 42 -69c0 -40 -34 -72 -74 -72c-38 0 -72 32 -72 72c0 31 17 56 42 69c3 46 -10 65 -36 69c-6 -30 -38 -54 -69 -54c-41 0 -73 35 -73 75s32 74 73 74c30 0 55 -20 67 -45
c48 4 38 123 -52 123c90 0 100 119 52 123c-12 -25 -37 -45 -67 -45c-41 0 -73 34 -73 74s32 75 73 75c31 0 63 -24 69 -54c26 4 39 23 36 69c-25 13 -42 38 -42 69c0 40 34 72 72 72c40 0 74 -32 74 -72c0 -31 -18 -56 -42 -69c-4 -47 10 -65 37 -70c6 31 37 55 68 55
c41 0 73 -35 73 -75s-32 -74 -73 -74c-29 0 -55 20 -68 45c-48 -3 -37 -123 55 -123c-92 0 -103 -120 -55 -123c13 25 39 45 68 45c41 0 73 -34 73 -74z" />
    <glyph glyph-name="trademark" unicode="&#x2122;" horiz-adv-x="662" 
d="M259 725v-49h-83v-317h-61v317h-85v49h229zM488 367h-44l-86 252v-260h-60v366h81l87 -255l86 255h80v-366h-58v260z" />
    <glyph glyph-name="registered" unicode="&#xae;" horiz-adv-x="794" 
d="M398 727c197 0 366 -154 366 -365c0 -214 -169 -368 -366 -368c-199 0 -368 154 -368 368c0 211 169 365 368 365zM398 665c-166 0 -294 -130 -294 -303c0 -177 128 -305 294 -305c164 0 292 128 292 305c0 173 -128 303 -292 303zM320 334v-184h-62v423h159
c97 0 145 -38 145 -121c-2 -75 -44 -108 -106 -116l119 -186h-71l-111 184h-73zM320 385h77c54 0 103 4 103 72c0 55 -48 65 -92 65h-88v-137z" />
    <glyph glyph-name="copyright" unicode="&#xa9;" horiz-adv-x="794" 
d="M398 727c197 0 366 -154 366 -365c0 -214 -169 -368 -366 -368c-199 0 -368 154 -368 368c0 211 169 365 368 365zM398 665c-166 0 -294 -130 -294 -303c0 -177 128 -305 294 -305c164 0 292 128 292 305c0 173 -128 303 -292 303zM523 293h66
c-19 -96 -90 -156 -179 -156c-130 0 -215 98 -215 226s81 223 212 223c92 0 167 -54 181 -152h-65c-11 53 -55 89 -115 89c-90 0 -139 -70 -139 -159c0 -87 54 -164 141 -164c61 0 105 38 113 93z" />
    <glyph glyph-name="florin" unicode="&#x192;" horiz-adv-x="499" 
d="M479 612h-55c-32 0 -43 -10 -51 -37l-31 -106h96c-12 -27 -18 -38 -28 -65h-86l-100 -361c-21 -78 -70 -98 -137 -98c-17 0 -36 0 -56 1l-31 53h4c48 -1 78 2 93 54l100 351h-54l24 65h45l57 191c14 51 56 67 97 67h90z" />
    <glyph glyph-name="degree" unicode="&#xb0;" horiz-adv-x="297" 
d="M30 646c0 65 54 119 118 119c65 0 119 -54 119 -119c0 -64 -54 -118 -119 -118c-64 0 -118 54 -118 118zM99 646c0 -28 21 -49 49 -49c27 0 50 21 50 49c0 27 -23 50 -50 50c-28 0 -49 -23 -49 -50z" />
    <glyph glyph-name="plusminus" unicode="&#xb1;" horiz-adv-x="477" 
d="M30 325v98h160v168h99v-168h158v-98h-158v-125h158v-99h-417v99h160v125h-160z" />
    <glyph glyph-name="Euro" unicode="&#x20ac;" horiz-adv-x="391" 
d="M196 118h174l-22 -118h-199c-78 0 -104 27 -104 102v134h-35v78h35v74h-35v79h35v181c0 52 36 79 80 79h222l24 -118h-173c-18 0 -23 -5 -23 -20v-122h190l-21 -79h-169v-74h154l-21 -78h-133v-97c0 -15 3 -21 21 -21z" />
    <glyph glyph-name="cent" unicode="&#xa2;" horiz-adv-x="296" 
d="M134 136h-37c-45 0 -67 23 -67 67v321c0 45 22 68 67 68h37v135h58v-135h67l22 -120h-128c-13 0 -19 0 -19 -19v-181c0 -18 6 -17 19 -17h128l-21 -119h-68v-136h-58v136z" />
    <glyph glyph-name="sterling" unicode="&#xa3;" horiz-adv-x="385" 
d="M56 400v243c0 58 39 84 81 84h193l23 -118h-146c-15 0 -22 -4 -22 -23v-186h149l-20 -84h-129v-198h180l-23 -118h-311v118h25v198h-36l11 84h25z" />
    <glyph glyph-name="yen" unicode="&#xa5;" horiz-adv-x="487" 
d="M66 106l8 71h104v58h-113l11 71h90l-151 421h135l94 -319l94 319h134l-150 -421h104l-11 -71h-107v-58h116l-8 -71h-108v-106h-130v106h-112z" />
    <glyph glyph-name="mu" unicode="&#xb5;" horiz-adv-x="390" 
d="M246 0v33c-7 -22 -26 -33 -52 -33h-52v-197h-112v732h114v-415c0 -17 8 -20 21 -20h61c13 0 20 3 20 20v415h114v-535h-114z" />
    <glyph glyph-name="mu" unicode="&#x3bc;" horiz-adv-x="390" 
d="M246 0v33c-7 -22 -26 -33 -52 -33h-52v-197h-112v732h114v-415c0 -17 8 -20 21 -20h61c13 0 20 3 20 20v415h114v-535h-114z" />
    <glyph glyph-name="periodcentered" unicode="&#xb7;" horiz-adv-x="216" 
d="M30 363c0 43 35 78 78 78s78 -35 78 -78s-35 -77 -78 -77s-78 34 -78 77z" />
    <glyph glyph-name="onequarter" unicode="&#xbc;" horiz-adv-x="729" 
d="M55 727l-35 -85h46v-375h-39v-85h173v85h-40v460h-105zM533 530v15h143v-370h36v-75h-36v-100h-95v100h-174v119zM502 175h79v230h-14l-65 -190v-40zM409 742h77l-221 -756h-76z" />
    <glyph glyph-name="onehalf" unicode="&#xbd;" horiz-adv-x="739" 
d="M55 727l-35 -85h46v-375h-39v-85h173v85h-40v460h-105zM411 742h77l-221 -756h-76zM714 480v-140c0 -24 -9 -36 -31 -53l-106 -85c-6 -4 -8 -11 -8 -18v-96h134l-18 -88h-213v193c0 33 10 54 37 75l104 78c8 6 9 11 9 18v78c0 13 -5 15 -15 15h-131l17 88h153
c44 0 68 -21 68 -65z" />
    <glyph glyph-name="threequarters" unicode="&#xbe;" horiz-adv-x="784" 
d="M595 530v15h143v-370h36v-75h-36v-100h-95v100h-174v119zM564 175h79v230h-14l-65 -190v-40zM471 742h77l-221 -756h-76zM223 456c31 2 42 30 42 52v154c0 44 -23 65 -67 65h-140l-18 -88h111c13 0 20 -3 20 -21v-108c0 -19 -4 -24 -22 -24h-82v-81h84c18 0 20 -6 20 -20
v-93c0 -20 -9 -22 -23 -22h-107l17 -88h143c44 0 67 22 67 67v161c0 26 -12 46 -45 46z" />
    <glyph glyph-name="cedilla" unicode="&#xb8;" horiz-adv-x="279" 
d="M117 9h54l-43 -65c13 5 34 7 41 7c45 0 80 -28 80 -75c0 -62 -55 -90 -111 -91c-38 -1 -77 8 -108 29l16 42c17 -11 45 -21 67 -21c28 0 52 12 52 42c0 20 -18 36 -39 36c-12 0 -24 -2 -39 -9l-34 20z" />
    <glyph glyph-name="quoteleft" unicode="&#x2018;" horiz-adv-x="203" 
d="M136 745l47 -285h-85l-78 285h116z" />
    <glyph glyph-name="quoteright" unicode="&#x2019;" horiz-adv-x="203" 
d="M20 460l47 285h116l-78 -285h-85z" />
    <glyph glyph-name="quotedblleft" unicode="&#x201c;" horiz-adv-x="346" 
d="M302 745l24 -285h-87l-56 285h119zM138 745l39 -285h-88l-69 285h118z" />
    <glyph glyph-name="quotedblright" unicode="&#x201d;" horiz-adv-x="346" 
d="M20 460l24 285h119l-56 -285h-87zM169 460l39 285h118l-69 -285h-88z" />
    <glyph glyph-name="guillemotright" unicode="&#xbb;" horiz-adv-x="435" 
d="M124 442l121 -221l-121 -221h-114l118 221l-118 221h114zM303 442l117 -221l-117 -221h-117l121 221l-121 221h117z" />
    <glyph glyph-name="bullet" unicode="&#x2022;" horiz-adv-x="336" 
d="M35 328c0 75 58 134 132 134s134 -59 134 -134c0 -74 -60 -134 -134 -134s-132 60 -132 134z" />
    <glyph glyph-name="dieresis" unicode="&#xa8;" horiz-adv-x="366" 
d="M32 856c0 36 28 67 66 67c36 0 64 -31 64 -67s-28 -66 -64 -66c-38 0 -66 30 -66 66zM202 856c0 36 29 67 66 67s66 -31 66 -67s-29 -66 -66 -66s-66 30 -66 66z" />
    <glyph glyph-name="tilde" unicode="&#x2dc;" horiz-adv-x="368" 
d="M280 907h57c6 -65 -21 -112 -90 -112c-55 0 -78 36 -125 36c-22 0 -36 -11 -36 -37h-55c-3 69 38 113 94 113c51 0 89 -38 121 -38c20 0 36 15 34 38z" />
    <glyph glyph-name="circumflex" unicode="&#x2c6;" horiz-adv-x="368" 
d="M137 900h93l105 -118h-101l-50 65l-52 -65h-99z" />
    <glyph glyph-name="acute" unicode="&#xb4;" horiz-adv-x="324" 
d="M292 904l-173 -114h-87l125 114h135z" />
    <glyph glyph-name="Aring" unicode="&#xc5;" horiz-adv-x="424" 
d="M272 93h-120l-13 -93h-129l127 727h151l126 -727h-128zM213 549l-46 -359h91zM122 848c0 50 41 92 91 92s92 -42 92 -92s-42 -91 -92 -91s-91 41 -91 91zM178 848c0 -18 17 -35 35 -35s35 17 35 35s-17 35 -35 35s-35 -17 -35 -35z" />
    <glyph glyph-name="Adieresis" unicode="&#xc4;" horiz-adv-x="424" 
d="M272 93h-120l-13 -93h-129l127 727h151l126 -727h-128zM213 549l-46 -359h91zM63 823c0 36 28 67 66 67c36 0 64 -31 64 -67s-28 -66 -64 -66c-38 0 -66 30 -66 66zM233 823c0 36 29 67 66 67s66 -31 66 -67s-29 -66 -66 -66s-66 30 -66 66z" />
    <glyph glyph-name="Atilde" unicode="&#xc3;" horiz-adv-x="424" 
d="M272 93h-120l-13 -93h-129l127 727h151l126 -727h-128zM213 549l-46 -359h91zM309 870h57c6 -65 -21 -112 -90 -112c-55 0 -78 36 -125 36c-22 0 -36 -11 -36 -37h-55c-3 69 38 113 94 113c51 0 89 -38 121 -38c20 0 36 15 34 38z" />
    <glyph glyph-name="Acircumflex" unicode="&#xc2;" horiz-adv-x="424" 
d="M272 93h-120l-13 -93h-129l127 727h151l126 -727h-128zM213 549l-46 -359h91zM166 876h93l105 -118h-101l-50 65l-52 -65h-99z" />
    <glyph glyph-name="Aacute" unicode="&#xc1;" horiz-adv-x="424" 
d="M272 93h-120l-13 -93h-129l127 727h151l126 -727h-128zM213 549l-46 -359h91zM422 876l-173 -114h-87l125 114h135z" />
    <glyph glyph-name="Agrave" unicode="&#xc0;" horiz-adv-x="424" 
d="M272 93h-120l-13 -93h-129l127 727h151l126 -727h-128zM213 549l-46 -359h91zM175 762l-173 114h135l125 -114h-87z" />
    <glyph glyph-name="Edieresis" unicode="&#xcb;" horiz-adv-x="343" 
d="M30 727v-727h264l23 118h-154v183h123v108h-123v200h160l-22 118h-271zM22 823c0 36 28 67 66 67c36 0 64 -31 64 -67s-28 -66 -64 -66c-38 0 -66 30 -66 66zM192 823c0 36 29 67 66 67s66 -31 66 -67s-29 -66 -66 -66s-66 30 -66 66z" />
    <glyph glyph-name="Ccedilla" unicode="&#xc7;" horiz-adv-x="337" 
d="M86 -181l16 42c17 -11 45 -21 67 -21c28 0 52 12 52 42c0 20 -18 36 -39 36c-12 0 -24 -2 -39 -9l-34 20l54 71h-29c-78 0 -104 28 -104 103v543c0 52 36 81 80 81h184l23 -118h-130c-18 0 -22 -8 -22 -23v-445c0 -15 3 -23 21 -23h131l-24 -118h-76l-33 -51
c13 5 34 7 41 7c45 0 80 -28 80 -75c0 -62 -55 -90 -111 -91c-38 -1 -77 8 -108 29z" />
    <glyph glyph-name="ccedilla" unicode="&#xe7;" horiz-adv-x="320" 
d="M151 405v-271c0 -18 8 -20 21 -20h128l-24 -114h-76l-33 -51c13 5 34 7 41 7c45 0 80 -28 80 -75c0 -62 -55 -90 -111 -91c-38 -1 -77 8 -108 29l16 42c17 -11 45 -21 67 -21c28 0 52 12 52 42c0 20 -18 36 -39 36c-12 0 -24 -2 -39 -9l-34 20l53 71h-54
c-39 0 -61 23 -61 61v410c0 44 25 64 63 64h176l31 -111h-128c-13 0 -21 -3 -21 -19z" />
    <glyph glyph-name="Ecircumflex" unicode="&#xca;" horiz-adv-x="343" 
d="M30 727v-727h264l23 118h-154v183h123v108h-123v200h160l-22 118h-271zM124 876h93l105 -118h-101l-50 65l-52 -65h-99z" />
    <glyph glyph-name="Eacute" unicode="&#xc9;" horiz-adv-x="343" 
d="M30 727v-727h264l23 118h-154v183h123v108h-123v200h160l-22 118h-271zM392 876l-173 -114h-87l125 114h135z" />
    <glyph glyph-name="Egrave" unicode="&#xc8;" horiz-adv-x="343" 
d="M30 0v727h271l22 -118h-160v-200h123v-108h-123v-183h154l-23 -118h-264zM145 762l-173 114h135l125 -114h-87z" />
    <glyph glyph-name="AE" unicode="&#xc6;" horiz-adv-x="626" 
d="M317 93h-139l-31 -93h-137l266 727h307l23 -118h-160v-200h123v-108h-123v-183h154l-23 -118h-260v93zM317 532l-108 -342h108v342z" />
    <glyph glyph-name="thorn" unicode="&#xfe;" horiz-adv-x="391" 
d="M295 0h-103l-48 56v-266h-114v937h114v-197h156c40 0 61 -23 61 -63v-400c0 -44 -21 -67 -66 -67zM144 110h80c14 0 23 5 23 23v272c0 18 -9 22 -23 22h-80v-317z" />
    <glyph glyph-name="OE" unicode="&#x152;" horiz-adv-x="581" 
d="M126 0c-75 0 -96 44 -96 96v545c0 52 27 86 90 86h419c7 -43 15 -76 22 -118h-160v-200h123v-108h-123v-183h154c-7 -43 -15 -77 -23 -118h-406zM266 609h-83c-18 0 -23 -9 -23 -25v-440c0 -19 3 -26 24 -26h82v491z" />
    <glyph glyph-name="Eth" unicode="&#xd0;" horiz-adv-x="435" 
d="M10 312l10 102h20v313h276c60 0 89 -30 89 -89v-549c0 -59 -29 -89 -89 -89h-276v312h-30zM256 617h-88v-203h46l-10 -102h-36v-202h85c19 0 25 3 25 22v463c0 16 -3 22 -22 22z" />
    <glyph glyph-name="Zcaron" unicode="&#x17d;" horiz-adv-x="363" 
d="M348 727l-160 -609h141l-22 -118h-292l168 609h-157l23 118h299zM240 762h-93l-104 118h99l52 -65l50 65h101z" />
    <glyph glyph-name="Scaron" unicode="&#x160;" horiz-adv-x="375" 
d="M255 0h-189l-24 118h150c22 0 26 6 26 25v139c0 31 -7 30 -35 30h-81c-39 0 -72 12 -72 77v252c0 52 27 86 89 86h198l22 -118h-159c-19 0 -26 -5 -26 -24v-145c0 -23 2 -26 24 -26h98c41 0 69 -13 69 -61v-267c0 -59 -30 -86 -90 -86zM236 762h-93l-104 118h99l52 -65
l50 65h101z" />
    <glyph glyph-name="Ydieresis" unicode="&#x178;" horiz-adv-x="446" 
d="M291 0h-136v184l-140 543h133l75 -356l75 356h133l-140 -543v-184zM72 823c0 36 28 67 66 67c36 0 64 -31 64 -67s-28 -66 -64 -66c-38 0 -66 30 -66 66zM242 823c0 36 29 67 66 67s66 -31 66 -67s-29 -66 -66 -66s-66 30 -66 66z" />
    <glyph glyph-name="Idieresis" unicode="&#xcf;" horiz-adv-x="199" 
d="M35 727v-727h129v727h-129zM-51 823c0 36 28 67 66 67c36 0 64 -31 64 -67s-28 -66 -64 -66c-38 0 -66 30 -66 66zM119 823c0 36 29 67 66 67s66 -31 66 -67s-29 -66 -66 -66s-66 30 -66 66z" />
    <glyph glyph-name="Icircumflex" unicode="&#xce;" horiz-adv-x="199" 
d="M35 727v-727h129v727h-129zM51 876h93l105 -118h-101l-50 65l-52 -65h-99z" />
    <glyph glyph-name="Iacute" unicode="&#xcd;" horiz-adv-x="199" 
d="M35 727v-727h129v727h-129zM315 876l-173 -114h-87l125 114h135z" />
    <glyph glyph-name="Igrave" unicode="&#xcc;" horiz-adv-x="199" 
d="M35 0v727h129v-727h-129zM57 762l-173 114h135l125 -114h-87z" />
    <glyph glyph-name="Ntilde" unicode="&#xd1;" horiz-adv-x="411" 
d="M30 727v-727h123v367l106 -367h122v727h-125v-364l-103 364h-123zM312 870h57c6 -65 -21 -112 -90 -112c-55 0 -78 36 -125 36c-22 0 -36 -11 -36 -37h-55c-3 69 38 113 94 113c51 0 89 -38 121 -38c20 0 36 15 34 38z" />
    <glyph glyph-name="Odieresis" unicode="&#xd6;" horiz-adv-x="426" 
d="M242 617h-59c-18 0 -23 -9 -23 -25v-456c0 -19 3 -26 24 -26h57c22 0 25 7 25 26v456c0 16 -6 25 -24 25zM396 641v-545c0 -52 -20 -96 -95 -96h-175c-75 0 -96 44 -96 96v545c0 52 27 86 90 86h187c62 0 89 -34 89 -86zM63 823c0 36 28 67 66 67c36 0 64 -31 64 -67
s-28 -66 -64 -66c-38 0 -66 30 -66 66zM233 823c0 36 29 67 66 67s66 -31 66 -67s-29 -66 -66 -66s-66 30 -66 66z" />
    <glyph glyph-name="Otilde" unicode="&#xd5;" horiz-adv-x="426" 
d="M242 617h-59c-18 0 -23 -9 -23 -25v-456c0 -19 3 -26 24 -26h57c22 0 25 7 25 26v456c0 16 -6 25 -24 25zM396 641v-545c0 -52 -20 -96 -95 -96h-175c-75 0 -96 44 -96 96v545c0 52 27 86 90 86h187c62 0 89 -34 89 -86zM308 870h57c6 -65 -21 -112 -90 -112
c-55 0 -78 36 -125 36c-22 0 -36 -11 -36 -37h-55c-3 69 38 113 94 113c51 0 89 -38 121 -38c20 0 36 15 34 38z" />
    <glyph glyph-name="Ocircumflex" unicode="&#xd4;" horiz-adv-x="426" 
d="M242 617h-59c-18 0 -23 -9 -23 -25v-456c0 -19 3 -26 24 -26h57c22 0 25 7 25 26v456c0 16 -6 25 -24 25zM396 641v-545c0 -52 -20 -96 -95 -96h-175c-75 0 -96 44 -96 96v545c0 52 27 86 90 86h187c62 0 89 -34 89 -86zM166 876h93l105 -118h-101l-50 65l-52 -65h-99z
" />
    <glyph glyph-name="Oacute" unicode="&#xd3;" horiz-adv-x="426" 
d="M242 617h-59c-18 0 -23 -9 -23 -25v-456c0 -19 3 -26 24 -26h57c22 0 25 7 25 26v456c0 16 -6 25 -24 25zM396 641v-545c0 -52 -20 -96 -95 -96h-175c-75 0 -96 44 -96 96v545c0 52 27 86 90 86h187c62 0 89 -34 89 -86zM426 876l-173 -114h-87l125 114h135z" />
    <glyph glyph-name="Ograve" unicode="&#xd2;" horiz-adv-x="426" 
d="M242 617h-59c-18 0 -23 -9 -23 -25v-456c0 -19 3 -26 24 -26h57c22 0 25 7 25 26v456c0 16 -6 25 -24 25zM396 641v-545c0 -52 -20 -96 -95 -96h-175c-75 0 -96 44 -96 96v545c0 52 27 86 90 86h187c62 0 89 -34 89 -86zM173 762l-173 114h135l125 -114h-87z" />
    <glyph glyph-name="Oslash" unicode="&#xd8;" horiz-adv-x="426" 
d="M396 641v-545c0 -52 -20 -96 -95 -96h-175c-18 0 -43 2 -56 9l-14 -28l-29 15l16 31c-15 20 -13 43 -13 69v545c0 52 27 86 90 86h187c18 0 32 -3 49 -10l14 28l28 -13l-18 -37c10 -16 16 -34 16 -54zM246 617h-67c-18 0 -21 -7 -21 -23v-340l110 294v46
c0 16 -3 23 -22 23zM245 110c22 0 23 3 23 22v325l-110 -292v-33c0 -19 1 -22 22 -22h65z" />
    <glyph glyph-name="oslash" unicode="&#xf8;" horiz-adv-x="392" 
d="M345 555l36 -19l-24 -39c2 -9 4 -18 4 -29v-401c0 -44 -21 -67 -66 -67h-199c-15 0 -27 2 -37 7l-14 -23l-34 18l22 37c-2 8 -3 17 -3 28v401c0 44 22 67 66 67h199c13 0 24 -2 34 -6zM144 416v-199l103 181v18c0 17 -7 21 -21 21h-61c-13 0 -21 -4 -21 -21zM164 105h63
c14 0 20 2 20 19v197l-103 -180v-19c0 -17 7 -17 20 -17z" />
    <glyph glyph-name="Yacute" unicode="&#xdd;" horiz-adv-x="446" 
d="M291 0h-136v184l-140 543h133l75 -356l75 356h133l-140 -543v-184zM444 876l-173 -114h-87l125 114h135z" />
    <glyph glyph-name="Udieresis" unicode="&#xdc;" 
d="M292 0h-159c-77 0 -103 27 -103 102v625h132v-590c0 -19 3 -27 24 -27h53c21 0 25 8 25 27v590h131v-625c0 -75 -26 -102 -103 -102zM63 823c0 36 28 67 66 67c36 0 64 -31 64 -67s-28 -66 -64 -66c-38 0 -66 30 -66 66zM233 823c0 36 29 67 66 67s66 -31 66 -67
s-29 -66 -66 -66s-66 30 -66 66z" />
    <glyph glyph-name="Ucircumflex" unicode="&#xdb;" 
d="M292 0h-159c-77 0 -103 27 -103 102v625h132v-590c0 -19 3 -27 24 -27h53c21 0 25 8 25 27v590h131v-625c0 -75 -26 -102 -103 -102zM167 876h93l105 -118h-101l-50 65l-52 -65h-99z" />
    <glyph glyph-name="Uacute" unicode="&#xda;" 
d="M292 0h-159c-77 0 -103 27 -103 102v625h132v-590c0 -19 3 -27 24 -27h53c21 0 25 8 25 27v590h131v-625c0 -75 -26 -102 -103 -102zM425 876l-173 -114h-87l125 114h135z" />
    <glyph glyph-name="Ugrave" unicode="&#xd9;" 
d="M292 0h-159c-77 0 -103 27 -103 102v625h132v-590c0 -19 3 -27 24 -27h53c21 0 25 8 25 27v590h131v-625c0 -75 -26 -102 -103 -102zM173 762l-173 114h135l125 -114h-87z" />
    <glyph glyph-name="guillemotleft" unicode="&#xab;" horiz-adv-x="435" 
d="M190 221l121 221h114l-118 -221l118 -221h-114zM15 221l117 221h117l-121 -221l121 -221h-117z" />
    <glyph glyph-name="guilsinglleft" unicode="&#x2039;" horiz-adv-x="259" 
d="M15 221l117 221h117l-121 -221l121 -221h-117z" />
    <glyph glyph-name="guilsinglright" unicode="&#x203a;" horiz-adv-x="260" 
d="M124 442l121 -221l-121 -221h-114l118 221l-118 221h114z" />
    <glyph glyph-name="minus" unicode="&#x2212;" horiz-adv-x="333" 
d="M30 301l10 108h263l-10 -108h-263z" />
    <glyph glyph-name="ordfeminine" unicode="&#xaa;" horiz-adv-x="340" 
d="M214 640h-71c-11 0 -16 -3 -16 -17v-240c0 -15 5 -16 16 -16h71v273zM310 727v-453h-96v47l-40 -47h-91c-32 0 -53 18 -53 53v343c0 38 19 57 56 57h224z" />
    <glyph glyph-name="twosuperior" unicode="&#xb2;" horiz-adv-x="291" 
d="M266 662v-140c0 -24 -9 -36 -30 -53l-106 -85c-6 -4 -8 -11 -8 -18v-96h133l-18 -88h-212v193c0 33 10 54 37 75l103 78c8 6 10 11 10 18v79c0 13 -5 14 -16 14h-130l17 88h152c44 0 68 -21 68 -65z" />
    <glyph glyph-name="threesuperior" unicode="&#xb3;" horiz-adv-x="282" 
d="M208 456c32 0 44 -20 44 -47v-160c0 -45 -23 -67 -67 -67h-142l-17 88h106c14 0 23 2 23 22v93c0 13 -1 20 -20 20h-83v82h82c17 0 21 4 21 23v108c0 18 -7 21 -19 21h-111l17 88h140c44 0 67 -21 67 -65v-153c0 -22 -11 -51 -41 -53z" />
    <glyph glyph-name="onesuperior" unicode="&#xb9;" horiz-adv-x="219" 
d="M20 642l35 85h107v-460h37v-85h-172v85h36v375h-43z" />
    <glyph glyph-name="ordmasculine" unicode="&#xba;" horiz-adv-x="340" 
d="M143 363h54c12 0 16 2 16 16v247c0 15 -5 18 -17 18h-52c-11 0 -17 -3 -17 -18v-247c0 -14 6 -16 16 -16zM30 331v339c0 37 19 57 56 57h168c39 0 56 -20 56 -57v-339c0 -37 -17 -57 -56 -57h-168c-37 0 -56 20 -56 57z" />
    <glyph glyph-name="eth" unicode="&#xf0;" horiz-adv-x="418" 
d="M140 523l-14 33l112 50c-37 38 -127 29 -178 15l19 101c51 7 90 11 122 11c101 0 129 -37 155 -76c14 7 36 16 53 24l14 -31l-53 -24c13 -35 18 -79 18 -125v-412c0 -59 -30 -89 -89 -89h-179c-60 0 -90 30 -90 89v308c0 47 33 73 73 73h92c16 0 50 -1 68 -35v59
c0 25 -4 60 -11 77zM259 130v214c0 20 -12 31 -31 31h-54c-13 0 -19 -8 -19 -20v-225c0 -18 8 -20 21 -20h62c15 0 21 4 21 20z" />
    <glyph glyph-name="logicalnot" unicode="&#xac;" horiz-adv-x="438" 
d="M30 352l10 99h368v-256h-109v157h-269z" />
    <glyph glyph-name="asciicircum" unicode="^" horiz-adv-x="700" 
d="M521 312l-171 326l-171 -326h-139l251 435h118l251 -435h-139z" />
    <glyph glyph-name="asciitilde" unicode="~" horiz-adv-x="421" 
d="M320 438h69c8 -96 -29 -153 -111 -153c-43 0 -64 21 -90 38c-39 25 -87 24 -88 -37h-69c-4 102 43 153 111 153c60 0 96 -54 134 -54c24 0 46 10 44 53z" />
    <glyph glyph-name="ae" unicode="&#xe6;" horiz-adv-x="590" 
d="M238 424h-188l23 111h424c38 0 63 -20 63 -64v-271h-206v-68c0 -18 7 -18 20 -18h178l-24 -114h-191c-17 0 -36 7 -40 33c-6 -26 -25 -33 -42 -33h-162c-38 0 -63 22 -63 63v212c0 44 23 66 67 66h141v83zM354 412v-131h101v131c0 17 -8 20 -21 20h-60
c-13 0 -20 -3 -20 -20zM238 253h-81c-14 0 -20 -4 -20 -21v-102c0 -18 7 -20 21 -20h80v143z" />
    <glyph glyph-name="oe" unicode="&#x153;" horiz-adv-x="598" 
d="M30 67v401c0 44 22 67 66 67h409c38 0 63 -20 63 -64v-271h-206v-86h195l-24 -114h-437c-44 0 -66 23 -66 67zM247 437h-82c-13 0 -21 -3 -21 -20v-284c0 -17 6 -19 19 -19h84v323zM362 437v-156h101v136c0 17 -8 20 -21 20h-80z" />
    <glyph glyph-name="quotedblbase" unicode="&#x201e;" horiz-adv-x="372" 
d="M180 -140l51 285h116l-72 -285h-95zM20 -140l51 285h116l-72 -285h-95z" />
    <glyph glyph-name="quotesinglbase" unicode="&#x201a;" horiz-adv-x="213" 
d="M20 -140l47 285h121l-78 -285h-90z" />
    <glyph glyph-name="agrave" unicode="&#xe0;" horiz-adv-x="385" 
d="M241 253h-84c-14 0 -20 -4 -20 -21v-102c0 -18 7 -20 21 -20h83v143zM222 424h-172l23 111h212c45 0 70 -23 70 -67v-468h-114v56l-47 -56h-101c-38 0 -63 22 -63 63v212c0 44 23 66 67 66h144v65c0 16 -5 18 -19 18zM179 570l-173 114h135l125 -114h-87z" />
    <glyph glyph-name="aacute" unicode="&#xe1;" horiz-adv-x="385" 
d="M241 253h-84c-14 0 -20 -4 -20 -21v-102c0 -18 7 -20 21 -20h83v143zM222 424h-172l23 111h212c45 0 70 -23 70 -67v-468h-114v56l-47 -56h-101c-38 0 -63 22 -63 63v212c0 44 23 66 67 66h144v65c0 16 -5 18 -19 18zM423 684l-173 -114h-87l125 114h135z" />
    <glyph glyph-name="acircumflex" unicode="&#xe2;" horiz-adv-x="385" 
d="M241 253h-84c-14 0 -20 -4 -20 -21v-102c0 -18 7 -20 21 -20h83v143zM222 424h-172l23 111h212c45 0 70 -23 70 -67v-468h-114v56l-47 -56h-101c-38 0 -63 22 -63 63v212c0 44 23 66 67 66h144v65c0 16 -5 18 -19 18zM158 684h93l105 -118h-101l-50 65l-52 -65h-99z" />
    <glyph glyph-name="atilde" unicode="&#xe3;" horiz-adv-x="385" 
d="M241 253h-84c-14 0 -20 -4 -20 -21v-102c0 -18 7 -20 21 -20h83v143zM222 424h-172l23 111h212c45 0 70 -23 70 -67v-468h-114v56l-47 -56h-101c-38 0 -63 22 -63 63v212c0 44 23 66 67 66h144v65c0 16 -5 18 -19 18zM303 678h57c6 -65 -21 -112 -90 -112
c-55 0 -78 36 -125 36c-22 0 -36 -11 -36 -37h-55c-3 69 38 113 94 113c51 0 89 -38 121 -38c20 0 36 15 34 38z" />
    <glyph glyph-name="adieresis" unicode="&#xe4;" horiz-adv-x="385" 
d="M241 253h-84c-14 0 -20 -4 -20 -21v-102c0 -18 7 -20 21 -20h83v143zM222 424h-172l23 111h212c45 0 70 -23 70 -67v-468h-114v56l-47 -56h-101c-38 0 -63 22 -63 63v212c0 44 23 66 67 66h144v65c0 16 -5 18 -19 18zM56 631c0 36 28 67 66 67c36 0 64 -31 64 -67
s-28 -66 -64 -66c-38 0 -66 30 -66 66zM226 631c0 36 29 67 66 67s66 -31 66 -67s-29 -66 -66 -66s-66 30 -66 66z" />
    <glyph glyph-name="aring" unicode="&#xe5;" horiz-adv-x="385" 
d="M241 253h-84c-14 0 -20 -4 -20 -21v-102c0 -18 7 -20 21 -20h83v143zM222 424h-172l23 111h212c45 0 70 -23 70 -67v-468h-114v56l-47 -56h-101c-38 0 -63 22 -63 63v212c0 44 23 66 67 66h144v65c0 16 -5 18 -19 18zM115 656c0 50 41 92 91 92s92 -42 92 -92
s-42 -91 -92 -91s-91 41 -91 91zM171 656c0 -18 17 -35 35 -35s35 17 35 35s-17 35 -35 35s-35 -17 -35 -35z" />
    <glyph glyph-name="edieresis" unicode="&#xeb;" horiz-adv-x="380" 
d="M144 200v-68c0 -18 7 -18 20 -18h178l-24 -114h-227c-39 0 -61 22 -61 60v410c0 44 26 65 64 65h193c38 0 63 -20 63 -64v-271h-206zM144 412v-131h101v131c0 17 -8 20 -21 20h-60c-13 0 -20 -3 -20 -20zM39 631c0 36 28 67 66 67c36 0 64 -31 64 -67s-28 -66 -64 -66
c-38 0 -66 30 -66 66zM209 631c0 36 29 67 66 67s66 -31 66 -67s-29 -66 -66 -66s-66 30 -66 66z" />
    <glyph glyph-name="eacute" unicode="&#xe9;" horiz-adv-x="380" 
d="M144 200v-68c0 -18 7 -18 20 -18h178l-24 -114h-227c-39 0 -61 22 -61 60v410c0 44 26 65 64 65h193c38 0 63 -20 63 -64v-271h-206zM144 412v-131h101v131c0 17 -8 20 -21 20h-60c-13 0 -20 -3 -20 -20zM402 684l-173 -114h-87l125 114h135z" />
    <glyph glyph-name="ecircumflex" unicode="&#xea;" horiz-adv-x="380" 
d="M144 200v-68c0 -18 7 -18 20 -18h178l-24 -114h-227c-39 0 -61 22 -61 60v410c0 44 26 65 64 65h193c38 0 63 -20 63 -64v-271h-206zM144 412v-131h101v131c0 17 -8 20 -21 20h-60c-13 0 -20 -3 -20 -20zM142 684h93l105 -118h-101l-50 65l-52 -65h-99z" />
    <glyph glyph-name="egrave" unicode="&#xe8;" horiz-adv-x="380" 
d="M144 200v-68c0 -18 7 -18 20 -18h178l-24 -114h-227c-39 0 -61 22 -61 60v410c0 44 26 65 64 65h193c38 0 63 -20 63 -64v-271h-206zM144 412v-131h101v131c0 17 -8 20 -21 20h-60c-13 0 -20 -3 -20 -20zM154 570l-173 114h135l125 -114h-87z" />
    <glyph glyph-name="scaron" unicode="&#x161;" horiz-adv-x="363" 
d="M220 133v81h-141c-28 0 -49 15 -49 51v202c0 44 30 68 68 68h192l31 -111h-158c-13 0 -19 -1 -19 -17v-81c0 -18 6 -17 19 -17h115c37 0 53 -18 53 -52v-191c0 -44 -29 -66 -67 -66h-201l-24 114h161c13 0 20 1 20 19zM228 570h-93l-104 118h99l52 -65l50 65h101z" />
    <glyph glyph-name="zcaron" unicode="&#x17e;" horiz-adv-x="321" 
d="M10 0l144 424h-139l31 111h265l-138 -421h121l-24 -114h-260zM221 570h-93l-104 118h99l52 -65l50 65h101z" />
    <glyph glyph-name="igrave" unicode="&#xec;" horiz-adv-x="180" 
d="M32 0v515l116 36v-551h-116zM45 570l-173 114h135l125 -114h-87z" />
    <glyph glyph-name="iacute" unicode="&#xed;" horiz-adv-x="180" 
d="M32 0v515l116 36v-551h-116zM308 684l-173 -114h-87l125 114h135z" />
    <glyph glyph-name="icircumflex" unicode="&#xee;" horiz-adv-x="180" 
d="M32 0v515l116 36v-551h-116zM42 684h93l105 -118h-101l-50 65l-52 -65h-99z" />
    <glyph glyph-name="idieresis" unicode="&#xef;" horiz-adv-x="180" 
d="M32 0v515l116 36v-551h-116zM-59 628c0 36 28 67 66 67c36 0 64 -31 64 -67s-28 -66 -64 -66c-38 0 -66 30 -66 66zM111 628c0 36 29 67 66 67s66 -31 66 -67s-29 -66 -66 -66s-66 30 -66 66z" />
    <glyph glyph-name="ntilde" unicode="&#xf1;" horiz-adv-x="395" 
d="M225 432h-77v-432h-116v535h116v-56l48 56h100c45 0 67 -21 67 -65v-470h-116v413c0 17 -8 19 -22 19zM296 678h57c6 -65 -21 -112 -90 -112c-55 0 -78 36 -125 36c-22 0 -36 -11 -36 -37h-55c-3 69 38 113 94 113c51 0 89 -38 121 -38c20 0 36 15 34 38z" />
    <glyph glyph-name="odieresis" unicode="&#xf6;" horiz-adv-x="391" 
d="M164 105h63c14 0 20 2 20 19v292c0 17 -7 21 -21 21h-61c-13 0 -21 -4 -21 -21v-292c0 -17 7 -19 20 -19zM30 67v401c0 44 22 67 66 67h199c45 0 66 -23 66 -67v-401c0 -44 -21 -67 -66 -67h-199c-44 0 -66 23 -66 67zM45 631c0 36 28 67 66 67c36 0 64 -31 64 -67
s-28 -66 -64 -66c-38 0 -66 30 -66 66zM215 631c0 36 29 67 66 67s66 -31 66 -67s-29 -66 -66 -66s-66 30 -66 66z" />
    <glyph glyph-name="otilde" unicode="&#xf5;" horiz-adv-x="391" 
d="M164 105h63c14 0 20 2 20 19v292c0 17 -7 21 -21 21h-61c-13 0 -21 -4 -21 -21v-292c0 -17 7 -19 20 -19zM30 67v401c0 44 22 67 66 67h199c45 0 66 -23 66 -67v-401c0 -44 -21 -67 -66 -67h-199c-44 0 -66 23 -66 67zM290 678h57c6 -65 -21 -112 -90 -112
c-55 0 -78 36 -125 36c-22 0 -36 -11 -36 -37h-55c-3 69 38 113 94 113c51 0 89 -38 121 -38c20 0 36 15 34 38z" />
    <glyph glyph-name="ocircumflex" unicode="&#xf4;" horiz-adv-x="391" 
d="M164 105h63c14 0 20 2 20 19v292c0 17 -7 21 -21 21h-61c-13 0 -21 -4 -21 -21v-292c0 -17 7 -19 20 -19zM30 67v401c0 44 22 67 66 67h199c45 0 66 -23 66 -67v-401c0 -44 -21 -67 -66 -67h-199c-44 0 -66 23 -66 67zM148 684h93l105 -118h-101l-50 65l-52 -65h-99z" />
    <glyph glyph-name="oacute" unicode="&#xf3;" horiz-adv-x="391" 
d="M164 105h63c14 0 20 2 20 19v292c0 17 -7 21 -21 21h-61c-13 0 -21 -4 -21 -21v-292c0 -17 7 -19 20 -19zM30 67v401c0 44 22 67 66 67h199c45 0 66 -23 66 -67v-401c0 -44 -21 -67 -66 -67h-199c-44 0 -66 23 -66 67zM413 684l-173 -114h-87l125 114h135z" />
    <glyph glyph-name="ograve" unicode="&#xf2;" horiz-adv-x="391" 
d="M164 105h63c14 0 20 2 20 19v292c0 17 -7 21 -21 21h-61c-13 0 -21 -4 -21 -21v-292c0 -17 7 -19 20 -19zM30 67v401c0 44 22 67 66 67h199c45 0 66 -23 66 -67v-401c0 -44 -21 -67 -66 -67h-199c-44 0 -66 23 -66 67zM152 570l-173 114h135l125 -114h-87z" />
    <glyph glyph-name="udieresis" unicode="&#xfc;" horiz-adv-x="384" 
d="M224 100h-65c-14 0 -17 8 -17 18v417h-112v-478c0 -33 22 -57 52 -57h222c29 0 50 23 50 57v478h-113v-417c0 -10 -3 -18 -17 -18zM147 684h93l105 -118h-101l-50 65l-52 -65h-99z" />
    <glyph glyph-name="ucircumflex" unicode="&#xfb;" horiz-adv-x="384" 
d="M224 100h-65c-14 0 -17 8 -17 18v417h-112v-478c0 -33 22 -57 52 -57h222c29 0 50 23 50 57v478h-113v-417c0 -10 -3 -18 -17 -18zM147 684h93l105 -118h-101l-50 65l-52 -65h-99z" />
    <glyph glyph-name="uacute" unicode="&#xfa;" horiz-adv-x="384" 
d="M224 100h-65c-14 0 -17 8 -17 18v417h-112v-478c0 -33 22 -57 52 -57h222c29 0 50 23 50 57v478h-113v-417c0 -10 -3 -18 -17 -18zM410 684l-173 -114h-87l125 114h135z" />
    <glyph glyph-name="ugrave" unicode="&#xf9;" horiz-adv-x="384" 
d="M159 100h65c14 0 17 8 17 18v417h113v-478c0 -34 -21 -57 -50 -57h-222c-30 0 -52 24 -52 57v478h112v-417c0 -10 3 -18 17 -18zM152 570l-173 114h135l125 -114h-87z" />
    <glyph glyph-name="yacute" unicode="&#xfd;" horiz-adv-x="444" 
d="M187 0l-50 -210h112l180 745h-128l-84 -395l-72 395h-130l121 -535h51zM440 684l-173 -114h-87l125 114h135z" />
    <glyph glyph-name="ydieresis" unicode="&#xff;" horiz-adv-x="444" 
d="M187 0l-50 -210h112l180 745h-128l-84 -395l-72 395h-130l121 -535h51zM73 631c0 36 28 67 66 67c36 0 64 -31 64 -67s-28 -66 -64 -66c-38 0 -66 30 -66 66zM243 631c0 36 29 67 66 67s66 -31 66 -67s-29 -66 -66 -66s-66 30 -66 66z" />
    <glyph glyph-name="fraction" unicode="&#x2044;" horiz-adv-x="227" 
d="M185 742h77l-221 -756h-76z" />
    <glyph glyph-name="ff" unicode="&#xfb00;" horiz-adv-x="588" 
d="M265 727l39 -87c0 61 31 87 96 87h142l31 -111h-133c-19 0 -22 -5 -22 -21v-134h114v-100h-114v-361h-114v616h-137c-18 0 -23 -5 -23 -21v-134h103v-100h-103v-361h-114v632c0 64 34 95 99 95h136z" />
    <glyph glyph-name="fi" unicode="&#xfb01;" horiz-adv-x="463" 
d="M309 0v510l121 36v-546h-121zM144 599v-127h108v-100h-108v-372h-114v640c0 64 31 87 96 87h132l40 -72c-1 5 -2 11 -2 17c0 42 34 76 76 76c99 0 99 -152 0 -152c-22 0 -41 9 -55 23h-152c-18 0 -21 -4 -21 -20z" />
    <glyph glyph-name="fl" unicode="&#xfb02;" horiz-adv-x="471" 
d="M144 461h111v-100h-111v-361h-114v642c0 63 33 85 98 85h138l52 -87v87h121v-727h-121v619h-151c-18 0 -23 -5 -23 -21v-137z" />
    <glyph glyph-name="ffi" unicode="&#xfb03;" horiz-adv-x="744" 
d="M575 672c0 42 34 76 76 76c99 0 99 -152 0 -152c-22 0 -41 9 -55 23h-152c-18 0 -21 -4 -21 -20v-127h108v-100h-108v-372h-114v619h-143c-18 0 -22 -4 -22 -20v-127h108v-100h-108v-372h-114v637c0 64 31 90 96 90h134l49 -84c0 61 31 84 96 84h132l40 -72
c-1 5 -2 11 -2 17zM590 0v510l121 36v-546h-121z" />
    <glyph glyph-name="ffl" unicode="&#xfb04;" horiz-adv-x="752" 
d="M264 727l49 -84c0 61 31 84 96 84h142l49 -84v84h122v-727h-121v619h-153c-18 0 -21 -5 -21 -21v-137h108v-100h-108v-361h-114v619h-147c-18 0 -22 -5 -22 -21v-137h107v-100h-107v-361h-114v637c0 64 31 90 96 90h138z" />
    <glyph glyph-name="f_t" horiz-adv-x="525" 
d="M400 729v-193h89v-111h-87v-291c0 -16 5 -20 19 -20h87l-24 -114h-130c-46 0 -73 30 -73 71v354h-131v-425h-120v637c0 64 31 90 96 90h94l28 -103h-77c-19 0 -21 -4 -21 -19v-69h135v91z" />
    <glyph glyph-name="currency" unicode="&#xa4;" horiz-adv-x="454" 
d="M166 365c0 -72 7 -115 63 -115c55 0 63 43 63 115c0 73 -8 117 -63 117c-56 0 -63 -44 -63 -117zM393 365c0 -44 -6 -88 -21 -134l50 -47l-51 -53l-51 47c-35 -14 -58 -17 -91 -17c-32 0 -56 3 -91 17l-51 -47l-51 53l49 47c-14 46 -19 90 -19 134c0 45 5 89 19 135
l-49 47l51 53l51 -46c35 12 59 15 91 15c33 0 56 -3 91 -15l51 46l51 -53l-50 -47c15 -46 21 -90 21 -135z" />
    <glyph glyph-name="longs_t" unicode="&#xfb05;" horiz-adv-x="539" 
d="M57 424h-35v111h35v102c0 64 31 90 95 90h262v-192h90v-111h-88v-290c0 -16 4 -20 19 -20h87l-23 -114h-128c-46 0 -75 28 -75 69v355h-59v111h63v84h-104c-19 0 -22 -5 -22 -21v-598h-117v424z" />
    <glyph glyph-name="s_t" unicode="&#xfb06;" horiz-adv-x="639" 
d="M215 134v83h-133c-28 0 -52 17 -52 53v197c0 44 32 68 70 68h300v77l114 107v-184h92v-111h-90v-290c0 -16 6 -20 21 -20h85l-24 -114h-129c-47 0 -73 30 -73 71v353h-232c-13 0 -20 -3 -20 -19v-77c0 -18 7 -19 20 -19h107c37 0 55 -20 55 -54v-189
c0 -44 -28 -66 -66 -66h-197l-24 114h157c13 0 19 2 19 20z" />
    <glyph glyph-name="diamond_bullet" unicode="&#x25c6;" horiz-adv-x="329" 
d="M165 602l134 -255l-134 -255l-135 255z" />
    <glyph glyph-name="diamond_bullet" unicode="&#x25ca;" horiz-adv-x="329" 
d="M165 602l134 -255l-134 -255l-135 255z" />
    <glyph glyph-name="diamond_bullet" unicode="&#x25c7;" horiz-adv-x="329" 
d="M165 602l134 -255l-134 -255l-135 255z" />
    <glyph glyph-name="triagdn" unicode="&#x25bc;" horiz-adv-x="311" 
d="M30 503h251l-126 -444z" />
    <glyph glyph-name="star_bullet" unicode="&#x2729;" horiz-adv-x="539" 
d="M270 598l61 -182h188l-149 -116l53 -176l-153 103l-154 -103l53 176l-149 116h188z" />
    <glyph glyph-name="star_bullet" unicode="&#x2730;" horiz-adv-x="539" 
d="M270 598l61 -182h188l-149 -116l53 -176l-153 103l-154 -103l53 176l-149 116h188z" />
    <glyph glyph-name="star_bullet" unicode="&#x272f;" horiz-adv-x="539" 
d="M270 598l61 -182h188l-149 -116l53 -176l-153 103l-154 -103l53 176l-149 116h188z" />
    <glyph glyph-name="star_bullet" unicode="&#x272e;" horiz-adv-x="539" 
d="M270 598l61 -182h188l-149 -116l53 -176l-153 103l-154 -103l53 176l-149 116h188z" />
    <glyph glyph-name="star_bullet" unicode="&#x272d;" horiz-adv-x="539" 
d="M270 598l61 -182h188l-149 -116l53 -176l-153 103l-154 -103l53 176l-149 116h188z" />
    <glyph glyph-name="star_bullet" unicode="&#x272c;" horiz-adv-x="539" 
d="M270 598l61 -182h188l-149 -116l53 -176l-153 103l-154 -103l53 176l-149 116h188z" />
    <glyph glyph-name="star_bullet" unicode="&#x272b;" horiz-adv-x="539" 
d="M270 598l61 -182h188l-149 -116l53 -176l-153 103l-154 -103l53 176l-149 116h188z" />
    <glyph glyph-name="star_bullet" unicode="&#x272a;" horiz-adv-x="539" 
d="M270 598l61 -182h188l-149 -116l53 -176l-153 103l-154 -103l53 176l-149 116h188z" />
    <glyph glyph-name="colonmonetary" unicode="&#x20a1;" horiz-adv-x="414" 
d="M355 0h-48l-3 -54h-42l2 54h-37l-2 -54h-43l2 54h-50c-78 0 -104 28 -104 103v543c0 52 36 81 80 81h104l2 57h43l-2 -57h37l2 57h43l-2 -57h29l23 -118h-57l-20 -491h67zM252 609l-20 -491h37l20 491h-37zM152 588v-450c0 -15 3 -20 21 -20h16l20 491h-36
c-18 0 -21 -6 -21 -21z" />
    <glyph glyph-name="uni20A2" unicode="&#x20a2;" horiz-adv-x="500" 
d="M426 0h-289c-78 0 -107 26 -107 101v547c0 51 36 79 80 79h270c59 0 86 -32 86 -84v-121h-127v72c0 16 -4 23 -21 23h-140c-18 0 -20 -6 -20 -22v-457c0 -15 3 -20 21 -20h55v339h111v-56l47 56h78l-33 -101h-38l-51 -62v-176h102c-8 -43 -17 -77 -24 -118z" />
    <glyph glyph-name="franc" unicode="&#x20a3;" horiz-adv-x="374" 
d="M10 110l10 102h41v515h270l23 -118h-160v-159h129v-108h-129v-130h107l-11 -102h-96v-110h-133v110h-51z" />
    <glyph glyph-name="lira" unicode="&#x20a4;" horiz-adv-x="385" 
d="M56 470v173c0 58 39 84 81 84h193l23 -118h-147c-15 0 -21 -2 -21 -21v-118h147l-18 -79h-129v-89h147l-18 -79h-129v-105h180l-23 -118h-311v118h25v105h-36l11 79h25v89h-36l11 79h25z" />
    <glyph glyph-name="peseta" unicode="&#x20a7;" horiz-adv-x="1010" 
d="M588 727v-197h350l31 -111h-155c-13 0 -18 -1 -18 -17v-85c0 -18 7 -16 20 -16h107c37 0 57 -17 57 -51l-1 -186c0 -44 -24 -64 -62 -64h-383c-45 0 -64 25 -64 63v356h-79v-134c0 -53 -28 -87 -90 -87h-143v-198h-128v727h271c62 0 90 -33 90 -85v-112h79v108zM868 132
v82h-136c-29 0 -50 8 -50 44v161h-94v-288c0 -16 3 -17 17 -17h245c13 0 18 0 18 18zM246 617h-88v-316h87c22 0 22 5 22 24v269c0 16 -3 23 -21 23z" />
    <glyph glyph-name="newsheqel" unicode="&#x20aa;" horiz-adv-x="690" 
d="M484 156h-104v283c0 31 -6 34 -39 34h-199v-473h-104v475l-8 91h365c62 0 89 -15 89 -85v-325zM210 409h103v-286c0 -29 5 -32 35 -32h201v475h103v-478l8 -88h-360c-63 0 -90 13 -90 85v324z" />
    <glyph glyph-name="uni20B1" unicode="&#x20b1;" horiz-adv-x="513" 
d="M471 490h-43v-67h64l-21 -73h-43v-65c0 -53 -28 -87 -90 -87h-143v-198h-128v350h-42v73h42v67h-42v75h42v162h271c62 0 90 -33 90 -85v-77h65zM195 490v-67h109v67h-109zM195 291h87c22 0 22 3 22 22v37h-109v-59zM283 622h-88v-57h109v39c0 16 -3 18 -21 18z" />
    <glyph glyph-name="rupee_2" unicode="&#x20b9;" horiz-adv-x="486" 
d="M256 0l-137 338h115c17 0 21 3 21 20v84h-230l37 91h193v84c0 18 -5 20 -22 20h-208l37 90h404l-32 -90h-52v-104h84l-32 -91h-52v-111c0 -45 -38 -74 -106 -66l112 -265h-132z" />
    <glyph glyph-name="numero" unicode="&#x2116;" horiz-adv-x="775" 
d="M30 727h104l119 -333v333h122v-727h-126v138l-104 265v-403h-115v727zM621 630h-58c-14 0 -18 -3 -18 -18v-288c0 -16 3 -19 17 -19h56c18 0 17 3 17 19v288c0 16 -4 18 -14 18zM745 670v-397c0 -41 -24 -63 -68 -63h-173c-41 0 -67 22 -67 63v397c0 37 26 57 63 57h183
c38 0 62 -20 62 -57zM507 73c0 45 38 82 84 82s83 -37 83 -82c0 -46 -37 -83 -83 -83s-84 37 -84 83z" />
    <glyph glyph-name="arrowleft" unicode="&#x2190;" horiz-adv-x="552" 
d="M488 135h-133v-89c0 -39 -21 -47 -56 -12c-100 97 -184 194 -251 274c-21 30 -25 42 0 71c67 80 151 177 251 274c35 35 56 27 56 -12v-90h133c9 0 19 -11 19 -20v-376c0 -9 -10 -20 -19 -20z" />
    <glyph glyph-name="arrowup" unicode="&#x2191;" horiz-adv-x="725" 
d="M571 404v-384c0 -9 -11 -19 -20 -19h-376c-9 0 -20 10 -20 19v384h-90c-39 0 -47 21 -12 56c97 100 194 184 274 251c29 25 41 21 71 0c80 -67 177 -151 274 -251c35 -35 27 -56 -12 -56h-89z" />
    <glyph glyph-name="arrowright" unicode="&#x2192;" horiz-adv-x="552" 
d="M197 135h-133c-9 0 -19 11 -19 20v376c0 9 10 20 19 20h133v90c0 39 21 47 56 12c100 -97 184 -194 251 -274c25 -29 21 -41 0 -71c-67 -80 -151 -177 -251 -274c-35 -35 -56 -27 -56 12v89z" />
    <glyph glyph-name="arrowdown" unicode="&#x2193;" horiz-adv-x="807" 
d="M571 708v-384h89c39 0 47 -21 12 -56c-97 -100 -191 -188 -274 -251c-29 -22 -42 -25 -71 0c-80 68 -177 151 -274 251c-35 35 -27 56 12 56h90v384c0 9 11 19 20 19h376c9 0 20 -10 20 -19z" />
    <glyph glyph-name="uni2196" unicode="&#x2196;" horiz-adv-x="758" 
d="M429 6l-271 272l-64 -62c-27 -28 -47 -20 -48 30c-2 139 3 268 17 371c4 36 11 48 50 51c104 8 232 18 371 16c50 0 59 -21 31 -48l-64 -63l272 -273c7 -6 6 -21 -1 -26l-265 -267c-7 -6 -22 -7 -28 -1z" />
    <glyph glyph-name="uni2197" unicode="&#x2197;" horiz-adv-x="758" 
d="M600 278l-271 -272c-6 -6 -21 -5 -28 1l-265 267c-7 5 -8 20 -1 26l272 273l-64 63c-28 27 -19 48 31 48c139 2 267 -8 371 -16c39 -3 46 -15 50 -51c14 -103 19 -232 17 -371c-1 -50 -21 -58 -48 -30z" />
    <glyph glyph-name="uni2198" unicode="&#x2198;" horiz-adv-x="758" 
d="M329 680l271 -272l64 62c27 28 47 20 48 -30c2 -139 -3 -268 -17 -371c-4 -36 -11 -48 -50 -51c-104 -8 -232 -18 -371 -16c-50 0 -59 21 -31 48l64 63l-272 273c-7 6 -6 21 1 26l265 267c7 6 22 7 28 1z" />
    <glyph glyph-name="uni2199" unicode="&#x2199;" horiz-adv-x="758" 
d="M158 408l271 272c6 6 21 5 28 -1l265 -267c7 -5 8 -20 1 -26l-272 -273l64 -63c28 -27 19 -48 -31 -48c-139 -2 -267 8 -371 16c-39 3 -46 15 -50 51c-14 103 -19 232 -17 371c1 50 21 58 48 30z" />
    <glyph glyph-name="arrowboth" unicode="&#x2194;" horiz-adv-x="1210" 
d="M855 135h-500v-89c0 -39 -21 -47 -56 -12c-100 97 -184 194 -251 274c-21 30 -25 42 0 71c67 80 151 177 251 274c35 35 56 27 56 -12v-90h500v90c0 39 21 47 56 12c100 -97 184 -194 251 -274c25 -29 21 -41 0 -71c-67 -80 -151 -177 -251 -274c-35 -35 -56 -27 -56 12
v89z" />
    <glyph glyph-name="arrowupdn" unicode="&#x2195;" horiz-adv-x="725" 
d="M571 593v-400h89c39 0 47 -21 12 -56c-97 -100 -194 -184 -274 -251c-30 -21 -42 -25 -71 0c-80 67 -177 151 -274 251c-35 35 -27 56 12 56h90v400h-90c-39 0 -47 21 -12 56c97 100 194 184 274 251c29 25 41 21 71 0c80 -67 177 -151 274 -251c35 -35 27 -56 -12 -56
h-89z" />
    <glyph glyph-name="uni2048" unicode="&#x2048;" horiz-adv-x="562" 
d="M330 640v-255c0 -37 -22 -63 -71 -63h-89v-136h-103v202c0 19 8 36 35 36h78c23 0 25 8 25 25v138c0 17 -8 22 -21 22h-164l23 118h200c60 0 87 -28 87 -87zM42 67c0 43 35 78 78 78s78 -35 78 -78s-35 -77 -78 -77s-78 34 -78 77zM411 186l-31 541h147l-32 -541h-84z
M376 67c0 43 35 78 78 78s78 -35 78 -78s-35 -77 -78 -77s-78 34 -78 77z" />
    <glyph glyph-name="uni2047" unicode="&#x2047;" horiz-adv-x="717" 
d="M330 640v-255c0 -37 -22 -63 -71 -63h-89v-136h-103v202c0 19 8 36 35 36h78c23 0 25 8 25 25v138c0 17 -8 22 -21 22h-164l23 118h200c60 0 87 -28 87 -87zM42 67c0 43 35 78 78 78s78 -35 78 -78s-35 -77 -78 -77s-78 34 -78 77zM687 640v-255c0 -37 -22 -63 -71 -63
h-89v-136h-103v202c0 19 8 36 35 36h78c23 0 25 8 25 25v138c0 17 -8 22 -21 22h-164l23 118h200c60 0 87 -28 87 -87zM399 67c0 43 35 78 78 78s78 -35 78 -78s-35 -77 -78 -77s-78 34 -78 77z" />
    <glyph glyph-name="uni2049" unicode="&#x2049;" horiz-adv-x="563" 
d="M533 640v-255c0 -37 -22 -63 -71 -63h-89v-136h-103v202c0 19 8 36 35 36h78c23 0 25 8 25 25v138c0 17 -8 22 -21 22h-164l23 118h200c60 0 87 -28 87 -87zM245 67c0 43 35 78 78 78s78 -35 78 -78s-35 -77 -78 -77s-78 34 -78 77zM65 186l-31 541h147l-32 -541h-84z
M30 67c0 43 35 78 78 78s78 -35 78 -78s-35 -77 -78 -77s-78 34 -78 77z" />
    <glyph glyph-name="exclamdbl" unicode="&#x203c;" horiz-adv-x="407" 
d="M65 186l-31 541h147l-32 -541h-84zM30 67c0 43 35 78 78 78s78 -35 78 -78s-35 -77 -78 -77s-78 34 -78 77zM256 186l-31 541h147l-32 -541h-84zM221 67c0 43 35 78 78 78s78 -35 78 -78s-35 -77 -78 -77s-78 34 -78 77z" />
    <glyph glyph-name="uni2031" unicode="&#x2031;" horiz-adv-x="1297" 
d="M124 549c0 -98 9 -115 35 -115s34 17 34 115s-8 115 -34 115s-35 -17 -35 -115zM288 549c0 -156 -50 -188 -129 -188s-129 32 -129 188s50 188 129 188s129 -32 129 -188zM441 732h95l-284 -737h-98zM497 178c0 -98 9 -115 35 -115s34 17 34 115s-8 115 -34 115
s-35 -17 -35 -115zM661 178c0 -156 -50 -188 -129 -188s-129 32 -129 188s50 188 129 188s129 -32 129 -188zM800 178c0 -98 9 -115 35 -115s34 17 34 115s-8 115 -34 115s-35 -17 -35 -115zM964 178c0 -156 -50 -188 -129 -188s-129 32 -129 188s50 188 129 188
s129 -32 129 -188zM1103 178c0 -98 9 -115 35 -115s34 17 34 115s-8 115 -34 115s-35 -17 -35 -115zM1267 178c0 -156 -50 -188 -129 -188s-129 32 -129 188s50 188 129 188s129 -32 129 -188z" />
    <glyph glyph-name="uni2713" unicode="&#x2713;" horiz-adv-x="543" 
d="M229 -8l-152 194c-9 10 -25 13 -57 13l135 188l77 -175c36 165 105 367 232 515h64c-105 -175 -155 -399 -164 -583z" />
    <glyph glyph-name="Mr.Smiley" unicode="&#xf8ff;" horiz-adv-x="836" 
d="M537 242c-103 -26 -206 -26 -310 0c26 -44 78 -105 155 -105c74 0 128 61 155 105zM546 256l54 84h-436l53 -84c110 -26 219 -25 329 0zM323 453c-17 36 -24 77 -46 108c-8 10 -60 -27 -56 -32l72 -90c4 -5 32 10 30 14zM346 371h73l-37 89zM471 439l71 90
c4 5 -48 42 -55 32c-24 -31 -31 -72 -46 -108c-4 -4 26 -19 30 -14zM657 371c0 -151 -124 -275 -275 -275s-276 124 -276 275c0 152 125 275 276 275s275 -123 275 -275zM677 371c0 163 -132 296 -295 296s-297 -133 -297 -296c0 -162 134 -296 297 -296s295 134 295 296z
M707 120v-16h-26v-69h-19v69h-25v16h70zM724 371c0 -188 -154 -343 -342 -343s-342 155 -342 343c0 189 154 343 342 343s342 -154 342 -343zM796 120v-85h-15v69l-17 -69h-16l-17 69v-69h-16v85h25l17 -66l14 66h25z" />
    <glyph glyph-name="alt_dollar_001" unicode="&#xe001;" horiz-adv-x="324" 
d="M181 234v47l-122 114c-28 26 -29 51 -29 88v78c0 43 24 68 70 68h38v98h55v-98h71l25 -107h-156v-45l131 -123c23 -19 30 -44 30 -76v-83c0 -41 -25 -59 -68 -59h-33v-99h-55v99h-71l-31 98h145z" />
    <glyph glyph-name="alt_cent_001" unicode="&#xe002;" horiz-adv-x="257" 
d="M117 227h-26c-38 0 -61 25 -61 62v263c0 38 23 63 61 63h26v112h49v-112h56l20 -102h-109c-11 0 -16 0 -16 -16v-155c0 -16 5 -15 16 -15h108l-18 -100h-57v-111h-49v111z" />
    <glyph glyph-name="one_tenth" unicode="&#xe003;" horiz-adv-x="984" 
d="M20 642l35 85h105v-460h40v-85h-173v85h39v375h-46zM409 742h77l-221 -756h-76zM839 463h-43c-13 0 -17 -7 -17 -19v-342c0 -14 2 -20 18 -20h41c16 0 19 6 19 20v342c0 12 -5 19 -18 19zM681 70v405c0 40 23 70 69 70h137c45 0 67 -30 67 -70v-405
c0 -40 -22 -70 -67 -70h-137c-46 0 -69 30 -69 70zM463 460l35 85h106v-460h38v-85h-169v85h37v375h-47z" />
    <glyph glyph-name="two_tenths" unicode="&#xe004;" horiz-adv-x="1023" 
d="M267 662v-140c0 -24 -9 -36 -31 -53l-106 -85c-6 -4 -8 -11 -8 -18v-96h134l-18 -88h-213v193c0 33 10 54 37 75l104 78c8 6 9 11 9 18v78c0 13 -5 15 -15 15h-131l17 88h153c44 0 68 -21 68 -65zM450 742h77l-221 -756h-76zM878 463h-43c-13 0 -17 -7 -17 -19v-342
c0 -14 2 -20 18 -20h41c16 0 19 6 19 20v342c0 12 -5 19 -18 19zM720 70v405c0 40 23 70 69 70h137c45 0 67 -30 67 -70v-405c0 -40 -22 -70 -67 -70h-137c-46 0 -69 30 -69 70zM502 460l35 85h106v-460h38v-85h-169v85h37v375h-47z" />
    <glyph glyph-name="three_tenths" unicode="&#xe005;" horiz-adv-x="1023" 
d="M203 456c31 2 42 30 42 52v154c0 44 -23 65 -67 65h-140l-18 -88h111c13 0 20 -3 20 -21v-108c0 -19 -4 -24 -22 -24h-82v-81h84c18 0 20 -6 20 -20v-93c0 -20 -9 -22 -23 -22h-107l17 -88h143c44 0 67 22 67 67v161c0 26 -12 46 -45 46zM450 742h77l-221 -756h-76z
M878 463h-43c-13 0 -17 -7 -17 -19v-342c0 -14 2 -20 18 -20h41c16 0 19 6 19 20v342c0 12 -5 19 -18 19zM720 70v405c0 40 23 70 69 70h137c45 0 67 -30 67 -70v-405c0 -40 -22 -70 -67 -70h-137c-46 0 -69 30 -69 70zM502 460l35 85h106v-460h38v-85h-169v85h37v375h-47z
" />
    <glyph glyph-name="four_tenths" unicode="&#xe006;" horiz-adv-x="1083" 
d="M146 712v15h143v-370h34v-75h-34v-100h-95v100h-174v119zM115 357h79v230h-14l-65 -190v-40zM513 742h77l-221 -756h-76zM938 463h-43c-13 0 -17 -7 -17 -19v-342c0 -14 2 -20 18 -20h41c16 0 19 6 19 20v342c0 12 -5 19 -18 19zM780 70v405c0 40 23 70 69 70h137
c45 0 67 -30 67 -70v-405c0 -40 -22 -70 -67 -70h-137c-46 0 -69 30 -69 70zM562 460l35 85h106v-460h38v-85h-169v85h37v375h-47z" />
    <glyph glyph-name="five_tenths" unicode="&#xe007;" horiz-adv-x="1040" 
d="M267 258v182c0 44 -15 67 -67 67h-76v132h129l-16 88h-207v-266c8 -10 18 -19 26 -29h100c8 0 13 -1 13 -12v-136c0 -10 -4 -14 -14 -14h-119l18 -88h135c59 0 78 20 78 76zM470 742h77l-221 -756h-76zM895 463h-43c-13 0 -17 -7 -17 -19v-342c0 -14 2 -20 18 -20h41
c16 0 19 6 19 20v342c0 12 -5 19 -18 19zM737 70v405c0 40 23 70 69 70h137c45 0 67 -30 67 -70v-405c0 -40 -22 -70 -67 -70h-137c-46 0 -69 30 -69 70zM519 460l35 85h106v-460h38v-85h-169v85h37v375h-47z" />
    <glyph glyph-name="six_tenths" unicode="&#xe008;" horiz-adv-x="1068" 
d="M128 453v-173c0 -12 4 -16 15 -16h48c10 0 15 3 15 17v158c0 10 -4 14 -14 14h-64zM220 182h-112c-58 0 -78 21 -78 77v407c0 36 24 61 60 61h165l17 -88h-128c-11 0 -16 -5 -16 -15v-104h118c32 0 52 -16 52 -52v-206c0 -56 -19 -80 -78 -80zM498 742h77l-221 -756h-76z
M923 463h-43c-13 0 -17 -7 -17 -19v-342c0 -14 2 -20 18 -20h41c16 0 19 6 19 20v342c0 12 -5 19 -18 19zM765 70v405c0 40 23 70 69 70h137c45 0 67 -30 67 -70v-405c0 -40 -22 -70 -67 -70h-137c-46 0 -69 30 -69 70zM547 460l35 85h106v-460h38v-85h-169v85h37v375h-47z
" />
    <glyph glyph-name="seven_tenths" unicode="&#xe009;" horiz-adv-x="938" 
d="M36 727l-16 -88h139l-124 -457h100l124 485l18 60h-241zM368 742h77l-221 -756h-76zM793 463h-43c-13 0 -17 -7 -17 -19v-342c0 -14 2 -20 18 -20h41c16 0 19 6 19 20v342c0 12 -5 19 -18 19zM635 70v405c0 40 23 70 69 70h137c45 0 67 -30 67 -70v-405
c0 -40 -22 -70 -67 -70h-137c-46 0 -69 30 -69 70zM417 460l35 85h106v-460h38v-85h-169v85h37v375h-47z" />
    <glyph glyph-name="eight_tenths" unicode="&#xe00a;" horiz-adv-x="1084" 
d="M151 649c-16 0 -21 -6 -21 -20v-110c0 -16 7 -21 24 -21h35c18 0 24 5 24 21v110c0 14 -3 20 -21 20h-41zM189 262c15 0 24 2 24 23v123c0 13 -5 21 -23 21h-37c-16 0 -23 -8 -23 -21v-123c0 -21 9 -23 23 -23h36zM230 182h-116c-59 0 -84 24 -84 80v137c0 24 7 60 54 66
c-46 8 -51 41 -51 66v115c0 56 29 81 87 81h103c59 0 87 -25 87 -81v-115c0 -25 -4 -58 -51 -66c47 -6 54 -42 54 -66v-137c0 -56 -25 -80 -83 -80zM514 742h77l-221 -756h-76zM939 463h-43c-13 0 -17 -7 -17 -19v-342c0 -14 2 -20 18 -20h41c16 0 19 6 19 20v342
c0 12 -5 19 -18 19zM781 70v405c0 40 23 70 69 70h137c45 0 67 -30 67 -70v-405c0 -40 -22 -70 -67 -70h-137c-46 0 -69 30 -69 70zM563 460l35 85h106v-460h38v-85h-169v85h37v375h-47z" />
    <glyph glyph-name="nine_tenths" unicode="&#xe00b;" horiz-adv-x="1071" 
d="M201 629v-187h-64c-10 0 -13 2 -13 11v176c0 13 5 16 14 16h49c11 0 14 -4 14 -16zM30 660v-236c0 -35 24 -52 53 -52h118v-87c0 -10 -5 -15 -16 -15h-137l18 -88h153c59 0 80 22 80 79v399c0 45 -23 67 -67 67h-133c-45 0 -69 -22 -69 -67zM501 742h77l-221 -756h-76z
M926 463h-43c-13 0 -17 -7 -17 -19v-342c0 -14 2 -20 18 -20h41c16 0 19 6 19 20v342c0 12 -5 19 -18 19zM768 70v405c0 40 23 70 69 70h137c45 0 67 -30 67 -70v-405c0 -40 -22 -70 -67 -70h-137c-46 0 -69 30 -69 70zM550 460l35 85h106v-460h38v-85h-169v85h37v375h-47z
" />
    <glyph glyph-name="alt_singlequoteleft" unicode="&#xe00c;" horiz-adv-x="197" 
d="M172 622c0 -40 -33 -73 -73 -73c-41 0 -74 33 -74 73c0 43 40 101 73 130h49c-14 -19 -26 -39 -32 -60c38 -5 57 -39 57 -70z" />
    <glyph glyph-name="alt_singlequoteright" unicode="&#xe00d;" horiz-adv-x="197" 
d="M25 679c0 40 33 73 73 73c41 0 74 -33 74 -73c0 -43 -40 -101 -73 -130h-49c14 19 26 39 32 60c-38 5 -57 39 -57 70z" />
    <glyph glyph-name="alt_doublequoteleft" unicode="&#xe00e;" horiz-adv-x="366" 
d="M172 622c0 -40 -33 -73 -74 -73c-40 0 -73 33 -73 73c0 43 40 101 72 130h49c-13 -19 -25 -39 -32 -60c39 -5 58 -39 58 -70zM341 622c0 -40 -33 -73 -73 -73c-41 0 -74 33 -74 73c0 43 40 101 73 130h49c-14 -19 -26 -39 -32 -60c38 -5 57 -39 57 -70z" />
    <glyph glyph-name="alt_doublequoteright" unicode="&#xe00f;" horiz-adv-x="366" 
d="M194 679c0 40 33 73 74 73c40 0 73 -33 73 -73c0 -43 -40 -101 -72 -130h-49c13 19 25 39 32 60c-39 5 -58 39 -58 70zM25 679c0 40 33 73 73 73c41 0 74 -33 74 -73c0 -43 -40 -101 -73 -130h-49c14 19 26 39 32 60c-38 5 -57 39 -57 70z" />
    <glyph glyph-name="alt_amp_001" unicode="&#xe010;" horiz-adv-x="409" 
d="M252 0v44h-132c-70 0 -90 42 -90 90v252c0 35 14 65 55 76c-11 24 -31 64 -42 90c-9 20 -13 44 -13 66c0 30 7 58 24 76c22 24 64 33 108 33h139l22 -110h-131c-39 0 -38 -33 -30 -52l44 -100h188v-91h-25v-374h-117zM252 374h-80c-17 0 -21 -5 -21 -19v-189
c0 -18 1 -20 20 -20h81v228z" />
    <glyph glyph-name="alt_amp_002" unicode="&#xe011;" horiz-adv-x="434" 
d="M204 609c-39 0 -41 -35 -32 -56l46 -104h201v-99h-26v-254c0 -52 -20 -96 -96 -96h-170c-75 0 -96 44 -96 96v267c0 38 16 70 58 81l-43 97c-10 21 -16 45 -16 70c0 31 9 60 27 80c23 26 68 36 114 36h148c8 -43 17 -76 25 -118h-140zM267 350h-83c-18 0 -23 -7 -23 -22
v-193c0 -19 1 -25 22 -25h60c22 0 24 4 24 23v217z" />
    <glyph glyph-name="alt_amp_003" unicode="&#xe012;" horiz-adv-x="498" 
d="M217 0h-83c-58 0 -104 23 -104 93v255c0 48 36 84 106 84l-50 110c-22 47 -22 112 11 149c24 26 68 36 114 36h142l25 -118h-138c-41 0 -37 -34 -28 -55l130 -295c20 49 28 105 28 148c0 14 0 26 -1 37h91c0 -10 1 -11 1 -22c0 -91 -16 -191 -60 -265l10 -20
c6 -13 14 -19 35 -19h9l23 -118h-95c-33 0 -55 28 -69 65c-21 -33 -66 -65 -97 -65zM265 156l-81 174c-28 0 -35 -3 -35 -30v-163c0 -27 8 -30 39 -30h20c21 0 44 21 57 49z" />
    <glyph glyph-name="uni00AD" unicode="&#xad;" horiz-adv-x="333" 
d="M30 301l10 108h263l-10 -108h-263z" />
    <glyph glyph-name="alt_at_001" unicode="&#xe013;" horiz-adv-x="808" 
d="M408 -8c-232 0 -378 167 -378 373c0 205 160 370 378 370c223 0 370 -161 370 -352c0 -55 -13 -109 -47 -157c-56 -79 -188 -111 -263 -42c-46 -34 -93 -39 -134 -35c-105 12 -151 95 -130 230c19 124 162 244 281 149l-1 25h114l-62 -322c-10 -56 95 -53 143 25
c42 72 30 177 -2 246c-44 95 -155 158 -269 158c-163 0 -296 -135 -296 -299c0 -163 128 -307 301 -307c87 0 162 26 208 72h81c-69 -88 -180 -134 -294 -134zM377 214c31 9 44 31 50 59l36 171c3 24 5 49 -21 54c-127 30 -173 -309 -65 -284z" />
    <glyph glyph-name="alt_germandbls_001" unicode="&#xe014;" horiz-adv-x="422" 
d="M30 0v652c0 51 35 75 80 75h192c45 0 79 -24 79 -75v-197c0 -34 -5 -73 -48 -78c49 -6 59 -59 59 -90v-222c0 -40 -24 -65 -66 -65h-97l-37 114h61c14 0 22 1 22 19v175c0 17 -4 19 -18 19h-56v89h53c14 0 18 2 18 19v168c0 16 -8 21 -22 21h-82c-13 0 -22 -5 -22 -21
v-603h-116z" />
    <glyph glyph-name="Ssharp" unicode="&#x1e9e;" horiz-adv-x="499" 
d="M230 332l49 285h-93c-21 0 -24 -8 -24 -27v-590h-132v625c0 75 26 102 103 102h283l-52 -292h33c42 0 72 -18 72 -66v-280c0 -59 -30 -89 -89 -89h-137l-23 118h101c22 0 28 7 28 26v156c0 31 -10 32 -38 32h-81z" />
    <glyph glyph-name="bowl_a" unicode="&#xe015;" horiz-adv-x="391" 
d="M247 432h-83c-13 0 -20 -3 -20 -20v-283c0 -18 7 -19 20 -19h83v322zM361 535v-535h-114v56l-47 -56h-107c-38 0 -63 22 -63 63v405c0 44 22 67 66 67h265z" />
    <glyph glyph-name="bowl_g" unicode="&#xe016;" horiz-adv-x="391" 
d="M43 -183c0 66 43 119 106 141v42h-44c-45 0 -75 28 -75 73v395c0 44 22 67 66 67h45v115h109v-115h45c45 0 66 -23 66 -67v-395c0 -45 -30 -73 -75 -73h-45v-41c66 -21 111 -75 111 -142c0 -84 -70 -151 -154 -151c-86 0 -155 67 -155 151zM165 99h61c14 0 21 1 21 18
v302c0 17 -7 21 -21 21h-61c-13 0 -21 -4 -21 -21v-302c0 -17 8 -18 21 -18zM132 -183c0 -37 29 -66 66 -66s66 29 66 66s-29 66 -66 66s-66 -29 -66 -66z" />
    <glyph glyph-name="race_1" unicode="&#xe017;" horiz-adv-x="240" 
d="M20 609l48 118h142v-727h-133v609h-57z" />
    <glyph glyph-name="Illinois_I" unicode="&#xe018;" horiz-adv-x="303" 
d="M49 727h208l31 -118h-70v-491h70l-31 -118h-208l-34 118h72v491h-71z" />
    <glyph glyph-name="unarmed_J" unicode="&#xe019;" horiz-adv-x="423" 
d="M27 86v335h127v-282c0 -17 3 -23 22 -23h63c18 0 20 7 20 24v587h134v-635c0 -54 -30 -92 -90 -92h-188c-55 0 -88 33 -88 86z" />
    <glyph glyph-name="t_t" unicode="&#xe020;" horiz-adv-x="548" 
d="M173 732v-197h134v108l118 89v-197h88v-111h-88v-291c0 -16 5 -19 19 -19h87l-23 -114h-135c-45 0 -66 23 -66 61v363h-134v-291c0 -16 4 -19 19 -19h69l-23 -114h-117c-46 0 -66 23 -66 61v363h-35v111h35v108z" />
    <glyph glyph-name="T_T" unicode="&#xe021;" horiz-adv-x="605" 
d="M43 727h521l31 -118h-96v-609h-131v609h-131v-609h-132v609h-95z" />
    <glyph glyph-name="Mr." horiz-adv-x="836" 
d="M537 242c-103 -26 -206 -26 -310 0c26 -44 78 -105 155 -105c74 0 128 61 155 105zM546 256l54 84h-436l53 -84c110 -26 219 -25 329 0zM323 453c-17 36 -24 77 -46 108c-8 10 -60 -27 -56 -32l72 -90c4 -5 32 10 30 14zM346 371h73l-37 89zM471 439l71 90
c4 5 -48 42 -55 32c-24 -31 -31 -72 -46 -108c-4 -4 26 -19 30 -14zM657 371c0 -151 -124 -275 -275 -275s-276 124 -276 275c0 152 125 275 276 275s275 -123 275 -275zM677 371c0 163 -132 296 -295 296s-297 -133 -297 -296c0 -162 134 -296 297 -296s295 134 295 296z
M707 120v-16h-26v-69h-19v69h-25v16h70zM724 371c0 -188 -154 -343 -342 -343s-342 155 -342 343c0 189 154 343 342 343s342 -154 342 -343zM796 120v-85h-15v69l-17 -69h-16l-17 69v-69h-16v85h25l17 -66l14 66h25z" />
    <glyph glyph-name="Arkansas_A" unicode="&#xe023;" 
d="M264 184h-102v-184h-132v620c0 78 40 107 118 107h129c78 0 118 -29 118 -107v-620h-131v184zM162 593v-297h102v297c0 19 -1 24 -22 24h-59c-21 0 -21 -5 -21 -24z" />
    <glyph glyph-name="alt_C_001" unicode="&#xe024;" horiz-adv-x="408" 
d="M350 0h-216c-78 0 -104 28 -104 103v536c0 53 26 88 84 88h180c60 0 87 -34 87 -86v-201h-125v153c0 16 -3 24 -20 24h-57c-19 0 -20 -10 -20 -24v-454c0 -15 2 -21 20 -21h195c-8 -43 -17 -77 -24 -118z" />
    <glyph glyph-name="alt_G_001" unicode="&#xe025;" horiz-adv-x="416" 
d="M261 118v179h-27v108h152v-405h-125v56l-47 -56h-80c-78 0 -104 28 -104 103v536c0 53 26 88 84 88h182c60 0 87 -34 87 -86v-132h-125v85c0 16 -2 23 -19 23h-59c-19 0 -21 -9 -21 -23v-456c0 -15 1 -20 19 -20h83z" />
    <glyph glyph-name="alt_K_001" unicode="&#xe026;" horiz-adv-x="424" 
d="M162 727v-325h19l99 325h127l-108 -330c27 -1 55 -17 54 -43c17 -120 37 -234 56 -354h-138l-45 292c-2 13 -7 21 -22 21h-42v-313h-132v727h132z" />
    <glyph glyph-name="alt_M_001" unicode="&#xe027;" horiz-adv-x="659" 
d="M30 727h496c77 0 103 -27 103 -102v-625h-132v594c0 19 -2 23 -24 23h-78v-617h-131v595c0 15 -4 22 -21 22h-81v-617h-132v727z" />
    <glyph glyph-name="alt_M_002" unicode="&#xe028;" horiz-adv-x="570" 
d="M312 0h-54l-102 459v-459h-126v727h170l85 -399l85 399h170v-727h-125v459z" />
    <glyph glyph-name="alt_N_001" unicode="&#xe029;" 
d="M30 727h262c77 0 103 -27 103 -102v-625h-131v593c0 19 -2 24 -23 24h-79v-617h-132v727z" />
    <glyph glyph-name="alt_N_002" unicode="&#xe030;" 
d="M30 0v727h125l111 -207v207h129v-727h-130v325l-106 185v-510h-129z" />
    <glyph glyph-name="alt_R_001" unicode="&#xe031;" horiz-adv-x="423" 
d="M255 36l-58 202h-38v-238h-129v727h274c59 0 89 -30 89 -89v-345c0 -28 -25 -55 -71 -55l37 -120h52c-8 -43 -16 -77 -23 -118h-79c-27 0 -46 9 -54 36zM245 617h-86v-280h85c19 0 23 4 23 23v234c0 16 -5 23 -22 23z" />
    <glyph glyph-name="alt_R_002" unicode="&#xe032;" horiz-adv-x="423" 
d="M268 0l-69 337h43c20 0 25 3 25 22v235c0 16 -4 23 -22 23h-86v-617h-129v727h274c59 0 89 -30 89 -89v-294c0 -27 -15 -55 -60 -55l61 -289h-126z" />
    <glyph glyph-name="alt_S_001" unicode="&#xe033;" horiz-adv-x="370" 
d="M320 609h-139c-17 0 -24 -7 -26 -26c-3 -40 1 -104 25 -122c138 -92 165 -145 165 -277c0 -36 -2 -77 -4 -125c-2 -35 -32 -59 -72 -59h-195l-23 118h141c21 0 26 8 26 27c1 45 0 76 -8 103c-12 40 -47 71 -83 93c-25 16 -55 40 -76 82c-20 41 -26 84 -26 137
c0 32 1 70 3 89c5 52 45 78 95 78h174z" />
    <glyph glyph-name="alt_S_002" unicode="&#xe034;" horiz-adv-x="410" 
d="M237 617h-62c-19 0 -23 -4 -23 -23v-227c0 -25 3 -25 27 -25h128c41 0 73 -21 73 -70v-182c0 -59 -32 -90 -92 -90h-212c-7 43 -15 76 -23 118h176c21 0 24 4 24 23v79c0 31 -9 30 -37 30h-111c-39 0 -75 11 -75 76v315c0 52 27 86 90 86h175c65 0 85 -32 85 -84v-203
h-124v155c0 16 -2 22 -19 22z" />
    <glyph glyph-name="alt_W_001" unicode="&#xe035;" horiz-adv-x="659" 
d="M526 0h-393c-77 0 -103 27 -103 102v625h132v-582c0 -19 0 -27 21 -27h81v609h131v-609h80c22 0 22 8 22 27v582h132v-625c0 -75 -26 -102 -103 -102z" />
    <glyph glyph-name="alt_Y_001" unicode="&#xe036;" horiz-adv-x="422" 
d="M288 0h-226l-23 118h204c18 0 21 7 21 22v73h-133c-77 0 -101 25 -101 100v414h129v-383c0 -19 2 -24 23 -24h82v407h128v-626c0 -75 -26 -101 -104 -101z" />
    <glyph glyph-name="alt_c_001" unicode="&#xe037;" horiz-adv-x="384" 
d="M246 316v101c0 17 -6 20 -20 20h-61c-13 0 -19 -3 -19 -20v-286c0 -18 7 -17 20 -17h178l-24 -114h-229c-39 0 -61 23 -61 61v410c0 44 25 64 63 64h201c38 0 63 -20 63 -64v-155h-111z" />
    <glyph glyph-name="alt_k_001" unicode="&#xe038;" horiz-adv-x="388" 
d="M163 340l91 190h114l-95 -191c54 2 85 -27 85 -78v-261h-116v228c0 18 -5 25 -23 25h-74v-253h-115v727h115v-387h18z" />
    <glyph glyph-name="alt_r_001" unicode="&#xe039;" horiz-adv-x="385" 
d="M229 438h-80v-438h-119v535h119v-56l48 56h95c45 0 66 -23 66 -67v-170h-110v120c0 17 -6 20 -19 20z" />
    <glyph glyph-name="alt_w_001" unicode="&#xe040;" horiz-adv-x="604" 
d="M245 535h114v-430h77c14 0 22 3 22 21v409h116v-468c0 -44 -21 -67 -66 -67h-412c-44 0 -66 23 -66 67v468h116v-409c0 -18 8 -21 21 -21h78v430z" />
    <glyph glyph-name="alt_y_001" unicode="&#xe041;" horiz-adv-x="391" 
d="M247 103v432h114v-653c0 -65 -37 -97 -103 -97h-167c-13 34 -27 69 -38 101h173c11 0 21 4 21 20v94h-151c-40 0 -66 26 -66 66v469h114v-416c0 -17 5 -16 18 -16h85z" />
    <glyph glyph-name="BB_Q.001" unicode="&#xe042;" horiz-adv-x="561" 
d="M250 620h-69c-14 0 -21 -4 -21 -22v-471c0 -19 2 -23 21 -23h99c-23 57 -53 79 -83 80v26c10 3 20 4 30 4c11 0 26 -4 44 -20v404c0 18 -5 22 -21 22zM390 78c8 -27 33 -37 59 -36c41 0 57 27 57 62c0 6 0 14 -2 22h34c15 -25 23 -55 23 -83c0 -62 -37 -118 -111 -119
c-61 -1 -111 23 -131 93c-17 -16 -43 -17 -61 -17h-133c-59 0 -95 30 -95 90v552c0 59 33 85 90 85h193c56 0 89 -29 89 -85v-505c0 -14 -2 -41 -12 -59z" />
    <glyph glyph-name="BB_Q.002" unicode="&#xe043;" horiz-adv-x="540" 
d="M454 -95h-41c-63 0 -99 42 -108 111c-14 -16 -54 -16 -61 -16h-119c-63 0 -95 30 -95 96v546c0 59 33 85 90 85h193c56 0 89 -29 89 -85v-550c0 -12 -6 -28 -13 -35c-2 -21 17 -37 39 -37h22c39 0 46 0 47 43h39c2 -18 4 -32 4 -47c0 -65 -27 -111 -86 -111zM254 620h-78
c-15 0 -19 -3 -19 -21v-472c0 -19 3 -23 22 -23h95c-6 69 -45 92 -77 92v26c13 3 22 4 31 4c11 0 30 -3 46 -17v390c0 18 -4 21 -20 21z" />
    <glyph glyph-name="BB_Q.003" unicode="&#xe044;" horiz-adv-x="540" 
d="M454 -95h-61c-62 0 -107 37 -116 106c-25 -11 -49 -11 -57 -11h-95c-60 0 -95 39 -95 96v546c0 59 33 85 90 85h193c57 0 89 -29 89 -85v-550c0 -12 -5 -28 -12 -35c-3 -21 16 -37 38 -37h22c38 0 47 -5 48 43h39c2 -17 3 -34 3 -48c0 -65 -26 -110 -86 -110zM253 620
h-74c-14 0 -22 -5 -22 -23v-469c0 -19 3 -24 22 -24h95c2 30 8 61 1 101c-8 41 -36 70 -77 69v25c13 3 23 4 34 4c10 0 23 1 43 -12v306c0 18 -7 23 -22 23z" />
    <glyph glyph-name="BB_Q.004" unicode="&#xe045;" horiz-adv-x="438" 
d="M449 -119l-163 1c31 58 48 107 16 161c-8 -9 -21 -31 -30 -43h-146c-62 0 -96 36 -96 96v546c0 59 33 85 91 85h192c59 0 89 -29 89 -85v-519c46 -45 69 -165 47 -242zM251 620h-69c-14 0 -22 -4 -22 -22v-471c0 -19 3 -23 22 -23h101c-22 53 -56 72 -85 76v26
c30 3 44 4 74 -6v398c0 18 -5 22 -21 22z" />
    <glyph glyph-name="BB_Q.005" unicode="&#xe046;" horiz-adv-x="579" 
d="M311 0h-185c-62 0 -96 36 -96 96v546c0 59 34 85 91 85h192c57 0 90 -29 90 -85v-538c0 -21 -3 -36 -12 -46c18 -21 40 -27 61 -27c51 0 80 43 80 90c0 10 0 19 -2 28c33 -29 49 -72 49 -113c0 -67 -45 -132 -135 -132c-55 0 -109 26 -133 96zM251 620h-69
c-15 0 -22 -4 -22 -22v-470c0 -19 4 -24 23 -24h68c14 0 20 6 20 17c-5 41 -39 86 -71 104c19 0 51 -5 72 -19v392c0 18 -5 22 -21 22z" />
    <glyph glyph-name="BB_Q.006" unicode="&#xe047;" horiz-adv-x="578" 
d="M312 0h-186c-59 0 -96 33 -96 96v546c0 59 34 85 91 85h192c57 0 90 -29 90 -85v-522c-14 -10 -20 -26 -20 -42c0 -29 21 -58 64 -57c57 1 85 47 85 95c0 10 -2 22 -4 32c33 -29 50 -71 50 -113c0 -67 -44 -131 -134 -131c-55 0 -114 26 -132 96zM251 620h-69
c-15 0 -22 -4 -22 -22v-472c0 -19 5 -22 24 -22h67c14 0 20 6 20 17c-5 41 -34 82 -70 104c21 0 54 -6 71 -19v392c0 18 -5 22 -21 22z" />
    <glyph glyph-name="Agrave_alt" unicode="&#xe048;" 
d="M264 184h-102v-184h-132v620c0 78 40 107 118 107h129c78 0 118 -29 118 -107v-620h-131v184zM162 593v-297h102v297c0 19 -1 24 -22 24h-59c-21 0 -21 -5 -21 -24zM163 762l-173 114h135l125 -114h-87z" />
    <glyph glyph-name="Aacute_alt" unicode="&#xe049;" 
d="M162 184h102v-184h131v620c0 78 -40 107 -118 107h-129c-78 0 -118 -29 -118 -107v-620h132v184zM162 296v297c0 19 0 24 21 24h59c21 0 22 -5 22 -24v-297h-102zM430 876l-173 -114h-87l125 114h135z" />
    <glyph glyph-name="Acircumflex_alt" unicode="&#xe050;" 
d="M162 184h102v-184h131v620c0 78 -40 107 -118 107h-129c-78 0 -118 -29 -118 -107v-620h132v184zM162 296v297c0 19 0 24 21 24h59c21 0 22 -5 22 -24v-297h-102zM167 876h93l105 -118h-101l-50 65l-52 -65h-99z" />
    <glyph glyph-name="Atilde_alt" unicode="&#xe051;" 
d="M162 184h102v-184h131v620c0 78 -40 107 -118 107h-129c-78 0 -118 -29 -118 -107v-620h132v184zM162 296v297c0 19 0 24 21 24h59c21 0 22 -5 22 -24v-297h-102zM310 869h57c6 -65 -21 -112 -90 -112c-55 0 -78 36 -125 36c-22 0 -36 -11 -36 -37h-55
c-3 69 38 113 94 113c51 0 89 -38 121 -38c20 0 36 15 34 38z" />
    <glyph glyph-name="Adieresis_alt" unicode="&#xe052;" 
d="M162 184h102v-184h131v620c0 78 -40 107 -118 107h-129c-78 0 -118 -29 -118 -107v-620h132v184zM162 296v297c0 19 0 24 21 24h59c21 0 22 -5 22 -24v-297h-102zM63 823c0 36 28 67 66 67c36 0 64 -31 64 -67s-28 -66 -64 -66c-38 0 -66 30 -66 66zM233 823
c0 36 29 67 66 67s66 -31 66 -67s-29 -66 -66 -66s-66 30 -66 66z" />
    <glyph glyph-name="Aring_alt_001" unicode="&#xe053;" 
d="M121 848c0 50 41 92 91 92s92 -42 92 -92s-42 -91 -92 -91s-91 41 -91 91zM177 848c0 -18 17 -35 35 -35s35 17 35 35s-17 35 -35 35s-35 -17 -35 -35zM162 184h102v-184h131v620c0 78 -40 107 -118 107h-129c-78 0 -118 -29 -118 -107v-620h132v184zM162 296v297
c0 19 0 24 21 24h59c21 0 22 -5 22 -24v-297h-102z" />
    <glyph glyph-name="alt_AE_001" unicode="&#xe054;" horiz-adv-x="576" 
d="M264 184h-102v-184h-132v620c0 78 42 107 120 107h383l23 -118h-161v-200h124v-108h-124v-183h154l-22 -118h-263v184zM162 582v-286h102v313h-78c-21 0 -24 -8 -24 -27z" />
    <glyph glyph-name="Aring_alt_002" unicode="&#xe055;" 
d="M264 184h-102v-184h-132v620c0 78 40 107 118 107h34c-36 12 -61 46 -61 86c0 50 41 92 91 92s92 -42 92 -92c0 -40 -26 -74 -62 -86h35c78 0 118 -29 118 -107v-620h-131v184zM162 593v-297h102v297c0 19 -1 24 -22 24h-59c-21 0 -21 -5 -21 -24zM177 813
c0 -18 17 -35 35 -35s35 17 35 35s-17 35 -35 35s-35 -17 -35 -35z" />
    <glyph glyph-name="Aring_alt_003" unicode="&#xe056;" horiz-adv-x="424" 
d="M122 813c0 50 41 92 91 92s92 -42 92 -92c0 -40 -26 -74 -62 -86h45l126 -727h-128l-14 93h-120l-13 -93h-129l127 727h46c-36 12 -61 46 -61 86zM213 549l-46 -359h91zM178 813c0 -18 17 -35 35 -35s35 17 35 35s-17 35 -35 35s-35 -17 -35 -35z" />
    <glyph glyph-name="agrave_alt" unicode="&#xe057;" horiz-adv-x="391" 
d="M247 432h-83c-13 0 -20 -3 -20 -20v-283c0 -18 7 -19 20 -19h83v322zM361 535v-535h-114v56l-47 -56h-107c-38 0 -63 22 -63 63v405c0 44 22 67 66 67h265zM155 570l-173 114h135l125 -114h-87z" />
    <glyph glyph-name="aacute_alt" unicode="&#xe058;" horiz-adv-x="391" 
d="M247 432h-83c-13 0 -20 -3 -20 -20v-283c0 -18 7 -19 20 -19h83v322zM361 535v-535h-114v56l-47 -56h-107c-38 0 -63 22 -63 63v405c0 44 22 67 66 67h265zM408 684l-173 -114h-87l125 114h135z" />
    <glyph glyph-name="acircumflex_alt" unicode="&#xe059;" horiz-adv-x="391" 
d="M247 432h-83c-13 0 -20 -3 -20 -20v-283c0 -18 7 -19 20 -19h83v322zM361 535v-535h-114v56l-47 -56h-107c-38 0 -63 22 -63 63v405c0 44 22 67 66 67h265zM150 684h93l105 -118h-101l-50 65l-52 -65h-99z" />
    <glyph glyph-name="atilde_alt" unicode="&#xe060;" horiz-adv-x="391" 
d="M247 432h-83c-13 0 -20 -3 -20 -20v-283c0 -18 7 -19 20 -19h83v322zM361 535v-535h-114v56l-47 -56h-107c-38 0 -63 22 -63 63v405c0 44 22 67 66 67h265zM291 678h57c6 -65 -21 -112 -90 -112c-55 0 -78 36 -125 36c-22 0 -36 -11 -36 -37h-55c-3 69 38 113 94 113
c51 0 89 -38 121 -38c20 0 36 15 34 38z" />
    <glyph glyph-name="adieresis_alt" unicode="&#xe061;" horiz-adv-x="391" 
d="M247 432h-83c-13 0 -20 -3 -20 -20v-283c0 -18 7 -19 20 -19h83v322zM361 535v-535h-114v56l-47 -56h-107c-38 0 -63 22 -63 63v405c0 44 22 67 66 67h265zM46 628c0 36 28 67 66 67c36 0 64 -31 64 -67s-28 -66 -64 -66c-38 0 -66 30 -66 66zM216 628c0 36 29 67 66 67
s66 -31 66 -67s-29 -66 -66 -66s-66 30 -66 66z" />
    <glyph glyph-name="aring_alt_001" unicode="&#xe062;" horiz-adv-x="391" 
d="M247 432h-83c-13 0 -20 -3 -20 -20v-283c0 -18 7 -19 20 -19h83v322zM361 535v-535h-114v56l-47 -56h-107c-38 0 -63 22 -63 63v405c0 44 22 67 66 67h265zM109 656c0 50 41 92 91 92s92 -42 92 -92s-42 -91 -92 -91s-91 41 -91 91zM165 656c0 -18 17 -35 35 -35
s35 17 35 35s-17 35 -35 35s-35 -17 -35 -35z" />
    <glyph glyph-name="aring_alt_002" unicode="&#xe063;" horiz-adv-x="391" 
d="M108 621c0 50 41 92 91 92s92 -42 92 -92c0 -40 -26 -74 -62 -86h132v-535h-114v56l-47 -56h-107c-38 0 -63 22 -63 63v405c0 44 22 67 66 67h73c-36 12 -61 46 -61 86zM247 432h-83c-13 0 -20 -3 -20 -20v-283c0 -18 7 -19 20 -19h83v322zM164 621c0 -18 17 -35 35 -35
s35 17 35 35s-17 35 -35 35s-35 -17 -35 -35z" />
    <glyph glyph-name="aring_alt_003" unicode="&#xe064;" horiz-adv-x="385" 
d="M115 621c0 50 41 92 91 92s92 -42 92 -92c0 -40 -26 -74 -62 -86h49c45 0 70 -23 70 -67v-468h-114v56l-47 -56h-101c-38 0 -63 22 -63 63v212c0 44 23 66 67 66h144v65c0 16 -5 18 -19 18h-172l23 111h103c-36 12 -61 46 -61 86zM241 253h-84c-14 0 -20 -4 -20 -21v-102
c0 -18 7 -20 21 -20h83v143zM171 621c0 -18 17 -35 35 -35s35 17 35 35s-17 35 -35 35s-35 -17 -35 -35z" />
    <glyph glyph-name="ccedilla_alt_001" unicode="&#xe065;" horiz-adv-x="384" 
d="M246 316v102c0 17 -4 19 -18 19h-63c-13 0 -19 -2 -19 -19v-286c0 -18 6 -18 19 -18h179l-24 -114h-85l-37 -56c13 5 34 7 41 7c45 0 80 -28 80 -75c0 -62 -55 -90 -111 -91c-38 -1 -77 8 -108 29l16 42c17 -11 45 -21 67 -21c28 0 52 12 52 42c0 20 -18 36 -39 36
c-12 0 -24 -2 -39 -9l-34 20l57 76h-89c-39 0 -61 23 -61 61v410c0 44 25 64 63 64h201c38 0 63 -20 63 -64v-155h-111z" />
    <glyph glyph-name="Illinois_Igrave" unicode="&#xe066;" horiz-adv-x="303" 
d="M49 727h208l31 -118h-70v-491h70l-31 -118h-208l-34 118h72v491h-71zM110 764l-173 114h135l125 -114h-87z" />
    <glyph glyph-name="Illinois_Iacute" unicode="&#xe067;" horiz-adv-x="303" 
d="M49 727h208l31 -118h-70v-491h70l-31 -118h-208l-34 118h72v491h-71zM375 876l-173 -114h-87l125 114h135z" />
    <glyph glyph-name="Illinois_Icircumflex" unicode="&#xe068;" horiz-adv-x="303" 
d="M49 727h208l31 -118h-70v-491h70l-31 -118h-208l-34 118h72v491h-71zM106 876h93l105 -118h-101l-50 65l-52 -65h-99z" />
    <glyph glyph-name="Illinois_Idieresis" unicode="&#xe069;" horiz-adv-x="303" 
d="M49 727h208l31 -118h-70v-491h70l-31 -118h-208l-34 118h72v491h-71zM3 820c0 36 28 67 66 67c36 0 64 -31 64 -67s-28 -66 -64 -66c-38 0 -66 30 -66 66zM173 820c0 36 29 67 66 67s66 -31 66 -67s-29 -66 -66 -66s-66 30 -66 66z" />
    <glyph glyph-name="alt_Ccedilla_001" unicode="&#xe070;" horiz-adv-x="408" 
d="M350 0h-102l-37 -56c13 5 34 7 41 7c45 0 80 -28 80 -75c0 -62 -55 -90 -111 -91c-38 -1 -77 8 -108 29l16 42c17 -11 45 -21 67 -21c28 0 52 12 52 42c0 20 -18 36 -39 36c-12 0 -24 -2 -39 -9l-34 20l57 76h-59c-78 0 -104 28 -104 103v536c0 53 26 88 84 88h180
c60 0 87 -34 87 -86v-201h-125v153c0 16 -3 24 -20 24h-57c-19 0 -20 -10 -20 -24v-454c0 -15 2 -21 20 -21h195c-8 -43 -17 -77 -24 -118z" />
    <glyph glyph-name="alt_Ntilde_001" unicode="&#xe071;" 
d="M292 727h-262v-727h132v617h79c21 0 23 -5 23 -24v-593h131v625c0 75 -26 102 -103 102zM307 869h57c6 -65 -21 -112 -90 -112c-55 0 -78 36 -125 36c-22 0 -36 -11 -36 -37h-55c-3 69 38 113 94 113c51 0 89 -38 121 -38c20 0 36 15 34 38z" />
    <glyph glyph-name="alt_Ntilde_002" unicode="&#xe072;" 
d="M30 0v727h125l111 -207v207h129v-727h-130v325l-106 185v-510h-129zM310 869h57c6 -65 -21 -112 -90 -112c-55 0 -78 36 -125 36c-22 0 -36 -11 -36 -37h-55c-3 69 38 113 94 113c51 0 89 -38 121 -38c20 0 36 15 34 38z" />
    <glyph glyph-name="alt_Scaron_001" unicode="&#xe073;" horiz-adv-x="370" 
d="M320 609h-139c-17 0 -24 -7 -26 -26c-3 -40 1 -104 25 -122c138 -92 165 -145 165 -277c0 -36 -2 -77 -4 -125c-2 -35 -32 -59 -72 -59h-195l-23 118h141c21 0 26 8 26 27c1 45 0 76 -8 103c-12 40 -47 71 -83 93c-25 16 -55 40 -76 82c-20 41 -26 84 -26 137
c0 32 1 70 3 89c5 52 45 78 95 78h174zM222 762h-93l-104 118h99l52 -65l50 65h101z" />
    <glyph glyph-name="alt_Scaron_002" unicode="&#xe074;" horiz-adv-x="410" 
d="M254 762h-93l-104 118h99l52 -65l50 65h101zM237 617h-62c-19 0 -23 -4 -23 -23v-227c0 -25 3 -25 27 -25h128c41 0 73 -21 73 -70v-182c0 -59 -32 -90 -92 -90h-212c-7 43 -15 76 -23 118h176c21 0 24 4 24 23v79c0 31 -9 30 -37 30h-111c-39 0 -75 11 -75 76v315
c0 52 27 86 90 86h175c65 0 85 -32 85 -84v-203h-124v155c0 16 -2 22 -19 22z" />
    <glyph glyph-name="alt_Ydieresis_001" unicode="&#xe075;" horiz-adv-x="422" 
d="M288 0h-226l-23 118h204c18 0 21 7 21 22v73h-133c-77 0 -101 25 -101 100v414h129v-383c0 -19 2 -24 23 -24h82v407h128v-626c0 -75 -26 -101 -104 -101zM61 820c0 36 28 67 66 67c36 0 64 -31 64 -67s-28 -66 -64 -66c-38 0 -66 30 -66 66zM231 820c0 36 29 67 66 67
s66 -31 66 -67s-29 -66 -66 -66s-66 30 -66 66z" />
    <glyph glyph-name="alt_Yacute_001" unicode="&#xe076;" horiz-adv-x="422" 
d="M288 0h-226l-23 118h204c18 0 21 7 21 22v73h-133c-77 0 -101 25 -101 100v414h129v-383c0 -19 2 -24 23 -24h82v407h128v-626c0 -75 -26 -101 -104 -101zM429 876l-173 -114h-87l125 114h135z" />
    <glyph glyph-name="alt_yacute_001" unicode="&#xe077;" horiz-adv-x="391" 
d="M247 535v-432h-85c-13 0 -18 -1 -18 16v416h-114v-469c0 -40 26 -66 66 -66h151v-94c0 -16 -10 -20 -21 -20h-173c11 -32 25 -67 38 -101h167c66 0 103 32 103 97v653h-114zM419 684l-173 -114h-87l125 114h135z" />
    <glyph glyph-name="alt_ydieresis_001" unicode="&#xe079;" horiz-adv-x="391" 
d="M247 535v-432h-85c-13 0 -18 -1 -18 16v416h-114v-469c0 -40 26 -66 66 -66h151v-94c0 -16 -10 -20 -21 -20h-173c11 -32 25 -67 38 -101h167c66 0 103 32 103 97v653h-114zM46 628c0 36 28 67 66 67c36 0 64 -31 64 -67s-28 -66 -64 -66c-38 0 -66 30 -66 66zM216 628
c0 36 29 67 66 67s66 -31 66 -67s-29 -66 -66 -66s-66 30 -66 66z" />
    <glyph glyph-name="A_sm" unicode="&#xe080;" horiz-adv-x="404" 
d="M259 84h-114l-12 -84h-123l126 654h134l124 -654h-121zM203 494l-43 -323h86z" />
    <glyph glyph-name="B_sm" unicode="&#xe081;" horiz-adv-x="407" 
d="M232 555h-82v-196h77c15 0 27 8 27 27v147c0 14 -5 22 -22 22zM256 122v125c0 22 -13 28 -31 28h-75v-176h82c19 0 24 6 24 23zM326 319c37 -4 51 -34 51 -59v-166c0 -67 -26 -94 -101 -94h-246v654h255c57 0 86 -27 86 -80v-195c0 -29 -11 -53 -45 -60z" />
    <glyph glyph-name="C_sm" unicode="&#xe082;" horiz-adv-x="324" 
d="M279 0h-151c-74 0 -98 25 -98 93v488c0 47 34 73 76 73h174c8 -38 15 -68 22 -106h-122c-18 0 -22 -9 -22 -22v-397c0 -14 4 -23 22 -23h122c-7 -39 -15 -69 -23 -106z" />
    <glyph glyph-name="D_sm" unicode="&#xe083;" horiz-adv-x="401" 
d="M228 555h-78v-456h77c20 0 23 6 23 23v411c0 14 -5 22 -22 22zM286 0h-256v654h256c57 0 85 -27 85 -80v-494c0 -53 -28 -80 -85 -80z" />
    <glyph glyph-name="E_sm" unicode="&#xe084;" horiz-adv-x="328" 
d="M30 0v654h257l21 -106h-152v-180h117v-97h-117v-165h146l-22 -106h-250z" />
    <glyph glyph-name="F_sm" unicode="&#xe085;" horiz-adv-x="323" 
d="M30 0v654h257l21 -106h-152v-180h117v-97h-117v-271h-126z" />
    <glyph glyph-name="G_sm" unicode="&#xe086;" horiz-adv-x="390" 
d="M30 80v494c0 53 28 80 85 80h182l22 -106h-144c-17 0 -22 -9 -22 -22v-400c0 -14 5 -23 22 -23h69v270h119v-373h-248c-57 0 -85 27 -85 80z" />
    <glyph glyph-name="H_sm" unicode="&#xe087;" horiz-adv-x="406" 
d="M376 654v-654h-124v268h-97v-268h-125v654h125v-289h97v289h124z" />
    <glyph glyph-name="I_sm" unicode="&#xe088;" horiz-adv-x="187" 
d="M32 0v654h123v-654h-123z" />
    <glyph glyph-name="J_sm" unicode="&#xe089;" horiz-adv-x="392" 
d="M27 76v292h117v-244c0 -14 6 -22 23 -22h50c17 0 22 9 22 23v423h-149l22 106h250v-574c0 -47 -28 -80 -83 -80h-171c-51 0 -81 29 -81 76z" />
    <glyph glyph-name="K_sm" unicode="&#xe090;" horiz-adv-x="409" 
d="M155 367h31l77 287h131l-87 -300l85 -354h-138l-62 276h-37v-276h-125v654h125v-287z" />
    <glyph glyph-name="L_sm" unicode="&#xe091;" horiz-adv-x="316" 
d="M30 0v654h129v-548h137l-21 -106h-245z" />
    <glyph glyph-name="M_sm" unicode="&#xe092;" horiz-adv-x="500" 
d="M249 72l-98 284v-356h-121v654h132l87 -282l88 282h133v-654h-121v356z" />
    <glyph glyph-name="N_sm" unicode="&#xe093;" horiz-adv-x="393" 
d="M30 0v654h116l98 -327v327h119v-654h-116l-101 330v-330h-116z" />
    <glyph glyph-name="O_sm" unicode="&#xe094;" horiz-adv-x="407" 
d="M231 555h-56c-17 0 -22 -8 -22 -22v-411c0 -17 3 -23 23 -23h54c21 0 24 6 24 23v411c0 14 -6 22 -23 22zM377 577v-491c0 -46 -19 -86 -90 -86h-166c-72 0 -91 40 -91 86v491c0 47 25 77 85 77h178c59 0 84 -30 84 -77z" />
    <glyph glyph-name="P_sm" unicode="&#xe095;" horiz-adv-x="397" 
d="M229 555h-78v-284h77c21 0 24 7 24 24v240c0 14 -6 20 -23 20zM370 578v-323c0 -48 -34 -77 -93 -77h-126v-178h-121v654h254c59 0 86 -29 86 -76z" />
    <glyph glyph-name="Q_sm" unicode="&#xe096;" horiz-adv-x="410" 
d="M234 555h-58c-16 0 -23 -9 -23 -23v-410c0 -17 3 -23 23 -23h57c21 0 24 6 24 23v411c0 14 -5 22 -23 22zM115 654h180c60 0 85 -30 85 -77v-483c0 -67 -25 -94 -100 -94h-28v-54h-94v54h-29c-74 0 -99 27 -99 94v483c0 47 25 77 85 77z" />
    <glyph glyph-name="R_sm" unicode="&#xe097;" horiz-adv-x="402" 
d="M231 555h-80v-252h80c18 0 23 7 23 24v205c0 14 -7 23 -23 23zM374 574v-310c0 -26 -23 -50 -67 -50l74 -214h-127l-69 214h-34v-214h-121v654h259c57 0 85 -27 85 -80z" />
    <glyph glyph-name="S_sm" unicode="&#xe098;" horiz-adv-x="359" 
d="M243 0h-179l-23 106h142c21 0 25 6 25 23v125c0 28 -7 27 -33 27h-77c-37 0 -68 11 -68 69v227c0 47 25 77 84 77h188l21 -106h-151c-18 0 -25 -4 -25 -22v-130c0 -21 2 -23 23 -23h93c39 0 66 -12 66 -55v-241c0 -53 -29 -77 -86 -77z" />
    <glyph glyph-name="T_sm" unicode="&#xe099;" horiz-adv-x="337" 
d="M42 654h255l30 -106h-96v-548h-125v548h-96z" />
    <glyph glyph-name="U_sm" unicode="&#xe100;" horiz-adv-x="406" 
d="M278 0h-151c-73 0 -97 24 -97 92v562h125v-531c0 -17 3 -24 23 -24h50c20 0 24 7 24 24v531h124v-562c0 -68 -24 -92 -98 -92z" />
    <glyph glyph-name="V_sm" unicode="&#xe101;" horiz-adv-x="406" 
d="M202 222l70 432h124l-128 -654h-130c-42 220 -86 434 -128 654h123z" />
    <glyph glyph-name="W_sm" unicode="&#xe102;" horiz-adv-x="593" 
d="M405 265l52 389h126c-36 -221 -72 -434 -108 -654h-117l-62 363c-27 -112 -43 -252 -60 -363h-117l-109 654h127l50 -389l70 389h80z" />
    <glyph glyph-name="X_sm" unicode="&#xe103;" horiz-adv-x="403" 
d="M260 0l-59 265l-58 -265h-128l86 340l-82 314h124l58 -266l58 266h125l-82 -314l86 -340h-128z" />
    <glyph glyph-name="Y_sm" unicode="&#xe104;" 
d="M277 0h-129v166l-133 488h127l71 -320l71 320h126l-133 -488v-166z" />
    <glyph glyph-name="Z_sm" unicode="&#xe105;" horiz-adv-x="347" 
d="M332 654l-152 -548h134l-21 -106h-278l160 548h-149l22 106h284z" />
    <glyph glyph-name="Scaron_sm" unicode="&#xe106;" horiz-adv-x="359" 
d="M243 0h-179l-23 106h142c21 0 25 6 25 23v125c0 28 -7 27 -33 27h-77c-37 0 -68 11 -68 69v227c0 47 25 77 84 77h188l21 -106h-151c-18 0 -25 -4 -25 -22v-130c0 -21 2 -23 23 -23h93c39 0 66 -12 66 -55v-241c0 -53 -29 -77 -86 -77zM225 686h-88l-99 106h94l49 -59
l48 59h96z" />
    <glyph glyph-name="OE_sm" unicode="&#xe107;" horiz-adv-x="554" 
d="M121 0c-72 0 -91 40 -91 86v491c0 47 25 77 85 77h398c7 -38 14 -68 21 -106h-152v-180h117v-97h-117v-165h146c-6 -39 -14 -69 -22 -106h-385zM254 548h-79c-17 0 -22 -8 -22 -22v-396c0 -18 3 -24 23 -24h78v442z" />
    <glyph glyph-name="Zcaron_sm" unicode="&#xe108;" horiz-adv-x="383" 
d="M332 654l-152 -548h134l-21 -106h-278l160 548h-149l22 106h284zM229 686h-88l-99 106h94l49 -59l48 59h96z" />
    <glyph glyph-name="Ydieresis_sm" unicode="&#xe109;" 
d="M277 0h-129v166l-133 488h127l71 -320l71 320h126l-133 -488v-166zM69 741c0 32 27 60 63 60c34 0 61 -28 61 -60c0 -33 -27 -60 -61 -60c-36 0 -63 27 -63 60zM231 741c0 32 27 60 63 60c35 0 62 -28 62 -60c0 -33 -27 -60 -62 -60c-36 0 -63 27 -63 60z" />
    <glyph glyph-name="Agrave_sm" unicode="&#xe110;" horiz-adv-x="404" 
d="M259 84h-114l-12 -84h-123l121 654h144l119 -654h-121zM203 494l-43 -323h86zM157 686l-164 102h128l119 -102h-83z" />
    <glyph glyph-name="Aacute_sm" unicode="&#xe111;" horiz-adv-x="404" 
d="M259 84h-114l-12 -84h-123l121 654h144l119 -654h-121zM203 494l-43 -323h86zM415 788l-164 -102h-83l119 102h128z" />
    <glyph glyph-name="Acircumflex_sm" unicode="&#xe112;" horiz-adv-x="404" 
d="M259 84h-114l-12 -84h-123l121 654h144l119 -654h-121zM203 494l-43 -323h86zM159 788h88l100 -106h-96l-48 59l-49 -59h-94z" />
    <glyph glyph-name="Atilde_sm" unicode="&#xe113;" horiz-adv-x="404" 
d="M259 84h-114l-12 -84h-123l121 654h144l119 -654h-121zM203 494l-43 -323h86zM290 783h54c5 -59 -20 -101 -86 -101c-52 0 -74 33 -119 33c-20 0 -34 -10 -34 -34h-52c-3 62 36 102 89 102c49 0 85 -34 115 -34c19 0 34 13 33 34z" />
    <glyph glyph-name="Adieresis_sm" unicode="&#xe114;" horiz-adv-x="404" 
d="M259 84h-114l-12 -84h-123l121 654h144l119 -654h-121zM203 494l-43 -323h86zM60 741c0 32 26 60 63 60c34 0 60 -28 60 -60c0 -33 -26 -60 -60 -60c-37 0 -63 27 -63 60zM221 741c0 32 28 60 63 60s63 -28 63 -60c0 -33 -28 -60 -63 -60s-63 27 -63 60z" />
    <glyph glyph-name="Aring_sm" unicode="&#xe115;" horiz-adv-x="404" 
d="M259 84h-114l-12 -84h-123l121 654h144l119 -654h-121zM203 494l-43 -323h86zM117 763c0 45 39 83 86 83c48 0 88 -38 88 -83s-40 -82 -88 -82c-47 0 -86 37 -86 82zM170 763c0 -16 16 -31 33 -31s34 15 34 31s-17 32 -34 32s-33 -16 -33 -32z" />
    <glyph glyph-name="AE_sm" unicode="&#xe116;" horiz-adv-x="596" 
d="M302 84h-132l-30 -84h-130l253 654h292l21 -106h-152v-180h117v-97h-117v-165h147l-22 -106h-247v84zM302 479l-103 -308h103v308z" />
    <glyph glyph-name="Ccedilla_sm" unicode="&#xe117;" horiz-adv-x="324" 
d="M83 -163l15 38c16 -10 43 -19 64 -19c26 0 49 11 49 38c0 18 -17 32 -37 32c-12 0 -23 -2 -37 -8l-32 18l51 64h-28c-74 0 -98 25 -98 93v488c0 47 34 73 76 73h174l22 -106h-123c-17 0 -21 -7 -21 -21v-400c0 -14 3 -21 20 -21h124l-23 -106h-72l-31 -46c12 5 32 6 39 6
c42 0 76 -25 76 -67c0 -56 -52 -81 -106 -82c-36 -1 -73 7 -102 26z" />
    <glyph glyph-name="Egrave_sm" unicode="&#xe118;" horiz-adv-x="328" 
d="M30 0v654h257l21 -106h-152v-180h117v-97h-117v-165h146l-22 -106h-250zM139 686l-165 102h129l118 -102h-82z" />
    <glyph glyph-name="Eacute_sm" unicode="&#xe119;" horiz-adv-x="328" 
d="M30 654v-654h250l22 106h-146v165h117v97h-117v180h152l-21 106h-257zM369 788l-164 -102h-83l119 102h128z" />
    <glyph glyph-name="Ecircumflex_sm" unicode="&#xe120;" horiz-adv-x="328" 
d="M30 654v-654h250l22 106h-146v165h117v97h-117v180h152l-21 106h-257zM118 788h88l100 -106h-96l-48 59l-49 -59h-94z" />
    <glyph glyph-name="Edieresis_sm" unicode="&#xe121;" horiz-adv-x="329" 
d="M30 654v-654h250l22 106h-146v165h117v97h-117v180h152l-21 106h-257zM22 741c0 32 26 60 63 60c34 0 60 -28 60 -60c0 -33 -26 -60 -60 -60c-37 0 -63 27 -63 60zM183 741c0 32 28 60 63 60s63 -28 63 -60c0 -33 -28 -60 -63 -60s-63 27 -63 60z" />
    <glyph glyph-name="Igrave_sm" unicode="&#xe122;" horiz-adv-x="187" 
d="M32 0v654h123v-654h-123zM46 686l-164 102h128l119 -102h-83z" />
    <glyph glyph-name="Iacute_sm" unicode="&#xe123;" horiz-adv-x="187" 
d="M32 654v-654h123v654h-123zM300 788l-164 -102h-83l119 102h128z" />
    <glyph glyph-name="Icircumflex_sm" unicode="&#xe124;" horiz-adv-x="187" 
d="M32 654v-654h123v654h-123zM47 788h89l100 -106h-96l-48 59l-49 -59h-94z" />
    <glyph glyph-name="Idieresis_sm" unicode="&#xe125;" horiz-adv-x="187" 
d="M32 654v-654h123v654h-123zM-49 741c0 32 26 60 62 60c34 0 61 -28 61 -60c0 -33 -27 -60 -61 -60c-36 0 -62 27 -62 60zM112 741c0 32 28 60 63 60s62 -28 62 -60c0 -33 -27 -60 -62 -60s-63 27 -63 60z" />
    <glyph glyph-name="Eth_sm" unicode="&#xe126;" horiz-adv-x="416" 
d="M10 281l10 92h19v281h262c57 0 85 -27 85 -80v-494c0 -53 -28 -80 -85 -80h-262v281h-29zM244 555h-83v-182h43l-9 -92h-34v-182h80c18 0 24 3 24 20v416c0 15 -3 20 -21 20z" />
    <glyph glyph-name="Ntilde_sm" unicode="&#xe127;" horiz-adv-x="393" 
d="M30 654v-654h116v330l101 -330h116v654h-119v-327l-98 327h-116zM297 783h55c5 -59 -20 -101 -86 -101c-52 0 -74 33 -119 33c-21 0 -34 -10 -34 -34h-52c-3 62 36 102 89 102c49 0 85 -34 115 -34c19 0 34 13 32 34z" />
    <glyph glyph-name="Ograve_sm" unicode="&#xe128;" horiz-adv-x="407" 
d="M231 555h-56c-17 0 -22 -8 -22 -22v-411c0 -17 3 -23 23 -23h54c21 0 24 6 24 23v411c0 14 -6 22 -23 22zM377 577v-491c0 -46 -19 -86 -90 -86h-166c-72 0 -91 40 -91 86v491c0 47 25 77 85 77h178c59 0 84 -30 84 -77zM165 686l-164 102h128l119 -102h-83z" />
    <glyph glyph-name="Oacute_sm" unicode="&#xe129;" horiz-adv-x="407" 
d="M231 555h-56c-17 0 -22 -8 -22 -22v-411c0 -17 3 -23 23 -23h54c21 0 24 6 24 23v411c0 14 -6 22 -23 22zM377 577v-491c0 -46 -19 -86 -90 -86h-166c-72 0 -91 40 -91 86v491c0 47 25 77 85 77h178c59 0 84 -30 84 -77zM406 788l-165 -102h-82l118 102h129z" />
    <glyph glyph-name="Ocircumflex_sm" unicode="&#xe130;" horiz-adv-x="407" 
d="M231 555h-56c-17 0 -22 -8 -22 -22v-411c0 -17 3 -23 23 -23h54c21 0 24 6 24 23v411c0 14 -6 22 -23 22zM377 577v-491c0 -46 -19 -86 -90 -86h-166c-72 0 -91 40 -91 86v491c0 47 25 77 85 77h178c59 0 84 -30 84 -77zM159 788h88l100 -106h-96l-48 59l-49 -59h-94z
" />
    <glyph glyph-name="Otilde_sm" unicode="&#xe131;" horiz-adv-x="407" 
d="M231 555h-56c-17 0 -22 -8 -22 -22v-411c0 -17 3 -23 23 -23h54c21 0 24 6 24 23v411c0 14 -6 22 -23 22zM377 577v-491c0 -46 -19 -86 -90 -86h-166c-72 0 -91 40 -91 86v491c0 47 25 77 85 77h178c59 0 84 -30 84 -77zM294 783h54c5 -59 -20 -101 -86 -101
c-52 0 -74 33 -119 33c-20 0 -34 -10 -34 -34h-52c-3 62 36 102 89 102c49 0 85 -34 115 -34c19 0 34 13 33 34z" />
    <glyph glyph-name="Odieresis_sm" unicode="&#xe132;" horiz-adv-x="407" 
d="M231 555h-56c-17 0 -22 -8 -22 -22v-411c0 -17 3 -23 23 -23h54c21 0 24 6 24 23v411c0 14 -6 22 -23 22zM377 577v-491c0 -46 -19 -86 -90 -86h-166c-72 0 -91 40 -91 86v491c0 47 25 77 85 77h178c59 0 84 -30 84 -77zM61 741c0 32 26 60 63 60c34 0 60 -28 60 -60
c0 -33 -26 -60 -60 -60c-37 0 -63 27 -63 60zM222 741c0 32 28 60 63 60s63 -28 63 -60c0 -33 -28 -60 -63 -60s-63 27 -63 60z" />
    <glyph glyph-name="Oslash_sm" unicode="&#xe133;" horiz-adv-x="407" 
d="M377 577v-491c0 -46 -19 -86 -90 -86h-166c-17 0 -41 2 -54 8l-13 -25l-27 13l15 28c-14 18 -12 39 -12 62v491c0 47 25 77 85 77h178c17 0 30 -2 46 -9l13 25l27 -11l-17 -34c9 -14 15 -30 15 -48zM235 555h-64c-17 0 -20 -6 -20 -20v-306l105 264v42c0 14 -3 20 -21 20
zM234 99c21 0 22 3 22 20v292l-105 -263v-29c0 -17 1 -20 21 -20h62z" />
    <glyph glyph-name="Ugrave_sm" unicode="&#xe134;" horiz-adv-x="406" 
d="M278 0h-151c-73 0 -97 24 -97 92v562h125v-531c0 -17 3 -24 23 -24h50c20 0 24 7 24 24v531h124v-562c0 -68 -24 -92 -98 -92zM165 686l-164 102h128l119 -102h-83z" />
    <glyph glyph-name="Uacute_sm" unicode="&#xe135;" horiz-adv-x="406" 
d="M278 0h-151c-73 0 -97 24 -97 92v562h125v-531c0 -17 3 -24 23 -24h50c20 0 24 7 24 24v531h124v-562c0 -68 -24 -92 -98 -92zM405 788l-165 -102h-82l118 102h129z" />
    <glyph glyph-name="Ucircumflex_sm" unicode="&#xe136;" horiz-adv-x="405" 
d="M278 0h-151c-73 0 -97 24 -97 92v562h125v-531c0 -17 3 -24 23 -24h50c20 0 24 7 24 24v531h124v-562c0 -68 -24 -92 -98 -92zM160 788h88l100 -106h-96l-48 59l-49 -59h-94z" />
    <glyph glyph-name="Udieresis_sm" unicode="&#xe137;" horiz-adv-x="405" 
d="M278 0h-151c-73 0 -97 24 -97 92v562h125v-531c0 -17 3 -24 23 -24h50c20 0 24 7 24 24v531h124v-562c0 -68 -24 -92 -98 -92zM61 741c0 32 26 60 63 60c34 0 60 -28 60 -60c0 -33 -26 -60 -60 -60c-37 0 -63 27 -63 60zM222 741c0 32 28 60 63 60s63 -28 63 -60
c0 -33 -28 -60 -63 -60s-63 27 -63 60z" />
    <glyph glyph-name="Yacute_sm" unicode="&#xe138;" 
d="M277 0h-129v166l-133 488h127l71 -320l71 320h126l-133 -488v-166zM423 788l-165 -102h-82l119 102h128z" />
    <glyph glyph-name="Thorn_sm" unicode="&#xe139;" horiz-adv-x="402" 
d="M234 472h-83v-297h82c21 0 22 6 22 22v255c0 13 -4 20 -21 20zM372 494v-333c0 -48 -26 -77 -85 -77h-136v-84h-121v654h121v-83h136c59 0 85 -29 85 -77z" />
    <glyph glyph-name="Lslash_sm" unicode="&#xe140;" horiz-adv-x="365" 
d="M82 0v259l-62 -71v68l62 72v326h125v-177l62 71v-68l-62 -73v-301h141l-21 -106h-245z" />
    <glyph glyph-name="Illinois_I_sm" unicode="&#xe141;" horiz-adv-x="290" 
d="M48 654h197l30 -106h-67v-442h67l-30 -106h-197l-33 106h69v442h-68z" />
    <glyph glyph-name="unarmed_J_sm" unicode="&#xe142;" horiz-adv-x="404" 
d="M27 77v302h120v-254c0 -15 3 -21 21 -21h60c17 0 19 7 19 22v528h127v-571c0 -49 -28 -83 -85 -83h-179c-52 0 -83 30 -83 77z" />
    <glyph glyph-name="T_T_sm" unicode="&#xe143;" horiz-adv-x="576" 
d="M47 654h485l29 -106h-91v-548h-125v548h-114v-548h-125v548h-91z" />
    <glyph glyph-name="Arkansas_A_sm" unicode="&#xe144;" horiz-adv-x="406" 
d="M252 166h-97v-166h-125v558c0 70 37 96 112 96h122c74 0 112 -26 112 -96v-558h-124v166zM155 534v-268h97v268c0 17 -1 21 -21 21h-56c-20 0 -20 -4 -20 -21z" />
    <glyph glyph-name="alt_C_001_sm" unicode="&#xe145;" horiz-adv-x="388" 
d="M333 0h-205c-74 0 -98 25 -98 93v482c0 48 24 79 79 79h171c57 0 83 -30 83 -77v-181h-119v138c0 14 -3 21 -19 21h-54c-18 0 -19 -9 -19 -21v-409c0 -13 2 -19 19 -19h185c-7 -39 -16 -69 -23 -106z" />
    <glyph glyph-name="alt_G_001_sm" unicode="&#xe146;" horiz-adv-x="393" 
d="M249 106v161h-26v97h145v-364h-119v50l-45 -50h-76c-74 0 -98 25 -98 93v482c0 48 24 79 79 79h173c57 0 83 -30 83 -77v-119h-119v77c0 14 -2 20 -18 20h-56c-18 0 -20 -8 -20 -20v-411c0 -13 1 -18 18 -18h79z" />
    <glyph glyph-name="alt_K_001_sm" unicode="&#xe147;" horiz-adv-x="405" 
d="M155 654v-292h18l94 292h121l-103 -297c26 -1 52 -15 51 -38c16 -108 35 -211 54 -319h-132l-42 263c-2 11 -7 19 -21 19h-40v-282h-125v654h125z" />
    <glyph glyph-name="alt_M_001_sm" unicode="&#xe148;" horiz-adv-x="629" 
d="M30 654h471c73 0 98 -24 98 -92v-562h-126v535c0 17 -2 20 -23 20h-74v-555h-124v535c0 14 -4 20 -20 20h-77v-555h-125v654z" />
    <glyph glyph-name="alt_N_001_sm" unicode="&#xe149;" horiz-adv-x="406" 
d="M30 654h248c74 0 98 -24 98 -92v-562h-124v534c0 17 -2 21 -22 21h-75v-555h-125v654z" />
    <glyph glyph-name="alt_N_002_sm" unicode="&#xe150;" horiz-adv-x="406" 
d="M30 0v654h118l106 -186v186h122v-654h-123v292l-101 167v-459h-122z" />
    <glyph glyph-name="alt_R_001_sm" unicode="&#xe151;" horiz-adv-x="403" 
d="M243 32l-55 182h-36v-214h-122v654h260c56 0 84 -27 84 -80v-310c0 -26 -23 -50 -67 -50l35 -108h49c-7 -39 -15 -69 -21 -106h-75c-26 0 -44 8 -52 32zM234 555h-82v-252h81c18 0 22 4 22 21v211c0 14 -5 20 -21 20z" />
    <glyph glyph-name="alt_R_002_sm" unicode="&#xe152;" horiz-adv-x="400" 
d="M255 0l-65 303h41c19 0 23 3 23 20v212c0 14 -3 20 -20 20h-82v-555h-122v654h260c56 0 84 -27 84 -80v-264c0 -25 -14 -50 -57 -50l58 -260h-120z" />
    <glyph glyph-name="alt_S_001_sm" unicode="&#xe153;" horiz-adv-x="354" 
d="M305 548h-132c-16 0 -23 -6 -25 -23c-3 -36 1 -94 24 -110c131 -83 157 -131 157 -249c0 -33 -2 -70 -4 -113c-2 -31 -30 -53 -68 -53h-186l-22 106h134c20 0 25 7 25 24c1 41 0 69 -8 93c-11 36 -44 64 -78 84c-24 14 -53 36 -73 74c-19 37 -24 75 -24 123
c0 29 1 65 3 82c4 47 42 68 90 68h165z" />
    <glyph glyph-name="alt_S_002_sm" unicode="&#xe154;" horiz-adv-x="392" 
d="M226 555h-59c-18 0 -22 -3 -22 -20v-205c0 -22 3 -22 26 -22h122c39 0 69 -19 69 -63v-164c0 -53 -30 -81 -87 -81h-202c-6 39 -14 68 -22 106h168c20 0 22 4 22 21v71c0 28 -8 27 -35 27h-105c-37 0 -71 10 -71 68v284c0 47 25 77 85 77h166c62 0 81 -29 81 -75v-183
h-118v139c0 15 -2 20 -18 20z" />
    <glyph glyph-name="alt_W_001_sm" unicode="&#xe155;" horiz-adv-x="629" 
d="M501 0h-374c-73 0 -97 24 -97 92v562h125v-524c0 -17 0 -24 20 -24h77v548h124v-548h76c21 0 21 7 21 24v524h126v-562c0 -68 -25 -92 -98 -92z" />
    <glyph glyph-name="alt_Y_001_sm" unicode="&#xe156;" horiz-adv-x="403" 
d="M275 0h-215l-22 106h194c17 0 20 6 20 20v66h-127c-73 0 -95 22 -95 90v372h122v-344c0 -18 2 -22 22 -22h78v366h121v-563c0 -68 -24 -91 -98 -91z" />
    <glyph glyph-name="BB_Q.001sm" unicode="&#xe157;" horiz-adv-x="569" 
d="M181 543c-8 0 -13 -4 -13 -13v-408c0 -10 2 -13 13 -13h76c-18 42 -47 55 -74 51v39c30 9 52 9 69 -3v334c0 9 -4 13 -12 13h-59zM382 80c7 -19 24 -26 44 -25c42 0 51 38 39 74h49c50 -78 24 -194 -87 -196c-61 -1 -110 18 -127 76c-13 -9 -32 -9 -50 -9h-124
c-18 0 -34 3 -47 7c-38 16 -49 48 -49 86v478c0 58 34 83 92 83h178c58 0 92 -28 92 -83v-442c0 -13 -3 -40 -10 -49z" />
    <glyph glyph-name="BB_Q.002_sm" unicode="&#xe158;" horiz-adv-x="550" 
d="M430 -83h-38c-62 0 -98 32 -107 89c-15 -5 -42 -6 -48 -6h-111c-18 0 -34 3 -47 7c-39 16 -49 48 -49 86v478c0 58 34 83 92 83h178c58 0 92 -28 92 -83v-482c0 -12 -5 -28 -12 -34c-1 -11 12 -20 27 -20h20c30 0 33 1 34 38h54c16 -89 -8 -157 -85 -156zM243 543h-66
c-8 0 -12 -4 -12 -13v-408c0 -10 3 -13 14 -13h75c-6 56 -43 67 -71 61v41c30 7 54 8 72 -3v322c0 9 -4 13 -12 13z" />
    <glyph glyph-name="BB_Q.003sm" unicode="&#xe159;" horiz-adv-x="550" 
d="M430 -83h-54c-62 0 -106 32 -115 89c-15 -5 -37 -6 -44 -6h-89c-20 0 -35 3 -47 7c-40 16 -51 48 -51 86v478c0 58 34 83 92 83h178c59 0 92 -28 92 -83v-482c0 -12 -4 -28 -11 -34c-2 -11 11 -20 26 -20h20c28 0 34 1 35 38h53c16 -89 -7 -157 -85 -156zM243 543h-64
c-8 0 -14 -4 -14 -13v-408c0 -10 3 -13 14 -13h78c2 25 3 48 -1 77c-7 38 -28 60 -72 52v40c29 6 55 9 72 -2v254c0 9 -5 13 -13 13z" />
    <glyph glyph-name="BB_Q.004sm" unicode="&#xe160;" horiz-adv-x="454" 
d="M434 -104h-175c37 55 44 117 31 135l-23 -31h-140c-62 0 -97 35 -97 93v478c0 58 34 83 93 83h177c60 0 92 -28 92 -83v-451c40 -41 67 -136 42 -224zM241 543h-60c-7 0 -13 -4 -13 -13v-408c0 -10 3 -13 13 -13h77c-17 39 -47 48 -74 48v41c29 4 52 4 69 -3v335
c0 9 -4 13 -12 13z" />
    <glyph glyph-name="BB_Q.005sm" unicode="&#xe161;" horiz-adv-x="587" 
d="M292 0h-165c-62 0 -97 35 -97 93v478c0 58 35 83 93 83h177c59 0 93 -28 93 -83v-471c0 -20 -3 -29 -9 -40c10 -11 27 -15 45 -15c59 1 81 68 51 119c118 -61 100 -247 -59 -248c-54 0 -107 23 -129 84zM241 543h-60c-8 0 -13 -4 -13 -13v-408c0 -10 2 -13 13 -13h62
c6 0 9 2 9 5c-6 44 -32 88 -71 95c30 10 54 9 72 -5v326c0 9 -4 13 -12 13z" />
    <glyph glyph-name="BB_Q.006sm" unicode="&#xe162;" horiz-adv-x="586" 
d="M292 0h-165c-18 0 -34 3 -47 7c-38 16 -50 48 -50 86v478c0 58 35 83 93 83h177c59 0 93 -28 93 -83v-462c-34 -17 -22 -75 31 -73c69 2 84 77 54 128c118 -61 102 -247 -57 -248c-54 0 -112 23 -129 84zM241 543h-60c-8 0 -13 -4 -13 -13v-408c0 -10 2 -13 13 -13h62
c6 0 9 2 9 5c-6 44 -32 88 -71 95c30 10 54 9 72 -5v326c0 9 -4 13 -12 13z" />
    <glyph glyph-name="Agrave_alt_sm" unicode="&#xe163;" horiz-adv-x="406" 
d="M252 166h-97v-166h-125v558c0 70 37 96 112 96h122c74 0 112 -26 112 -96v-558h-124v166zM155 534v-268h97v268c0 17 -1 21 -21 21h-56c-20 0 -20 -4 -20 -21zM156 686l-165 102h129l119 -102h-83z" />
    <glyph glyph-name="Aacute_alt_sm" unicode="&#xe164;" horiz-adv-x="406" 
d="M155 166h97v-166h124v558c0 70 -38 96 -112 96h-122c-75 0 -112 -26 -112 -96v-558h125v166zM155 266v268c0 17 0 21 20 21h56c20 0 21 -4 21 -21v-268h-97zM410 788l-165 -102h-83l119 102h129z" />
    <glyph glyph-name="Acircumflex_alt_sm" unicode="&#xe165;" horiz-adv-x="406" 
d="M155 166h97v-166h124v558c0 70 -38 96 -112 96h-122c-75 0 -112 -26 -112 -96v-558h125v166zM155 266v268c0 17 0 21 20 21h56c20 0 21 -4 21 -21v-268h-97zM160 788h88l100 -106h-96l-48 59l-49 -59h-94z" />
    <glyph glyph-name="Atilde_alt_sm" unicode="&#xe166;" horiz-adv-x="406" 
d="M155 166h97v-166h124v558c0 70 -38 96 -112 96h-122c-75 0 -112 -26 -112 -96v-558h125v166zM155 266v268c0 17 0 21 20 21h56c20 0 21 -4 21 -21v-268h-97zM295 782h55c5 -58 -20 -101 -86 -101c-52 0 -74 33 -119 33c-20 0 -34 -10 -34 -34h-52c-3 62 36 102 89 102
c49 0 85 -34 115 -34c19 0 34 13 32 34z" />
    <glyph glyph-name="Adieresis_alt_sm" unicode="&#xe167;" horiz-adv-x="406" 
d="M155 166h97v-166h124v558c0 70 -38 96 -112 96h-122c-75 0 -112 -26 -112 -96v-558h125v166zM155 266v268c0 17 0 21 20 21h56c20 0 21 -4 21 -21v-268h-97zM61 741c0 32 26 60 63 60c34 0 60 -28 60 -60c0 -33 -26 -60 -60 -60c-37 0 -63 27 -63 60zM222 741
c0 32 28 60 63 60s63 -28 63 -60c0 -33 -28 -60 -63 -60s-63 27 -63 60z" />
    <glyph glyph-name="Aring_alt_001_sm" unicode="&#xe168;" horiz-adv-x="406" 
d="M116 763c0 45 39 83 86 83c48 0 88 -38 88 -83s-40 -82 -88 -82c-47 0 -86 37 -86 82zM169 763c0 -16 16 -31 33 -31c18 0 34 15 34 31s-16 32 -34 32c-17 0 -33 -16 -33 -32zM155 166h97v-166h124v558c0 70 -38 96 -112 96h-122c-75 0 -112 -26 -112 -96v-558h125v166z
M155 266v268c0 17 0 21 20 21h56c20 0 21 -4 21 -21v-268h-97z" />
    <glyph glyph-name="alt_AE_001_sm" unicode="&#xe169;" horiz-adv-x="549" 
d="M252 166h-97v-166h-125v558c0 70 39 96 113 96h364l22 -106h-153v-180h118v-97h-118v-165h147l-21 -106h-250v166zM155 524v-258h97v282h-74c-20 0 -23 -7 -23 -24z" />
    <glyph glyph-name="Aring_alt_002_sm" unicode="&#xe170;" horiz-adv-x="406" 
d="M252 166h-97v-166h-125v558c0 70 37 96 112 96h32c-34 11 -58 42 -58 78c0 45 39 82 86 82c48 0 88 -37 88 -82c0 -36 -25 -67 -59 -78h33c74 0 112 -26 112 -96v-558h-124v166zM155 534v-268h97v268c0 17 -1 21 -21 21h-56c-20 0 -20 -4 -20 -21zM169 732
c0 -17 16 -32 33 -32c18 0 34 15 34 32c0 16 -16 31 -34 31c-17 0 -33 -15 -33 -31z" />
    <glyph glyph-name="Aring_alt_003_sm" unicode="&#xe171;" horiz-adv-x="404" 
d="M117 732c0 45 39 82 86 82c48 0 88 -37 88 -82c0 -36 -25 -67 -59 -78h43l119 -654h-121l-14 84h-114l-12 -84h-123l121 654h44c-34 11 -58 42 -58 78zM203 494l-43 -323h86zM170 732c0 -17 16 -32 33 -32s34 15 34 32c0 16 -17 31 -34 31s-33 -15 -33 -31z" />
    <glyph glyph-name="Illinois_Igrave_sm" unicode="&#xe172;" horiz-adv-x="289" 
d="M47 654h197l30 -106h-67v-442h67l-30 -106h-197l-33 106h69v442h-68zM105 688l-165 102h128l119 -102h-82z" />
    <glyph glyph-name="Illinois_Iacute_sm" unicode="&#xe173;" horiz-adv-x="289" 
d="M47 654h197l30 -106h-67v-442h67l-30 -106h-197l-33 106h69v442h-68zM356 788l-164 -102h-83l119 102h128z" />
    <glyph glyph-name="Illinois_Icircumflex_sm" unicode="&#xe174;" horiz-adv-x="290" 
d="M48 654h197l30 -106h-67v-442h67l-30 -106h-197l-33 106h69v442h-68zM102 788h88l100 -106h-96l-48 59l-49 -59h-94z" />
    <glyph glyph-name="Illinois_Idieresis_sm" unicode="&#xe175;" horiz-adv-x="290" 
d="M48 654h197l30 -106h-67v-442h67l-30 -106h-197l-33 106h69v442h-68zM3 738c0 32 26 60 63 60c34 0 60 -28 60 -60s-26 -59 -60 -59c-37 0 -63 27 -63 59zM164 738c0 32 28 60 63 60s63 -28 63 -60s-28 -59 -63 -59s-63 27 -63 59z" />
    <glyph glyph-name="alt_Ccedilla_001_sm" unicode="&#xe176;" horiz-adv-x="390" 
d="M333 0h-96l-36 -50c13 4 33 6 39 6c43 0 76 -25 76 -68c0 -55 -52 -81 -105 -82c-36 0 -73 8 -103 27l16 37c16 -10 42 -19 63 -19c27 0 50 11 50 38c0 18 -17 33 -37 33c-12 0 -23 -2 -38 -8l-32 18l54 68h-56c-74 0 -98 25 -98 93v482c0 48 24 79 79 79h171
c57 0 83 -30 83 -77v-181h-119v138c0 14 -3 21 -19 21h-54c-18 0 -19 -9 -19 -21v-409c0 -13 2 -19 19 -19h185c-7 -39 -16 -69 -23 -106z" />
    <glyph glyph-name="alt_Ntilde_001_sm" unicode="&#xe177;" horiz-adv-x="406" 
d="M278 654h-248v-654h125v555h75c20 0 22 -4 22 -21v-534h124v562c0 68 -24 92 -98 92zM293 782h54c5 -58 -20 -101 -86 -101c-52 0 -74 33 -118 33c-21 0 -35 -10 -35 -34h-52c-3 62 36 102 89 102c49 0 85 -34 115 -34c19 0 35 13 33 34z" />
    <glyph glyph-name="alt_Ntilde_002_sm" unicode="&#xe178;" horiz-adv-x="406" 
d="M30 0v654h118l106 -186v186h122v-654h-123v292l-101 167v-459h-122zM295 782h55c5 -58 -20 -101 -86 -101c-52 0 -74 33 -119 33c-20 0 -34 -10 -34 -34h-52c-3 62 36 102 89 102c49 0 85 -34 115 -34c19 0 34 13 32 34z" />
    <glyph glyph-name="alt_Scaron_001_sm" unicode="&#xe179;" horiz-adv-x="354" 
d="M305 548h-132c-16 0 -23 -6 -25 -23c-3 -36 1 -94 24 -110c131 -83 157 -131 157 -249c0 -33 -2 -70 -4 -113c-2 -31 -30 -53 -68 -53h-186l-22 106h134c20 0 25 7 25 24c1 41 0 69 -8 93c-11 36 -44 64 -78 84c-24 14 -53 36 -73 74c-19 37 -24 75 -24 123
c0 29 1 63 3 80c4 47 42 70 90 70h165zM211 686h-88l-99 106h94l49 -59l48 59h96z" />
    <glyph glyph-name="alt_Scaron_002_sm" unicode="&#xe180;" horiz-adv-x="392" 
d="M242 686h-88l-99 106h94l50 -59l47 59h96zM226 555h-59c-18 0 -22 -3 -22 -20v-205c0 -22 3 -22 26 -22h122c39 0 69 -19 69 -63v-164c0 -53 -30 -81 -87 -81h-202c-6 39 -14 68 -22 106h168c20 0 22 4 22 21v71c0 28 -8 27 -35 27h-105c-37 0 -71 10 -71 68v284
c0 47 25 77 85 77h166c62 0 81 -29 81 -75v-183h-118v139c0 15 -2 20 -18 20z" />
    <glyph glyph-name="alt_Ydieresis_001_sm" unicode="&#xe181;" horiz-adv-x="403" 
d="M275 0h-215l-22 106h194c17 0 20 6 20 20v66h-127c-73 0 -95 22 -95 90v372h122v-344c0 -18 2 -22 22 -22h78v366h121v-563c0 -68 -24 -91 -98 -91zM59 738c0 32 27 60 63 60c34 0 60 -28 60 -60s-26 -59 -60 -59c-36 0 -63 27 -63 59zM220 738c0 32 28 60 63 60
s63 -28 63 -60s-28 -59 -63 -59s-63 27 -63 59z" />
    <glyph glyph-name="alt_Yacute_001_sm" unicode="&#xe182;" horiz-adv-x="403" 
d="M275 0h-215l-22 106h194c17 0 20 6 20 20v66h-127c-73 0 -95 22 -95 90v372h122v-344c0 -18 2 -22 22 -22h78v366h121v-563c0 -68 -24 -91 -98 -91zM409 788l-165 -102h-82l118 102h129z" />
    <glyph glyph-name="commaaccent" unicode="&#xe183;" horiz-adv-x="216" 
d="M33 -115c0 41 34 75 75 75c42 0 76 -34 76 -75c0 -44 -41 -104 -75 -134h-50c14 20 27 40 33 62c-39 5 -59 40 -59 72z" />
    <glyph glyph-name="invertedbreve" unicode="&#xe184;" horiz-adv-x="337" 
d="M305 762h-71c0 42 -28 68 -65 68c-35 0 -65 -26 -65 -68h-71c1 74 57 126 136 126s135 -52 136 -126z" />
    <glyph glyph-name="doublegrave" unicode="&#xe185;" horiz-adv-x="417" 
d="M166 762l-138 121h106l115 -121h-83zM307 762l-125 121h107l97 -121h-79z" />
    <glyph glyph-name="horn" unicode="&#xe186;" horiz-adv-x="194" 
d="M19 677c0 52 36 80 79 80c54 0 77 -37 77 -80c0 -45 -17 -134 -183 -175v45c43 8 90 38 94 68c-42 -2 -67 35 -67 62z" />
    <glyph glyph-name="Amacron" unicode="&#x100;" horiz-adv-x="424" 
d="M272 93h-120l-13 -93h-129l127 727h151l126 -727h-128zM213 549l-46 -359h91zM58 770l19 75h273l19 -75h-311z" />
    <glyph glyph-name="Abreve" unicode="&#x102;" horiz-adv-x="424" 
d="M272 93h-120l-13 -93h-129l127 727h151l126 -727h-128zM213 549l-46 -359h91zM276 887h71c-1 -74 -57 -126 -136 -126s-135 52 -136 126h71c0 -42 30 -68 65 -68c37 0 65 26 65 68z" />
    <glyph glyph-name="uni0200" unicode="&#x200;" horiz-adv-x="465" 
d="M313 93h-120l-13 -93h-129l127 727h151l126 -727h-128zM254 549l-46 -359h91zM148 762l-138 121h106l115 -121h-83zM289 762l-125 121h107l97 -121h-79z" />
    <glyph glyph-name="Aringacute" unicode="&#x1fa;" horiz-adv-x="424" 
d="M386 1026l-136 -92h-70l98 92h108zM136 834c0 43 35 78 77 78c43 0 78 -35 78 -78c0 -42 -35 -77 -78 -77c-42 0 -77 35 -77 77zM183 834c0 -17 13 -30 30 -30s32 13 32 30s-15 32 -32 32s-30 -15 -30 -32zM272 93h-120l-13 -93h-129l127 727h151l126 -727h-128zM213 549
l-46 -359h91z" />
    <glyph glyph-name="Aogonek" unicode="&#x104;" horiz-adv-x="424" 
d="M272 93h-120l-13 -93h-129l127 727h151l126 -727h-14c-52 -11 -97 -49 -93 -99c4 -29 23 -39 46 -39c21 0 46 10 65 21l11 -24c-17 -32 -62 -54 -101 -54c-43 0 -90 25 -90 84c0 53 29 88 66 111h-18zM213 549l-46 -359h91z" />
    <glyph glyph-name="uni0202" unicode="&#x202;" horiz-adv-x="424" 
d="M272 93h-120l-13 -93h-129l127 727h151l126 -727h-128zM213 549l-46 -359h91zM349 762h-71c0 42 -28 68 -65 68c-35 0 -65 -26 -65 -68h-71c1 74 57 126 136 126s135 -52 136 -126z" />
    <glyph glyph-name="AEacute" unicode="&#x1fc;" horiz-adv-x="641" 
d="M332 93h-139l-31 -93h-137l266 727h307l23 -118h-160v-200h123v-108h-123v-183h154l-23 -118h-260v93zM332 532l-108 -342h108v342zM627 876l-173 -114h-87l125 114h135z" />
    <glyph glyph-name="Ccircumflex" unicode="&#x108;" horiz-adv-x="337" 
d="M293 0h-159c-78 0 -104 28 -104 103v543c0 52 36 81 80 81h184l23 -118h-129c-18 0 -23 -8 -23 -23v-445c0 -15 3 -23 21 -23h131zM137 876h93l105 -118h-101l-50 65l-52 -65h-99z" />
    <glyph glyph-name="Ccaron" unicode="&#x10c;" horiz-adv-x="337" 
d="M293 0h-159c-78 0 -104 28 -104 103v543c0 52 36 81 80 81h184l23 -118h-129c-18 0 -23 -8 -23 -23v-445c0 -15 3 -23 21 -23h131zM228 762h-93l-104 118h99l52 -65l50 65h101z" />
    <glyph glyph-name="Cdotaccent" unicode="&#x10a;" horiz-adv-x="337" 
d="M293 0h-159c-78 0 -104 28 -104 103v543c0 52 36 81 80 81h184l23 -118h-129c-18 0 -23 -8 -23 -23v-445c0 -15 3 -23 21 -23h131zM108 837c0 39 31 70 70 70s70 -31 70 -70s-31 -70 -70 -70s-70 31 -70 70z" />
    <glyph glyph-name="Cacute" unicode="&#x106;" horiz-adv-x="337" 
d="M293 0h-159c-78 0 -104 28 -104 103v543c0 52 36 81 80 81h184l23 -118h-129c-18 0 -23 -8 -23 -23v-445c0 -15 3 -23 21 -23h131zM395 876l-173 -114h-87l125 114h135z" />
    <glyph glyph-name="Dcaron" unicode="&#x10e;" horiz-adv-x="420" 
d="M239 617h-82v-507h81c21 0 24 7 24 26v456c0 16 -5 25 -23 25zM300 0h-270v727h270c60 0 90 -30 90 -89v-549c0 -59 -30 -89 -90 -89zM254 762h-93l-104 118h99l52 -65l50 65h101z" />
    <glyph glyph-name="Dcroat" unicode="&#x110;" horiz-adv-x="462" 
d="M67 322h-50l9 82h41v323h276c59 0 89 -30 89 -89v-549c0 -59 -30 -89 -89 -89h-276v322zM283 617h-89v-213h56l-8 -82h-48v-212h88c21 0 23 5 23 24v461c0 16 -4 22 -22 22z" />
    <glyph glyph-name="Emacron" unicode="&#x112;" horiz-adv-x="343" 
d="M30 0v727h271l22 -118h-160v-200h123v-108h-123v-183h154l-23 -118h-264zM12 770l19 75h273l19 -75h-311z" />
    <glyph glyph-name="Ebreve" unicode="&#x114;" horiz-adv-x="343" 
d="M30 727v-727h264l23 118h-154v183h123v108h-123v200h160l-22 118h-271zM236 887h71c-1 -74 -57 -126 -136 -126s-135 52 -136 126h71c0 -42 30 -68 65 -68c37 0 65 26 65 68z" />
    <glyph glyph-name="Ecaron" unicode="&#x11a;" horiz-adv-x="343" 
d="M30 0v727h271l22 -118h-160v-200h123v-108h-123v-183h154l-23 -118h-264zM216 762h-93l-104 118h99l52 -65l50 65h101z" />
    <glyph glyph-name="Edotaccent" unicode="&#x116;" horiz-adv-x="343" 
d="M30 727v-727h264l23 118h-154v183h123v108h-123v200h160l-22 118h-271zM98 837c0 39 31 70 70 70s70 -31 70 -70s-31 -70 -70 -70s-70 31 -70 70z" />
    <glyph glyph-name="uni0204" unicode="&#x204;" horiz-adv-x="446" 
d="M133 0v727h271l22 -118h-160v-200h123v-108h-123v-183h154l-23 -118h-264zM168 762l-138 121h106l115 -121h-83zM309 762l-125 121h107l97 -121h-79z" />
    <glyph glyph-name="Eogonek" unicode="&#x118;" horiz-adv-x="343" 
d="M294 0h-8c-52 -11 -97 -49 -93 -99c4 -29 23 -39 46 -39c21 0 46 10 65 21l11 -24c-17 -32 -62 -54 -101 -54c-43 0 -90 25 -90 84c0 53 29 88 66 111h-160v727h271l22 -118h-160v-200h123v-108h-123v-183h154z" />
    <glyph glyph-name="uni0206" unicode="&#x206;" horiz-adv-x="343" 
d="M30 0v727h271l22 -118h-160v-200h123v-108h-123v-183h154l-23 -118h-264zM304 762h-71c0 42 -28 68 -65 68c-35 0 -65 -26 -65 -68h-71c1 74 57 126 136 126s135 -52 136 -126z" />
    <glyph glyph-name="Gbreve" unicode="&#x11e;" horiz-adv-x="411" 
d="M30 89v549c0 59 30 89 90 89h192l23 -118h-152c-18 0 -23 -10 -23 -25v-444c0 -16 5 -25 23 -25h73v299h125v-414h-261c-60 0 -90 30 -90 89zM269 887h71c-1 -74 -57 -126 -136 -126s-135 52 -136 126h71c0 -42 30 -68 65 -68c37 0 65 26 65 68z" />
    <glyph glyph-name="Gcircumflex" unicode="&#x11c;" horiz-adv-x="411" 
d="M30 89v549c0 59 30 89 90 89h192l23 -118h-152c-18 0 -23 -10 -23 -25v-444c0 -16 5 -25 23 -25h73v299h125v-414h-261c-60 0 -90 30 -90 89zM168 876h93l105 -118h-101l-50 65l-52 -65h-99z" />
    <glyph glyph-name="Gdotaccent" unicode="&#x120;" horiz-adv-x="411" 
d="M30 89v549c0 59 30 89 90 89h192l23 -118h-152c-18 0 -23 -10 -23 -25v-444c0 -16 5 -25 23 -25h73v299h125v-414h-261c-60 0 -90 30 -90 89zM133 837c0 39 31 70 70 70s70 -31 70 -70s-31 -70 -70 -70s-70 31 -70 70z" />
    <glyph glyph-name="Gcommaaccent" unicode="&#x122;" horiz-adv-x="411" 
d="M30 89v549c0 59 30 89 90 89h192l23 -118h-152c-18 0 -23 -10 -23 -25v-444c0 -16 5 -25 23 -25h73v299h125v-414h-261c-60 0 -90 30 -90 89zM133 -115c0 -32 20 -67 59 -72c-6 -22 -19 -42 -33 -62h50c34 30 75 90 75 134c0 41 -34 75 -76 75c-41 0 -75 -34 -75 -75z
" />
    <glyph glyph-name="Hcircumflex" unicode="&#x124;" 
d="M395 727v-727h-131v298h-102v-298h-132v727h132v-321h102v321h131zM166 876h93l105 -118h-101l-50 65l-52 -65h-99z" />
    <glyph glyph-name="Hbar" unicode="&#x126;" horiz-adv-x="498" 
d="M468 538h-33v-538h-131v298h-112v-298h-132v538h-40l9 79h31v110h132v-110h112v110h131v-110h43zM192 406h112v132h-112v-132z" />
    <glyph glyph-name="uni012A" unicode="&#x12a;" horiz-adv-x="193" 
d="M32 0v727h129v-727h-129zM-60 770l19 75h273l19 -75h-311z" />
    <glyph glyph-name="Ibreve" unicode="&#x12c;" horiz-adv-x="193" 
d="M32 727v-727h129v727h-129zM161 887h71c-1 -74 -57 -126 -136 -126s-135 52 -136 126h71c0 -42 30 -68 65 -68c37 0 65 26 65 68z" />
    <glyph glyph-name="Itilde" unicode="&#x128;" horiz-adv-x="193" 
d="M32 727v-727h129v727h-129zM194 869h57c6 -65 -21 -112 -90 -112c-55 0 -78 36 -125 36c-22 0 -36 -11 -36 -37h-55c-3 69 38 113 94 113c51 0 89 -38 121 -38c20 0 36 15 34 38z" />
    <glyph glyph-name="Idotaccent" unicode="&#x130;" horiz-adv-x="193" 
d="M32 727v-727h129v727h-129zM27 837c0 39 31 70 70 70s70 -31 70 -70s-31 -70 -70 -70s-70 31 -70 70z" />
    <glyph glyph-name="uni0208" unicode="&#x208;" horiz-adv-x="422" 
d="M211 0v727h129v-727h-129zM170 762l-138 121h106l115 -121h-83zM311 762l-125 121h107l97 -121h-79z" />
    <glyph glyph-name="uni020A" unicode="&#x20a;" horiz-adv-x="336" 
d="M104 0v727h129v-727h-129zM304 762h-71c0 42 -28 68 -65 68c-35 0 -65 -26 -65 -68h-71c1 74 57 126 136 126s135 -52 136 -126z" />
    <glyph glyph-name="Iogonek" unicode="&#x12e;" horiz-adv-x="199" 
d="M60 0h-25v727h129v-727h-8c-52 -11 -97 -49 -93 -99c4 -29 23 -39 46 -39c21 0 46 10 65 21l11 -24c-17 -32 -62 -54 -101 -54c-43 0 -90 25 -90 84c0 53 29 88 66 111z" />
    <glyph glyph-name="Jcircumflex" unicode="&#x134;" horiz-adv-x="410" 
d="M27 84v325h124v-271c0 -16 6 -25 24 -25h52c18 0 23 10 23 26v470h-156l23 118h263v-638c0 -52 -29 -89 -87 -89h-180c-54 0 -86 32 -86 84zM204 876h93l105 -118h-101l-50 65l-52 -65h-99z" />
    <glyph glyph-name="IJ" unicode="&#x132;" horiz-adv-x="604" 
d="M32 0v727h129v-727h-129zM221 84v325h124v-271c0 -16 6 -25 24 -25h52c18 0 23 10 23 26v470h-156l23 118h263v-638c0 -52 -29 -89 -87 -89h-180c-54 0 -86 32 -86 84z" />
    <glyph glyph-name="Kcommaaccent" unicode="&#x136;" horiz-adv-x="429" 
d="M162 408h33l81 319h138l-92 -334l90 -393h-146l-65 307h-39v-307h-132v727h132v-319zM140 -115c0 41 34 75 75 75c42 0 76 -34 76 -75c0 -44 -41 -104 -75 -134h-50c14 20 27 40 33 62c-39 5 -59 40 -59 72z" />
    <glyph glyph-name="Ldot" unicode="&#x13f;" horiz-adv-x="372" 
d="M30 0v727h136v-609h145l-23 -118h-258zM206 373c0 43 35 78 78 78s78 -35 78 -78s-35 -77 -78 -77s-78 34 -78 77z" />
    <glyph glyph-name="Lcommaaccent" unicode="&#x13b;" horiz-adv-x="331" 
d="M30 0v727h136v-609h145l-23 -118h-258zM92 -115c0 41 34 75 75 75c42 0 76 -34 76 -75c0 -44 -41 -104 -75 -134h-50c14 20 27 40 33 62c-39 5 -59 40 -59 72z" />
    <glyph glyph-name="Lacute" unicode="&#x139;" horiz-adv-x="332" 
d="M30 727v-727h258l23 118h-145v609h-136zM318 876l-173 -114h-87l125 114h135z" />
    <glyph glyph-name="Lcaron" unicode="&#x13d;" horiz-adv-x="413" 
d="M30 0v727h136v-609h145l-23 -118h-258zM206 672c0 41 34 75 75 75c42 0 76 -34 76 -75c0 -44 -41 -104 -75 -134h-50c14 20 27 40 33 62c-39 5 -59 40 -59 72z" />
    <glyph glyph-name="Ncaron" unicode="&#x147;" horiz-adv-x="411" 
d="M30 0v727h123l103 -364v364h125v-727h-122l-106 367v-367h-123zM254 762h-93l-104 118h99l52 -65l50 65h101z" />
    <glyph glyph-name="Nacute" unicode="&#x143;" horiz-adv-x="411" 
d="M30 727v-727h123v367l106 -367h122v727h-125v-364l-103 364h-123zM421 876l-173 -114h-87l125 114h135z" />
    <glyph glyph-name="Ncommaaccent" unicode="&#x145;" horiz-adv-x="411" 
d="M30 0v727h123l103 -364v364h125v-727h-122l-106 367v-367h-123zM139 -115c0 41 34 75 75 75c42 0 76 -34 76 -75c0 -44 -41 -104 -75 -134h-50c14 20 27 40 33 62c-39 5 -59 40 -59 72z" />
    <glyph glyph-name="Eng" unicode="&#x14a;" horiz-adv-x="411" 
d="M283 -221h-89c-13 34 -27 69 -38 101h87c15 0 20 1 20 17v101l-116 363v-361h-117v727h112l110 -364v364h129v-856c0 -65 -33 -92 -98 -92z" />
    <glyph glyph-name="Omacron" unicode="&#x14c;" horiz-adv-x="426" 
d="M242 617h-59c-18 0 -23 -9 -23 -25v-456c0 -19 3 -26 24 -26h57c22 0 25 7 25 26v456c0 16 -6 25 -24 25zM396 641v-545c0 -52 -20 -96 -95 -96h-175c-75 0 -96 44 -96 96v545c0 52 27 86 90 86h187c62 0 89 -34 89 -86zM58 770l19 75h273l19 -75h-311z" />
    <glyph glyph-name="Obreve" unicode="&#x14e;" horiz-adv-x="426" 
d="M242 617h-59c-18 0 -23 -9 -23 -25v-456c0 -19 3 -26 24 -26h57c22 0 25 7 25 26v456c0 16 -6 25 -24 25zM396 641v-545c0 -52 -20 -96 -95 -96h-175c-75 0 -96 44 -96 96v545c0 52 27 86 90 86h187c62 0 89 -34 89 -86zM280 887h71c-1 -74 -57 -126 -136 -126
s-135 52 -136 126h71c0 -42 30 -68 65 -68c37 0 65 26 65 68z" />
    <glyph glyph-name="Ohorn" unicode="&#x1a0;" horiz-adv-x="575" 
d="M423 717c0 46 33 72 72 72c49 0 70 -33 70 -72c0 -42 -16 -146 -169 -176v-445c0 -52 -20 -96 -95 -96h-175c-75 0 -96 44 -96 96v545c0 52 27 86 90 86h187c62 0 89 -34 89 -86v-64c51 10 85 39 91 80c-44 -2 -64 36 -64 60zM244 617h-63c-18 0 -21 -4 -21 -20v-466
c0 -19 1 -21 22 -21h61c22 0 23 2 23 21v466c0 16 -4 20 -22 20z" />
    <glyph glyph-name="Oslashacute" unicode="&#x1fe;" 
d="M396 641v-545c0 -52 -20 -96 -95 -96h-175c-18 0 -43 2 -56 9l-14 -28l-29 15l16 31c-15 20 -13 43 -13 69v545c0 52 27 86 90 86h187c18 0 32 -3 49 -10l14 28l28 -13l-18 -37c10 -16 16 -34 16 -54zM246 617h-67c-18 0 -21 -7 -21 -23v-340l110 294v46
c0 16 -3 23 -22 23zM245 110c22 0 23 3 23 22v325l-110 -292v-33c0 -19 1 -22 22 -22h65zM427 876l-173 -114h-87l125 114h135z" />
    <glyph glyph-name="uni020C" unicode="&#x20c;" horiz-adv-x="493" 
d="M309 617h-59c-18 0 -23 -9 -23 -25v-456c0 -19 3 -26 24 -26h57c22 0 25 7 25 26v456c0 16 -6 25 -24 25zM463 641v-545c0 -52 -20 -96 -95 -96h-175c-75 0 -96 44 -96 96v545c0 52 27 86 90 86h187c62 0 89 -34 89 -86zM168 762l-138 121h106l115 -121h-83zM309 762
l-125 121h107l97 -121h-79z" />
    <glyph glyph-name="Ohungarumlaut" unicode="&#x150;" horiz-adv-x="426" 
d="M242 617h-59c-18 0 -23 -9 -23 -25v-456c0 -19 3 -26 24 -26h57c22 0 25 7 25 26v456c0 16 -6 25 -24 25zM396 641v-545c0 -52 -20 -96 -95 -96h-175c-75 0 -96 44 -96 96v545c0 52 27 86 90 86h187c62 0 89 -34 89 -86zM467 883l-138 -121h-83l115 121h106zM313 883
l-125 -121h-79l97 121h107z" />
    <glyph glyph-name="uni020E" unicode="&#x20e;" horiz-adv-x="436" 
d="M238 617h-59c-18 0 -23 -9 -23 -25v-456c0 -19 3 -26 24 -26h57c22 0 25 7 25 26v456c0 16 -6 25 -24 25zM392 641v-545c0 -52 -20 -96 -95 -96h-175c-75 0 -96 44 -96 96v545c0 52 27 86 90 86h187c62 0 89 -34 89 -86zM344 762h-71c0 42 -28 68 -65 68
c-35 0 -65 -26 -65 -68h-71c1 74 57 126 136 126s135 -52 136 -126z" />
    <glyph glyph-name="Rcaron" unicode="&#x158;" horiz-adv-x="421" 
d="M242 617h-84v-280h84c19 0 24 7 24 26v228c0 16 -7 26 -24 26zM393 638v-345c0 -28 -25 -55 -71 -55l78 -238h-134l-72 238h-36v-238h-128v727h273c60 0 90 -30 90 -89zM250 762h-93l-104 118h99l52 -65l50 65h101z" />
    <glyph glyph-name="Racute" unicode="&#x154;" horiz-adv-x="421" 
d="M158 617h84c17 0 24 -10 24 -26v-228c0 -19 -5 -26 -24 -26h-84v280zM393 293v345c0 59 -30 89 -90 89h-273v-727h128v238h36l72 -238h134l-78 238c46 0 71 27 71 55zM420 876l-173 -114h-87l125 114h135z" />
    <glyph glyph-name="Rcommaaccent" unicode="&#x156;" horiz-adv-x="421" 
d="M242 617h-84v-280h84c19 0 24 7 24 26v228c0 16 -7 26 -24 26zM393 638v-345c0 -28 -25 -55 -71 -55l78 -238h-134l-72 238h-36v-238h-128v727h273c60 0 90 -30 90 -89zM132 -115c0 41 34 75 75 75c42 0 76 -34 76 -75c0 -44 -41 -104 -75 -134h-50c14 20 27 40 33 62
c-39 5 -59 40 -59 72z" />
    <glyph glyph-name="uni0210" unicode="&#x210;" horiz-adv-x="496" 
d="M317 617h-84v-280h84c19 0 24 7 24 26v228c0 16 -7 26 -24 26zM468 638v-345c0 -28 -25 -55 -71 -55l78 -238h-134l-72 238h-36v-238h-128v727h273c60 0 90 -30 90 -89zM168 762l-138 121h106l115 -121h-83zM309 762l-125 121h107l97 -121h-79z" />
    <glyph glyph-name="uni0212" unicode="&#x212;" horiz-adv-x="421" 
d="M242 617h-84v-280h84c19 0 24 7 24 26v228c0 16 -7 26 -24 26zM393 638v-345c0 -28 -25 -55 -71 -55l78 -238h-134l-72 238h-36v-238h-128v727h273c60 0 90 -30 90 -89zM340 762h-71c0 42 -28 68 -65 68c-35 0 -65 -26 -65 -68h-71c1 74 57 126 136 126s135 -52 136 -126
z" />
    <glyph glyph-name="Scircumflex" unicode="&#x15c;" horiz-adv-x="375" 
d="M255 0h-189l-24 118h150c22 0 26 6 26 25v139c0 31 -7 30 -35 30h-81c-39 0 -72 12 -72 77v252c0 52 27 86 89 86h198l22 -118h-159c-19 0 -26 -5 -26 -24v-145c0 -23 2 -26 24 -26h98c41 0 69 -13 69 -61v-267c0 -59 -30 -86 -90 -86zM149 876h93l105 -118h-101l-50 65
l-52 -65h-99z" />
    <glyph glyph-name="Sacute" unicode="&#x15a;" horiz-adv-x="375" 
d="M255 0h-189l-24 118h150c22 0 26 6 26 25v139c0 31 -7 30 -35 30h-81c-39 0 -72 12 -72 77v252c0 52 27 86 89 86h198l22 -118h-159c-19 0 -26 -5 -26 -24v-145c0 -23 2 -26 24 -26h98c41 0 69 -13 69 -61v-267c0 -59 -30 -86 -90 -86zM406 876l-173 -114h-87l125 114
h135z" />
    <glyph glyph-name="Scedilla" unicode="&#x15e;" horiz-adv-x="375" 
d="M255 0h-33l-33 -51c13 5 34 7 41 7c45 0 80 -28 80 -75c0 -62 -55 -90 -111 -91c-38 -1 -77 8 -108 29l16 42c17 -11 45 -21 67 -21c28 0 52 12 52 42c0 20 -18 36 -39 36c-12 0 -24 -2 -39 -9l-34 20l54 71h-102l-24 118h150c22 0 26 6 26 25v139c0 31 -7 30 -35 30h-81
c-39 0 -72 12 -72 77v252c0 52 27 86 89 86h198l22 -118h-159c-19 0 -26 -5 -26 -24v-145c0 -23 2 -26 24 -26h98c41 0 69 -13 69 -61v-267c0 -59 -30 -86 -90 -86z" />
    <glyph glyph-name="Scommaaccent" unicode="&#x218;" horiz-adv-x="375" 
d="M255 0h-189l-24 118h150c22 0 26 6 26 25v139c0 31 -7 30 -35 30h-81c-39 0 -72 12 -72 77v252c0 52 27 86 89 86h198l22 -118h-159c-19 0 -26 -5 -26 -24v-145c0 -23 2 -26 24 -26h98c41 0 69 -13 69 -61v-267c0 -59 -30 -86 -90 -86zM115 -115c0 -32 20 -67 59 -72
c-6 -22 -19 -42 -33 -62h50c34 30 75 90 75 134c0 41 -34 75 -76 75c-41 0 -75 -34 -75 -75z" />
    <glyph glyph-name="Tcommaaccent" unicode="&#x162;" horiz-adv-x="353" 
d="M43 727h269l31 -118h-101v-609h-132v609h-100zM100 -115c0 -32 20 -67 59 -72c-6 -22 -19 -42 -33 -62h50c34 30 75 90 75 134c0 41 -34 75 -76 75c-41 0 -75 -34 -75 -75z" />
    <glyph glyph-name="Tbar" unicode="&#x166;" horiz-adv-x="343" 
d="M25 325l11 79h69v205h-95l33 118h259l31 -118h-96v-205h83l-11 -79h-72v-325h-132v325h-80z" />
    <glyph glyph-name="Tcaron" unicode="&#x164;" horiz-adv-x="353" 
d="M43 727h269l31 -118h-101v-609h-132v609h-100zM222 762h-93l-104 118h99l52 -65l50 65h101z" />
    <glyph glyph-name="uni021A" unicode="&#x21a;" horiz-adv-x="353" 
d="M43 727h269l31 -118h-101v-609h-132v609h-100zM100 -115c0 -32 20 -67 59 -72c-6 -22 -19 -42 -33 -62h50c34 30 75 90 75 134c0 41 -34 75 -76 75c-41 0 -75 -34 -75 -75z" />
    <glyph glyph-name="Umacron" unicode="&#x16a;" 
d="M292 0h-159c-77 0 -103 27 -103 102v625h132v-590c0 -19 3 -27 24 -27h53c21 0 25 8 25 27v590h131v-625c0 -75 -26 -102 -103 -102zM62 770l19 75h273l19 -75h-311z" />
    <glyph glyph-name="Ubreve" unicode="&#x16c;" 
d="M292 0h-159c-77 0 -103 27 -103 102v625h132v-590c0 -19 3 -27 24 -27h53c21 0 25 8 25 27v590h131v-625c0 -75 -26 -102 -103 -102zM279 887h71c-1 -74 -57 -126 -136 -126s-135 52 -136 126h71c0 -42 30 -68 65 -68c37 0 65 26 65 68z" />
    <glyph glyph-name="Utilde" unicode="&#x168;" 
d="M292 0h-159c-77 0 -103 27 -103 102v625h132v-590c0 -19 3 -27 24 -27h53c21 0 25 8 25 27v590h131v-625c0 -75 -26 -102 -103 -102zM311 869h57c6 -65 -21 -112 -90 -112c-55 0 -78 36 -125 36c-22 0 -36 -11 -36 -37h-55c-3 69 38 113 94 113c51 0 89 -38 121 -38
c20 0 36 15 34 38z" />
    <glyph glyph-name="Uring" unicode="&#x16e;" 
d="M292 0h-159c-77 0 -103 27 -103 102v625h132v-590c0 -19 3 -27 24 -27h53c21 0 25 8 25 27v590h131v-625c0 -75 -26 -102 -103 -102zM122 848c0 50 41 92 91 92s92 -42 92 -92s-42 -91 -92 -91s-91 41 -91 91zM178 848c0 -18 17 -35 35 -35s35 17 35 35s-17 35 -35 35
s-35 -17 -35 -35z" />
    <glyph glyph-name="Uhorn" unicode="&#x1af;" horiz-adv-x="593" 
d="M441 717c0 46 33 72 72 72c49 0 70 -33 70 -72c0 -43 -19 -137 -188 -177v-438c0 -75 -26 -102 -103 -102h-159c-77 0 -103 27 -103 102v625h132v-592c0 -19 1 -25 22 -25h57c21 0 23 6 23 25v592h131v-153c54 10 106 44 112 88c-44 -2 -66 31 -66 55z" />
    <glyph glyph-name="uni0214" unicode="&#x214;" horiz-adv-x="486" 
d="M353 0h-159c-77 0 -103 27 -103 102v625h132v-590c0 -19 3 -27 24 -27h53c21 0 25 8 25 27v590h131v-625c0 -75 -26 -102 -103 -102zM168 762l-138 121h106l115 -121h-83zM309 762l-125 121h107l97 -121h-79z" />
    <glyph glyph-name="Uogonek" unicode="&#x172;" 
d="M292 0h-12c-52 -11 -97 -49 -93 -99c4 -29 23 -39 46 -39c21 0 46 10 65 21l11 -24c-17 -32 -62 -54 -101 -54c-43 0 -90 25 -90 84c0 53 29 88 66 111h-51c-77 0 -103 27 -103 102v625h132v-590c0 -19 3 -27 24 -27h53c21 0 25 8 25 27v590h131v-625
c0 -75 -26 -102 -103 -102z" />
    <glyph glyph-name="Uhungarumlaut" unicode="&#x170;" 
d="M292 0h-159c-77 0 -103 27 -103 102v625h132v-590c0 -19 3 -27 24 -27h53c21 0 25 8 25 27v590h131v-625c0 -75 -26 -102 -103 -102zM470 883l-138 -121h-83l115 121h106zM316 883l-125 -121h-79l97 121h107z" />
    <glyph glyph-name="uni0216" unicode="&#x216;" 
d="M292 0h-159c-77 0 -103 27 -103 102v625h132v-590c0 -19 3 -27 24 -27h53c21 0 25 8 25 27v590h131v-625c0 -75 -26 -102 -103 -102zM349 762h-71c0 42 -28 68 -65 68c-35 0 -65 -26 -65 -68h-71c1 74 57 126 136 126s135 -52 136 -126z" />
    <glyph glyph-name="Wcircumflex" unicode="&#x174;" horiz-adv-x="623" 
d="M425 294l55 433h133c-38 -246 -76 -482 -114 -727h-123l-65 403c-29 -124 -46 -280 -64 -403h-123l-114 727h133l53 -433l73 433h85zM264 876h93l105 -118h-101l-50 65l-52 -65h-99z" />
    <glyph glyph-name="Ycircumflex" unicode="&#x176;" horiz-adv-x="436" 
d="M286 0h-136v184l-140 543h133l75 -356l75 356h133l-140 -543v-184zM171 876h93l105 -118h-101l-50 65l-52 -65h-99z" />
    <glyph glyph-name="uni0232" unicode="&#x232;" horiz-adv-x="436" 
d="M286 0h-136v184l-140 543h133l75 -356l75 356h133l-140 -543v-184zM63 770l19 75h273l19 -75h-311z" />
    <glyph glyph-name="Zacute" unicode="&#x179;" horiz-adv-x="363" 
d="M188 118l160 609h-299l-23 -118h157l-168 -609h292l22 118h-141zM396 876l-173 -114h-87l125 114h135z" />
    <glyph glyph-name="Zdotaccent" unicode="&#x17b;" horiz-adv-x="363" 
d="M188 118l160 609h-299l-23 -118h157l-168 -609h292l22 118h-141zM126 837c0 39 31 70 70 70s70 -31 70 -70s-31 -70 -70 -70s-70 31 -70 70z" />
    <glyph glyph-name="amacron" unicode="&#x101;" horiz-adv-x="385" 
d="M241 253h-84c-14 0 -20 -4 -20 -21v-102c0 -18 7 -20 21 -20h83v143zM222 424h-172l23 111h212c45 0 70 -23 70 -67v-468h-114v56l-47 -56h-101c-38 0 -63 22 -63 63v212c0 44 23 66 67 66h144v65c0 16 -5 18 -19 18zM47 578l19 75h273l19 -75h-311z" />
    <glyph glyph-name="abreve" unicode="&#x103;" horiz-adv-x="385" 
d="M241 253h-84c-14 0 -20 -4 -20 -21v-102c0 -18 7 -20 21 -20h83v143zM222 424h-172l23 111h212c45 0 70 -23 70 -67v-468h-114v56l-47 -56h-101c-38 0 -63 22 -63 63v212c0 44 23 66 67 66h144v65c0 16 -5 18 -19 18zM270 695h71c-1 -74 -57 -126 -136 -126
s-135 52 -136 126h71c0 -42 30 -68 65 -68c37 0 65 26 65 68z" />
    <glyph glyph-name="uni0201" unicode="&#x201;" horiz-adv-x="469" 
d="M325 253h-84c-14 0 -20 -4 -20 -21v-102c0 -18 7 -20 21 -20h83v143zM306 424h-172l23 111h212c45 0 70 -23 70 -67v-468h-114v56l-47 -56h-101c-38 0 -63 22 -63 63v212c0 44 23 66 67 66h144v65c0 16 -5 18 -19 18zM168 570l-138 121h106l115 -121h-83zM309 570
l-125 121h107l97 -121h-79z" />
    <glyph glyph-name="aringacute" unicode="&#x1fb;" horiz-adv-x="385" 
d="M374 834l-136 -92h-70l98 92h108zM124 642c0 43 35 78 77 78c43 0 78 -35 78 -78c0 -42 -35 -77 -78 -77c-42 0 -77 35 -77 77zM171 642c0 -17 13 -30 30 -30s32 13 32 30s-15 32 -32 32s-30 -15 -30 -32zM241 253h-84c-14 0 -20 -4 -20 -21v-102c0 -18 7 -20 21 -20h83
v143zM222 424h-172l23 111h212c45 0 70 -23 70 -67v-468h-114v56l-47 -56h-101c-38 0 -63 22 -63 63v212c0 44 23 66 67 66h144v65c0 16 -5 18 -19 18z" />
    <glyph glyph-name="aogonek" unicode="&#x105;" horiz-adv-x="385" 
d="M222 424h-172l23 111h212c45 0 70 -23 70 -67v-468h-8c-52 -11 -97 -49 -93 -99c4 -29 23 -39 46 -39c21 0 46 10 65 21l11 -24c-17 -32 -62 -54 -101 -54c-43 0 -90 25 -90 84c0 53 29 88 66 111h-10v56l-47 -56h-101c-38 0 -63 22 -63 63v212c0 44 23 66 67 66h144v65
c0 16 -5 18 -19 18zM241 253h-84c-14 0 -20 -4 -20 -21v-102c0 -18 7 -20 21 -20h83v143z" />
    <glyph glyph-name="uni0203" unicode="&#x203;" horiz-adv-x="385" 
d="M241 253h-84c-14 0 -20 -4 -20 -21v-102c0 -18 7 -20 21 -20h83v143zM222 424h-172l23 111h212c45 0 70 -23 70 -67v-468h-114v56l-47 -56h-101c-38 0 -63 22 -63 63v212c0 44 23 66 67 66h144v65c0 16 -5 18 -19 18zM341 570h-71c0 42 -28 68 -65 68
c-35 0 -65 -26 -65 -68h-71c1 74 57 126 136 126s135 -52 136 -126z" />
    <glyph glyph-name="aeacute" unicode="&#x1fd;" horiz-adv-x="590" 
d="M238 424h-188l23 111h424c38 0 63 -20 63 -64v-271h-206v-68c0 -18 7 -18 20 -18h178l-24 -114h-191c-17 0 -36 7 -40 33c-6 -26 -25 -33 -42 -33h-162c-38 0 -63 22 -63 63v212c0 44 23 66 67 66h141v83zM354 412v-131h101v131c0 17 -8 20 -21 20h-60
c-13 0 -20 -3 -20 -20zM238 253h-81c-14 0 -20 -4 -20 -21v-102c0 -18 7 -20 21 -20h80v143zM522 684l-173 -114h-87l125 114h135z" />
    <glyph glyph-name="ccircumflex" unicode="&#x109;" horiz-adv-x="320" 
d="M151 405v-271c0 -18 8 -20 21 -20h128l-24 -114h-185c-39 0 -61 23 -61 61v410c0 44 25 64 63 64h176l31 -111h-128c-13 0 -21 -3 -21 -19zM119 684h93l105 -118h-101l-50 65l-52 -65h-99z" />
    <glyph glyph-name="ccaron" unicode="&#x10d;" horiz-adv-x="320" 
d="M151 405v-271c0 -18 8 -20 21 -20h128l-24 -114h-185c-39 0 -61 23 -61 61v410c0 44 25 64 63 64h176l31 -111h-128c-13 0 -21 -3 -21 -19zM219 570h-93l-104 118h99l52 -65l50 65h101z" />
    <glyph glyph-name="cdotaccent" unicode="&#x10b;" horiz-adv-x="320" 
d="M151 405v-271c0 -18 8 -20 21 -20h128l-24 -114h-185c-39 0 -61 23 -61 61v410c0 44 25 64 63 64h176l31 -111h-128c-13 0 -21 -3 -21 -19zM101 645c0 39 31 70 70 70s70 -31 70 -70s-31 -70 -70 -70s-70 31 -70 70z" />
    <glyph glyph-name="cacute" unicode="&#x107;" horiz-adv-x="320" 
d="M151 405v-271c0 -18 8 -20 21 -20h128l-24 -114h-185c-39 0 -61 23 -61 61v410c0 44 25 64 63 64h176l31 -111h-128c-13 0 -21 -3 -21 -19zM379 684l-173 -114h-87l125 114h135z" />
    <glyph glyph-name="dcaron" unicode="&#x10f;" horiz-adv-x="753" 
d="M98 535h149v192h114v-727h-114v56l-47 -56h-108c-40 0 -62 23 -62 63v405c0 44 24 67 68 67zM247 432h-83c-13 0 -20 -3 -20 -20v-283c0 -18 7 -19 20 -19h83v322zM401 672c0 41 34 75 75 75c42 0 76 -34 76 -75c0 -44 -41 -104 -75 -134h-50c14 20 27 40 33 62
c-39 5 -59 40 -59 72z" />
    <glyph glyph-name="dcroat" unicode="&#x111;" horiz-adv-x="428" 
d="M96 530h151v75h-153l9 79h144v43h114v-43h47l-11 -79h-36v-605h-114v56l-47 -56h-108c-40 0 -62 23 -62 63v400c0 44 22 67 66 67zM247 427h-85c-13 0 -18 -3 -18 -20v-279c0 -18 7 -18 20 -18h83v317z" />
    <glyph glyph-name="emacron" unicode="&#x113;" horiz-adv-x="380" 
d="M144 200v-68c0 -18 7 -18 20 -18h178l-24 -114h-227c-39 0 -61 22 -61 60v410c0 44 26 65 64 65h193c38 0 63 -20 63 -64v-271h-206zM144 412v-131h101v131c0 17 -8 20 -21 20h-60c-13 0 -20 -3 -20 -20zM40 578l19 75h273l19 -75h-311z" />
    <glyph glyph-name="ebreve" unicode="&#x115;" horiz-adv-x="380" 
d="M144 200v-68c0 -18 7 -18 20 -18h178l-24 -114h-227c-39 0 -61 22 -61 60v410c0 44 26 65 64 65h193c38 0 63 -20 63 -64v-271h-206zM144 412v-131h101v131c0 17 -8 20 -21 20h-60c-13 0 -20 -3 -20 -20zM260 695h71c-1 -74 -57 -126 -136 -126s-135 52 -136 126h71
c0 -42 30 -68 65 -68c37 0 65 26 65 68z" />
    <glyph glyph-name="ecaron" unicode="&#x11b;" horiz-adv-x="380" 
d="M144 200v-68c0 -18 7 -18 20 -18h178l-24 -114h-227c-39 0 -61 22 -61 60v410c0 44 26 65 64 65h193c38 0 63 -20 63 -64v-271h-206zM144 412v-131h101v131c0 17 -8 20 -21 20h-60c-13 0 -20 -3 -20 -20zM241 570h-93l-104 118h99l52 -65l50 65h101z" />
    <glyph glyph-name="edotaccent" unicode="&#x117;" horiz-adv-x="400" 
d="M154 200v-68c0 -18 7 -18 20 -18h178l-24 -114h-227c-39 0 -61 22 -61 60v410c0 44 26 65 64 65h193c38 0 63 -20 63 -64v-271h-206zM154 412v-131h101v131c0 17 -8 20 -21 20h-60c-13 0 -20 -3 -20 -20zM136 645c0 39 31 70 70 70s70 -31 70 -70s-31 -70 -70 -70
s-70 31 -70 70z" />
    <glyph glyph-name="uni0205" unicode="&#x205;" horiz-adv-x="472" 
d="M236 200v-68c0 -18 7 -18 20 -18h178l-24 -114h-227c-39 0 -61 22 -61 60v410c0 44 26 65 64 65h193c38 0 63 -20 63 -64v-271h-206zM236 412v-131h101v131c0 17 -8 20 -21 20h-60c-13 0 -20 -3 -20 -20zM168 570l-138 121h106l115 -121h-83zM309 570l-125 121h107
l97 -121h-79z" />
    <glyph glyph-name="eogonek" unicode="&#x119;" horiz-adv-x="380" 
d="M318 0h-54c-52 -11 -97 -49 -93 -99c4 -29 23 -39 46 -39c21 0 46 10 65 21l11 -24c-17 -32 -62 -54 -101 -54c-43 0 -90 25 -90 84c0 53 29 88 66 111h-77c-39 0 -61 22 -61 60v410c0 44 26 65 64 65h193c38 0 63 -20 63 -64v-271h-206v-68c0 -18 7 -18 20 -18h178z
M144 412v-131h101v131c0 17 -8 20 -21 20h-60c-13 0 -20 -3 -20 -20z" />
    <glyph glyph-name="uni0207" unicode="&#x207;" horiz-adv-x="380" 
d="M144 200v-68c0 -18 7 -18 20 -18h178l-24 -114h-227c-39 0 -61 22 -61 60v410c0 44 26 65 64 65h193c38 0 63 -20 63 -64v-271h-206zM144 412v-131h101v131c0 17 -8 20 -21 20h-60c-13 0 -20 -3 -20 -20zM325 570h-71c0 42 -28 68 -65 68c-35 0 -65 -26 -65 -68h-71
c1 74 57 126 136 126s135 -52 136 -126z" />
    <glyph glyph-name="gbreve" unicode="&#x11f;" horiz-adv-x="390" 
d="M91 -210h168c66 0 101 32 101 97v648h-263c-44 0 -67 -23 -67 -67v-405c0 -40 22 -63 62 -63h105l47 56v-151c0 -16 -8 -17 -19 -17h-172zM165 432h79v-329h-80c-13 0 -20 2 -20 19v290c0 17 8 20 21 20zM270 695h71c-1 -74 -57 -126 -136 -126s-135 52 -136 126h71
c0 -42 30 -68 65 -68c37 0 65 26 65 68z" />
    <glyph glyph-name="gcircumflex" unicode="&#x11d;" horiz-adv-x="390" 
d="M91 -210h168c66 0 101 32 101 97v648h-263c-44 0 -67 -23 -67 -67v-405c0 -40 22 -63 62 -63h105l47 56v-151c0 -16 -8 -17 -19 -17h-172zM165 432h79v-329h-80c-13 0 -20 2 -20 19v290c0 17 8 20 21 20zM155 684h93l105 -118h-101l-50 65l-52 -65h-99z" />
    <glyph glyph-name="gdotaccent" unicode="&#x121;" horiz-adv-x="390" 
d="M91 -210h168c66 0 101 32 101 97v648h-263c-44 0 -67 -23 -67 -67v-405c0 -40 22 -63 62 -63h105l47 56v-151c0 -16 -8 -17 -19 -17h-172zM165 432h79v-329h-80c-13 0 -20 2 -20 19v290c0 17 8 20 21 20zM129 645c0 39 31 70 70 70s70 -31 70 -70s-31 -70 -70 -70
s-70 31 -70 70z" />
    <glyph glyph-name="gcommaaccent" unicode="&#x123;" horiz-adv-x="390" 
d="M259 -210h-168l-38 98h172c11 0 19 1 19 17v151l-47 -56h-105c-40 0 -62 23 -62 63v405c0 44 23 67 67 67h263v-648c0 -65 -35 -97 -101 -97zM244 432h-79c-13 0 -21 -3 -21 -20v-290c0 -17 7 -19 20 -19h80v329zM275 650c0 -41 -34 -75 -75 -75c-42 0 -76 34 -76 75
c0 44 41 104 75 134h50c-14 -20 -27 -40 -33 -62c39 -5 59 -40 59 -72z" />
    <glyph glyph-name="hcircumflex" unicode="&#x125;" horiz-adv-x="391" 
d="M224 432h-78v-432h-116v727h116v-248l48 56h101c45 0 66 -23 66 -67v-468h-116v412c0 17 -7 20 -21 20zM41 876h93l105 -118h-101l-50 65l-52 -65h-99z" />
    <glyph glyph-name="hbar" unicode="&#x127;" horiz-adv-x="428" 
d="M263 427h-80v-427h-116v605h-47l10 79h37v43h116v-43h156l-10 -79h-146v-131l48 56h101c45 0 66 -23 66 -67v-463h-116v408c0 17 -5 19 -19 19z" />
    <glyph glyph-name="imacron" unicode="&#x12b;" horiz-adv-x="180" 
d="M32 0v515l116 36v-551h-116zM-66 578l19 75h273l19 -75h-311z" />
    <glyph glyph-name="uni012D" unicode="&#x12d;" horiz-adv-x="180" 
d="M32 0v515l116 36v-551h-116zM154 695h71c-1 -74 -57 -126 -136 -126s-135 52 -136 126h71c0 -42 30 -68 65 -68c37 0 65 26 65 68z" />
    <glyph glyph-name="itilde" unicode="&#x129;" horiz-adv-x="180" 
d="M32 0v515l116 36v-551h-116zM186 678h57c6 -65 -21 -112 -90 -112c-55 0 -78 36 -125 36c-22 0 -36 -11 -36 -37h-55c-3 69 38 113 94 113c51 0 89 -38 121 -38c20 0 36 15 34 38z" />
    <glyph glyph-name="uni0209" unicode="&#x209;" horiz-adv-x="422" 
d="M211 0v515l116 36v-551h-116zM170 570l-138 121h106l115 -121h-83zM311 570l-125 121h107l97 -121h-79z" />
    <glyph glyph-name="uni020B" unicode="&#x20b;" horiz-adv-x="336" 
d="M110 0v515l116 36v-551h-116zM304 570h-71c0 42 -28 68 -65 68c-35 0 -65 -26 -65 -68h-71c1 74 57 126 136 126s135 -52 136 -126z" />
    <glyph glyph-name="iogonek" unicode="&#x12f;" horiz-adv-x="180" 
d="M90 738c42 0 76 -34 76 -77c0 -41 -34 -75 -76 -75s-76 34 -76 75c0 43 34 77 76 77zM32 0v515l116 36v-551h-8c-52 -11 -97 -49 -93 -99c4 -29 23 -39 46 -39c21 0 46 10 65 21l11 -24c-17 -32 -62 -54 -101 -54c-43 0 -90 25 -90 84c0 53 29 88 66 111h-12z" />
    <glyph glyph-name="jcircumflex" unicode="&#x135;" horiz-adv-x="180" 
d="M49 -200h-89l-37 95h91c15 0 18 9 18 19v601l116 36v-661c0 -63 -36 -90 -99 -90zM42 684h93l105 -118h-101l-50 65l-52 -65h-99z" />
    <glyph glyph-name="dotlessj" unicode="&#x237;" horiz-adv-x="180" 
d="M49 -200h-89l-37 95h91c15 0 18 9 18 19v601l116 36v-661c0 -63 -36 -90 -99 -90z" />
    <glyph glyph-name="ij" unicode="&#x133;" horiz-adv-x="360" 
d="M32 0v515l116 36v-551h-116zM90 738c42 0 76 -34 76 -77c0 -41 -34 -75 -76 -75s-76 34 -76 75c0 43 34 77 76 77zM229 -210h-89l-37 95h91c15 0 18 9 18 19v611l116 36v-671c0 -63 -36 -90 -99 -90zM270 738c42 0 76 -34 76 -77c0 -41 -34 -75 -76 -75s-76 34 -76 75
c0 43 34 77 76 77z" />
    <glyph glyph-name="kcommaaccent" unicode="&#x137;" horiz-adv-x="389" 
d="M110 -115c0 41 34 75 75 75c42 0 76 -34 76 -75c0 -44 -41 -104 -75 -134h-50c14 20 27 40 33 62c-39 5 -59 40 -59 72zM163 354l93 181h118l-100 -200l99 -335h-129l-79 288h-19v-288h-116v727h116v-373h17z" />
    <glyph glyph-name="kgreenlandic" unicode="&#x138;" horiz-adv-x="437" 
d="M159 0h-129v535h129v-236c53 66 84 132 98 184c10 34 24 52 46 52h124c-25 -19 -38 -62 -55 -108c-14 -42 -35 -98 -65 -135l107 -292h-146l-67 196l-42 -52v-144z" />
    <glyph glyph-name="ldot" unicode="&#x140;" horiz-adv-x="355" 
d="M149 727v-727h-119v727h119zM189 363c0 43 35 78 78 78s78 -35 78 -78s-35 -77 -78 -77s-78 34 -78 77z" />
    <glyph glyph-name="lcommaaccent" unicode="&#x13c;" horiz-adv-x="211" 
d="M164 727v-727h-119v727h119zM30 -115c0 41 34 75 75 75c42 0 76 -34 76 -75c0 -44 -41 -104 -75 -134h-50c14 20 27 40 33 62c-39 5 -59 40 -59 72z" />
    <glyph glyph-name="lacute" unicode="&#x13a;" horiz-adv-x="179" 
d="M149 0v727h-119v-727h119zM308 876l-173 -114h-87l125 114h135z" />
    <glyph glyph-name="lcaron" unicode="&#x13e;" horiz-adv-x="541" 
d="M149 727v-727h-119v727h119zM189 672c0 41 34 75 75 75c42 0 76 -34 76 -75c0 -44 -41 -104 -75 -134h-50c14 20 27 40 33 62c-39 5 -59 40 -59 72z" />
    <glyph glyph-name="ncaron" unicode="&#x148;" horiz-adv-x="391" 
d="M223 432h-77v-432h-116v535h116v-56l48 56h100c45 0 67 -21 67 -65v-470h-116v413c0 17 -8 19 -22 19zM241 570h-93l-104 118h99l52 -65l50 65h101z" />
    <glyph glyph-name="nacute" unicode="&#x144;" horiz-adv-x="391" 
d="M223 432h-77v-432h-116v535h116v-56l48 56h100c45 0 67 -21 67 -65v-470h-116v413c0 17 -8 19 -22 19zM423 684l-173 -114h-87l125 114h135z" />
    <glyph glyph-name="ncommaaccent" unicode="&#x146;" horiz-adv-x="391" 
d="M223 432h-77v-432h-116v535h116v-56l48 56h100c45 0 67 -21 67 -65v-470h-116v413c0 17 -8 19 -22 19zM121 -115c0 -32 20 -67 59 -72c-6 -22 -19 -42 -33 -62h50c34 30 75 90 75 134c0 41 -34 75 -76 75c-41 0 -75 -34 -75 -75z" />
    <glyph glyph-name="napostrophe" unicode="&#x149;" horiz-adv-x="589" 
d="M421 432h-77v-432h-116v535h116v-56l48 56h100c45 0 67 -21 67 -65v-470h-116v413c0 17 -8 19 -22 19zM119 672c0 41 34 75 75 75c42 0 76 -34 76 -75c0 -44 -41 -104 -75 -134h-50c14 20 27 40 33 62c-39 5 -59 40 -59 72z" />
    <glyph glyph-name="eng" unicode="&#x14b;" horiz-adv-x="391" 
d="M245 409c0 17 -9 23 -23 23h-76v-432h-116v535h116v-56l48 56h101c45 0 66 -23 66 -67v-591c0 -65 -33 -92 -97 -92h-88c-12 34 -27 69 -38 101h85c16 0 22 14 22 25v498z" />
    <glyph glyph-name="omacron" unicode="&#x14d;" horiz-adv-x="391" 
d="M164 105h63c14 0 20 2 20 19v292c0 17 -7 21 -21 21h-61c-13 0 -21 -4 -21 -21v-292c0 -17 7 -19 20 -19zM30 67v401c0 44 22 67 66 67h199c45 0 66 -23 66 -67v-401c0 -44 -21 -67 -66 -67h-199c-44 0 -66 23 -66 67zM40 578l19 75h273l19 -75h-311z" />
    <glyph glyph-name="obreve" unicode="&#x14f;" horiz-adv-x="391" 
d="M164 105h63c14 0 20 2 20 19v292c0 17 -7 21 -21 21h-61c-13 0 -21 -4 -21 -21v-292c0 -17 7 -19 20 -19zM30 67v401c0 44 22 67 66 67h199c45 0 66 -23 66 -67v-401c0 -44 -21 -67 -66 -67h-199c-44 0 -66 23 -66 67zM261 695h71c-1 -74 -57 -126 -136 -126
s-135 52 -136 126h71c0 -42 30 -68 65 -68c37 0 65 26 65 68z" />
    <glyph glyph-name="ohorn" unicode="&#x1a1;" horiz-adv-x="572" 
d="M409 524c0 47 33 72 72 72c49 0 70 -33 70 -72c0 -42 -18 -128 -179 -168v-289c0 -44 -21 -67 -66 -67h-199c-44 0 -66 23 -66 67v401c0 44 22 67 66 67h199c45 0 66 -23 66 -67v-86c51 14 97 45 103 86c-44 -2 -66 33 -66 56zM176 105h61c14 0 21 1 21 18v294
c0 17 -6 20 -20 20h-63c-13 0 -20 -3 -20 -20v-294c0 -17 8 -18 21 -18z" />
    <glyph glyph-name="oslashacute" unicode="&#x1ff;" horiz-adv-x="392" 
d="M345 555l36 -19l-24 -39c2 -9 4 -18 4 -29v-401c0 -44 -21 -67 -66 -67h-199c-15 0 -27 2 -37 7l-14 -23l-34 18l22 37c-2 8 -3 17 -3 28v401c0 44 22 67 66 67h199c13 0 24 -2 34 -6zM144 416v-199l103 181v18c0 17 -7 21 -21 21h-61c-13 0 -21 -4 -21 -21zM164 105h63
c14 0 20 2 20 19v197l-103 -180v-19c0 -17 7 -17 20 -17zM412 684l-173 -114h-87l125 114h135z" />
    <glyph glyph-name="uni020D" unicode="&#x20d;" horiz-adv-x="481" 
d="M254 105h63c14 0 20 2 20 19v292c0 17 -7 21 -21 21h-61c-13 0 -21 -4 -21 -21v-292c0 -17 7 -19 20 -19zM120 67v401c0 44 22 67 66 67h199c45 0 66 -23 66 -67v-401c0 -44 -21 -67 -66 -67h-199c-44 0 -66 23 -66 67zM168 570l-138 121h106l115 -121h-83zM309 570
l-125 121h107l97 -121h-79z" />
    <glyph glyph-name="ohungarumlaut" unicode="&#x151;" horiz-adv-x="391" 
d="M164 105h63c14 0 20 2 20 19v292c0 17 -7 21 -21 21h-61c-13 0 -21 -4 -21 -21v-292c0 -17 7 -19 20 -19zM30 67v401c0 44 22 67 66 67h199c45 0 66 -23 66 -67v-401c0 -44 -21 -67 -66 -67h-199c-44 0 -66 23 -66 67zM452 691l-138 -121h-83l115 121h106zM298 691
l-125 -121h-79l97 121h107z" />
    <glyph glyph-name="uni020F" unicode="&#x20f;" horiz-adv-x="391" 
d="M164 105h63c14 0 20 2 20 19v292c0 17 -7 21 -21 21h-61c-13 0 -21 -4 -21 -21v-292c0 -17 7 -19 20 -19zM30 67v401c0 44 22 67 66 67h199c45 0 66 -23 66 -67v-401c0 -44 -21 -67 -66 -67h-199c-44 0 -66 23 -66 67zM331 570h-71c0 42 -28 68 -65 68
c-35 0 -65 -26 -65 -68h-71c1 74 57 126 136 126s135 -52 136 -126z" />
    <glyph glyph-name="rcaron" unicode="&#x159;" horiz-adv-x="315" 
d="M30 0v535h117v-56l48 56h107l-31 -111h-69l-52 -62v-362h-120zM204 570h-93l-104 118h99l52 -65l50 65h101z" />
    <glyph glyph-name="racute" unicode="&#x155;" horiz-adv-x="315" 
d="M30 0v535h117v-56l48 56h107l-31 -111h-69l-52 -62v-362h-120zM368 684l-173 -114h-87l125 114h135z" />
    <glyph glyph-name="rcommaaccent" unicode="&#x157;" horiz-adv-x="331" 
d="M46 0v535h117v-56l48 56h107l-31 -111h-69l-52 -62v-362h-120zM30 -115c0 -32 20 -67 59 -72c-6 -22 -19 -42 -33 -62h50c34 30 75 90 75 134c0 41 -34 75 -76 75c-41 0 -75 -34 -75 -75z" />
    <glyph glyph-name="uni0211" unicode="&#x211;" horiz-adv-x="436" 
d="M151 0v535h117v-56l48 56h107l-31 -111h-69l-52 -62v-362h-120zM168 570l-138 121h106l115 -121h-83zM309 570l-125 121h107l97 -121h-79z" />
    <glyph glyph-name="uni0213" unicode="&#x213;" horiz-adv-x="322" 
d="M37 0v535h117v-56l48 56h107l-31 -111h-69l-52 -62v-362h-120zM302 570h-71c0 42 -28 68 -65 68c-35 0 -65 -26 -65 -68h-71c1 74 57 126 136 126s135 -52 136 -126z" />
    <glyph glyph-name="scircumflex" unicode="&#x15d;" horiz-adv-x="361" 
d="M220 214v-81c0 -18 -7 -19 -20 -19h-161l24 -114h201c38 0 67 22 67 66v191c0 34 -16 52 -53 52h-115c-13 0 -19 -1 -19 17v81c0 16 6 17 19 17h158l-31 111h-192c-38 0 -68 -24 -68 -68v-202c0 -36 21 -51 49 -51h141zM131 684h93l105 -118h-101l-50 65l-52 -65h-99z
" />
    <glyph glyph-name="sacute" unicode="&#x15b;" horiz-adv-x="361" 
d="M220 214v-81c0 -18 -7 -19 -20 -19h-161l24 -114h201c38 0 67 22 67 66v191c0 34 -16 52 -53 52h-115c-13 0 -19 -1 -19 17v81c0 16 6 17 19 17h158l-31 111h-192c-38 0 -68 -24 -68 -68v-202c0 -36 21 -51 49 -51h141zM388 684l-173 -114h-87l125 114h135z" />
    <glyph glyph-name="scedilla" unicode="&#x15f;" horiz-adv-x="361" 
d="M220 133v78h-141c-28 0 -49 15 -49 51v205c0 44 30 68 68 68h192l31 -111h-158c-13 0 -19 -1 -19 -17v-84c0 -18 6 -17 19 -17h115c37 0 53 -18 53 -52v-188c0 -44 -29 -66 -67 -66h-44l-33 -51c13 5 34 7 41 7c45 0 80 -28 80 -75c0 -62 -55 -90 -111 -91
c-38 -1 -77 8 -108 29l16 42c17 -11 45 -21 67 -21c28 0 52 12 52 42c0 20 -18 36 -39 36c-12 0 -24 -2 -39 -9l-34 20l53 71h-102l-24 114h161c13 0 20 1 20 19z" />
    <glyph glyph-name="scommaaccent" unicode="&#x219;" horiz-adv-x="361" 
d="M220 133v81h-141c-28 0 -49 15 -49 51v202c0 44 30 68 68 68h192l31 -111h-158c-13 0 -19 -1 -19 -17v-81c0 -18 6 -17 19 -17h115c37 0 53 -18 53 -52v-191c0 -44 -29 -66 -67 -66h-201l-24 114h161c13 0 20 1 20 19zM112 -115c0 41 34 75 75 75c42 0 76 -34 76 -75
c0 -44 -41 -104 -75 -134h-50c14 20 27 40 33 62c-39 5 -59 40 -59 72z" />
    <glyph glyph-name="tcommaaccent" unicode="&#x163;" horiz-adv-x="298" 
d="M175 732v-197h88v-111h-88v-290c0 -16 5 -20 20 -20h86l-24 -114h-131c-46 0 -69 26 -69 64v360h-35v111h35v108zM93 -115c0 41 34 75 75 75c42 0 76 -34 76 -75c0 -44 -41 -104 -75 -134h-50c14 20 27 40 33 62c-39 5 -59 40 -59 72z" />
    <glyph glyph-name="tbar" unicode="&#x167;" horiz-adv-x="298" 
d="M31 308h26v116h-35v111h35v108l118 89v-197h88v-111h-88v-116h89l-11 -79h-78v-97c0 -16 3 -18 18 -18h88l-24 -114h-134c-46 0 -66 23 -66 61v168h-35z" />
    <glyph glyph-name="tcaron" unicode="&#x165;" horiz-adv-x="559" 
d="M175 732v-197h88v-111h-88v-290c0 -16 5 -20 20 -20h86l-24 -114h-131c-46 0 -69 26 -69 64v360h-35v111h35v108zM264 672c0 41 34 75 75 75c42 0 76 -34 76 -75c0 -44 -41 -104 -75 -134h-50c14 20 27 40 33 62c-39 5 -59 40 -59 72z" />
    <glyph glyph-name="uni021B" unicode="&#x21b;" horiz-adv-x="298" 
d="M175 732v-197h88v-111h-88v-290c0 -16 5 -20 20 -20h86l-24 -114h-131c-46 0 -69 26 -69 64v360h-35v111h35v108zM89 -115c0 41 34 75 75 75c42 0 76 -34 76 -75c0 -44 -41 -104 -75 -134h-50c14 20 27 40 33 62c-39 5 -59 40 -59 72z" />
    <glyph glyph-name="umacron" unicode="&#x16b;" horiz-adv-x="384" 
d="M159 100h65c14 0 17 8 17 18v417h113v-478c0 -34 -21 -57 -50 -57h-222c-30 0 -52 24 -52 57v478h112v-417c0 -10 3 -18 17 -18zM36 578l19 75h273l19 -75h-311z" />
    <glyph glyph-name="ubreve" unicode="&#x16d;" horiz-adv-x="384" 
d="M224 100h-65c-14 0 -17 8 -17 18v417h-112v-478c0 -33 22 -57 52 -57h222c29 0 50 23 50 57v478h-113v-417c0 -10 -3 -18 -17 -18zM258 695h71c-1 -74 -57 -126 -136 -126s-135 52 -136 126h71c0 -42 30 -68 65 -68c37 0 65 26 65 68z" />
    <glyph glyph-name="utilde" unicode="&#x169;" horiz-adv-x="384" 
d="M224 100h-65c-14 0 -17 8 -17 18v417h-112v-478c0 -33 22 -57 52 -57h222c29 0 50 23 50 57v478h-113v-417c0 -10 -3 -18 -17 -18zM287 678h57c6 -65 -21 -112 -90 -112c-55 0 -78 36 -125 36c-22 0 -36 -11 -36 -37h-55c-3 69 38 113 94 113c51 0 89 -38 121 -38
c20 0 36 15 34 38z" />
    <glyph glyph-name="uring" unicode="&#x16f;" horiz-adv-x="384" 
d="M224 100h-65c-14 0 -17 8 -17 18v417h-112v-478c0 -33 22 -57 52 -57h222c29 0 50 23 50 57v478h-113v-417c0 -10 -3 -18 -17 -18zM99 656c0 50 41 92 91 92s92 -42 92 -92s-42 -91 -92 -91s-91 41 -91 91zM155 656c0 -18 17 -35 35 -35s35 17 35 35s-17 35 -35 35
s-35 -17 -35 -35z" />
    <glyph glyph-name="uhorn" unicode="&#x1b0;" horiz-adv-x="572" 
d="M400 524c0 47 33 72 72 72c49 0 70 -33 70 -72c0 -43 -18 -130 -188 -171v-300c0 -30 -21 -53 -50 -53h-222c-30 0 -52 25 -52 53v482h112v-418c0 -10 4 -17 18 -17h62c14 0 19 8 19 18v417h113v-154c54 11 107 46 113 90c-46 -4 -67 30 -67 53z" />
    <glyph glyph-name="uni0215" unicode="&#x215;" horiz-adv-x="469" 
d="M244 100h65c14 0 17 8 17 18v417h113v-478c0 -34 -21 -57 -50 -57h-222c-30 0 -52 24 -52 57v478h112v-417c0 -10 3 -18 17 -18zM168 570l-138 121h106l115 -121h-83zM309 570l-125 121h107l97 -121h-79z" />
    <glyph glyph-name="uogonek" unicode="&#x173;" horiz-adv-x="384" 
d="M201 0h-119c-30 0 -52 24 -52 57v478h112v-417c0 -10 2 -18 16 -18h66c14 0 17 8 17 18v417h113v-478c0 -34 -21 -57 -50 -57h-7c-52 -11 -97 -49 -93 -99c4 -29 23 -39 46 -39c21 0 46 10 65 21l11 -24c-17 -32 -62 -54 -101 -54c-43 0 -90 25 -90 84c0 53 29 88 66 111
z" />
    <glyph glyph-name="uhungarumlaut" unicode="&#x171;" horiz-adv-x="384" 
d="M224 100h-65c-14 0 -17 8 -17 18v417h-112v-478c0 -33 22 -57 52 -57h222c29 0 50 23 50 57v478h-113v-417c0 -10 -3 -18 -17 -18zM440 691l-138 -121h-83l115 121h106zM286 691l-125 -121h-79l97 121h107z" />
    <glyph glyph-name="uni0217" unicode="&#x217;" horiz-adv-x="384" 
d="M159 100h65c14 0 17 8 17 18v417h113v-478c0 -34 -21 -57 -50 -57h-222c-30 0 -52 24 -52 57v478h112v-417c0 -10 3 -18 17 -18zM328 570h-71c0 42 -28 68 -65 68c-35 0 -65 -26 -65 -68h-71c1 74 57 126 136 126s135 -52 136 -126z" />
    <glyph glyph-name="wcircumflex" unicode="&#x175;" horiz-adv-x="609" 
d="M307 288l53 -288h113l126 535h-128l-64 -343l-63 343h-71l-68 -347l-65 347h-130l130 -535h111zM260 684h93l105 -118h-101l-50 65l-52 -65h-99z" />
    <glyph glyph-name="ycircumflex" unicode="&#x177;" horiz-adv-x="444" 
d="M187 0l-50 -210h112l180 745h-128l-84 -395l-72 395h-130l121 -535h51zM177 684h93l105 -118h-101l-50 65l-52 -65h-99z" />
    <glyph glyph-name="uni0233" unicode="&#x233;" horiz-adv-x="444" 
d="M137 -210l50 210h-51l-121 535h130l72 -395l84 395h128l-180 -745h-112zM65 578l19 75h273l19 -75h-311z" />
    <glyph glyph-name="zacute" unicode="&#x17a;" horiz-adv-x="321" 
d="M154 424l-144 -424h260l24 114h-121l138 421h-265l-31 -111h139zM385 684l-173 -114h-87l125 114h135z" />
    <glyph glyph-name="zdotaccent" unicode="&#x17c;" horiz-adv-x="321" 
d="M154 424l-144 -424h260l24 114h-121l138 421h-265l-31 -111h139zM100 645c0 39 31 70 70 70s70 -31 70 -70s-31 -70 -70 -70s-70 31 -70 70z" />
    <glyph glyph-name="longs" unicode="&#x17f;" horiz-adv-x="330" 
d="M57 0v374h-35v102h35v163c0 64 29 88 93 88h134c10 -39 21 -73 31 -111h-123c-19 0 -21 -4 -21 -20v-596h-114z" />
    <glyph glyph-name="Amacron_sm" unicode="&#xe187;" horiz-adv-x="404" 
d="M259 84h-114l-12 -84h-123l121 654h144l119 -654h-121zM203 494l-43 -323h86zM56 693l18 67h259l19 -67h-296z" />
    <glyph glyph-name="Abreve_sm" unicode="&#xe188;" horiz-adv-x="404" 
d="M259 84h-114l-12 -84h-123l121 654h144l119 -654h-121zM203 494l-43 -323h86zM263 798h68c-1 -66 -55 -113 -130 -113s-128 47 -129 113h68c0 -38 28 -61 61 -61c36 0 62 23 62 61z" />
    <glyph glyph-name="uni0200_sm" unicode="&#xe189;" horiz-adv-x="404" 
d="M259 84h-114l-12 -84h-123l121 654h144l119 -654h-121zM203 494l-43 -323h86zM103 686l-131 109h100l109 -109h-78zM237 686l-119 109h102l92 -109h-75z" />
    <glyph glyph-name="Aringacute_sm" unicode="&#xe190;" horiz-adv-x="404" 
d="M368 923l-129 -82h-67l93 82h103zM130 751c0 38 33 70 73 70c41 0 74 -32 74 -70s-33 -70 -74 -70c-40 0 -73 32 -73 70zM175 751c0 -16 12 -27 28 -27c17 0 31 11 31 27c0 15 -14 28 -31 28c-16 0 -28 -13 -28 -28zM259 84h-114l-12 -84h-123l121 654h144l119 -654h-121
zM203 494l-43 -323h86z" />
    <glyph glyph-name="Aogonek_sm" unicode="&#xe191;" horiz-adv-x="404" 
d="M259 84h-114l-12 -84h-123l121 654h144l119 -654h-13c-49 -10 -92 -44 -88 -89c3 -26 21 -35 43 -35c20 0 44 9 62 19l11 -22c-17 -29 -59 -49 -96 -49c-41 0 -86 23 -86 76c0 48 28 79 63 100h-17zM203 494l-43 -323h86z" />
    <glyph glyph-name="uni0202_sm" unicode="&#xe192;" horiz-adv-x="404" 
d="M259 84h-114l-12 -84h-123l121 654h144l119 -654h-121zM203 494l-43 -323h86zM333 686h-68c0 38 -26 61 -62 61c-33 0 -61 -23 -61 -61h-68c1 66 54 113 129 113s129 -47 130 -113z" />
    <glyph glyph-name="AEacute_sm" unicode="&#xe193;" horiz-adv-x="596" 
d="M301 84h-132l-29 -84h-130l252 654h292l22 -106h-152v-180h117v-97h-117v-165h146l-22 -106h-247v84zM301 479l-102 -308h102v308zM582 788l-165 -102h-82l118 102h129z" />
    <glyph glyph-name="Ccircumflex_sm" unicode="&#xe194;" horiz-adv-x="322" 
d="M279 0h-151c-74 0 -98 25 -98 93v488c0 47 34 73 76 73h174l22 -106h-122c-18 0 -22 -7 -22 -21v-400c0 -14 3 -21 20 -21h124zM130 788h89l99 -106h-96l-47 59l-50 -59h-94z" />
    <glyph glyph-name="Ccaron_sm" unicode="&#xe195;" horiz-adv-x="322" 
d="M279 0h-151c-74 0 -98 25 -98 93v488c0 47 34 73 76 73h174l22 -106h-122c-18 0 -22 -7 -22 -21v-400c0 -14 3 -21 20 -21h124zM218 686h-89l-99 106h95l49 -59l47 59h96z" />
    <glyph glyph-name="Cdotaccent_sm" unicode="&#xe196;" horiz-adv-x="322" 
d="M279 0h-151c-74 0 -98 25 -98 93v488c0 47 34 73 76 73h174l22 -106h-122c-18 0 -22 -7 -22 -21v-400c0 -14 3 -21 20 -21h124zM104 753c0 35 29 63 66 63s67 -28 67 -63s-30 -63 -67 -63s-66 28 -66 63z" />
    <glyph glyph-name="Cacute_sm" unicode="&#xe197;" horiz-adv-x="322" 
d="M279 0h-151c-74 0 -98 25 -98 93v488c0 47 34 73 76 73h174l22 -106h-122c-18 0 -22 -7 -22 -21v-400c0 -14 3 -21 20 -21h124zM376 788l-164 -102h-83l119 102h128z" />
    <glyph glyph-name="Dcaron_sm" unicode="&#xe198;" horiz-adv-x="401" 
d="M228 555h-78v-456h77c20 0 23 6 23 23v411c0 14 -5 22 -22 22zM286 0h-256v654h256c57 0 85 -27 85 -80v-494c0 -53 -28 -80 -85 -80zM242 686h-88l-99 106h94l50 -59l47 59h96z" />
    <glyph glyph-name="Dcroat_sm" unicode="&#xe199;" horiz-adv-x="439" 
d="M63 290h-48l9 74h39v290h262c56 0 84 -27 84 -80v-494c0 -53 -28 -80 -84 -80h-262v290zM268 555h-85v-191h54l-8 -74h-46v-191h84c20 0 22 4 22 22v414c0 15 -4 20 -21 20z" />
    <glyph glyph-name="Emacron_sm" unicode="&#xe200;" horiz-adv-x="328" 
d="M30 0v654h257l21 -106h-152v-180h117v-97h-117v-165h146l-22 -106h-250zM12 693l18 67h260l18 -67h-296z" />
    <glyph glyph-name="Ebreve_sm" unicode="&#xe201;" horiz-adv-x="328" 
d="M30 654v-654h250l22 106h-146v165h117v97h-117v180h152l-21 106h-257zM225 798h68c-1 -66 -54 -113 -130 -113c-75 0 -128 47 -129 113h68c0 -38 28 -61 61 -61c36 0 62 23 62 61z" />
    <glyph glyph-name="Ecaron_sm" unicode="&#xe202;" horiz-adv-x="328" 
d="M30 0v654h257l21 -106h-152v-180h117v-97h-117v-165h146l-22 -106h-250zM206 686h-88l-99 106h94l49 -59l48 59h96z" />
    <glyph glyph-name="Edotaccent_sm" unicode="&#xe203;" horiz-adv-x="328" 
d="M30 654v-654h250l22 106h-146v165h117v97h-117v180h152l-21 106h-257zM94 753c0 35 30 63 67 63s66 -28 66 -63s-29 -63 -66 -63s-67 28 -67 63z" />
    <glyph glyph-name="uni0204_sm" unicode="&#xe204;" horiz-adv-x="328" 
d="M30 0v654h257l21 -106h-152v-180h117v-97h-117v-165h146l-22 -106h-250zM63 686l-131 109h100l110 -109h-79zM197 686l-119 109h102l92 -109h-75z" />
    <glyph glyph-name="Eogonek_sm" unicode="&#xe205;" horiz-adv-x="339" 
d="M291 0h-7c-50 -10 -92 -44 -89 -89c4 -26 22 -35 44 -35c20 0 44 9 62 19l10 -22c-16 -29 -59 -49 -96 -49c-41 0 -85 23 -85 76c0 48 27 79 62 100h-151v654h257l21 -106h-152v-180h117v-97h-117v-165h146z" />
    <glyph glyph-name="uni0206_sm" unicode="&#xe206;" horiz-adv-x="328" 
d="M30 0v654h257l21 -106h-152v-180h117v-97h-117v-165h146l-22 -106h-250zM290 686h-68c0 38 -26 61 -61 61c-34 0 -62 -23 -62 -61h-68c1 66 55 113 130 113s128 -47 129 -113z" />
    <glyph glyph-name="Gbreve_sm" unicode="&#xe207;" horiz-adv-x="393" 
d="M30 80v494c0 53 28 80 85 80h182l22 -106h-144c-17 0 -22 -9 -22 -22v-400c0 -14 5 -23 22 -23h69v270h119v-373h-248c-57 0 -85 27 -85 80zM257 798h67c-1 -66 -54 -113 -129 -113s-128 47 -129 113h67c0 -38 29 -61 62 -61c35 0 62 23 62 61z" />
    <glyph glyph-name="Gcircumflex_sm" unicode="&#xe208;" horiz-adv-x="393" 
d="M30 80v494c0 53 28 80 85 80h182l22 -106h-144c-17 0 -22 -9 -22 -22v-400c0 -14 5 -23 22 -23h69v270h119v-373h-248c-57 0 -85 27 -85 80zM151 788h88l100 -106h-96l-48 59l-49 -59h-94z" />
    <glyph glyph-name="Gdotaccent_sm" unicode="&#xe209;" horiz-adv-x="393" 
d="M30 80v494c0 53 28 80 85 80h182l22 -106h-144c-17 0 -22 -9 -22 -22v-400c0 -14 5 -23 22 -23h69v270h119v-373h-248c-57 0 -85 27 -85 80zM127 753c0 35 30 63 67 63s66 -28 66 -63s-29 -63 -66 -63s-67 28 -67 63z" />
    <glyph glyph-name="Gcommaaccent_sm" unicode="&#xe210;" horiz-adv-x="393" 
d="M30 80v494c0 53 28 80 85 80h182l22 -106h-144c-17 0 -22 -9 -22 -22v-400c0 -14 5 -23 22 -23h69v270h119v-373h-248c-57 0 -85 27 -85 80zM127 -104c0 -28 19 -60 56 -64c-5 -20 -18 -38 -31 -56h48c32 27 71 81 71 120c0 37 -32 68 -72 68c-39 0 -72 -31 -72 -68z" />
    <glyph glyph-name="Hcircumflex_sm" unicode="&#xe211;" horiz-adv-x="406" 
d="M376 654v-654h-124v268h-97v-268h-125v654h125v-289h97v289h124zM159 788h88l100 -106h-96l-48 59l-49 -59h-94z" />
    <glyph glyph-name="Hbar_sm" unicode="&#xe212;" horiz-adv-x="475" 
d="M446 484h-32v-484h-124v268h-107v-268h-125v484h-38l9 71h29v99h125v-99h107v99h124v-99h41zM183 365h107v119h-107v-119z" />
    <glyph glyph-name="uni012A_sm" unicode="&#xe213;" horiz-adv-x="183" 
d="M30 0v654h123v-654h-123zM-57 693l18 67h259l18 -67h-295z" />
    <glyph glyph-name="Ibreve_sm" unicode="&#xe214;" horiz-adv-x="183" 
d="M30 654v-654h123v654h-123zM153 798h67c-1 -66 -54 -113 -129 -113s-128 47 -129 113h67c0 -38 29 -61 62 -61c35 0 62 23 62 61z" />
    <glyph glyph-name="Itilde_sm" unicode="&#xe215;" horiz-adv-x="183" 
d="M30 654v-654h123v654h-123zM184 782h54c6 -58 -19 -101 -85 -101c-52 0 -74 33 -119 33c-21 0 -34 -10 -34 -34h-52c-3 62 36 102 89 102c48 0 85 -34 115 -34c19 0 34 13 32 34z" />
    <glyph glyph-name="Idotaccent_sm" unicode="&#xe216;" horiz-adv-x="183" 
d="M30 654v-654h123v654h-123zM24 753c0 35 29 63 66 63s67 -28 67 -63s-30 -63 -67 -63s-66 28 -66 63z" />
    <glyph glyph-name="uni0208_sm" unicode="&#xe217;" horiz-adv-x="183" 
d="M30 0v654h123v-654h-123zM-9 686l-131 109h101l109 -109h-79zM125 686l-118 109h101l92 -109h-75z" />
    <glyph glyph-name="uni020A_sm" unicode="&#xe218;" horiz-adv-x="183" 
d="M30 0v654h123v-654h-123zM220 686h-67c0 38 -27 61 -62 61c-33 0 -62 -23 -62 -61h-67c1 66 54 113 129 113s128 -47 129 -113z" />
    <glyph glyph-name="Iogonek_sm" unicode="&#xe219;" horiz-adv-x="183" 
d="M54 0h-24v654h123v-654h-8c-49 -10 -92 -44 -88 -89c4 -26 22 -35 44 -35c20 0 43 9 61 19l11 -22c-16 -29 -59 -49 -96 -49c-41 0 -86 23 -86 76c0 48 28 79 63 100z" />
    <glyph glyph-name="Jcircumflex_sm" unicode="&#xe220;" horiz-adv-x="391" 
d="M27 76v292h117v-244c0 -14 6 -22 23 -22h50c17 0 22 9 22 23v423h-149l22 106h250v-574c0 -47 -28 -80 -83 -80h-171c-51 0 -81 29 -81 76zM195 788h88l100 -106h-96l-48 59l-49 -59h-94z" />
    <glyph glyph-name="IJ_sm" unicode="&#xe221;" horiz-adv-x="575" 
d="M30 0v654h123v-654h-123zM210 76v292h118v-244c0 -14 5 -22 23 -22h49c17 0 22 9 22 23v423h-148l21 106h250v-574c0 -47 -27 -80 -82 -80h-171c-52 0 -82 29 -82 76z" />
    <glyph glyph-name="Kcommaaccent_sm" unicode="&#xe222;" horiz-adv-x="409" 
d="M155 367h31l77 287h131l-87 -300l85 -354h-138l-62 276h-37v-276h-125v654h125v-287zM134 -104c0 37 32 68 71 68c40 0 72 -31 72 -68c0 -39 -38 -93 -71 -120h-47c13 18 25 36 31 56c-37 4 -56 36 -56 64z" />
    <glyph glyph-name="Ldot_sm" unicode="&#xe223;" horiz-adv-x="355" 
d="M30 1v654h129v-548h137l-21 -106h-245zM197 337c0 38 33 70 74 70s74 -32 74 -70c0 -39 -33 -70 -74 -70s-74 31 -74 70z" />
    <glyph glyph-name="Lcommaaccent_sm" unicode="&#xe224;" horiz-adv-x="316" 
d="M30 0v654h129v-548h137l-21 -106h-245zM88 -104c0 37 33 68 72 68c40 0 72 -31 72 -68c0 -39 -39 -93 -71 -120h-48c13 18 26 36 31 56c-37 4 -56 36 -56 64z" />
    <glyph glyph-name="Lacute_sm" unicode="&#xe225;" horiz-adv-x="316" 
d="M30 654v-654h245l21 106h-137v548h-129zM303 788l-164 -102h-83l119 102h128z" />
    <glyph glyph-name="Lcaron_sm" unicode="&#xe226;" horiz-adv-x="350" 
d="M30 0v654h129v-548h137l-21 -106h-245zM197 605c0 37 32 67 71 67c40 0 72 -30 72 -67c0 -40 -39 -94 -71 -121h-48c14 18 26 36 32 56c-37 4 -56 36 -56 65z" />
    <glyph glyph-name="Ncaron_sm" unicode="&#xe227;" horiz-adv-x="393" 
d="M30 0v654h116l98 -327v327h119v-654h-116l-101 330v-330h-116zM242 686h-88l-99 106h94l50 -59l47 59h96z" />
    <glyph glyph-name="Nacute_sm" unicode="&#xe228;" horiz-adv-x="393" 
d="M30 654v-654h116v330l101 -330h116v654h-119v-327l-98 327h-116zM401 788l-164 -102h-83l119 102h128z" />
    <glyph glyph-name="Ncommaaccent_sm" unicode="&#xe229;" horiz-adv-x="393" 
d="M30 0v654h116l98 -327v327h119v-654h-116l-101 330v-330h-116zM133 -104c0 37 32 68 71 68c40 0 72 -31 72 -68c0 -39 -38 -93 -71 -120h-47c13 18 25 36 31 56c-37 4 -56 36 -56 64z" />
    <glyph glyph-name="Eng_sm" unicode="&#xe230;" horiz-adv-x="393" 
d="M270 -199h-85c-12 31 -25 62 -36 91h83c14 0 19 1 19 15v91l-110 327v-325h-111v654h106l104 -327v327h123v-770c0 -59 -31 -83 -93 -83z" />
    <glyph glyph-name="Omacron_sm" unicode="&#xe231;" horiz-adv-x="407" 
d="M231 555h-56c-17 0 -22 -8 -22 -22v-411c0 -17 3 -23 23 -23h54c21 0 24 6 24 23v411c0 14 -6 22 -23 22zM377 577v-491c0 -46 -19 -86 -90 -86h-166c-72 0 -91 40 -91 86v491c0 47 25 77 85 77h178c59 0 84 -30 84 -77zM56 693l18 67h259l19 -67h-296z" />
    <glyph glyph-name="Obreve_sm" unicode="&#xe232;" horiz-adv-x="407" 
d="M231 555h-56c-17 0 -22 -8 -22 -22v-411c0 -17 3 -23 23 -23h54c21 0 24 6 24 23v411c0 14 -6 22 -23 22zM377 577v-491c0 -46 -19 -86 -90 -86h-166c-72 0 -91 40 -91 86v491c0 47 25 77 85 77h178c59 0 84 -30 84 -77zM267 798h67c-1 -66 -54 -113 -129 -113
s-128 47 -129 113h67c0 -38 29 -61 62 -61c35 0 62 23 62 61z" />
    <glyph glyph-name="Ohorn_sm" unicode="&#xe233;" horiz-adv-x="548" 
d="M403 645c0 42 31 65 68 65c47 0 67 -30 67 -65c0 -38 -15 -127 -161 -154v-405c0 -46 -19 -86 -90 -86h-166c-72 0 -91 40 -91 86v491c0 47 25 77 85 77h178c59 0 84 -30 84 -77v-58c49 9 81 35 87 72c-42 -2 -61 33 -61 54zM233 555h-60c-17 0 -20 -3 -20 -18v-419
c0 -17 1 -19 21 -19h58c21 0 22 2 22 19v419c0 15 -4 18 -21 18z" />
    <glyph glyph-name="Oslashacute_sm" unicode="&#xe234;" horiz-adv-x="406" 
d="M377 577v-491c0 -46 -19 -86 -90 -86h-166c-17 0 -41 2 -54 8l-13 -25l-27 13l15 28c-14 18 -12 39 -12 62v491c0 47 25 77 85 77h178c17 0 30 -2 46 -9l13 25l27 -11l-17 -34c9 -14 15 -30 15 -48zM235 555h-64c-17 0 -20 -6 -20 -20v-306l105 264v42c0 14 -3 20 -21 20
zM234 99c21 0 22 3 22 20v292l-105 -263v-29c0 -17 1 -20 21 -20h62zM407 788l-165 -102h-82l118 102h129z" />
    <glyph glyph-name="uni020C_sm" unicode="&#xe235;" horiz-adv-x="407" 
d="M231 555h-56c-17 0 -22 -8 -22 -22v-411c0 -17 3 -23 23 -23h54c21 0 24 6 24 23v411c0 14 -6 22 -23 22zM377 577v-491c0 -46 -19 -86 -90 -86h-166c-72 0 -91 40 -91 86v491c0 47 25 77 85 77h178c59 0 84 -30 84 -77zM97 686l-131 109h101l109 -109h-79zM231 686
l-119 109h102l92 -109h-75z" />
    <glyph glyph-name="Ohungarumlaut_sm" unicode="&#xe236;" horiz-adv-x="407" 
d="M231 555h-56c-17 0 -22 -8 -22 -22v-411c0 -17 3 -23 23 -23h54c21 0 24 6 24 23v411c0 14 -6 22 -23 22zM377 577v-491c0 -46 -19 -86 -90 -86h-166c-72 0 -91 40 -91 86v491c0 47 25 77 85 77h178c59 0 84 -30 84 -77zM445 795l-131 -109h-79l109 109h101zM298 795
l-118 -109h-75l92 109h101z" />
    <glyph glyph-name="uni020E_sm" unicode="&#xe237;" horiz-adv-x="407" 
d="M231 555h-56c-17 0 -22 -8 -22 -22v-411c0 -17 3 -23 23 -23h54c21 0 24 6 24 23v411c0 14 -6 22 -23 22zM377 577v-491c0 -46 -19 -86 -90 -86h-166c-71 0 -91 40 -91 86v491c0 47 25 77 85 77h178c59 0 84 -30 84 -77zM332 686h-68c0 38 -26 61 -61 61
c-34 0 -62 -23 -62 -61h-68c1 66 55 113 130 113s128 -47 129 -113z" />
    <glyph glyph-name="Rcaron_sm" unicode="&#xe238;" horiz-adv-x="402" 
d="M231 555h-80v-252h80c18 0 23 7 23 24v205c0 14 -7 23 -23 23zM374 574v-310c0 -26 -23 -50 -67 -50l74 -214h-127l-69 214h-34v-214h-121v654h259c57 0 85 -27 85 -80zM239 686h-89l-99 106h94l50 -59l47 59h96z" />
    <glyph glyph-name="Racute_sm" unicode="&#xe239;" horiz-adv-x="402" 
d="M151 555h80c16 0 23 -9 23 -23v-205c0 -17 -5 -24 -23 -24h-80v252zM374 264v310c0 53 -28 80 -85 80h-259v-654h121v214h34l69 -214h127l-74 214c44 0 67 24 67 50zM400 788l-164 -102h-83l119 102h128z" />
    <glyph glyph-name="Rcommaaccent_sm" unicode="&#xe240;" horiz-adv-x="402" 
d="M231 555h-80v-252h80c18 0 23 7 23 24v205c0 14 -7 23 -23 23zM374 574v-310c0 -26 -23 -50 -67 -50l74 -214h-127l-69 214h-34v-214h-121v654h259c57 0 85 -27 85 -80zM126 -104c0 37 33 68 72 68c40 0 72 -31 72 -68c0 -39 -39 -93 -71 -120h-48c13 18 26 36 31 56
c-37 4 -56 36 -56 64z" />
    <glyph glyph-name="uni0210_sm" unicode="&#xe241;" horiz-adv-x="402" 
d="M231 555h-80v-252h80c18 0 23 7 23 24v205c0 14 -7 23 -23 23zM374 574v-310c0 -26 -23 -50 -67 -50l74 -214h-127l-69 214h-34v-214h-121v654h259c57 0 85 -27 85 -80zM89 686l-131 109h101l109 -109h-79zM223 686l-118 109h101l92 -109h-75z" />
    <glyph glyph-name="uni0212_sm" unicode="&#xe242;" horiz-adv-x="402" 
d="M231 555h-80v-252h80c18 0 23 7 23 24v205c0 14 -7 23 -23 23zM374 574v-310c0 -26 -23 -50 -67 -50l74 -214h-127l-69 214h-34v-214h-121v654h259c57 0 85 -27 85 -80zM324 686h-67c0 38 -27 61 -62 61c-33 0 -62 -23 -62 -61h-67c1 66 54 113 129 113s128 -47 129 -113
z" />
    <glyph glyph-name="Scircumflex_sm" unicode="&#xe243;" horiz-adv-x="359" 
d="M243 0h-179l-23 106h142c21 0 25 6 25 23v125c0 28 -7 27 -33 27h-77c-37 0 -68 11 -68 69v227c0 47 25 77 84 77h188l21 -106h-151c-18 0 -25 -4 -25 -22v-130c0 -21 2 -23 23 -23h93c39 0 66 -12 66 -55v-241c0 -53 -29 -77 -86 -77zM143 788h88l100 -106h-96l-48 59
l-49 -59h-94z" />
    <glyph glyph-name="Sacute_sm" unicode="&#xe244;" horiz-adv-x="359" 
d="M243 0h-179l-23 106h142c21 0 25 6 25 23v125c0 28 -7 27 -33 27h-77c-37 0 -68 11 -68 69v227c0 47 25 77 84 77h188l21 -106h-151c-18 0 -25 -4 -25 -22v-130c0 -21 2 -23 23 -23h93c39 0 66 -12 66 -55v-241c0 -53 -29 -77 -86 -77zM387 788l-165 -102h-82l118 102
h129z" />
    <glyph glyph-name="Scedilla_sm" unicode="&#xe245;" horiz-adv-x="359" 
d="M243 0h-31l-31 -46c12 5 32 6 39 6c42 0 75 -25 75 -67c0 -56 -52 -81 -105 -82c-36 -1 -73 7 -103 26l16 38c16 -10 42 -19 63 -19c27 0 50 11 50 38c0 18 -17 32 -37 32c-12 0 -23 -2 -37 -8l-33 18l52 64h-97l-23 106h142c21 0 25 6 25 23v125c0 28 -7 27 -33 27h-77
c-37 0 -68 11 -68 69v227c0 47 25 77 84 77h188l21 -106h-151c-18 0 -25 -4 -25 -22v-130c0 -21 2 -23 23 -23h93c39 0 66 -12 66 -55v-241c0 -53 -29 -77 -86 -77z" />
    <glyph glyph-name="Scommaaccent_sm" unicode="&#xe246;" horiz-adv-x="359" 
d="M243 0h-179l-23 106h142c21 0 25 6 25 23v125c0 28 -7 27 -33 27h-77c-37 0 -68 11 -68 69v227c0 47 25 77 84 77h188l21 -106h-151c-18 0 -25 -4 -25 -22v-130c0 -21 2 -23 23 -23h93c39 0 66 -12 66 -55v-241c0 -53 -29 -77 -86 -77zM110 -104c0 -28 19 -60 56 -64
c-5 -20 -18 -38 -31 -56h47c33 27 72 81 72 120c0 37 -33 68 -73 68c-38 0 -71 -31 -71 -68z" />
    <glyph glyph-name="Tcommaaccent_sm" unicode="&#xe247;" horiz-adv-x="337" 
d="M42 654h255l30 -106h-96v-548h-125v548h-96zM96 -104c0 -28 19 -60 56 -64c-6 -20 -18 -38 -31 -56h47c32 27 71 81 71 120c0 37 -32 68 -72 68c-39 0 -71 -31 -71 -68z" />
    <glyph glyph-name="Tbar_sm" unicode="&#xe248;" horiz-adv-x="327" 
d="M25 292l10 72h66v184h-91l32 106h246l29 -106h-91v-184h79l-10 -72h-69v-292h-125v292h-76z" />
    <glyph glyph-name="Tcaron_sm" unicode="&#xe249;" horiz-adv-x="337" 
d="M42 654h255l30 -106h-96v-548h-125v548h-96zM212 686h-88l-99 106h94l49 -59l48 59h96z" />
    <glyph glyph-name="uni021A_sm" unicode="&#xe250;" horiz-adv-x="337" 
d="M42 654h255l30 -106h-96v-548h-125v548h-96zM96 -104c0 -28 19 -60 56 -64c-6 -20 -18 -38 -31 -56h47c32 27 71 81 71 120c0 37 -32 68 -72 68c-39 0 -71 -31 -71 -68z" />
    <glyph glyph-name="Umacron_sm" unicode="&#xe251;" horiz-adv-x="406" 
d="M278 0h-151c-73 0 -97 24 -97 92v562h125v-531c0 -17 3 -24 23 -24h50c20 0 24 7 24 24v531h124v-562c0 -68 -24 -92 -98 -92zM60 693l18 67h259l18 -67h-295z" />
    <glyph glyph-name="Ubreve_sm" unicode="&#xe252;" horiz-adv-x="406" 
d="M278 0h-151c-73 0 -97 24 -97 92v562h125v-531c0 -17 3 -24 23 -24h50c20 0 24 7 24 24v531h124v-562c0 -68 -24 -92 -98 -92zM266 798h67c0 -66 -54 -113 -129 -113s-128 47 -129 113h68c0 -38 28 -61 61 -61c35 0 62 23 62 61z" />
    <glyph glyph-name="Utilde_sm" unicode="&#xe253;" horiz-adv-x="406" 
d="M278 0h-151c-73 0 -97 24 -97 92v562h125v-531c0 -17 3 -24 23 -24h50c20 0 24 7 24 24v531h124v-562c0 -68 -24 -92 -98 -92zM296 782h55c5 -58 -20 -101 -86 -101c-52 0 -74 33 -119 33c-21 0 -34 -10 -34 -34h-52c-3 62 36 102 89 102c49 0 85 -34 115 -34
c19 0 34 13 32 34z" />
    <glyph glyph-name="Uring_sm" unicode="&#xe254;" horiz-adv-x="406" 
d="M278 0h-151c-73 0 -97 24 -97 92v562h125v-531c0 -17 3 -24 23 -24h50c20 0 24 7 24 24v531h124v-562c0 -68 -24 -92 -98 -92zM117 763c0 45 39 83 86 83c48 0 88 -38 88 -83s-40 -82 -88 -82c-47 0 -86 37 -86 82zM170 763c0 -16 16 -31 33 -31s34 15 34 31
s-17 32 -34 32s-33 -16 -33 -32z" />
    <glyph glyph-name="Uhorn_sm" unicode="&#xe255;" horiz-adv-x="565" 
d="M420 645c0 42 31 65 68 65c47 0 67 -30 67 -65c0 -38 -18 -119 -179 -155v-398c0 -68 -24 -92 -98 -92h-151c-73 0 -97 24 -97 92v562h125v-533c0 -17 1 -22 21 -22h54c20 0 22 5 22 22v533h124v-137c52 9 101 39 107 79c-42 -2 -63 28 -63 49z" />
    <glyph glyph-name="uni0214_sm" unicode="&#xe256;" horiz-adv-x="406" 
d="M278 0h-151c-73 0 -97 24 -97 92v562h125v-531c0 -17 3 -24 23 -24h50c20 0 24 7 24 24v531h124v-562c0 -68 -24 -92 -98 -92zM103 686l-131 109h100l109 -109h-78zM237 686l-119 109h102l92 -109h-75z" />
    <glyph glyph-name="Uogonek_sm" unicode="&#xe257;" horiz-adv-x="406" 
d="M278 0h-11c-49 -10 -92 -44 -88 -89c3 -26 21 -35 43 -35c20 0 44 9 62 19l11 -22c-17 -29 -59 -49 -96 -49c-41 0 -86 23 -86 76c0 48 28 79 63 100h-49c-73 0 -97 24 -97 92v562h125v-531c0 -17 3 -24 23 -24h50c20 0 24 7 24 24v531h124v-562c0 -68 -24 -92 -98 -92z
" />
    <glyph glyph-name="Uhungarumlaut_sm" unicode="&#xe258;" horiz-adv-x="406" 
d="M278 0h-151c-73 0 -97 24 -97 92v562h125v-531c0 -17 3 -24 23 -24h50c20 0 24 7 24 24v531h124v-562c0 -68 -24 -92 -98 -92zM448 795l-132 -109h-78l109 109h101zM301 795l-119 -109h-75l93 109h101z" />
    <glyph glyph-name="uni0216_sm" unicode="&#xe259;" horiz-adv-x="406" 
d="M278 0h-151c-73 0 -97 24 -97 92v562h125v-531c0 -17 3 -24 23 -24h50c20 0 24 7 24 24v531h124v-562c0 -68 -24 -92 -98 -92zM333 686h-68c0 38 -26 61 -62 61c-33 0 -61 -23 -61 -61h-68c1 66 54 113 129 113s129 -47 130 -113z" />
    <glyph glyph-name="Wcircumflex_sm" unicode="&#xe260;" horiz-adv-x="593" 
d="M405 265l52 389h126c-36 -221 -72 -434 -108 -654h-117l-62 363c-27 -112 -43 -252 -60 -363h-117l-109 654h127l50 -389l70 389h80zM252 788h88l100 -106h-96l-48 59l-49 -59h-94z" />
    <glyph glyph-name="Ycircumflex_sm" unicode="&#xe261;" horiz-adv-x="416" 
d="M273 0h-130v166l-133 488h127l71 -320l71 320h127l-133 -488v-166zM163 788h89l100 -106h-96l-48 59l-49 -59h-94z" />
    <glyph glyph-name="uni0232_sm" unicode="&#xe262;" horiz-adv-x="416" 
d="M273 0h-130v166l-133 488h127l71 -320l71 320h127l-133 -488v-166zM61 693l18 67h259l18 -67h-295z" />
    <glyph glyph-name="Zacute_sm" unicode="&#xe263;" horiz-adv-x="347" 
d="M180 106l152 548h-284l-22 -106h149l-160 -548h278l21 106h-134zM377 788l-164 -102h-83l119 102h128z" />
    <glyph glyph-name="Zdotaccent_sm" unicode="&#xe264;" horiz-adv-x="347" 
d="M180 106l152 548h-284l-22 -106h149l-160 -548h278l21 106h-134zM121 753c0 35 29 63 66 63s67 -28 67 -63s-30 -63 -67 -63s-66 28 -66 63z" />
    <glyph glyph-name="Amacron.001" unicode="&#xe265;" 
d="M58 770l19 75h273l19 -75h-311zM264 184h-102v-184h-132v620c0 78 40 107 118 107h129c78 0 118 -29 118 -107v-620h-131v184zM162 593v-297h102v297c0 19 -1 24 -22 24h-59c-21 0 -21 -5 -21 -24z" />
    <glyph glyph-name="Abreve.001" unicode="&#xe266;" horiz-adv-x="424" 
d="M162 184h102v-184h131v620c0 78 -40 107 -118 107h-129c-78 0 -118 -29 -118 -107v-620h132v184zM162 296v297c0 19 0 24 21 24h59c21 0 22 -5 22 -24v-297h-102zM278 887h71c-1 -74 -57 -126 -136 -126s-135 52 -136 126h71c0 -42 30 -68 65 -68c37 0 65 26 65 68z" />
    <glyph glyph-name="uni0200.001" unicode="&#xe267;" horiz-adv-x="496" 
d="M335 184h-102v-184h-132v620c0 78 40 107 118 107h129c78 0 118 -29 118 -107v-620h-131v184zM233 593v-297h102v297c0 19 -1 24 -22 24h-59c-21 0 -21 -5 -21 -24zM168 762l-138 121h106l115 -121h-83zM309 762l-125 121h107l97 -121h-79z" />
    <glyph glyph-name="Aringacute.001" unicode="&#xe268;" 
d="M392 1026l-136 -92h-80l98 92h118zM139 834c0 43 35 78 77 78c43 0 78 -35 78 -78c0 -42 -35 -77 -78 -77c-42 0 -77 35 -77 77zM188 834c0 -16 12 -28 28 -28s29 12 29 28s-13 29 -29 29s-28 -13 -28 -29zM162 184h102v-184h131v620c0 78 -40 107 -118 107h-129
c-78 0 -118 -29 -118 -107v-620h132v184zM162 296v297c0 19 0 24 21 24h59c21 0 22 -5 22 -24v-297h-102z" />
    <glyph glyph-name="Aogonek.001" unicode="&#xe269;" 
d="M264 184h-102v-184h-132v620c0 78 40 107 118 107h129c78 0 118 -29 118 -107v-620h-13c-52 -11 -97 -49 -93 -99c4 -29 23 -39 46 -39c21 0 46 10 65 21l11 -24c-17 -32 -62 -54 -101 -54c-43 0 -90 25 -90 84c0 53 29 88 66 111h-22v184zM162 593v-297h102v297
c0 19 -1 24 -22 24h-59c-21 0 -21 -5 -21 -24z" />
    <glyph glyph-name="uni0202.001" unicode="&#xe270;" 
d="M264 184h-102v-184h-132v620c0 78 40 107 118 107h129c78 0 118 -29 118 -107v-620h-131v184zM162 593v-297h102v297c0 19 -1 24 -22 24h-59c-21 0 -21 -5 -21 -24zM349 762h-71c0 42 -28 68 -65 68c-35 0 -65 -26 -65 -68h-71c1 74 57 126 136 126s135 -52 136 -126z
" />
    <glyph glyph-name="AEacute.001" unicode="&#xe271;" horiz-adv-x="842" 
d="M670 876l-173 -114h-87l125 114h135zM454 184h-102v-184h-132v620c0 78 42 107 120 107h383l23 -118h-161v-200h124v-108h-124v-183h154l-22 -118h-263v184zM352 582v-286h102v313h-78c-21 0 -24 -8 -24 -27z" />
    <glyph glyph-name="Ccircumflex.001" unicode="&#xe272;" horiz-adv-x="408" 
d="M350 0h-216c-78 0 -104 28 -104 103v536c0 53 26 88 84 88h180c60 0 87 -34 87 -86v-201h-125v153c0 16 -3 24 -20 24h-57c-19 0 -20 -10 -20 -24v-454c0 -15 2 -21 20 -21h195c-8 -43 -17 -77 -24 -118zM161 876h93l105 -118h-101l-50 65l-52 -65h-99z" />
    <glyph glyph-name="Ccaron.001" unicode="&#xe273;" horiz-adv-x="408" 
d="M258 762h-93l-104 118h99l52 -65l50 65h101zM350 0h-216c-78 0 -104 28 -104 103v536c0 53 26 88 84 88h180c60 0 87 -34 87 -86v-201h-125v153c0 16 -3 24 -20 24h-57c-19 0 -20 -10 -20 -24v-454c0 -15 2 -21 20 -21h195c-8 -43 -17 -77 -24 -118z" />
    <glyph glyph-name="Cdotaccent.001" unicode="&#xe274;" horiz-adv-x="408" 
d="M139 837c0 39 31 70 70 70s70 -31 70 -70s-31 -70 -70 -70s-70 31 -70 70zM350 0h-216c-78 0 -104 28 -104 103v536c0 53 26 88 84 88h180c60 0 87 -34 87 -86v-201h-125v153c0 16 -3 24 -20 24h-57c-19 0 -20 -10 -20 -24v-454c0 -15 2 -21 20 -21h195
c-8 -43 -17 -77 -24 -118z" />
    <glyph glyph-name="Cacute.001" unicode="&#xe275;" horiz-adv-x="408" 
d="M350 0h-216c-78 0 -104 28 -104 103v536c0 53 26 88 84 88h180c60 0 87 -34 87 -86v-201h-125v153c0 16 -3 24 -20 24h-57c-19 0 -20 -10 -20 -24v-454c0 -15 2 -21 20 -21h195c-8 -43 -17 -77 -24 -118zM423 876l-173 -114h-87l125 114h135z" />
    <glyph glyph-name="Gbreve.001" unicode="&#xe276;" horiz-adv-x="416" 
d="M261 297v-179h-83c-18 0 -19 5 -19 20v456c0 14 2 23 21 23h59c17 0 19 -7 19 -23v-85h125v132c0 52 -27 86 -87 86h-182c-58 0 -84 -35 -84 -88v-536c0 -75 26 -103 104 -103h80l47 56v-56h125v405h-152v-108h27zM278 887h71c-1 -74 -57 -126 -136 -126
s-135 52 -136 126h71c0 -42 30 -68 65 -68c37 0 65 26 65 68z" />
    <glyph glyph-name="Gcircumflex.001" unicode="&#xe277;" horiz-adv-x="416" 
d="M261 297v-179h-83c-18 0 -19 5 -19 20v456c0 14 2 23 21 23h59c17 0 19 -7 19 -23v-85h125v132c0 52 -27 86 -87 86h-182c-58 0 -84 -35 -84 -88v-536c0 -75 26 -103 104 -103h80l47 56v-56h125v405h-152v-108h27zM163 876h93l105 -118h-101l-50 65l-52 -65h-99z" />
    <glyph glyph-name="Gdotaccent.001" unicode="&#xe278;" horiz-adv-x="416" 
d="M140 837c0 39 31 70 70 70s70 -31 70 -70s-31 -70 -70 -70s-70 31 -70 70zM261 297v-179h-83c-18 0 -19 5 -19 20v456c0 14 2 23 21 23h59c17 0 19 -7 19 -23v-85h125v132c0 52 -27 86 -87 86h-182c-58 0 -84 -35 -84 -88v-536c0 -75 26 -103 104 -103h80l47 56v-56h125
v405h-152v-108h27z" />
    <glyph glyph-name="Gcommaaccent.001" unicode="&#xe279;" horiz-adv-x="416" 
d="M140 -115c0 41 34 75 75 75c42 0 76 -34 76 -75c0 -44 -41 -104 -75 -134h-50c14 20 27 40 33 62c-39 5 -59 40 -59 72zM261 118v179h-27v108h152v-405h-125v56l-47 -56h-80c-78 0 -104 28 -104 103v536c0 53 26 88 84 88h182c60 0 87 -34 87 -86v-132h-125v85
c0 16 -2 23 -19 23h-59c-19 0 -21 -9 -21 -23v-456c0 -15 1 -20 19 -20h83z" />
    <glyph glyph-name="uni012A.001" unicode="&#xe280;" horiz-adv-x="303" 
d="M49 727h208l31 -118h-70v-491h70l-31 -118h-208l-34 118h72v491h-71zM-2 770l19 75h273l19 -75h-311z" />
    <glyph glyph-name="Ibreve.001" unicode="&#xe281;" horiz-adv-x="303" 
d="M49 727h208l31 -118h-70v-491h70l-31 -118h-208l-34 118h72v491h-71zM220 887h71c-1 -74 -57 -126 -136 -126s-135 52 -136 126h71c0 -42 30 -68 65 -68c37 0 65 26 65 68z" />
    <glyph glyph-name="Itilde.001" unicode="&#xe282;" horiz-adv-x="303" 
d="M49 727h208l31 -118h-70v-491h70l-31 -118h-208l-34 118h72v491h-71zM249 869h57c6 -65 -21 -112 -90 -112c-55 0 -78 36 -125 36c-22 0 -36 -11 -36 -37h-55c-3 69 38 113 94 113c51 0 89 -38 121 -38c20 0 36 15 34 38z" />
    <glyph glyph-name="Idotaccent.001" unicode="&#xe283;" horiz-adv-x="303" 
d="M82 837c0 39 31 70 70 70s70 -31 70 -70s-31 -70 -70 -70s-70 31 -70 70zM49 727h208l31 -118h-70v-491h70l-31 -118h-208l-34 118h72v491h-71z" />
    <glyph glyph-name="uni0208.001" unicode="&#xe284;" horiz-adv-x="419" 
d="M165 727h208l31 -118h-70v-491h70l-31 -118h-208l-34 118h72v491h-71zM153 762l-138 121h106l115 -121h-83zM294 762l-125 121h107l97 -121h-79z" />
    <glyph glyph-name="uni020A.001" unicode="&#xe285;" horiz-adv-x="305" 
d="M49 727h208l31 -118h-70v-491h70l-31 -118h-208l-34 118h72v491h-71zM290 762h-71c0 42 -28 68 -65 68c-35 0 -65 -26 -65 -68h-71c1 74 57 126 136 126s135 -52 136 -126z" />
    <glyph glyph-name="Iogonek.001" unicode="&#xe286;" horiz-adv-x="303" 
d="M49 727h208l31 -118h-70v-491h70l-31 -118h-13c-52 -11 -97 -49 -93 -99c4 -29 23 -39 46 -39c21 0 46 10 65 21l11 -24c-17 -32 -62 -54 -101 -54c-43 0 -90 25 -90 84c0 53 29 88 66 111h-99l-34 118h72v491h-71z" />
    <glyph glyph-name="Illinois_J" unicode="&#xe287;" horiz-adv-x="716" 
d="M49 727h208l31 -118h-70v-491h70l-31 -118h-208l-34 118h72v491h-71zM333 84v325h124v-271c0 -16 6 -25 24 -25h52c18 0 23 10 23 26v470h-156l23 118h263v-638c0 -52 -29 -89 -87 -89h-180c-54 0 -86 32 -86 84z" />
    <glyph glyph-name="Illinois_unarmedJ" unicode="&#xe288;" horiz-adv-x="729" 
d="M49 727h208l31 -118h-70v-491h70l-31 -118h-208l-34 118h72v491h-71zM333 86v335h127v-282c0 -17 3 -23 22 -23h63c18 0 20 7 20 24v587h134v-635c0 -54 -30 -92 -90 -92h-188c-55 0 -88 33 -88 86z" />
    <glyph glyph-name="Jcircumflex.001" unicode="&#xe289;" horiz-adv-x="423" 
d="M279 876h93l105 -118h-101l-50 65l-52 -65h-99zM27 86v335h127v-282c0 -17 3 -23 22 -23h63c18 0 20 7 20 24v587h134v-635c0 -54 -30 -92 -90 -92h-188c-55 0 -88 33 -88 86z" />
    <glyph glyph-name="IJ.001" unicode="&#xe290;" horiz-adv-x="615" 
d="M30 0v727h129v-727h-129zM219 86v335h127v-282c0 -17 3 -23 22 -23h63c18 0 20 7 20 24v587h134v-635c0 -54 -30 -92 -90 -92h-188c-55 0 -88 33 -88 86z" />
    <glyph glyph-name="Kcommaaccent.001" unicode="&#xe291;" horiz-adv-x="424" 
d="M131 -115c0 41 34 75 75 75c42 0 76 -34 76 -75c0 -44 -41 -104 -75 -134h-50c14 20 27 40 33 62c-39 5 -59 40 -59 72zM162 727v-325h19l99 325h127l-108 -330c27 -1 55 -17 54 -43c17 -120 37 -234 56 -354h-138l-45 292c-2 13 -7 21 -22 21h-42v-313h-132v727h132z
" />
    <glyph glyph-name="Ncaron.001" unicode="&#xe292;" 
d="M258 762h-93l-104 118h99l52 -65l50 65h101zM30 727h262c77 0 103 -27 103 -102v-625h-131v593c0 19 -2 24 -23 24h-79v-617h-132v727z" />
    <glyph glyph-name="Nacute.001" unicode="&#xe293;" 
d="M292 727h-262v-727h132v617h79c21 0 23 -5 23 -24v-593h131v625c0 75 -26 102 -103 102zM420 876l-173 -114h-87l125 114h135z" />
    <glyph glyph-name="Ncommaaccent.001" unicode="&#xe294;" 
d="M135 -115c0 41 34 75 75 75c42 0 76 -34 76 -75c0 -44 -41 -104 -75 -134h-50c14 20 27 40 33 62c-39 5 -59 40 -59 72zM30 727h262c77 0 103 -27 103 -102v-625h-131v593c0 19 -2 24 -23 24h-79v-617h-132v727z" />
    <glyph glyph-name="Eng.001" unicode="&#xe295;" 
d="M30 727h262c77 0 103 -27 103 -102v-748c0 -65 -33 -92 -98 -92h-103l-38 101h87c15 0 21 5 21 23v684c0 19 -2 24 -23 24h-79v-617h-132v727z" />
    <glyph glyph-name="Ncaron.002" unicode="&#xe296;" 
d="M266 762h-93l-104 118h99l52 -65l50 65h101zM30 0v727h125l111 -207v207h129v-727h-130v325l-106 185v-510h-129z" />
    <glyph glyph-name="Nacute.002" unicode="&#xe297;" 
d="M30 0v727h125l111 -207v207h129v-727h-130v325l-106 185v-510h-129zM435 876l-173 -114h-87l125 114h135z" />
    <glyph glyph-name="Ncommaaccent.002" unicode="&#xe298;" 
d="M135 -115c0 -32 20 -67 59 -72c-6 -22 -19 -42 -33 -62h50c34 30 75 90 75 134c0 41 -34 75 -76 75c-41 0 -75 -34 -75 -75zM30 0v727h125l111 -207v207h129v-727h-130v325l-106 185v-510h-129z" />
    <glyph glyph-name="Eng.002" unicode="&#xe299;" 
d="M30 0v727h127l109 -208v208h129v-850c0 -65 -33 -92 -98 -92h-103l-38 101h87c14 0 22 3 22 21v418l-106 181v-506h-129z" />
    <glyph glyph-name="Rcaron.001" unicode="&#xe300;" horiz-adv-x="423" 
d="M249 762h-93l-104 118h99l52 -65l50 65h101zM255 36l-58 202h-38v-238h-129v727h274c59 0 89 -30 89 -89v-345c0 -28 -25 -55 -71 -55l37 -120h52c-8 -43 -16 -77 -23 -118h-79c-27 0 -46 9 -54 36zM245 617h-86v-280h85c19 0 23 4 23 23v234c0 16 -5 23 -22 23z" />
    <glyph glyph-name="Racute.001" unicode="&#xe301;" horiz-adv-x="423" 
d="M419 876l-173 -114h-87l125 114h135zM255 36l-58 202h-38v-238h-129v727h274c59 0 89 -30 89 -89v-345c0 -28 -25 -55 -71 -55l37 -120h52c-8 -43 -16 -77 -23 -118h-79c-27 0 -46 9 -54 36zM245 617h-86v-280h85c19 0 23 4 23 23v234c0 16 -5 23 -22 23z" />
    <glyph glyph-name="Rcommaaccent.001" unicode="&#xe302;" horiz-adv-x="423" 
d="M139 -115c0 -32 20 -67 59 -72c-6 -22 -19 -42 -33 -62h50c34 30 75 90 75 134c0 41 -34 75 -76 75c-41 0 -75 -34 -75 -75zM255 36l-58 202h-38v-238h-129v727h274c59 0 89 -30 89 -89v-345c0 -28 -25 -55 -71 -55l37 -120h52c-8 -43 -16 -77 -23 -118h-79
c-27 0 -46 9 -54 36zM245 617h-86v-280h85c19 0 23 4 23 23v234c0 16 -5 23 -22 23z" />
    <glyph glyph-name="uni0210.001" unicode="&#xe303;" horiz-adv-x="499" 
d="M168 762l-138 121h106l115 -121h-83zM309 762l-125 121h107l97 -121h-79zM331 36l-58 202h-38v-238h-129v727h274c59 0 89 -30 89 -89v-345c0 -28 -25 -55 -71 -55l37 -120h52c-8 -43 -16 -77 -23 -118h-79c-27 0 -46 9 -54 36zM321 617h-86v-280h85c19 0 23 4 23 23v234
c0 16 -5 23 -22 23z" />
    <glyph glyph-name="uni0212.001" unicode="&#xe304;" horiz-adv-x="423" 
d="M255 36l-58 202h-38v-238h-129v727h274c59 0 89 -30 89 -89v-345c0 -28 -25 -55 -71 -55l37 -120h52c-8 -43 -16 -77 -23 -118h-79c-27 0 -46 9 -54 36zM245 617h-86v-280h85c19 0 23 4 23 23v234c0 16 -5 23 -22 23zM338 762h-71c0 42 -28 68 -65 68
c-35 0 -65 -26 -65 -68h-71c1 74 57 126 136 126s135 -52 136 -126z" />
    <glyph glyph-name="Rcaron.002" unicode="&#xe305;" horiz-adv-x="424" 
d="M256 762h-93l-104 118h99l52 -65l50 65h101zM268 0l-69 337h43c20 0 25 3 25 22v235c0 16 -4 23 -22 23h-86v-617h-129v727h274c59 0 89 -30 89 -89v-294c0 -27 -15 -55 -60 -55l61 -289h-126z" />
    <glyph glyph-name="Racute.002" unicode="&#xe306;" horiz-adv-x="424" 
d="M199 337l69 -337h126l-61 289c45 0 60 28 60 55v294c0 59 -30 89 -89 89h-274v-727h129v617h86c18 0 22 -7 22 -23v-235c0 -19 -5 -22 -25 -22h-43zM418 876l-173 -114h-87l125 114h135z" />
    <glyph glyph-name="Rcommaaccent.002" unicode="&#xe307;" horiz-adv-x="424" 
d="M138 -115c0 41 34 75 75 75c42 0 76 -34 76 -75c0 -44 -41 -104 -75 -134h-50c14 20 27 40 33 62c-39 5 -59 40 -59 72zM268 0l-69 337h43c20 0 25 3 25 22v235c0 16 -4 23 -22 23h-86v-617h-129v727h274c59 0 89 -30 89 -89v-294c0 -27 -15 -55 -60 -55l61 -289h-126z
" />
    <glyph glyph-name="uni0210.002" unicode="&#xe308;" horiz-adv-x="499" 
d="M343 0l-69 337h43c20 0 25 3 25 22v235c0 16 -4 23 -22 23h-86v-617h-129v727h274c59 0 89 -30 89 -89v-294c0 -27 -15 -55 -60 -55l61 -289h-126zM168 762l-138 121h106l115 -121h-83zM309 762l-125 121h107l97 -121h-79z" />
    <glyph glyph-name="uni0212.002" unicode="&#xe309;" horiz-adv-x="424" 
d="M268 0l-69 337h43c20 0 25 3 25 22v235c0 16 -4 23 -22 23h-86v-617h-129v727h274c59 0 89 -30 89 -89v-294c0 -27 -15 -55 -60 -55l61 -289h-126zM341 762h-71c0 42 -28 68 -65 68c-35 0 -65 -26 -65 -68h-71c1 74 57 126 136 126s135 -52 136 -126z" />
    <glyph glyph-name="Scircumflex.001" unicode="&#xe310;" horiz-adv-x="410" 
d="M237 617h-62c-19 0 -23 -4 -23 -23v-227c0 -25 3 -25 27 -25h128c41 0 73 -21 73 -70v-182c0 -59 -32 -90 -92 -90h-212c-7 43 -15 76 -23 118h176c21 0 24 4 24 23v79c0 31 -9 30 -37 30h-111c-39 0 -75 11 -75 76v315c0 52 27 86 90 86h175c65 0 85 -32 85 -84v-203
h-124v155c0 16 -2 22 -19 22zM162 876h93l105 -118h-101l-50 65l-52 -65h-99z" />
    <glyph glyph-name="Sacute.001" unicode="&#xe311;" horiz-adv-x="410" 
d="M237 617h-62c-19 0 -23 -4 -23 -23v-227c0 -25 3 -25 27 -25h128c41 0 73 -21 73 -70v-182c0 -59 -32 -90 -92 -90h-212c-7 43 -15 76 -23 118h176c21 0 24 4 24 23v79c0 31 -9 30 -37 30h-111c-39 0 -75 11 -75 76v315c0 52 27 86 90 86h175c65 0 85 -32 85 -84v-203
h-124v155c0 16 -2 22 -19 22zM420 876l-173 -114h-87l125 114h135z" />
    <glyph glyph-name="Scedilla.001" unicode="&#xe312;" horiz-adv-x="410" 
d="M237 617h-62c-19 0 -23 -4 -23 -23v-227c0 -25 3 -25 27 -25h128c41 0 73 -21 73 -70v-182c0 -59 -32 -90 -92 -90h-41l-33 -51c13 5 34 7 41 7c45 0 80 -28 80 -75c0 -62 -55 -90 -111 -91c-38 -1 -77 8 -108 29l16 42c17 -11 45 -21 67 -21c28 0 52 12 52 42
c0 20 -18 36 -39 36c-12 0 -24 -2 -39 -9l-34 20l54 71h-117c-7 43 -15 76 -23 118h176c21 0 24 4 24 23v79c0 31 -9 30 -37 30h-111c-39 0 -75 11 -75 76v315c0 52 27 86 90 86h175c65 0 85 -32 85 -84v-203h-124v155c0 16 -2 22 -19 22z" />
    <glyph glyph-name="Scommaaccent.001" unicode="&#xe313;" horiz-adv-x="410" 
d="M134 -115c0 -32 20 -67 59 -72c-6 -22 -19 -42 -33 -62h50c34 30 75 90 75 134c0 41 -34 75 -76 75c-41 0 -75 -34 -75 -75zM237 617h-62c-19 0 -23 -4 -23 -23v-227c0 -25 3 -25 27 -25h128c41 0 73 -21 73 -70v-182c0 -59 -32 -90 -92 -90h-212c-7 43 -15 76 -23 118
h176c21 0 24 4 24 23v79c0 31 -9 30 -37 30h-111c-39 0 -75 11 -75 76v315c0 52 27 86 90 86h175c65 0 85 -32 85 -84v-203h-124v155c0 16 -2 22 -19 22z" />
    <glyph glyph-name="Scircumflex.002" unicode="&#xe314;" horiz-adv-x="370" 
d="M320 609h-139c-17 0 -24 -7 -26 -26c-3 -40 1 -104 25 -122c138 -92 165 -145 165 -277c0 -36 -2 -77 -4 -125c-2 -35 -32 -59 -72 -59h-195l-23 118h141c21 0 26 8 26 27c1 45 0 76 -8 103c-12 40 -47 71 -83 93c-25 16 -55 40 -76 82c-20 41 -26 84 -26 137
c0 32 1 70 3 89c5 52 45 78 95 78h174zM136 876h93l105 -118h-101l-50 65l-52 -65h-99z" />
    <glyph glyph-name="Sacute.002" unicode="&#xe315;" horiz-adv-x="370" 
d="M320 609h-139c-17 0 -24 -7 -26 -26c-3 -40 1 -104 25 -122c138 -92 165 -145 165 -277c0 -36 -2 -77 -4 -125c-2 -35 -32 -59 -72 -59h-195l-23 118h141c21 0 26 8 26 27c1 45 0 76 -8 103c-12 40 -47 71 -83 93c-25 16 -55 40 -76 82c-20 41 -26 84 -26 137
c0 32 1 70 3 89c5 52 45 78 95 78h174zM394 876l-173 -114h-87l125 114h135z" />
    </font>
</defs>
</svg>
