<?xml version="1.0" encoding="UTF-8"?>
<!DOCTYPE svg PUBLIC "-//W3C//DTD SVG 1.1//EN" "http://www.w3.org/Graphics/SVG/1.1/DTD/svg11.dtd">
<!-- Creator: CorelDRAW 2017 -->
<svg xmlns="http://www.w3.org/2000/svg" xml:space="preserve" width="1280px" height="720px" version="1.1" style="shape-rendering:geometricPrecision; text-rendering:geometricPrecision; image-rendering:optimizeQuality; fill-rule:evenodd; clip-rule:evenodd"
viewBox="0 0 1280 720"
 xmlns:xlink="http://www.w3.org/1999/xlink">
 <defs>
  <style type="text/css">
   <![CDATA[
    .fil0 {fill:#7690C9}
    .fil2 {fill:#DCF51B}
    .fil1 {fill:#DCF51B;fill-rule:nonzero}
   ]]>
  </style>
 </defs>
 <g id="Слой_x0020_1">
  <metadata id="CorelCorpID_0Corel-Layer"/>
  <rect class="fil0" width="1280" height="720"/>
  <g id="_2205346260752">
   <path class="fil1" d="M489.5 453.29l11.71 11.48 -7.35 16.76 21.53 21.11 16.44 -7.85 11.5 11.27 -73.47 33.24 -11.48 -11.25 31.12 -74.76zm-1.01 40.77l-12.02 27.18 26.73 -12.77 -14.71 -14.41zm-20.83 -95.78l5.17 12.29 -7.37 3.1c3.73,0.84 6.9,2.37 9.52,4.55 2.61,2.19 4.53,4.71 5.72,7.55 2.43,5.79 2.19,11.72 -0.73,17.81 -2.93,6.07 -8.55,10.86 -16.89,14.36 -8.52,3.59 -15.84,4.31 -21.97,2.16 -6.12,-2.15 -10.46,-6.29 -13.04,-12.42 -2.36,-5.61 -2.07,-11.47 0.87,-17.52l-25 10.51 -5.57 -13.26 69.29 -29.13zm-11.19 46.39c5.37,-2.26 8.95,-4.64 10.73,-7.12 2.59,-3.61 3.07,-7.32 1.46,-11.16 -1.28,-3.05 -3.68,-5.1 -7.19,-6.13 -3.51,-1.05 -7.85,-0.48 -13.04,1.71 -5.79,2.43 -9.52,5.21 -11.19,8.36 -1.68,3.16 -1.84,6.34 -0.48,9.58 1.32,3.15 3.69,5.25 7.1,6.32 3.41,1.05 7.61,0.54 12.61,-1.56zm-19.55 -55.51c-4.79,0.3 -9.49,-0.59 -14.11,-2.67 -4.63,-2.08 -8.24,-5.2 -10.87,-9.37 -2.62,-4.16 -4.11,-8.89 -4.44,-14.22 -0.51,-8.23 1.75,-15.11 6.76,-20.7 5.04,-5.59 11.62,-8.63 19.79,-9.14 8.25,-0.51 15.24,1.72 20.98,6.68 5.74,4.97 8.86,11.48 9.36,19.53 0.31,4.97 -0.53,9.79 -2.5,14.46 -1.98,4.64 -5.07,8.29 -9.28,10.92 -4.21,2.62 -9.44,4.12 -15.69,4.51zm-0.15 -14.82c5.39,-0.34 9.45,-1.87 12.16,-4.6 2.73,-2.74 3.96,-5.97 3.73,-9.73 -0.23,-3.74 -1.86,-6.79 -4.9,-9.14 -3.02,-2.36 -7.27,-3.38 -12.74,-3.04 -5.32,0.33 -9.35,1.86 -12.06,4.57 -2.72,2.72 -3.96,5.95 -3.73,9.69 0.23,3.75 1.86,6.81 4.9,9.19 3.02,2.37 7.24,3.39 12.64,3.06zm26.75 -53.91l-72.35 -20.41 3.91 -13.85 26.1 7.37c-3.66,-5.65 -4.67,-11.39 -3.02,-17.26 1.8,-6.38 5.59,-11 11.41,-13.86 5.8,-2.88 13.04,-3.09 21.72,-0.64 8.96,2.53 15.26,6.6 18.91,12.22 3.63,5.63 4.59,11.5 2.88,17.58 -0.85,3 -2.45,5.73 -4.81,8.21 -2.37,2.47 -5.3,4.35 -8.82,5.63l7.69 2.17 -3.62 12.84zm-23.38 -21.33c5.44,1.54 9.72,1.82 12.8,0.83 4.38,-1.36 7.14,-4.02 8.26,-8.01 0.87,-3.07 0.29,-6.05 -1.72,-8.96 -2.03,-2.9 -5.86,-5.14 -11.51,-6.73 -6.01,-1.7 -10.64,-1.83 -13.92,-0.4 -3.27,1.42 -5.39,3.82 -6.35,7.22 -0.94,3.34 -0.42,6.46 1.55,9.4 1.97,2.94 5.6,5.16 10.89,6.65zm48.71 -75.72l10.36 -10.27c3.2,4.57 4.75,9.28 4.67,14.12 -0.1,4.84 -1.88,9.7 -5.37,14.54 -5.53,7.69 -12.14,11.57 -19.82,11.63 -6.12,0.02 -12.26,-2.18 -18.41,-6.6 -7.33,-5.28 -11.7,-11.33 -13.1,-18.14 -1.41,-6.81 0,-13.15 4.21,-19 4.72,-6.56 10.62,-10.18 17.71,-10.86 7.07,-0.67 15.04,2.31 23.89,8.93l-21.03 29.24c3.53,2.4 6.9,3.41 10.13,2.99 3.22,-0.4 5.8,-1.95 7.72,-4.62 1.32,-1.83 1.93,-3.72 1.82,-5.67 -0.09,-1.96 -1.02,-4.06 -2.78,-6.29zm-11.35 -9.21c-3.46,-2.35 -6.67,-3.34 -9.63,-2.95 -2.97,0.38 -5.3,1.77 -7.02,4.15 -1.82,2.54 -2.4,5.32 -1.73,8.32 0.66,3 2.62,5.64 5.84,7.91l12.54 -17.43zm64.58 -21.96l-29.13 -69.29 21.01 -8.84 32.29 42.04 -7.59 -52.42 21.07 -8.86 29.13 69.3 -12.97 5.45 -22.98 -54.53 9.27 60.29 -13.49 5.67 -36.53 -48.83 22.89 54.57 -12.97 5.45zm118.71 -29.15l-0.12 -8.15c-1.95,2.93 -4.53,5.28 -7.74,7.05 -3.21,1.76 -6.61,2.67 -10.2,2.72 -3.67,0.05 -6.97,-0.7 -9.9,-2.27 -2.94,-1.57 -5.08,-3.82 -6.41,-6.7 -1.36,-2.91 -2.06,-6.92 -2.13,-12.06l-0.5 -34.56 14.39 -0.2 0.35 25.09c0.11,7.68 0.44,12.36 1.01,14.09 0.55,1.72 1.53,3.09 2.96,4.07 1.42,0.99 3.21,1.47 5.38,1.44 2.46,-0.03 4.66,-0.75 6.6,-2.12 1.94,-1.38 3.24,-3.08 3.93,-5.1 0.69,-2.02 0.99,-6.92 0.88,-14.74l-0.33 -23.03 14.38 -0.2 0.78 54.48 -13.33 0.19zm28.1 -12.67l14.43 2.53c-0.3,2.83 0.2,5.23 1.54,7.19 1.31,1.98 3.58,3.5 6.79,4.57 3.53,1.19 6.4,1.43 8.63,0.74 1.5,-0.51 2.51,-1.54 3.02,-3.06 0.34,-1.03 0.3,-2.01 -0.11,-2.9 -0.47,-0.88 -1.79,-2 -3.96,-3.34 -10.21,-6.14 -16.45,-10.71 -18.73,-13.71 -3.15,-4.18 -3.89,-8.75 -2.22,-13.71 1.51,-4.49 4.54,-7.66 9.1,-9.53 4.56,-1.86 10.55,-1.55 17.96,0.94 7.07,2.37 11.94,5.3 14.59,8.76 2.66,3.47 3.88,7.69 3.66,12.65l-13.65 -1.92c0.14,-2.21 -0.4,-4.13 -1.58,-5.72 -1.18,-1.6 -3.21,-2.87 -6.08,-3.83 -3.61,-1.22 -6.37,-1.59 -8.29,-1.11 -1.28,0.36 -2.1,1.12 -2.48,2.25 -0.33,0.98 -0.16,1.96 0.52,2.94 0.94,1.33 4.77,4.04 11.52,8.15 6.73,4.11 11.15,7.85 13.23,11.22 2.05,3.38 2.34,7.27 0.88,11.61 -1.59,4.73 -4.93,8.15 -10.04,10.22 -5.09,2.07 -11.52,1.81 -19.28,-0.79 -7.03,-2.36 -12.13,-5.66 -15.29,-9.88 -3.14,-4.22 -4.54,-8.97 -4.16,-14.27zm89.84 42.25l10.27 10.36c-4.57,3.2 -9.28,4.75 -14.12,4.67 -4.84,-0.1 -9.7,-1.89 -14.54,-5.37 -7.69,-5.53 -11.57,-12.14 -11.63,-19.82 -0.01,-6.13 2.18,-12.26 6.61,-18.41 5.27,-7.33 11.33,-11.71 18.13,-13.1 6.82,-1.42 13.15,0 19,4.2 6.56,4.73 10.19,10.63 10.86,17.71 0.67,7.08 -2.3,15.05 -8.93,23.9l-29.23 -21.03c-2.41,3.53 -3.42,6.9 -3,10.13 0.4,3.22 1.95,5.8 4.62,7.72 1.83,1.32 3.72,1.93 5.67,1.82 1.97,-0.09 4.06,-1.02 6.29,-2.78zm9.21 -11.36c2.35,-3.45 3.35,-6.66 2.96,-9.62 -0.39,-2.97 -1.77,-5.3 -4.16,-7.02 -2.54,-1.83 -5.32,-2.4 -8.32,-1.73 -3,0.66 -5.64,2.62 -7.91,5.84l17.43 12.53zm64.57 37.34l6.62 13.82 -29.21 28.48 40.37 -5.19 6.44 13.45 -55.6 5.32 -10.03 0.97c-3.41,0.21 -6.11,0.17 -8.13,-0.15 -1.98,-0.31 -3.79,-0.92 -5.36,-1.81 -1.59,-0.89 -3.11,-2.2 -4.58,-3.92 -1.46,-1.71 -2.79,-3.81 -3.98,-6.29 -1.19,-2.49 -2.1,-5.08 -2.74,-7.74l9.59 -5.99c0.58,2.22 1.26,4.17 2.05,5.81 1.45,3.03 3.41,4.85 5.88,5.44 2.48,0.6 5.29,0.64 8.41,0.09l40.27 -42.29zm31.7 75.67l1.47 13.36 -7.95 0.87c2.91,1.44 5.35,3.53 7.37,6.3 1.99,2.77 3.19,5.97 3.59,9.57 0.69,6.28 -1.19,11.89 -5.65,16.82 -4.44,4.92 -11.09,7.87 -19.89,8.84 -9.06,1 -16.33,-0.44 -21.84,-4.3 -5.51,-3.86 -8.61,-8.94 -9.3,-15.24 -0.33,-2.99 -0.04,-5.77 0.89,-8.34 0.92,-2.55 2.67,-5.34 5.26,-8.34l-27.09 2.98 -1.58 -14.29 74.72 -8.23zm-24.69 16.98c-6.11,0.67 -10.48,2.37 -13.14,5.1 -2.64,2.73 -3.78,5.82 -3.39,9.27 0.36,3.32 2,5.94 4.93,7.85 2.92,1.92 7.42,2.53 13.53,1.86 5.7,-0.63 9.8,-2.23 12.32,-4.81 2.51,-2.57 3.58,-5.54 3.21,-8.89 -0.39,-3.5 -2.06,-6.25 -5.03,-8.25 -2.97,-2.01 -7.11,-2.72 -12.43,-2.13zm3.97 56.62c4.67,1.08 8.93,3.26 12.77,6.57 3.85,3.31 6.42,7.33 7.76,12.07 1.33,4.74 1.41,9.7 0.21,14.9 -1.85,8.03 -5.97,13.99 -12.37,17.93 -6.42,3.92 -13.59,4.96 -21.57,3.13 -8.05,-1.86 -14.12,-5.98 -18.21,-12.37 -4.1,-6.4 -5.24,-13.52 -3.43,-21.38 1.12,-4.86 3.3,-9.24 6.51,-13.15 3.22,-3.9 7.21,-6.51 12.01,-7.83 4.77,-1.33 10.22,-1.28 16.32,0.13zm-4.07 14.25c-5.27,-1.21 -9.6,-0.9 -12.97,0.95 -3.39,1.86 -5.49,4.61 -6.34,8.27 -0.84,3.65 -0.14,7.04 2.1,10.16 2.23,3.12 6.02,5.3 11.35,6.53 5.2,1.2 9.5,0.88 12.86,-0.95 3.39,-1.83 5.49,-4.57 6.33,-8.22 0.84,-3.67 0.15,-7.06 -2.08,-10.22 -2.23,-3.13 -5.98,-5.3 -11.25,-6.52zm6.33 71.18l-7.18 12.46 -19.28 -11.11c-0.96,2.22 -1.17,4.06 -0.64,5.52 0.55,1.44 2.2,3.78 4.99,7.01 3.73,4.29 5.68,7.73 5.88,10.39 0.21,2.65 -0.57,5.51 -2.35,8.61 -0.55,0.95 -1.57,2.55 -3.07,4.81l-8.26 -4.7c1.9,-3.31 2.81,-5.59 2.72,-6.86 -0.12,-1.3 -1.49,-3.41 -4.1,-6.34 -3.5,-3.95 -4.97,-7.61 -4.4,-10.91 -3.36,3.31 -8.73,4.66 -16.07,4.06 -0.39,-0.03 -0.79,-0.04 -1.22,-0.05l-17.03 -0.53 7.73 -13.41 17.27 1.67c3.5,0.32 5.91,0.23 7.24,-0.25 1.32,-0.47 2.52,-1.64 3.57,-3.47l-20.19 -11.64 7.18 -12.46 47.21 27.2zm-38.42 57.66l-10.19 9.4 -23.21 -25.18 6.93 40.19 -10.42 9.61 -36.93 -40.06 10.18 -9.39 23.55 25.53 -7.03 -40.76 10.19 -9.4 36.93 40.06z"/>
   <polygon class="fil2" points="764,339.93 670.14,277.68 576.27,215.43 576.27,339.93 576.27,464.42 670.14,402.18 "/>
  </g>
 </g>
</svg>
