<?xml version="1.0" standalone="no"?>
<!DOCTYPE svg PUBLIC "-//W3C//DTD SVG 20010904//EN"
 "http://www.w3.org/TR/2001/REC-SVG-20010904/DTD/svg10.dtd">
<svg version="1.0" xmlns="http://www.w3.org/2000/svg"
 width="500.000000pt" height="500.000000pt" viewBox="0 0 500.000000 500.000000"
 preserveAspectRatio="xMidYMid meet">
<metadata>
Created by potrace 1.11, written by Peter Selinger 2001-2013
</metadata>
<g transform="translate(0.000000,500.000000) scale(0.100000,-0.100000)"
fill="#000000" stroke="none">
<path d="M668 4350 c-76 -23 -144 -94 -167 -175 -9 -30 -11 -466 -9 -1695 l3
-1655 22 -41 c26 -49 73 -98 117 -122 43 -23 160 -23 203 1 47 25 102 84 124
131 18 39 19 88 19 1069 l0 1027 243 0 244 0 -9 -62 c-5 -35 -7 -99 -4 -143 9
-145 -6 -211 -83 -374 -114 -238 -222 -507 -228 -565 -6 -59 8 -120 63 -263
67 -175 173 -302 308 -368 63 -32 87 -38 154 -41 43 -2 91 -8 106 -14 40 -15
44 -12 16 10 -22 16 -23 20 -8 25 10 4 33 2 53 -5 20 -7 49 -8 68 -4 19 4 26
9 17 12 -8 2 -30 11 -49 18 -49 20 -26 44 43 44 68 0 92 15 40 24 -52 9 -79
26 -43 26 38 0 89 11 89 19 0 4 -18 11 -41 17 -22 5 -41 14 -41 19 0 6 19 17
42 26 l41 15 -38 15 c-34 14 -40 22 -57 74 -11 37 -31 72 -52 93 -19 19 -34
35 -34 37 0 2 24 20 53 41 74 53 173 151 209 208 18 27 44 83 59 125 l26 75
15 -29 c20 -40 45 -120 53 -171 4 -24 -3 -119 -16 -220 -31 -260 -24 -339 56
-598 l27 -88 -39 -32 c-60 -49 -94 -88 -114 -131 -24 -51 -24 -67 0 -96 17
-22 29 -24 157 -31 489 -25 510 -24 579 27 40 30 81 107 100 187 8 37 32 94
54 129 144 239 204 440 234 793 2 28 3 28 81 -48 173 -169 343 -403 453 -623
61 -122 66 -147 49 -244 -7 -41 -6 -49 13 -68 22 -22 27 -22 269 -19 173 3
254 8 270 16 35 20 30 85 -12 166 -34 64 -34 67 -51 293 -31 434 -69 760 -121
1040 -21 118 -46 219 -129 533 -13 47 -26 105 -30 130 l-6 45 63 32 c171 88
297 243 360 443 19 64 23 96 23 215 0 119 -4 151 -23 215 -66 209 -199 366
-387 456 -139 67 -45 64 -1805 63 -877 0 -1607 -4 -1622 -9z m2103 -276 c63
-18 163 -71 227 -120 26 -20 74 -42 116 -54 390 -111 634 -304 797 -630 63
-126 86 -199 173 -554 91 -366 112 -465 151 -706 38 -241 87 -725 71 -710 -3
3 -17 98 -31 210 -51 405 -132 812 -225 1115 -16 55 -37 147 -45 205 -47 319
-156 551 -342 731 -109 105 -255 199 -405 259 -137 54 -153 46 -33 -17 146
-76 226 -135 314 -229 156 -167 226 -402 201 -670 -12 -128 -51 -295 -103
-434 -36 -97 -49 -105 -22 -14 23 77 55 237 70 354 43 315 -16 519 -210 725
l-56 60 40 -75 c85 -161 129 -357 138 -605 8 -254 -30 -486 -117 -710 -36 -90
-138 -280 -147 -272 -1 2 15 51 36 108 104 275 151 522 151 799 0 366 -110
674 -320 893 -92 97 -252 226 -340 275 -201 112 -383 66 -510 -128 -12 -19
-41 -52 -64 -73 l-41 -38 45 5 c271 32 453 4 632 -99 l77 -45 43 16 c24 8 65
19 91 24 144 28 184 -95 107 -329 l-31 -94 22 -51 c49 -114 32 -261 -44 -379
-35 -54 -41 -59 -48 -42 -13 33 -10 84 11 205 11 63 20 136 20 162 0 26 15 91
35 151 55 164 45 276 -26 313 -46 23 -143 20 -262 -9 l-97 -24 -79 27 c-117
41 -208 54 -336 46 l-111 -7 -64 48 c-60 45 -68 48 -137 51 -117 6 -144 -24
-164 -181 -8 -64 -21 -103 -56 -174 l-46 -92 5 -98 5 -98 -33 39 -33 38 -7
-27 c-4 -15 -4 -78 -1 -139 6 -98 5 -109 -8 -92 -22 29 -53 134 -61 203 -6 62
-7 62 -24 40 -29 -37 -89 -162 -116 -244 -23 -67 -27 -103 -34 -253 -7 -172
-7 -177 -43 -263 -48 -113 -153 -349 -224 -500 -52 -111 -55 -123 -50 -176 5
-60 63 -266 96 -344 36 -83 11 -50 -34 46 -55 117 -95 253 -95 326 0 48 9 73
56 171 82 167 213 466 235 533 16 48 19 89 19 226 0 143 3 177 21 232 25 78
65 151 132 244 149 205 257 357 265 372 5 10 12 46 15 81 13 127 59 171 165
157 31 -4 64 -7 73 -7 30 1 150 94 188 146 56 75 134 142 194 165 64 25 163
27 238 5z m-561 -248 c0 -2 -12 -12 -27 -22 -22 -14 -44 -17 -105 -15 -93 3
-129 -13 -158 -68 -10 -21 -22 -70 -26 -107 -6 -61 -13 -76 -53 -131 l-46 -62
-407 -1 -408 0 0 205 0 205 615 0 c338 0 615 -2 615 -4z m1711 -19 c66 -35
102 -93 107 -171 3 -49 0 -71 -17 -103 -25 -51 -70 -89 -122 -104 -37 -12 -41
-11 -57 12 -39 56 -163 188 -223 236 -35 29 -102 75 -148 103 l-85 50 251 0
c242 0 251 -1 294 -23z m-1062 -369 c84 -41 199 -174 216 -253 4 -18 -5 -6
-23 30 -45 93 -119 167 -215 216 -81 41 -62 47 22 7z m-864 -358 c-25 -92 -21
-98 29 -52 68 63 99 74 45 15 -71 -76 -84 -106 -83 -193 1 -59 8 -93 33 -159
17 -46 29 -86 27 -89 -8 -7 -64 87 -88 148 -25 63 -29 175 -8 250 13 51 51
142 56 137 2 -1 -3 -27 -11 -57z m1065 -70 c16 -58 12 -145 -11 -205 -26 -69
-101 -182 -169 -255 -28 -30 -43 -41 -32 -25 91 139 122 223 122 327 0 56 -6
85 -25 126 -23 50 -23 52 -4 41 11 -6 38 -37 59 -70 27 -43 40 -55 44 -43 10
25 7 66 -8 124 -12 48 -12 52 0 35 8 -10 19 -35 24 -55z m-370 -495 l0 -60 21
34 c11 18 22 31 25 28 6 -6 -27 -150 -52 -229 -17 -52 -71 -108 -105 -108 -19
0 -18 3 11 37 50 56 57 86 65 258 7 144 9 157 21 130 7 -16 13 -57 14 -90z
m-362 -192 c-2 -39 3 -48 43 -90 37 -39 39 -44 14 -28 -99 61 -95 56 -94 110
0 28 -6 70 -15 94 -23 62 -20 62 19 6 29 -40 35 -57 33 -92z m54 28 c-3 -36
-7 -49 -13 -40 -12 19 -11 56 2 81 14 27 16 22 11 -41z m89 -892 c-21 -85 -44
-194 -50 -244 -6 -49 -13 -101 -15 -115 -2 -14 -4 25 -4 85 -1 61 3 130 8 155
11 51 92 281 97 276 2 -1 -15 -72 -36 -157z"/>
</g>
</svg>
