<svg id="Слой_1" data-name="Слой 1" xmlns="http://www.w3.org/2000/svg" viewBox="0 0 368.8 379.54"><title>fill-text-03</title><path d="M105.23,6.84h2.4l-1.74,5.62L107.63,18h-2.4l-1.72-5.54Zm4.27,0h2.41l-1.75,5.62L111.9,18h-2.4l-1.73-5.54Z" transform="translate(-12.9 -2.54)"/><path d="M126.47,5.57l-1.84,1.91a5.55,5.55,0,0,0-4.24-2.16A4.4,4.4,0,0,0,117,6.79a5.22,5.22,0,0,0-1.36,3.65,5.69,5.69,0,0,0,.61,2.68A4.48,4.48,0,0,0,118,15a4.86,4.86,0,0,0,4.55.2,7.6,7.6,0,0,0,2.09-1.69l1.79,2a10,10,0,0,1-2.91,2.26,7.35,7.35,0,0,1-3.11.63,6.89,6.89,0,0,1-5.3-2.23A8.11,8.11,0,0,1,113,10.43a8.45,8.45,0,0,1,.94-4,7.28,7.28,0,0,1,2.69-2.82,7.08,7.08,0,0,1,3.76-1.06,7.3,7.3,0,0,1,3.31.79A7.91,7.91,0,0,1,126.47,5.57Z" transform="translate(-12.9 -2.54)"/><path d="M138.77,13.23h-8.26a3.09,3.09,0,0,0,1,1.89,2.85,2.85,0,0,0,2,.71,3.3,3.3,0,0,0,2.48-1.1l2.16,1.11a5.25,5.25,0,0,1-1.94,1.85,5.64,5.64,0,0,1-2.68.6,5.06,5.06,0,0,1-3.93-1.66A5.92,5.92,0,0,1,128,12.48a6.12,6.12,0,0,1,1.51-4.24,4.91,4.91,0,0,1,3.8-1.68,5.08,5.08,0,0,1,3.94,1.68,6.43,6.43,0,0,1,1.51,4.46ZM136.2,11a2.78,2.78,0,0,0-1-1.52,2.74,2.74,0,0,0-1.74-.58,2.93,2.93,0,0,0-1.89.65,3.77,3.77,0,0,0-.94,1.45Z" transform="translate(-12.9 -2.54)"/><path d="M143.41,6.84V8.07a4.94,4.94,0,0,1,1.51-1.13,3.94,3.94,0,0,1,1.73-.38,4.31,4.31,0,0,1,3.41,1.65,6.28,6.28,0,0,1,1.41,4.23A6.19,6.19,0,0,1,150,16.61a4.42,4.42,0,0,1-3.44,1.68,4,4,0,0,1-1.65-.35,5,5,0,0,1-1.52-1.12v5.26h-2.55V6.84Zm2.71,2.3a2.57,2.57,0,0,0-2,.9,3.39,3.39,0,0,0-.8,2.36,3.53,3.53,0,0,0,.8,2.41,2.63,2.63,0,0,0,4,0,3.49,3.49,0,0,0,.81-2.38,3.45,3.45,0,0,0-.8-2.35A2.51,2.51,0,0,0,146.12,9.14Z" transform="translate(-12.9 -2.54)"/><path d="M154.93,18v1.94h-2.29V15.63h1.54l3.54-8.79h1.66L163,15.63h1.57v4.31h-2.45V18Zm5.31-2.37-1.69-4.7-1.74,4.7Z" transform="translate(-12.9 -2.54)"/><path d="M166.15,18V6.84h2.58v8.47h3.84V6.84h2.57v8.47h2.61V20H175.3V18Z" transform="translate(-12.9 -2.54)"/><path d="M189.44,13.23h-8.26a3,3,0,0,0,.95,1.89,2.85,2.85,0,0,0,2,.71,3.32,3.32,0,0,0,2.48-1.1l2.16,1.11a5.25,5.25,0,0,1-1.94,1.85,5.64,5.64,0,0,1-2.68.6,5.06,5.06,0,0,1-3.93-1.66,5.87,5.87,0,0,1-1.52-4.15,6.12,6.12,0,0,1,1.51-4.24A4.89,4.89,0,0,1,184,6.56a5.05,5.05,0,0,1,3.94,1.68,6.39,6.39,0,0,1,1.52,4.46ZM186.87,11a2.84,2.84,0,0,0-1-1.52,2.74,2.74,0,0,0-1.74-.58,2.89,2.89,0,0,0-1.89.65,3.66,3.66,0,0,0-.94,1.45Z" transform="translate(-12.9 -2.54)"/><path d="M195.51,13.19V10.71h9.88v2.48Z" transform="translate(-12.9 -2.54)"/><path d="M222,9.1l-2.14,1.28a3.65,3.65,0,0,0-1.19-1,3.3,3.3,0,0,0-1.38-.27,3.05,3.05,0,0,0-2.34.94,3.34,3.34,0,0,0-.89,2.4,3.19,3.19,0,0,0,.86,2.32,3,3,0,0,0,2.25.9,3.16,3.16,0,0,0,2.69-1.28l2,1.51a5.89,5.89,0,0,1-8.89.59,6,6,0,0,1-1.53-4.08,6.07,6.07,0,0,1,.74-3,5.49,5.49,0,0,1,2.08-2.14,5.79,5.79,0,0,1,3-.78,5.7,5.7,0,0,1,2.75.66A5.32,5.32,0,0,1,222,9.1Z" transform="translate(-12.9 -2.54)"/><path d="M229.15,6.56a5.06,5.06,0,0,1,2.73.79,5.47,5.47,0,0,1,2,2.14,6.13,6.13,0,0,1,.72,2.92,6.25,6.25,0,0,1-.72,2.95,5.4,5.4,0,0,1-2,2.15,5.05,5.05,0,0,1-2.74.78,4.93,4.93,0,0,1-3.77-1.71,5.93,5.93,0,0,1-1.56-4.15,5.89,5.89,0,0,1,1.77-4.36A4.92,4.92,0,0,1,229.15,6.56Zm0,2.63a2.55,2.55,0,0,0-2,.91,3.38,3.38,0,0,0-.79,2.32,3.44,3.44,0,0,0,.79,2.36,2.66,2.66,0,0,0,4,0,3.41,3.41,0,0,0,.81-2.35,3.42,3.42,0,0,0-.79-2.33A2.57,2.57,0,0,0,229.19,9.19Z" transform="translate(-12.9 -2.54)"/><path d="M245.85,18h-2.62l-2.56-7-2.62,7h-2.61l4.38-11.16h1.65Z" transform="translate(-12.9 -2.54)"/><path d="M249.77,10.86h3.85v-4h2.57V18h-2.57V13.38h-3.85V18H247.2V6.84h2.57Z" transform="translate(-12.9 -2.54)"/><path d="M258.78,18V6.84h2.57v8.47h3.85V6.84h2.57v8.47h2.61V20h-2.45V18Z" transform="translate(-12.9 -2.54)"/><path d="M282.07,13.23H273.8a3.05,3.05,0,0,0,1,1.89,2.85,2.85,0,0,0,2,.71,3.28,3.28,0,0,0,2.47-1.1l2.17,1.11a5.33,5.33,0,0,1-1.94,1.85,5.65,5.65,0,0,1-2.69.6,5.08,5.08,0,0,1-3.93-1.66,5.91,5.91,0,0,1-1.51-4.15,6.12,6.12,0,0,1,1.51-4.24,4.89,4.89,0,0,1,3.79-1.68,5.05,5.05,0,0,1,3.94,1.68,6.43,6.43,0,0,1,1.52,4.46ZM279.5,11a2.84,2.84,0,0,0-1-1.52,2.74,2.74,0,0,0-1.74-.58,2.89,2.89,0,0,0-1.89.65,3.66,3.66,0,0,0-.94,1.45Z" transform="translate(-12.9 -2.54)"/><path d="M285.49,18H283.1l1.72-5.62-1.75-5.54h2.42l1.72,5.54Zm4.26,0h-2.39l1.74-5.62-1.75-5.54h2.4l1.73,5.54Z" transform="translate(-12.9 -2.54)"/><path d="M103.27,20.87V19H291.73v1.89Z" transform="translate(-12.9 -2.54)"/><path d="M123.77,38l-1.84,1.91a5.55,5.55,0,0,0-4.24-2.16,4.4,4.4,0,0,0-3.35,1.47A5.22,5.22,0,0,0,113,42.84a5.81,5.81,0,0,0,.6,2.68,4.63,4.63,0,0,0,4.16,2.5,4.62,4.62,0,0,0,2.1-.47,7.6,7.6,0,0,0,2.09-1.69l1.79,2a10,10,0,0,1-2.91,2.26,7.37,7.37,0,0,1-3.12.63,6.88,6.88,0,0,1-5.29-2.23,8.11,8.11,0,0,1-2.06-5.72,8.45,8.45,0,0,1,.94-4A7.28,7.28,0,0,1,114,36a7.08,7.08,0,0,1,3.76-1.06,7.3,7.3,0,0,1,3.31.79A7.91,7.91,0,0,1,123.77,38Z" transform="translate(-12.9 -2.54)"/><path d="M136.07,45.63h-8.26a3.09,3.09,0,0,0,.95,1.89,2.85,2.85,0,0,0,2,.71,3.3,3.3,0,0,0,2.48-1.1l2.17,1.11a5.35,5.35,0,0,1-2,1.85,5.64,5.64,0,0,1-2.68.6A5.06,5.06,0,0,1,126.84,49a5.92,5.92,0,0,1-1.52-4.15,6.12,6.12,0,0,1,1.51-4.24,4.91,4.91,0,0,1,3.8-1.68,5.08,5.08,0,0,1,3.94,1.68,6.43,6.43,0,0,1,1.51,4.46Zm-2.57-2.2a2.79,2.79,0,0,0-2.75-2.1,2.89,2.89,0,0,0-1.88.65,3.66,3.66,0,0,0-1,1.45Z" transform="translate(-12.9 -2.54)"/><path d="M140.71,39.24v1.23a4.94,4.94,0,0,1,1.51-1.13A3.94,3.94,0,0,1,144,39a4.31,4.31,0,0,1,3.41,1.65,6.28,6.28,0,0,1,1.41,4.23A6.14,6.14,0,0,1,147.32,49a4.42,4.42,0,0,1-3.44,1.68,4,4,0,0,1-1.65-.35,5,5,0,0,1-1.52-1.12v5.26h-2.55V39.24Zm2.71,2.3a2.57,2.57,0,0,0-2,.9,3.39,3.39,0,0,0-.8,2.36,3.53,3.53,0,0,0,.8,2.41,2.63,2.63,0,0,0,4,0,3.49,3.49,0,0,0,.81-2.38,3.45,3.45,0,0,0-.8-2.35A2.51,2.51,0,0,0,143.42,41.54Z" transform="translate(-12.9 -2.54)"/><path d="M152.23,50.4v1.94h-2.29V48h1.54L155,39.24h1.66L160.27,48h1.57v4.31h-2.45V50.4ZM157.54,48l-1.69-4.7L154.11,48Z" transform="translate(-12.9 -2.54)"/><path d="M163.45,50.4V39.24H166v8.47h3.84V39.24h2.57v8.47h2.61v4.65H172.6v-2Z" transform="translate(-12.9 -2.54)"/><path d="M186.74,45.63h-8.26a3,3,0,0,0,1,1.89,2.85,2.85,0,0,0,2,.71,3.32,3.32,0,0,0,2.48-1.1l2.16,1.11a5.25,5.25,0,0,1-1.94,1.85,5.64,5.64,0,0,1-2.68.6A5.06,5.06,0,0,1,177.51,49,5.87,5.87,0,0,1,176,44.88a6.12,6.12,0,0,1,1.51-4.24A4.89,4.89,0,0,1,181.29,39a5.05,5.05,0,0,1,3.94,1.68,6.39,6.39,0,0,1,1.52,4.46Zm-2.57-2.2a2.84,2.84,0,0,0-1-1.52,2.74,2.74,0,0,0-1.74-.58,2.89,2.89,0,0,0-1.89.65,3.66,3.66,0,0,0-.94,1.45Z" transform="translate(-12.9 -2.54)"/><path d="M192.81,45.59V43.11h9.88v2.48Z" transform="translate(-12.9 -2.54)"/><path d="M219.31,41.5l-2.14,1.28a3.65,3.65,0,0,0-1.19-1,3.33,3.33,0,0,0-1.38-.27,3.05,3.05,0,0,0-2.34.94,3.34,3.34,0,0,0-.89,2.4,3.19,3.19,0,0,0,.86,2.32,3,3,0,0,0,2.25.9,3.16,3.16,0,0,0,2.69-1.28l2,1.51a5.89,5.89,0,0,1-8.89.59,6,6,0,0,1-1.53-4.08,6.07,6.07,0,0,1,.74-3,5.49,5.49,0,0,1,2.08-2.14,5.79,5.79,0,0,1,3-.78,5.7,5.7,0,0,1,2.75.66A5.32,5.32,0,0,1,219.31,41.5Z" transform="translate(-12.9 -2.54)"/><path d="M226.45,39a5.06,5.06,0,0,1,2.73.79,5.47,5.47,0,0,1,2,2.14,6.13,6.13,0,0,1,.72,2.92,6.25,6.25,0,0,1-.72,2.95,5.4,5.4,0,0,1-2,2.15,5.05,5.05,0,0,1-2.74.78A4.93,4.93,0,0,1,222.69,49a6.28,6.28,0,0,1,.21-8.51A4.92,4.92,0,0,1,226.45,39Zm0,2.63a2.55,2.55,0,0,0-2,.91,3.38,3.38,0,0,0-.79,2.32,3.44,3.44,0,0,0,.79,2.36,2.66,2.66,0,0,0,4,0,3.86,3.86,0,0,0,0-4.68A2.57,2.57,0,0,0,226.49,41.59Z" transform="translate(-12.9 -2.54)"/><path d="M243.15,50.4h-2.62l-2.56-7-2.62,7h-2.61l4.38-11.16h1.65Z" transform="translate(-12.9 -2.54)"/><path d="M247.07,43.26h3.85v-4h2.57V50.4h-2.57V45.78h-3.85V50.4H244.5V39.24h2.57Z" transform="translate(-12.9 -2.54)"/><path d="M256.08,50.4V39.24h2.57v8.47h3.85V39.24h2.57v8.47h2.61v4.65h-2.45v-2Z" transform="translate(-12.9 -2.54)"/><path d="M279.37,45.63H271.1a3.05,3.05,0,0,0,1,1.89,2.84,2.84,0,0,0,2,.71,3.29,3.29,0,0,0,2.48-1.1l2.17,1.11a5.33,5.33,0,0,1-1.94,1.85,5.65,5.65,0,0,1-2.69.6A5.08,5.08,0,0,1,270.13,49a5.91,5.91,0,0,1-1.51-4.15,6.12,6.12,0,0,1,1.51-4.24A4.89,4.89,0,0,1,273.92,39a5.05,5.05,0,0,1,3.94,1.68,6.43,6.43,0,0,1,1.52,4.46Zm-2.57-2.2a2.84,2.84,0,0,0-1-1.52,2.74,2.74,0,0,0-1.74-.58,2.89,2.89,0,0,0-1.89.65,3.66,3.66,0,0,0-.94,1.45Z" transform="translate(-12.9 -2.54)"/><path d="M282.86,47.48a1.38,1.38,0,0,1,1,.46,1.63,1.63,0,0,1,.44,1.14,1.65,1.65,0,0,1-.44,1.14,1.4,1.4,0,0,1-2.09,0,1.64,1.64,0,0,1-.43-1.14,1.62,1.62,0,0,1,.43-1.14A1.38,1.38,0,0,1,282.86,47.48Z" transform="translate(-12.9 -2.54)"/><path d="M26.33,63.17l-1.85,1.91a5.55,5.55,0,0,0-4.24-2.16,4.4,4.4,0,0,0-3.35,1.47A5.22,5.22,0,0,0,15.53,68a5.69,5.69,0,0,0,.61,2.68,4.48,4.48,0,0,0,1.7,1.83,4.86,4.86,0,0,0,4.55.2,7.6,7.6,0,0,0,2.09-1.69l1.79,2a10.06,10.06,0,0,1-2.9,2.26,7.4,7.4,0,0,1-3.12.63A6.89,6.89,0,0,1,15,73.75a8.11,8.11,0,0,1-2-5.72,8.44,8.44,0,0,1,.93-4,7.28,7.28,0,0,1,2.69-2.82,7.08,7.08,0,0,1,3.76-1.06,7.3,7.3,0,0,1,3.31.79A8,8,0,0,1,26.33,63.17Z" transform="translate(-12.9 -2.54)"/><path d="M33.17,64.16A5.09,5.09,0,0,1,35.9,65a5.47,5.47,0,0,1,2,2.14A6.13,6.13,0,0,1,38.61,70,6.25,6.25,0,0,1,37.89,73a5.47,5.47,0,0,1-2,2.15,5.05,5.05,0,0,1-2.74.78,4.93,4.93,0,0,1-3.77-1.71,6.29,6.29,0,0,1,.2-8.51A5,5,0,0,1,33.17,64.16Zm0,2.63a2.55,2.55,0,0,0-2,.91A3.38,3.38,0,0,0,30.42,70a3.48,3.48,0,0,0,.78,2.36,2.67,2.67,0,0,0,4,0,3.86,3.86,0,0,0,0-4.68A2.57,2.57,0,0,0,33.21,66.79Z" transform="translate(-12.9 -2.54)"/><path d="M49.87,75.6H47.25l-2.56-7-2.62,7H39.46l4.37-11.16h1.66Z" transform="translate(-12.9 -2.54)"/><path d="M53.79,68.46h3.84v-4h2.58V75.6H57.63V71H53.79V75.6H51.22V64.44h2.57Z" transform="translate(-12.9 -2.54)"/><path d="M62.8,75.6V64.44h2.57v8.47h3.85V64.44h2.57v8.47H74.4v4.65H72v-2Z" transform="translate(-12.9 -2.54)"/><path d="M86.09,70.83H77.82a3,3,0,0,0,1,1.89,2.84,2.84,0,0,0,2,.71,3.3,3.3,0,0,0,2.48-1.1l2.17,1.11a5.33,5.33,0,0,1-1.94,1.85,5.68,5.68,0,0,1-2.69.6,5.06,5.06,0,0,1-3.93-1.66,5.92,5.92,0,0,1-1.52-4.15,6.12,6.12,0,0,1,1.52-4.24,4.89,4.89,0,0,1,3.79-1.68,5.05,5.05,0,0,1,3.94,1.68A6.43,6.43,0,0,1,86.1,70.3Zm-2.57-2.2a2.84,2.84,0,0,0-1-1.52,2.74,2.74,0,0,0-1.74-.58,2.89,2.89,0,0,0-1.89.65,3.74,3.74,0,0,0-.94,1.45Z" transform="translate(-12.9 -2.54)"/><path d="M92.16,70.79V68.31H102v2.48Z" transform="translate(-12.9 -2.54)"/><path d="M115.83,71.19h-3.44V68.76h3.44a3.06,3.06,0,0,0-3-2A3.6,3.6,0,0,0,110.17,68L108,66.7a5.71,5.71,0,0,1,4.73-2.54,5.56,5.56,0,0,1,4.17,1.67,5.79,5.79,0,0,1,1.64,4.23A5.87,5.87,0,0,1,117,74.21a5.48,5.48,0,0,1-4.21,1.68,5.68,5.68,0,0,1-4.65-2.33l2-1.51a3.13,3.13,0,0,0,2.71,1.33A3,3,0,0,0,115.83,71.19Z" transform="translate(-12.9 -2.54)"/><path d="M119.75,64.44h9.56v2.67H125.9V75.6h-2.57V67.11h-3.58Z" transform="translate(-12.9 -2.54)"/><path d="M135.81,64.16a5.06,5.06,0,0,1,2.73.79,5.5,5.5,0,0,1,2,2.14,6.38,6.38,0,0,1,0,5.87,5.37,5.37,0,0,1-2,2.15,5.08,5.08,0,0,1-2.75.78,4.91,4.91,0,0,1-3.76-1.71,6.29,6.29,0,0,1,.2-8.51A4.93,4.93,0,0,1,135.81,64.16Zm.05,2.63a2.54,2.54,0,0,0-2,.91,3.39,3.39,0,0,0-.8,2.32,3.44,3.44,0,0,0,.79,2.36,2.55,2.55,0,0,0,2,.9,2.57,2.57,0,0,0,2-.91,3.45,3.45,0,0,0,.8-2.35,3.37,3.37,0,0,0-.79-2.33A2.55,2.55,0,0,0,135.86,66.79Z" transform="translate(-12.9 -2.54)"/><path d="M158.79,66.7,156.65,68a3.65,3.65,0,0,0-1.19-1,3.35,3.35,0,0,0-1.39-.27,3,3,0,0,0-2.33.94,3.3,3.3,0,0,0-.89,2.4,3.19,3.19,0,0,0,.86,2.32,3,3,0,0,0,2.25.9A3.16,3.16,0,0,0,156.65,72l2,1.51a5.89,5.89,0,0,1-8.89.59,6,6,0,0,1-1.54-4.08,6.08,6.08,0,0,1,.75-3,5.49,5.49,0,0,1,2.08-2.14,5.79,5.79,0,0,1,3-.78,5.64,5.64,0,0,1,2.74.66A5.35,5.35,0,0,1,158.79,66.7Z" transform="translate(-12.9 -2.54)"/><path d="M171.38,70.83h-8.26a3.06,3.06,0,0,0,.95,1.89,2.85,2.85,0,0,0,2,.71,3.3,3.3,0,0,0,2.48-1.1l2.17,1.11a5.35,5.35,0,0,1-2,1.85,5.64,5.64,0,0,1-2.68.6,5.06,5.06,0,0,1-3.93-1.66,5.92,5.92,0,0,1-1.52-4.15,6.12,6.12,0,0,1,1.51-4.24,4.91,4.91,0,0,1,3.8-1.68,5.08,5.08,0,0,1,3.94,1.68,6.43,6.43,0,0,1,1.51,4.46Zm-2.57-2.2a2.79,2.79,0,0,0-2.75-2.1,2.89,2.89,0,0,0-1.88.65,3.74,3.74,0,0,0-1,1.45Z" transform="translate(-12.9 -2.54)"/><path d="M176,64.44v1.23a4.94,4.94,0,0,1,1.51-1.13,3.94,3.94,0,0,1,1.73-.38,4.31,4.31,0,0,1,3.41,1.65A6.28,6.28,0,0,1,184.08,70a6.14,6.14,0,0,1-1.45,4.17,4.42,4.42,0,0,1-3.44,1.68,4,4,0,0,1-1.65-.35A5,5,0,0,1,176,74.42v5.26h-2.55V64.44Zm2.71,2.3a2.59,2.59,0,0,0-2,.9,3.39,3.39,0,0,0-.8,2.36,3.53,3.53,0,0,0,.8,2.41,2.56,2.56,0,0,0,2,.91,2.53,2.53,0,0,0,2-.93,3.49,3.49,0,0,0,.81-2.38,3.45,3.45,0,0,0-.8-2.35A2.51,2.51,0,0,0,178.73,66.74Z" transform="translate(-12.9 -2.54)"/><path d="M187.54,75.6v1.94h-2.29V73.23h1.54l3.54-8.79H192l3.59,8.79h1.57v4.31H194.7V75.6Zm5.31-2.37-1.69-4.7-1.74,4.7Z" transform="translate(-12.9 -2.54)"/><path d="M198.76,75.6V64.44h2.58v8.47h3.84V64.44h2.57v8.47h2.62v4.65h-2.46v-2Z" transform="translate(-12.9 -2.54)"/><path d="M222.05,70.83h-8.26a3,3,0,0,0,1,1.89,2.85,2.85,0,0,0,2,.71,3.32,3.32,0,0,0,2.48-1.1l2.16,1.11a5.25,5.25,0,0,1-1.94,1.85,5.64,5.64,0,0,1-2.68.6,5.1,5.1,0,0,1-3.94-1.66,5.91,5.91,0,0,1-1.51-4.15,6.12,6.12,0,0,1,1.51-4.24,4.89,4.89,0,0,1,3.79-1.68,5.05,5.05,0,0,1,3.94,1.68,6.43,6.43,0,0,1,1.52,4.46Zm-2.57-2.2a2.84,2.84,0,0,0-1-1.52,2.74,2.74,0,0,0-1.74-.58,2.89,2.89,0,0,0-1.89.65,3.74,3.74,0,0,0-.94,1.45Z" transform="translate(-12.9 -2.54)"/><path d="M229.53,64.44h6v2.67H232.1V75.6h-2.57Z" transform="translate(-12.9 -2.54)"/><path d="M244.82,64.44h2.57V75.6h-2.57V74.42a5,5,0,0,1-1.51,1.12,3.89,3.89,0,0,1-1.64.35,4.41,4.41,0,0,1-3.44-1.68A6.19,6.19,0,0,1,236.78,70a6.28,6.28,0,0,1,1.41-4.23,4.31,4.31,0,0,1,3.4-1.65,4,4,0,0,1,1.74.38,4.87,4.87,0,0,1,1.49,1.13Zm-2.7,2.3a2.53,2.53,0,0,0-2,.92,3.94,3.94,0,0,0,0,4.73,2.5,2.5,0,0,0,2,.93,2.57,2.57,0,0,0,2-.91,3.57,3.57,0,0,0,.79-2.41,3.44,3.44,0,0,0-.79-2.36A2.6,2.6,0,0,0,242.12,66.74Z" transform="translate(-12.9 -2.54)"/><path d="M259.16,75.6h-2.62l-2.57-7-2.61,7h-2.61l4.37-11.16h1.66Z" transform="translate(-12.9 -2.54)"/><path d="M268.08,64.44h2.58V75.6h-2.58V74.42a5,5,0,0,1-1.51,1.12,3.89,3.89,0,0,1-1.64.35,4.41,4.41,0,0,1-3.44-1.68A6.19,6.19,0,0,1,260,70a6.28,6.28,0,0,1,1.41-4.23,4.31,4.31,0,0,1,3.4-1.65,4,4,0,0,1,1.74.38,4.75,4.75,0,0,1,1.49,1.13Zm-2.7,2.3a2.49,2.49,0,0,0-2,.92,3.45,3.45,0,0,0-.79,2.35,3.48,3.48,0,0,0,.8,2.38,2.51,2.51,0,0,0,2,.93,2.54,2.54,0,0,0,2-.91,3.58,3.58,0,0,0,.8-2.41,3.44,3.44,0,0,0-.8-2.36A2.59,2.59,0,0,0,265.38,66.74Z" transform="translate(-12.9 -2.54)"/><path d="M273.26,64.44h2.57v4.18l3.54-4.18h3.14L278,69.88l4.62,5.72h-3.41l-3.06-3.94-.27.35V75.6h-2.57Z" transform="translate(-12.9 -2.54)"/><path d="M282.71,64.44h9.56v2.67h-3.41V75.6h-2.58V67.11h-3.57Z" transform="translate(-12.9 -2.54)"/><path d="M295.31,75.6h-1.37V64.44h2.51V71l5.25-6.56h1.24V75.6h-2.51V69.18Z" transform="translate(-12.9 -2.54)"/><path d="M305.54,64.44h2.57v4.18l3.54-4.18h3.14l-4.56,5.44,4.62,5.72h-3.41l-3.06-3.94-.27.35V75.6h-2.57Z" transform="translate(-12.9 -2.54)"/><path d="M317.26,75.6h-1.37V64.44h2.51V71l5.25-6.56h1.24V75.6h-2.51V69.18Z" transform="translate(-12.9 -2.54)"/><path d="M339.16,71.48l3.15-7H344l2.57,11.16h-2.51l-1.37-6.55-3.06,6.55h-1.05l-3-6.55-1.38,6.55H331.7l2.57-11.16H336Z" transform="translate(-12.9 -2.54)"/><path d="M352.82,64.16a5.06,5.06,0,0,1,2.73.79,5.4,5.4,0,0,1,2,2.14,6.13,6.13,0,0,1,.72,2.92,6.25,6.25,0,0,1-.72,2.95,5.4,5.4,0,0,1-2,2.15,5.05,5.05,0,0,1-2.74.78,4.91,4.91,0,0,1-3.76-1.71,6.29,6.29,0,0,1,.2-8.51A4.92,4.92,0,0,1,352.82,64.16Zm0,2.63a2.52,2.52,0,0,0-2,.91,3.39,3.39,0,0,0-.8,2.32,3.44,3.44,0,0,0,.79,2.36,2.53,2.53,0,0,0,2,.9,2.58,2.58,0,0,0,2-.91,3.45,3.45,0,0,0,.8-2.35,3.37,3.37,0,0,0-.79-2.33A2.57,2.57,0,0,0,352.86,66.79Z" transform="translate(-12.9 -2.54)"/><path d="M370.64,70.83h-8.27a3,3,0,0,0,1,1.89,2.83,2.83,0,0,0,2,.71,3.3,3.3,0,0,0,2.48-1.1L370,73.44A5.33,5.33,0,0,1,368,75.29a5.68,5.68,0,0,1-2.69.6,5.06,5.06,0,0,1-3.93-1.66,5.92,5.92,0,0,1-1.52-4.15,6.16,6.16,0,0,1,1.51-4.24,4.91,4.91,0,0,1,3.8-1.68,5.07,5.07,0,0,1,3.94,1.68,6.43,6.43,0,0,1,1.51,4.46Zm-2.58-2.2a2.82,2.82,0,0,0-1-1.52,2.75,2.75,0,0,0-1.75-.58,2.89,2.89,0,0,0-1.88.65,3.74,3.74,0,0,0-.95,1.45Z" transform="translate(-12.9 -2.54)"/><path d="M374.08,75.6h-1.37V64.44h2.5V71l5.25-6.56h1.24V75.6h-2.51V69.18Zm-.65-16.08h2.09a1.54,1.54,0,0,0,.68.63,2.46,2.46,0,0,0,1.07.21,2.74,2.74,0,0,0,1.16-.24,1.42,1.42,0,0,0,.59-.6h2.09A3.15,3.15,0,0,1,380,61.61a4.12,4.12,0,0,1-2.7.79,4.74,4.74,0,0,1-2-.35A3.14,3.14,0,0,1,374,61,3.42,3.42,0,0,1,373.43,59.52Z" transform="translate(-12.9 -2.54)"/><path d="M109.07,88.37l-1.84,1.91A5.55,5.55,0,0,0,103,88.12a4.38,4.38,0,0,0-3.35,1.47,5.18,5.18,0,0,0-1.36,3.65,5.81,5.81,0,0,0,.6,2.68,4.44,4.44,0,0,0,1.71,1.83,4.84,4.84,0,0,0,4.54.2,7.48,7.48,0,0,0,2.1-1.69l1.78,2a9.93,9.93,0,0,1-2.9,2.26,7.37,7.37,0,0,1-3.12.63A6.87,6.87,0,0,1,97.7,99a8.11,8.11,0,0,1-2.06-5.72,8.33,8.33,0,0,1,.94-4,7.25,7.25,0,0,1,2.68-2.82A7.14,7.14,0,0,1,103,85.34a7.29,7.29,0,0,1,3.3.79A8,8,0,0,1,109.07,88.37Z" transform="translate(-12.9 -2.54)"/><path d="M121.37,96H113.1a3.05,3.05,0,0,0,1,1.89,2.85,2.85,0,0,0,2,.71,3.28,3.28,0,0,0,2.47-1.1l2.17,1.11a5.33,5.33,0,0,1-1.94,1.85,5.65,5.65,0,0,1-2.69.6,5.09,5.09,0,0,1-3.93-1.66,5.91,5.91,0,0,1-1.51-4.15A6.12,6.12,0,0,1,112.13,91a4.89,4.89,0,0,1,3.79-1.68A5.05,5.05,0,0,1,119.86,91a6.43,6.43,0,0,1,1.52,4.46Zm-2.57-2.2a2.84,2.84,0,0,0-1-1.52,2.74,2.74,0,0,0-1.74-.58,2.89,2.89,0,0,0-1.89.65,3.66,3.66,0,0,0-.94,1.45Z" transform="translate(-12.9 -2.54)"/><path d="M126,89.64v1.23a4.82,4.82,0,0,1,1.51-1.13,3.91,3.91,0,0,1,1.73-.38A4.31,4.31,0,0,1,132.66,91a6.28,6.28,0,0,1,1.41,4.23,6.15,6.15,0,0,1-1.46,4.17,4.4,4.4,0,0,1-3.44,1.68,4,4,0,0,1-1.65-.35A5.08,5.08,0,0,1,126,99.62v5.26h-2.56V89.64Zm2.7,2.3a2.57,2.57,0,0,0-2,.9,3.4,3.4,0,0,0-.81,2.36,3.53,3.53,0,0,0,.81,2.41,2.63,2.63,0,0,0,4,0,3.53,3.53,0,0,0,.8-2.38,3.45,3.45,0,0,0-.79-2.35A2.53,2.53,0,0,0,128.71,91.94Z" transform="translate(-12.9 -2.54)"/><path d="M137.52,100.8v1.94h-2.29V98.43h1.55l3.54-8.79H142l3.59,8.79h1.57v4.31h-2.45V100.8Zm5.31-2.37-1.68-4.7-1.74,4.7Z" transform="translate(-12.9 -2.54)"/><path d="M148.75,100.8V89.64h2.57v8.47h3.85V89.64h2.57v8.47h2.61v4.65H157.9v-2Z" transform="translate(-12.9 -2.54)"/><path d="M172,96h-8.27a3.05,3.05,0,0,0,1,1.89,2.84,2.84,0,0,0,2,.71,3.3,3.3,0,0,0,2.48-1.1l2.17,1.11a5.33,5.33,0,0,1-1.94,1.85,5.68,5.68,0,0,1-2.69.6,5.06,5.06,0,0,1-3.93-1.66,5.92,5.92,0,0,1-1.52-4.15A6.12,6.12,0,0,1,162.8,91a4.89,4.89,0,0,1,3.79-1.68A5.05,5.05,0,0,1,170.53,91a6.43,6.43,0,0,1,1.52,4.46Zm-2.57-2.2a2.84,2.84,0,0,0-1-1.52,2.74,2.74,0,0,0-1.74-.58,2.89,2.89,0,0,0-1.89.65,3.66,3.66,0,0,0-.94,1.45Z" transform="translate(-12.9 -2.54)"/><path d="M185.09,96.37H183a5.12,5.12,0,0,1-3.22-.88,3.42,3.42,0,0,1-1.13-2.88v-3h2.58v2.75c0,1,.6,1.47,1.81,1.47h2V89.64h2.58V100.8h-2.58Z" transform="translate(-12.9 -2.54)"/><path d="M200.53,96h-8.27a3.05,3.05,0,0,0,1,1.89,2.84,2.84,0,0,0,2,.71,3.29,3.29,0,0,0,2.48-1.1l2.17,1.11a5.33,5.33,0,0,1-1.94,1.85,5.65,5.65,0,0,1-2.69.6,5.09,5.09,0,0,1-3.93-1.66,5.91,5.91,0,0,1-1.51-4.15A6.12,6.12,0,0,1,191.29,91a4.89,4.89,0,0,1,3.79-1.68A5.05,5.05,0,0,1,199,91a6.43,6.43,0,0,1,1.52,4.46ZM198,93.83a2.84,2.84,0,0,0-1-1.52,2.74,2.74,0,0,0-1.74-.58,2.89,2.89,0,0,0-1.89.65,3.66,3.66,0,0,0-.94,1.45Z" transform="translate(-12.9 -2.54)"/><path d="M211.78,100.8h-2.62l-2.57-7-2.61,7h-2.61l4.37-11.16h1.66Z" transform="translate(-12.9 -2.54)"/><path d="M218,89.36a5.11,5.11,0,0,1,2.73.79,5.47,5.47,0,0,1,2,2.14,6.12,6.12,0,0,1,.71,2.92,6.25,6.25,0,0,1-.72,3,5.37,5.37,0,0,1-2,2.15,5.05,5.05,0,0,1-2.74.78,4.93,4.93,0,0,1-3.77-1.71,6.29,6.29,0,0,1,.2-8.51A4.94,4.94,0,0,1,218,89.36ZM218,92a2.54,2.54,0,0,0-2,.91,3.39,3.39,0,0,0-.8,2.32,3.49,3.49,0,0,0,.79,2.36,2.67,2.67,0,0,0,4,0,3.84,3.84,0,0,0,0-4.68A2.54,2.54,0,0,0,218,92Z" transform="translate(-12.9 -2.54)"/><path d="M225.49,100.8V89.64h4.12a3.48,3.48,0,0,1,2.75.87,3,3,0,0,1,.72,2,2.42,2.42,0,0,1-1.49,2.35,2.84,2.84,0,0,1,2,2.86,3.1,3.1,0,0,1-.54,1.88,2.48,2.48,0,0,1-1.36,1,8.18,8.18,0,0,1-2.3.25ZM228.06,94h1a1.31,1.31,0,0,0,1-.34,1.06,1.06,0,0,0,.35-.77,1.36,1.36,0,0,0-.33-1,1.07,1.07,0,0,0-.79-.35h-1.2Zm0,4.62h1.3a1.28,1.28,0,0,0,1.06-.39,1.18,1.18,0,0,0,.31-.75,1.62,1.62,0,0,0-.35-1,1.47,1.47,0,0,0-1.24-.45h-1.08Z" transform="translate(-12.9 -2.54)"/><path d="M246.09,96h-8.27a3.05,3.05,0,0,0,1,1.89,2.84,2.84,0,0,0,2,.71,3.29,3.29,0,0,0,2.48-1.1l2.17,1.11a5.33,5.33,0,0,1-1.94,1.85,5.68,5.68,0,0,1-2.69.6,5.06,5.06,0,0,1-3.93-1.66,5.91,5.91,0,0,1-1.51-4.15A6.12,6.12,0,0,1,236.85,91a4.89,4.89,0,0,1,3.79-1.68A5.05,5.05,0,0,1,244.58,91a6.43,6.43,0,0,1,1.52,4.46Zm-2.57-2.2a2.84,2.84,0,0,0-1-1.52,2.74,2.74,0,0,0-1.74-.58,2.89,2.89,0,0,0-1.89.65,3.66,3.66,0,0,0-.94,1.45Z" transform="translate(-12.9 -2.54)"/><path d="M253.74,96.37h-2.06a5.13,5.13,0,0,1-3.23-.88,3.42,3.42,0,0,1-1.13-2.88v-3h2.58v2.75c0,1,.6,1.47,1.81,1.47h2V89.64h2.58V100.8h-2.58Z" transform="translate(-12.9 -2.54)"/><path d="M261.47,93.66h.77a8.68,8.68,0,0,1,2.47.27,2.77,2.77,0,0,1,1.46,1.14,3.67,3.67,0,0,1,.6,2.16,4,4,0,0,1-.54,2.15,2.6,2.6,0,0,1-1.37,1.14,7.6,7.6,0,0,1-2.34.28H258.9V89.64h2.57Zm0,5h.79a3.47,3.47,0,0,0,1-.11,1.21,1.21,0,0,0,.78-1.16c0-1-.5-1.44-1.51-1.44h-1.07Z" transform="translate(-12.9 -2.54)"/><path d="M279,96h-8.27a3.05,3.05,0,0,0,1,1.89,2.85,2.85,0,0,0,2,.71,3.28,3.28,0,0,0,2.47-1.1l2.17,1.11a5.33,5.33,0,0,1-1.94,1.85,5.65,5.65,0,0,1-2.69.6,5.08,5.08,0,0,1-3.93-1.66,5.91,5.91,0,0,1-1.51-4.15A6.12,6.12,0,0,1,269.78,91a4.89,4.89,0,0,1,3.79-1.68A5.05,5.05,0,0,1,277.51,91,6.43,6.43,0,0,1,279,95.5Zm-2.57-2.2a2.84,2.84,0,0,0-1-1.52,2.74,2.74,0,0,0-1.74-.58,2.89,2.89,0,0,0-1.89.65,3.66,3.66,0,0,0-.94,1.45Z" transform="translate(-12.9 -2.54)"/><path d="M285.09,96V93.51H295V96Z" transform="translate(-12.9 -2.54)"/><path d="M145.69,110.92V126h-2.64v-9.44L137.88,126h-2.29V110.92h2.64v9.75l5.24-9.75Z" transform="translate(-12.9 -2.54)"/><path d="M150.29,121.27v-2h.51a1.56,1.56,0,0,0,.9-.26,1,1,0,0,0,.39-.86,1.12,1.12,0,0,0-.34-.85,1.18,1.18,0,0,0-.85-.33,3,3,0,0,0-1.58.66l-1-1.92a4.4,4.4,0,0,1,3-1.15,3.67,3.67,0,0,1,2.48.84,2.86,2.86,0,0,1,1,2.28A2.71,2.71,0,0,1,153.3,120a2.79,2.79,0,0,1,1.91,2.78,3.22,3.22,0,0,1-1.07,2.48,4.23,4.23,0,0,1-3,1,4.85,4.85,0,0,1-3.44-1.27l1.42-2a2.84,2.84,0,0,0,1.73.74,1.53,1.53,0,0,0,1.05-.35,1.12,1.12,0,0,0,.39-.88,1.3,1.3,0,0,0-1.36-1.31Z" transform="translate(-12.9 -2.54)"/><path d="M172.94,121.23h-8.27a3.05,3.05,0,0,0,1,1.89,2.84,2.84,0,0,0,2,.71,3.29,3.29,0,0,0,2.48-1.1l2.17,1.11a5.33,5.33,0,0,1-1.94,1.85,5.68,5.68,0,0,1-2.69.6,5.06,5.06,0,0,1-3.93-1.66,5.91,5.91,0,0,1-1.51-4.15,6.12,6.12,0,0,1,1.51-4.24,4.89,4.89,0,0,1,3.79-1.68,5.05,5.05,0,0,1,3.94,1.68A6.43,6.43,0,0,1,173,120.7Zm-2.57-2.2a2.84,2.84,0,0,0-1-1.52,2.74,2.74,0,0,0-1.74-.58,2.89,2.89,0,0,0-1.89.65,3.66,3.66,0,0,0-.94,1.45Z" transform="translate(-12.9 -2.54)"/><path d="M175,114.84h6v2.67h-3.41V126H175Z" transform="translate(-12.9 -2.54)"/><path d="M187.56,114.56a5.11,5.11,0,0,1,2.73.79,5.47,5.47,0,0,1,2,2.14,6.12,6.12,0,0,1,.71,2.92,6.25,6.25,0,0,1-.72,3,5.37,5.37,0,0,1-2,2.15,5.08,5.08,0,0,1-2.74.78,4.93,4.93,0,0,1-3.77-1.71,6.29,6.29,0,0,1,.2-8.51A4.94,4.94,0,0,1,187.56,114.56Zm0,2.63a2.54,2.54,0,0,0-2,.91,3.39,3.39,0,0,0-.8,2.32,3.49,3.49,0,0,0,.79,2.36,2.67,2.67,0,0,0,4,0,3.84,3.84,0,0,0,0-4.68A2.54,2.54,0,0,0,187.6,117.19Z" transform="translate(-12.9 -2.54)"/><path d="M209.66,126H207l-2.57-7-2.61,7h-2.61l4.38-11.16h1.65Z" transform="translate(-12.9 -2.54)"/><path d="M209.88,114.84h2.63l2.66,7,2.94-7h2.64l-6.43,15.24h-2.65l2.11-4.91Z" transform="translate(-12.9 -2.54)"/><path d="M227.78,121.57h-2.07a5.12,5.12,0,0,1-3.22-.88,3.42,3.42,0,0,1-1.13-2.88v-3h2.58v2.75c0,1,.6,1.47,1.81,1.47h2v-4.21h2.57V126h-2.57Z" transform="translate(-12.9 -2.54)"/><path d="M243.22,121.23H235a3,3,0,0,0,.95,1.89,2.85,2.85,0,0,0,2,.71,3.28,3.28,0,0,0,2.47-1.1l2.17,1.11a5.33,5.33,0,0,1-1.94,1.85,5.65,5.65,0,0,1-2.69.6,5.09,5.09,0,0,1-3.93-1.66,5.91,5.91,0,0,1-1.51-4.15,6.12,6.12,0,0,1,1.51-4.24,4.89,4.89,0,0,1,3.79-1.68,5.05,5.05,0,0,1,3.94,1.68,6.43,6.43,0,0,1,1.52,4.46Zm-2.57-2.2a2.84,2.84,0,0,0-1-1.52,2.74,2.74,0,0,0-1.74-.58,2.89,2.89,0,0,0-1.89.65,3.66,3.66,0,0,0-.94,1.45Z" transform="translate(-12.9 -2.54)"/><path d="M246.66,126h-1.37V114.84h2.51v6.56l5.25-6.56h1.23V126h-2.5v-6.42ZM246,109.92h2.08a1.51,1.51,0,0,0,.69.63,2.41,2.41,0,0,0,1.06.21,2.7,2.7,0,0,0,1.16-.24,1.44,1.44,0,0,0,.6-.6h2.08a3.14,3.14,0,0,1-1.14,2.09,4.16,4.16,0,0,1-2.7.79,4.71,4.71,0,0,1-2-.35,3.18,3.18,0,0,1-1.27-1A3.29,3.29,0,0,1,246,109.92Z" transform="translate(-12.9 -2.54)"/><path d="M258.29,123.08a1.38,1.38,0,0,1,1,.46,1.62,1.62,0,0,1,.43,1.14,1.64,1.64,0,0,1-.43,1.14,1.39,1.39,0,0,1-1,.47,1.36,1.36,0,0,1-1-.47,1.65,1.65,0,0,1-.44-1.14,1.63,1.63,0,0,1,.44-1.14A1.35,1.35,0,0,1,258.29,123.08Z" transform="translate(-12.9 -2.54)"/><path d="M121.74,169.79h-.88a13.64,13.64,0,0,1-2.83-.22,4.12,4.12,0,0,1-1.73-.92,3.63,3.63,0,0,1-1.17-1.7,8.25,8.25,0,0,1-.34-2.64v-3h2.67v2.94a3.39,3.39,0,0,0,.51,2.14,2.81,2.81,0,0,0,2.17.61h1.6v-5.69h2.66V176.4h-2.66Z" transform="translate(-12.9 -2.54)"/><path d="M137.56,171.63h-8.27a3.05,3.05,0,0,0,1,1.89,2.84,2.84,0,0,0,2,.71,3.3,3.3,0,0,0,2.48-1.1l2.17,1.11a5.33,5.33,0,0,1-1.94,1.85,5.68,5.68,0,0,1-2.69.6,5.06,5.06,0,0,1-3.93-1.66,5.92,5.92,0,0,1-1.52-4.15,6.12,6.12,0,0,1,1.52-4.24,4.89,4.89,0,0,1,3.79-1.68,5.07,5.07,0,0,1,3.94,1.68,6.43,6.43,0,0,1,1.52,4.46Zm-2.58-2.2a2.82,2.82,0,0,0-1-1.52,2.74,2.74,0,0,0-1.74-.58,2.89,2.89,0,0,0-1.89.65,3.56,3.56,0,0,0-.94,1.45Z" transform="translate(-12.9 -2.54)"/><path d="M145.91,172.28l3.15-7h1.7l2.57,11.16h-2.52l-1.37-6.55-3.06,6.55h-1l-3-6.55L141,176.4h-2.51L141,165.24h1.7Z" transform="translate(-12.9 -2.54)"/><path d="M165,165a5.06,5.06,0,0,1,2.73.79,5.5,5.5,0,0,1,2,2.14,6.38,6.38,0,0,1,0,5.87,5.37,5.37,0,0,1-2,2.15,5.08,5.08,0,0,1-2.75.78,4.91,4.91,0,0,1-3.76-1.71,6.29,6.29,0,0,1,.2-8.51A4.93,4.93,0,0,1,165,165Zm.05,2.63a2.54,2.54,0,0,0-2,.91,3.39,3.39,0,0,0-.8,2.32,3.49,3.49,0,0,0,.79,2.36,2.55,2.55,0,0,0,2,.9,2.57,2.57,0,0,0,2-.91,3.45,3.45,0,0,0,.8-2.35,3.37,3.37,0,0,0-.79-2.33A2.54,2.54,0,0,0,165,167.59Z" transform="translate(-12.9 -2.54)"/><path d="M175.08,169.26h3.84v-4h2.58V176.4h-2.58v-4.62h-3.84v4.62H172.5V165.24h2.58Z" transform="translate(-12.9 -2.54)"/><path d="M188.91,165a5.06,5.06,0,0,1,2.73.79,5.5,5.5,0,0,1,2,2.14,6.38,6.38,0,0,1,0,5.87,5.37,5.37,0,0,1-2,2.15,5.08,5.08,0,0,1-2.75.78,4.91,4.91,0,0,1-3.76-1.71,6.29,6.29,0,0,1,.2-8.51A4.93,4.93,0,0,1,188.91,165Zm.05,2.63a2.54,2.54,0,0,0-2,.91,3.39,3.39,0,0,0-.8,2.32,3.44,3.44,0,0,0,.79,2.36,2.55,2.55,0,0,0,2,.9,2.57,2.57,0,0,0,2-.91,3.45,3.45,0,0,0,.8-2.35,3.37,3.37,0,0,0-.79-2.33A2.55,2.55,0,0,0,189,167.59Z" transform="translate(-12.9 -2.54)"/><path d="M203.18,176.4v1.94h-2.29V174h1.55l3.54-8.79h1.66l3.58,8.79h1.58v4.31h-2.45V176.4Zm5.31-2.37-1.68-4.7-1.74,4.7Z" transform="translate(-12.9 -2.54)"/><path d="M219.23,165a5.06,5.06,0,0,1,2.73.79,5.5,5.5,0,0,1,2,2.14,6.38,6.38,0,0,1,0,5.87,5.37,5.37,0,0,1-2,2.15,5.08,5.08,0,0,1-2.75.78,4.91,4.91,0,0,1-3.76-1.71,6.29,6.29,0,0,1,.2-8.51A4.93,4.93,0,0,1,219.23,165Zm.05,2.63a2.54,2.54,0,0,0-2,.91,3.39,3.39,0,0,0-.8,2.32,3.44,3.44,0,0,0,.79,2.36,2.55,2.55,0,0,0,2,.9,2.57,2.57,0,0,0,2-.91,3.45,3.45,0,0,0,.8-2.35,3.37,3.37,0,0,0-.79-2.33A2.55,2.55,0,0,0,219.28,167.59Z" transform="translate(-12.9 -2.54)"/><path d="M236.58,160.7v2.65a19.86,19.86,0,0,1-2.14.14,18.84,18.84,0,0,0-2.84.18,3.56,3.56,0,0,0-1.68.74,3.17,3.17,0,0,0-1,1.33,6.66,6.66,0,0,0-.37,2.17,3.92,3.92,0,0,1,3.82-2.9,4.55,4.55,0,0,1,3.45,1.58,5.78,5.78,0,0,1,1.46,4.09,6.12,6.12,0,0,1-1.56,4.29,5,5,0,0,1-3.87,1.72,4.91,4.91,0,0,1-3.31-1.25,5.63,5.63,0,0,1-1.83-3,16.11,16.11,0,0,1-.41-3.69,12.13,12.13,0,0,1,.58-4.08,5.52,5.52,0,0,1,1.51-2.37,4.82,4.82,0,0,1,2.18-1,22.76,22.76,0,0,1,3.63-.38C235.25,160.83,236.06,160.77,236.58,160.7Zm-1.92,10.12a3.48,3.48,0,0,0-.77-2.31,2.69,2.69,0,0,0-4,0,3.81,3.81,0,0,0,0,4.67,2.55,2.55,0,0,0,2,.89,2.65,2.65,0,0,0,2-.89A3.4,3.4,0,0,0,234.66,170.82Z" transform="translate(-12.9 -2.54)"/><path d="M241.91,165.24v1.23a4.94,4.94,0,0,1,1.51-1.13,3.94,3.94,0,0,1,1.73-.38,4.31,4.31,0,0,1,3.41,1.65,6.28,6.28,0,0,1,1.41,4.23,6.19,6.19,0,0,1-1.45,4.17,4.42,4.42,0,0,1-3.44,1.68,4,4,0,0,1-1.65-.35,5,5,0,0,1-1.52-1.12v5.26h-2.55V165.24Zm2.71,2.3a2.57,2.57,0,0,0-2,.9,3.39,3.39,0,0,0-.8,2.36,3.53,3.53,0,0,0,.8,2.41,2.63,2.63,0,0,0,4,0,3.49,3.49,0,0,0,.81-2.38,3.45,3.45,0,0,0-.8-2.35A2.51,2.51,0,0,0,244.62,167.54Z" transform="translate(-12.9 -2.54)"/><path d="M262.37,171.63h-8.26a3,3,0,0,0,.95,1.89,2.85,2.85,0,0,0,2,.71,3.32,3.32,0,0,0,2.48-1.1l2.16,1.11a5.25,5.25,0,0,1-1.94,1.85,5.64,5.64,0,0,1-2.68.6,5.1,5.1,0,0,1-3.94-1.66,5.91,5.91,0,0,1-1.51-4.15,6.12,6.12,0,0,1,1.51-4.24,4.89,4.89,0,0,1,3.79-1.68,5.05,5.05,0,0,1,3.94,1.68,6.39,6.39,0,0,1,1.52,4.46Zm-2.57-2.2a2.84,2.84,0,0,0-1-1.52,2.74,2.74,0,0,0-1.74-.58,2.89,2.89,0,0,0-1.89.65,3.66,3.66,0,0,0-.94,1.45Z" transform="translate(-12.9 -2.54)"/><path d="M274.73,171.63h-8.27a3.05,3.05,0,0,0,1,1.89,2.84,2.84,0,0,0,2,.71,3.3,3.3,0,0,0,2.48-1.1l2.17,1.11a5.33,5.33,0,0,1-1.94,1.85,5.68,5.68,0,0,1-2.69.6,5.06,5.06,0,0,1-3.93-1.66,5.92,5.92,0,0,1-1.52-4.15,6.12,6.12,0,0,1,1.52-4.24,4.87,4.87,0,0,1,3.79-1.68,5.07,5.07,0,0,1,3.94,1.68,6.43,6.43,0,0,1,1.52,4.46Zm-2.58-2.2a2.82,2.82,0,0,0-1-1.52,2.74,2.74,0,0,0-1.74-.58,2.89,2.89,0,0,0-1.89.65,3.66,3.66,0,0,0-.95,1.45Z" transform="translate(-12.9 -2.54)"/><path d="M278,173.56l1.84,1-2.33,4.33-1.28-.66Z" transform="translate(-12.9 -2.54)"/><path d="M90.32,186.52H98v2.83H95.45V201.6H92.78V189.35H90.32Z" transform="translate(-12.9 -2.54)"/><path d="M109.78,196.83h-8.27a3,3,0,0,0,1,1.89,2.84,2.84,0,0,0,2,.71,3.3,3.3,0,0,0,2.48-1.1l2.17,1.11a5.33,5.33,0,0,1-1.94,1.85,5.68,5.68,0,0,1-2.69.6,5.06,5.06,0,0,1-3.93-1.66A5.92,5.92,0,0,1,99,196.08a6.12,6.12,0,0,1,1.52-4.24,4.89,4.89,0,0,1,3.79-1.68,5.07,5.07,0,0,1,3.94,1.68,6.43,6.43,0,0,1,1.52,4.46Zm-2.57-2.2a2.84,2.84,0,0,0-1-1.52,2.74,2.74,0,0,0-1.74-.58,2.89,2.89,0,0,0-1.89.65,3.74,3.74,0,0,0-.94,1.45Z" transform="translate(-12.9 -2.54)"/><path d="M118.13,197.48l3.15-7H123l2.57,11.16H123l-1.37-6.55-3.06,6.55h-1l-3-6.55-1.38,6.55h-2.51l2.57-11.16h1.7Z" transform="translate(-12.9 -2.54)"/><path d="M142.42,192.7,140.27,194a3.65,3.65,0,0,0-1.19-.95,3.27,3.27,0,0,0-1.38-.27,3.08,3.08,0,0,0-2.34.94,3.34,3.34,0,0,0-.89,2.4,3.23,3.23,0,0,0,.86,2.32,3,3,0,0,0,2.25.9,3.14,3.14,0,0,0,2.69-1.28l2,1.51a5.89,5.89,0,0,1-8.89.59,6,6,0,0,1-1.53-4.08,6.18,6.18,0,0,1,.74-3,5.49,5.49,0,0,1,2.08-2.14,5.83,5.83,0,0,1,3-.78,5.66,5.66,0,0,1,2.74.66A5.42,5.42,0,0,1,142.42,192.7Z" transform="translate(-12.9 -2.54)"/><path d="M144.73,201.6V190.44h4.12a3.5,3.5,0,0,1,2.76.87,3,3,0,0,1,.72,2,2.44,2.44,0,0,1-1.49,2.35,2.84,2.84,0,0,1,2,2.86,3.1,3.1,0,0,1-.54,1.88,2.51,2.51,0,0,1-1.36,1,8.21,8.21,0,0,1-2.31.25Zm2.58-6.77h1a1.33,1.33,0,0,0,1-.34,1.06,1.06,0,0,0,.35-.76,1.33,1.33,0,0,0-.34-1,1,1,0,0,0-.78-.35h-1.2Zm0,4.62h1.29a1.29,1.29,0,0,0,1.07-.39,1.24,1.24,0,0,0,.31-.75,1.62,1.62,0,0,0-.35-1,1.49,1.49,0,0,0-1.24-.45h-1.08Z" transform="translate(-12.9 -2.54)"/><path d="M165.34,196.83h-8.27a3,3,0,0,0,1,1.89,2.84,2.84,0,0,0,2,.71,3.3,3.3,0,0,0,2.48-1.1l2.17,1.11a5.33,5.33,0,0,1-1.94,1.85,5.68,5.68,0,0,1-2.69.6,5.06,5.06,0,0,1-3.93-1.66,5.92,5.92,0,0,1-1.52-4.15,6.12,6.12,0,0,1,1.52-4.24,4.87,4.87,0,0,1,3.79-1.68,5.07,5.07,0,0,1,3.94,1.68,6.43,6.43,0,0,1,1.52,4.46Zm-2.58-2.2a2.82,2.82,0,0,0-1-1.52,2.74,2.74,0,0,0-1.74-.58,2.89,2.89,0,0,0-1.89.65,3.63,3.63,0,0,0-.94,1.45Z" transform="translate(-12.9 -2.54)"/><path d="M166.51,190.44h9.55v2.67h-3.41v8.49h-2.57v-8.49h-3.57Z" transform="translate(-12.9 -2.54)"/><path d="M193.42,196.83h-8.26a3.06,3.06,0,0,0,1,1.89,2.85,2.85,0,0,0,2,.71,3.3,3.3,0,0,0,2.48-1.1l2.16,1.11a5.25,5.25,0,0,1-1.94,1.85,5.64,5.64,0,0,1-2.68.6,5.06,5.06,0,0,1-3.93-1.66,5.92,5.92,0,0,1-1.52-4.15,6.12,6.12,0,0,1,1.51-4.24,4.91,4.91,0,0,1,3.8-1.68,5.08,5.08,0,0,1,3.94,1.68,6.43,6.43,0,0,1,1.51,4.46Zm-2.57-2.2a2.78,2.78,0,0,0-1-1.52,2.74,2.74,0,0,0-1.74-.58,2.93,2.93,0,0,0-1.89.65,3.85,3.85,0,0,0-.94,1.45Z" transform="translate(-12.9 -2.54)"/><path d="M195.5,190.44h6v2.67h-3.41v8.49H195.5Z" transform="translate(-12.9 -2.54)"/><path d="M208,190.16a5.06,5.06,0,0,1,2.73.79,5.4,5.4,0,0,1,2,2.14,6.13,6.13,0,0,1,.72,2.92,6.25,6.25,0,0,1-.72,3,5.4,5.4,0,0,1-2,2.15,5.05,5.05,0,0,1-2.74.78,4.91,4.91,0,0,1-3.76-1.71,6.29,6.29,0,0,1,.2-8.51A4.92,4.92,0,0,1,208,190.16Zm0,2.63a2.52,2.52,0,0,0-2,.91,3.39,3.39,0,0,0-.8,2.32,3.44,3.44,0,0,0,.79,2.36,2.66,2.66,0,0,0,4,0,3.82,3.82,0,0,0,0-4.68A2.57,2.57,0,0,0,208.08,192.79Z" transform="translate(-12.9 -2.54)"/><path d="M231,192.7,228.88,194a3.57,3.57,0,0,0-1.2-.95,3.27,3.27,0,0,0-1.38-.27,3,3,0,0,0-2.33.94,3.31,3.31,0,0,0-.9,2.4,3.23,3.23,0,0,0,.86,2.32,3,3,0,0,0,2.26.9,3.16,3.16,0,0,0,2.69-1.28l2,1.51a5.9,5.9,0,0,1-8.9.59,6,6,0,0,1-1.53-4.08,6.08,6.08,0,0,1,.75-3,5.42,5.42,0,0,1,2.08-2.14,5.76,5.76,0,0,1,3-.78,5.64,5.64,0,0,1,2.74.66A5.42,5.42,0,0,1,231,192.7Z" transform="translate(-12.9 -2.54)"/><path d="M234.7,201.6h-1.37V190.44h2.5V197l5.25-6.56h1.24V201.6h-2.51v-6.42Z" transform="translate(-12.9 -2.54)"/><path d="M254.08,201.6h-2.62l-2.56-7-2.61,7h-2.62l4.38-11.16h1.66Z" transform="translate(-12.9 -2.54)"/><path d="M258,194.46h.77a8.81,8.81,0,0,1,2.48.27,2.85,2.85,0,0,1,1.46,1.14,3.74,3.74,0,0,1,.59,2.16,4,4,0,0,1-.54,2.15,2.6,2.6,0,0,1-1.37,1.14,7.6,7.6,0,0,1-2.34.28h-3.62V190.44H258Zm0,5h.79a3.47,3.47,0,0,0,1-.11,1.21,1.21,0,0,0,.78-1.16c0-1-.5-1.44-1.51-1.44H258Z" transform="translate(-12.9 -2.54)"/><path d="M267.84,194.46h3.85v-4h2.57V201.6h-2.57V197h-3.85v4.62h-2.57V190.44h2.57Z" transform="translate(-12.9 -2.54)"/><path d="M287.14,196.83h-8.27a3,3,0,0,0,1,1.89,2.83,2.83,0,0,0,2,.71,3.3,3.3,0,0,0,2.48-1.1l2.17,1.11a5.33,5.33,0,0,1-1.94,1.85,5.68,5.68,0,0,1-2.69.6,5.06,5.06,0,0,1-3.93-1.66,5.92,5.92,0,0,1-1.52-4.15,6.16,6.16,0,0,1,1.51-4.24,4.91,4.91,0,0,1,3.8-1.68,5.07,5.07,0,0,1,3.94,1.68,6.43,6.43,0,0,1,1.51,4.46Zm-2.58-2.2a2.82,2.82,0,0,0-1-1.52,2.75,2.75,0,0,0-1.75-.58,2.89,2.89,0,0,0-1.88.65,3.74,3.74,0,0,0-.95,1.45Z" transform="translate(-12.9 -2.54)"/><path d="M290.58,201.6h-1.37V190.44h2.5V197l5.25-6.56h1.24V201.6h-2.51v-6.42Zm-.65-16.08H292a1.54,1.54,0,0,0,.68.63,2.46,2.46,0,0,0,1.07.21,2.74,2.74,0,0,0,1.16-.24,1.42,1.42,0,0,0,.59-.6h2.09a3.15,3.15,0,0,1-1.15,2.09,4.12,4.12,0,0,1-2.7.79,4.74,4.74,0,0,1-2-.35,3.14,3.14,0,0,1-1.26-1A3.42,3.42,0,0,1,289.93,185.52Z" transform="translate(-12.9 -2.54)"/><path d="M302.21,198.68a1.38,1.38,0,0,1,1,.46,1.63,1.63,0,0,1,.44,1.14,1.65,1.65,0,0,1-.44,1.14,1.4,1.4,0,0,1-2.09,0,1.64,1.64,0,0,1-.43-1.14,1.62,1.62,0,0,1,.43-1.14A1.38,1.38,0,0,1,302.21,198.68Z" transform="translate(-12.9 -2.54)"/><path d="M97.16,211.72h2.57l3.21,10.52,3.25-10.52h2.57l2.32,15.08h-2.55L107,217.27l-2.94,9.53h-2.33l-2.92-9.53-1.52,9.53H94.76Z" transform="translate(-12.9 -2.54)"/><path d="M117.72,215.36a5.06,5.06,0,0,1,2.73.79,5.47,5.47,0,0,1,2,2.14,6.13,6.13,0,0,1,.72,2.92,6.25,6.25,0,0,1-.72,2.95,5.47,5.47,0,0,1-2,2.15,5.05,5.05,0,0,1-2.74.78,4.93,4.93,0,0,1-3.77-1.71,6.28,6.28,0,0,1,.21-8.51A4.92,4.92,0,0,1,117.72,215.36Zm0,2.63a2.55,2.55,0,0,0-2,.91,3.38,3.38,0,0,0-.79,2.32,3.48,3.48,0,0,0,.78,2.36,2.67,2.67,0,0,0,4,0,3.86,3.86,0,0,0,0-4.68A2.57,2.57,0,0,0,117.76,218Z" transform="translate(-12.9 -2.54)"/><path d="M135.53,222h-8.26a3,3,0,0,0,1,1.89,2.85,2.85,0,0,0,2,.71,3.32,3.32,0,0,0,2.48-1.1l2.16,1.11a5.25,5.25,0,0,1-1.94,1.85,5.64,5.64,0,0,1-2.68.6,5.1,5.1,0,0,1-3.94-1.66,5.91,5.91,0,0,1-1.51-4.15,6.12,6.12,0,0,1,1.51-4.24,4.89,4.89,0,0,1,3.79-1.68A5.05,5.05,0,0,1,134,217a6.43,6.43,0,0,1,1.52,4.46Zm-7.46-11.36a1.26,1.26,0,0,1,1,.43,1.49,1.49,0,0,1,.39,1,1.48,1.48,0,0,1-.39,1,1.29,1.29,0,0,1-1.92,0,1.48,1.48,0,0,1-.39-1,1.49,1.49,0,0,1,.39-1A1.26,1.26,0,0,1,128.07,210.67Zm4.89,9.16a2.84,2.84,0,0,0-1-1.52,2.74,2.74,0,0,0-1.74-.58,2.89,2.89,0,0,0-1.89.65,3.66,3.66,0,0,0-.94,1.45Zm-.72-9.16a1.23,1.23,0,0,1,1,.43,1.46,1.46,0,0,1,.4,1,1.44,1.44,0,0,1-.4,1,1.28,1.28,0,0,1-1.91,0,1.48,1.48,0,0,1-.4-1,1.5,1.5,0,0,1,.4-1A1.23,1.23,0,0,1,132.24,210.67Z" transform="translate(-12.9 -2.54)"/><path d="M147.83,215.36a5.06,5.06,0,0,1,2.73.79,5.47,5.47,0,0,1,2,2.14,6.13,6.13,0,0,1,.72,2.92,6.25,6.25,0,0,1-.72,2.95,5.4,5.4,0,0,1-2,2.15,5.05,5.05,0,0,1-2.74.78,4.93,4.93,0,0,1-3.77-1.71,6.3,6.3,0,0,1,.21-8.51A4.92,4.92,0,0,1,147.83,215.36Zm0,2.63a2.52,2.52,0,0,0-2,.91,3.34,3.34,0,0,0-.8,2.32,3.44,3.44,0,0,0,.79,2.36,2.66,2.66,0,0,0,4,0,3.82,3.82,0,0,0,0-4.68A2.57,2.57,0,0,0,147.87,218Z" transform="translate(-12.9 -2.54)"/><path d="M154.46,215.64H164v2.67H160.6v8.49H158v-8.49h-3.57Z" transform="translate(-12.9 -2.54)"/><path d="M165.7,215.64h2.57v4.18l3.55-4.18H175l-4.57,5.44L175,226.8H171.6l-3.06-3.94-.27.35v3.59H165.7Z" transform="translate(-12.9 -2.54)"/><path d="M178.62,215.64v1.23a4.94,4.94,0,0,1,1.51-1.13,3.94,3.94,0,0,1,1.73-.38,4.34,4.34,0,0,1,3.42,1.65,6.33,6.33,0,0,1,1.4,4.23,6.14,6.14,0,0,1-1.45,4.17,4.42,4.42,0,0,1-3.44,1.68,4,4,0,0,1-1.65-.35,5,5,0,0,1-1.52-1.12v5.26h-2.55V215.64Zm2.71,2.3a2.59,2.59,0,0,0-2,.9,3.44,3.44,0,0,0-.8,2.36,3.58,3.58,0,0,0,.8,2.41,2.56,2.56,0,0,0,2,.91,2.53,2.53,0,0,0,2-.93,3.49,3.49,0,0,0,.81-2.38,3.45,3.45,0,0,0-.8-2.35A2.51,2.51,0,0,0,181.33,217.94Z" transform="translate(-12.9 -2.54)"/><path d="M191.37,219.66h.77a8.81,8.81,0,0,1,2.48.27,2.85,2.85,0,0,1,1.46,1.14,3.74,3.74,0,0,1,.59,2.16,4,4,0,0,1-.54,2.15,2.6,2.6,0,0,1-1.37,1.14,7.55,7.55,0,0,1-2.34.28H188.8V215.64h2.57Zm0,5h.79a3.42,3.42,0,0,0,1-.11,1.23,1.23,0,0,0,.79-1.16c0-1-.51-1.44-1.52-1.44h-1.07Zm7.09-9H201V226.8h-2.57Z" transform="translate(-12.9 -2.54)"/><path d="M202.72,215.64h9.56v2.67h-3.41v8.49h-2.58v-8.49h-3.57Z" transform="translate(-12.9 -2.54)"/><path d="M218.78,215.36a5.06,5.06,0,0,1,2.73.79,5.4,5.4,0,0,1,2,2.14,6.13,6.13,0,0,1,.72,2.92,6.25,6.25,0,0,1-.72,2.95,5.4,5.4,0,0,1-2,2.15,5.05,5.05,0,0,1-2.74.78,4.89,4.89,0,0,1-3.76-1.71,6.26,6.26,0,0,1,.2-8.51A4.92,4.92,0,0,1,218.78,215.36Zm0,2.63a2.52,2.52,0,0,0-2,.91,3.34,3.34,0,0,0-.8,2.32,3.44,3.44,0,0,0,.79,2.36,2.66,2.66,0,0,0,4,0,3.82,3.82,0,0,0,0-4.68A2.57,2.57,0,0,0,218.82,218Z" transform="translate(-12.9 -2.54)"/><path d="M240.88,226.8h-2.62l-2.56-7-2.61,7h-2.62l4.38-11.16h1.66Z" transform="translate(-12.9 -2.54)"/><path d="M244.8,226.8h-2.57V215.64h2.57v4.42h1.37a5.89,5.89,0,0,1,2-3.46,5,5,0,0,1,3.25-1.24,5.07,5.07,0,0,1,3.84,1.69,5.88,5.88,0,0,1,1.59,4.16,6,6,0,0,1-1.55,4.14,5,5,0,0,1-3.87,1.74,5,5,0,0,1-3.35-1.28,5.63,5.63,0,0,1-1.89-3.18H244.8Zm9.44-5.58a3.42,3.42,0,0,0-.79-2.33,2.58,2.58,0,0,0-2-.9,2.49,2.49,0,0,0-2,.93,3.39,3.39,0,0,0-.79,2.29,3.45,3.45,0,0,0,.79,2.37,2.55,2.55,0,0,0,2,.89,2.63,2.63,0,0,0,2-.89A3.4,3.4,0,0,0,254.24,221.22Z" transform="translate(-12.9 -2.54)"/><path d="M260.26,226.8v1.94H258v-4.31h1.54l3.54-8.79h1.66l3.59,8.79h1.57v4.31h-2.45V226.8Zm5.31-2.37-1.69-4.7-1.74,4.7Z" transform="translate(-12.9 -2.54)"/><path d="M273.24,222.22a2.63,2.63,0,0,1-1.36-1.12,3.32,3.32,0,0,1-.54-1.86,3.71,3.71,0,0,1,.65-2.17,2.81,2.81,0,0,1,1.55-1.18,11.84,11.84,0,0,1,2.82-.25H279V226.8h-2.57v-4h-.5l-2.45,4h-3.05Zm3.15-1.56V218h-.9c-1,0-1.47.45-1.47,1.33s.55,1.35,1.64,1.35Z" transform="translate(-12.9 -2.54)"/><path d="M287.82,222.68l3.15-7h1.7l2.57,11.16h-2.52l-1.37-6.55-3.06,6.55h-1.05l-3-6.55-1.38,6.55h-2.51l2.57-11.16h1.7Z" transform="translate(-12.9 -2.54)"/><path d="M297.9,224l1.84,1-2.33,4.33-1.28-.66Z" transform="translate(-12.9 -2.54)"/><path d="M110.92,236.92V252h-2.64v-9.44L103.11,252h-2.29V236.92h2.64v9.75l5.24-9.75Z" transform="translate(-12.9 -2.54)"/><path d="M120.08,247.88l3.15-7h1.69L127.49,252H125l-1.38-6.55-3,6.55h-1l-3-6.55L115.13,252h-2.51l2.57-11.16h1.69Z" transform="translate(-12.9 -2.54)"/><path d="M139.14,240.56a5.06,5.06,0,0,1,2.73.79,5.4,5.4,0,0,1,2,2.14,6.13,6.13,0,0,1,.72,2.92,6.25,6.25,0,0,1-.72,3,5.4,5.4,0,0,1-2,2.15,5.05,5.05,0,0,1-2.74.78,4.91,4.91,0,0,1-3.76-1.71,6.29,6.29,0,0,1,.2-8.51A4.92,4.92,0,0,1,139.14,240.56Zm0,2.63a2.52,2.52,0,0,0-2,.91,3.34,3.34,0,0,0-.8,2.32,3.44,3.44,0,0,0,.79,2.36,2.53,2.53,0,0,0,2,.9,2.58,2.58,0,0,0,2-.91,3.84,3.84,0,0,0,0-4.68A2.57,2.57,0,0,0,139.18,243.19Z" transform="translate(-12.9 -2.54)"/><path d="M145.77,240.84h9.55v2.67h-3.41V252h-2.57v-8.49h-3.57Z" transform="translate(-12.9 -2.54)"/><path d="M165,244.86h3.85v-4h2.57V252h-2.57v-4.62H165V252H162.4V240.84H165Z" transform="translate(-12.9 -2.54)"/><path d="M184.27,247.23H176a3.05,3.05,0,0,0,1,1.89,2.84,2.84,0,0,0,2,.71,3.3,3.3,0,0,0,2.48-1.1l2.17,1.11a5.33,5.33,0,0,1-1.94,1.85,5.68,5.68,0,0,1-2.69.6,5.06,5.06,0,0,1-3.93-1.66,5.92,5.92,0,0,1-1.52-4.15,6.12,6.12,0,0,1,1.52-4.24,4.89,4.89,0,0,1,3.79-1.68,5.07,5.07,0,0,1,3.94,1.68,6.43,6.43,0,0,1,1.52,4.46Zm-2.58-2.2a2.82,2.82,0,0,0-1-1.52,2.74,2.74,0,0,0-1.74-.58,2.89,2.89,0,0,0-1.89.65,3.56,3.56,0,0,0-.94,1.45Z" transform="translate(-12.9 -2.54)"/><path d="M186.34,240.84h6v2.67h-3.42V252h-2.57Z" transform="translate(-12.9 -2.54)"/><path d="M198.89,240.56a5.06,5.06,0,0,1,2.72.79,5.5,5.5,0,0,1,2,2.14,6.38,6.38,0,0,1,0,5.87,5.37,5.37,0,0,1-2,2.15,5.08,5.08,0,0,1-2.75.78,4.91,4.91,0,0,1-3.76-1.71,6.29,6.29,0,0,1,.2-8.51A4.94,4.94,0,0,1,198.89,240.56Zm0,2.63a2.54,2.54,0,0,0-2,.91,3.39,3.39,0,0,0-.8,2.32,3.49,3.49,0,0,0,.79,2.36,2.55,2.55,0,0,0,2,.9,2.57,2.57,0,0,0,2-.91,3.45,3.45,0,0,0,.8-2.35,3.37,3.37,0,0,0-.79-2.33A2.54,2.54,0,0,0,198.93,243.19Z" transform="translate(-12.9 -2.54)"/><path d="M221.86,243.1l-2.14,1.28a3.65,3.65,0,0,0-1.19-.95,3.33,3.33,0,0,0-1.38-.27,3.05,3.05,0,0,0-2.34.94,3.34,3.34,0,0,0-.89,2.4,3.19,3.19,0,0,0,.86,2.32,3,3,0,0,0,2.25.9,3.16,3.16,0,0,0,2.69-1.28l2,1.51a5.89,5.89,0,0,1-8.89.59,6,6,0,0,1-1.53-4.08,6.07,6.07,0,0,1,.74-3,5.49,5.49,0,0,1,2.08-2.14,5.79,5.79,0,0,1,3-.78,5.7,5.7,0,0,1,2.75.66A5.32,5.32,0,0,1,221.86,243.1Z" transform="translate(-12.9 -2.54)"/><path d="M224.18,252V240.84h4.12a3.46,3.46,0,0,1,2.75.87,3,3,0,0,1,.73,2,2.44,2.44,0,0,1-1.49,2.35,2.83,2.83,0,0,1,2,2.86,3.1,3.1,0,0,1-.53,1.88,2.51,2.51,0,0,1-1.36,1,8.21,8.21,0,0,1-2.31.25Zm2.57-6.77h1a1.33,1.33,0,0,0,1-.34,1,1,0,0,0,.34-.76,1.37,1.37,0,0,0-.33-1,1,1,0,0,0-.78-.35h-1.21Zm0,4.62h1.3a1.27,1.27,0,0,0,1.06-.39,1.18,1.18,0,0,0,.31-.75,1.61,1.61,0,0,0-.34-1,1.49,1.49,0,0,0-1.25-.45h-1.08Z" transform="translate(-12.9 -2.54)"/><path d="M244.79,247.23h-8.27a3.05,3.05,0,0,0,1,1.89,2.83,2.83,0,0,0,2,.71,3.3,3.3,0,0,0,2.48-1.1l2.17,1.11a5.33,5.33,0,0,1-1.94,1.85,5.68,5.68,0,0,1-2.69.6,5.06,5.06,0,0,1-3.93-1.66,5.92,5.92,0,0,1-1.52-4.15,6.16,6.16,0,0,1,1.51-4.24,4.91,4.91,0,0,1,3.8-1.68,5.08,5.08,0,0,1,3.94,1.68,6.43,6.43,0,0,1,1.51,4.46Zm-2.58-2.2a2.82,2.82,0,0,0-1-1.52,2.75,2.75,0,0,0-1.75-.58,2.89,2.89,0,0,0-1.88.65,3.66,3.66,0,0,0-1,1.45Z" transform="translate(-12.9 -2.54)"/><path d="M246,240.84h9.56v2.67H252.1V252h-2.58v-8.49H246Z" transform="translate(-12.9 -2.54)"/><path d="M266.36,252h-2.62l-2.57-7-2.61,7H256l4.37-11.16H262Z" transform="translate(-12.9 -2.54)"/><path d="M278,247.23h-8.27a3.05,3.05,0,0,0,1,1.89,2.84,2.84,0,0,0,2,.71,3.29,3.29,0,0,0,2.48-1.1l2.17,1.11a5.33,5.33,0,0,1-1.94,1.85,5.68,5.68,0,0,1-2.69.6,5.06,5.06,0,0,1-3.93-1.66,5.91,5.91,0,0,1-1.51-4.15,6.12,6.12,0,0,1,1.51-4.24,4.89,4.89,0,0,1,3.79-1.68,5.05,5.05,0,0,1,3.94,1.68A6.43,6.43,0,0,1,278,246.7Zm-2.57-2.2a2.84,2.84,0,0,0-1-1.52,2.74,2.74,0,0,0-1.74-.58,2.89,2.89,0,0,0-1.89.65,3.66,3.66,0,0,0-.94,1.45Z" transform="translate(-12.9 -2.54)"/><path d="M281.43,252h-1.37V240.84h2.51v6.56l5.25-6.56h1.23V252h-2.5v-6.42Zm-.64-16.08h2.08a1.54,1.54,0,0,0,.68.63,2.49,2.49,0,0,0,1.07.21,2.7,2.7,0,0,0,1.16-.24,1.44,1.44,0,0,0,.6-.6h2.08a3.11,3.11,0,0,1-1.15,2.09,4.12,4.12,0,0,1-2.7.79,4.66,4.66,0,0,1-1.95-.35,3.11,3.11,0,0,1-1.27-1A3.29,3.29,0,0,1,280.79,235.92Z" transform="translate(-12.9 -2.54)"/><path d="M293.06,249.08a1.35,1.35,0,0,1,1,.46,1.63,1.63,0,0,1,.44,1.14,1.65,1.65,0,0,1-.44,1.14,1.36,1.36,0,0,1-1,.47,1.39,1.39,0,0,1-1.05-.47,1.64,1.64,0,0,1-.43-1.14,1.62,1.62,0,0,1,.43-1.14A1.38,1.38,0,0,1,293.06,249.08Z" transform="translate(-12.9 -2.54)"/><path d="M82.5,298.47A3,3,0,0,0,85,300.06a2,2,0,0,0,2.09-2.1,2.2,2.2,0,0,0-.57-1.55,3.16,3.16,0,0,0-2.32-.61H83.6v-2.57h.56a2.19,2.19,0,0,0,1.59-.52,1.87,1.87,0,0,0,.54-1.4,1.81,1.81,0,0,0-.45-1.29,1.63,1.63,0,0,0-1.2-.47,2.65,2.65,0,0,0-1.83,1l-1.55-1.89a5.56,5.56,0,0,1,2.09-1.47,5.69,5.69,0,0,1,1.55-.24A4.05,4.05,0,0,1,87.75,288a3.76,3.76,0,0,1,1.16,2.91,4.92,4.92,0,0,1-.26,1.57,3.65,3.65,0,0,1-1.44,1.63,4.13,4.13,0,0,1,2.43,4A4.42,4.42,0,0,1,85,302.78a5.08,5.08,0,0,1-2.3-.51,6.81,6.81,0,0,1-2.22-2.19Z" transform="translate(-12.9 -2.54)"/><path d="M91.87,302.4V291.24H96a3.46,3.46,0,0,1,2.75.87,3,3,0,0,1,.73,2A2.44,2.44,0,0,1,98,296.42a2.83,2.83,0,0,1,2,2.86,3.22,3.22,0,0,1-.53,1.89,2.57,2.57,0,0,1-1.37,1,8.13,8.13,0,0,1-2.3.25Zm2.57-6.77h1a1.33,1.33,0,0,0,1-.34,1,1,0,0,0,.34-.76,1.37,1.37,0,0,0-.33-1,1,1,0,0,0-.78-.35H94.44Zm0,4.62h1.3a1.27,1.27,0,0,0,1.06-.39,1.18,1.18,0,0,0,.31-.75,1.63,1.63,0,0,0-.34-1,1.49,1.49,0,0,0-1.25-.45H94.44Z" transform="translate(-12.9 -2.54)"/><path d="M112.47,297.63h-8.26a3.06,3.06,0,0,0,1,1.89,2.85,2.85,0,0,0,2,.71,3.3,3.3,0,0,0,2.48-1.1l2.16,1.11a5.25,5.25,0,0,1-1.94,1.85,5.64,5.64,0,0,1-2.68.6,5.06,5.06,0,0,1-3.93-1.66,5.92,5.92,0,0,1-1.52-4.15,6.12,6.12,0,0,1,1.51-4.24A4.91,4.91,0,0,1,107,291a5.08,5.08,0,0,1,3.94,1.68,6.43,6.43,0,0,1,1.51,4.46Zm-2.57-2.2a2.79,2.79,0,0,0-2.75-2.1,2.89,2.89,0,0,0-1.88.65,3.74,3.74,0,0,0-1,1.45Z" transform="translate(-12.9 -2.54)"/><path d="M116.27,297.67v-2h.51a1.62,1.62,0,0,0,.91-.26,1,1,0,0,0,.38-.86,1.12,1.12,0,0,0-.34-.85,1.18,1.18,0,0,0-.85-.33,3,3,0,0,0-1.58.66l-1-1.92a4.4,4.4,0,0,1,3-1.15,3.71,3.71,0,0,1,2.49.84,2.89,2.89,0,0,1,1,2.28,2.7,2.7,0,0,1-1.43,2.36,2.79,2.79,0,0,1,1.91,2.78,3.22,3.22,0,0,1-1.07,2.48,4.23,4.23,0,0,1-3,1,4.85,4.85,0,0,1-3.44-1.27l1.42-1.95a2.84,2.84,0,0,0,1.73.74,1.53,1.53,0,0,0,1-.35,1.12,1.12,0,0,0,.39-.88,1.28,1.28,0,0,0-1.36-1.31Z" transform="translate(-12.9 -2.54)"/><path d="M124.57,302.4v1.94h-2.29V300h1.55l3.54-8.79H129l3.59,8.79h1.57v4.31h-2.45V302.4Zm5.31-2.37-1.68-4.7-1.74,4.7Z" transform="translate(-12.9 -2.54)"/><path d="M143.38,291.24H146V302.4h-2.57v-1.18a4.91,4.91,0,0,1-1.51,1.12,4,4,0,0,1-1.65.35,4.39,4.39,0,0,1-3.43-1.68,6.14,6.14,0,0,1-1.45-4.17,6.33,6.33,0,0,1,1.4-4.23,4.32,4.32,0,0,1,3.41-1.65,3.94,3.94,0,0,1,1.73.38,4.78,4.78,0,0,1,1.5,1.13Zm-2.71,2.3a2.52,2.52,0,0,0-2,.92,3.45,3.45,0,0,0-.79,2.35,3.53,3.53,0,0,0,.8,2.38,2.62,2.62,0,0,0,4,0,3.58,3.58,0,0,0,.8-2.41,3.44,3.44,0,0,0-.8-2.36A2.57,2.57,0,0,0,140.67,293.54Z" transform="translate(-12.9 -2.54)"/><path d="M164,293.5l-2.14,1.28a3.57,3.57,0,0,0-1.2-.95,3.27,3.27,0,0,0-1.38-.27,3,3,0,0,0-2.33.94,3.31,3.31,0,0,0-.9,2.4,3.23,3.23,0,0,0,.86,2.32,3,3,0,0,0,2.26.9,3.16,3.16,0,0,0,2.69-1.28l2,1.51a5.9,5.9,0,0,1-8.9.59,6,6,0,0,1-1.53-4.08,6.08,6.08,0,0,1,.75-3,5.42,5.42,0,0,1,2.08-2.14,5.76,5.76,0,0,1,3-.78,5.64,5.64,0,0,1,2.74.66A5.42,5.42,0,0,1,164,293.5Z" transform="translate(-12.9 -2.54)"/><path d="M166.31,302.4V291.24h4.12a3.46,3.46,0,0,1,2.75.87,3,3,0,0,1,.72,2,2.43,2.43,0,0,1-1.48,2.35,2.84,2.84,0,0,1,2,2.86,3.15,3.15,0,0,1-.54,1.89,2.51,2.51,0,0,1-1.36,1,8.18,8.18,0,0,1-2.3.25Zm2.57-6.77h1a1.3,1.3,0,0,0,1-.34,1.06,1.06,0,0,0,.35-.76,1.37,1.37,0,0,0-.33-1,1.05,1.05,0,0,0-.79-.35h-1.2Zm0,4.62h1.3a1.27,1.27,0,0,0,1.06-.39,1.18,1.18,0,0,0,.31-.75,1.64,1.64,0,0,0-.35-1,1.47,1.47,0,0,0-1.24-.45h-1.08Z" transform="translate(-12.9 -2.54)"/><path d="M186.91,297.63h-8.26a3,3,0,0,0,.95,1.89,2.85,2.85,0,0,0,2,.71,3.28,3.28,0,0,0,2.47-1.1l2.17,1.11a5.33,5.33,0,0,1-1.94,1.85,5.65,5.65,0,0,1-2.69.6,5.09,5.09,0,0,1-3.93-1.66,5.91,5.91,0,0,1-1.51-4.15,6.12,6.12,0,0,1,1.51-4.24,4.89,4.89,0,0,1,3.79-1.68,5.05,5.05,0,0,1,3.94,1.68,6.43,6.43,0,0,1,1.52,4.46Zm-2.57-2.2a2.84,2.84,0,0,0-1-1.52,2.74,2.74,0,0,0-1.74-.58,2.89,2.89,0,0,0-1.89.65,3.74,3.74,0,0,0-.94,1.45Z" transform="translate(-12.9 -2.54)"/><path d="M188.08,291.24h9.56v2.67h-3.42v8.49h-2.57v-8.49h-3.57Z" transform="translate(-12.9 -2.54)"/><path d="M200.68,302.4h-1.37V291.24h2.51v6.56l5.25-6.56h1.23V302.4h-2.5V296Z" transform="translate(-12.9 -2.54)"/><path d="M210,291.24h9.56v2.67h-3.41v8.49h-2.58v-8.49H210Z" transform="translate(-12.9 -2.54)"/><path d="M229.2,295.26h3.85v-4h2.57V302.4h-2.57v-4.62H229.2v4.62h-2.57V291.24h2.57Z" transform="translate(-12.9 -2.54)"/><path d="M245.79,291.24h2.57V302.4h-2.57v-1.18a4.91,4.91,0,0,1-1.51,1.12,4,4,0,0,1-1.65.35A4.41,4.41,0,0,1,239.2,301a6.14,6.14,0,0,1-1.45-4.17,6.33,6.33,0,0,1,1.4-4.23,4.32,4.32,0,0,1,3.41-1.65,3.94,3.94,0,0,1,1.73.38,4.78,4.78,0,0,1,1.5,1.13Zm-2.71,2.3a2.52,2.52,0,0,0-2,.92,3.9,3.9,0,0,0,0,4.73,2.5,2.5,0,0,0,2,.93,2.54,2.54,0,0,0,2-.91,3.53,3.53,0,0,0,.8-2.41,3.39,3.39,0,0,0-.8-2.36A2.57,2.57,0,0,0,243.08,293.54Z" transform="translate(-12.9 -2.54)"/><path d="M258.93,295.26h3.84v-4h2.57V302.4h-2.57v-4.62h-3.84v4.62h-2.58V291.24h2.58Z" transform="translate(-12.9 -2.54)"/><path d="M278.22,297.63H270a3,3,0,0,0,1,1.89,2.84,2.84,0,0,0,2,.71,3.29,3.29,0,0,0,2.48-1.1l2.17,1.11a5.33,5.33,0,0,1-1.94,1.85,5.68,5.68,0,0,1-2.69.6A5.06,5.06,0,0,1,269,301a5.91,5.91,0,0,1-1.51-4.15,6.12,6.12,0,0,1,1.51-4.24,4.89,4.89,0,0,1,3.79-1.68,5.05,5.05,0,0,1,3.94,1.68,6.43,6.43,0,0,1,1.52,4.46Zm-2.57-2.2a2.84,2.84,0,0,0-1-1.52,2.74,2.74,0,0,0-1.74-.58A2.89,2.89,0,0,0,271,294a3.74,3.74,0,0,0-.94,1.45Z" transform="translate(-12.9 -2.54)"/><path d="M290.11,286.7v2.65a19.86,19.86,0,0,1-2.14.14,18.84,18.84,0,0,0-2.84.18,3.64,3.64,0,0,0-1.69.74,3.29,3.29,0,0,0-1,1.33,6.66,6.66,0,0,0-.37,2.17,3.91,3.91,0,0,1,3.82-2.9,4.55,4.55,0,0,1,3.45,1.58,5.78,5.78,0,0,1,1.46,4.09,6.17,6.17,0,0,1-1.56,4.3,5.06,5.06,0,0,1-3.87,1.71,4.91,4.91,0,0,1-3.31-1.25,5.63,5.63,0,0,1-1.83-3,16.11,16.11,0,0,1-.41-3.69,12.13,12.13,0,0,1,.58-4.08,5.52,5.52,0,0,1,1.51-2.37,4.93,4.93,0,0,1,2.18-1.05,22.76,22.76,0,0,1,3.63-.38C288.78,286.83,289.59,286.77,290.11,286.7Zm-1.92,10.12a3.48,3.48,0,0,0-.77-2.31,2.68,2.68,0,0,0-4.05,0,3.39,3.39,0,0,0-.8,2.3,3.44,3.44,0,0,0,.8,2.36,2.55,2.55,0,0,0,2,.89,2.65,2.65,0,0,0,2-.89A3.4,3.4,0,0,0,288.19,296.82Z" transform="translate(-12.9 -2.54)"/><path d="M303.16,297.63h-8.27a3,3,0,0,0,1,1.89,2.84,2.84,0,0,0,2,.71,3.3,3.3,0,0,0,2.48-1.1l2.17,1.11a5.33,5.33,0,0,1-1.94,1.85,5.68,5.68,0,0,1-2.69.6,5.06,5.06,0,0,1-3.93-1.66,5.92,5.92,0,0,1-1.52-4.15,6.12,6.12,0,0,1,1.52-4.24,4.87,4.87,0,0,1,3.79-1.68,5.05,5.05,0,0,1,3.94,1.68,6.43,6.43,0,0,1,1.52,4.46Zm-2.58-2.2a2.79,2.79,0,0,0-2.74-2.1A2.89,2.89,0,0,0,296,294a3.74,3.74,0,0,0-.95,1.45Z" transform="translate(-12.9 -2.54)"/><path d="M306.64,299.48a1.38,1.38,0,0,1,1.05.46,1.62,1.62,0,0,1,.43,1.14,1.64,1.64,0,0,1-.43,1.14,1.4,1.4,0,0,1-2.09,0,1.64,1.64,0,0,1-.43-1.14,1.62,1.62,0,0,1,.43-1.14A1.38,1.38,0,0,1,306.64,299.48Z" transform="translate(-12.9 -2.54)"/><path d="M90.73,312.52h10V327.6H98V315.2H93.41v12.4H90.73Z" transform="translate(-12.9 -2.54)"/><path d="M108.4,316.16a5.06,5.06,0,0,1,2.73.79,5.4,5.4,0,0,1,2,2.14,6.1,6.1,0,0,1,.72,2.92,6.25,6.25,0,0,1-.72,2.95,5.4,5.4,0,0,1-2,2.15,5.05,5.05,0,0,1-2.74.78,4.91,4.91,0,0,1-3.76-1.71,6.29,6.29,0,0,1,.2-8.51A4.92,4.92,0,0,1,108.4,316.16Zm0,2.63a2.53,2.53,0,0,0-2,.91,3.39,3.39,0,0,0-.8,2.32,3.44,3.44,0,0,0,.79,2.36,2.53,2.53,0,0,0,2,.9,2.57,2.57,0,0,0,2-.91,3.45,3.45,0,0,0,.8-2.35,3.37,3.37,0,0,0-.79-2.33A2.57,2.57,0,0,0,108.44,318.79Z" transform="translate(-12.9 -2.54)"/><path d="M115.94,316.44h2.57v4.18l3.55-4.18h3.14l-4.57,5.44,4.63,5.72h-3.42l-3-3.94-.28.35v3.59h-2.57Z" transform="translate(-12.9 -2.54)"/><path d="M133.88,316.44h2.57V327.6h-2.57v-1.18a5.08,5.08,0,0,1-1.51,1.12,4,4,0,0,1-1.65.35,4.39,4.39,0,0,1-3.43-1.68,6.14,6.14,0,0,1-1.45-4.17,6.33,6.33,0,0,1,1.4-4.23,4.32,4.32,0,0,1,3.41-1.65,3.94,3.94,0,0,1,1.73.38,4.78,4.78,0,0,1,1.5,1.13Zm-2.71,2.3a2.52,2.52,0,0,0-2,.92,3.45,3.45,0,0,0-.79,2.35,3.55,3.55,0,0,0,.8,2.38,2.62,2.62,0,0,0,4,0A3.58,3.58,0,0,0,134,322a3.44,3.44,0,0,0-.8-2.36A2.57,2.57,0,0,0,131.17,318.74Z" transform="translate(-12.9 -2.54)"/><path d="M144.44,316.44h6v2.67H147v8.49h-2.58Z" transform="translate(-12.9 -2.54)"/><path d="M157,316.16a5.11,5.11,0,0,1,2.73.79,5.47,5.47,0,0,1,2,2.14,6.09,6.09,0,0,1,.71,2.92,6.25,6.25,0,0,1-.72,2.95,5.37,5.37,0,0,1-2,2.15,5.05,5.05,0,0,1-2.74.78,4.93,4.93,0,0,1-3.77-1.71,6.29,6.29,0,0,1,.2-8.51A4.94,4.94,0,0,1,157,316.16Zm0,2.63a2.54,2.54,0,0,0-2,.91,3.39,3.39,0,0,0-.8,2.32,3.49,3.49,0,0,0,.79,2.36,2.67,2.67,0,0,0,4,0,3.84,3.84,0,0,0,0-4.68A2.54,2.54,0,0,0,157,318.79Z" transform="translate(-12.9 -2.54)"/><path d="M167.08,316.44v1.23a4.94,4.94,0,0,1,1.51-1.13,3.94,3.94,0,0,1,1.73-.38,4.34,4.34,0,0,1,3.42,1.65,6.33,6.33,0,0,1,1.4,4.23,6.14,6.14,0,0,1-1.45,4.17,4.42,4.42,0,0,1-3.44,1.68,4,4,0,0,1-1.65-.35,5,5,0,0,1-1.52-1.12v5.26h-2.55V316.44Zm2.71,2.3a2.59,2.59,0,0,0-2,.9A3.44,3.44,0,0,0,167,322a3.58,3.58,0,0,0,.8,2.41,2.56,2.56,0,0,0,2,.91,2.53,2.53,0,0,0,2-.93,3.5,3.5,0,0,0,.81-2.38,3.45,3.45,0,0,0-.8-2.35A2.51,2.51,0,0,0,169.79,318.74Z" transform="translate(-12.9 -2.54)"/><path d="M178.63,327.6h-1.37V316.44h2.51V323l5.25-6.56h1.23V327.6h-2.51v-6.42Z" transform="translate(-12.9 -2.54)"/><path d="M187.94,316.44h9.56v2.67h-3.42v8.49h-2.57v-8.49h-3.57Z" transform="translate(-12.9 -2.54)"/><path d="M200.42,324.76l1.83,1-2.32,4.33-1.28-.67Z" transform="translate(-12.9 -2.54)"/><path d="M217.55,316.44h2.57V327.6h-2.57v-1.18a5,5,0,0,1-1.51,1.12,3.89,3.89,0,0,1-1.64.35,4.41,4.41,0,0,1-3.44-1.68,6.19,6.19,0,0,1-1.45-4.17,6.28,6.28,0,0,1,1.41-4.23,4.31,4.31,0,0,1,3.4-1.65,3.91,3.91,0,0,1,1.73.38,4.78,4.78,0,0,1,1.5,1.13Zm-2.7,2.3a2.53,2.53,0,0,0-2,.92,3.94,3.94,0,0,0,0,4.73,2.5,2.5,0,0,0,2,.93,2.57,2.57,0,0,0,2-.91,3.57,3.57,0,0,0,.79-2.41,3.44,3.44,0,0,0-.79-2.36A2.6,2.6,0,0,0,214.85,318.74Z" transform="translate(-12.9 -2.54)"/><path d="M233.7,323.17h-2.07a5.1,5.1,0,0,1-3.22-.88,3.39,3.39,0,0,1-1.13-2.88v-3h2.57v2.75c0,1,.6,1.47,1.81,1.47h2v-4.21h2.57V327.6H233.7Z" transform="translate(-12.9 -2.54)"/><path d="M249.13,322.83h-8.26a3.05,3.05,0,0,0,1,1.89,2.81,2.81,0,0,0,2,.71,3.3,3.3,0,0,0,2.48-1.1l2.17,1.11a5.28,5.28,0,0,1-2,1.85,5.61,5.61,0,0,1-2.68.6,5.1,5.1,0,0,1-3.93-1.66,5.92,5.92,0,0,1-1.52-4.15,6.12,6.12,0,0,1,1.51-4.24,4.91,4.91,0,0,1,3.8-1.68,5.08,5.08,0,0,1,3.94,1.68,6.43,6.43,0,0,1,1.51,4.46Zm-2.57-2.2a2.79,2.79,0,0,0-2.75-2.1,2.89,2.89,0,0,0-1.88.65,3.74,3.74,0,0,0-1,1.45Z" transform="translate(-12.9 -2.54)"/><path d="M260.38,327.6h-2.62l-2.57-7-2.61,7H250l4.37-11.16H256Z" transform="translate(-12.9 -2.54)"/><path d="M266.55,316.16a5.06,5.06,0,0,1,2.73.79,5.4,5.4,0,0,1,2,2.14A6.1,6.1,0,0,1,272,322a6.25,6.25,0,0,1-.72,2.95,5.4,5.4,0,0,1-2,2.15,5.05,5.05,0,0,1-2.74.78,4.89,4.89,0,0,1-3.76-1.71,6.29,6.29,0,0,1,.2-8.51A4.92,4.92,0,0,1,266.55,316.16Zm0,2.63a2.52,2.52,0,0,0-2,.91,3.39,3.39,0,0,0-.8,2.32,3.44,3.44,0,0,0,.79,2.36,2.66,2.66,0,0,0,4,0,3.82,3.82,0,0,0,0-4.68A2.57,2.57,0,0,0,266.59,318.79Z" transform="translate(-12.9 -2.54)"/><path d="M274.09,327.6V316.44h4.12a3.46,3.46,0,0,1,2.75.87,3,3,0,0,1,.73,2,2.44,2.44,0,0,1-1.49,2.35,2.83,2.83,0,0,1,2,2.86,3.17,3.17,0,0,1-.53,1.88,2.53,2.53,0,0,1-1.37,1,8.08,8.08,0,0,1-2.3.25Zm2.57-6.77h1a1.33,1.33,0,0,0,1-.34,1.07,1.07,0,0,0,.34-.77,1.36,1.36,0,0,0-.33-1,1,1,0,0,0-.78-.35h-1.21Zm0,4.62H278a1.27,1.27,0,0,0,1.06-.39,1.18,1.18,0,0,0,.31-.75,1.61,1.61,0,0,0-.34-1,1.49,1.49,0,0,0-1.25-.45h-1.08Z" transform="translate(-12.9 -2.54)"/><path d="M294.69,322.83h-8.26a3.09,3.09,0,0,0,.95,1.89,2.85,2.85,0,0,0,2,.71,3.3,3.3,0,0,0,2.48-1.1l2.17,1.11a5.35,5.35,0,0,1-1.95,1.85,5.64,5.64,0,0,1-2.68.6,5.1,5.1,0,0,1-3.93-1.66,5.92,5.92,0,0,1-1.52-4.15,6.12,6.12,0,0,1,1.51-4.24,4.91,4.91,0,0,1,3.8-1.68,5.08,5.08,0,0,1,3.94,1.68,6.43,6.43,0,0,1,1.51,4.46Zm-2.57-2.2a2.79,2.79,0,0,0-2.75-2.1,2.89,2.89,0,0,0-1.88.65,3.74,3.74,0,0,0-.95,1.45Z" transform="translate(-12.9 -2.54)"/><path d="M296.78,316.44h2.57v4.18l3.54-4.18H306l-4.57,5.44,4.62,5.72h-3.41l-3.06-3.94-.27.35v3.59h-2.57Z" transform="translate(-12.9 -2.54)"/><path d="M103.91,352.8V337.72h2.18a10.78,10.78,0,0,1,2.77.26,3.68,3.68,0,0,1,2.72,3.63,3.51,3.51,0,0,1-.34,1.57,3.83,3.83,0,0,1-1.09,1.31,4.08,4.08,0,0,1,2.44,3.91,4.49,4.49,0,0,1-.61,2.32,3.94,3.94,0,0,1-1.55,1.56,5.55,5.55,0,0,1-2.64.52Zm2.63-12.35v3.18h.58a2,2,0,0,0,1.44-.44A1.56,1.56,0,0,0,109,342a1.45,1.45,0,0,0-.44-1.12,1.92,1.92,0,0,0-1.35-.42Zm0,5.75v3.86h.67a3.81,3.81,0,0,0,2.21-.45,1.57,1.57,0,0,0,.57-1.31,1.9,1.9,0,0,0-.67-1.54,3.44,3.44,0,0,0-2.23-.56Z" transform="translate(-12.9 -2.54)"/><path d="M124.86,343.9l-2.14,1.28a3.67,3.67,0,0,0-1.2-.95,3.27,3.27,0,0,0-1.38-.27,3.08,3.08,0,0,0-2.34.94,3.34,3.34,0,0,0-.89,2.4,3.23,3.23,0,0,0,.86,2.32,3,3,0,0,0,2.26.9,3.17,3.17,0,0,0,2.69-1.28l2,1.51a5.89,5.89,0,0,1-8.89.59,6,6,0,0,1-1.53-4.08,6.08,6.08,0,0,1,.75-3,5.39,5.39,0,0,1,2.07-2.14,5.83,5.83,0,0,1,3-.78,5.66,5.66,0,0,1,2.74.66A5.42,5.42,0,0,1,124.86,343.9Z" transform="translate(-12.9 -2.54)"/><path d="M137.45,348h-8.27a3,3,0,0,0,1,1.89,2.84,2.84,0,0,0,2,.71,3.29,3.29,0,0,0,2.48-1.1l2.17,1.11a5.33,5.33,0,0,1-1.94,1.85,5.65,5.65,0,0,1-2.69.6,5.06,5.06,0,0,1-3.93-1.66,5.91,5.91,0,0,1-1.51-4.15,6.12,6.12,0,0,1,1.51-4.24,4.89,4.89,0,0,1,3.79-1.68,5.05,5.05,0,0,1,3.94,1.68,6.43,6.43,0,0,1,1.52,4.46Zm-2.57-2.2a2.84,2.84,0,0,0-1-1.52,2.74,2.74,0,0,0-1.74-.58,2.89,2.89,0,0,0-1.89.65,3.74,3.74,0,0,0-.94,1.45Z" transform="translate(-12.9 -2.54)"/><path d="M148.7,352.8h-2.62l-2.57-7-2.61,7h-2.61l4.37-11.16h1.66Z" transform="translate(-12.9 -2.54)"/><path d="M160.32,348h-8.26a3.06,3.06,0,0,0,.95,1.89,2.85,2.85,0,0,0,2,.71,3.3,3.3,0,0,0,2.48-1.1l2.16,1.11a5.25,5.25,0,0,1-1.94,1.85,5.64,5.64,0,0,1-2.68.6,5.06,5.06,0,0,1-3.93-1.66,5.92,5.92,0,0,1-1.52-4.15,6.12,6.12,0,0,1,1.51-4.24,4.89,4.89,0,0,1,3.8-1.68,5.08,5.08,0,0,1,3.94,1.68,6.43,6.43,0,0,1,1.51,4.46Zm-2.57-2.2a2.78,2.78,0,0,0-1-1.52,2.74,2.74,0,0,0-1.74-.58,2.93,2.93,0,0,0-1.89.65,3.74,3.74,0,0,0-.94,1.45Z" transform="translate(-12.9 -2.54)"/><path d="M165,345.66h3.84v-4h2.58V352.8h-2.58v-4.63H165v4.63H162.4V341.64H165Z" transform="translate(-12.9 -2.54)"/><path d="M176.55,345.66h3.85v-4H183V352.8H180.4v-4.63h-3.85v4.63H174V341.64h2.57Z" transform="translate(-12.9 -2.54)"/><path d="M190.39,341.36a5.06,5.06,0,0,1,2.73.79,5.47,5.47,0,0,1,2,2.14,6.13,6.13,0,0,1,.72,2.92,6.32,6.32,0,0,1-.72,3,5.43,5.43,0,0,1-2,2.14,5.05,5.05,0,0,1-2.74.78,4.93,4.93,0,0,1-3.77-1.71,6.28,6.28,0,0,1,.21-8.51A4.92,4.92,0,0,1,190.39,341.36Zm0,2.63a2.55,2.55,0,0,0-2,.91,3.38,3.38,0,0,0-.79,2.32,3.48,3.48,0,0,0,.78,2.36,2.67,2.67,0,0,0,4,0,3.86,3.86,0,0,0,0-4.68A2.57,2.57,0,0,0,190.43,344Z" transform="translate(-12.9 -2.54)"/><path d="M199.29,352.8h-1.37V341.64h2.51v6.56l5.25-6.56h1.23V352.8H204.4v-6.42Zm-.64-16.08h2.08a1.54,1.54,0,0,0,.68.63,2.46,2.46,0,0,0,1.07.21,2.74,2.74,0,0,0,1.16-.24,1.42,1.42,0,0,0,.59-.6h2.09a3.11,3.11,0,0,1-1.15,2.09,4.12,4.12,0,0,1-2.7.79,4.66,4.66,0,0,1-1.95-.35,3.11,3.11,0,0,1-1.27-1A3.29,3.29,0,0,1,198.65,336.72Z" transform="translate(-12.9 -2.54)"/><path d="M220.11,349.21l-.28-.34-3.05,3.93h-3.42l4.63-5.73-4.57-5.43h3.14l3.55,4.18v-4.18h2.57v4.18l3.53-4.18h3.15l-4.56,5.44,4.62,5.72H226L223,348.86l-.27.35v3.59h-2.57Z" transform="translate(-12.9 -2.54)"/><path d="M231.83,352.8h-1.37V341.64H233v6.56l5.25-6.56h1.23V352.8H237v-6.42Z" transform="translate(-12.9 -2.54)"/><path d="M242.06,352.8V341.64h4.11a3.49,3.49,0,0,1,2.76.87,3,3,0,0,1,.72,2,2.42,2.42,0,0,1-1.49,2.35,2.84,2.84,0,0,1,2,2.86,3.1,3.1,0,0,1-.54,1.88,2.51,2.51,0,0,1-1.36,1,8.18,8.18,0,0,1-2.3.25Zm2.57-6.77h1a1.33,1.33,0,0,0,1-.34,1.06,1.06,0,0,0,.35-.77,1.36,1.36,0,0,0-.33-1,1.09,1.09,0,0,0-.79-.35h-1.2Zm0,4.62h1.29a1.29,1.29,0,0,0,1.07-.39,1.24,1.24,0,0,0,.31-.75,1.62,1.62,0,0,0-.35-1,1.47,1.47,0,0,0-1.24-.45h-1.08Z" transform="translate(-12.9 -2.54)"/><path d="M262.66,348h-8.27a3,3,0,0,0,1,1.89,2.84,2.84,0,0,0,2,.71,3.3,3.3,0,0,0,2.48-1.1l2.17,1.11a5.33,5.33,0,0,1-1.94,1.85,5.68,5.68,0,0,1-2.69.6,5.06,5.06,0,0,1-3.93-1.66,5.91,5.91,0,0,1-1.51-4.15,6.12,6.12,0,0,1,1.51-4.24,4.89,4.89,0,0,1,3.79-1.68,5.05,5.05,0,0,1,3.94,1.68,6.43,6.43,0,0,1,1.52,4.46Zm-2.57-2.2a2.84,2.84,0,0,0-1-1.52,2.74,2.74,0,0,0-1.74-.58,2.89,2.89,0,0,0-1.89.65,3.74,3.74,0,0,0-.94,1.45Z" transform="translate(-12.9 -2.54)"/><path d="M263.83,341.64h9.55v2.67H270v8.49H267.4v-8.49h-3.57Z" transform="translate(-12.9 -2.54)"/><path d="M280.83,345.94h4.79v2.6h-4.79Z" transform="translate(-12.9 -2.54)"/><path d="M138.6,378H136V366.84h9V378h-2.57v-8.46H138.6Z" transform="translate(-12.9 -2.54)"/><path d="M152.44,366.56a5.06,5.06,0,0,1,2.73.79,5.47,5.47,0,0,1,2,2.14,6.13,6.13,0,0,1,.72,2.92,6.32,6.32,0,0,1-.72,3,5.43,5.43,0,0,1-2,2.14,5.05,5.05,0,0,1-2.74.78,4.93,4.93,0,0,1-3.77-1.71,6.28,6.28,0,0,1,.21-8.51A4.92,4.92,0,0,1,152.44,366.56Zm0,2.63a2.52,2.52,0,0,0-2,.91,3.34,3.34,0,0,0-.8,2.32,3.44,3.44,0,0,0,.79,2.36,2.66,2.66,0,0,0,4,0,3.82,3.82,0,0,0,0-4.68A2.57,2.57,0,0,0,152.48,369.19Z" transform="translate(-12.9 -2.54)"/><path d="M160,366.84h2.57V371l3.55-4.18h3.14l-4.57,5.44,4.62,5.72h-3.41l-3.06-3.94-.27.35V378H160Z" transform="translate(-12.9 -2.54)"/><path d="M177.92,366.84h2.57V378h-2.57v-1.18a5.11,5.11,0,0,1-1.52,1.12,3.89,3.89,0,0,1-1.64.35,4.39,4.39,0,0,1-3.43-1.68,6.14,6.14,0,0,1-1.45-4.17,6.28,6.28,0,0,1,1.4-4.23,4.31,4.31,0,0,1,3.41-1.65,3.94,3.94,0,0,1,1.73.38,4.78,4.78,0,0,1,1.5,1.13Zm-2.71,2.3a2.51,2.51,0,0,0-2,.92,3.46,3.46,0,0,0-.79,2.35,3.53,3.53,0,0,0,.8,2.38,2.62,2.62,0,0,0,4,0,3.58,3.58,0,0,0,.8-2.41,3.44,3.44,0,0,0-.8-2.36A2.59,2.59,0,0,0,175.21,369.14Z" transform="translate(-12.9 -2.54)"/><path d="M187.58,366.84h9.55v2.67h-3.41V378h-2.57v-8.49h-3.57Z" transform="translate(-12.9 -2.54)"/><path d="M198.82,378V366.84h4.12a3.46,3.46,0,0,1,2.75.87,3,3,0,0,1,.73,2,2.44,2.44,0,0,1-1.49,2.35,2.83,2.83,0,0,1,2,2.86,3.17,3.17,0,0,1-.53,1.88,2.53,2.53,0,0,1-1.37,1,8.13,8.13,0,0,1-2.3.25Zm2.57-6.77h1a1.34,1.34,0,0,0,1-.34,1,1,0,0,0,.34-.76,1.37,1.37,0,0,0-.33-1,1.05,1.05,0,0,0-.79-.35h-1.2Zm0,4.62h1.3a1.27,1.27,0,0,0,1.06-.39,1.16,1.16,0,0,0,.31-.75,1.56,1.56,0,0,0-.35-1,1.47,1.47,0,0,0-1.24-.45h-1.08Z" transform="translate(-12.9 -2.54)"/><path d="M214,366.56a5.06,5.06,0,0,1,2.72.79,5.5,5.5,0,0,1,2,2.14,6.12,6.12,0,0,1,.71,2.92,6.32,6.32,0,0,1-.72,3,5.41,5.41,0,0,1-2,2.14,5.08,5.08,0,0,1-2.75.78,4.91,4.91,0,0,1-3.76-1.71,6.29,6.29,0,0,1,.2-8.51A4.94,4.94,0,0,1,214,366.56Zm0,2.63a2.54,2.54,0,0,0-2,.91,3.39,3.39,0,0,0-.8,2.32,3.49,3.49,0,0,0,.79,2.36,2.55,2.55,0,0,0,2,.9,2.57,2.57,0,0,0,2-.91,3.45,3.45,0,0,0,.8-2.35,3.37,3.37,0,0,0-.79-2.33A2.54,2.54,0,0,0,214,369.19Z" transform="translate(-12.9 -2.54)"/><path d="M224.06,366.84v1.23a4.82,4.82,0,0,1,1.51-1.13,3.94,3.94,0,0,1,1.73-.38,4.31,4.31,0,0,1,3.41,1.65,6.28,6.28,0,0,1,1.41,4.23,6.19,6.19,0,0,1-1.45,4.17,4.42,4.42,0,0,1-3.44,1.68,3.9,3.9,0,0,1-1.65-.35,5,5,0,0,1-1.52-1.12v5.26H221.5V366.84Zm2.7,2.3a2.57,2.57,0,0,0-2,.9,3.39,3.39,0,0,0-.8,2.36,3.53,3.53,0,0,0,.8,2.41,2.63,2.63,0,0,0,4,0,3.92,3.92,0,0,0,0-4.73A2.53,2.53,0,0,0,226.76,369.14Z" transform="translate(-12.9 -2.54)"/><path d="M235.61,378h-1.37V366.84h2.51v6.56l5.25-6.56h1.23V378h-2.51v-6.42Z" transform="translate(-12.9 -2.54)"/><path d="M244.92,366.84h9.55v2.67h-3.41V378h-2.57v-8.49h-3.57Z" transform="translate(-12.9 -2.54)"/><path d="M257.55,374.78a1.52,1.52,0,0,1,1.15.51,1.84,1.84,0,0,1,0,2.48,1.53,1.53,0,0,1-1.15.52,1.49,1.49,0,0,1-1.14-.52,1.87,1.87,0,0,1,0-2.48A1.51,1.51,0,0,1,257.55,374.78Zm-1.3-12.24h2.61v11h-2.61Z" transform="translate(-12.9 -2.54)"/></svg>