<?xml version="1.0" encoding="UTF-8"?>
<!DOCTYPE svg PUBLIC "-//W3C//DTD SVG 1.1//EN" "http://www.w3.org/Graphics/SVG/1.1/DTD/svg11.dtd">
<!-- Creator: CorelDRAW X7 -->
<svg xmlns="http://www.w3.org/2000/svg" xml:space="preserve" width="540px" height="990px" version="1.1" style="shape-rendering:geometricPrecision; text-rendering:geometricPrecision; image-rendering:optimizeQuality; fill-rule:evenodd; clip-rule:evenodd"
viewBox="0 0 540 990"
 xmlns:xlink="http://www.w3.org/1999/xlink">
 <defs>
  <style type="text/css">
   <![CDATA[
    .fil0 {fill:white}
    .fil1 {fill:black;fill-rule:nonzero}
   ]]>
  </style>
 </defs>
 <g id="Слой_x0020_1">
  <metadata id="CorelCorpID_0Corel-Layer"/>
  <rect class="fil0" y="45" width="540" height="900"/>
  <g id="_1891163282528">
   <path class="fil1" d="M203 33l4 7 4 0 -4 -7 4 -8 -4 0 -4 8zm-6 0l4 7 4 0 -4 -7 4 -8 -4 0 -4 8zm20 -17l-5 0 0 24 5 0 0 -1 3 -16 0 17 5 0 0 -24 -5 0 0 1 -3 16 0 -17zm16 9c1,0 1,1 1,1l0 3c0,1 0,1 -1,1l-3 0 0 -5 3 0zm1 11c0,0 0,0 -1,0l-3 0 0 -4 3 0c1,0 1,0 1,1l0 3zm4 -3c0,-1 0,-2 -2,-2 2,0 2,-1 2,-2l0 -5c0,-1 -1,-2 -2,-2l-9 0 0 18 8 0c2,0 3,-1 3,-2l0 -5zm9 -1l0 4 -3 0c0,0 0,0 0,0l0 -4c0,0 0,0 0,0l3 0zm-1 -6c1,0 1,0 1,1l0 2 -5 0c-1,0 -2,0 -2,2l0 7c0,1 1,2 2,2l4 0 1 -2 0 2 4 0 0 -16c0,-1 -1,-2 -2,-2l-8 0 0 4 5 0zm14 -4l0 8 -3 0 0 -8 -4 0 0 18 4 0 0 -7 3 0 0 7 4 0 0 -18 -4 0zm10 9l14 0 0 -5 -14 0 0 5zm28 -5l-3 0c0,0 0,0 0,0l0 -10 -5 0 0 11c0,2 1,3 4,3l4 0 0 10 5 0 0 -24 -5 0 0 10zm14 6l0 4 -3 0c0,0 -1,0 -1,0l0 -4c0,0 1,0 1,0l3 0zm-1 -6c1,0 1,0 1,1l0 2 -5 0c-1,0 -2,0 -2,2l0 7c0,1 1,2 2,2l3 0 2 -2 0 2 4 0 0 -16c0,-1 -1,-2 -3,-2l-7 0 0 4 5 0zm15 -9c0,3 -1,2 -3,2 -1,0 -2,1 -3,-2l-2 0c0,4 2,4 5,4 3,0 5,0 5,-4l-2 0zm-4 5l-4 0 0 18 4 0 0 0 3 -12 0 12 4 0 0 -18 -4 0 0 1 -3 11 0 -12zm12 3l-4 0 4 8 -4 7 4 0 4 -7 -4 -8zm6 0l-4 0 4 8 -4 7 4 0 4 -7 -4 -8zm-149 57c0,0 1,0 1,1l0 15c0,1 0,1 -1,1l-2 0c-1,0 -1,0 -1,-1l0 -15c0,-1 0,-1 1,-1l2 0zm5 -1c0,-1 -1,-3 -3,-3l-6 0c-2,0 -3,2 -3,3l0 18c0,2 0,4 3,4l6 0c2,0 3,-2 3,-4l0 -18zm6 7l3 0c0,0 0,1 0,1l0 9c0,1 0,1 0,1l-3 0c0,0 0,0 0,-1l0 -10zm7 -10c-1,0 -2,0 -4,0l0 0c0,0 0,0 0,0l-5 0c-1,0 -2,1 -2,3l0 20c0,1 1,2 2,2l7 0c1,0 2,-1 2,-2l0 -14c0,-1 -1,-2 -2,-2l-5 0 0 -2c0,-1 0,-1 0,-1l5 0c1,0 2,-1 2,-2l0 -2zm6 21c0,0 0,0 0,0l0 -10c0,-1 0,-1 1,-1l2 0c0,0 0,0 0,1l0 10c0,0 0,0 0,0l-3 0zm-4 1c0,2 1,3 2,3l7 0c1,0 2,-1 2,-3l0 -13c0,-1 -1,-2 -2,-2l-7 0c-1,0 -2,1 -2,2l0 13zm20 -7l-2 0c-1,0 -1,0 -1,-1l0 -7 -4 0 0 8c0,2 1,3 3,3l4 0 0 7 4 0 0 -18 -4 0 0 8zm10 -8l-4 0 0 18 4 0 0 -1 3 -12 0 13 4 0 0 -18 -4 0 0 0 -3 12 0 -12zm16 0l0 8 -3 0 0 -8 -4 0 0 18 4 0 0 -8 3 0 0 8 4 0 0 -18 -4 0zm10 0l-4 0 0 18 9 0c1,0 2,-1 2,-2l0 -8c0,-2 -1,-2 -2,-2l-5 0 0 -6zm0 14l0 -5 3 0c0,0 0,0 0,1l0 4c0,0 0,0 0,0l-3 0zm13 -14l-4 0 0 18 4 0 0 -18zm11 14c1,-4 1,-6 1,-10l3 0 0 10 -4 0zm-1 4l7 0 0 4 3 -1 0 -7 -1 0 0 -14 -10 0c0,7 -1,11 -2,14l-1 0 0 8 4 -1 0 -3zm17 -4c-1,0 -1,0 -1,0l0 -10c0,-1 0,-1 1,-1l2 0c0,0 1,0 1,1l0 10c0,0 -1,0 -1,0l-2 0zm-5 1c0,2 1,3 3,3l6 0c2,0 2,-1 2,-3l0 -13c0,-1 0,-2 -2,-2l-6 0c-2,0 -3,1 -3,2l0 13zm22 3c2,0 2,-1 2,-3l0 -13c0,-1 0,-2 -2,-2l-9 0 0 25 4 0 0 -9 2 2 3 0zm-5 -4l0 -11 3 0c0,0 1,0 1,1l0 9c0,1 -1,1 -1,1l-3 0zm14 0c-1,0 -1,0 -1,0l0 -10c0,-1 1,-1 1,-1l2 0c0,0 1,0 1,1l0 10c0,0 -1,0 -1,0l-2 0zm-5 1c0,2 1,3 3,3l6 0c2,0 2,-1 2,-3l0 -13c0,-1 0,-2 -2,-2l-6 0c-2,0 -3,1 -3,2l0 13zm13 3l4 0 0 -14 5 0 -1 -4 -8 0 0 18zm11 -3c0,2 0,3 2,3 -1,1 -1,1 -1,2l1 0c1,-1 3,-3 3,-5 0,-1 -1,-2 -3,-2 -1,0 -2,1 -2,2zm-180 51c0,1 0,1 -1,1l-3 0 1 3 3 0c2,0 3,-1 3,-2l4 -23 -4 0 -2 15 -2 0 -1 -15 -5 0 3 17c0,1 1,1 2,1l2 0 0 3zm12 -21l-4 0 0 18 4 0 0 -7 2 0 2 7 4 0 -3 -9 2 -5c0,0 0,0 0,0l1 0 -1 -4 -3 0c0,0 0,0 0,1l-3 7 -1 0 0 -8zm19 18c1,0 2,-1 2,-2l0 -14c0,-1 -1,-2 -2,-2l-9 0 0 25 4 0 0 -9 1 2 4 0zm-5 -4l0 -10 2 0c1,0 1,0 1,0l0 10c0,0 0,0 -1,0l-2 0zm16 -4l0 4 -3 0c0,0 -1,0 -1,0l0 -4c0,0 1,0 1,0l3 0zm-1 -6c1,0 1,0 1,1l0 2 -5 0c-1,0 -2,1 -2,2l0 7c0,1 1,2 2,2l3 0 2 -2 0 2 4 0 0 -15c0,-2 -1,-3 -3,-3l-7 0 0 4 5 0zm11 1c0,-1 0,-1 0,-1l5 0 -1 -4 -6 0c-1,0 -2,1 -2,2l0 14c0,1 0,2 2,2l6 0 1 -4 -5 0c0,0 0,0 0,0l0 -9zm10 -5l-4 0 0 18 4 0 0 0 3 -12 0 12 4 0 0 -18 -4 0 0 1 -3 11 0 -12zm11 14l-2 0 1 4 5 0 0 -14 3 0 0 14 4 0 0 -18 -11 0 0 14zm21 -20l-4 0 0 24 4 0 0 -1 4 -16 0 17 4 0 0 -24 -4 0 0 1 -4 16 0 -17zm17 10c1,0 1,0 1,0l0 3c0,1 0,1 -1,1l-3 0 0 -4 3 0zm1 10c0,0 0,0 -1,0l-3 0 0 -4 3 0c1,0 1,0 1,1l0 3zm4 -3c0,-1 -1,-2 -2,-2 1,0 2,-1 2,-2l0 -4c0,-2 -1,-3 -3,-3l-9 0 0 18 9 0c2,0 3,-1 3,-2l0 -5zm9 -1l0 4 -3 0c0,0 -1,0 -1,0l0 -4c0,0 1,0 1,0l3 0zm-1 -6c1,0 1,0 1,1l0 2 -5 0c-1,0 -2,1 -2,2l0 7c0,1 1,2 2,2l3 0 2 -2 0 2 4 0 0 -15c0,-2 -1,-3 -3,-3l-7 0 -1 4 6 0zm14 -4l0 8 -4 0 0 -8 -3 0 0 18 3 0 0 -7 4 0 0 7 4 0 0 -18 -4 0zm6 8l7 0 0 -3 -7 0 0 3zm21 -4l-3 0c0,0 0,0 0,0l0 -10 -5 0 0 11c0,2 1,3 4,3l4 0 0 10 5 0 0 -24 -5 0 0 10zm14 6l0 4 -3 0c-1,0 -1,0 -1,0l0 -4c0,0 0,0 1,0l3 0zm-1 -6c1,0 1,0 1,1l0 2 -5 0c-2,0 -2,1 -2,2l0 7c0,1 1,2 2,2l3 0 2 -2 0 2 4 0 0 -15c0,-2 -1,-3 -3,-3l-7 0 -1 4 6 0zm15 -9c0,3 -2,3 -3,3 -1,0 -3,0 -3,-3l-2 0c0,4 2,4 5,4 3,0 5,0 5,-4l-2 0zm-5 5l-3 0 0 18 3 0 0 0 4 -12 0 12 3 0 0 -18 -3 0 0 1 -4 11 0 -12zm9 16c0,1 1,2 2,2 0,1 0,2 -1,3l2 0c1,-2 3,-4 3,-5 0,-2 -2,-3 -3,-3 -1,0 -3,1 -3,3zm-198 27c1,0 1,0 1,1l0 5c0,1 0,1 -1,1l-3 0 0 -7 3 0zm1 16c0,1 0,1 -1,1l-3 0 0 -7 3 0c1,0 1,1 1,1l0 5zm3 -7c1,0 1,-1 1,-2l0 -8c0,-2 -1,-3 -3,-3l-9 0 0 25 9 0c2,0 3,-1 3,-4l0 -6c0,-1 0,-2 -1,-2zm10 12c2,0 2,-1 2,-2l0 -5c0,-1 0,-2 -1,-2 1,0 1,-1 1,-2l0 -5c0,-2 0,-2 -2,-2l-6 0c0,1 -1,2 -1,4l5 0c0,0 0,0 0,0l0 3c0,0 0,0 0,0l-4 0 0 3 4 0c0,0 0,0 0,1l0 2c0,1 0,1 0,1l-5 0c0,1 1,2 1,4l6 0zm9 -4c-1,0 -1,0 -1,0l0 -10c0,-1 1,-1 1,-1l2 0c0,0 1,0 1,1l0 10c0,0 -1,0 -1,0l-2 0zm-5 1c0,2 1,3 3,3l6 0c2,0 2,-1 2,-3l0 -13c0,-1 0,-2 -2,-2l-6 0c-2,0 -3,1 -3,2l0 13zm17 -12l3 0c0,0 1,1 1,1l0 9c0,1 0,1 -1,1l-2 0c-1,0 -1,0 -1,-1l0 -10zm7 -10c-1,0 -2,0 -3,0l0 0c0,0 0,0 -1,0l-4 0c-2,0 -3,1 -3,3l0 20c0,1 1,2 3,2l6 0c2,0 3,-1 3,-2l0 -14c0,-1 -1,-2 -3,-2l-5 0 0 -2c0,-1 1,-1 1,-1l4 0c2,0 2,-1 2,-2l0 -2zm11 25c2,0 3,-1 3,-3l0 -13c0,-1 -1,-2 -2,-2l-9 0 0 25 3 0 0 -9 2 2 3 0zm-5 -4l0 -11 3 0c0,0 1,0 1,1l0 9c0,1 -1,1 -1,1l-3 0zm17 -5l0 5 -3 0c-1,0 -1,0 -1,-1l0 -3c0,-1 0,-1 1,-1l3 0zm-1 -5c0,0 1,0 1,0l0 2 -5 0c-2,0 -2,1 -2,2l0 8c0,1 0,2 2,2l3 0 2 -2 0 2 3 0 0 -16c0,-1 0,-2 -2,-2l-7 0 -1 4 6 0zm8 10l-2 0 1 4 5 0 0 -15 3 0 0 15 4 0 0 -18 -11 0 0 14zm17 -10c0,0 0,0 1,0l4 0 -1 -4 -6 0c-1,0 -2,0 -2,2l0 14c0,1 1,2 2,2l6 0 1 -4 -4 0c-1,0 -1,0 -1,-1l0 -9zm6 6c0,1 1,2 2,2 0,0 -1,1 -1,1l-1 5 4 0 1 -5c0,-1 0,-1 1,-1l1 0 0 6 4 0 0 -18 -8 0c-2,0 -3,1 -3,2l0 8zm7 -7l0 7 -2 0c-1,0 -1,-1 -1,-1l0 -5c0,-1 0,-1 1,-1l2 0zm17 -3l0 8 -3 0 0 -8 -4 0 0 18 4 0 0 -8 3 0 0 8 4 0 0 -18 -4 0zm13 9l0 5 -2 0c-1,0 -1,0 -1,-1l0 -3c0,-1 0,-1 1,-1l2 0zm0 -5c0,0 0,0 0,0l0 2 -4 0c-2,0 -3,1 -3,2l0 8c0,1 1,2 2,2l4 0 1 -2 0 2 4 0 0 -16c0,-1 -1,-2 -2,-2l-7 0 -1 4 6 0zm14 0c0,0 1,0 1,0l4 0 -1 -4 -6 0c-1,0 -2,0 -2,2l0 14c0,1 1,2 2,2l6 0 1 -4 -4 0c0,0 -1,0 -1,-1l0 -9zm11 -4l-4 0 0 18 4 0 0 -8 1 0 2 8 5 0 -3 -10 1 -4c0,0 0,0 1,0l1 0 -1 -4 -3 0c0,0 0,0 0,0l-3 8 -1 0 0 -8zm16 9l0 5 -3 0c0,0 0,0 0,-1l0 -3c0,-1 0,-1 0,-1l3 0zm-1 -5c1,0 1,0 1,0l0 2 -5 0c-1,0 -2,1 -2,2l0 8c0,1 1,2 2,2l3 0 2 -2 0 2 4 0 0 -16c0,-1 -1,-2 -2,-2l-8 0 0 4 5 0zm8 10l-2 0 1 4 5 0 0 -15 3 0 0 15 4 0 0 -18 -11 0 0 14zm19 7c0,0 0,0 -1,0l-3 0 1 4 3 0c2,0 3,-1 3,-2l4 -23 -4 0 -2 15 -1 0 -2 -15 -4 0 2 16c0,1 1,2 2,2l3 0 -1 3zm-189 18l-4 0 0 24 4 0 0 -1 4 -16 0 17 4 0 0 -24 -4 0 0 1 -4 16 0 -17zm21 16l0 4 -2 0c-1,0 -1,0 -1,0l0 -4c0,0 0,0 0,0l3 0zm0 -6c0,0 0,0 0,1l0 2 -5 0c-1,0 -2,1 -2,2l0 7c0,1 1,2 2,2l4 0 1 -2 0 2 4 0 0 -15c0,-2 -1,-3 -2,-3l-7 0 -1 4 6 0zm7 10l-2 0 1 4 5 0 0 -14 4 0 0 14 3 0 0 -18 -11 0 0 14zm18 1c0,0 -1,0 -1,-1l0 -10c0,0 1,0 1,0l2 0c0,0 1,0 1,0l0 10c0,1 0,1 -1,1l-2 0zm-5 1c0,1 1,2 3,2l6 0c2,0 3,-1 3,-2l0 -13c0,-2 -1,-3 -3,-3l-6 0c-2,0 -3,1 -3,3l0 13zm22 -21c0,3 -2,3 -3,3 -1,0 -3,0 -3,-3l-2 0c0,4 2,4 5,4 3,0 5,0 5,-4l-2 0zm-5 5l-3 0 0 18 3 0 0 0 4 -12 0 12 3 0 0 -18 -3 0 0 1 -4 11 0 -12zm18 0l-4 0 0 18 4 0 0 -7 1 0 2 7 4 0 -3 -9 2 -5c0,0 0,0 0,0l1 0 -1 -4 -2 0c-1,0 -1,0 -1,1l-2 7 -1 0 0 -8zm13 0l-4 0 0 18 4 0 0 0 3 -12 0 12 4 0 0 -18 -4 0 0 1 -3 11 0 -12zm13 5c0,-1 0,-1 1,-1l4 0 -1 -4 -6 0c-1,0 -2,1 -2,2l0 14c0,1 1,2 2,2l6 0 1 -4 -4 0c-1,0 -1,0 -1,0l0 -9zm9 13l4 0 0 -14 3 0 -1 -4 -8 0 -1 4 3 0 0 14zm13 -3c0,0 -1,0 -1,-1l0 -10c0,0 1,0 1,0l2 0c1,0 1,0 1,0l0 10c0,1 0,1 -1,1l-2 0zm-4 1c0,1 0,2 2,2l6 0c2,0 3,-1 3,-2l0 -13c0,-2 -1,-3 -3,-3l-6 0c-2,0 -2,1 -2,3l0 13zm20 -7l-3 0c0,0 0,-1 0,-1l0 -8 -4 0 0 9c0,2 0,2 2,2l5 0 0 7 4 0 0 -18 -4 0 0 9zm10 -9l-4 0 0 18 4 0 0 -7 1 0 2 7 5 0 -3 -9 1 -5c0,0 0,0 1,0l1 0 -1 -4 -3 0c0,0 -1,0 -1,1l-2 7 -1 0 0 -8zm14 15c-1,0 -1,0 -1,-1l0 -10c0,0 0,0 1,0l2 0c0,0 0,0 0,0l0 10c0,1 0,1 0,1l-2 0zm-5 1c0,1 1,2 2,2l7 0c2,0 2,-1 2,-2l0 -13c0,-2 0,-3 -2,-3l-7 0c-1,0 -2,1 -2,3l0 13zm21 -21c0,3 -1,3 -2,3 -2,0 -3,0 -3,-3l-2 0c0,4 2,4 5,4 2,0 4,0 5,-4l-3 0zm-4 5l-4 0 0 18 4 0 0 0 3 -12 0 12 4 0 0 -18 -4 0 0 1 -3 11 0 -12zm-187 49l0 15 4 0 0 -18 -11 0 0 18 4 0 0 -15 3 0zm15 15c1,0 2,-1 2,-3l0 -13c0,-1 -1,-2 -2,-2l-9 0 0 25 4 0 0 -9 1 2 4 0zm-5 -4l0 -11 2 0c1,0 1,0 1,1l0 9c0,1 0,1 -1,1l-2 0zm13 -14l-4 0 0 18 4 0 0 -1 3 -12 0 13 4 0 0 -18 -4 0 0 0 -3 12 0 -12zm15 3c1,0 1,0 1,1l0 3c0,0 0,1 0,1l-3 0 0 -5 2 0zm1 10c0,1 0,1 0,1l-3 0 0 -4 2 0c1,0 1,0 1,1l0 2zm4 -2c0,-1 0,-2 -1,-2 1,-1 1,-2 1,-2l0 -5c0,-1 -1,-2 -2,-2l-9 0 0 18 9 0c1,0 2,-1 2,-3l0 -4zm6 0l7 0 0 -9c0,-2 -1,-2 -2,-2l-7 0c-1,0 -2,1 -2,2l0 14c0,1 1,2 2,2l8 0 1 -4 -6 0c-1,0 -1,0 -1,-1l0 -2zm0 -7c0,-1 0,-1 1,-1l2 0c0,0 0,0 0,1l0 4 -3 0 0 -4zm11 14l4 0 0 -14 3 0 -1 -4 -8 0 -1 4 3 0 0 14zm13 -14c0,0 0,0 0,0l5 0 -1 -4 -6 0c-1,0 -2,0 -2,2l0 14c0,1 0,2 2,2l6 0 1 -4 -5 0c0,0 0,0 0,-1l0 -9zm9 14l4 0 0 -14 3 0 -1 -4 -8 0 -1 4 3 0 0 14zm15 -15c1,0 1,0 1,1l0 3c0,0 0,1 -1,1l-3 0 0 -5 3 0zm1 10c0,1 0,1 -1,1l-3 0 0 -4 3 0c1,0 1,0 1,1l0 2zm4 -2c0,-1 -1,-2 -2,-2 1,-1 2,-2 2,-2l0 -5c0,-1 -1,-2 -3,-2l-9 0 0 18 9 0c2,0 3,-1 3,-3l0 -4zm8 10c-1,0 -1,0 -2,0l-3 0 1 4 4 0c2,0 3,-1 3,-2l3 -23 -4 0 -2 15 -1 0 -2 -15 -4 0 3 16c0,1 0,2 1,2l3 0 0 3zm12 -10l6 0 0 -9c0,-2 0,-2 -2,-2l-6 0c-1,0 -2,1 -2,2l0 14c0,1 1,2 2,2l7 0 1 -4 -6 0c0,0 0,0 0,-1l0 -2zm0 -7c0,-1 0,-1 0,-1l2 0c1,0 1,0 1,1l0 4 -3 0 0 -4zm11 14l4 0 0 -14 3 0 -1 -4 -8 0 -1 4 3 0 0 14zm20 0c1,0 2,-1 2,-2l0 -5c0,-1 -1,-2 -2,-2 1,0 2,-1 2,-2l0 -5c0,-2 -1,-2 -3,-2l-6 0c0,1 0,2 -1,4l5 0c0,0 1,0 1,0l0 3c0,0 -1,0 -1,0l-3 0 0 3 3 0c1,0 1,0 1,1l0 2c0,1 -1,1 -1,1l-5 0c0,1 1,2 1,4l7 0zm11 -9l0 5 -3 0c-1,0 -1,0 -1,-1l0 -3c0,-1 0,-1 1,-1l3 0zm-1 -5c0,0 1,0 1,0l0 2 -5 0c-2,0 -2,1 -2,2l0 8c0,1 0,2 2,2l3 0 2 -2 0 2 3 0 0 -16c0,-1 0,-2 -2,-2l-7 0 -1 4 6 0zm15 14c2,0 2,-1 2,-3l0 -13c0,-1 0,-2 -2,-2l-9 0 0 25 4 0 0 -9 2 2 3 0zm-5 -4l0 -11 3 0c0,0 1,0 1,1l0 9c0,1 -1,1 -1,1l-3 0zm17 1c0,2 0,3 2,3l6 0c2,0 3,-1 3,-3l0 -13c0,-1 -1,-2 -3,-2l-6 0c-2,0 -2,1 -2,2l0 5 -4 0 0 -7 -4 0 0 18 4 0 0 -8 4 0 0 5zm4 -1c0,0 -1,0 -1,0l0 -10c0,-1 1,-1 1,-1l2 0c1,0 1,0 1,1l0 10c0,0 0,0 -1,0l-2 0zm9 1c0,2 1,3 2,3 2,0 3,-1 3,-3 0,-1 -1,-2 -3,-2 -1,0 -2,1 -2,2zm-266 24l-4 0 0 24 4 0 0 -1 4 -16 0 17 4 0 0 -24 -4 0 0 1 -4 16 0 -17zm23 24c2,0 2,-1 2,-2l0 -14c0,-1 0,-2 -2,-2l-9 0 0 25 4 0 0 -9 2 2 3 0zm-5 -4l0 -10 3 0c0,0 0,0 0,0l0 10c0,0 0,0 0,0l-3 0zm16 -4l0 4 -2 0c-1,0 -1,0 -1,0l0 -4c0,0 0,0 0,0l3 0zm0 -6c0,0 0,0 0,1l0 2 -5 0c-1,0 -2,1 -2,2l0 7c0,1 1,2 2,2l4 0 1 -2 0 2 4 0 0 -15c0,-2 -1,-3 -2,-3l-7 0 -1 4 6 0zm11 10c1,-3 1,-6 1,-10l3 0 0 10 -4 0zm-1 4l7 0 0 4 3 -1 0 -7 -1 0 0 -14 -10 0c0,8 -1,12 -2,14l-1 0 0 8 4 -1 0 -3zm17 -3c-1,0 -1,0 -1,-1l0 -10c0,0 0,0 1,0l2 0c0,0 0,0 0,0l0 10c0,1 0,1 0,1l-2 0zm-5 1c0,1 1,2 2,2l7 0c2,0 2,-1 2,-2l0 -13c0,-2 0,-3 -2,-3l-7 0c-1,0 -2,1 -2,3l0 13zm17 -11c0,-1 1,-1 1,-1l4 0 -1 -4 -6 0c-1,0 -2,1 -2,2l0 14c0,1 1,2 2,2l6 0 1 -4 -4 0c0,0 -1,0 -1,0l0 -9zm9 13l4 0 0 -14 4 0 -1 -4 -9 0 -1 4 3 0 0 14zm13 -18l-4 0 0 18 9 0c1,0 2,-1 2,-2l0 -8c0,-1 -1,-2 -2,-2l-5 0 0 -6zm0 15l0 -5 2 0c1,0 1,0 1,0l0 4c0,0 0,1 -1,1l-2 0zm22 3c1,0 2,-1 2,-2l0 -14c0,-1 -1,-2 -2,-2l-9 0 0 25 4 0 0 -9 1 2 4 0zm-5 -4l0 -10 3 0c0,0 0,0 0,0l0 10c0,0 0,0 0,0l-3 0zm16 -4l0 4 -3 0c0,0 0,0 0,0l0 -4c0,0 0,0 0,0l3 0zm0 -6c0,0 0,0 0,1l0 2 -5 0c-1,0 -2,1 -2,2l0 7c0,1 1,2 2,2l4 0 1 -2 0 2 4 0 0 -15c0,-2 -1,-3 -2,-3l-7 0 -1 4 6 0zm13 14c1,0 2,-1 2,-2l0 -5c0,-1 0,-1 -1,-2 1,0 1,-1 1,-1l0 -6c0,-1 -1,-2 -2,-2l-6 0c-1,2 -1,3 -1,4l4 0c1,0 1,0 1,1l0 2c0,1 0,1 -1,1l-3 0 0 3 3 0c1,0 1,0 1,0l0 3c0,0 0,0 -1,0l-4 0c0,2 0,3 0,4l7 0zm4 0l4 0 0 -14 5 0 -1 -4 -8 0 0 18zm15 -3c-1,0 -1,0 -1,-1l0 -10c0,0 0,0 1,0l2 0c0,0 0,0 0,0l0 10c0,1 0,1 0,1l-2 0zm-5 1c0,1 1,2 2,2l7 0c2,0 2,-1 2,-2l0 -13c0,-2 0,-3 -2,-3l-7 0c-1,0 -2,1 -2,3l0 13zm22 2c2,0 2,-1 2,-2l0 -14c0,-1 0,-2 -2,-2l-9 0 0 25 4 0 0 -9 2 2 3 0zm-5 -4l0 -10 3 0c0,0 1,0 1,0l0 10c0,0 -1,0 -1,0l-3 0zm16 -4l0 4 -2 0c-1,0 -1,0 -1,0l0 -4c0,0 0,0 1,0l2 0zm0 -6c0,0 0,0 0,1l0 2 -4 0c-2,0 -3,1 -3,2l0 7c0,1 1,2 2,2l4 0 1 -2 0 2 4 0 0 -15c0,-2 -1,-3 -2,-3l-7 0 -1 4 6 0zm10 7l7 0 0 -9c0,-1 -1,-2 -2,-2l-7 0c-1,0 -2,1 -2,2l0 14c0,1 1,2 2,2l8 0 1 -4 -6 0c-1,0 -1,0 -1,0l0 -3zm0 -7c0,0 0,0 1,0l2 0c0,0 0,0 0,0l0 5 -3 0 0 -5zm11 14l4 0 0 -14 3 0 -1 -4 -8 0 -1 4 3 0 0 14zm13 -13c0,-1 0,-1 0,-1l5 0 -1 -4 -6 0c-1,0 -2,1 -2,2l0 14c0,1 0,2 2,2l6 0 1 -4 -5 0c0,0 0,0 0,0l0 -9zm6 6c0,1 1,2 2,2 -1,0 -1,0 -1,1l-1 4 4 0 1 -4c0,-1 0,-1 1,-1l1 0 0 5 4 0 0 -18 -9 0c-1,0 -2,1 -2,2l0 9zm7 -7l0 6 -2 0c-1,0 -1,0 -1,-1l0 -5c0,0 0,0 1,0l2 0zm17 0c0,0 1,0 1,0l0 3c0,1 -1,1 -1,1l-3 0 0 -4 3 0zm1 10c0,0 0,0 -1,0l-3 0 0 -4 3 0c0,0 1,0 1,1l0 3zm4 -3c0,-1 -1,-2 -2,-2 1,0 1,-1 1,-2l0 -4c0,-2 0,-3 -2,-3l-9 0 0 18 9 0c2,0 3,-1 3,-2l0 -5zm11 3c1,-3 1,-6 1,-10l3 0 0 10 -4 0zm-2 4l7 0 0 4 4 -1 0 -7 -1 0 0 -14 -11 0c0,8 0,12 -1,14l-1 0 0 8 3 -1 0 -3zm19 3c0,1 -1,1 -1,1l-4 0 2 3 3 0c2,0 3,-1 3,-2l4 -23 -5 0 -1 15 -2 0 -2 -15 -4 0 3 17c0,1 1,1 2,1l2 0 0 3zm12 -7l0 -14 -4 0 0 18 18 0 0 -18 -4 0 0 14 -3 0 0 -14 -4 0 0 14 -3 0zm20 -3l7 0 0 -9c0,-1 -1,-2 -2,-2l-7 0c-1,0 -2,1 -2,2l0 14c0,1 1,2 2,2l8 0 1 -4 -6 0c-1,0 -1,0 -1,0l0 -3zm0 -7c0,0 0,0 1,0l2 0c0,0 0,0 0,0l0 5 -3 0 0 -5zm9 12c0,1 1,2 2,2 0,1 -1,2 -1,3l2 0c1,-2 2,-4 2,-5 0,-2 -1,-3 -2,-3 -2,0 -3,1 -3,3zm-310 34l-3 0c0,0 0,0 0,-1l0 -10 -5 0 0 11c0,3 1,4 4,4l4 0 0 10 5 0 0 -25 -5 0 0 11zm9 14l4 0 0 -14 3 0 -1 -4 -8 0 -1 4 3 0 0 14zm13 -4c0,0 0,0 0,0l0 -10c0,-1 0,-1 0,-1l2 0c1,0 1,0 1,1l0 10c0,0 0,0 -1,0l-2 0zm-4 1c0,2 0,3 2,3l7 0c1,0 2,-1 2,-3l0 -13c0,-1 -1,-2 -2,-2l-7 0c-2,0 -2,1 -2,2l0 13zm24 0l2 -8 0 11 4 0 0 -18 -4 0c-1,2 -2,6 -2,8l-3 -8 -4 0 0 18 4 0 0 -11 3 8zm15 -6l0 5 -2 0c-1,0 -1,0 -1,-1l0 -3c0,-1 0,-1 1,-1l2 0zm0 -5c0,0 0,0 0,0l0 2 -4 0c-2,0 -3,1 -3,2l0 8c0,1 1,2 2,2l4 0 1 -2 0 2 4 0 0 -16c0,-1 -1,-2 -2,-2l-7 0 -1 4 6 0z"/>
   <path class="fil1" d="M186 368c0,1 1,2 2,2 -1,0 -1,1 -1,1l-1 5 4 0 1 -5c0,-1 0,-1 1,-1l1 0 0 6 4 0 0 -18 -9 0c-1,0 -2,1 -2,2l0 8zm7 -7l0 7 -3 0c0,0 0,-1 0,-1l0 -5c0,-1 0,-1 1,-1l2 0zm13 5l-3 0c0,0 0,0 0,-1l0 -7 -4 0 0 8c0,2 1,3 2,3l5 0 0 7 4 0 0 -18 -4 0 0 8zm11 6c-1,0 -1,0 -1,0l0 -10c0,-1 0,-1 1,-1l2 0c0,0 0,0 0,1l0 10c0,0 0,0 0,0l-2 0zm-5 1c0,2 1,3 2,3l7 0c1,0 2,-1 2,-3l0 -13c0,-1 -1,-2 -2,-2l-7 0c-1,0 -2,1 -2,2l0 13zm17 -15l-4 0 0 18 4 0 0 -8 1 0 3 8 4 0 -3 -10 1 -4c0,0 1,0 1,0l1 0 -1 -4 -3 0c0,0 0,0 0,0l-3 8 -1 0 0 -8zm18 11l6 0 0 -9c0,-2 0,-2 -2,-2l-6 0c-1,0 -2,1 -2,2l0 14c0,1 1,2 2,2l7 0 1 -4 -6 0c0,0 0,0 0,-1l0 -2zm0 -7c0,-1 0,-1 0,-1l2 0c1,0 1,0 1,1l0 4 -3 0 0 -4zm8 14l4 0 0 -14 5 0 -1 -4 -8 0 0 18zm15 -4c0,0 -1,0 -1,0l0 -10c0,-1 1,-1 1,-1l2 0c1,0 1,0 1,1l0 10c0,0 0,0 -1,0l-2 0zm-4 1c0,2 0,3 2,3l7 0c1,0 2,-1 2,-3l0 -13c0,-1 -1,-2 -2,-2l-7 0c-2,0 -2,1 -2,2l0 13zm24 3c1,0 2,-1 2,-2l0 -5c0,-1 0,-2 -1,-2 1,0 1,-1 1,-2l0 -5c0,-2 -1,-2 -2,-2l-6 0c-1,1 -1,2 -1,4l4 0c1,0 1,0 1,0l0 3c0,0 0,0 -1,0l-3 0 0 3 3 0c1,0 1,0 1,1l0 2c0,1 0,1 -1,1l-4 0c0,1 0,2 0,4l7 0zm11 -9l0 5 -3 0c0,0 0,0 0,-1l0 -3c0,-1 0,-1 0,-1l3 0zm-1 -5c1,0 1,0 1,0l0 2 -5 0c-1,0 -2,1 -2,2l0 8c0,1 1,2 2,2l3 0 2 -2 0 2 4 0 0 -16c0,-1 -1,-2 -3,-2l-7 0 0 4 5 0zm24 0c0,0 0,0 1,0l1 0 -1 -4 -3 0c0,0 0,0 0,0l-3 8 -1 0 0 -8 -4 0 0 8 -1 0 -2 -8c0,0 0,0 -1,0l-3 0 -1 4 2 0c0,0 0,0 0,0l2 4 -3 10 4 0c1,-3 1,-5 2,-8l1 0 0 8 4 0 0 -8 2 0 2 8 4 0c-1,-4 -2,-7 -3,-10l1 -4zm22 0c0,0 0,0 0,0l2 0 -1 -4 -3 0c0,0 -1,0 -1,0l-2 8 -1 0 0 -8 -4 0 0 8 -1 0 -3 -8c0,0 0,0 0,0l-3 0 -1 4 1 0c1,0 1,0 1,0l1 4 -3 10 4 0c1,-3 2,-5 3,-8l1 0 0 8 4 0 0 -8 1 0 2 8 5 0c-1,-4 -2,-7 -3,-10l1 -4zm7 7l7 0 0 -9c0,-2 -1,-2 -2,-2l-6 0c-2,0 -3,1 -3,2l0 14c0,1 1,2 2,2l8 0 1 -4 -6 0c-1,0 -1,0 -1,-1l0 -2zm0 -7c0,-1 0,-1 1,-1l2 0c0,0 1,0 1,1l0 4 -4 0 0 -4zm16 -4l0 8 -3 0 0 -8 -4 0 0 18 4 0 0 -8 3 0 0 8 4 0 0 -18 -4 0zm16 21c0,0 0,0 -1,0l-3 0 1 4 4 0c1,0 2,-1 2,-2l4 -23 -4 0 -2 15 -1 0 -2 -15 -4 0 2 16c0,1 1,2 2,2l3 0 -1 3zm26 -17c0,0 0,0 1,0l1 0 -1 -4 -3 0c0,0 0,0 0,0l-3 8 -1 0 0 -8 -4 0 0 8 -1 0 -2 -8c0,0 -1,0 -1,0l-3 0 -1 4 1 0c1,0 1,0 1,0l1 4 -3 10 5 0c0,-3 1,-5 2,-8l1 0 0 8 4 0 0 -8 1 0 2 8 5 0c-1,-4 -2,-7 -3,-10l1 -4zm8 7l6 0 0 -9c0,-2 0,-2 -2,-2l-6 0c-1,0 -2,1 -2,2l0 14c0,1 0,2 2,2l7 0 1 -4 -6 0c0,0 0,0 0,-1l0 -2zm0 -7c0,-1 0,-1 0,-1l2 0c1,0 1,0 1,1l0 4 -3 0 0 -4zm-255 41l-3 0 0 18 3 0 0 0 4 -12 0 12 3 0 0 -18 -3 0 0 1 -4 11 0 -12zm21 0l0 8 -4 0 0 -8 -3 0 0 18 3 0 0 -7 4 0 0 7 4 0 0 -18 -4 0zm13 10l0 4 -3 0c-1,0 -1,0 -1,0l0 -4c0,0 0,0 1,0l3 0zm-1 -6c0,0 1,0 1,1l0 2 -5 0c-2,0 -2,1 -2,2l0 7c0,1 0,2 2,2l3 0 2 -2 0 2 3 0 0 -15c0,-2 0,-3 -2,-3l-7 0 -1 4 6 0zm12 10l-2 0 1 4 5 0 0 -14 3 0 0 14 4 0 0 -18 -11 0 0 14zm17 -3l7 0 0 -9c0,-1 -1,-2 -2,-2l-7 0c-1,0 -2,1 -2,2l0 14c0,1 1,2 2,2l8 0 0 -4 -6 0c0,0 0,0 0,0l0 -3zm0 -7c0,0 0,0 0,0l2 0c1,0 1,0 1,0l0 5 -3 0 0 -5zm13 1c0,-1 0,-1 0,-1l5 0 -1 -4 -6 0c-2,0 -2,1 -2,2l0 14c0,1 0,2 2,2l6 0 1 -4 -5 0c0,0 0,0 0,0l0 -9zm13 -5l0 8 -3 0 0 -8 -4 0 0 18 4 0 0 -7 3 0 0 7 4 0 0 -18 -4 0zm11 15c-1,0 -1,0 -1,-1l0 -10c0,0 0,0 1,0l2 0c0,0 1,0 1,0l0 10c0,1 -1,1 -1,1l-2 0zm-5 1c0,1 1,2 3,2l6 0c2,0 2,-1 2,-2l0 -13c0,-2 0,-3 -2,-3l-6 0c-2,0 -3,1 -3,3l0 13zm22 -21c-1,3 -2,3 -3,3 -1,0 -3,0 -3,-3l-2 0c0,4 2,4 5,4 2,0 5,0 5,-4l-2 0zm-5 5l-4 0 0 18 4 0 0 0 3 -12 0 12 4 0 0 -18 -4 0 0 1 -3 11 0 -12zm18 15c-1,0 -1,0 -1,-1l0 -10c0,0 0,0 1,0l2 0c0,0 1,0 1,0l0 10c0,1 -1,1 -1,1l-2 0zm-5 1c0,1 1,2 3,2l6 0c2,0 2,-1 2,-2l0 -13c0,-2 0,-3 -2,-3l-6 0c-2,0 -3,1 -3,3l0 13zm21 -12l0 14 3 0 0 -18 -11 0 0 18 4 0 0 -14 4 0zm11 17c0,1 0,1 -1,1l-3 0 1 3 4 0c1,0 2,-1 3,-2l3 -23 -4 0 -2 15 -1 0 -2 -15 -4 0 3 17c0,1 0,1 1,1l3 0 -1 3zm13 -7l0 -14 -4 0 0 18 18 0 0 -18 -4 0 0 14 -3 0 0 -14 -4 0 0 14 -3 0zm20 -14l-4 0 0 18 4 0 0 -7 1 0 2 7 5 0 -3 -9 1 -5c0,0 0,0 1,0l1 0 -1 -4 -3 0c0,0 0,0 -1,1l-2 7 -1 0 0 -8zm13 11l7 0 0 -9c0,-1 -1,-2 -2,-2l-7 0c-1,0 -2,1 -2,2l0 14c0,1 1,2 2,2l8 0 1 -4 -6 0c-1,0 -1,0 -1,0l0 -3zm0 -7c0,0 0,0 1,0l2 0c0,0 0,0 0,0l0 5 -3 0 0 -5zm9 12c0,1 1,2 3,2 1,0 2,-1 2,-2 0,-2 -1,-3 -2,-3 -2,0 -3,1 -3,3zm-209 23l-4 0 0 25 4 0 0 -11 2 0 2 11 5 0c-1,-5 -2,-9 -4,-13l2 -7c1,-1 1,-1 1,-1l1 0 0 -4 -4 0c0,0 0,1 0,1l-4 10 -1 0 0 -11zm18 16l0 5 -3 0c-1,0 -1,0 -1,-1l0 -3c0,-1 0,-1 1,-1l3 0zm-1 -5c0,0 1,0 1,0l0 2 -5 0c-2,0 -2,1 -2,2l0 8c0,1 0,2 2,2l3 0 2 -2 0 2 3 0 0 -16c0,-1 0,-2 -2,-2l-7 0 -1 4 6 0zm10 -4l-4 0 0 18 4 0 0 -8 2 0 2 8 4 0 -3 -10 2 -4c0,0 0,0 0,0l1 0 -1 -4 -3 0c0,0 0,0 0,0l-2 8 -2 0 0 -8zm14 14c0,0 0,0 0,0l0 -10c0,-1 0,-1 0,-1l2 0c1,0 1,0 1,1l0 10c0,0 0,0 -1,0l-2 0zm-4 1c0,2 0,3 2,3l7 0c1,0 2,-1 2,-3l0 -13c0,-1 -1,-2 -2,-2l-7 0c-2,0 -2,1 -2,2l0 13zm17 -4l6 0 0 -9c0,-2 0,-2 -2,-2l-6 0c-1,0 -2,1 -2,2l0 14c0,1 1,2 2,2l7 0 1 -4 -6 0c0,0 0,0 0,-1l0 -2zm0 -7c0,-1 0,-1 0,-1l2 0c1,0 1,0 1,1l0 4 -3 0 0 -4zm20 14c1,0 2,-1 2,-2l0 -5c0,-1 0,-2 -2,-2 1,0 2,-1 2,-2l0 -5c0,-2 -1,-2 -3,-2l-6 0c0,1 0,2 -1,4l5 0c0,0 1,0 1,0l0 3c0,0 0,0 -1,0l-3 0 0 3 3 0c1,0 1,0 1,1l0 2c0,1 -1,1 -1,1l-5 0c0,1 1,2 1,4l7 0zm13 0c1,0 2,-1 2,-3l0 -13c0,-1 -1,-2 -2,-2l-9 0 0 25 3 0 0 -9 2 2 4 0zm-6 -4l0 -11 3 0c1,0 1,0 1,1l0 9c0,1 0,1 -1,1l-3 0zm14 -3l6 0 0 -9c0,-2 0,-2 -2,-2l-6 0c-1,0 -2,1 -2,2l0 14c0,1 0,2 2,2l7 0 1 -4 -6 0c0,0 0,0 0,-1l0 -2zm0 -7c0,-1 0,-1 0,-1l2 0c1,0 1,0 1,1l0 4 -3 0 0 -4zm9 10l-2 0 1 4 5 0 0 -15 4 0 0 15 3 0 0 -18 -11 0 0 14zm17 -14l-4 0 0 18 4 0 0 -1 4 -12 0 13 3 0 0 -18 -3 0 0 0 -4 12 0 -12zm13 14l0 -14 -4 0 0 18 16 0 0 4 4 -1 0 -7 -1 0 0 -14 -4 0 0 14 -4 0 0 -14 -4 0 0 14 -3 0zm21 -3l7 0 0 -9c0,-2 -1,-2 -2,-2l-6 0c-2,0 -2,1 -2,2l0 14c0,1 0,2 2,2l7 0 1 -4 -6 0c0,0 -1,0 -1,-1l0 -2zm0 -7c0,-1 1,-1 1,-1l2 0c1,0 1,0 1,1l0 4 -4 0 0 -4zm17 7l7 0 0 -9c0,-2 -1,-2 -2,-2l-6 0c-2,0 -3,1 -3,2l0 14c0,1 1,2 2,2l8 0 1 -4 -6 0c-1,0 -1,0 -1,-1l0 -2zm0 -7c0,-1 0,-1 1,-1l2 0c0,0 1,0 1,1l0 4 -4 0 0 -4zm13 10l0 -14 -4 0 0 18 16 0 0 4 4 -1 0 -7 -2 0 0 -14 -4 0 0 14 -3 0 0 -14 -4 0 0 14 -3 0zm21 -3l7 0 0 -9c0,-2 -1,-2 -2,-2l-6 0c-2,0 -3,1 -3,2l0 14c0,1 1,2 2,2l8 0 1 -4 -6 0c-1,0 -1,0 -1,-1l0 -2zm0 -7c0,-1 0,-1 1,-1l2 0c0,0 1,0 1,1l0 4 -4 0 0 -4zm-209 35l-1 4 3 0 0 20 4 0 0 -20 4 0 -1 -4 -9 0zm16 16l0 4 -3 0c-1,0 -1,0 -1,0l0 -4c0,0 0,0 1,0l3 0zm-1 -6c0,0 1,0 1,1l0 2 -5 0c-2,0 -2,1 -2,2l0 7c0,1 0,2 2,2l3 0 2 -2 0 2 3 0 0 -15c0,-2 0,-3 -2,-3l-7 0 -1 4 6 0zm10 -4l-4 0 0 18 4 0 0 -7 2 0 2 7 4 0 -3 -9 2 -5c0,0 0,0 0,0l1 0 -1 -4 -2 0c-1,0 -1,0 -1,1l-2 7 -2 0 0 -8zm18 5c0,-1 0,-1 1,-1l4 0 -1 -4 -6 0c-1,0 -2,1 -2,2l0 14c0,1 1,2 2,2l6 0 1 -4 -4 0c-1,0 -1,0 -1,0l0 -9zm11 10c0,0 0,0 0,-1l0 -10c0,0 0,0 0,0l2 0c1,0 1,0 1,0l0 10c0,1 0,1 -1,1l-2 0zm-4 1c0,1 1,2 2,2l7 0c1,0 2,-1 2,-2l0 -13c0,-2 -1,-3 -2,-3l-7 0c-1,0 -2,1 -2,3l0 13zm13 2l4 0 0 -14 4 0 -1 -4 -7 0 0 18zm19 0c1,0 2,-1 2,-2l0 -14c0,-1 -1,-2 -2,-2l-9 0 0 25 4 0 0 -9 1 2 4 0zm-5 -4l0 -10 3 0c0,0 0,0 0,0l0 10c0,0 0,0 0,0l-3 0zm13 -3l7 0 0 -9c0,-1 -1,-2 -2,-2l-7 0c-1,0 -2,1 -2,2l0 14c0,1 1,2 2,2l8 0 1 -4 -6 0c-1,0 -1,0 -1,0l0 -3zm0 -7c0,0 0,0 1,0l2 0c0,0 0,0 0,0l0 5 -3 0 0 -5zm16 0c0,0 0,0 0,0l0 3c0,1 0,1 0,1l-3 0 0 -4 3 0zm0 10c0,0 0,0 0,0l-3 0 0 -4 3 0c0,0 0,0 0,1l0 3zm4 -3c0,-1 0,-2 -1,-2 1,0 1,-1 1,-2l0 -4c0,-2 -1,-3 -2,-3l-9 0 0 18 9 0c1,0 2,-1 2,-2l0 -5zm9 -1l0 4 -3 0c0,0 0,0 0,0l0 -4c0,0 0,0 0,0l3 0zm0 -6c0,0 0,0 0,1l0 2 -5 0c-1,0 -2,1 -2,2l0 7c0,1 1,2 2,2l4 0 1 -2 0 2 4 0 0 -15c0,-2 -1,-3 -2,-3l-7 0 -1 4 6 0zm10 7l7 0 0 -9c0,-1 -1,-2 -2,-2l-7 0c-1,0 -2,1 -2,2l0 14c0,1 1,2 2,2l8 0 0 -4 -5 0c-1,0 -1,0 -1,0l0 -3zm0 -7c0,0 0,0 1,0l2 0c0,0 0,0 0,0l0 5 -3 0 0 -5zm11 14l4 0 0 -14 3 0 -1 -4 -8 0 -1 4 3 0 0 14zm18 -4c1,-3 1,-6 1,-10l3 0 0 10 -4 0zm-2 4l7 0 0 4 4 -1 0 -7 -1 0 0 -14 -11 0c0,8 0,12 -1,14l-1 0 0 8 3 -1 0 -3zm19 3c0,1 -1,1 -1,1l-4 0 2 3 3 0c2,0 3,-1 3,-2l4 -23 -5 0 -1 15 -2 0 -2 -15 -4 0 3 17c0,1 1,1 2,1l2 0 0 3zm12 -7l0 -14 -4 0 0 18 18 0 0 -18 -4 0 0 14 -3 0 0 -14 -4 0 0 14 -3 0zm22 7c0,1 0,1 -1,1l-3 0 1 3 4 0c1,0 2,-1 2,-2l4 -23 -4 0 -2 15 -1 0 -2 -15 -4 0 2 17c0,1 1,1 2,1l3 0 -1 3zm-225 43l0 -4 -4 0c-1,0 -1,-1 -1,-1l0 -15c0,0 1,-1 1,-1l4 0 0 -4 -6 0c-2,0 -3,1 -3,3l0 18c0,3 1,4 3,4l6 0zm9 -15c0,0 1,0 1,1l0 3c0,0 -1,1 -1,1l-3 0 0 -5 3 0zm1 10c0,1 -1,1 -1,1l-3 0 0 -4 3 0c0,0 1,0 1,1l0 2zm4 -2c0,-1 -1,-2 -2,-2 1,-1 1,-2 1,-2l0 -5c0,-1 -1,-2 -2,-2l-9 0 0 18 9 0c2,0 3,-1 3,-3l0 -4zm6 3c0,0 -1,0 -1,0l0 -10c0,-1 1,-1 1,-1l2 0c1,0 1,0 1,1l0 10c0,0 0,0 -1,0l-2 0zm-4 1c0,2 0,3 2,3l6 0c2,0 3,-1 3,-3l0 -13c0,-1 -1,-2 -3,-2l-6 0c-2,0 -2,1 -2,2l0 13zm16 -4l7 0 0 -9c0,-2 -1,-2 -2,-2l-6 0c-2,0 -2,1 -2,2l0 14c0,1 0,2 2,2l7 0 1 -4 -6 0c0,0 -1,0 -1,-1l0 -2zm0 -7c0,-1 1,-1 1,-1l2 0c0,0 1,0 1,1l0 4 -4 0 0 -4zm17 -9c0,2 -1,2 -2,2 -2,0 -3,0 -3,-2l-2 0c0,3 2,4 5,4 2,0 4,-1 5,-4l-3 0zm-4 5l-4 0 0 18 4 0 0 -1 3 -12 0 13 4 0 0 -18 -4 0 0 0 -3 12 0 -12zm20 15l3 -8 0 11 4 0 0 -18 -4 0c-1,2 -2,6 -3,8l-3 -8 -4 0 0 18 4 0 0 -11 3 8zm16 -6l0 5 -3 0c-1,0 -1,0 -1,-1l0 -3c0,-1 0,-1 1,-1l3 0zm-1 -5c1,0 1,0 1,0l0 2 -5 0c-2,0 -2,1 -2,2l0 8c0,1 0,2 2,2l3 0 2 -2 0 2 3 0 0 -16c0,-1 0,-2 -2,-2l-7 0 -1 4 6 0zm8 10l-2 0 1 4 5 0 0 -15 3 0 0 15 4 0 0 -18 -11 0 0 14zm17 -14l-4 0 0 18 4 0 0 -1 3 -12 0 13 4 0 0 -18 -4 0 0 0 -3 12 0 -12zm16 0l0 8 -3 0 0 -8 -4 0 0 18 4 0 0 -8 3 0 0 8 4 0 0 -18 -4 0zm10 14c0,0 0,0 0,0l0 -10c0,-1 0,-1 0,-1l2 0c1,0 1,0 1,1l0 10c0,0 0,0 -1,0l-2 0zm-4 1c0,2 1,3 2,3l7 0c1,0 2,-1 2,-3l0 -13c0,-1 -1,-2 -2,-2l-7 0c-1,0 -2,1 -2,2l0 13zm20 -12c0,0 0,0 0,1l0 3c0,0 0,1 0,1l-3 0 0 -5 3 0zm0 10c0,1 0,1 0,1l-3 0 0 -4 3 0c0,0 0,0 0,1l0 2zm4 -2c0,-1 0,-2 -1,-2 1,-1 1,-2 1,-2l0 -5c0,-1 -1,-2 -2,-2l-9 0 0 18 9 0c2,0 2,-1 2,-3l0 -4zm7 3c-1,0 -1,0 -1,0l0 -10c0,-1 0,-1 1,-1l2 0c0,0 0,0 0,1l0 10c0,0 0,0 0,0l-2 0zm-5 1c0,2 1,3 2,3l7 0c2,0 2,-1 2,-3l0 -13c0,-1 0,-2 -2,-2l-7 0c-1,0 -2,1 -2,2l0 13zm21 -20c0,2 -1,2 -2,2 -2,0 -3,0 -3,-2l-2 0c0,3 2,4 5,4 2,0 5,-1 5,-4l-3 0zm-4 5l-4 0 0 18 4 0 0 -1 3 -12 0 13 4 0 0 -18 -4 0 0 0 -3 12 0 -12zm20 18c2,0 2,-1 2,-2l0 -5c0,-1 0,-2 -1,-2 1,0 1,-1 1,-2l0 -5c0,-2 0,-2 -2,-2l-6 0c0,1 -1,2 -1,4l5 0c0,0 0,0 0,0l0 3c0,0 0,0 0,0l-4 0 0 3 4 0c0,0 0,0 0,1l0 2c0,1 0,1 0,1l-5 0c0,1 0,2 1,4l6 0zm11 -9l0 5 -2 0c-1,0 -1,0 -1,-1l0 -3c0,-1 0,-1 1,-1l2 0zm0 -5c0,0 0,0 0,0l0 2 -4 0c-2,0 -3,1 -3,2l0 8c0,1 1,2 3,2l3 0 1 -2 0 2 4 0 0 -16c0,-1 -1,-2 -2,-2l-7 0 -1 4 6 0zm15 14c2,0 2,-1 2,-3l0 -13c0,-1 0,-2 -2,-2l-9 0 0 25 4 0 0 -9 2 2 3 0zm-5 -4l0 -11 3 0c0,0 0,0 0,1l0 9c0,1 0,1 0,1l-3 0zm13 -3l7 0 0 -9c0,-2 -1,-2 -2,-2l-7 0c-1,0 -2,1 -2,2l0 14c0,1 1,2 2,2l8 0 1 -4 -6 0c-1,0 -1,0 -1,-1l0 -2zm0 -7c0,-1 0,-1 1,-1l2 0c0,0 0,0 0,1l0 4 -3 0 0 -4zm17 -9c0,2 -1,2 -3,2 -1,0 -2,0 -2,-2l-3 0c1,3 3,4 5,4 3,0 5,-1 5,-4l-2 0zm-4 5l-4 0 0 18 4 0 0 -1 3 -12 0 13 4 0 0 -18 -4 0 0 0 -3 12 0 -12zm19 -4c0,-2 -1,-3 -3,-3l-7 0 -1 4 6 0c0,0 1,1 1,1l0 5c0,0 0,1 -1,1l-3 0c-1,0 -1,0 -1,1l0 6 3 0 0 -4 3 0c2,0 3,-1 3,-2l0 -9zm-10 19c0,2 1,3 3,3 1,0 2,-1 2,-3 0,-1 -1,-2 -2,-2 -2,0 -3,1 -3,2zm-235 28c1,0 1,0 1,0l0 16c0,0 0,0 -1,0l-2 0c-1,0 -1,0 -1,0l0 -16c0,0 1,0 1,0l2 0zm5 -1c0,-2 -1,-3 -3,-3l-6 0c-2,0 -3,1 -3,3l0 18c0,2 1,3 3,3l6 0c3,0 3,-1 3,-3l0 -18zm6 8c0,-1 1,-1 1,-1l4 0 -1 -4 -6 0c-1,0 -2,1 -2,2l0 14c0,1 1,2 2,2l6 0 1 -4 -4 0c0,0 -1,0 -1,0l0 -9zm9 13l4 0 0 -14 4 0 -2 -4 -8 0 -1 4 3 0 0 14zm15 -8l0 4 -2 0c-1,0 -1,0 -1,0l0 -4c0,0 0,0 1,0l2 0zm0 -6c0,0 0,0 0,1l0 2 -4 0c-2,0 -3,1 -3,2l0 7c0,1 1,2 2,2l4 0 1 -2 0 2 4 0 0 -15c0,-2 -1,-3 -2,-3l-7 0 -1 4 6 0zm13 -4l0 8 -3 0 0 -8 -4 0 0 18 4 0 0 -7 3 0 0 7 4 0 0 -18 -4 0zm11 15c-1,0 -1,0 -1,-1l0 -10c0,0 0,0 1,0l2 0c0,0 0,0 0,0l0 10c0,1 0,1 0,1l-2 0zm-5 1c0,1 1,2 2,2l7 0c2,0 2,-1 2,-2l0 -13c0,-2 0,-3 -2,-3l-7 0c-1,0 -2,1 -2,3l0 13zm20 -12c0,0 1,0 1,0l0 3c0,1 -1,1 -1,1l-3 0 0 -4 3 0zm1 10c0,0 0,0 -1,0l-3 0 0 -4 3 0c0,0 1,0 1,1l0 3zm4 -3c0,-1 -1,-2 -2,-2 1,0 1,-1 1,-2l0 -4c0,-2 0,-3 -2,-3l-9 0 0 18 9 0c2,0 3,-1 3,-2l0 -5zm6 -11l-4 0 0 18 4 0 0 0 3 -12 0 12 4 0 0 -18 -4 0 0 1 -3 11 0 -12zm13 5c0,-1 0,-1 0,-1l5 0 -2 -4 -5 0c-2,0 -2,1 -2,2l0 14c0,1 0,2 2,2l6 0 1 -4 -5 0c0,0 0,0 0,0l0 -9zm10 -5l-4 0 0 18 9 0c2,0 2,-1 2,-2l0 -8c0,-1 0,-2 -2,-2l-5 0 0 -6zm0 15l0 -5 3 0c0,0 0,0 0,0l0 4c0,0 0,1 0,1l-3 0zm21 -11l0 14 3 0 0 -18 -11 0 0 18 4 0 0 -14 4 0zm14 14c2,0 2,-1 2,-2l0 -14c0,-1 0,-2 -2,-2l-9 0 0 25 4 0 0 -9 2 2 3 0zm-5 -4l0 -10 3 0c0,0 1,0 1,0l0 10c0,0 -1,0 -1,0l-3 0zm14 1c-1,0 -1,0 -1,-1l0 -10c0,0 1,0 1,0l2 0c0,0 1,0 1,0l0 10c0,1 -1,1 -1,1l-2 0zm-5 1c0,1 1,2 3,2l6 0c2,0 2,-1 2,-2l0 -13c0,-2 0,-3 -2,-3l-6 0c-2,0 -3,1 -3,3l0 13zm13 2l4 0 2 -7 2 7 4 0 -3 -9 3 -9 -4 0 -2 8 -2 -8 -4 0 3 9 -3 9zm18 -3c0,0 -1,0 -1,-1l0 -10c0,0 1,0 1,0l2 0c1,0 1,0 1,0l0 10c0,1 0,1 -1,1l-2 0zm-4 1c0,1 0,2 2,2l6 0c2,0 3,-1 3,-2l0 -13c0,-2 -1,-3 -3,-3l-6 0c-2,0 -2,1 -2,3l0 13zm30 -12c0,0 0,0 1,0l1 0 -1 -4 -3 0c0,0 0,0 0,1l-3 7 -1 0 0 -8 -4 0 0 8 -1 0 -2 -7c0,-1 0,-1 -1,-1l-3 0 -1 4 2 0c0,0 0,0 0,0l2 5 -3 9 4 0c1,-2 1,-5 2,-7l1 0 0 7 4 0 0 -7 2 0 2 7 4 0c-1,-3 -2,-6 -3,-9l1 -5zm8 -4l-4 0 0 18 4 0 0 0 3 -12 0 12 4 0 0 -18 -4 0 0 1 -3 11 0 -12zm17 -5c0,3 -1,3 -3,3 -1,0 -2,0 -2,-3l-3 0c0,4 3,4 5,4 3,0 5,0 5,-4l-2 0zm-4 5l-4 0 0 18 4 0 0 0 3 -12 0 12 4 0 0 -18 -4 0 0 1 -3 11 0 -12zm-157 46l-4 0 0 18 4 0 0 -1 3 -12 0 13 4 0 0 -18 -4 0 0 0 -3 12 0 -12zm21 3l0 15 3 0 0 -18 -11 0 0 18 4 0 0 -15 4 0zm10 11c0,0 -1,0 -1,0l0 -10c0,-1 1,-1 1,-1l2 0c0,0 1,0 1,1l0 10c0,0 0,0 -1,0l-2 0zm-5 1c0,2 1,3 3,3l6 0c2,0 3,-1 3,-3l0 -13c0,-1 -1,-2 -3,-2l-6 0c-2,0 -3,1 -3,2l0 13zm18 -11c0,0 0,0 0,0l5 0 -2 -4 -5 0c-2,0 -2,0 -2,2l0 14c0,1 0,2 2,2l6 0 1 -4 -5 0c0,0 0,0 0,-1l0 -9zm9 14l4 0 0 -14 3 0 -1 -4 -8 0 -1 4 3 0 0 14zm13 -4c-1,0 -1,0 -1,0l0 -10c0,-1 0,-1 1,-1l2 0c0,0 0,0 0,1l0 10c0,0 0,0 0,0l-2 0zm-5 1c0,2 1,3 2,3l7 0c1,0 2,-1 2,-3l0 -13c0,-1 -1,-2 -2,-2l-7 0c-1,0 -2,1 -2,2l0 13zm21 -20c0,2 -1,2 -2,2 -2,0 -3,0 -3,-2l-2 0c0,3 2,4 5,4 2,0 4,-1 5,-4l-3 0zm-4 5l-4 0 0 18 4 0 0 -1 3 -12 0 13 4 0 0 -18 -4 0 0 0 -3 12 0 -12zm9 15c0,2 1,3 3,3 1,0 2,-1 2,-3 0,-1 -1,-2 -2,-2 -2,0 -3,1 -3,2zm-199 24l-1 4 3 0 0 20 5 0 0 -20 3 0 -1 -4 -9 0z"/>
   <path class="fil1" d="M127 687l7 0 0 -9c0,-1 -1,-2 -2,-2l-7 0c-1,0 -2,1 -2,2l0 14c0,1 1,2 2,2l8 0 1 -4 -6 0c-1,0 -1,0 -1,0l0 -3zm0 -7c0,0 0,0 1,0l2 0c0,0 0,0 0,0l0 5 -3 0 0 -5zm13 0l2 0c1,0 1,0 1,1l0 9c0,0 0,0 -1,0l-2 0c0,0 0,0 0,0l0 -10zm7 -10c-1,-1 -2,-1 -4,-1l0 0c0,1 0,1 0,1l-5 0c-1,0 -2,1 -2,2l0 20c0,1 1,2 2,2l7 0c1,0 2,-1 2,-2l0 -13c0,-2 -1,-3 -2,-3l-5 0 0 -2c0,0 0,0 0,0l5 0c1,0 2,-1 2,-3l0 -1zm2 17c0,1 0,2 2,2 -1,0 -1,0 -1,1l-1 4 3 0 2 -4c0,-1 0,-1 1,-1l1 0 0 5 4 0 0 -18 -9 0c-1,0 -2,1 -2,2l0 9zm7 -7l0 6 -3 0c0,0 0,0 0,-1l0 -5c0,0 0,0 0,0l3 0zm14 11c0,0 0,0 0,-1l0 -10c0,0 0,0 0,0l2 0c1,0 1,0 1,0l0 10c0,1 0,1 -1,1l-2 0zm-4 1c0,1 1,2 2,2l7 0c1,0 2,-1 2,-2l0 -13c0,-2 -1,-3 -2,-3l-7 0c-1,0 -2,1 -2,3l0 13zm20 -16l0 8 -3 0 0 -8 -4 0 0 18 4 0 0 -7 3 0 0 7 4 0 0 -18 -4 0zm17 18c1,0 2,-1 2,-2l0 -5c0,-1 0,-1 -1,-2 1,0 1,-1 1,-1l0 -6c0,-1 -1,-2 -2,-2l-6 0c-1,2 -1,3 -1,4l4 0c1,0 1,0 1,1l0 2c0,1 0,1 -1,1l-3 0 0 3 3 0c1,0 1,0 1,0l0 3c0,0 0,0 -1,0l-4 0c0,2 0,3 0,4l7 0zm11 -8l0 4 -3 0c0,0 0,0 0,0l0 -4c0,0 0,0 0,0l3 0zm0 -6c0,0 0,0 0,1l0 2 -5 0c-1,0 -2,1 -2,2l0 7c0,1 1,2 2,2l4 0 1 -2 0 2 4 0 0 -15c0,-2 -1,-3 -2,-3l-7 0 -1 4 6 0zm13 0c0,0 0,0 0,0l0 3c0,1 0,1 0,1l-3 0 0 -4 3 0zm1 10c0,0 -1,0 -1,0l-3 0 0 -4 3 0c0,0 1,0 1,1l0 3zm3 -3c0,-1 0,-2 -1,-2 1,0 1,-1 1,-2l0 -4c0,-2 -1,-3 -2,-3l-9 0 0 18 9 0c2,0 2,-1 2,-2l0 -5zm7 4c-1,0 -1,0 -1,-1l0 -10c0,0 0,0 1,0l2 0c0,0 1,0 1,0l0 10c0,1 -1,1 -1,1l-2 0zm-5 1c0,1 1,2 3,2l6 0c2,0 2,-1 2,-2l0 -13c0,-2 0,-3 -2,-3l-6 0c-2,0 -3,1 -3,3l0 13zm22 2c2,0 2,-1 2,-2l0 -14c0,-1 0,-2 -2,-2l-9 0 0 25 4 0 0 -9 2 2 3 0zm-5 -4l0 -10 3 0c0,0 1,0 1,0l0 10c0,0 -1,0 -1,0l-3 0zm14 1c0,0 -1,0 -1,-1l0 -10c0,0 1,0 1,0l2 0c0,0 1,0 1,0l0 10c0,1 0,1 -1,1l-2 0zm-5 1c0,1 1,2 3,2l6 0c2,0 2,-1 2,-2l0 -13c0,-2 0,-3 -2,-3l-6 0c-2,0 -3,1 -3,3l0 13zm31 -12c0,0 0,0 1,0l1 0 -1 -4 -3 0c0,0 0,0 0,1l-3 7 -1 0 0 -8 -4 0 0 8 -1 0 -2 -7c0,-1 -1,-1 -1,-1l-3 0 -1 4 1 0c1,0 1,0 1,0l1 5 -3 9 5 0c0,-2 1,-5 2,-7l1 0 0 7 4 0 0 -7 1 0 2 7 5 0c-1,-3 -2,-6 -3,-9l1 -5zm8 -4l-4 0 0 18 4 0 0 0 3 -12 0 12 4 0 0 -18 -4 0 0 1 -3 11 0 -12zm11 18l4 0 0 -14 3 0 -1 -4 -8 0 -1 4 3 0 0 14zm17 -18l-4 0 0 18 4 0 0 -7 1 0 2 7 4 0 -2 -9 1 -5c0,0 0,0 0,0l2 0 -1 -4 -3 0c0,0 -1,0 -1,1l-2 7 -1 0 0 -8zm18 18c2,0 2,-1 2,-2l0 -14c0,-1 0,-2 -2,-2l-9 0 0 25 4 0 0 -9 2 2 3 0zm-5 -4l0 -10 3 0c0,0 0,0 0,0l0 10c0,0 0,0 0,0l-3 0zm16 -4l0 4 -2 0c-1,0 -1,0 -1,0l0 -4c0,0 0,0 1,0l2 0zm0 -6c0,0 0,0 0,1l0 2 -4 0c-2,0 -3,1 -3,2l0 7c0,1 1,2 2,2l4 0 1 -2 0 2 4 0 0 -15c0,-2 -1,-3 -2,-3l-7 0 -1 4 6 0zm10 1c0,-1 0,-1 1,-1l4 0 -1 -4 -6 0c-1,0 -2,1 -2,2l0 14c0,1 1,2 2,2l6 0 1 -4 -4 0c-1,0 -1,0 -1,0l0 -9zm11 10c0,0 0,0 0,-1l0 -10c0,0 0,0 0,0l2 0c1,0 1,0 1,0l0 10c0,1 0,1 -1,1l-2 0zm-4 1c0,1 1,2 2,2l7 0c1,0 2,-1 2,-2l0 -13c0,-2 -1,-3 -2,-3l-7 0c-1,0 -2,1 -2,3l0 13zm15 2l4 0 0 -14 3 0 -1 -4 -8 0 -1 4 3 0 0 14zm13 -3c0,0 0,0 0,-1l0 -10c0,0 0,0 0,0l2 0c1,0 1,0 1,0l0 10c0,1 0,1 -1,1l-2 0zm-4 1c0,1 1,2 2,2l7 0c1,0 2,-1 2,-2l0 -13c0,-2 -1,-3 -2,-3l-7 0c-1,0 -2,1 -2,3l0 13zm21 -21c0,3 -1,3 -3,3 -1,0 -2,0 -2,-3l-3 0c0,4 3,4 5,4 3,0 5,0 5,-4l-2 0zm-4 5l-4 0 0 18 4 0 0 0 3 -12 0 12 4 0 0 -18 -4 0 0 1 -3 11 0 -12zm9 16c0,1 0,2 2,2 0,1 -1,2 -1,3l1 0c1,-2 3,-4 3,-5 0,-2 -1,-3 -3,-3 -1,0 -2,1 -2,3zm-281 27c1,0 1,0 1,1l0 15c0,1 0,1 -1,1l-2 0c-1,0 -1,0 -1,-1l0 -15c0,-1 0,-1 1,-1l2 0zm5 -1c0,-1 -1,-3 -3,-3l-6 0c-2,0 -3,2 -3,3l0 18c0,2 1,4 3,4l6 0c2,0 3,-2 3,-4l0 -18zm9 7c0,0 1,0 1,1l0 3c0,0 -1,1 -1,1l-3 0 0 -5 3 0zm1 10c0,1 0,1 -1,1l-3 0 0 -4 3 0c0,0 1,0 1,1l0 2zm4 -2c0,-1 -1,-2 -2,-2 1,-1 1,-2 1,-2l0 -5c0,-1 -1,-2 -2,-2l-9 0 0 18 9 0c2,0 3,-1 3,-3l0 -4zm5 0l7 0 0 -9c0,-2 -1,-2 -2,-2l-6 0c-2,0 -2,1 -2,2l0 14c0,1 0,2 2,2l7 0 1 -4 -6 0c0,0 -1,0 -1,-1l0 -2zm0 -7c0,-1 1,-1 1,-1l2 0c0,0 1,0 1,1l0 4 -4 0 0 -4zm13 7l7 0 0 -9c0,-2 -1,-2 -2,-2l-7 0c-1,0 -2,1 -2,2l0 14c0,1 1,2 2,2l8 0 1 -4 -6 0c-1,0 -1,0 -1,-1l0 -2zm0 -7c0,-1 0,-1 1,-1l2 0c0,0 0,0 0,1l0 4 -3 0 0 -4zm11 14l4 0 0 -14 3 0 -1 -4 -8 0 -1 4 3 0 0 14zm20 0c1,0 2,-1 2,-2l0 -5c0,-1 0,-2 -1,-2 1,0 1,-1 1,-2l0 -5c0,-2 -1,-2 -2,-2l-6 0c-1,1 -1,2 -1,4l4 0c1,0 1,0 1,0l0 3c0,0 0,0 -1,0l-3 0 0 3 3 0c1,0 1,0 1,1l0 2c0,1 0,1 -1,1l-4 0c0,1 0,2 0,4l7 0zm11 -9l0 5 -3 0c0,0 0,0 0,-1l0 -3c0,-1 0,-1 0,-1l3 0zm-1 -5c1,0 1,0 1,0l0 2 -5 0c-1,0 -2,1 -2,2l0 8c0,1 1,2 2,2l3 0 2 -2 0 2 4 0 0 -16c0,-1 -1,-2 -2,-2l-8 0 0 4 5 0zm14 -1l0 15 4 0 0 -18 -11 0 0 18 4 0 0 -15 3 0zm13 6l0 5 -3 0c0,0 -1,0 -1,-1l0 -3c0,-1 1,-1 1,-1l3 0zm-1 -5c1,0 1,0 1,0l0 2 -5 0c-1,0 -2,1 -2,2l0 8c0,1 1,2 2,2l3 0 2 -2 0 2 4 0 0 -16c0,-1 -1,-2 -3,-2l-7 0 0 4 5 0zm6 14l4 0 2 -7 2 7 4 0 -3 -9 3 -9 -4 0 -2 7 -2 -7 -4 0 3 8 -3 10zm18 -4c-1,0 -1,0 -1,0l0 -10c0,-1 1,-1 1,-1l2 0c0,0 1,0 1,1l0 10c0,0 -1,0 -1,0l-2 0zm-5 1c0,2 1,3 3,3l6 0c2,0 2,-1 2,-3l0 -13c0,-1 0,-2 -2,-2l-6 0c-2,0 -3,1 -3,2l0 13zm20 0l3 -8 0 11 4 0 0 -18 -4 0c-1,2 -2,6 -3,8l-2 -8 -5 0 0 18 4 0 0 -11 3 8zm20 0l3 -8 0 11 3 0 0 -18 -4 0c0,2 -2,6 -2,8l-3 -8 -4 0 0 18 4 0 0 -11 3 8zm12 -4l7 0 0 -9c0,-2 -1,-2 -2,-2l-6 0c-2,0 -3,1 -3,2l0 14c0,1 1,2 2,2l8 0 1 -4 -6 0c-1,0 -1,0 -1,-1l0 -2zm0 -7c0,-1 0,-1 1,-1l2 0c0,0 1,0 1,1l0 4 -4 0 0 -4zm14 10c1,-4 1,-6 1,-10l3 0 0 10 -4 0zm-2 4l7 0 0 4 4 -1 0 -7 -1 0 0 -14 -11 0c0,7 -1,11 -1,14l-1 0 0 8 3 -1 0 -3zm17 -4c0,0 -1,0 -1,0l0 -10c0,-1 1,-1 1,-1l2 0c1,0 1,0 1,1l0 10c0,0 0,0 -1,0l-2 0zm-4 1c0,2 0,3 2,3l7 0c1,0 2,-1 2,-3l0 -13c0,-1 -1,-2 -2,-2l-7 0c-2,0 -2,1 -2,2l0 13zm19 -12c1,0 1,0 1,1l0 3c0,0 0,1 0,1l-3 0 0 -5 2 0zm1 10c0,1 0,1 0,1l-3 0 0 -4 2 0c1,0 1,0 1,1l0 2zm4 -2c0,-1 0,-2 -1,-2 1,-1 1,-2 1,-2l0 -5c0,-1 -1,-2 -2,-2l-9 0 0 18 9 0c1,0 2,-1 2,-3l0 -4zm6 -11l-4 0 0 18 9 0c2,0 2,-1 2,-2l0 -8c0,-2 0,-2 -2,-2l-5 0 0 -6zm0 14l0 -5 3 0c0,0 0,0 0,1l0 4c0,0 0,0 0,0l-3 0zm13 -14l-4 0 0 18 4 0 0 -18zm9 15l3 -8 0 11 4 0 0 -18 -5 0c0,2 -1,6 -2,8l-3 -8 -4 0 0 18 4 0 0 -11 3 8zm9 0c0,2 1,3 2,3 2,0 3,-1 3,-3 0,-1 -1,-2 -3,-2 -1,0 -2,1 -2,2zm-331 24l-1 4 3 0 0 20 5 0 0 -20 3 0 -1 -4 -9 0zm13 6l-4 0 0 18 9 0c2,0 2,-1 2,-2l0 -8c0,-1 0,-2 -2,-2l-5 0 0 -6zm0 15l0 -5 3 0c0,0 0,0 0,0l0 4c0,0 0,1 0,1l-3 0zm13 -15l-4 0 0 18 4 0 0 -18zm10 4l3 0c0,0 1,0 1,1l0 9c0,0 -1,0 -1,0l-2 0c-1,0 -1,0 -1,0l0 -10zm7 -10c-1,-1 -2,-1 -3,-1l0 0c0,1 0,1 -1,1l-4 0c-2,0 -3,1 -3,2l0 20c0,1 1,2 3,2l6 0c2,0 2,-1 2,-2l0 -13c0,-2 0,-3 -2,-3l-5 0 0 -2c0,0 0,0 1,0l4 0c2,0 2,-1 2,-3l0 -1zm8 27c0,1 0,1 -1,1l-3 0 1 3 4 0c1,0 2,-1 3,-2l3 -23 -4 0 -2 15 -1 0 -2 -15 -4 0 3 17c0,1 0,1 1,1l3 0 -1 3zm13 -7c1,-3 1,-6 1,-10l3 0 0 10 -4 0zm-2 4l7 0 0 4 4 -1 0 -7 -1 0 0 -14 -11 0c0,8 0,12 -1,14l-1 0 0 8 3 -1 0 -3zm17 -7l6 0 0 -9c0,-1 0,-2 -2,-2l-6 0c-1,0 -2,1 -2,2l0 14c0,1 1,2 2,2l7 0 1 -4 -6 0c0,0 0,0 0,0l0 -3zm0 -7c0,0 0,0 0,0l2 0c1,0 1,0 1,0l0 5 -3 0 0 -5zm12 10l0 -14 -4 0 0 18 19 0 0 -18 -4 0 0 14 -4 0 0 -14 -3 0 0 14 -4 0zm21 -14l-4 0 0 18 9 0c1,0 2,-1 2,-2l0 -8c0,-1 -1,-2 -2,-2l-5 0 0 -6zm0 15l0 -5 2 0c1,0 1,0 1,0l0 4c0,0 0,1 -1,1l-2 0zm15 3l4 0 0 -14 4 0 -2 -4 -8 0 -1 4 3 0 0 14zm13 -7l7 0 0 -9c0,-1 -1,-2 -3,-2l-6 0c-1,0 -2,1 -2,2l0 14c0,1 1,2 2,2l7 0 1 -4 -6 0c0,0 0,0 0,0l0 -3zm0 -7c0,0 0,0 0,0l2 0c1,0 1,0 1,0l0 5 -3 0 0 -5zm15 12l3 -8 0 10 4 0 0 -18 -4 0c-1,3 -2,6 -3,8l-2 -8 -4 0 0 18 3 0 0 -10 3 8zm17 -2l0 -14 -4 0 0 18 9 0 0 4 3 0 0 -8 -1 0 0 -14 -4 0 0 14 -3 0zm17 -10c0,0 1,0 1,0l0 3c0,1 -1,1 -1,1l-3 0 0 -4 3 0zm1 10c0,0 0,0 -1,0l-3 0 0 -4 3 0c0,0 1,0 1,1l0 3zm4 -3c0,-1 -1,-2 -2,-2 1,0 1,-1 1,-2l0 -4c0,-2 0,-3 -2,-3l-9 0 0 18 9 0c2,0 3,-1 3,-2l0 -5zm5 0l7 0 0 -9c0,-1 -1,-2 -2,-2l-6 0c-2,0 -2,1 -2,2l0 14c0,1 0,2 2,2l7 0 1 -4 -6 0c0,0 -1,0 -1,0l0 -3zm0 -7c0,0 1,0 1,0l2 0c1,0 1,0 1,0l0 5 -4 0 0 -5zm12 14l4 0 0 -14 3 0 -1 -4 -8 0 -1 4 3 0 0 14zm12 -7l7 0 0 -9c0,-1 -1,-2 -2,-2l-7 0c-1,0 -2,1 -2,2l0 14c0,1 1,2 2,2l8 0 1 -4 -6 0c-1,0 -1,0 -1,0l0 -3zm0 -7c0,0 0,0 1,0l2 0c0,0 0,0 0,0l0 5 -3 0 0 -5zm16 -4l0 8 -3 0 0 -8 -4 0 0 18 4 0 0 -7 3 0 0 7 4 0 0 -18 -4 0zm10 0l-4 0 0 18 4 0 0 0 3 -12 0 12 4 0 0 -18 -4 0 0 1 -3 11 0 -12zm13 11l6 0 0 -9c0,-1 0,-2 -2,-2l-6 0c-1,0 -2,1 -2,2l0 14c0,1 0,2 2,2l7 0 1 -4 -6 0c0,0 0,0 0,0l0 -3zm0 -7c0,0 0,0 0,0l2 0c1,0 1,0 1,0l0 5 -3 0 0 -5zm15 12l3 -8 0 10 4 0 0 -18 -4 0c-1,3 -2,6 -3,8l-3 -8 -4 0 0 18 4 0 0 -10 3 8zm17 -1c0,0 0,0 0,-1l0 -10c0,0 0,0 0,0l2 0c1,0 1,0 1,0l0 10c0,1 0,1 0,1l-3 0zm-4 1c0,1 1,2 2,2l7 0c1,0 2,-1 2,-2l0 -13c0,-2 -1,-3 -2,-3l-7 0c-1,0 -2,1 -2,3l0 13zm20 -7l-2 0c-1,0 -1,-1 -1,-1l0 -8 -4 0 0 9c0,2 1,2 2,2l5 0 0 7 4 0 0 -18 -4 0 0 9zm13 1l0 4 -3 0c0,0 0,0 0,0l0 -4c0,0 0,0 0,0l3 0zm0 -6c0,0 0,0 0,1l0 2 -5 0c-1,0 -2,1 -2,2l0 7c0,1 1,2 2,2l4 0 1 -2 0 2 4 0 0 -15c0,-2 -1,-3 -2,-3l-7 0 -1 4 6 0zm15 14c1,0 2,-1 2,-2l0 -14c0,-1 -1,-2 -2,-2l-9 0 0 25 4 0 0 -9 1 2 4 0zm-5 -4l0 -10 2 0c1,0 1,0 1,0l0 10c0,0 0,0 -1,0l-2 0zm13 1c0,0 0,0 0,-1l0 -10c0,0 0,0 0,0l2 0c1,0 1,0 1,0l0 10c0,1 0,1 0,1l-3 0zm-4 1c0,1 1,2 2,2l7 0c1,0 2,-1 2,-2l0 -13c0,-2 -1,-3 -2,-3l-7 0c-1,0 -2,1 -2,3l0 13zm20 -12c0,0 0,0 0,0l0 3c0,1 0,1 0,1l-3 0 0 -4 3 0zm1 10c0,0 -1,0 -1,0l-3 0 0 -4 3 0c0,0 1,0 1,1l0 3zm3 -3c0,-1 0,-2 -1,-2 1,0 1,-1 1,-2l0 -4c0,-2 -1,-3 -2,-3l-9 0 0 18 9 0c2,0 2,-1 2,-2l0 -5zm9 -1l0 4 -2 0c-1,0 -1,0 -1,0l0 -4c0,0 0,0 1,0l2 0zm0 -6c0,0 0,0 0,1l0 2 -4 0c-2,0 -3,1 -3,2l0 7c0,1 1,2 3,2l3 0 1 -2 0 2 4 0 0 -15c0,-2 -1,-3 -2,-3l-7 0 -1 4 6 0zm13 -4l0 8 -3 0 0 -8 -4 0 0 18 4 0 0 -7 3 0 0 7 4 0 0 -18 -4 0zm7 12l3 0 1 -18 -5 0 1 18zm-1 4c0,1 1,2 3,2 1,0 2,-1 2,-2 0,-2 -1,-3 -2,-3 -2,0 -3,1 -3,3zm-393 27c0,0 1,0 1,1l0 5c0,1 -1,1 -1,1l-3 0 0 -7 3 0zm1 16c0,1 -1,1 -1,1l-3 0 0 -7 3 0c0,0 1,1 1,1l0 5zm2 -7c1,0 2,-1 2,-2l0 -8c0,-2 -1,-3 -3,-3l-9 0 0 25 8 0c3,0 4,-1 4,-4l0 -6c0,-1 -1,-2 -2,-2zm15 9l3 -8 0 11 3 0 0 -18 -4 0c0,2 -2,6 -2,8l-3 -8 -4 0 0 18 4 0 0 -11 3 8zm12 -4l7 0 0 -9c0,-2 -1,-2 -2,-2l-6 0c-2,0 -3,1 -3,2l0 14c0,1 1,2 2,2l8 0 1 -4 -6 0c-1,0 -1,0 -1,-1l0 -2zm0 -7c0,-1 0,-1 1,-1l2 0c0,0 1,0 1,1l0 4 -4 0 0 -4zm16 -4l0 8 -3 0 0 -8 -4 0 0 18 4 0 0 -8 3 0 0 8 4 0 0 -18 -4 0zm6 10c0,1 1,2 2,2 -1,0 -1,1 -1,1l-1 5 4 0 1 -5c0,-1 0,-1 1,-1l1 0 0 6 4 0 0 -18 -9 0c-1,0 -2,1 -2,2l0 8zm7 -7l0 7 -3 0c0,0 0,-1 0,-1l0 -5c0,-1 0,-1 0,-1l3 0zm15 11c1,-4 1,-6 1,-10l3 0 0 10 -4 0zm-1 4l7 0 0 4 3 -1 0 -7 -1 0 0 -14 -10 0c0,7 -1,11 -2,14l-1 0 0 8 4 -1 0 -3zm19 -9l0 5 -3 0c0,0 0,0 0,-1l0 -3c0,-1 0,-1 0,-1l3 0zm0 -5c0,0 0,0 0,0l0 2 -5 0c-1,0 -2,1 -2,2l0 8c0,1 1,2 2,2l4 0 1 -2 0 2 4 0 0 -16c0,-1 -1,-2 -2,-2l-7 0 -1 4 6 0zm13 -1c0,0 0,0 0,1l0 3c0,0 0,1 0,1l-3 0 0 -5 3 0zm1 10c0,1 -1,1 -1,1l-3 0 0 -4 3 0c0,0 1,0 1,1l0 2zm3 -2c0,-1 0,-2 -1,-2 1,-1 1,-2 1,-2l0 -5c0,-1 -1,-2 -2,-2l-9 0 0 18 9 0c2,0 2,-1 2,-3l0 -4zm10 -11l0 8 -4 0 0 -8 -4 0 0 18 4 0 0 -8 4 0 0 8 3 0 0 -18 -3 0zm10 14c-1,0 -1,0 -1,0l0 -10c0,-1 1,-1 1,-1l2 0c0,0 1,0 1,1l0 10c0,0 -1,0 -1,0l-2 0zm-5 1c0,2 1,3 3,3l6 0c2,0 2,-1 2,-3l0 -13c0,-1 0,-2 -2,-2l-6 0c-2,0 -3,1 -3,2l0 13zm25 -12l0 15 4 0 0 -18 -11 0 0 18 4 0 0 -15 3 0zm7 11l-2 0 1 4 5 0 0 -15 3 0 0 15 4 0 0 -18 -11 0 0 14zm17 -3l7 0 0 -9c0,-2 -1,-2 -2,-2l-7 0c-1,0 -2,1 -2,2l0 14c0,1 1,2 2,2l8 0 0 -4 -5 0c-1,0 -1,0 -1,-1l0 -2zm0 -7c0,-1 0,-1 1,-1l2 0c0,0 0,0 0,1l0 4 -3 0 0 -4zm13 0c0,0 0,0 0,0l5 0 -1 -4 -6 0c-1,0 -2,0 -2,2l0 14c0,1 0,2 2,2l6 0 1 -4 -5 0c0,0 0,0 0,-1l0 -9zm14 -4l0 8 -4 0 0 -8 -4 0 0 18 4 0 0 -8 4 0 0 8 3 0 0 -18 -3 0zm11 21c0,0 0,0 -1,0l-3 0 1 4 4 0c1,0 2,-1 3,-2l3 -23 -4 0 -2 15 -1 0 -2 -15 -4 0 2 16c1,1 1,2 2,2l3 0 -1 3zm9 -7l-2 0 1 4 5 0 0 -15 3 0 0 15 4 0 0 -18 -11 0 0 14zm22 0c-1,0 -1,0 -1,0l0 -10c0,-1 0,-1 1,-1l2 0c0,0 1,0 1,1l0 10c0,0 -1,0 -1,0l-2 0zm-5 1c0,2 1,3 2,3l7 0c2,0 2,-1 2,-3l0 -13c0,-1 0,-2 -2,-2l-7 0c-1,0 -2,1 -2,2l0 13zm20 -15l0 8 -3 0 0 -8 -4 0 0 18 4 0 0 -8 3 0 0 8 4 0 0 -18 -4 0zm15 0l-4 0 0 18 4 0 0 -8 1 0 2 8 4 0 -3 -10 2 -4c0,0 0,0 0,0l1 0 -1 -4 -2 0c-1,0 -1,0 -1,0l-2 8 -1 0 0 -8zm13 14c0,0 0,0 0,0l0 -10c0,-1 0,-1 0,-1l2 0c1,0 1,0 1,1l0 10c0,0 0,0 -1,0l-2 0zm-4 1c0,2 1,3 2,3l7 0c1,0 2,-1 2,-3l0 -13c0,-1 -1,-2 -2,-2l-7 0c-1,0 -2,1 -2,2l0 13zm14 -1l-2 0 1 4 5 0 0 -15 3 0 0 15 4 0 0 -18 -11 0 0 14zm19 0c0,-4 0,-6 1,-10l3 0 0 10 -4 0zm-2 4l7 0 0 4 3 -1 0 -7 -1 0 0 -14 -10 0c0,7 -1,11 -2,14l-1 0 0 8 4 -1 0 -3zm17 -4c0,0 -1,0 -1,0l0 -10c0,-1 1,-1 1,-1l2 0c0,0 1,0 1,1l0 10c0,0 0,0 -1,0l-2 0zm-5 1c0,2 1,3 3,3l6 0c2,0 3,-1 3,-3l0 -13c0,-1 -1,-2 -3,-2l-6 0c-2,0 -3,1 -3,2l0 13zm20 -12c1,0 1,0 1,1l0 3c0,0 0,1 -1,1l-3 0 0 -5 3 0zm1 10c0,1 0,1 -1,1l-3 0 0 -4 3 0c1,0 1,0 1,1l0 2zm4 -2c0,-1 -1,-2 -2,-2 2,-1 2,-2 2,-2l0 -5c0,-1 -1,-2 -3,-2l-8 0 0 18 8 0c2,0 3,-1 3,-3l0 -4zm6 -7c0,0 0,0 1,0l4 0 -1 -4 -6 0c-1,0 -2,0 -2,2l0 14c0,1 1,2 2,2l6 0 1 -4 -4 0c-1,0 -1,0 -1,-1l0 -9zm9 14l4 0 0 -14 3 0 -1 -4 -8 0 -1 4 3 0 0 14zm15 -15c1,0 1,0 1,1l0 3c0,0 0,1 -1,1l-3 0 0 -5 3 0zm1 10c0,1 0,1 -1,1l-3 0 0 -4 3 0c1,0 1,0 1,1l0 2zm4 -2c0,-1 0,-2 -2,-2 2,-1 2,-2 2,-2l0 -5c0,-1 -1,-2 -2,-2l-9 0 0 18 8 0c2,0 3,-1 3,-3l0 -4zm9 -2l0 5 -3 0c0,0 0,0 0,-1l0 -3c0,-1 0,-1 0,-1l3 0zm-1 -5c1,0 1,0 1,0l0 2 -5 0c-1,0 -2,1 -2,2l0 8c0,1 1,2 2,2l3 0 2 -2 0 2 4 0 0 -16c0,-1 -1,-2 -3,-2l-7 0 0 4 5 0zm7 11c0,2 1,3 2,3 2,0 3,-1 3,-3 0,-1 -1,-2 -3,-2 -1,0 -2,1 -2,2zm-376 28c1,0 1,0 1,0l0 6c0,1 0,1 -1,1l-2 0 0 -7 2 0zm1 16c0,0 0,0 -1,0l-2 0 0 -6 2 0c1,0 1,0 1,1l0 5zm3 -8c1,0 1,-1 1,-2l0 -7c0,-2 -1,-3 -3,-3l-9 0 0 24 9 0c3,0 4,-1 4,-3l0 -6c0,-1 -1,-3 -2,-3zm13 8c1,-3 1,-6 1,-10l3 0 0 10 -4 0zm-2 4l7 0 0 4 4 -1 0 -7 -1 0 0 -14 -11 0c0,8 0,12 -1,14l-1 0 0 8 3 -1 0 -3zm19 3c0,1 -1,1 -1,1l-4 0 2 3 3 0c2,0 3,-1 3,-2l4 -23 -5 0 -1 15 -2 0 -2 -15 -4 0 3 17c0,1 1,1 2,1l2 0 0 3zm12 -7l0 -14 -4 0 0 18 18 0 0 -18 -4 0 0 14 -3 0 0 -14 -4 0 0 14 -3 0zm20 -3l7 0 0 -9c0,-1 -1,-2 -2,-2l-7 0c-1,0 -2,1 -2,2l0 14c0,1 1,2 2,2l8 0 1 -4 -6 0c-1,0 -1,0 -1,0l0 -3zm0 -7c0,0 0,0 1,0l2 0c0,0 0,0 0,0l0 5 -3 0 0 -5z"/>
   <path class="fil1" d="M192 862c0,0 0,0 0,0l2 0 -1 -4 -3 0c-1,0 -1,0 -1,1l-2 7 -1 0 0 -8 -4 0 0 8 -1 0 -3 -7c0,-1 0,-1 0,-1l-3 0 -1 4 1 0c0,0 1,0 1,0l1 5 -3 9 4 0c1,-2 2,-5 2,-7l2 0 0 7 4 0 0 -7 1 0 2 7 4 0c-1,-3 -2,-6 -3,-9l2 -5zm7 -4l-4 0 0 18 4 0 0 0 3 -12 0 12 4 0 0 -18 -4 0 0 1 -3 11 0 -12zm16 4c0,0 1,0 1,0l0 3c0,1 -1,1 -1,1l-3 0 0 -4 3 0zm1 10c0,0 0,0 -1,0l-3 0 0 -4 3 0c0,0 1,0 1,1l0 3zm4 -3c0,-1 -1,-2 -2,-2 1,0 1,-1 1,-2l0 -4c0,-2 0,-3 -2,-3l-9 0 0 18 9 0c2,0 3,-1 3,-2l0 -5zm5 0l7 0 0 -9c0,-1 -1,-2 -2,-2l-6 0c-2,0 -2,1 -2,2l0 14c0,1 0,2 2,2l7 0 1 -4 -6 0c0,0 -1,0 -1,0l0 -3zm0 -7c0,0 1,0 1,0l2 0c0,0 1,0 1,0l0 5 -4 0 0 -5zm12 14l4 0 0 -14 3 0 -1 -4 -9 0 -1 4 4 0 0 14zm19 0c2,0 2,-1 2,-2l0 -5c0,-1 0,-1 -1,-2 1,0 1,-1 1,-1l0 -6c0,-1 0,-2 -2,-2l-6 0c0,2 -1,3 -1,4l5 0c0,0 0,0 0,1l0 2c0,1 0,1 0,1l-4 0 0 3 4 0c0,0 0,0 0,0l0 3c0,0 0,0 0,0l-5 0c0,2 0,3 1,4l6 0zm8 -7l7 0 0 -9c0,-1 -1,-2 -2,-2l-7 0c-1,0 -2,1 -2,2l0 14c0,1 1,2 2,2l8 0 1 -4 -6 0c-1,0 -1,0 -1,0l0 -3zm0 -7c0,0 0,0 1,0l2 0c0,0 1,0 1,0l0 5 -4 0 0 -5zm16 12l3 -8 0 10 3 0 0 -18 -4 0c0,3 -2,6 -2,8l-3 -8 -4 0 0 18 4 0 0 -10 3 8zm10 -2l-2 0 1 4 5 0 0 -14 3 0 0 14 4 0 0 -18 -11 0 0 14zm17 -14l-4 0 0 18 4 0 0 0 3 -12 0 12 4 0 0 -18 -4 0 0 1 -3 11 0 -12zm30 4c1,0 1,0 1,0l1 0 -1 -4 -3 0c0,0 0,0 0,1l-2 7 -2 0 0 -8 -4 0 0 8 -1 0 -2 -7c0,-1 0,-1 0,-1l-3 0 -1 4 1 0c0,0 0,0 0,0l2 5 -3 9 4 0c1,-2 2,-5 2,-7l1 0 0 7 4 0 0 -7 2 0 2 7 4 0c-1,-3 -2,-6 -3,-9l1 -5zm8 -4l-4 0 0 18 4 0 0 0 3 -12 0 12 4 0 0 -18 -4 0 0 1 -3 11 0 -12zm16 4c0,0 0,0 0,0l0 3c0,1 0,1 0,1l-3 0 0 -4 3 0zm0 10c0,0 0,0 0,0l-3 0 0 -4 3 0c0,0 0,0 0,1l0 3zm4 -3c0,-1 0,-2 -1,-2 1,0 1,-1 1,-2l0 -4c0,-2 -1,-3 -2,-3l-9 0 0 18 9 0c2,0 2,-1 2,-2l0 -5zm7 4c-1,0 -1,0 -1,-1l0 -10c0,0 0,0 1,0l2 0c0,0 1,0 1,0l0 10c0,1 -1,1 -1,1l-2 0zm-5 1c0,1 1,2 3,2l6 0c2,0 2,-1 2,-2l0 -13c0,-2 0,-3 -2,-3l-6 0c-2,0 -3,1 -3,3l0 13zm22 -21c-1,3 -2,3 -3,3 -1,0 -3,0 -3,-3l-2 0c0,4 2,4 5,4 2,0 5,0 5,-4l-2 0zm-5 5l-4 0 0 18 4 0 0 0 3 -12 0 12 4 0 0 -18 -4 0 0 1 -3 11 0 -12zm20 18c2,0 3,-1 3,-2l0 -5c0,-1 -1,-1 -2,-2 1,0 1,-1 1,-1l0 -6c0,-1 0,-2 -2,-2l-6 0c0,2 0,3 -1,4l5 0c0,0 1,0 1,1l0 2c0,1 -1,1 -1,1l-3 0 0 3 3 0c0,0 1,0 1,0l0 3c0,0 -1,0 -1,0l-5 0c0,2 1,3 1,4l6 0zm12 -8l0 4 -3 0c-1,0 -1,0 -1,0l0 -4c0,0 0,0 1,0l3 0zm-1 -6c0,0 1,0 1,1l0 2 -5 0c-2,0 -2,1 -2,2l0 7c0,1 0,2 2,2l3 0 2 -2 0 2 3 0 0 -15c0,-2 0,-3 -2,-3l-7 0 -1 4 6 0zm15 14c2,0 2,-1 2,-2l0 -14c0,-1 0,-2 -2,-2l-9 0 0 25 4 0 0 -9 2 2 3 0zm-5 -4l0 -10 3 0c0,0 1,0 1,0l0 10c0,0 -1,0 -1,0l-3 0zm9 -3c0,1 1,2 2,2 0,0 -1,0 -1,1l-1 4 4 0 1 -4c0,-1 0,-1 1,-1l1 0 0 5 4 0 0 -18 -8 0c-2,0 -3,1 -3,2l0 9zm8 -7l0 6 -3 0c-1,0 -1,0 -1,-1l0 -5c0,0 0,0 1,0l3 0zm5 12c0,1 1,2 3,2 1,0 2,-1 2,-2 0,-2 -1,-3 -2,-3 -2,0 -3,1 -3,3zm-382 48l9 0 0 -4 -5 0 0 -6 4 0 0 -4 -4 0 0 -7 6 0 -1 -4 -9 0 0 25zm11 0l4 0 0 -14 5 0 -1 -4 -8 0 0 18zm15 -4c0,0 -1,0 -1,0l0 -10c0,-1 1,-1 1,-1l2 0c0,0 1,0 1,1l0 10c0,0 0,0 -1,0l-2 0zm-5 1c0,2 1,3 3,3l6 0c2,0 2,-1 2,-3l0 -13c0,-1 0,-2 -2,-2l-6 0c-2,0 -3,1 -3,2l0 13zm22 -1l0 -14 -4 0 0 18 8 0 0 4 4 -1 0 -7 -1 0 0 -14 -4 0 0 14 -3 0zm17 -11c0,0 0,0 0,1l0 3c0,0 0,1 0,1l-3 0 0 -5 3 0zm0 10c0,1 0,1 0,1l-3 0 0 -4 3 0c0,0 0,0 0,1l0 2zm4 -2c0,-1 0,-2 -1,-2 1,-1 1,-2 1,-2l0 -5c0,-1 -1,-2 -2,-2l-9 0 0 18 9 0c1,0 2,-1 2,-3l0 -4zm6 0l7 0 0 -9c0,-2 -1,-2 -2,-2l-7 0c-1,0 -2,1 -2,2l0 14c0,1 1,2 2,2l8 0 1 -4 -6 0c-1,0 -1,0 -1,-1l0 -2zm0 -7c0,-1 0,-1 1,-1l2 0c0,0 0,0 0,1l0 4 -3 0 0 -4zm11 14l4 0 0 -14 3 0 -1 -4 -8 0 -1 4 3 0 0 14zm13 -7l6 0 0 -9c0,-2 0,-2 -2,-2l-6 0c-1,0 -2,1 -2,2l0 14c0,1 0,2 2,2l7 0 1 -4 -6 0c0,0 0,0 0,-1l0 -2zm0 -7c0,-1 0,-1 0,-1l2 0c1,0 1,0 1,1l0 4 -3 0 0 -4zm16 -4l0 8 -4 0 0 -8 -4 0 0 18 4 0 0 -8 4 0 0 8 3 0 0 -18 -3 0zm9 0l-4 0 0 18 4 0 0 -1 3 -12 0 13 4 0 0 -18 -4 0 0 0 -3 12 0 -12zm16 15c0,2 1,3 3,3l6 0c2,0 2,-1 2,-3l0 -13c0,-1 0,-2 -2,-2l-6 0c-2,0 -3,1 -3,2l0 5 -3 0 0 -7 -4 0 0 18 4 0 0 -8 3 0 0 5zm5 -1c-1,0 -1,0 -1,0l0 -10c0,-1 0,-1 1,-1l2 0c0,0 1,0 1,1l0 10c0,0 -1,0 -1,0l-2 0zm20 -11l0 15 4 0 0 -18 -11 0 0 18 4 0 0 -15 3 0zm10 11c0,0 0,0 0,0l0 -10c0,-1 0,-1 0,-1l2 0c1,0 1,0 1,1l0 10c0,0 0,0 -1,0l-2 0zm-4 1c0,2 0,3 2,3l7 0c1,0 2,-1 2,-3l0 -13c0,-1 -1,-2 -2,-2l-7 0c-2,0 -2,1 -2,2l0 13zm17 -15l-4 0 0 18 4 0 0 -8 1 0 2 8 5 0 -3 -10 1 -4c0,0 0,0 1,0l1 0 -1 -4 -3 0c0,0 -1,0 -1,0l-2 8 -1 0 0 -8zm10 14l-2 0 1 4 5 0 0 -15 3 0 0 15 4 0 0 -18 -11 0 0 14zm18 0c-1,0 -1,0 -1,0l0 -10c0,-1 0,-1 1,-1l2 0c0,0 0,0 0,1l0 10c0,0 0,0 0,0l-2 0zm-5 1c0,2 1,3 2,3l7 0c1,0 2,-1 2,-3l0 -13c0,-1 -1,-2 -2,-2l-7 0c-1,0 -2,1 -2,2l0 13zm20 -15l0 8 -3 0 0 -8 -4 0 0 18 4 0 0 -8 3 0 0 8 4 0 0 -18 -4 0zm10 0l-4 0 0 18 4 0 0 -1 3 -12 0 13 4 0 0 -18 -4 0 0 0 -3 12 0 -12zm11 18l4 0 0 -14 4 0 -1 -4 -9 0 -1 4 3 0 0 14zm13 -18l-4 0 0 18 9 0c1,0 2,-1 2,-2l0 -8c0,-2 -1,-2 -2,-2l-5 0 0 -6zm0 14l0 -5 2 0c1,0 1,0 1,1l0 4c0,0 0,0 -1,0l-2 0zm13 -10c0,0 0,0 1,0l4 0 -1 -4 -6 0c-1,0 -2,0 -2,2l0 14c0,1 1,2 2,2l6 0 1 -4 -4 0c-1,0 -1,0 -1,-1l0 -9zm7 6c0,1 0,2 1,2 0,0 -1,1 -1,1l-1 5 4 0 1 -5c0,-1 1,-1 2,-1l1 0 0 6 3 0 0 -18 -8 0c-2,0 -2,1 -2,2l0 8zm7 -7l0 7 -3 0c-1,0 -1,-1 -1,-1l0 -5c0,-1 0,-1 1,-1l3 0zm17 -3l0 8 -4 0 0 -8 -4 0 0 18 4 0 0 -8 4 0 0 8 3 0 0 -18 -3 0zm9 11l7 0 0 -9c0,-2 -1,-2 -2,-2l-6 0c-2,0 -3,1 -3,2l0 14c0,1 1,2 3,2l7 0 1 -4 -6 0c0,0 -1,0 -1,-1l0 -2zm0 -7c0,-1 1,-1 1,-1l2 0c0,0 1,0 1,1l0 4 -4 0 0 -4zm20 14c2,0 2,-1 2,-2l0 -5c0,-1 0,-2 -1,-2 1,0 1,-1 1,-2l0 -5c0,-2 0,-2 -2,-2l-6 0c0,1 -1,2 -1,4l5 0c0,0 0,0 0,0l0 3c0,0 0,0 0,0l-4 0 0 3 4 0c0,0 0,0 0,1l0 2c0,1 0,1 0,1l-5 0c0,1 0,2 1,4l6 0zm11 -9l0 5 -2 0c-1,0 -1,0 -1,-1l0 -3c0,-1 0,-1 1,-1l2 0zm0 -5c0,0 0,0 0,0l0 2 -4 0c-2,0 -3,1 -3,2l0 8c0,1 1,2 3,2l3 0 1 -2 0 2 4 0 0 -16c0,-1 -1,-2 -2,-2l-7 0 -1 4 6 0zm10 -1l3 0c0,0 0,1 0,1l0 9c0,1 0,1 0,1l-2 0c-1,0 -1,0 -1,-1l0 -10zm7 -10c-1,0 -2,0 -3,0l0 0c0,0 -1,0 -1,0l-5 0c-1,0 -2,1 -2,3l0 20c0,1 1,2 2,2l7 0c2,0 2,-1 2,-2l0 -14c0,-1 0,-2 -2,-2l-5 0 0 -2c0,-1 0,-1 1,-1l4 0c1,0 2,-1 2,-2l0 -2zm8 28c0,0 0,0 -1,0l-3 0 1 4 4 0c1,0 2,-1 2,-2l4 -23 -4 0 -2 15 -1 0 -2 -15 -4 0 2 16c0,1 1,2 2,2l3 0 -1 3zm13 -7c0,-4 1,-6 1,-10l3 0 0 10 -4 0zm-2 4l7 0 0 4 4 -1 0 -7 -2 0 0 -14 -10 0c0,7 -1,11 -1,14l-2 0 0 8 4 -1 0 -3zm16 -18l-3 0 0 18 9 0c1,0 2,-1 2,-2l0 -8c0,-2 -1,-2 -2,-2l-6 0 0 -6zm0 14l0 -5 3 0c1,0 1,0 1,1l0 4c0,0 0,0 -1,0l-3 0zm10 1c0,2 0,3 2,3 -1,1 -1,1 -1,2l1 0c1,-1 3,-3 3,-5 0,-1 -1,-2 -3,-2 -1,0 -2,1 -2,2zm-404 45l0 3 4 0 -4 -24 -5 0 -4 24 4 0 1 -3 4 0zm-2 -15l1 12 -3 0 2 -12zm19 4l0 14 4 0 0 -18 -11 0 0 18 4 0 0 -14 3 0zm10 11c0,0 0,0 0,-1l0 -10c0,0 0,0 0,0l2 0c1,0 1,0 1,0l0 10c0,1 0,1 -1,1l-2 0zm-4 1c0,1 1,2 2,2l7 0c1,0 2,-1 2,-2l0 -13c0,-2 -1,-3 -2,-3l-7 0c-1,0 -2,1 -2,3l0 13zm17 -16l-4 0 0 18 4 0 0 -7 1 0 2 7 5 0 -3 -9 1 -5c0,0 0,0 1,0l1 0 -1 -4 -3 0c0,0 0,0 -1,1l-2 7 -1 0 0 -8zm10 14l-2 0 1 4 5 0 0 -14 3 0 0 14 4 0 0 -18 -11 0 0 14zm18 1c-1,0 -1,0 -1,-1l0 -10c0,0 0,0 1,0l2 0c0,0 0,0 0,0l0 10c0,1 0,1 0,1l-2 0zm-5 1c0,1 1,2 2,2l7 0c1,0 2,-1 2,-2l0 -13c0,-2 -1,-3 -2,-3l-7 0c-1,0 -2,1 -2,3l0 13zm20 -16l0 8 -3 0 0 -8 -4 0 0 18 4 0 0 -7 3 0 0 7 4 0 0 -18 -4 0zm10 0l-4 0 0 18 4 0 0 0 3 -12 0 12 4 0 0 -18 -4 0 0 1 -3 11 0 -12zm16 4c0,0 1,0 1,0l0 3c0,1 -1,1 -1,1l-3 0 0 -4 3 0zm1 10c0,0 -1,0 -1,0l-3 0 0 -4 3 0c0,0 1,0 1,1l0 3zm4 -3c0,-1 -1,-2 -2,-2 1,0 1,-1 1,-2l0 -4c0,-2 -1,-3 -2,-3l-9 0 0 18 9 0c2,0 3,-1 3,-2l0 -5zm5 3l0 -14 -3 0 0 18 18 0 0 -18 -4 0 0 14 -3 0 0 -14 -4 0 0 14 -4 0zm21 -14l-4 0 0 18 4 0 0 0 3 -12 0 12 4 0 0 -18 -4 0 0 1 -3 11 0 -12zm13 5c0,-1 0,-1 0,-1l5 0 -1 -4 -6 0c-2,0 -2,1 -2,2l0 14c0,1 0,2 2,2l6 0 1 -4 -5 0c0,0 0,0 0,0l0 -9zm10 -5l-4 0 0 18 9 0c2,0 2,-1 2,-2l0 -8c0,-1 0,-2 -2,-2l-5 0 0 -6zm0 15l0 -5 3 0c0,0 0,0 0,0l0 4c0,0 0,1 0,1l-3 0zm9 1c0,1 1,2 2,2 0,1 0,2 -1,3l2 0c1,-2 2,-4 2,-5 0,-2 -1,-3 -2,-3 -2,0 -3,1 -3,3zm16 -11c0,-1 0,-1 0,-1l5 0 -1 -4 -6 0c-1,0 -2,1 -2,2l0 14c0,1 0,2 2,2l6 0 1 -4 -5 0c0,0 0,0 0,0l0 -9zm13 -1c1,0 1,0 1,0l0 3c0,1 0,1 -1,1l-3 0 0 -4 3 0zm1 10c0,0 0,0 -1,0l-3 0 0 -4 3 0c1,0 1,0 1,1l0 3zm4 -3c0,-1 -1,-2 -2,-2 1,0 2,-1 2,-2l0 -4c0,-2 -1,-3 -3,-3l-9 0 0 18 9 0c2,0 3,-1 3,-2l0 -5zm6 4c0,0 0,0 0,-1l0 -10c0,0 0,0 0,0l2 0c1,0 1,0 1,0l0 10c0,1 0,1 -1,1l-2 0zm-4 1c0,1 1,2 2,2l7 0c1,0 2,-1 2,-2l0 -13c0,-2 -1,-3 -2,-3l-7 0c-1,0 -2,1 -2,3l0 13zm21 -21c0,3 -1,3 -3,3 -1,0 -2,0 -2,-3l-3 0c0,4 3,4 5,4 3,0 5,0 5,-4l-2 0zm-4 5l-4 0 0 18 4 0 0 0 3 -12 0 12 4 0 0 -18 -4 0 0 1 -3 11 0 -12zm20 4l0 14 4 0 0 -18 -11 0 0 18 4 0 0 -14 3 0zm15 14c1,0 2,-1 2,-2l0 -14c0,-1 -1,-2 -2,-2l-9 0 0 25 4 0 0 -9 1 2 4 0zm-5 -4l0 -10 2 0c1,0 1,0 1,0l0 10c0,0 0,0 -1,0l-2 0zm13 1c0,0 0,0 0,-1l0 -10c0,0 0,0 0,0l2 0c1,0 1,0 1,0l0 10c0,1 0,1 -1,1l-2 0zm-4 1c0,1 1,2 2,2l7 0c1,0 2,-1 2,-2l0 -13c0,-2 -1,-3 -2,-3l-7 0c-1,0 -2,1 -2,3l0 13zm18 -2c1,-3 1,-6 1,-10l3 0 0 10 -4 0zm-2 4l8 0 0 4 3 -1 0 -7 -1 0 0 -14 -11 0c0,8 0,12 -1,14l-1 0 0 8 3 -1 0 -3zm18 -3c-1,0 -1,0 -1,-1l0 -10c0,0 0,0 1,0l2 0c0,0 0,0 0,0l0 10c0,1 0,1 0,1l-2 0zm-5 1c0,1 1,2 2,2l7 0c1,0 2,-1 2,-2l0 -13c0,-2 -1,-3 -2,-3l-7 0c-1,0 -2,1 -2,3l0 13zm14 -2l-2 0 1 4 5 0 0 -14 4 0 0 14 4 0 0 -18 -12 0 0 14zm31 -10c0,0 0,0 1,0l1 0 -1 -4 -3 0c0,0 0,0 0,1l-3 7 -1 0 0 -8 -4 0 0 8 -1 0 -2 -7c0,-1 -1,-1 -1,-1l-3 0 -1 4 1 0c1,0 1,0 1,0l1 5 -3 9 5 0c0,-2 1,-5 2,-7l1 0 0 7 4 0 0 -7 1 0 2 7 5 0c-1,-3 -2,-6 -3,-9l1 -5zm8 -4l-4 0 0 18 4 0 0 0 3 -12 0 12 4 0 0 -18 -4 0 0 1 -3 11 0 -12zm20 4l0 14 4 0 0 -18 -11 0 0 18 4 0 0 -14 3 0zm12 17c0,1 -1,1 -1,1l-4 0 2 3 3 0c2,0 3,-1 3,-2l4 -23 -5 0 -1 15 -2 0 -2 -15 -4 0 3 17c0,1 1,1 2,1l2 0 0 3zm10 -3l4 0 0 -14 4 0 -1 -4 -9 0 -1 4 3 0 0 14zm13 -18l-4 0 0 18 9 0c1,0 2,-1 2,-2l0 -8c0,-1 -1,-2 -2,-2l-5 0 0 -6zm0 15l0 -5 2 0c1,0 1,0 1,0l0 4c0,0 0,1 -1,1l-2 0zm9 1c0,1 1,2 3,2 1,0 2,-1 2,-2 0,-2 -1,-3 -2,-3 -2,0 -3,1 -3,3zm-280 -922l147 0 0 2 -147 0 0 -2z"/>
  </g>
 </g>
</svg>
