<svg id="Слой_1" data-name="Слой 1" xmlns="http://www.w3.org/2000/svg" viewBox="0 0 372.27 379.78"><title>fill-text-02</title><path d="M126.77,6.84h2.35l-1.7,5.62,1.7,5.54h-2.35l-1.69-5.54Zm4.18,0h2.35l-1.71,5.62,1.7,5.54H131l-1.7-5.54Z" transform="translate(-13.54 -2.3)"/><path d="M135.09,18V2.92h2.13a10.3,10.3,0,0,1,2.71.26,3.59,3.59,0,0,1,1.94,1.34,3.74,3.74,0,0,1,.72,2.29,3.65,3.65,0,0,1-.33,1.57,3.74,3.74,0,0,1-1.06,1.31A4.44,4.44,0,0,1,143,11.31a4.45,4.45,0,0,1,.57,2.29,4.68,4.68,0,0,1-.59,2.32,3.9,3.9,0,0,1-1.53,1.56,5.27,5.27,0,0,1-2.57.52Zm2.58-12.35V8.83h.56a1.91,1.91,0,0,0,1.4-.44,1.56,1.56,0,0,0,.46-1.2,1.48,1.48,0,0,0-.43-1.12,1.85,1.85,0,0,0-1.33-.42Zm0,5.75v3.86h.64a3.66,3.66,0,0,0,2.17-.45A1.57,1.57,0,0,0,141,13.5a2,2,0,0,0-.65-1.54,3.35,3.35,0,0,0-2.19-.56Z" transform="translate(-13.54 -2.3)"/><path d="M155.81,13.23h-8.08a3.07,3.07,0,0,0,.93,1.89,2.76,2.76,0,0,0,1.94.71,3.21,3.21,0,0,0,2.43-1.1l2.12,1.11a5.23,5.23,0,0,1-1.9,1.85,5.43,5.43,0,0,1-2.63.6,4.9,4.9,0,0,1-3.84-1.66,6,6,0,0,1-1.49-4.15,6.24,6.24,0,0,1,1.48-4.24,4.75,4.75,0,0,1,3.71-1.68,4.91,4.91,0,0,1,3.86,1.68,6.51,6.51,0,0,1,1.48,4.46ZM153.29,11a2.79,2.79,0,0,0-1-1.52,2.65,2.65,0,0,0-1.7-.58,2.81,2.81,0,0,0-1.85.65,3.66,3.66,0,0,0-.92,1.45Z" transform="translate(-13.54 -2.3)"/><path d="M160.35,6.84V8.07a4.68,4.68,0,0,1,1.47-1.13,3.81,3.81,0,0,1,1.7-.38,4.21,4.21,0,0,1,3.34,1.65,6.42,6.42,0,0,1,1.37,4.23,6.22,6.22,0,0,1-1.42,4.17,4.29,4.29,0,0,1-3.36,1.68,3.83,3.83,0,0,1-1.62-.35,4.86,4.86,0,0,1-1.48-1.12v5.26h-2.5V6.84ZM163,9.14a2.5,2.5,0,0,0-2,.9,3.48,3.48,0,0,0-.78,2.36,3.62,3.62,0,0,0,.78,2.41,2.48,2.48,0,0,0,2,.91,2.44,2.44,0,0,0,1.94-.93,3.53,3.53,0,0,0,.79-2.38,3.54,3.54,0,0,0-.77-2.35A2.47,2.47,0,0,0,163,9.14Z" transform="translate(-13.54 -2.3)"/><path d="M179.91,2.3V5a19.14,19.14,0,0,1-2.1.14,18.22,18.22,0,0,0-2.78.18,3.46,3.46,0,0,0-1.64.74,3.26,3.26,0,0,0-1,1.33A7,7,0,0,0,172,9.51c.73-1.93,2-2.9,3.74-2.9a4.42,4.42,0,0,1,3.38,1.58,5.89,5.89,0,0,1,1.43,4.09A6.19,6.19,0,0,1,179,16.57a4.88,4.88,0,0,1-3.79,1.72A4.71,4.71,0,0,1,172,17a5.71,5.71,0,0,1-1.8-3,16.71,16.71,0,0,1-.39-3.69,12.19,12.19,0,0,1,.56-4.08,5.49,5.49,0,0,1,1.48-2.37,4.75,4.75,0,0,1,2.13-1,21.82,21.82,0,0,1,3.55-.38C178.61,2.43,179.4,2.37,179.91,2.3ZM178,12.42a3.52,3.52,0,0,0-.75-2.31,2.6,2.6,0,0,0-4,0,3.52,3.52,0,0,0-.77,2.31,3.48,3.48,0,0,0,.77,2.36,2.5,2.5,0,0,0,2,.89,2.53,2.53,0,0,0,2-.89A3.39,3.39,0,0,0,178,12.42Z" transform="translate(-13.54 -2.3)"/><path d="M187.33,6.56a4.87,4.87,0,0,1,2.67.79A5.31,5.31,0,0,1,192,9.49a6.23,6.23,0,0,1,.7,2.92,6.35,6.35,0,0,1-.7,2.95A5.36,5.36,0,0,1,190,17.51a4.91,4.91,0,0,1-2.69.78,4.77,4.77,0,0,1-3.68-1.71,6,6,0,0,1-1.53-4.15,6,6,0,0,1,1.73-4.36A4.76,4.76,0,0,1,187.33,6.56Zm0,2.63a2.46,2.46,0,0,0-2,.91,3.43,3.43,0,0,0-.78,2.32,3.53,3.53,0,0,0,.77,2.36,2.57,2.57,0,0,0,3.92,0,3.45,3.45,0,0,0,.79-2.35,3.46,3.46,0,0,0-.77-2.33A2.49,2.49,0,0,0,187.38,9.19Z" transform="translate(-13.54 -2.3)"/><path d="M197.22,10.86H201v-4h2.52V18H201V13.38h-3.76V18H194.7V6.84h2.52Z" transform="translate(-13.54 -2.3)"/><path d="M210.75,6.56a4.87,4.87,0,0,1,2.67.79,5.45,5.45,0,0,1,2,2.14,6.23,6.23,0,0,1,.7,2.92,6.35,6.35,0,0,1-.7,2.95,5.31,5.31,0,0,1-1.93,2.15,4.85,4.85,0,0,1-2.68.78,4.76,4.76,0,0,1-3.68-1.71,6,6,0,0,1-1.53-4.15,6,6,0,0,1,1.73-4.36A4.74,4.74,0,0,1,210.75,6.56Zm0,2.63a2.45,2.45,0,0,0-1.95.91,3.43,3.43,0,0,0-.78,2.32,3.53,3.53,0,0,0,.77,2.36,2.57,2.57,0,0,0,3.92,0,3.5,3.5,0,0,0,.79-2.35,3.46,3.46,0,0,0-.77-2.33A2.51,2.51,0,0,0,210.79,9.19Z" transform="translate(-13.54 -2.3)"/><path d="M228,9.1l-2.1,1.28a3.5,3.5,0,0,0-1.17-1,3.13,3.13,0,0,0-1.35-.27,3,3,0,0,0-2.28.94,3.34,3.34,0,0,0-.88,2.4,3.26,3.26,0,0,0,.84,2.32,2.89,2.89,0,0,0,2.21.9,3.06,3.06,0,0,0,2.63-1.28l2,1.51a5.23,5.23,0,0,1-4.56,2.34,5.15,5.15,0,0,1-4.14-1.75,6.05,6.05,0,0,1-1.5-4.08,6.17,6.17,0,0,1,.73-3,5.36,5.36,0,0,1,2-2.14,5.57,5.57,0,0,1,2.92-.78A5.26,5.26,0,0,1,228,9.1Z" transform="translate(-13.54 -2.3)"/><path d="M231.54,18h-1.33V6.84h2.45V13.4l5.13-6.56H239V18h-2.45V11.58Z" transform="translate(-13.54 -2.3)"/><path d="M241.54,18V6.84h2.51v8.47h3.77V6.84h2.51v8.47h2.56V20h-2.4V18Z" transform="translate(-13.54 -2.3)"/><path d="M261.67,6.84h2.52V18h-2.52V16.82a4.86,4.86,0,0,1-1.48,1.12,3.71,3.71,0,0,1-1.6.35,4.26,4.26,0,0,1-3.36-1.68,6.22,6.22,0,0,1-1.42-4.17,6.42,6.42,0,0,1,1.37-4.23,4.2,4.2,0,0,1,3.33-1.65,3.78,3.78,0,0,1,1.7.38,4.65,4.65,0,0,1,1.46,1.13ZM259,9.14a2.43,2.43,0,0,0-1.94.92,3.48,3.48,0,0,0-.77,2.35,3.57,3.57,0,0,0,.78,2.38,2.53,2.53,0,0,0,3.9,0,3.62,3.62,0,0,0,.78-2.41A3.48,3.48,0,0,0,261,10,2.5,2.5,0,0,0,259,9.14Z" transform="translate(-13.54 -2.3)"/><path d="M268,18H265.7l1.69-5.62-1.71-5.54H268l1.69,5.54Zm4.17,0h-2.34l1.71-5.62-1.72-5.54h2.35l1.7,5.54Z" transform="translate(-13.54 -2.3)"/><path d="M124.85,20.87V19h149.3v1.89Z" transform="translate(-13.54 -2.3)"/><path d="M63.52,34.94a6.43,6.43,0,0,1,4.95,2.31,8.19,8.19,0,0,1,2.07,5.65,8.08,8.08,0,0,1-2,5.59,6.59,6.59,0,0,1-10-.06,8.29,8.29,0,0,1-2-5.58,8.62,8.62,0,0,1,.94-4A7.41,7.41,0,0,1,60,36,6.41,6.41,0,0,1,63.52,34.94Zm0,2.81a4,4,0,0,0-3.16,1.45A5.38,5.38,0,0,0,59,42.9a5.05,5.05,0,0,0,1.62,4A4.14,4.14,0,0,0,63.54,48a4,4,0,0,0,3.13-1.48A5.31,5.31,0,0,0,68,42.88a5.38,5.38,0,0,0-1.3-3.64A4,4,0,0,0,63.49,37.75Z" transform="translate(-13.54 -2.3)"/><path d="M82.52,41.5l-2.1,1.28a3.5,3.5,0,0,0-1.17-1,3.13,3.13,0,0,0-1.35-.27,3,3,0,0,0-2.28.94,3.34,3.34,0,0,0-.88,2.4,3.26,3.26,0,0,0,.84,2.32,2.89,2.89,0,0,0,2.21.9,3.06,3.06,0,0,0,2.63-1.28l2,1.51a5.23,5.23,0,0,1-4.56,2.34,5.15,5.15,0,0,1-4.14-1.75,6.05,6.05,0,0,1-1.5-4.08,6.17,6.17,0,0,1,.73-3,5.36,5.36,0,0,1,2-2.14A5.57,5.57,0,0,1,77.89,39a5.26,5.26,0,0,1,4.63,2.54Z" transform="translate(-13.54 -2.3)"/><path d="M94.83,45.63H86.75a3.07,3.07,0,0,0,.93,1.89,2.76,2.76,0,0,0,1.94.71,3.21,3.21,0,0,0,2.43-1.1l2.12,1.11a5.23,5.23,0,0,1-1.9,1.85,5.43,5.43,0,0,1-2.63.6A4.9,4.9,0,0,1,85.8,49a6,6,0,0,1-1.49-4.15,6.24,6.24,0,0,1,1.48-4.24A4.75,4.75,0,0,1,89.5,39a4.91,4.91,0,0,1,3.86,1.68,6.51,6.51,0,0,1,1.48,4.46Zm-2.51-2.2a2.86,2.86,0,0,0-1-1.52,2.63,2.63,0,0,0-1.7-.58,2.81,2.81,0,0,0-1.85.65,3.66,3.66,0,0,0-.92,1.45Z" transform="translate(-13.54 -2.3)"/><path d="M99.37,39.24v1.23a4.8,4.8,0,0,1,1.47-1.13,3.81,3.81,0,0,1,1.7-.38,4.21,4.21,0,0,1,3.34,1.65,6.42,6.42,0,0,1,1.37,4.23A6.22,6.22,0,0,1,105.83,49a4.27,4.27,0,0,1-3.36,1.68,3.83,3.83,0,0,1-1.62-.35,5,5,0,0,1-1.48-1.12v5.26h-2.5V39.24Zm2.65,2.3a2.51,2.51,0,0,0-2,.9,3.48,3.48,0,0,0-.78,2.36,3.62,3.62,0,0,0,.78,2.41,2.55,2.55,0,0,0,3.92,0,3.57,3.57,0,0,0,.78-2.38,3.48,3.48,0,0,0-.77-2.35A2.46,2.46,0,0,0,102,41.54Z" transform="translate(-13.54 -2.3)"/><path d="M119.39,45.63H111.3a3.08,3.08,0,0,0,.94,1.89,2.73,2.73,0,0,0,1.94.71,3.19,3.19,0,0,0,2.42-1.1l2.12,1.11a5.23,5.23,0,0,1-1.9,1.85,5.43,5.43,0,0,1-2.63.6A4.9,4.9,0,0,1,110.35,49a6,6,0,0,1-1.48-4.15,6.19,6.19,0,0,1,1.48-4.24A4.72,4.72,0,0,1,114.06,39a4.89,4.89,0,0,1,3.85,1.68,6.51,6.51,0,0,1,1.48,4.46Zm-2.52-2.2a2.86,2.86,0,0,0-1-1.52,2.62,2.62,0,0,0-1.7-.58,2.81,2.81,0,0,0-1.85.65,3.66,3.66,0,0,0-.92,1.45Z" transform="translate(-13.54 -2.3)"/><path d="M131,34.7v2.65a19.14,19.14,0,0,1-2.1.14,18.12,18.12,0,0,0-2.78.18,3.46,3.46,0,0,0-1.64.74,3.2,3.2,0,0,0-1,1.33,7,7,0,0,0-.36,2.17q1.08-2.89,3.74-2.9a4.42,4.42,0,0,1,3.38,1.58,5.89,5.89,0,0,1,1.42,4.09A6.19,6.19,0,0,1,130.14,49a4.85,4.85,0,0,1-3.78,1.72,4.71,4.71,0,0,1-3.23-1.25,5.64,5.64,0,0,1-1.8-3,16.69,16.69,0,0,1-.4-3.69,12.16,12.16,0,0,1,.57-4.08A5.49,5.49,0,0,1,123,36.32a4.66,4.66,0,0,1,2.12-1,22.11,22.11,0,0,1,3.56-.38C129.72,34.83,130.5,34.77,131,34.7Zm-1.88,10.12a3.48,3.48,0,0,0-.76-2.31,2.44,2.44,0,0,0-2-.92,2.49,2.49,0,0,0-2,.92,3.88,3.88,0,0,0,0,4.67,2.49,2.49,0,0,0,2,.89,2.53,2.53,0,0,0,2-.89A3.44,3.44,0,0,0,129.14,44.82Z" transform="translate(-13.54 -2.3)"/><path d="M136.23,39.24v1.23a4.72,4.72,0,0,1,1.48-1.13A3.74,3.74,0,0,1,139.4,39a4.21,4.21,0,0,1,3.34,1.65,6.42,6.42,0,0,1,1.37,4.23A6.22,6.22,0,0,1,142.69,49a4.27,4.27,0,0,1-3.36,1.68,3.83,3.83,0,0,1-1.62-.35,5,5,0,0,1-1.48-1.12v5.26h-2.5V39.24Zm2.65,2.3a2.52,2.52,0,0,0-2,.9,3.48,3.48,0,0,0-.78,2.36,3.62,3.62,0,0,0,.78,2.41,2.5,2.5,0,0,0,2,.91,2.47,2.47,0,0,0,1.94-.93,3.57,3.57,0,0,0,.78-2.38,3.48,3.48,0,0,0-.77-2.35A2.46,2.46,0,0,0,138.88,41.54Z" transform="translate(-13.54 -2.3)"/><path d="M147.52,50.4h-1.33V39.24h2.45V45.8l5.13-6.56H155V50.4h-2.45V44Z" transform="translate(-13.54 -2.3)"/><path d="M166.49,50.4h-2.56l-2.51-7-2.56,7h-2.55l4.28-11.16h1.62Z" transform="translate(-13.54 -2.3)"/><path d="M175.22,39.24h2.52V50.4h-2.52V49.22a4.86,4.86,0,0,1-1.48,1.12,3.76,3.76,0,0,1-1.61.35A4.29,4.29,0,0,1,168.77,49a6.27,6.27,0,0,1-1.41-4.17,6.36,6.36,0,0,1,1.37-4.23A4.17,4.17,0,0,1,172.06,39a3.81,3.81,0,0,1,1.7.38,4.76,4.76,0,0,1,1.46,1.13Zm-2.65,2.3a2.46,2.46,0,0,0-1.94.92,3.54,3.54,0,0,0-.77,2.35,3.58,3.58,0,0,0,.79,2.38,2.43,2.43,0,0,0,1.93.93,2.48,2.48,0,0,0,2-.91,3.62,3.62,0,0,0,.78-2.41,3.48,3.48,0,0,0-.78-2.36A2.51,2.51,0,0,0,172.57,41.54Z" transform="translate(-13.54 -2.3)"/><path d="M190.1,41.5,188,42.78a3.57,3.57,0,0,0-1.16-1,3.2,3.2,0,0,0-1.36-.27,3,3,0,0,0-2.28.94,3.37,3.37,0,0,0-.87,2.4,3.26,3.26,0,0,0,.84,2.32,2.86,2.86,0,0,0,2.2.9A3,3,0,0,0,188,46.84l2,1.51a5.68,5.68,0,0,1-8.7.59,6.05,6.05,0,0,1-1.5-4.08,6.29,6.29,0,0,1,.73-3,5.43,5.43,0,0,1,2-2.14,5.6,5.6,0,0,1,2.92-.78,5.4,5.4,0,0,1,2.68.66A5.24,5.24,0,0,1,190.1,41.5Z" transform="translate(-13.54 -2.3)"/><path d="M194.88,43.26h.74a8.42,8.42,0,0,1,2.43.27,2.78,2.78,0,0,1,1.43,1.14,3.82,3.82,0,0,1,.58,2.16,4.05,4.05,0,0,1-.53,2.15,2.57,2.57,0,0,1-1.34,1.14,7.25,7.25,0,0,1-2.29.28h-3.54V39.24h2.52Zm0,5h.76a3.26,3.26,0,0,0,1-.11,1.08,1.08,0,0,0,.54-.42,1.21,1.21,0,0,0,.23-.74,1.29,1.29,0,0,0-1.48-1.44h-1Z" transform="translate(-13.54 -2.3)"/><path d="M207.28,50.4V39.24h4a3.36,3.36,0,0,1,2.69.87,3,3,0,0,1,.71,2,2.44,2.44,0,0,1-1.46,2.35,2.83,2.83,0,0,1,2,2.86,3.16,3.16,0,0,1-.52,1.88,2.47,2.47,0,0,1-1.34,1,7.79,7.79,0,0,1-2.25.25Zm2.51-6.77h1a1.26,1.26,0,0,0,.95-.34,1,1,0,0,0,.34-.77,1.4,1.4,0,0,0-.32-1,1,1,0,0,0-.77-.35h-1.18Zm0,4.62h1.27a1.24,1.24,0,0,0,1-.39,1.22,1.22,0,0,0,.3-.75,1.61,1.61,0,0,0-.34-1,1.42,1.42,0,0,0-1.21-.45h-1.06Z" transform="translate(-13.54 -2.3)"/><path d="M227.43,45.63h-8.09a3.08,3.08,0,0,0,.94,1.89,2.74,2.74,0,0,0,1.94.71,3.21,3.21,0,0,0,2.43-1.1l2.12,1.11a5.31,5.31,0,0,1-1.9,1.85,5.46,5.46,0,0,1-2.63.6A4.92,4.92,0,0,1,218.39,49a6,6,0,0,1-1.48-4.15,6.19,6.19,0,0,1,1.48-4.24A4.74,4.74,0,0,1,222.1,39,4.93,4.93,0,0,1,226,40.64a6.56,6.56,0,0,1,1.48,4.46Zm-2.52-2.2a2.79,2.79,0,0,0-1-1.52,2.65,2.65,0,0,0-1.7-.58,2.79,2.79,0,0,0-1.85.65,3.66,3.66,0,0,0-.92,1.45Z" transform="translate(-13.54 -2.3)"/><path d="M232,39.24v1.23a4.68,4.68,0,0,1,1.47-1.13,3.81,3.81,0,0,1,1.7-.38,4.21,4.21,0,0,1,3.34,1.65,6.42,6.42,0,0,1,1.37,4.23A6.22,6.22,0,0,1,238.43,49a4.29,4.29,0,0,1-3.37,1.68,3.82,3.82,0,0,1-1.61-.35A4.86,4.86,0,0,1,232,49.22v5.26h-2.5V39.24Zm2.64,2.3a2.5,2.5,0,0,0-2,.9,3.48,3.48,0,0,0-.78,2.36,3.62,3.62,0,0,0,.78,2.41,2.48,2.48,0,0,0,2,.91,2.44,2.44,0,0,0,1.94-.93,4,4,0,0,0,0-4.73A2.47,2.47,0,0,0,234.61,41.54Z" transform="translate(-13.54 -2.3)"/><path d="M251.53,34.7v2.65a19.14,19.14,0,0,1-2.1.14,18.12,18.12,0,0,0-2.78.18,3.46,3.46,0,0,0-1.64.74,3.2,3.2,0,0,0-1,1.33,7,7,0,0,0-.36,2.17c.73-1.93,2-2.9,3.74-2.9a4.42,4.42,0,0,1,3.38,1.58,5.89,5.89,0,0,1,1.43,4.09A6.2,6.2,0,0,1,250.65,49a4.85,4.85,0,0,1-3.78,1.72,4.71,4.71,0,0,1-3.23-1.25,5.64,5.64,0,0,1-1.8-3,16.69,16.69,0,0,1-.4-3.69,12.16,12.16,0,0,1,.57-4.08,5.49,5.49,0,0,1,1.48-2.37,4.65,4.65,0,0,1,2.13-1,21.82,21.82,0,0,1,3.55-.38C250.23,34.83,251,34.77,251.53,34.7Zm-1.88,10.12a3.48,3.48,0,0,0-.76-2.31,2.44,2.44,0,0,0-2-.92,2.49,2.49,0,0,0-2,.92,3.52,3.52,0,0,0-.77,2.31,3.48,3.48,0,0,0,.77,2.36,2.5,2.5,0,0,0,2,.89,2.53,2.53,0,0,0,2-.89A3.44,3.44,0,0,0,249.65,44.82Z" transform="translate(-13.54 -2.3)"/><path d="M261.64,39.24h2.52V50.4h-2.52V49.22a5,5,0,0,1-1.47,1.12,3.79,3.79,0,0,1-1.61.35A4.26,4.26,0,0,1,255.2,49a6.22,6.22,0,0,1-1.42-4.17,6.42,6.42,0,0,1,1.37-4.23A4.21,4.21,0,0,1,258.49,39a3.77,3.77,0,0,1,1.69.38,4.54,4.54,0,0,1,1.46,1.13ZM259,41.54a2.43,2.43,0,0,0-1.94.92,3.48,3.48,0,0,0-.77,2.35,3.57,3.57,0,0,0,.78,2.38,2.53,2.53,0,0,0,3.9,0,3.57,3.57,0,0,0,.78-2.41,3.43,3.43,0,0,0-.78-2.36A2.5,2.5,0,0,0,259,41.54Z" transform="translate(-13.54 -2.3)"/><path d="M270.88,39.24h2.57l2.6,7,2.88-7h2.58l-6.28,15.24h-2.6l2.06-4.91Z" transform="translate(-13.54 -2.3)"/><path d="M289.53,50.4v1.94h-2.24V48h1.5l3.47-8.79h1.62L297.39,48h1.54v4.31h-2.4V50.4ZM294.72,48l-1.65-4.7-1.7,4.7Z" transform="translate(-13.54 -2.3)"/><path d="M305.23,39a4.86,4.86,0,0,1,2.66.79,5.31,5.31,0,0,1,1.95,2.14,6.24,6.24,0,0,1,.71,2.92,6.36,6.36,0,0,1-.71,2.95,5.36,5.36,0,0,1-1.92,2.15,4.88,4.88,0,0,1-2.68.78A4.78,4.78,0,0,1,301.55,49a6.4,6.4,0,0,1,.2-8.51A4.78,4.78,0,0,1,305.23,39Zm0,2.63a2.47,2.47,0,0,0-2,.91,3.43,3.43,0,0,0-.78,2.32,3.53,3.53,0,0,0,.77,2.36,2.59,2.59,0,0,0,3.93,0,3.92,3.92,0,0,0,0-4.68A2.49,2.49,0,0,0,305.27,41.59Z" transform="translate(-13.54 -2.3)"/><path d="M315.1,39.24v1.23a4.72,4.72,0,0,1,1.48-1.13,3.74,3.74,0,0,1,1.69-.38,4.21,4.21,0,0,1,3.34,1.65A6.42,6.42,0,0,1,323,44.84,6.22,6.22,0,0,1,321.56,49a4.27,4.27,0,0,1-3.36,1.68,3.83,3.83,0,0,1-1.62-.35,5,5,0,0,1-1.48-1.12v5.26h-2.5V39.24Zm2.65,2.3a2.51,2.51,0,0,0-2,.9A3.48,3.48,0,0,0,315,44.8a3.62,3.62,0,0,0,.78,2.41,2.55,2.55,0,0,0,3.92,0,3.57,3.57,0,0,0,.78-2.38,3.48,3.48,0,0,0-.77-2.35A2.46,2.46,0,0,0,317.75,41.54Z" transform="translate(-13.54 -2.3)"/><path d="M329.78,39a4.92,4.92,0,0,1,2.67.79,5.45,5.45,0,0,1,1.95,2.14,6.46,6.46,0,0,1,0,5.87,5.36,5.36,0,0,1-1.92,2.15,4.88,4.88,0,0,1-2.68.78A4.78,4.78,0,0,1,326.1,49a6,6,0,0,1-1.52-4.15,6,6,0,0,1,1.72-4.36A4.78,4.78,0,0,1,329.78,39Zm0,2.63a2.45,2.45,0,0,0-1.95.91,3.43,3.43,0,0,0-.79,2.32,3.48,3.48,0,0,0,.78,2.36,2.45,2.45,0,0,0,1.95.9,2.49,2.49,0,0,0,2-.91,3.92,3.92,0,0,0,0-4.68A2.47,2.47,0,0,0,329.82,41.59Z" transform="translate(-13.54 -2.3)"/><path d="M337.14,39.24H343v2.67h-3.34V50.4h-2.52Z" transform="translate(-13.54 -2.3)"/><path d="M30.65,75.6V60.52h2.61V73h4.55V60.52h2.61V73h2.76v4.84H40.76V75.6Z" transform="translate(-13.54 -2.3)"/><path d="M44.54,75.6V64.44h4a3.34,3.34,0,0,1,2.69.87,3,3,0,0,1,.71,2,2.43,2.43,0,0,1-1.46,2.35,2.84,2.84,0,0,1,2,2.86A3.17,3.17,0,0,1,52,74.36a2.44,2.44,0,0,1-1.33,1,7.87,7.87,0,0,1-2.26.25Zm2.52-6.77h1a1.3,1.3,0,0,0,1-.34,1.08,1.08,0,0,0,.34-.76,1.37,1.37,0,0,0-.33-1,1,1,0,0,0-.77-.35H47.06Zm0,4.62h1.26a1.25,1.25,0,0,0,1-.39,1.22,1.22,0,0,0,.3-.75,1.68,1.68,0,0,0-.34-1,1.44,1.44,0,0,0-1.22-.45h-1Z" transform="translate(-13.54 -2.3)"/><path d="M64.69,70.83H56.61a3.1,3.1,0,0,0,.93,1.89,2.77,2.77,0,0,0,2,.71,3.19,3.19,0,0,0,2.42-1.1L64,73.44a5.23,5.23,0,0,1-1.9,1.85,5.43,5.43,0,0,1-2.63.6,4.9,4.9,0,0,1-3.84-1.66,6,6,0,0,1-1.49-4.15,6.24,6.24,0,0,1,1.48-4.24,4.76,4.76,0,0,1,3.72-1.68,4.91,4.91,0,0,1,3.85,1.68A6.51,6.51,0,0,1,64.7,70.3Zm-2.51-2.2a2.86,2.86,0,0,0-1-1.52,2.63,2.63,0,0,0-1.7-.58,2.81,2.81,0,0,0-1.85.65,3.73,3.73,0,0,0-.92,1.45Z" transform="translate(-13.54 -2.3)"/><path d="M65.84,64.44h9.35v2.67H71.85V75.6H69.33V67.11H65.84Z" transform="translate(-13.54 -2.3)"/><path d="M76.84,64.44h2.51v4.18l3.47-4.18h3.07l-4.46,5.44L86,75.6H82.61l-3-3.94-.27.35V75.6H76.84Z" transform="translate(-13.54 -2.3)"/><path d="M88.31,75.6H87V64.44h2.45V71l5.14-6.56h1.2V75.6H93.31V69.18Z" transform="translate(-13.54 -2.3)"/><path d="M102.21,70.79V68.31h9.66v2.48Z" transform="translate(-13.54 -2.3)"/><path d="M128.13,66.7,126,68a3.5,3.5,0,0,0-1.17-1,3.13,3.13,0,0,0-1.35-.27,3,3,0,0,0-2.29.94,3.37,3.37,0,0,0-.87,2.4,3.26,3.26,0,0,0,.84,2.32,2.89,2.89,0,0,0,2.21.9A3.07,3.07,0,0,0,126,72l2,1.51a5.2,5.2,0,0,1-4.55,2.34,5.14,5.14,0,0,1-4.14-1.75,6.05,6.05,0,0,1-1.5-4.08,6.17,6.17,0,0,1,.73-3,5.36,5.36,0,0,1,2-2.14,5.57,5.57,0,0,1,2.92-.78,5.43,5.43,0,0,1,2.68.66A5.29,5.29,0,0,1,128.13,66.7Z" transform="translate(-13.54 -2.3)"/><path d="M140.45,70.83h-8.08a3,3,0,0,0,.93,1.89,2.76,2.76,0,0,0,1.94.71,3.21,3.21,0,0,0,2.43-1.1l2.12,1.11a5.23,5.23,0,0,1-1.9,1.85,5.43,5.43,0,0,1-2.63.6,4.9,4.9,0,0,1-3.84-1.66,6,6,0,0,1-1.49-4.15,6.24,6.24,0,0,1,1.48-4.24,4.75,4.75,0,0,1,3.71-1.68A4.91,4.91,0,0,1,139,65.84a6.51,6.51,0,0,1,1.48,4.46Zm-2.51-2.2a2.86,2.86,0,0,0-1-1.52,2.65,2.65,0,0,0-1.7-.58,2.81,2.81,0,0,0-1.85.65,3.73,3.73,0,0,0-.92,1.45Z" transform="translate(-13.54 -2.3)"/><path d="M145,64.44v1.23a4.68,4.68,0,0,1,1.47-1.13,3.81,3.81,0,0,1,1.7-.38,4.21,4.21,0,0,1,3.34,1.65A6.42,6.42,0,0,1,152.87,70a6.22,6.22,0,0,1-1.42,4.17,4.29,4.29,0,0,1-3.36,1.68,3.83,3.83,0,0,1-1.62-.35A4.86,4.86,0,0,1,145,74.42v5.26h-2.5V64.44Zm2.64,2.3a2.5,2.5,0,0,0-2,.9,3.48,3.48,0,0,0-.78,2.36,3.62,3.62,0,0,0,.78,2.41,2.48,2.48,0,0,0,2,.91,2.44,2.44,0,0,0,1.94-.93,4,4,0,0,0,0-4.73A2.47,2.47,0,0,0,147.63,66.74Z" transform="translate(-13.54 -2.3)"/><path d="M165,70.83h-8.08a3.1,3.1,0,0,0,.93,1.89,2.77,2.77,0,0,0,2,.71,3.19,3.19,0,0,0,2.42-1.1l2.12,1.11a5.23,5.23,0,0,1-1.9,1.85,5.43,5.43,0,0,1-2.63.6A4.9,4.9,0,0,1,156,74.23a6,6,0,0,1-1.49-4.15A6.24,6.24,0,0,1,156,65.84a4.76,4.76,0,0,1,3.72-1.68,4.91,4.91,0,0,1,3.85,1.68A6.51,6.51,0,0,1,165,70.3Zm-2.51-2.2a2.86,2.86,0,0,0-1-1.52,2.63,2.63,0,0,0-1.7-.58,2.81,2.81,0,0,0-1.85.65,3.73,3.73,0,0,0-.92,1.45Z" transform="translate(-13.54 -2.3)"/><path d="M172.12,72l-.27-.34-3,3.93h-3.34l4.53-5.73-4.48-5.43h3.08l3.46,4.18V64.44h2.52v4.18l3.45-4.18h3.09l-4.47,5.44,4.52,5.72H177.9l-3-3.94-.26.35V75.6h-2.52Z" transform="translate(-13.54 -2.3)"/><path d="M182.26,64.44h2.52v4.18l3.47-4.18h3.07l-4.47,5.44,4.53,5.72H188l-3-3.94-.27.35V75.6h-2.52Z" transform="translate(-13.54 -2.3)"/><path d="M193.73,75.6H192.4V64.44h2.45V71L200,64.44h1.21V75.6h-2.45V69.18Z" transform="translate(-13.54 -2.3)"/><path d="M211.53,68.46h3.76v-4h2.51V75.6h-2.51V71h-3.76V75.6H209V64.44h2.52Z" transform="translate(-13.54 -2.3)"/><path d="M227.75,64.44h2.52V75.6h-2.52V74.42a4.86,4.86,0,0,1-1.48,1.12,3.71,3.71,0,0,1-1.6.35,4.26,4.26,0,0,1-3.36-1.68A6.22,6.22,0,0,1,219.89,70a6.42,6.42,0,0,1,1.37-4.23,4.2,4.2,0,0,1,3.33-1.65,3.78,3.78,0,0,1,1.7.38,4.65,4.65,0,0,1,1.46,1.13Zm-2.64,2.3a2.43,2.43,0,0,0-1.94.92A3.48,3.48,0,0,0,222.4,70a3.57,3.57,0,0,0,.78,2.38,2.53,2.53,0,0,0,3.9,0,3.62,3.62,0,0,0,.78-2.41,3.48,3.48,0,0,0-.78-2.36A2.5,2.5,0,0,0,225.11,66.74Z" transform="translate(-13.54 -2.3)"/><path d="M238.1,75.6V64.44h4a3.34,3.34,0,0,1,2.69.87,3,3,0,0,1,.71,2,2.44,2.44,0,0,1-1.46,2.35,2.83,2.83,0,0,1,2,2.86,3.16,3.16,0,0,1-.52,1.88,2.48,2.48,0,0,1-1.33,1,7.87,7.87,0,0,1-2.26.25Zm2.51-6.77h1a1.26,1.26,0,0,0,.95-.34,1,1,0,0,0,.34-.76,1.41,1.41,0,0,0-.32-1,1,1,0,0,0-.77-.35h-1.18Zm0,4.62h1.27a1.19,1.19,0,0,0,1.34-1.14,1.67,1.67,0,0,0-.33-1,1.45,1.45,0,0,0-1.22-.45h-1.06Z" transform="translate(-13.54 -2.3)"/><path d="M258.25,70.83h-8.08a3,3,0,0,0,.93,1.89,2.76,2.76,0,0,0,1.94.71,3.21,3.21,0,0,0,2.43-1.1l2.12,1.11a5.23,5.23,0,0,1-1.9,1.85,5.43,5.43,0,0,1-2.63.6,4.9,4.9,0,0,1-3.84-1.66,6,6,0,0,1-1.49-4.15,6.19,6.19,0,0,1,1.48-4.24,4.74,4.74,0,0,1,3.71-1.68,4.91,4.91,0,0,1,3.86,1.68,6.51,6.51,0,0,1,1.48,4.46Zm-2.52-2.2a2.79,2.79,0,0,0-1-1.52,2.65,2.65,0,0,0-1.7-.58,2.79,2.79,0,0,0-1.85.65,3.73,3.73,0,0,0-.92,1.45Z" transform="translate(-13.54 -2.3)"/><path d="M259.39,64.44h9.35v2.67h-3.33V75.6h-2.52V67.11h-3.5Z" transform="translate(-13.54 -2.3)"/><path d="M270.39,75.6V64.44h4a3.37,3.37,0,0,1,2.7.87,3,3,0,0,1,.71,2,2.44,2.44,0,0,1-1.46,2.35,2.83,2.83,0,0,1,2,2.86,3.17,3.17,0,0,1-.53,1.88,2.44,2.44,0,0,1-1.33,1,7.84,7.84,0,0,1-2.25.25Zm2.52-6.77h1a1.26,1.26,0,0,0,1-.34,1,1,0,0,0,.34-.76,1.41,1.41,0,0,0-.32-1,1,1,0,0,0-.77-.35h-1.18Zm0,4.62h1.27a1.24,1.24,0,0,0,1-.39,1.22,1.22,0,0,0,.3-.75,1.61,1.61,0,0,0-.34-1,1.42,1.42,0,0,0-1.21-.45h-1.06Z" transform="translate(-13.54 -2.3)"/><path d="M282.21,71a2.63,2.63,0,0,1-1.34-1.12,3.47,3.47,0,0,1-.52-1.86,3.7,3.7,0,0,1,.64-2.17,2.73,2.73,0,0,1,1.51-1.18,11.39,11.39,0,0,1,2.76-.25h2.54V75.6h-2.52v-4h-.49l-2.39,4h-3Zm3.07-1.56V66.78h-.88c-.95,0-1.43.45-1.43,1.33s.53,1.35,1.6,1.35Z" transform="translate(-13.54 -2.3)"/><path d="M289.43,64.44h2.92l2,3,2-3h2.87l-3.4,5.25,3.85,5.91h-2.92l-2.39-3.66L292,75.6h-2.88l3.81-5.87Z" transform="translate(-13.54 -2.3)"/><path d="M316,66.7,313.92,68a3.7,3.7,0,0,0-1.17-1,3.13,3.13,0,0,0-1.35-.27,3,3,0,0,0-2.29.94,3.37,3.37,0,0,0-.87,2.4,3.26,3.26,0,0,0,.84,2.32,2.89,2.89,0,0,0,2.21.9A3.07,3.07,0,0,0,313.92,72l2,1.51a5.68,5.68,0,0,1-8.7.59,6.09,6.09,0,0,1-1.49-4.08,6.28,6.28,0,0,1,.72-3,5.46,5.46,0,0,1,2-2.14,5.56,5.56,0,0,1,2.91-.78,5.47,5.47,0,0,1,2.69.66A5.29,5.29,0,0,1,316,66.7Z" transform="translate(-13.54 -2.3)"/><path d="M319.61,75.6h-1.34V64.44h2.45V71l5.14-6.56h1.21V75.6h-2.45V69.18Z" transform="translate(-13.54 -2.3)"/><path d="M331.32,71A2.57,2.57,0,0,1,330,69.9a3.39,3.39,0,0,1-.53-1.86,3.78,3.78,0,0,1,.64-2.17,2.75,2.75,0,0,1,1.52-1.18,11.23,11.23,0,0,1,2.75-.25h2.54V75.6H334.4v-4h-.49l-2.4,4h-3Zm3.08-1.56V66.78h-.88c-1,0-1.44.45-1.44,1.33s.54,1.35,1.6,1.35Z" transform="translate(-13.54 -2.3)"/><path d="M342,75.6h-2.52V64.44H342v4.42h1.33a6,6,0,0,1,1.94-3.46,4.82,4.82,0,0,1,3.18-1.24,4.92,4.92,0,0,1,3.76,1.69A6,6,0,0,1,353.72,70a6.06,6.06,0,0,1-1.51,4.14,4.93,4.93,0,0,1-7.07.46,5.68,5.68,0,0,1-1.85-3.18H342ZM351.19,70a3.46,3.46,0,0,0-.77-2.33,2.51,2.51,0,0,0-2-.9,2.43,2.43,0,0,0-1.95.93,3.48,3.48,0,0,0-.77,2.29,3.54,3.54,0,0,0,.77,2.37,2.48,2.48,0,0,0,1.95.89,2.53,2.53,0,0,0,2-.89A3.44,3.44,0,0,0,351.19,70Z" transform="translate(-13.54 -2.3)"/><path d="M354.88,64.44h9.35v2.67h-3.34V75.6h-2.51V67.11h-3.5Z" transform="translate(-13.54 -2.3)"/><path d="M367.26,72.68a1.32,1.32,0,0,1,1,.46,1.66,1.66,0,0,1,.42,1.14,1.67,1.67,0,0,1-.42,1.14,1.33,1.33,0,0,1-1,.47,1.35,1.35,0,0,1-1-.47,1.67,1.67,0,0,1-.42-1.14,1.66,1.66,0,0,1,.42-1.14A1.34,1.34,0,0,1,367.26,72.68Z" transform="translate(-13.54 -2.3)"/><path d="M38.24,85.72H48V100.8H45.39V88.4H40.86v12.4H38.24Z" transform="translate(-13.54 -2.3)"/><path d="M60.87,96H52.78a3.08,3.08,0,0,0,.94,1.89,2.74,2.74,0,0,0,1.94.71,3.18,3.18,0,0,0,2.42-1.1l2.12,1.11a5.21,5.21,0,0,1-1.89,1.85,5.46,5.46,0,0,1-2.63.6,4.91,4.91,0,0,1-3.85-1.66,6,6,0,0,1-1.48-4.15A6.19,6.19,0,0,1,51.83,91a4.72,4.72,0,0,1,3.71-1.68A4.89,4.89,0,0,1,59.39,91a6.51,6.51,0,0,1,1.49,4.46Zm-2.52-2.2a2.79,2.79,0,0,0-1-1.52,2.66,2.66,0,0,0-1.71-.58,2.78,2.78,0,0,0-1.84.65,3.66,3.66,0,0,0-.93,1.45Z" transform="translate(-13.54 -2.3)"/><path d="M65.4,89.64v1.23a4.83,4.83,0,0,1,1.48-1.13,3.78,3.78,0,0,1,1.7-.38A4.17,4.17,0,0,1,71.91,91a6.37,6.37,0,0,1,1.38,4.23,6.27,6.27,0,0,1-1.42,4.17,4.29,4.29,0,0,1-3.37,1.68,3.79,3.79,0,0,1-1.61-.35,5,5,0,0,1-1.49-1.12v5.26H62.91V89.64Zm2.65,2.3a2.5,2.5,0,0,0-2,.9,3.49,3.49,0,0,0-.79,2.36,3.62,3.62,0,0,0,.79,2.41,2.48,2.48,0,0,0,2,.91A2.44,2.44,0,0,0,70,97.59a4,4,0,0,0,0-4.73A2.47,2.47,0,0,0,68.05,91.94Z" transform="translate(-13.54 -2.3)"/><path d="M85.42,96H77.33a3.08,3.08,0,0,0,.94,1.89,2.74,2.74,0,0,0,1.94.71,3.21,3.21,0,0,0,2.43-1.1l2.12,1.11a5.31,5.31,0,0,1-1.9,1.85,5.46,5.46,0,0,1-2.63.6,4.89,4.89,0,0,1-3.84-1.66,6,6,0,0,1-1.49-4.15A6.19,6.19,0,0,1,76.38,91a4.74,4.74,0,0,1,3.71-1.68A4.91,4.91,0,0,1,84,91a6.56,6.56,0,0,1,1.48,4.46Zm-2.52-2.2a2.79,2.79,0,0,0-1-1.52,2.65,2.65,0,0,0-1.7-.58,2.79,2.79,0,0,0-1.85.65,3.66,3.66,0,0,0-.92,1.45Z" transform="translate(-13.54 -2.3)"/><path d="M101.92,100.8H87.45V89.64H90v8.47h3.45V89.64h2.52v8.47h3.47V89.64h2.51Z" transform="translate(-13.54 -2.3)"/><path d="M111.87,89.64h2.52V100.8h-2.52V99.62a4.86,4.86,0,0,1-1.48,1.12,3.74,3.74,0,0,1-1.6.35,4.26,4.26,0,0,1-3.36-1.68A6.22,6.22,0,0,1,104,95.24,6.36,6.36,0,0,1,105.38,91a4.19,4.19,0,0,1,3.33-1.65,3.81,3.81,0,0,1,1.7.38,4.65,4.65,0,0,1,1.46,1.13Zm-2.64,2.3a2.43,2.43,0,0,0-1.94.92,3.49,3.49,0,0,0-.78,2.35,3.58,3.58,0,0,0,.79,2.38,2.43,2.43,0,0,0,1.93.93,2.48,2.48,0,0,0,2-.91A3.62,3.62,0,0,0,112,95.2a3.48,3.48,0,0,0-.78-2.36A2.5,2.5,0,0,0,109.23,91.94Z" transform="translate(-13.54 -2.3)"/><path d="M116.92,89.64h5.86v2.67h-3.34v8.49h-2.52Z" transform="translate(-13.54 -2.3)"/><path d="M127,93.66h3.76v-4h2.52V100.8h-2.52V96.18H127v4.62h-2.51V89.64H127Z" transform="translate(-13.54 -2.3)"/><path d="M134.7,89.64h2.57l2.61,7,2.87-7h2.58l-6.28,15.24h-2.6l2.06-4.91Z" transform="translate(-13.54 -2.3)"/><path d="M146.77,100.8V89.64h4a3.34,3.34,0,0,1,2.69.87,3,3,0,0,1,.71,2,2.44,2.44,0,0,1-1.46,2.35,2.83,2.83,0,0,1,2,2.86,3.16,3.16,0,0,1-.52,1.88,2.48,2.48,0,0,1-1.33,1,7.87,7.87,0,0,1-2.26.25ZM149.28,94h1a1.26,1.26,0,0,0,1-.34,1,1,0,0,0,.34-.77,1.4,1.4,0,0,0-.32-1,1,1,0,0,0-.77-.35h-1.18Zm0,4.62h1.27a1.19,1.19,0,0,0,1.34-1.14,1.67,1.67,0,0,0-.33-1,1.44,1.44,0,0,0-1.22-.45h-1.06Z" transform="translate(-13.54 -2.3)"/><path d="M167.6,96.37h-2a4.92,4.92,0,0,1-3.15-.88,3.44,3.44,0,0,1-1.1-2.88v-3h2.51v2.75q0,1.47,1.77,1.47h2V89.64h2.52V100.8H167.6Z" transform="translate(-13.54 -2.3)"/><path d="M182.71,96h-8.09a3.08,3.08,0,0,0,.94,1.89,2.73,2.73,0,0,0,1.94.71,3.18,3.18,0,0,0,2.42-1.1L182,98.64a5.23,5.23,0,0,1-1.9,1.85,5.39,5.39,0,0,1-2.62.6,4.91,4.91,0,0,1-3.85-1.66,6,6,0,0,1-1.48-4.15A6.19,6.19,0,0,1,173.67,91a4.72,4.72,0,0,1,3.71-1.68A4.89,4.89,0,0,1,181.23,91a6.51,6.51,0,0,1,1.49,4.46Zm-2.52-2.2a2.9,2.9,0,0,0-1-1.52,2.66,2.66,0,0,0-1.71-.58,2.81,2.81,0,0,0-1.85.65,3.66,3.66,0,0,0-.92,1.45Z" transform="translate(-13.54 -2.3)"/><path d="M187.24,89.64v1.23a4.83,4.83,0,0,1,1.48-1.13,3.77,3.77,0,0,1,1.69-.38A4.21,4.21,0,0,1,193.75,91a6.37,6.37,0,0,1,1.38,4.23,6.27,6.27,0,0,1-1.42,4.17,4.29,4.29,0,0,1-3.37,1.68,3.76,3.76,0,0,1-1.61-.35,4.89,4.89,0,0,1-1.49-1.12v5.26h-2.5V89.64Zm2.65,2.3a2.5,2.5,0,0,0-2,.9,3.44,3.44,0,0,0-.79,2.36,3.57,3.57,0,0,0,.79,2.41,2.48,2.48,0,0,0,2,.91,2.45,2.45,0,0,0,1.94-.93,3.58,3.58,0,0,0,.79-2.38,3.49,3.49,0,0,0-.78-2.35A2.45,2.45,0,0,0,189.89,91.94Z" transform="translate(-13.54 -2.3)"/><path d="M207.26,96h-8.09a3.08,3.08,0,0,0,.94,1.89,2.74,2.74,0,0,0,1.94.71,3.18,3.18,0,0,0,2.42-1.1l2.12,1.11a5.21,5.21,0,0,1-1.89,1.85,5.46,5.46,0,0,1-2.63.6,4.91,4.91,0,0,1-3.85-1.66,6,6,0,0,1-1.48-4.15A6.19,6.19,0,0,1,198.22,91a4.74,4.74,0,0,1,3.71-1.68A4.89,4.89,0,0,1,205.78,91a6.51,6.51,0,0,1,1.49,4.46Zm-2.52-2.2a2.79,2.79,0,0,0-1-1.52,2.66,2.66,0,0,0-1.71-.58,2.78,2.78,0,0,0-1.84.65,3.66,3.66,0,0,0-.93,1.45Z" transform="translate(-13.54 -2.3)"/><path d="M211,96.07v-2h.5a1.58,1.58,0,0,0,.89-.26,1,1,0,0,0,.37-.86,1.13,1.13,0,0,0-1.16-1.18,2.92,2.92,0,0,0-1.55.66l-1-1.93a4.27,4.27,0,0,1,2.89-1.14,3.56,3.56,0,0,1,2.43.84,2.88,2.88,0,0,1,1,2.28,2.72,2.72,0,0,1-1.4,2.36,2.79,2.79,0,0,1,1.87,2.78,3.24,3.24,0,0,1-1,2.48,4.09,4.09,0,0,1-2.91,1,4.72,4.72,0,0,1-3.37-1.27l1.4-1.95a2.72,2.72,0,0,0,1.69.74,1.48,1.48,0,0,0,1-.35,1.14,1.14,0,0,0,.38-.88,1.32,1.32,0,0,0-.36-.92,1.25,1.25,0,0,0-1-.39Z" transform="translate(-13.54 -2.3)"/><path d="M232.9,91.9l-2.1,1.28a3.5,3.5,0,0,0-1.17-1,3.13,3.13,0,0,0-1.35-.27,3,3,0,0,0-2.28.94,3.37,3.37,0,0,0-.87,2.4,3.26,3.26,0,0,0,.84,2.32,2.86,2.86,0,0,0,2.2.9,3.06,3.06,0,0,0,2.63-1.28l2,1.51a5.23,5.23,0,0,1-4.56,2.34,5.15,5.15,0,0,1-4.14-1.75,6.05,6.05,0,0,1-1.5-4.08,6.17,6.17,0,0,1,.73-3,5.36,5.36,0,0,1,2-2.14,5.57,5.57,0,0,1,2.92-.78A5.4,5.4,0,0,1,231,90,5.32,5.32,0,0,1,232.9,91.9Z" transform="translate(-13.54 -2.3)"/><path d="M237.67,93.66h.75a8.47,8.47,0,0,1,2.43.27,2.73,2.73,0,0,1,1.42,1.14,3.74,3.74,0,0,1,.59,2.16,4.05,4.05,0,0,1-.53,2.15,2.57,2.57,0,0,1-1.34,1.14,7.29,7.29,0,0,1-2.29.28h-3.54V89.64h2.51Zm0,5h.77a3.26,3.26,0,0,0,1-.11,1.18,1.18,0,0,0,.54-.42,1.21,1.21,0,0,0,.23-.74,1.29,1.29,0,0,0-1.48-1.44h-1.05Zm6.94-9h2.51V100.8h-2.51Z" transform="translate(-13.54 -2.3)"/><path d="M252.17,89.64v1.23a4.68,4.68,0,0,1,1.47-1.13,3.81,3.81,0,0,1,1.7-.38A4.21,4.21,0,0,1,258.68,91a6.42,6.42,0,0,1,1.37,4.23,6.22,6.22,0,0,1-1.42,4.17,4.29,4.29,0,0,1-3.37,1.68,3.82,3.82,0,0,1-1.61-.35,4.86,4.86,0,0,1-1.48-1.12v5.26h-2.5V89.64Zm2.64,2.3a2.5,2.5,0,0,0-2,.9,3.48,3.48,0,0,0-.78,2.36,3.62,3.62,0,0,0,.78,2.41,2.48,2.48,0,0,0,2,.91,2.44,2.44,0,0,0,1.94-.93,4,4,0,0,0,0-4.73A2.47,2.47,0,0,0,254.81,91.94Z" transform="translate(-13.54 -2.3)"/><path d="M266.84,89.36a4.87,4.87,0,0,1,2.67.79,5.31,5.31,0,0,1,1.95,2.14,6.24,6.24,0,0,1,.71,2.92,6.36,6.36,0,0,1-.71,3,5.36,5.36,0,0,1-1.92,2.15,4.88,4.88,0,0,1-2.69.78,4.77,4.77,0,0,1-3.68-1.71,6.38,6.38,0,0,1,.2-8.51A4.77,4.77,0,0,1,266.84,89.36Zm.05,2.63a2.46,2.46,0,0,0-2,.91,3.43,3.43,0,0,0-.78,2.32,3.53,3.53,0,0,0,.77,2.36,2.57,2.57,0,0,0,3.92,0,3.9,3.9,0,0,0,0-4.68A2.49,2.49,0,0,0,266.89,92Z" transform="translate(-13.54 -2.3)"/><path d="M275.55,100.8h-1.34V89.64h2.45V96.2l5.14-6.56H283V100.8h-2.46V94.38Zm-.63-16.08h2a1.51,1.51,0,0,0,.67.63,2.32,2.32,0,0,0,1,.21,2.64,2.64,0,0,0,1.14-.24,1.46,1.46,0,0,0,.58-.6h2a3.16,3.16,0,0,1-1.12,2.09,4,4,0,0,1-2.65.79,4.5,4.5,0,0,1-1.91-.35,3.15,3.15,0,0,1-1.24-1A3.39,3.39,0,0,1,274.92,84.72Z" transform="translate(-13.54 -2.3)"/><path d="M300.65,91.9l-2.09,1.28a3.7,3.7,0,0,0-1.17-1A3.19,3.19,0,0,0,296,92a3,3,0,0,0-2.29.94,3.37,3.37,0,0,0-.87,2.4,3.26,3.26,0,0,0,.84,2.32,2.89,2.89,0,0,0,2.21.9,3.07,3.07,0,0,0,2.63-1.28l2,1.51a5.68,5.68,0,0,1-8.7.59,6.05,6.05,0,0,1-1.5-4.08,6.29,6.29,0,0,1,.73-3,5.46,5.46,0,0,1,2-2.14,5.56,5.56,0,0,1,2.91-.78,5.47,5.47,0,0,1,2.69.66A5.29,5.29,0,0,1,300.65,91.9Z" transform="translate(-13.54 -2.3)"/><path d="M301.81,89.64h2.57l2.61,7,2.87-7h2.58l-6.28,15.24h-2.6l2.06-4.91Z" transform="translate(-13.54 -2.3)"/><path d="M313.86,89.64h5.86v2.67h-3.34v8.49h-2.52Z" transform="translate(-13.54 -2.3)"/><path d="M323.92,89.64v1.23a4.83,4.83,0,0,1,1.48-1.13,3.77,3.77,0,0,1,1.69-.38A4.19,4.19,0,0,1,330.43,91a6.37,6.37,0,0,1,1.38,4.23,6.27,6.27,0,0,1-1.42,4.17,4.29,4.29,0,0,1-3.37,1.68,3.79,3.79,0,0,1-1.61-.35,5,5,0,0,1-1.49-1.12v5.26h-2.5V89.64Zm2.65,2.3a2.5,2.5,0,0,0-2,.9,3.44,3.44,0,0,0-.79,2.36,3.57,3.57,0,0,0,.79,2.41,2.48,2.48,0,0,0,2,.91,2.45,2.45,0,0,0,1.94-.93,3.53,3.53,0,0,0,.79-2.38,3.49,3.49,0,0,0-.78-2.35A2.43,2.43,0,0,0,326.57,91.94Z" transform="translate(-13.54 -2.3)"/><path d="M338.6,89.36a4.87,4.87,0,0,1,2.67.79,5.45,5.45,0,0,1,2,2.14,6.23,6.23,0,0,1,.7,2.92,6.35,6.35,0,0,1-.7,3,5.31,5.31,0,0,1-1.93,2.15,4.85,4.85,0,0,1-2.68.78,4.76,4.76,0,0,1-3.68-1.71,6.38,6.38,0,0,1,.2-8.51A4.74,4.74,0,0,1,338.6,89.36Zm0,2.63a2.45,2.45,0,0,0-1.95.91,3.43,3.43,0,0,0-.78,2.32,3.53,3.53,0,0,0,.77,2.36,2.57,2.57,0,0,0,3.92,0,3.9,3.9,0,0,0,0-4.68A2.51,2.51,0,0,0,338.64,92Z" transform="translate(-13.54 -2.3)"/><path d="M355.58,85.1v2.65a19.31,19.31,0,0,1-2.1.14,18.12,18.12,0,0,0-2.78.18,3.5,3.5,0,0,0-1.65.74,3.28,3.28,0,0,0-1,1.33,7.63,7.63,0,0,0-.36,2.17q1.1-2.9,3.74-2.9A4.42,4.42,0,0,1,354.8,91a5.89,5.89,0,0,1,1.43,4.09,6.19,6.19,0,0,1-1.53,4.29,4.85,4.85,0,0,1-3.79,1.72,4.71,4.71,0,0,1-3.23-1.25,5.62,5.62,0,0,1-1.79-3,16.12,16.12,0,0,1-.4-3.69,12.56,12.56,0,0,1,.56-4.09,5.6,5.6,0,0,1,1.48-2.36,4.65,4.65,0,0,1,2.13-1,22,22,0,0,1,3.55-.38C354.27,85.23,355.06,85.17,355.58,85.1Zm-1.89,10.12a3.52,3.52,0,0,0-.75-2.31,2.59,2.59,0,0,0-4,0,3.47,3.47,0,0,0-.78,2.31,3.53,3.53,0,0,0,.77,2.36,2.5,2.5,0,0,0,2,.89,2.55,2.55,0,0,0,2-.89A3.44,3.44,0,0,0,353.69,95.22Z" transform="translate(-13.54 -2.3)"/><path d="M359.49,98l1.8,1L359,103.29l-1.25-.66Z" transform="translate(-13.54 -2.3)"/><path d="M58.33,110.92h7.4v2.81H60.89v2.72h4.84v2.76H60.89v4h4.84V126h-7.4Z" transform="translate(-13.54 -2.3)"/><path d="M77.91,121.23H69.83a3,3,0,0,0,.93,1.89,2.74,2.74,0,0,0,1.94.71,3.21,3.21,0,0,0,2.43-1.1l2.12,1.11a5.31,5.31,0,0,1-1.9,1.85,5.46,5.46,0,0,1-2.63.6,4.89,4.89,0,0,1-3.84-1.66,6,6,0,0,1-1.49-4.15,6.19,6.19,0,0,1,1.48-4.24,4.74,4.74,0,0,1,3.71-1.68,4.91,4.91,0,0,1,3.86,1.68,6.56,6.56,0,0,1,1.48,4.46Zm-7.3-11.36a1.21,1.21,0,0,1,.94.43,1.49,1.49,0,0,1,.39,1,1.48,1.48,0,0,1-.39,1,1.23,1.23,0,0,1-1.87,0,1.48,1.48,0,0,1-.39-1,1.49,1.49,0,0,1,.39-1A1.2,1.2,0,0,1,70.61,109.87ZM75.39,119a2.79,2.79,0,0,0-1-1.52,2.65,2.65,0,0,0-1.7-.58,2.79,2.79,0,0,0-1.85.65,3.66,3.66,0,0,0-.92,1.45Zm-.7-9.16a1.19,1.19,0,0,1,.94.43,1.49,1.49,0,0,1,.39,1,1.48,1.48,0,0,1-.39,1,1.23,1.23,0,0,1-1.87,0,1.48,1.48,0,0,1-.39-1,1.49,1.49,0,0,1,.39-1A1.2,1.2,0,0,1,74.69,109.87Z" transform="translate(-13.54 -2.3)"/><path d="M87.73,114.84v1.23a4.72,4.72,0,0,1,1.48-1.13,3.74,3.74,0,0,1,1.69-.38,4.21,4.21,0,0,1,3.34,1.65,6.42,6.42,0,0,1,1.37,4.23,6.22,6.22,0,0,1-1.42,4.17,4.27,4.27,0,0,1-3.36,1.68,3.83,3.83,0,0,1-1.62-.35,5,5,0,0,1-1.48-1.12v5.26h-2.5V114.84Zm2.65,2.3a2.52,2.52,0,0,0-2,.9,3.48,3.48,0,0,0-.78,2.36,3.62,3.62,0,0,0,.78,2.41,2.5,2.5,0,0,0,2,.91,2.47,2.47,0,0,0,1.94-.93,3.57,3.57,0,0,0,.78-2.38,3.48,3.48,0,0,0-.77-2.35A2.46,2.46,0,0,0,90.38,117.14Z" transform="translate(-13.54 -2.3)"/><path d="M96.58,114.84h2.58l2.6,7,2.88-7h2.58l-6.29,15.24h-2.6l2.07-4.91Z" transform="translate(-13.54 -2.3)"/><path d="M108.65,114.84h2.52V119l3.46-4.18h3.08l-4.47,5.44,4.52,5.72h-3.34l-3-3.94-.26.35V126h-2.52Z" transform="translate(-13.54 -2.3)"/><path d="M126.19,114.84h2.52V126h-2.52v-1.18a5,5,0,0,1-1.47,1.12,3.79,3.79,0,0,1-1.61.35,4.26,4.26,0,0,1-3.36-1.68,6.22,6.22,0,0,1-1.42-4.17,6.42,6.42,0,0,1,1.37-4.23,4.21,4.21,0,0,1,3.34-1.65,3.77,3.77,0,0,1,1.69.38,4.54,4.54,0,0,1,1.46,1.13Zm-2.64,2.3a2.43,2.43,0,0,0-1.94.92,3.48,3.48,0,0,0-.77,2.35,3.57,3.57,0,0,0,.78,2.38,2.53,2.53,0,0,0,3.9,0,3.62,3.62,0,0,0,.78-2.41,3.48,3.48,0,0,0-.78-2.36A2.5,2.5,0,0,0,123.55,117.14Z" transform="translate(-13.54 -2.3)"/><path d="M137.39,121.88l3.08-7h1.66L144.64,126h-2.46l-1.34-6.55-3,6.55h-1l-2.92-6.55L132.55,126h-2.46l2.52-11.16h1.66Z" transform="translate(-13.54 -2.3)"/><path d="M147.37,126H146V114.84h2.46v6.56l5.13-6.56h1.21V126h-2.45v-6.42Z" transform="translate(-13.54 -2.3)"/><path d="M167.74,122.41l-.27-.34-3,3.93h-3.34l4.53-5.73-4.47-5.43h3.07l3.47,4.18v-4.18h2.51V119l3.46-4.18h3.08l-4.46,5.44,4.52,5.72h-3.34l-3-3.94-.27.35V126h-2.51Z" transform="translate(-13.54 -2.3)"/><path d="M187.93,121.23h-8.09a3.08,3.08,0,0,0,.94,1.89,2.74,2.74,0,0,0,1.94.71,3.18,3.18,0,0,0,2.42-1.1l2.12,1.11a5.21,5.21,0,0,1-1.89,1.85,5.46,5.46,0,0,1-2.63.6,4.91,4.91,0,0,1-3.85-1.66,6,6,0,0,1-1.48-4.15,6.19,6.19,0,0,1,1.48-4.24,4.74,4.74,0,0,1,3.71-1.68,4.89,4.89,0,0,1,3.85,1.68,6.51,6.51,0,0,1,1.49,4.46Zm-2.52-2.2a2.79,2.79,0,0,0-1-1.52,2.66,2.66,0,0,0-1.71-.58,2.78,2.78,0,0,0-1.84.65A3.66,3.66,0,0,0,180,119Z" transform="translate(-13.54 -2.3)"/><path d="M192.47,118.86h3.77v-4h2.51V126h-2.51v-4.62h-3.77V126H190V114.84h2.51Z" transform="translate(-13.54 -2.3)"/><path d="M215.76,123.31h2.57V128h-2.41v-2H201.29V114.84h2.51v8.47h3.46v-8.47h2.52v8.47h3.47v-8.47h2.51Z" transform="translate(-13.54 -2.3)"/><path d="M221,126H219.7V114.84h2.45v6.56l5.14-6.56h1.21V126H226v-6.42Z" transform="translate(-13.54 -2.3)"/><path d="M233.55,118.86h3.76v-4h2.52V126h-2.52v-4.62h-3.76V126H231V114.84h2.52Z" transform="translate(-13.54 -2.3)"/><path d="M244.88,118.86h.75a8.34,8.34,0,0,1,2.42.27,2.78,2.78,0,0,1,1.43,1.14,3.74,3.74,0,0,1,.58,2.16,4.05,4.05,0,0,1-.53,2.15,2.54,2.54,0,0,1-1.34,1.14,7.2,7.2,0,0,1-2.29.28h-3.54V114.84h2.52Zm0,5h.77a3.36,3.36,0,0,0,1-.11,1.11,1.11,0,0,0,.53-.42,1.15,1.15,0,0,0,.24-.74,1.3,1.3,0,0,0-1.49-1.44h-1Zm6.93-9h2.52V126h-2.52Z" transform="translate(-13.54 -2.3)"/><path d="M271.12,126h-2.56l-2.51-7-2.56,7h-2.55l4.27-11.16h1.63Z" transform="translate(-13.54 -2.3)"/><path d="M277.16,114.56a4.92,4.92,0,0,1,2.67.79,5.45,5.45,0,0,1,1.95,2.14,6.46,6.46,0,0,1,0,5.87,5.36,5.36,0,0,1-1.92,2.15,4.88,4.88,0,0,1-2.68.78,4.78,4.78,0,0,1-3.69-1.71,6.4,6.4,0,0,1,.2-8.51A4.78,4.78,0,0,1,277.16,114.56Zm0,2.63a2.47,2.47,0,0,0-2,.91,3.43,3.43,0,0,0-.78,2.32,3.48,3.48,0,0,0,.78,2.36,2.45,2.45,0,0,0,1.95.9,2.49,2.49,0,0,0,2-.91,3.92,3.92,0,0,0,0-4.68A2.47,2.47,0,0,0,277.2,117.19Z" transform="translate(-13.54 -2.3)"/><path d="M290.67,121.88l3.08-7h1.66L297.92,126h-2.46l-1.34-6.55-3,6.55h-1l-2.93-6.55L285.82,126h-2.45l2.51-11.16h1.66Z" transform="translate(-13.54 -2.3)"/><path d="M306.72,114.84h2.52V126h-2.52v-1.18a5,5,0,0,1-1.47,1.12,3.79,3.79,0,0,1-1.61.35,4.26,4.26,0,0,1-3.36-1.68,6.22,6.22,0,0,1-1.42-4.17,6.42,6.42,0,0,1,1.37-4.23,4.21,4.21,0,0,1,3.34-1.65,3.77,3.77,0,0,1,1.69.38,4.54,4.54,0,0,1,1.46,1.13Zm-2.64,2.3a2.43,2.43,0,0,0-1.94.92,4,4,0,0,0,0,4.73,2.53,2.53,0,0,0,3.9,0,3.57,3.57,0,0,0,.78-2.41,3.43,3.43,0,0,0-.78-2.36A2.49,2.49,0,0,0,304.08,117.14Z" transform="translate(-13.54 -2.3)"/><path d="M314.29,126h-2.51V114.84h2.51v4.42h1.34a6,6,0,0,1,1.93-3.46,4.82,4.82,0,0,1,3.18-1.24,4.9,4.9,0,0,1,3.76,1.69,5.94,5.94,0,0,1,1.56,4.16,6.06,6.06,0,0,1-1.52,4.14,4.91,4.91,0,0,1-7.06.46,5.68,5.68,0,0,1-1.85-3.18h-1.34Zm9.23-5.58a3.41,3.41,0,0,0-.77-2.33,2.48,2.48,0,0,0-2-.9,2.41,2.41,0,0,0-1.95.93,3.43,3.43,0,0,0-.77,2.29,3.49,3.49,0,0,0,.77,2.37,2.47,2.47,0,0,0,1.95.89,2.53,2.53,0,0,0,2-.89A3.44,3.44,0,0,0,323.52,120.42Z" transform="translate(-13.54 -2.3)"/><path d="M327.22,114.84h9.35v2.67h-3.34V126h-2.52v-8.49h-3.49Z" transform="translate(-13.54 -2.3)"/><path d="M339.59,123.08a1.35,1.35,0,0,1,1,.46,1.66,1.66,0,0,1,.42,1.14,1.67,1.67,0,0,1-.42,1.14,1.36,1.36,0,0,1-1,.47,1.33,1.33,0,0,1-1-.47,1.68,1.68,0,0,1-.43-1.14,1.66,1.66,0,0,1,.43-1.14A1.32,1.32,0,0,1,339.59,123.08Z" transform="translate(-13.54 -2.3)"/><path d="M56.67,176.4V161.32h7.09v2.8H59.25V167h.57a7.9,7.9,0,0,1,2.8.42A3.74,3.74,0,0,1,64.43,169a5.17,5.17,0,0,1,.73,2.76,5,5,0,0,1-.55,2.51,4.23,4.23,0,0,1-1.5,1.53,5,5,0,0,1-2.64.59Zm2.58-6.83v4.09h.65a3.25,3.25,0,0,0,2.24-.51,2,2,0,0,0,.47-1.38c0-1.47-.94-2.2-2.82-2.2Z" transform="translate(-13.54 -2.3)"/><path d="M69.65,169.26h.75a8.42,8.42,0,0,1,2.43.27,2.73,2.73,0,0,1,1.42,1.14,3.74,3.74,0,0,1,.59,2.16,4.05,4.05,0,0,1-.53,2.15A2.57,2.57,0,0,1,73,176.12a7.29,7.29,0,0,1-2.29.28H67.14V165.24h2.51Zm0,5h.77a3.26,3.26,0,0,0,1-.11,1.13,1.13,0,0,0,.54-.42,1.21,1.21,0,0,0,.23-.74,1.29,1.29,0,0,0-1.48-1.44h-1Zm6.94-9H79.1V176.4H76.59Z" transform="translate(-13.54 -2.3)"/><path d="M90.61,176.4H88.05l-2.51-7-2.56,7H80.43l4.28-11.16h1.62Z" transform="translate(-13.54 -2.3)"/><path d="M99.73,176.4H97.21V165.24H106V176.4h-2.52v-8.46H99.73Z" transform="translate(-13.54 -2.3)"/><path d="M111.05,165.24v1.23a4.83,4.83,0,0,1,1.48-1.13,3.74,3.74,0,0,1,1.69-.38,4.21,4.21,0,0,1,3.34,1.65,6.36,6.36,0,0,1,1.37,4.23,6.22,6.22,0,0,1-1.42,4.17,4.26,4.26,0,0,1-3.36,1.68,3.76,3.76,0,0,1-1.61-.35,4.89,4.89,0,0,1-1.49-1.12v5.26h-2.5V165.24Zm2.65,2.3a2.52,2.52,0,0,0-2,.9,3.48,3.48,0,0,0-.78,2.36,3.62,3.62,0,0,0,.78,2.41,2.5,2.5,0,0,0,2,.91,2.47,2.47,0,0,0,1.94-.93,3.58,3.58,0,0,0,.79-2.38,3.49,3.49,0,0,0-.78-2.35A2.46,2.46,0,0,0,113.7,167.54Z" transform="translate(-13.54 -2.3)"/><path d="M128.42,165.24h2.52V176.4h-2.52v-1.18a4.86,4.86,0,0,1-1.48,1.12,3.74,3.74,0,0,1-1.6.35A4.29,4.29,0,0,1,122,175a6.27,6.27,0,0,1-1.41-4.17,6.36,6.36,0,0,1,1.37-4.23,4.17,4.17,0,0,1,3.33-1.65,3.81,3.81,0,0,1,1.7.38,4.76,4.76,0,0,1,1.46,1.13Zm-2.65,2.3a2.42,2.42,0,0,0-1.93.92,3.49,3.49,0,0,0-.78,2.35,3.58,3.58,0,0,0,.79,2.38,2.43,2.43,0,0,0,1.93.93,2.48,2.48,0,0,0,2-.91,3.62,3.62,0,0,0,.78-2.41,3.48,3.48,0,0,0-.78-2.36A2.51,2.51,0,0,0,125.77,167.54Z" transform="translate(-13.54 -2.3)"/><path d="M135.16,171.67v-2h.5a1.52,1.52,0,0,0,.88-.26,1,1,0,0,0,.38-.86,1.14,1.14,0,0,0-1.16-1.18,2.92,2.92,0,0,0-1.55.66l-1-1.93a4.29,4.29,0,0,1,2.9-1.14,3.56,3.56,0,0,1,2.43.84,2.9,2.9,0,0,1,1,2.28,2.7,2.7,0,0,1-1.4,2.36,2.78,2.78,0,0,1,1.87,2.78,3.24,3.24,0,0,1-1.05,2.48,4.06,4.06,0,0,1-2.9,1,4.72,4.72,0,0,1-3.37-1.27l1.39-1.95a2.75,2.75,0,0,0,1.7.74,1.45,1.45,0,0,0,1-.35,1.11,1.11,0,0,0,.38-.88,1.35,1.35,0,0,0-.35-.92,1.26,1.26,0,0,0-1-.39Z" transform="translate(-13.54 -2.3)"/><path d="M143.28,176.4v1.94H141V174h1.51l3.47-8.79h1.62l3.51,8.79h1.54v4.31h-2.4V176.4Zm5.19-2.37-1.64-4.7-1.7,4.7Z" transform="translate(-13.54 -2.3)"/><path d="M156.78,169.26h3.76v-4h2.52V176.4h-2.52v-4.62h-3.76v4.62h-2.52V165.24h2.52Z" transform="translate(-13.54 -2.3)"/><path d="M166.93,176.4h-1.34V165.24h2.46v6.56l5.13-6.56h1.21V176.4h-2.45V170Z" transform="translate(-13.54 -2.3)"/><path d="M176.93,165.24h2.52v4.18l3.47-4.18H186l-4.47,5.44,4.53,5.72h-3.34l-3-3.94-.27.35v3.59h-2.52Z" transform="translate(-13.54 -2.3)"/><path d="M194.87,169.26h3.76v-4h2.51V176.4h-2.51v-4.62h-3.76v4.62h-2.52V165.24h2.52Z" transform="translate(-13.54 -2.3)"/><path d="M211.09,165.24h2.52V176.4h-2.52v-1.18a4.86,4.86,0,0,1-1.48,1.12,3.74,3.74,0,0,1-1.6.35,4.26,4.26,0,0,1-3.36-1.68,6.22,6.22,0,0,1-1.42-4.17,6.42,6.42,0,0,1,1.37-4.23,4.2,4.2,0,0,1,3.33-1.65,3.78,3.78,0,0,1,1.7.38,4.65,4.65,0,0,1,1.46,1.13Zm-2.64,2.3a2.43,2.43,0,0,0-1.94.92,3.48,3.48,0,0,0-.77,2.35,3.57,3.57,0,0,0,.78,2.38,2.53,2.53,0,0,0,3.9,0,3.62,3.62,0,0,0,.78-2.41,3.48,3.48,0,0,0-.78-2.36A2.5,2.5,0,0,0,208.45,167.54Z" transform="translate(-13.54 -2.3)"/><path d="M234.18,164l-1.81,1.91a5.37,5.37,0,0,0-4.14-2.16,4.25,4.25,0,0,0-3.28,1.47,5.29,5.29,0,0,0-1.33,3.65,5.94,5.94,0,0,0,.59,2.68,4.6,4.6,0,0,0,6.12,2,7.36,7.36,0,0,0,2-1.69l1.75,2a9.79,9.79,0,0,1-2.84,2.26,7,7,0,0,1-3.05.63,6.63,6.63,0,0,1-5.17-2.23,8.18,8.18,0,0,1-2-5.72,8.56,8.56,0,0,1,.92-4,7.2,7.2,0,0,1,2.63-2.82,6.81,6.81,0,0,1,3.68-1.06,7,7,0,0,1,3.23.79A7.75,7.75,0,0,1,234.18,164Z" transform="translate(-13.54 -2.3)"/><path d="M236.16,176.4V165.24h4a3.34,3.34,0,0,1,2.69.87,3,3,0,0,1,.71,2,2.43,2.43,0,0,1-1.45,2.35,2.84,2.84,0,0,1,2,2.86,3.17,3.17,0,0,1-.53,1.88,2.44,2.44,0,0,1-1.33,1,7.87,7.87,0,0,1-2.26.25Zm2.52-6.77h1a1.3,1.3,0,0,0,1-.34,1.09,1.09,0,0,0,.34-.77,1.36,1.36,0,0,0-.33-1,1,1,0,0,0-.77-.35h-1.17Zm0,4.62H240a1.24,1.24,0,0,0,1-.39,1.22,1.22,0,0,0,.3-.75,1.68,1.68,0,0,0-.34-1,1.44,1.44,0,0,0-1.22-.45h-1Z" transform="translate(-13.54 -2.3)"/><path d="M248,171.82a2.59,2.59,0,0,1-1.34-1.12,3.39,3.39,0,0,1-.52-1.86,3.77,3.77,0,0,1,.63-2.17,2.75,2.75,0,0,1,1.52-1.18,11.35,11.35,0,0,1,2.75-.25h2.55V176.4h-2.52v-4h-.49l-2.39,4h-3Zm3.07-1.56v-2.68h-.88c-.95,0-1.43.45-1.43,1.33s.53,1.35,1.6,1.35Z" transform="translate(-13.54 -2.3)"/><path d="M255.21,165.24h9.35v2.67h-3.34v8.49H258.7v-8.49h-3.49Z" transform="translate(-13.54 -2.3)"/><path d="M270.92,165a4.89,4.89,0,0,1,2.67.79,5.45,5.45,0,0,1,2,2.14,6.46,6.46,0,0,1,0,5.87,5.36,5.36,0,0,1-1.92,2.15,4.85,4.85,0,0,1-2.68.78,4.74,4.74,0,0,1-3.68-1.71,6.39,6.39,0,0,1,.19-8.51A4.78,4.78,0,0,1,270.92,165Zm0,2.63a2.45,2.45,0,0,0-1.95.91,3.43,3.43,0,0,0-.78,2.32,3.48,3.48,0,0,0,.77,2.36,2.45,2.45,0,0,0,1.95.9,2.48,2.48,0,0,0,2-.91,3.49,3.49,0,0,0,.78-2.35,3.41,3.41,0,0,0-.77-2.33A2.47,2.47,0,0,0,271,167.59Z" transform="translate(-13.54 -2.3)"/><path d="M279.62,176.4h-1.33V165.24h2.45v6.56l5.13-6.56h1.21V176.4h-2.45V170ZM279,160.32h2a1.57,1.57,0,0,0,.67.63,2.4,2.4,0,0,0,1.05.21,2.6,2.6,0,0,0,1.13-.24,1.4,1.4,0,0,0,.58-.6h2a3.16,3.16,0,0,1-1.12,2.09,4,4,0,0,1-2.64.79,4.5,4.5,0,0,1-1.91-.35,3,3,0,0,1-1.24-1A3.28,3.28,0,0,1,279,160.32Z" transform="translate(-13.54 -2.3)"/><path d="M295.18,161.32h2.74a8.28,8.28,0,0,1,3.2.45,3.46,3.46,0,0,1,1.55,1.48,5,5,0,0,1,.56,2.44,4.39,4.39,0,0,1-.74,2.63,3.83,3.83,0,0,1-2,1.46,10.91,10.91,0,0,1-2.72.23v6.39h-2.58Zm2.58,5.89h.82a4.09,4.09,0,0,0,1.34-.15,1.16,1.16,0,0,0,.6-.51,1.66,1.66,0,0,0,.22-.86,1.44,1.44,0,0,0-.61-1.28,3.28,3.28,0,0,0-1.64-.29h-.73Z" transform="translate(-13.54 -2.3)"/><path d="M304.37,165.24h2.57l2.61,7,2.87-7H315l-6.28,15.24h-2.6l2.06-4.91Z" transform="translate(-13.54 -2.3)"/><path d="M326.25,167.5l-2.09,1.28a3.5,3.5,0,0,0-1.17-.95,3.13,3.13,0,0,0-1.35-.27,3,3,0,0,0-2.28.94,3.34,3.34,0,0,0-.88,2.4,3.26,3.26,0,0,0,.84,2.32,2.89,2.89,0,0,0,2.21.9,3.06,3.06,0,0,0,2.63-1.28l2,1.51a5.2,5.2,0,0,1-4.55,2.34,5.14,5.14,0,0,1-4.14-1.75,6.05,6.05,0,0,1-1.5-4.08,6.17,6.17,0,0,1,.73-3,5.36,5.36,0,0,1,2-2.14,5.57,5.57,0,0,1,2.92-.78,5.43,5.43,0,0,1,2.68.66A5.29,5.29,0,0,1,326.25,167.5Z" transform="translate(-13.54 -2.3)"/><path d="M329.85,176.4h-1.34V165.24H331v6.56l5.13-6.56h1.21V176.4h-2.45V170Z" transform="translate(-13.54 -2.3)"/><path d="M341.06,173.56l1.8,1-2.28,4.33-1.25-.66Z" transform="translate(-13.54 -2.3)"/><path d="M58.34,186.52h7.41v2.81H60.9v2.72h4.85v2.76H60.9v4h4.85v2.82H58.34Z" transform="translate(-13.54 -2.3)"/><path d="M67.87,190.44h5.85v2.67H70.38v8.49H67.87Z" transform="translate(-13.54 -2.3)"/><path d="M80.14,190.16a4.92,4.92,0,0,1,2.67.79,5.45,5.45,0,0,1,2,2.14,6.46,6.46,0,0,1,0,5.87,5.36,5.36,0,0,1-1.92,2.15,4.88,4.88,0,0,1-2.68.78,4.78,4.78,0,0,1-3.69-1.71A6,6,0,0,1,74.94,196a6,6,0,0,1,1.72-4.36A4.78,4.78,0,0,1,80.14,190.16Zm0,2.63a2.45,2.45,0,0,0-2,.91,3.38,3.38,0,0,0-.79,2.32,3.48,3.48,0,0,0,.78,2.36,2.45,2.45,0,0,0,2,.9,2.49,2.49,0,0,0,2-.91,3.92,3.92,0,0,0,0-4.68A2.47,2.47,0,0,0,80.18,192.79Z" transform="translate(-13.54 -2.3)"/><path d="M92.8,201.6V190.44h4a3.37,3.37,0,0,1,2.7.87,3,3,0,0,1,.71,2,2.44,2.44,0,0,1-1.46,2.35,2.83,2.83,0,0,1,2,2.86,3.16,3.16,0,0,1-.52,1.88,2.47,2.47,0,0,1-1.34,1,7.79,7.79,0,0,1-2.25.25Zm2.51-6.77h1a1.26,1.26,0,0,0,1-.34,1,1,0,0,0,.34-.76,1.41,1.41,0,0,0-.32-1,1,1,0,0,0-.77-.35H95.31Zm0,4.62h1.27a1.24,1.24,0,0,0,1-.39,1.22,1.22,0,0,0,.3-.75,1.61,1.61,0,0,0-.34-1,1.42,1.42,0,0,0-1.21-.45H95.31Z" transform="translate(-13.54 -2.3)"/><path d="M112.72,192.7l-2.1,1.28a3.57,3.57,0,0,0-1.16-.95,3.2,3.2,0,0,0-1.36-.27,3,3,0,0,0-2.28.94,3.37,3.37,0,0,0-.87,2.4,3.26,3.26,0,0,0,.84,2.32,2.86,2.86,0,0,0,2.2.9,3,3,0,0,0,2.63-1.28l2,1.51a5.23,5.23,0,0,1-4.56,2.34,5.15,5.15,0,0,1-4.14-1.75,6.05,6.05,0,0,1-1.5-4.08,6.17,6.17,0,0,1,.73-3,5.43,5.43,0,0,1,2-2.14,5.6,5.6,0,0,1,2.92-.78,5.4,5.4,0,0,1,2.68.66A5.24,5.24,0,0,1,112.72,192.7Z" transform="translate(-13.54 -2.3)"/><path d="M125,196.83H117a3.05,3.05,0,0,0,.94,1.89,2.73,2.73,0,0,0,1.94.71,3.18,3.18,0,0,0,2.42-1.1l2.12,1.11a5.23,5.23,0,0,1-1.9,1.85,5.39,5.39,0,0,1-2.62.6,4.91,4.91,0,0,1-3.85-1.66,6,6,0,0,1-1.48-4.15,6.19,6.19,0,0,1,1.48-4.24,4.72,4.72,0,0,1,3.71-1.68,4.89,4.89,0,0,1,3.85,1.68,6.51,6.51,0,0,1,1.49,4.46Zm-2.52-2.2a2.84,2.84,0,0,0-1-1.52,2.66,2.66,0,0,0-1.71-.58,2.76,2.76,0,0,0-1.84.65,3.62,3.62,0,0,0-.93,1.45Z" transform="translate(-13.54 -2.3)"/><path d="M132.63,201.6V186.52h2.14a10.35,10.35,0,0,1,2.71.26,3.63,3.63,0,0,1,1.94,1.34,3.74,3.74,0,0,1,.72,2.29,3.65,3.65,0,0,1-.33,1.57,3.86,3.86,0,0,1-1.06,1.31,4.11,4.11,0,0,1,2.38,3.91,4.58,4.58,0,0,1-.6,2.32,3.88,3.88,0,0,1-1.52,1.56,5.27,5.27,0,0,1-2.57.52Zm2.59-12.35v3.18h.56a1.91,1.91,0,0,0,1.4-.44,1.56,1.56,0,0,0,.46-1.2,1.48,1.48,0,0,0-.43-1.12,1.86,1.86,0,0,0-1.33-.42Zm0,5.75v3.86h.64a3.66,3.66,0,0,0,2.17-.45,1.6,1.6,0,0,0,.56-1.31,1.93,1.93,0,0,0-.66-1.54,3.3,3.3,0,0,0-2.18-.56Z" transform="translate(-13.54 -2.3)"/><path d="M153.36,196.83h-8.09a3.05,3.05,0,0,0,.94,1.89,2.74,2.74,0,0,0,1.94.71,3.21,3.21,0,0,0,2.43-1.1l2.12,1.11a5.31,5.31,0,0,1-1.9,1.85,5.46,5.46,0,0,1-2.63.6,4.92,4.92,0,0,1-3.85-1.66,6,6,0,0,1-1.48-4.15,6.19,6.19,0,0,1,1.48-4.24,4.74,4.74,0,0,1,3.71-1.68,4.88,4.88,0,0,1,3.85,1.68,6.51,6.51,0,0,1,1.49,4.46Zm-2.52-2.2a2.79,2.79,0,0,0-1-1.52,2.65,2.65,0,0,0-1.7-.58,2.79,2.79,0,0,0-1.85.65,3.85,3.85,0,0,0-.93,1.45Z" transform="translate(-13.54 -2.3)"/><path d="M157.9,190.44v1.23a4.68,4.68,0,0,1,1.47-1.13,3.78,3.78,0,0,1,1.7-.38,4.17,4.17,0,0,1,3.33,1.65,6.37,6.37,0,0,1,1.38,4.23,6.22,6.22,0,0,1-1.42,4.17,4.29,4.29,0,0,1-3.37,1.68,3.82,3.82,0,0,1-1.61-.35,4.86,4.86,0,0,1-1.48-1.12v5.26h-2.5V190.44Zm2.64,2.3a2.5,2.5,0,0,0-2,.9,3.48,3.48,0,0,0-.78,2.36,3.62,3.62,0,0,0,.78,2.41,2.48,2.48,0,0,0,2,.91,2.44,2.44,0,0,0,1.94-.93,4,4,0,0,0,0-4.73A2.47,2.47,0,0,0,160.54,192.74Z" transform="translate(-13.54 -2.3)"/><path d="M177.46,185.9v2.65a19.14,19.14,0,0,1-2.1.14,18.12,18.12,0,0,0-2.78.18,3.46,3.46,0,0,0-1.64.74,3.26,3.26,0,0,0-1,1.33,7,7,0,0,0-.36,2.17q1.08-2.9,3.74-2.9a4.42,4.42,0,0,1,3.38,1.58,5.89,5.89,0,0,1,1.42,4.09,6.19,6.19,0,0,1-1.53,4.29,4.85,4.85,0,0,1-3.78,1.72,4.76,4.76,0,0,1-3.24-1.25,5.62,5.62,0,0,1-1.79-3,16.69,16.69,0,0,1-.4-3.69,12.16,12.16,0,0,1,.57-4.08,5.49,5.49,0,0,1,1.48-2.37,4.76,4.76,0,0,1,2.12-1.05,22,22,0,0,1,3.56-.38C176.16,186,176.94,186,177.46,185.9ZM175.58,196a3.48,3.48,0,0,0-.76-2.31,2.46,2.46,0,0,0-2-.92,2.49,2.49,0,0,0-2,.92,3.88,3.88,0,0,0,0,4.67,2.49,2.49,0,0,0,2,.89,2.53,2.53,0,0,0,2-.89A3.44,3.44,0,0,0,175.58,196Z" transform="translate(-13.54 -2.3)"/><path d="M184.88,190.16a4.87,4.87,0,0,1,2.67.79,5.45,5.45,0,0,1,1.95,2.14,6.23,6.23,0,0,1,.7,2.92,6.35,6.35,0,0,1-.7,3,5.38,5.38,0,0,1-1.93,2.15,4.85,4.85,0,0,1-2.68.78,4.74,4.74,0,0,1-3.68-1.71,6.38,6.38,0,0,1,.2-8.51A4.74,4.74,0,0,1,184.88,190.16Zm0,2.63a2.45,2.45,0,0,0-1.95.91,3.43,3.43,0,0,0-.78,2.32,3.53,3.53,0,0,0,.77,2.36,2.57,2.57,0,0,0,3.92,0,3.5,3.5,0,0,0,.79-2.35,3.42,3.42,0,0,0-.78-2.33A2.47,2.47,0,0,0,184.92,192.79Z" transform="translate(-13.54 -2.3)"/><path d="M194.77,194.46h3.76v-4H201V201.6h-2.51V197h-3.76v4.62h-2.52V190.44h2.52Z" transform="translate(-13.54 -2.3)"/><path d="M208.3,190.16A4.87,4.87,0,0,1,211,191a5.45,5.45,0,0,1,1.95,2.14,6.23,6.23,0,0,1,.7,2.92,6.36,6.36,0,0,1-.71,3,5.36,5.36,0,0,1-1.92,2.15,4.85,4.85,0,0,1-2.68.78,4.74,4.74,0,0,1-3.68-1.71,6.39,6.39,0,0,1,.19-8.51A4.78,4.78,0,0,1,208.3,190.16Zm0,2.63a2.45,2.45,0,0,0-2,.91,3.43,3.43,0,0,0-.78,2.32,3.53,3.53,0,0,0,.77,2.36,2.45,2.45,0,0,0,2,.9,2.48,2.48,0,0,0,2-.91,3.49,3.49,0,0,0,.78-2.35,3.41,3.41,0,0,0-.77-2.33A2.47,2.47,0,0,0,208.34,192.79Z" transform="translate(-13.54 -2.3)"/><path d="M225.49,192.7,223.4,194a3.5,3.5,0,0,0-1.17-.95,3.13,3.13,0,0,0-1.35-.27,3,3,0,0,0-2.29.94,3.37,3.37,0,0,0-.87,2.4,3.26,3.26,0,0,0,.84,2.32,2.89,2.89,0,0,0,2.21.9A3.07,3.07,0,0,0,223.4,198l2,1.51a5.2,5.2,0,0,1-4.55,2.34,5.14,5.14,0,0,1-4.14-1.75,6.05,6.05,0,0,1-1.5-4.08,6.17,6.17,0,0,1,.73-3,5.36,5.36,0,0,1,2-2.14,5.57,5.57,0,0,1,2.92-.78,5.43,5.43,0,0,1,2.68.66A5.29,5.29,0,0,1,225.49,192.7Z" transform="translate(-13.54 -2.3)"/><path d="M229.09,201.6h-1.34V190.44h2.46V197l5.13-6.56h1.21V201.6H234.1v-6.42Z" transform="translate(-13.54 -2.3)"/><path d="M239.08,201.6V190.44h2.52v8.47h3.76v-8.47h2.52v8.47h2.55v4.65H248v-2Z" transform="translate(-13.54 -2.3)"/><path d="M261.87,196.83h-8.09a3.05,3.05,0,0,0,.94,1.89,2.73,2.73,0,0,0,1.94.71,3.18,3.18,0,0,0,2.42-1.1l2.12,1.11a5.23,5.23,0,0,1-1.9,1.85,5.41,5.41,0,0,1-2.63.6,4.9,4.9,0,0,1-3.84-1.66,6,6,0,0,1-1.48-4.15,6.19,6.19,0,0,1,1.48-4.24,4.72,4.72,0,0,1,3.71-1.68,4.89,4.89,0,0,1,3.85,1.68,6.51,6.51,0,0,1,1.49,4.46Zm-2.52-2.2a2.9,2.9,0,0,0-1-1.52,2.66,2.66,0,0,0-1.71-.58,2.81,2.81,0,0,0-1.85.65,3.73,3.73,0,0,0-.92,1.45Z" transform="translate(-13.54 -2.3)"/><path d="M266.41,201.6h-2.52V190.44h2.52v4.42h1.34a6,6,0,0,1,1.93-3.46,4.82,4.82,0,0,1,3.18-1.24,4.92,4.92,0,0,1,3.76,1.69,5.93,5.93,0,0,1,1.55,4.16,6.06,6.06,0,0,1-1.51,4.14,4.91,4.91,0,0,1-7.06.46,5.62,5.62,0,0,1-1.85-3.18h-1.34Zm9.23-5.58a3.46,3.46,0,0,0-.77-2.33,2.51,2.51,0,0,0-2-.9,2.45,2.45,0,0,0-2,.93,3.48,3.48,0,0,0-.77,2.29,3.54,3.54,0,0,0,.77,2.37,2.5,2.5,0,0,0,2,.89,2.55,2.55,0,0,0,2-.89A3.44,3.44,0,0,0,275.64,196Z" transform="translate(-13.54 -2.3)"/><path d="M287.19,196.87v-2h.5a1.58,1.58,0,0,0,.89-.26,1,1,0,0,0,.37-.86,1.13,1.13,0,0,0-1.16-1.18,2.92,2.92,0,0,0-1.55.66l-1-1.92a4.23,4.23,0,0,1,2.89-1.15,3.56,3.56,0,0,1,2.43.84,2.91,2.91,0,0,1,1,2.28,2.71,2.71,0,0,1-1.41,2.36,2.78,2.78,0,0,1,1.87,2.78A3.24,3.24,0,0,1,291,200.9a4.06,4.06,0,0,1-2.9,1,4.72,4.72,0,0,1-3.37-1.27l1.39-2a2.77,2.77,0,0,0,1.7.74,1.49,1.49,0,0,0,1-.35,1.13,1.13,0,0,0,.37-.88,1.31,1.31,0,0,0-.35-.92,1.25,1.25,0,0,0-1-.39Z" transform="translate(-13.54 -2.3)"/><path d="M294,201.6V190.44h4a3.37,3.37,0,0,1,2.7.87,3,3,0,0,1,.71,2,2.44,2.44,0,0,1-1.46,2.35,2.83,2.83,0,0,1,2,2.86,3.24,3.24,0,0,1-.52,1.88,2.5,2.5,0,0,1-1.34,1,7.84,7.84,0,0,1-2.25.25Zm2.52-6.77h1a1.26,1.26,0,0,0,1-.34,1,1,0,0,0,.34-.76,1.41,1.41,0,0,0-.32-1,1,1,0,0,0-.77-.35h-1.18Zm0,4.62h1.27a1.24,1.24,0,0,0,1-.39,1.22,1.22,0,0,0,.3-.75,1.61,1.61,0,0,0-.34-1,1.42,1.42,0,0,0-1.21-.45h-1.06Z" transform="translate(-13.54 -2.3)"/><path d="M311.52,190.44H314V201.6h-2.52v-1.18a4.86,4.86,0,0,1-1.48,1.12,3.74,3.74,0,0,1-1.6.35,4.26,4.26,0,0,1-3.36-1.68,6.22,6.22,0,0,1-1.42-4.17,6.42,6.42,0,0,1,1.37-4.23,4.2,4.2,0,0,1,3.33-1.65,3.78,3.78,0,0,1,1.7.38,4.65,4.65,0,0,1,1.46,1.13Zm-2.64,2.3a2.43,2.43,0,0,0-1.94.92,3.48,3.48,0,0,0-.77,2.35,3.57,3.57,0,0,0,.78,2.38,2.53,2.53,0,0,0,3.9,0,3.62,3.62,0,0,0,.78-2.41,3.48,3.48,0,0,0-.78-2.36A2.5,2.5,0,0,0,308.88,192.74Z" transform="translate(-13.54 -2.3)"/><path d="M325.55,201.6H323l-2.51-7-2.56,7h-2.55l4.27-11.16h1.63Z" transform="translate(-13.54 -2.3)"/><path d="M328.2,201.6h-1.34V190.44h2.46V197l5.13-6.56h1.21V201.6h-2.45v-6.42Z" transform="translate(-13.54 -2.3)"/><path d="M339.58,198.68a1.32,1.32,0,0,1,1,.46,1.66,1.66,0,0,1,.43,1.14,1.68,1.68,0,0,1-.43,1.14,1.34,1.34,0,0,1-2,0,1.64,1.64,0,0,1-.43-1.14,1.62,1.62,0,0,1,.43-1.14A1.32,1.32,0,0,1,339.58,198.68Z" transform="translate(-13.54 -2.3)"/><path d="M77.86,211.34a6.43,6.43,0,0,1,5,2.31,8.19,8.19,0,0,1,2.07,5.65,8.08,8.08,0,0,1-2,5.59,6.59,6.59,0,0,1-10-.06,8.29,8.29,0,0,1-2-5.58,8.5,8.5,0,0,1,1-4,7.31,7.31,0,0,1,2.58-2.87A6.41,6.41,0,0,1,77.86,211.34Zm0,2.81a4,4,0,0,0-3.16,1.45,5.38,5.38,0,0,0-1.29,3.7,5.05,5.05,0,0,0,1.62,4,4.17,4.17,0,0,0,2.88,1.14A4,4,0,0,0,81,222.92a5.76,5.76,0,0,0,0-7.28A4,4,0,0,0,77.83,214.15Z" transform="translate(-13.54 -2.3)"/><path d="M89.55,219.66h3.76v-4h2.51V226.8H93.31v-4.62H89.55v4.62H87V215.64h2.52Z" transform="translate(-13.54 -2.3)"/><path d="M105.77,215.64h2.52V226.8h-2.52v-1.18a4.86,4.86,0,0,1-1.48,1.12,3.71,3.71,0,0,1-1.6.35,4.26,4.26,0,0,1-3.36-1.68,6.22,6.22,0,0,1-1.42-4.17A6.42,6.42,0,0,1,99.28,217a4.2,4.2,0,0,1,3.33-1.65,3.78,3.78,0,0,1,1.7.38,4.65,4.65,0,0,1,1.46,1.13Zm-2.64,2.3a2.43,2.43,0,0,0-1.94.92,3.48,3.48,0,0,0-.77,2.35,3.57,3.57,0,0,0,.78,2.38,2.53,2.53,0,0,0,3.9,0,3.62,3.62,0,0,0,.78-2.41,3.48,3.48,0,0,0-.78-2.36A2.5,2.5,0,0,0,103.13,217.94Z" transform="translate(-13.54 -2.3)"/><path d="M118.63,219.66h3.76v-4h2.51V226.8h-2.51v-4.62h-3.76v4.62h-2.52V215.64h2.52Z" transform="translate(-13.54 -2.3)"/><path d="M137.5,222h-8.09a3.08,3.08,0,0,0,.94,1.89,2.73,2.73,0,0,0,1.94.71,3.18,3.18,0,0,0,2.42-1.1l2.12,1.11a5.16,5.16,0,0,1-1.9,1.85,5.39,5.39,0,0,1-2.62.6,4.91,4.91,0,0,1-3.85-1.66,6,6,0,0,1-1.48-4.15,6.19,6.19,0,0,1,1.48-4.24,4.72,4.72,0,0,1,3.71-1.68A4.89,4.89,0,0,1,136,217a6.51,6.51,0,0,1,1.49,4.46Zm-2.52-2.2a2.84,2.84,0,0,0-1-1.52,2.66,2.66,0,0,0-1.71-.58,2.78,2.78,0,0,0-1.84.65,3.66,3.66,0,0,0-.93,1.45Z" transform="translate(-13.54 -2.3)"/><path d="M149.35,217.9l-2.09,1.28a3.6,3.6,0,0,0-1.17-1,3.13,3.13,0,0,0-1.35-.27,3,3,0,0,0-2.29.94,3.37,3.37,0,0,0-.87,2.4,3.26,3.26,0,0,0,.84,2.32,2.89,2.89,0,0,0,2.21.9,3.07,3.07,0,0,0,2.63-1.28l2,1.51a5.68,5.68,0,0,1-8.7.59,6.09,6.09,0,0,1-1.49-4.08,6.28,6.28,0,0,1,.72-3,5.46,5.46,0,0,1,2-2.14,5.57,5.57,0,0,1,2.92-.78,5.43,5.43,0,0,1,2.68.66A5.29,5.29,0,0,1,149.35,217.9Z" transform="translate(-13.54 -2.3)"/><path d="M160.59,226.8H158l-2.51-7-2.55,7H150.4l4.28-11.16h1.62Z" transform="translate(-13.54 -2.3)"/><path d="M169.31,215.64h2.52V226.8h-2.52v-1.18a5,5,0,0,1-1.47,1.12,3.79,3.79,0,0,1-1.61.35,4.26,4.26,0,0,1-3.36-1.68,6.22,6.22,0,0,1-1.42-4.17,6.42,6.42,0,0,1,1.37-4.23,4.21,4.21,0,0,1,3.34-1.65,3.77,3.77,0,0,1,1.69.38,4.54,4.54,0,0,1,1.46,1.13Zm-2.64,2.3a2.43,2.43,0,0,0-1.94.92,3.48,3.48,0,0,0-.77,2.35,3.57,3.57,0,0,0,.78,2.38,2.53,2.53,0,0,0,3.9,0,3.62,3.62,0,0,0,.78-2.41,3.48,3.48,0,0,0-.78-2.36A2.5,2.5,0,0,0,166.67,217.94Z" transform="translate(-13.54 -2.3)"/><path d="M179.66,226.8V215.64h4a3.34,3.34,0,0,1,2.69.87,3,3,0,0,1,.71,2,2.44,2.44,0,0,1-1.46,2.35,2.84,2.84,0,0,1,2,2.86,3.17,3.17,0,0,1-.53,1.88,2.48,2.48,0,0,1-1.33,1,7.87,7.87,0,0,1-2.26.25Zm2.52-6.77h1a1.3,1.3,0,0,0,1-.34,1.08,1.08,0,0,0,.33-.77,1.35,1.35,0,0,0-.32-1,1,1,0,0,0-.77-.35h-1.17Zm0,4.62h1.26a1.23,1.23,0,0,0,1-.39,1.18,1.18,0,0,0,.31-.75,1.68,1.68,0,0,0-.34-1,1.44,1.44,0,0,0-1.22-.45h-1Z" transform="translate(-13.54 -2.3)"/><path d="M196.35,226.8v1.94h-2.24v-4.31h1.51l3.46-8.79h1.62l3.51,8.79h1.54v4.31h-2.4V226.8Zm5.19-2.37-1.65-4.7-1.7,4.7Z" transform="translate(-13.54 -2.3)"/><path d="M212.05,215.36a4.92,4.92,0,0,1,2.67.79,5.45,5.45,0,0,1,1.95,2.14,6.46,6.46,0,0,1,0,5.87,5.36,5.36,0,0,1-1.92,2.15,4.88,4.88,0,0,1-2.68.78,4.78,4.78,0,0,1-3.69-1.71,6,6,0,0,1-1.52-4.15,6,6,0,0,1,1.72-4.36A4.78,4.78,0,0,1,212.05,215.36Zm0,2.63a2.45,2.45,0,0,0-2,.91,3.43,3.43,0,0,0-.78,2.32,3.48,3.48,0,0,0,.77,2.36,2.45,2.45,0,0,0,2,.9,2.49,2.49,0,0,0,2-.91,3.49,3.49,0,0,0,.78-2.35,3.41,3.41,0,0,0-.77-2.33A2.47,2.47,0,0,0,212.09,218Z" transform="translate(-13.54 -2.3)"/><path d="M225.56,222.68l3.08-7h1.66l2.51,11.16h-2.46L229,220.25l-3,6.55h-1l-2.92-6.55-1.36,6.55h-2.45l2.51-11.16h1.66Z" transform="translate(-13.54 -2.3)"/><path d="M239.5,215.64H242v4.18l3.47-4.18h3.07l-4.47,5.44,4.53,5.72h-3.34l-3-3.94-.27.35v3.59H239.5Z" transform="translate(-13.54 -2.3)"/><path d="M252.13,215.64v1.23a4.83,4.83,0,0,1,1.48-1.13,3.78,3.78,0,0,1,1.7-.38,4.17,4.17,0,0,1,3.33,1.65,6.37,6.37,0,0,1,1.38,4.23,6.27,6.27,0,0,1-1.42,4.17,4.29,4.29,0,0,1-3.37,1.68,3.82,3.82,0,0,1-1.61-.35,5,5,0,0,1-1.49-1.12v5.26h-2.49V215.64Zm2.65,2.3a2.5,2.5,0,0,0-2,.9,3.49,3.49,0,0,0-.79,2.36,3.62,3.62,0,0,0,.79,2.41,2.48,2.48,0,0,0,2,.91,2.44,2.44,0,0,0,1.94-.93,4,4,0,0,0,0-4.73A2.47,2.47,0,0,0,254.78,217.94Z" transform="translate(-13.54 -2.3)"/><path d="M269.5,215.64H272V226.8H269.5v-1.18a5,5,0,0,1-1.47,1.12,3.79,3.79,0,0,1-1.61.35,4.26,4.26,0,0,1-3.36-1.68,6.22,6.22,0,0,1-1.42-4.17A6.42,6.42,0,0,1,263,217a4.21,4.21,0,0,1,3.34-1.65,3.77,3.77,0,0,1,1.69.38,4.54,4.54,0,0,1,1.46,1.13Zm-2.64,2.3a2.43,2.43,0,0,0-1.94.92,4,4,0,0,0,0,4.73,2.53,2.53,0,0,0,3.9,0,3.57,3.57,0,0,0,.79-2.41,3.44,3.44,0,0,0-.79-2.36A2.49,2.49,0,0,0,266.86,217.94Z" transform="translate(-13.54 -2.3)"/><path d="M284.38,217.9l-2.09,1.28a3.5,3.5,0,0,0-1.17-1,3.13,3.13,0,0,0-1.35-.27,3,3,0,0,0-2.28.94,3.34,3.34,0,0,0-.88,2.4,3.26,3.26,0,0,0,.84,2.32,2.89,2.89,0,0,0,2.21.9,3.06,3.06,0,0,0,2.63-1.28l2,1.51a5.2,5.2,0,0,1-4.55,2.34,5.14,5.14,0,0,1-4.14-1.75,6.05,6.05,0,0,1-1.5-4.08,6.17,6.17,0,0,1,.73-3,5.36,5.36,0,0,1,2-2.14,5.57,5.57,0,0,1,2.92-.78,5.43,5.43,0,0,1,2.68.66A5.29,5.29,0,0,1,284.38,217.9Z" transform="translate(-13.54 -2.3)"/><path d="M291.36,215.36a4.87,4.87,0,0,1,2.67.79,5.31,5.31,0,0,1,2,2.14,6.23,6.23,0,0,1,.7,2.92,6.35,6.35,0,0,1-.7,2.95,5.36,5.36,0,0,1-1.92,2.15,4.88,4.88,0,0,1-2.69.78,4.77,4.77,0,0,1-3.68-1.71,6.38,6.38,0,0,1,.2-8.51A4.77,4.77,0,0,1,291.36,215.36Zm.05,2.63a2.46,2.46,0,0,0-2,.91,3.43,3.43,0,0,0-.78,2.32,3.53,3.53,0,0,0,.77,2.36,2.57,2.57,0,0,0,3.92,0,3.9,3.9,0,0,0,0-4.68A2.49,2.49,0,0,0,291.41,218Z" transform="translate(-13.54 -2.3)"/><path d="M297.85,215.64h9.34v2.67h-3.33v8.49h-2.52v-8.49h-3.49Z" transform="translate(-13.54 -2.3)"/><path d="M307.73,215.64h2.57l2.61,7,2.87-7h2.58l-6.28,15.24h-2.6l2.06-4.91Z" transform="translate(-13.54 -2.3)"/><path d="M321,224l1.79,1-2.27,4.33-1.26-.66Z" transform="translate(-13.54 -2.3)"/><path d="M73.34,245.39h-.87a12.94,12.94,0,0,1-2.76-.22,4,4,0,0,1-1.7-.92,3.72,3.72,0,0,1-1.14-1.7,8.25,8.25,0,0,1-.34-2.64v-3h2.62v2.94a3.46,3.46,0,0,0,.5,2.14,2.7,2.7,0,0,0,2.12.61h1.57v-5.69h2.6V252h-2.6Z" transform="translate(-13.54 -2.3)"/><path d="M77.86,240.84h9.35v2.67H83.88V252H81.36v-8.49h-3.5Z" transform="translate(-13.54 -2.3)"/><path d="M93.57,240.56a4.87,4.87,0,0,1,2.67.79,5.31,5.31,0,0,1,2,2.14,6.23,6.23,0,0,1,.7,2.92,6.35,6.35,0,0,1-.7,3,5.36,5.36,0,0,1-1.92,2.15,4.88,4.88,0,0,1-2.69.78,4.77,4.77,0,0,1-3.68-1.71,6.4,6.4,0,0,1,.2-8.51A4.77,4.77,0,0,1,93.57,240.56Zm.05,2.63a2.46,2.46,0,0,0-2,.91,3.43,3.43,0,0,0-.78,2.32,3.53,3.53,0,0,0,.77,2.36,2.57,2.57,0,0,0,3.92,0,3.9,3.9,0,0,0,0-4.68A2.49,2.49,0,0,0,93.62,243.19Z" transform="translate(-13.54 -2.3)"/><path d="M110.55,236.3V239a19.14,19.14,0,0,1-2.1.14,18.12,18.12,0,0,0-2.78.18A3.54,3.54,0,0,0,104,240a3.23,3.23,0,0,0-1,1.33,7,7,0,0,0-.36,2.17q1.08-2.89,3.74-2.9a4.44,4.44,0,0,1,3.38,1.58,5.89,5.89,0,0,1,1.42,4.09,6.19,6.19,0,0,1-1.53,4.29,4.85,4.85,0,0,1-3.78,1.72,4.74,4.74,0,0,1-3.24-1.25,5.62,5.62,0,0,1-1.79-3,16.12,16.12,0,0,1-.4-3.69,12.16,12.16,0,0,1,.57-4.08,5.39,5.39,0,0,1,1.48-2.37,4.76,4.76,0,0,1,2.12-1,22,22,0,0,1,3.56-.38C109.24,236.43,110,236.37,110.55,236.3Zm-1.88,10.12a3.48,3.48,0,0,0-.76-2.31,2.46,2.46,0,0,0-2-.92,2.49,2.49,0,0,0-2,.92,3.88,3.88,0,0,0,0,4.67,2.49,2.49,0,0,0,2,.89,2.55,2.55,0,0,0,2-.89A3.44,3.44,0,0,0,108.67,246.42Z" transform="translate(-13.54 -2.3)"/><path d="M123.62,248.41l-.27-.34-3,3.93H117l4.53-5.73-4.48-5.43h3.08l3.46,4.18v-4.18h2.52V245l3.45-4.18h3.09l-4.47,5.44,4.52,5.72H129.4l-3-3.94-.26.35V252h-2.52Z" transform="translate(-13.54 -2.3)"/><path d="M143.81,247.23h-8.08a3.07,3.07,0,0,0,.93,1.89,2.76,2.76,0,0,0,1.94.71,3.21,3.21,0,0,0,2.43-1.1l2.12,1.11a5.23,5.23,0,0,1-1.9,1.85,5.43,5.43,0,0,1-2.63.6,4.9,4.9,0,0,1-3.84-1.66,6,6,0,0,1-1.49-4.15,6.24,6.24,0,0,1,1.48-4.24,4.75,4.75,0,0,1,3.71-1.68,4.91,4.91,0,0,1,3.86,1.68,6.51,6.51,0,0,1,1.48,4.46ZM141.3,245a2.86,2.86,0,0,0-1-1.52,2.65,2.65,0,0,0-1.7-.58,2.81,2.81,0,0,0-1.85.65,3.66,3.66,0,0,0-.92,1.45Z" transform="translate(-13.54 -2.3)"/><path d="M148.36,244.86h3.76v-4h2.52V252h-2.52v-4.62h-3.76V252h-2.52V240.84h2.52Z" transform="translate(-13.54 -2.3)"/><path d="M171.65,249.31h2.56V254H171.8v-2H157.17V240.84h2.52v8.47h3.46v-8.47h2.51v8.47h3.47v-8.47h2.52Z" transform="translate(-13.54 -2.3)"/><path d="M176.92,252h-1.34V240.84H178v6.56l5.13-6.56h1.21V252h-2.45v-6.42Z" transform="translate(-13.54 -2.3)"/><path d="M189.43,244.86h3.76v-4h2.52V252h-2.52v-4.62h-3.76V252h-2.51V240.84h2.51Z" transform="translate(-13.54 -2.3)"/><path d="M200.76,244.86h.75a8.47,8.47,0,0,1,2.43.27,2.76,2.76,0,0,1,1.42,1.14,3.74,3.74,0,0,1,.59,2.16,4.05,4.05,0,0,1-.53,2.15,2.57,2.57,0,0,1-1.34,1.14,7.29,7.29,0,0,1-2.29.28h-3.54V240.84h2.51Zm0,5h.77a3.26,3.26,0,0,0,1-.11,1.18,1.18,0,0,0,.54-.42,1.21,1.21,0,0,0,.23-.74,1.29,1.29,0,0,0-1.48-1.44h-1.05Zm6.94-9h2.51V252H207.7Z" transform="translate(-13.54 -2.3)"/><path d="M228.09,247.23H220a3.08,3.08,0,0,0,.94,1.89,2.74,2.74,0,0,0,1.94.71,3.21,3.21,0,0,0,2.43-1.1l2.12,1.11a5.31,5.31,0,0,1-1.9,1.85,5.46,5.46,0,0,1-2.63.6,4.92,4.92,0,0,1-3.85-1.66,6,6,0,0,1-1.48-4.15,6.19,6.19,0,0,1,1.48-4.24,4.74,4.74,0,0,1,3.71-1.68,4.91,4.91,0,0,1,3.86,1.68,6.56,6.56,0,0,1,1.48,4.46Zm-2.52-2.2a2.79,2.79,0,0,0-1-1.52,2.65,2.65,0,0,0-1.7-.58,2.79,2.79,0,0,0-1.85.65,3.66,3.66,0,0,0-.92,1.45Z" transform="translate(-13.54 -2.3)"/><path d="M240.18,247.23h-8.09a3.08,3.08,0,0,0,.94,1.89,2.73,2.73,0,0,0,1.94.71,3.18,3.18,0,0,0,2.42-1.1l2.12,1.11a5.23,5.23,0,0,1-1.9,1.85,5.39,5.39,0,0,1-2.62.6,4.91,4.91,0,0,1-3.85-1.66,6,6,0,0,1-1.48-4.15,6.19,6.19,0,0,1,1.48-4.24,4.72,4.72,0,0,1,3.71-1.68,4.89,4.89,0,0,1,3.85,1.68,6.51,6.51,0,0,1,1.49,4.46Zm-7.3-11.36a1.22,1.22,0,0,1,.94.43,1.53,1.53,0,0,1,.38,1,1.51,1.51,0,0,1-.38,1,1.22,1.22,0,0,1-.94.43,1.21,1.21,0,0,1-.94-.43,1.51,1.51,0,0,1-.38-1,1.53,1.53,0,0,1,.38-1A1.21,1.21,0,0,1,232.88,235.87Zm4.78,9.16a2.84,2.84,0,0,0-1-1.52,2.66,2.66,0,0,0-1.71-.58,2.78,2.78,0,0,0-1.84.65,3.66,3.66,0,0,0-.93,1.45Zm-.7-9.16a1.21,1.21,0,0,1,.94.43,1.49,1.49,0,0,1,.39,1,1.48,1.48,0,0,1-.39,1,1.23,1.23,0,0,1-1.87,0,1.48,1.48,0,0,1-.39-1,1.49,1.49,0,0,1,.39-1A1.2,1.2,0,0,1,237,235.87Z" transform="translate(-13.54 -2.3)"/><path d="M247.5,252V240.84h4a3.34,3.34,0,0,1,2.69.87,3,3,0,0,1,.71,2,2.44,2.44,0,0,1-1.46,2.35,2.83,2.83,0,0,1,2,2.86,3.16,3.16,0,0,1-.52,1.88,2.47,2.47,0,0,1-1.34,1,7.74,7.74,0,0,1-2.25.25Zm2.51-6.77h1a1.26,1.26,0,0,0,.95-.34,1,1,0,0,0,.34-.76,1.41,1.41,0,0,0-.32-1,1,1,0,0,0-.77-.35H250Zm0,4.62h1.27a1.24,1.24,0,0,0,1-.39,1.22,1.22,0,0,0,.3-.75,1.67,1.67,0,0,0-.33-1,1.45,1.45,0,0,0-1.22-.45H250Z" transform="translate(-13.54 -2.3)"/><path d="M260.11,244.86h3.76v-4h2.52V252h-2.52v-4.62h-3.76V252h-2.52V240.84h2.52Z" transform="translate(-13.54 -2.3)"/><path d="M270.26,252h-1.34V240.84h2.46v6.56l5.13-6.56h1.21V252h-2.45v-6.42Z" transform="translate(-13.54 -2.3)"/><path d="M286.4,247.88l3.08-7h1.66L293.65,252h-2.46l-1.34-6.55-3,6.55h-1l-2.92-6.55L281.55,252H279.1l2.51-11.16h1.66Z" transform="translate(-13.54 -2.3)"/><path d="M302.46,240.84H305V252h-2.51v-1.18a5.11,5.11,0,0,1-1.48,1.12,3.79,3.79,0,0,1-1.61.35,4.29,4.29,0,0,1-3.36-1.68,6.22,6.22,0,0,1-1.42-4.17,6.42,6.42,0,0,1,1.37-4.23,4.21,4.21,0,0,1,3.34-1.65,3.77,3.77,0,0,1,1.69.38,4.68,4.68,0,0,1,1.47,1.13Zm-2.65,2.3a2.44,2.44,0,0,0-1.94.92,4,4,0,0,0,0,4.73,2.45,2.45,0,0,0,1.94.93,2.49,2.49,0,0,0,2-.91,3.62,3.62,0,0,0,.78-2.41,3.48,3.48,0,0,0-.78-2.36A2.52,2.52,0,0,0,299.81,243.14Z" transform="translate(-13.54 -2.3)"/><path d="M316.48,252h-2.56l-2.51-7-2.56,7H306.3l4.28-11.16h1.62Z" transform="translate(-13.54 -2.3)"/><path d="M319.13,252H317.8V240.84h2.45v6.56l5.13-6.56h1.21V252h-2.45v-6.42Z" transform="translate(-13.54 -2.3)"/><path d="M330.51,249.08a1.32,1.32,0,0,1,1,.46,1.62,1.62,0,0,1,.43,1.14,1.64,1.64,0,0,1-.43,1.14,1.34,1.34,0,0,1-2,0,1.68,1.68,0,0,1-.43-1.14,1.66,1.66,0,0,1,.43-1.14A1.32,1.32,0,0,1,330.51,249.08Z" transform="translate(-13.54 -2.3)"/><path d="M23.72,286.94a6.43,6.43,0,0,1,5,2.31,8.19,8.19,0,0,1,2.07,5.65,8.08,8.08,0,0,1-2,5.59,6.58,6.58,0,0,1-10-.06,8.24,8.24,0,0,1-2-5.58,8.42,8.42,0,0,1,.94-4A7.42,7.42,0,0,1,20.17,288,6.44,6.44,0,0,1,23.72,286.94Zm0,2.81a4,4,0,0,0-3.16,1.45,5.38,5.38,0,0,0-1.28,3.7,5,5,0,0,0,1.61,4A4.17,4.17,0,0,0,23.74,300a4,4,0,0,0,3.13-1.48,5.76,5.76,0,0,0,0-7.28A4,4,0,0,0,23.69,289.75Z" transform="translate(-13.54 -2.3)"/><path d="M32,291.24h9.34v2.67H38v8.49H35.5v-8.49H32Z" transform="translate(-13.54 -2.3)"/><path d="M48.08,298.81l-.27-.34-3,3.93H41.49L46,296.67l-4.47-5.43h3.07l3.46,4.18v-4.18H50.6v4.18l3.46-4.18h3.08l-4.47,5.44,4.53,5.72H53.86l-3-3.94-.27.35v3.59H48.08Z" transform="translate(-13.54 -2.3)"/><path d="M65.63,291.24h2.52V302.4H65.63v-1.18a4.71,4.71,0,0,1-1.48,1.12,3.76,3.76,0,0,1-1.61.35A4.29,4.29,0,0,1,59.18,301a6.27,6.27,0,0,1-1.41-4.17,6.36,6.36,0,0,1,1.37-4.23A4.17,4.17,0,0,1,62.47,291a3.81,3.81,0,0,1,1.7.38,4.76,4.76,0,0,1,1.46,1.13ZM63,293.54a2.46,2.46,0,0,0-1.94.92,3.54,3.54,0,0,0-.77,2.35,3.58,3.58,0,0,0,.79,2.38,2.43,2.43,0,0,0,1.93.93,2.48,2.48,0,0,0,2-.91,3.62,3.62,0,0,0,.78-2.41,3.48,3.48,0,0,0-.78-2.36A2.51,2.51,0,0,0,63,293.54Z" transform="translate(-13.54 -2.3)"/><path d="M69.8,291.24h9.35v2.67H75.81v8.49H73.29v-8.49H69.8Z" transform="translate(-13.54 -2.3)"/><path d="M83.3,295.26h.75a8.07,8.07,0,0,1,2.43.28,2.66,2.66,0,0,1,1.42,1.13,3.74,3.74,0,0,1,.59,2.16A4.05,4.05,0,0,1,88,301a2.57,2.57,0,0,1-1.34,1.14,7.29,7.29,0,0,1-2.29.28H80.79V291.24H83.3Zm0,5h.77a3.26,3.26,0,0,0,1-.11,1.13,1.13,0,0,0,.54-.42,1.21,1.21,0,0,0,.23-.74,1.29,1.29,0,0,0-1.48-1.44h-1Zm6.94-9h2.51V302.4H90.24Z" transform="translate(-13.54 -2.3)"/><path d="M96.63,302.4H95.29V291.24h2.45v6.56l5.14-6.56h1.2V302.4h-2.45V296ZM96,286.32h2a1.51,1.51,0,0,0,.67.63,2.32,2.32,0,0,0,1,.21,2.64,2.64,0,0,0,1.14-.24,1.46,1.46,0,0,0,.58-.6h2a3.12,3.12,0,0,1-1.12,2.09,4,4,0,0,1-2.64.79,4.5,4.5,0,0,1-1.91-.35,3.08,3.08,0,0,1-1.24-1A3.39,3.39,0,0,1,96,286.32Z" transform="translate(-13.54 -2.3)"/><path d="M121.73,293.5l-2.09,1.28a3.7,3.7,0,0,0-1.17-.95,3.19,3.19,0,0,0-1.35-.27,3,3,0,0,0-2.29.94,3.37,3.37,0,0,0-.87,2.4,3.26,3.26,0,0,0,.84,2.32,2.87,2.87,0,0,0,2.21.9,3.07,3.07,0,0,0,2.63-1.28l2,1.51a5.68,5.68,0,0,1-8.7.59,6.05,6.05,0,0,1-1.5-4.08,6.29,6.29,0,0,1,.73-3,5.46,5.46,0,0,1,2-2.14,5.54,5.54,0,0,1,2.91-.78,5.47,5.47,0,0,1,2.69.66A5.29,5.29,0,0,1,121.73,293.5Z" transform="translate(-13.54 -2.3)"/><path d="M128.71,291a4.87,4.87,0,0,1,2.67.79,5.45,5.45,0,0,1,2,2.14,6.23,6.23,0,0,1,.7,2.92,6.42,6.42,0,0,1-.7,3,5.49,5.49,0,0,1-1.93,2.14,4.85,4.85,0,0,1-2.68.78A4.74,4.74,0,0,1,125,301a6.39,6.39,0,0,1,.19-8.51A4.78,4.78,0,0,1,128.71,291Zm0,2.63a2.45,2.45,0,0,0-2,.91,3.43,3.43,0,0,0-.78,2.32,3.53,3.53,0,0,0,.77,2.36,2.45,2.45,0,0,0,2,.9,2.48,2.48,0,0,0,2-.91,3.5,3.5,0,0,0,.79-2.35,3.44,3.44,0,0,0-.78-2.33A2.47,2.47,0,0,0,128.75,293.59Z" transform="translate(-13.54 -2.3)"/><path d="M136.09,291.24h2.51v4.18l3.47-4.18h3.07l-4.46,5.44,4.52,5.72h-3.34l-3-3.94-.27.35v3.59h-2.51Z" transform="translate(-13.54 -2.3)"/><path d="M150.13,297.59v-2.48h9.66v2.48Z" transform="translate(-13.54 -2.3)"/><path d="M171.31,298.81l-.27-.34-3,3.93h-3.34l4.53-5.73-4.47-5.43h3.07l3.46,4.18v-4.18h2.52v4.18l3.46-4.18h3.08l-4.47,5.44,4.53,5.72h-3.34l-3-3.94-.27.35v3.59h-2.52Z" transform="translate(-13.54 -2.3)"/><path d="M182.78,302.4h-1.33V291.24h2.45v6.56l5.14-6.56h1.2V302.4h-2.45V296Z" transform="translate(-13.54 -2.3)"/><path d="M192.79,302.4V291.24h4a3.34,3.34,0,0,1,2.69.87,3,3,0,0,1,.71,2,2.44,2.44,0,0,1-1.46,2.35,2.83,2.83,0,0,1,2,2.86,3.22,3.22,0,0,1-.52,1.89,2.51,2.51,0,0,1-1.33,1,7.87,7.87,0,0,1-2.26.25Zm2.51-6.77h1a1.26,1.26,0,0,0,.95-.34,1,1,0,0,0,.34-.76,1.41,1.41,0,0,0-.32-1,1,1,0,0,0-.77-.35H195.3Zm0,4.62h1.27a1.19,1.19,0,0,0,1.34-1.14,1.69,1.69,0,0,0-.33-1,1.44,1.44,0,0,0-1.22-.45H195.3Z" transform="translate(-13.54 -2.3)"/><path d="M204.22,302.4h-1.34V291.24h2.46v6.56l5.13-6.56h1.21V302.4h-2.45V296Z" transform="translate(-13.54 -2.3)"/><path d="M213.33,291.24h9.35v2.67h-3.34v8.49h-2.52v-8.49h-3.49Z" transform="translate(-13.54 -2.3)"/><path d="M234.38,297.63h-8.09a3.05,3.05,0,0,0,.94,1.89,2.73,2.73,0,0,0,1.94.71,3.18,3.18,0,0,0,2.42-1.1l2.12,1.11a5.23,5.23,0,0,1-1.9,1.85,5.39,5.39,0,0,1-2.62.6,4.91,4.91,0,0,1-3.85-1.66,6,6,0,0,1-1.48-4.15,6.19,6.19,0,0,1,1.48-4.24,4.72,4.72,0,0,1,3.71-1.68,4.89,4.89,0,0,1,3.85,1.68,6.51,6.51,0,0,1,1.49,4.46Zm-2.52-2.2a2.84,2.84,0,0,0-1-1.52,2.66,2.66,0,0,0-1.71-.58,2.78,2.78,0,0,0-1.84.65,3.73,3.73,0,0,0-.93,1.45Z" transform="translate(-13.54 -2.3)"/><path d="M245.38,302.4h-2.56l-2.51-7-2.56,7H235.2l4.27-11.16h1.63Z" transform="translate(-13.54 -2.3)"/><path d="M249.21,295.26H250a8,8,0,0,1,2.42.28,2.68,2.68,0,0,1,1.43,1.13,3.74,3.74,0,0,1,.58,2.16,4.05,4.05,0,0,1-.52,2.15,2.57,2.57,0,0,1-1.34,1.14,7.29,7.29,0,0,1-2.29.28h-3.55V291.24h2.52Zm0,5H250a3.26,3.26,0,0,0,1-.11,1.18,1.18,0,0,0,.54-.42,1.21,1.21,0,0,0,.23-.74,1.29,1.29,0,0,0-1.48-1.44h-1Z" transform="translate(-13.54 -2.3)"/><path d="M258.84,295.26h3.76v-4h2.52V302.4H262.6v-4.62h-3.76v4.62h-2.52V291.24h2.52Z" transform="translate(-13.54 -2.3)"/><path d="M270.17,295.26h.75a8,8,0,0,1,2.42.28,2.71,2.71,0,0,1,1.43,1.13,3.74,3.74,0,0,1,.58,2.16,4.05,4.05,0,0,1-.53,2.15,2.54,2.54,0,0,1-1.34,1.14,7.25,7.25,0,0,1-2.29.28h-3.54V291.24h2.52Zm0,5h.77a3.36,3.36,0,0,0,1-.11,1.11,1.11,0,0,0,.53-.42,1.15,1.15,0,0,0,.23-.74,1.29,1.29,0,0,0-1.48-1.44h-1Zm6.93-9h2.52V302.4H277.1Z" transform="translate(-13.54 -2.3)"/><path d="M283.49,302.4h-1.34V291.24h2.46v6.56l5.13-6.56H291V302.4H288.5V296Zm-.63-16.08h2a1.51,1.51,0,0,0,.67.63,2.37,2.37,0,0,0,1.05.21,2.63,2.63,0,0,0,1.13-.24,1.4,1.4,0,0,0,.58-.6h2a3.16,3.16,0,0,1-1.12,2.09,4,4,0,0,1-2.64.79,4.55,4.55,0,0,1-1.92-.35,3.15,3.15,0,0,1-1.24-1A3.39,3.39,0,0,1,282.86,286.32Z" transform="translate(-13.54 -2.3)"/><path d="M308.37,286.7v2.65a19.13,19.13,0,0,1-2.09.14,18.27,18.27,0,0,0-2.79.18,3.46,3.46,0,0,0-1.64.74,3.35,3.35,0,0,0-1,1.33,7.63,7.63,0,0,0-.36,2.17q1.09-2.9,3.74-2.9a4.42,4.42,0,0,1,3.38,1.58,5.89,5.89,0,0,1,1.43,4.09,6.24,6.24,0,0,1-1.53,4.3,4.89,4.89,0,0,1-3.79,1.71,4.71,4.71,0,0,1-3.23-1.25,5.71,5.71,0,0,1-1.8-3,16.71,16.71,0,0,1-.39-3.69,12.45,12.45,0,0,1,.56-4.08,5.58,5.58,0,0,1,1.48-2.37,4.75,4.75,0,0,1,2.13-1.05,21.82,21.82,0,0,1,3.55-.38C307.07,286.83,307.86,286.77,308.37,286.7Zm-1.88,10.12a3.52,3.52,0,0,0-.75-2.31,2.48,2.48,0,0,0-2-.92,2.43,2.43,0,0,0-2,.93,3.43,3.43,0,0,0-.78,2.3,3.53,3.53,0,0,0,.77,2.36,2.5,2.5,0,0,0,2,.89,2.55,2.55,0,0,0,2-.89A3.44,3.44,0,0,0,306.49,296.82Z" transform="translate(-13.54 -2.3)"/><path d="M318.49,291.24H321V302.4h-2.51v-1.18a4.82,4.82,0,0,1-1.48,1.12,3.76,3.76,0,0,1-1.61.35A4.29,4.29,0,0,1,312,301a6.27,6.27,0,0,1-1.42-4.17,6.37,6.37,0,0,1,1.38-4.23,4.17,4.17,0,0,1,3.33-1.65,3.74,3.74,0,0,1,1.69.38,4.68,4.68,0,0,1,1.47,1.13Zm-2.65,2.3a2.44,2.44,0,0,0-1.94.92,4,4,0,0,0,0,4.73,2.43,2.43,0,0,0,1.93.93,2.48,2.48,0,0,0,2-.91,3.62,3.62,0,0,0,.78-2.41,3.48,3.48,0,0,0-.78-2.36A2.51,2.51,0,0,0,315.84,293.54Z" transform="translate(-13.54 -2.3)"/><path d="M332.51,302.4H330l-2.51-7-2.56,7h-2.55l4.28-11.16h1.62Z" transform="translate(-13.54 -2.3)"/><path d="M336.35,295.26h.74a8,8,0,0,1,2.43.28,2.71,2.71,0,0,1,1.43,1.13,3.82,3.82,0,0,1,.58,2.16A4.05,4.05,0,0,1,341,301a2.54,2.54,0,0,1-1.34,1.14,7.25,7.25,0,0,1-2.29.28h-3.54V291.24h2.52Zm0,5h.76a3.26,3.26,0,0,0,1-.11,1.08,1.08,0,0,0,.54-.42,1.15,1.15,0,0,0,.23-.74,1.29,1.29,0,0,0-1.48-1.44h-1Z" transform="translate(-13.54 -2.3)"/><path d="M345.14,297.67v-2h.5a1.52,1.52,0,0,0,.88-.26,1,1,0,0,0,.38-.86,1.13,1.13,0,0,0-1.16-1.18,2.92,2.92,0,0,0-1.55.66l-1-1.92a4.27,4.27,0,0,1,2.9-1.15,3.56,3.56,0,0,1,2.43.84,2.9,2.9,0,0,1,1,2.28,2.69,2.69,0,0,1-1.4,2.36,2.78,2.78,0,0,1,1.87,2.78,3.24,3.24,0,0,1-1.05,2.48,4.06,4.06,0,0,1-2.9,1,4.72,4.72,0,0,1-3.37-1.27l1.39-1.95a2.77,2.77,0,0,0,1.7.74,1.49,1.49,0,0,0,1-.35,1.13,1.13,0,0,0,.37-.88,1.31,1.31,0,0,0-.35-.92,1.25,1.25,0,0,0-1-.39Z" transform="translate(-13.54 -2.3)"/><path d="M359.37,291.24h2.51V302.4h-2.51v-1.18a4.82,4.82,0,0,1-1.48,1.12,3.76,3.76,0,0,1-1.61.35,4.29,4.29,0,0,1-3.36-1.68,6.27,6.27,0,0,1-1.42-4.17,6.37,6.37,0,0,1,1.38-4.23,4.17,4.17,0,0,1,3.33-1.65,3.74,3.74,0,0,1,1.69.38,4.68,4.68,0,0,1,1.47,1.13Zm-2.65,2.3a2.44,2.44,0,0,0-1.94.92,4,4,0,0,0,0,4.73,2.43,2.43,0,0,0,1.93.93,2.48,2.48,0,0,0,2-.91,3.62,3.62,0,0,0,.78-2.41,3.48,3.48,0,0,0-.78-2.36A2.51,2.51,0,0,0,356.72,293.54Z" transform="translate(-13.54 -2.3)"/><path d="M370.57,298.28l3.07-7h1.66l2.52,11.16h-2.47L374,295.85l-3,6.55h-1l-2.92-6.55-1.35,6.55h-2.45l2.51-11.16h1.66Z" transform="translate(-13.54 -2.3)"/><path d="M380.43,299.56l1.79,1L380,304.89l-1.26-.66Z" transform="translate(-13.54 -2.3)"/><path d="M34.1,312.52V327.6H31.52v-9.44l-5.06,9.44H24.22V312.52H26.8v9.75l5.13-9.75Z" transform="translate(-13.54 -2.3)"/><path d="M36,316.44h2.92l2,3,2-3h2.87l-3.4,5.25,3.85,5.91H43.3l-2.39-3.66-2.37,3.66H35.66l3.81-5.87Z" transform="translate(-13.54 -2.3)"/><path d="M54.11,327.6H52.77V316.44h2.46V323l5.13-6.56h1.21V327.6H59.12v-6.42Z" transform="translate(-13.54 -2.3)"/><path d="M73.93,318.7,71.84,320a3.7,3.7,0,0,0-1.17-1,3.19,3.19,0,0,0-1.35-.27,3,3,0,0,0-2.29.94,3.37,3.37,0,0,0-.87,2.4,3.26,3.26,0,0,0,.84,2.32,2.89,2.89,0,0,0,2.21.9A3.07,3.07,0,0,0,71.84,324l2,1.51a5.68,5.68,0,0,1-8.7.59,6.05,6.05,0,0,1-1.5-4.08,6.29,6.29,0,0,1,.73-3,5.46,5.46,0,0,1,2-2.14,5.56,5.56,0,0,1,2.91-.78,5.47,5.47,0,0,1,2.69.66A5.29,5.29,0,0,1,73.93,318.7Z" transform="translate(-13.54 -2.3)"/><path d="M76.19,327.6V316.44h2.52v8.47h3.76v-8.47H85v8.47h2.55v4.65h-2.4v-2Z" transform="translate(-13.54 -2.3)"/><path d="M99,322.83H90.89a3.07,3.07,0,0,0,.93,1.89,2.76,2.76,0,0,0,1.94.71,3.21,3.21,0,0,0,2.43-1.1l2.12,1.11a5.23,5.23,0,0,1-1.9,1.85,5.43,5.43,0,0,1-2.63.6,4.94,4.94,0,0,1-3.84-1.66,6,6,0,0,1-1.49-4.15,6.24,6.24,0,0,1,1.48-4.24,4.75,4.75,0,0,1,3.71-1.68,4.91,4.91,0,0,1,3.86,1.68A6.51,6.51,0,0,1,99,322.3Zm-2.51-2.2a2.82,2.82,0,0,0-1-1.52,2.65,2.65,0,0,0-1.7-.58,2.81,2.81,0,0,0-1.85.65,3.73,3.73,0,0,0-.92,1.45Z" transform="translate(-13.54 -2.3)"/><path d="M110,327.6h-2.56l-2.51-7-2.55,7H99.79l4.28-11.16h1.62Z" transform="translate(-13.54 -2.3)"/><path d="M113,323a2.63,2.63,0,0,1-1.34-1.12,3.47,3.47,0,0,1-.52-1.86,3.7,3.7,0,0,1,.64-2.17,2.72,2.72,0,0,1,1.52-1.18,11.23,11.23,0,0,1,2.75-.25h2.54V327.6h-2.52v-4h-.48l-2.4,4h-3Zm3.07-1.56v-2.68h-.87c-1,0-1.44.45-1.44,1.33s.53,1.35,1.6,1.35Z" transform="translate(-13.54 -2.3)"/><path d="M130.1,327.6h-2.56l-2.51-7-2.56,7h-2.55l4.28-11.16h1.62Z" transform="translate(-13.54 -2.3)"/><path d="M132.63,324.76l1.8,1-2.28,4.33-1.25-.67Z" transform="translate(-13.54 -2.3)"/><path d="M144.49,316.44v1.23a4.72,4.72,0,0,1,1.48-1.13,3.74,3.74,0,0,1,1.69-.38,4.21,4.21,0,0,1,3.34,1.65,6.36,6.36,0,0,1,1.37,4.23,6.22,6.22,0,0,1-1.42,4.17,4.27,4.27,0,0,1-3.36,1.68,3.83,3.83,0,0,1-1.62-.35,5,5,0,0,1-1.48-1.12v5.26H142V316.44Zm2.65,2.3a2.52,2.52,0,0,0-2,.9,3.48,3.48,0,0,0-.78,2.36,3.62,3.62,0,0,0,.78,2.41,2.5,2.5,0,0,0,2,.91,2.47,2.47,0,0,0,1.94-.93,3.6,3.6,0,0,0,.79-2.38,3.49,3.49,0,0,0-.78-2.35A2.46,2.46,0,0,0,147.14,318.74Z" transform="translate(-13.54 -2.3)"/><path d="M161.86,316.44h2.52V327.6h-2.52v-1.18a4.86,4.86,0,0,1-1.48,1.12,3.74,3.74,0,0,1-1.6.35,4.29,4.29,0,0,1-3.37-1.68A6.27,6.27,0,0,1,154,322a6.36,6.36,0,0,1,1.37-4.23,4.17,4.17,0,0,1,3.33-1.65,3.81,3.81,0,0,1,1.7.38,4.76,4.76,0,0,1,1.46,1.13Zm-2.65,2.3a2.42,2.42,0,0,0-1.93.92,3.49,3.49,0,0,0-.78,2.35,3.6,3.6,0,0,0,.79,2.38,2.43,2.43,0,0,0,1.93.93,2.48,2.48,0,0,0,2-.91A3.62,3.62,0,0,0,162,322a3.48,3.48,0,0,0-.78-2.36A2.51,2.51,0,0,0,159.21,318.74Z" transform="translate(-13.54 -2.3)"/><path d="M168.6,322.87v-2h.5a1.52,1.52,0,0,0,.88-.26,1,1,0,0,0,.38-.86,1.14,1.14,0,0,0-1.16-1.18,2.92,2.92,0,0,0-1.55.66l-1-1.93a4.29,4.29,0,0,1,2.9-1.14A3.56,3.56,0,0,1,172,317a2.9,2.9,0,0,1,1,2.28,2.7,2.7,0,0,1-1.4,2.36,2.78,2.78,0,0,1,1.87,2.78,3.24,3.24,0,0,1-1,2.48,4.06,4.06,0,0,1-2.9,1,4.72,4.72,0,0,1-3.37-1.27l1.39-1.95a2.75,2.75,0,0,0,1.7.74,1.45,1.45,0,0,0,1-.35,1.12,1.12,0,0,0,.38-.89,1.35,1.35,0,0,0-.35-.91,1.26,1.26,0,0,0-1-.39Z" transform="translate(-13.54 -2.3)"/><path d="M175.41,316.44h5.86v2.67h-3.34v8.49h-2.52Z" transform="translate(-13.54 -2.3)"/><path d="M191.94,327.6h-2.57l-2.51-7-2.55,7h-2.56L186,316.44h1.62Z" transform="translate(-13.54 -2.3)"/><path d="M200.67,316.44h2.51V327.6h-2.51v-1.18a5.11,5.11,0,0,1-1.48,1.12,3.79,3.79,0,0,1-1.61.35,4.27,4.27,0,0,1-3.36-1.68A6.22,6.22,0,0,1,192.8,322a6.42,6.42,0,0,1,1.37-4.23,4.21,4.21,0,0,1,3.34-1.65,3.77,3.77,0,0,1,1.69.38,4.68,4.68,0,0,1,1.47,1.13Zm-2.65,2.3a2.44,2.44,0,0,0-1.94.92,3.54,3.54,0,0,0-.77,2.35,3.59,3.59,0,0,0,.78,2.38,2.45,2.45,0,0,0,1.94.93,2.49,2.49,0,0,0,2-.91,3.62,3.62,0,0,0,.78-2.41,3.48,3.48,0,0,0-.78-2.36A2.52,2.52,0,0,0,198,318.74Z" transform="translate(-13.54 -2.3)"/><path d="M210.81,324l-.27-.34-3,3.93h-3.34l4.53-5.73-4.47-5.43h3.07l3.47,4.18v-4.18h2.51v4.18l3.46-4.18h3.08l-4.46,5.44,4.52,5.72h-3.34l-3-3.94-.27.35v3.59h-2.51Z" transform="translate(-13.54 -2.3)"/><path d="M222.28,327.6h-1.34V316.44h2.45V323l5.14-6.56h1.21V327.6h-2.46v-6.42Z" transform="translate(-13.54 -2.3)"/><path d="M232.28,327.6V316.44h4a3.34,3.34,0,0,1,2.69.87,3,3,0,0,1,.71,2,2.43,2.43,0,0,1-1.46,2.35,2.84,2.84,0,0,1,2,2.86,3.17,3.17,0,0,1-.53,1.88,2.44,2.44,0,0,1-1.33,1,7.87,7.87,0,0,1-2.26.25Zm2.52-6.77h1a1.3,1.3,0,0,0,1-.34,1.11,1.11,0,0,0,.34-.77,1.36,1.36,0,0,0-.33-1,1,1,0,0,0-.77-.35H234.8Zm0,4.62h1.26a1.25,1.25,0,0,0,1.05-.39,1.22,1.22,0,0,0,.3-.75,1.68,1.68,0,0,0-.34-1,1.44,1.44,0,0,0-1.22-.45h-1Z" transform="translate(-13.54 -2.3)"/><path d="M249.79,316.44h2.51V327.6h-2.51v-1.18a5,5,0,0,1-1.48,1.12,3.76,3.76,0,0,1-1.61.35,4.29,4.29,0,0,1-3.36-1.68,6.27,6.27,0,0,1-1.42-4.17,6.37,6.37,0,0,1,1.38-4.23,4.17,4.17,0,0,1,3.33-1.65,3.74,3.74,0,0,1,1.69.38,4.68,4.68,0,0,1,1.47,1.13Zm-2.65,2.3a2.44,2.44,0,0,0-1.94.92,4,4,0,0,0,0,4.73,2.43,2.43,0,0,0,1.93.93,2.48,2.48,0,0,0,2-.91,3.62,3.62,0,0,0,.78-2.41,3.48,3.48,0,0,0-.78-2.36A2.51,2.51,0,0,0,247.14,318.74Z" transform="translate(-13.54 -2.3)"/><path d="M263.81,327.6h-2.56l-2.51-7-2.56,7h-2.55l4.28-11.16h1.62Z" transform="translate(-13.54 -2.3)"/><path d="M276.56,323.48l3.08-7h1.66l2.51,11.16h-2.46L280,321.05l-3,6.55h-1l-2.93-6.55-1.35,6.55h-2.45l2.51-11.16h1.66Z" transform="translate(-13.54 -2.3)"/><path d="M289.92,316.16a4.87,4.87,0,0,1,2.67.79,5.45,5.45,0,0,1,2,2.14,6.2,6.2,0,0,1,.7,2.92,6.35,6.35,0,0,1-.7,2.95,5.38,5.38,0,0,1-1.93,2.15,4.85,4.85,0,0,1-2.68.78,4.74,4.74,0,0,1-3.68-1.71,6.38,6.38,0,0,1,.2-8.51A4.74,4.74,0,0,1,289.92,316.16Zm0,2.63a2.45,2.45,0,0,0-1.95.91,3.43,3.43,0,0,0-.78,2.32,3.53,3.53,0,0,0,.77,2.36,2.57,2.57,0,0,0,3.92,0,3.5,3.5,0,0,0,.79-2.35,3.42,3.42,0,0,0-.78-2.33A2.47,2.47,0,0,0,290,318.79Z" transform="translate(-13.54 -2.3)"/><path d="M299.79,316.44v1.23a4.83,4.83,0,0,1,1.48-1.13,3.78,3.78,0,0,1,1.7-.38,4.17,4.17,0,0,1,3.33,1.65,6.37,6.37,0,0,1,1.38,4.23,6.22,6.22,0,0,1-1.42,4.17,4.29,4.29,0,0,1-3.37,1.68,3.82,3.82,0,0,1-1.61-.35,5,5,0,0,1-1.49-1.12v5.26H297.3V316.44Zm2.65,2.3a2.5,2.5,0,0,0-2,.9,3.49,3.49,0,0,0-.79,2.36,3.62,3.62,0,0,0,.79,2.41,2.48,2.48,0,0,0,2,.91,2.44,2.44,0,0,0,1.94-.93,4,4,0,0,0,0-4.73A2.47,2.47,0,0,0,302.44,318.74Z" transform="translate(-13.54 -2.3)"/><path d="M324.23,324.91h2.56v4.65h-2.41v-2H309.75V316.44h2.52v8.47h3.46v-8.47h2.51v8.47h3.47v-8.47h2.52Z" transform="translate(-13.54 -2.3)"/><path d="M329.5,327.6h-1.34V316.44h2.46V323l5.13-6.56H337V327.6h-2.45v-6.42Z" transform="translate(-13.54 -2.3)"/><path d="M342,320.46h3.76v-4h2.52V327.6h-2.52V323H342v4.63H339.5V316.44H342Z" transform="translate(-13.54 -2.3)"/><path d="M350.84,316.44h2.51v4.18l3.47-4.18h3.07l-4.47,5.44L360,327.6h-3.34l-3-3.94-.27.35v3.59h-2.51Z" transform="translate(-13.54 -2.3)"/><path d="M362.3,327.6H361V316.44h2.45V323l5.14-6.56h1.2V327.6h-2.45v-6.42Z" transform="translate(-13.54 -2.3)"/><path d="M373.52,324.76l1.79,1L373,330.09l-1.26-.67Z" transform="translate(-13.54 -2.3)"/><path d="M41.53,349.34l-4.82-11.62h2.91l3.2,8.41,2.62-8.41h2.65L44.48,348.5a8.7,8.7,0,0,1-2,3.71,3.51,3.51,0,0,1-2.33.94,4.72,4.72,0,0,1-3.71-2.2l1.69-1.89a2.75,2.75,0,0,0,2,1.31,1.08,1.08,0,0,0,.72-.24A4.22,4.22,0,0,0,41.53,349.34Z" transform="translate(-13.54 -2.3)"/><path d="M59.38,343.9l-2.09,1.28a3.6,3.6,0,0,0-1.17-.95,3.13,3.13,0,0,0-1.35-.27,3,3,0,0,0-2.29.94,3.37,3.37,0,0,0-.87,2.4,3.26,3.26,0,0,0,.84,2.32,2.89,2.89,0,0,0,2.21.9,3.07,3.07,0,0,0,2.63-1.28l2,1.51a5.68,5.68,0,0,1-8.7.59,6.09,6.09,0,0,1-1.49-4.08,6.28,6.28,0,0,1,.72-3,5.46,5.46,0,0,1,2-2.14,5.57,5.57,0,0,1,2.92-.78,5.43,5.43,0,0,1,2.68.66A5.29,5.29,0,0,1,59.38,343.9Z" transform="translate(-13.54 -2.3)"/><path d="M60.76,341.64h9.35v2.67H66.77v8.49H64.25v-8.49H60.76Z" transform="translate(-13.54 -2.3)"/><path d="M79.16,341.64h2.52V352.8H79.16v-1.18a4.86,4.86,0,0,1-1.48,1.12,3.74,3.74,0,0,1-1.6.35,4.29,4.29,0,0,1-3.37-1.68,6.27,6.27,0,0,1-1.41-4.17A6.36,6.36,0,0,1,72.67,343,4.17,4.17,0,0,1,76,341.36a3.81,3.81,0,0,1,1.7.38,4.76,4.76,0,0,1,1.46,1.13Zm-2.65,2.3a2.42,2.42,0,0,0-1.93.92,3.49,3.49,0,0,0-.78,2.35,3.6,3.6,0,0,0,.79,2.38,2.43,2.43,0,0,0,1.93.93,2.48,2.48,0,0,0,2-.91,3.62,3.62,0,0,0,.78-2.41,3.48,3.48,0,0,0-.78-2.36A2.51,2.51,0,0,0,76.51,343.94Z" transform="translate(-13.54 -2.3)"/><path d="M93.19,352.8H90.62l-2.51-7-2.55,7H83l4.28-11.16H88.9Z" transform="translate(-13.54 -2.3)"/><path d="M99.22,341.36a4.87,4.87,0,0,1,2.67.79,5.45,5.45,0,0,1,2,2.14,6.23,6.23,0,0,1,.7,2.92,6.42,6.42,0,0,1-.7,3,5.34,5.34,0,0,1-1.93,2.14,4.85,4.85,0,0,1-2.68.78,4.74,4.74,0,0,1-3.68-1.71,6.38,6.38,0,0,1,.2-8.51A4.74,4.74,0,0,1,99.22,341.36Zm0,2.63a2.45,2.45,0,0,0-2,.91,3.43,3.43,0,0,0-.78,2.32,3.53,3.53,0,0,0,.77,2.36,2.57,2.57,0,0,0,3.92,0,3.5,3.5,0,0,0,.79-2.35,3.42,3.42,0,0,0-.78-2.33A2.47,2.47,0,0,0,99.26,344Z" transform="translate(-13.54 -2.3)"/><path d="M116.42,343.9l-2.1,1.28a3.5,3.5,0,0,0-1.17-.95,3.13,3.13,0,0,0-1.35-.27,3,3,0,0,0-2.28.94,3.38,3.38,0,0,0-.88,2.4,3.26,3.26,0,0,0,.84,2.32,2.89,2.89,0,0,0,2.21.9,3.06,3.06,0,0,0,2.63-1.28l2,1.51a5.23,5.23,0,0,1-4.56,2.34,5.15,5.15,0,0,1-4.14-1.75,6.05,6.05,0,0,1-1.5-4.08,6.17,6.17,0,0,1,.73-3,5.36,5.36,0,0,1,2-2.14,5.57,5.57,0,0,1,2.92-.78,5.26,5.26,0,0,1,4.63,2.54Z" transform="translate(-13.54 -2.3)"/><path d="M117.79,341.64h9.35v2.67H123.8v8.49h-2.52v-8.49h-3.49Z" transform="translate(-13.54 -2.3)"/><path d="M131.3,345.66h.75a8.34,8.34,0,0,1,2.42.27,2.78,2.78,0,0,1,1.43,1.14,3.82,3.82,0,0,1,.58,2.16,4.05,4.05,0,0,1-.53,2.15,2.54,2.54,0,0,1-1.34,1.14,7.25,7.25,0,0,1-2.29.28h-3.54V341.64h2.52Zm0,5h.76a3.39,3.39,0,0,0,1-.11,1.11,1.11,0,0,0,.53-.42,1.15,1.15,0,0,0,.23-.74,1.29,1.29,0,0,0-1.48-1.44h-1Z" transform="translate(-13.54 -2.3)"/><path d="M139.62,350l1.8,1-2.28,4.33-1.25-.66Z" transform="translate(-13.54 -2.3)"/><path d="M149,341.64h5.86v2.67h-3.34v8.49H149Z" transform="translate(-13.54 -2.3)"/><path d="M159,341.64v1.23a4.8,4.8,0,0,1,1.47-1.13,3.81,3.81,0,0,1,1.7-.38,4.21,4.21,0,0,1,3.34,1.65,6.42,6.42,0,0,1,1.37,4.23,6.22,6.22,0,0,1-1.42,4.17,4.27,4.27,0,0,1-3.36,1.68,3.83,3.83,0,0,1-1.62-.35,5,5,0,0,1-1.48-1.12v5.26h-2.5V341.64Zm2.65,2.3a2.52,2.52,0,0,0-2,.9,3.48,3.48,0,0,0-.78,2.36,3.62,3.62,0,0,0,.78,2.41,2.5,2.5,0,0,0,2,.91,2.47,2.47,0,0,0,1.94-.93,3.59,3.59,0,0,0,.78-2.38,3.48,3.48,0,0,0-.77-2.35A2.46,2.46,0,0,0,161.68,343.94Z" transform="translate(-13.54 -2.3)"/><path d="M167.88,341.64h2.58l2.6,7,2.88-7h2.58l-6.29,15.24h-2.6L171.7,352Z" transform="translate(-13.54 -2.3)"/><path d="M189.77,343.9l-2.1,1.28a3.5,3.5,0,0,0-1.17-.95,3.13,3.13,0,0,0-1.35-.27,3,3,0,0,0-2.28.94,3.37,3.37,0,0,0-.87,2.4,3.26,3.26,0,0,0,.84,2.32,2.86,2.86,0,0,0,2.2.9,3.06,3.06,0,0,0,2.63-1.28l2,1.51a5.23,5.23,0,0,1-4.56,2.34,5.15,5.15,0,0,1-4.14-1.75,6.05,6.05,0,0,1-1.5-4.08,6.17,6.17,0,0,1,.73-3,5.36,5.36,0,0,1,2-2.14,5.57,5.57,0,0,1,2.92-.78,5.4,5.4,0,0,1,2.68.66A5.32,5.32,0,0,1,189.77,343.9Z" transform="translate(-13.54 -2.3)"/><path d="M191.14,341.64h9.35v2.67h-3.34v8.49h-2.51v-8.49h-3.5Z" transform="translate(-13.54 -2.3)"/><path d="M204.65,345.66h.75a8.34,8.34,0,0,1,2.42.27,2.78,2.78,0,0,1,1.43,1.14,3.74,3.74,0,0,1,.58,2.16,4.05,4.05,0,0,1-.53,2.15,2.5,2.5,0,0,1-1.34,1.14,7.2,7.2,0,0,1-2.29.28h-3.54V341.64h2.52Zm0,5h.77a3.36,3.36,0,0,0,1-.11,1.11,1.11,0,0,0,.53-.42,1.15,1.15,0,0,0,.24-.74,1.3,1.3,0,0,0-1.49-1.44h-1Z" transform="translate(-13.54 -2.3)"/><path d="M226.87,343.9l-2.1,1.28a3.5,3.5,0,0,0-1.17-.95,3.13,3.13,0,0,0-1.35-.27,3,3,0,0,0-2.28.94,3.37,3.37,0,0,0-.87,2.4,3.26,3.26,0,0,0,.84,2.32,2.86,2.86,0,0,0,2.2.9,3.06,3.06,0,0,0,2.63-1.28l2,1.51a5.23,5.23,0,0,1-4.56,2.34,5.15,5.15,0,0,1-4.14-1.75,6.05,6.05,0,0,1-1.5-4.08,6.17,6.17,0,0,1,.73-3,5.36,5.36,0,0,1,2-2.14,5.57,5.57,0,0,1,2.92-.78,5.26,5.26,0,0,1,4.63,2.54Z" transform="translate(-13.54 -2.3)"/><path d="M243.38,352.8h-2.56l-2.51-7-2.56,7H233.2l4.28-11.16h1.62Z" transform="translate(-13.54 -2.3)"/><path d="M246,352.8H244.7V341.64h2.45v6.56l5.14-6.56h1.2V352.8H251v-6.42Z" transform="translate(-13.54 -2.3)"/><path d="M256,352.8V341.64h2.52v8.47h3.76v-8.47h2.52v8.47h2.55v4.65H265v-2Z" transform="translate(-13.54 -2.3)"/><path d="M276.17,341.64h2.51V352.8h-2.51v-1.18a5.11,5.11,0,0,1-1.48,1.12,3.79,3.79,0,0,1-1.61.35,4.26,4.26,0,0,1-3.36-1.68,6.22,6.22,0,0,1-1.42-4.17,6.42,6.42,0,0,1,1.37-4.23,4.21,4.21,0,0,1,3.34-1.65,3.77,3.77,0,0,1,1.69.38,4.68,4.68,0,0,1,1.47,1.13Zm-2.65,2.3a2.43,2.43,0,0,0-1.94.92,3.54,3.54,0,0,0-.77,2.35,3.59,3.59,0,0,0,.78,2.38,2.53,2.53,0,0,0,3.9,0,3.57,3.57,0,0,0,.79-2.41,3.44,3.44,0,0,0-.79-2.36A2.49,2.49,0,0,0,273.52,343.94Z" transform="translate(-13.54 -2.3)"/><path d="M296.33,343.9l-2.1,1.28a3.57,3.57,0,0,0-1.16-.95,3.2,3.2,0,0,0-1.36-.27,3,3,0,0,0-2.28.94,3.37,3.37,0,0,0-.87,2.4,3.26,3.26,0,0,0,.84,2.32,2.86,2.86,0,0,0,2.2.9,3,3,0,0,0,2.63-1.28l2,1.51a5.23,5.23,0,0,1-4.56,2.34,5.15,5.15,0,0,1-4.14-1.75,6.05,6.05,0,0,1-1.5-4.08,6.17,6.17,0,0,1,.73-3,5.36,5.36,0,0,1,2-2.14,5.6,5.6,0,0,1,2.92-.78,5.4,5.4,0,0,1,2.68.66A5.32,5.32,0,0,1,296.33,343.9Z" transform="translate(-13.54 -2.3)"/><path d="M301.1,345.66h3.77v-4h2.51V352.8h-2.51v-4.63H301.1v4.63h-2.51V341.64h2.51Z" transform="translate(-13.54 -2.3)"/><path d="M311.25,352.8h-1.33V341.64h2.45v6.56l5.14-6.56h1.2V352.8h-2.45v-6.42Z" transform="translate(-13.54 -2.3)"/><path d="M327.4,348.68l3.07-7h1.66l2.52,11.16h-2.47l-1.34-6.55-3,6.55h-1l-2.92-6.55-1.35,6.55H320.1l2.51-11.16h1.66Z" transform="translate(-13.54 -2.3)"/><path d="M343.45,341.64H346V352.8h-2.52v-1.18a4.86,4.86,0,0,1-1.48,1.12,3.74,3.74,0,0,1-1.6.35,4.29,4.29,0,0,1-3.37-1.68,6.27,6.27,0,0,1-1.41-4.17A6.36,6.36,0,0,1,337,343a4.17,4.17,0,0,1,3.33-1.65,3.81,3.81,0,0,1,1.7.38,4.76,4.76,0,0,1,1.46,1.13Zm-2.65,2.3a2.42,2.42,0,0,0-1.93.92,3.49,3.49,0,0,0-.78,2.35,3.6,3.6,0,0,0,.79,2.38,2.43,2.43,0,0,0,1.93.93,2.48,2.48,0,0,0,2-.91,3.62,3.62,0,0,0,.78-2.41,3.48,3.48,0,0,0-.78-2.36A2.51,2.51,0,0,0,340.8,343.94Z" transform="translate(-13.54 -2.3)"/><path d="M357.48,352.8h-2.57l-2.51-7-2.55,7h-2.56l4.28-11.16h1.62Z" transform="translate(-13.54 -2.3)"/><path d="M360,350l1.8,1-2.28,4.33-1.25-.66Z" transform="translate(-13.54 -2.3)"/><path d="M23.42,362.92V378H20.84v-9.44L15.78,378H13.54V362.92h2.58v9.75l5.13-9.75Z" transform="translate(-13.54 -2.3)"/><path d="M31.53,378V366.84h4a3.36,3.36,0,0,1,2.69.87,3,3,0,0,1,.71,2A2.44,2.44,0,0,1,37.5,372a2.83,2.83,0,0,1,2,2.86,3.16,3.16,0,0,1-.52,1.88,2.47,2.47,0,0,1-1.34,1,7.74,7.74,0,0,1-2.25.25ZM34,371.23h1a1.26,1.26,0,0,0,.95-.34,1,1,0,0,0,.34-.76,1.41,1.41,0,0,0-.32-1,1,1,0,0,0-.77-.35H34Zm0,4.62h1.27a1.24,1.24,0,0,0,1-.39,1.2,1.2,0,0,0,.3-.75,1.61,1.61,0,0,0-.34-1,1.42,1.42,0,0,0-1.21-.45H34Z" transform="translate(-13.54 -2.3)"/><path d="M49.42,378H46.91V366.84H55.7V378H53.18v-8.46H49.42Z" transform="translate(-13.54 -2.3)"/><path d="M60.74,366.84v1.23a4.83,4.83,0,0,1,1.48-1.13,3.78,3.78,0,0,1,1.7-.38,4.19,4.19,0,0,1,3.33,1.65,6.37,6.37,0,0,1,1.38,4.23,6.27,6.27,0,0,1-1.42,4.17,4.29,4.29,0,0,1-3.37,1.68,3.79,3.79,0,0,1-1.61-.35,5,5,0,0,1-1.49-1.12v5.26H58.25V366.84Zm2.65,2.3a2.5,2.5,0,0,0-2,.9,3.44,3.44,0,0,0-.79,2.36,3.57,3.57,0,0,0,.79,2.41,2.48,2.48,0,0,0,2,.91,2.44,2.44,0,0,0,1.94-.93,4,4,0,0,0,0-4.73A2.43,2.43,0,0,0,63.39,369.14Z" transform="translate(-13.54 -2.3)"/><path d="M78.11,366.84h2.52V378H78.11v-1.18a5,5,0,0,1-1.47,1.12,3.79,3.79,0,0,1-1.61.35,4.26,4.26,0,0,1-3.36-1.68,6.22,6.22,0,0,1-1.42-4.17,6.42,6.42,0,0,1,1.37-4.23A4.21,4.21,0,0,1,75,366.56a3.77,3.77,0,0,1,1.69.38,4.54,4.54,0,0,1,1.46,1.13Zm-2.64,2.3a2.43,2.43,0,0,0-1.94.92,3.5,3.5,0,0,0-.77,2.35,3.57,3.57,0,0,0,.78,2.38,2.53,2.53,0,0,0,3.9,0,3.62,3.62,0,0,0,.78-2.41,3.48,3.48,0,0,0-.78-2.36A2.5,2.5,0,0,0,75.47,369.14Z" transform="translate(-13.54 -2.3)"/><path d="M84.85,373.27v-2h.5a1.58,1.58,0,0,0,.89-.26,1,1,0,0,0,.37-.86A1.13,1.13,0,0,0,85.45,369a2.92,2.92,0,0,0-1.55.66l-1-1.92a4.23,4.23,0,0,1,2.89-1.15,3.56,3.56,0,0,1,2.43.84,2.91,2.91,0,0,1,1,2.28A2.7,2.7,0,0,1,87.79,372a2.78,2.78,0,0,1,1.88,2.78,3.22,3.22,0,0,1-1.06,2.48,4.06,4.06,0,0,1-2.9,1A4.72,4.72,0,0,1,82.34,377l1.4-1.95a2.72,2.72,0,0,0,1.69.74,1.49,1.49,0,0,0,1-.35,1.14,1.14,0,0,0,.38-.88,1.32,1.32,0,0,0-.36-.92,1.25,1.25,0,0,0-1-.39Z" transform="translate(-13.54 -2.3)"/><path d="M93,378v1.94H90.74v-4.31h1.51l3.46-8.79h1.62l3.51,8.79h1.54v4.31H100V378Zm5.19-2.37-1.65-4.7-1.7,4.7Z" transform="translate(-13.54 -2.3)"/><path d="M106.47,370.86h3.76v-4h2.52V378h-2.52v-4.62h-3.76V378H104V366.84h2.51Z" transform="translate(-13.54 -2.3)"/><path d="M116.62,378h-1.33V366.84h2.45v6.56l5.14-6.56h1.2V378h-2.45v-6.42Z" transform="translate(-13.54 -2.3)"/><path d="M126.63,366.84h2.51V371l3.47-4.18h3.07l-4.46,5.44,4.52,5.72H132.4l-3-3.94-.27.35V378h-2.51Z" transform="translate(-13.54 -2.3)"/><path d="M144.56,378H142V366.84h8.8V378h-2.52v-8.46h-3.76Z" transform="translate(-13.54 -2.3)"/><path d="M155.88,366.84v1.23a4.83,4.83,0,0,1,1.48-1.13,3.77,3.77,0,0,1,1.69-.38,4.21,4.21,0,0,1,3.34,1.65,6.36,6.36,0,0,1,1.37,4.23,6.22,6.22,0,0,1-1.42,4.17,4.26,4.26,0,0,1-3.36,1.68,3.76,3.76,0,0,1-1.61-.35,4.89,4.89,0,0,1-1.49-1.12v5.26h-2.5V366.84Zm2.65,2.3a2.52,2.52,0,0,0-2,.9,3.48,3.48,0,0,0-.78,2.36,3.62,3.62,0,0,0,.78,2.41,2.5,2.5,0,0,0,2,.91,2.45,2.45,0,0,0,1.94-.93,3.58,3.58,0,0,0,.79-2.38,3.51,3.51,0,0,0-.78-2.35A2.45,2.45,0,0,0,158.53,369.14Z" transform="translate(-13.54 -2.3)"/><path d="M167.18,378h-1.34V366.84h2.45v6.56l5.14-6.56h1.2V378h-2.45v-6.42Z" transform="translate(-13.54 -2.3)"/><path d="M177.17,366.84H183v2.67h-3.33V378h-2.52Z" transform="translate(-13.54 -2.3)"/><path d="M193.69,378h-2.56l-2.51-7-2.56,7h-2.55l4.28-11.16h1.62Z" transform="translate(-13.54 -2.3)"/><path d="M202.42,366.84h2.52V378h-2.52v-1.18a4.86,4.86,0,0,1-1.48,1.12,3.74,3.74,0,0,1-1.6.35,4.26,4.26,0,0,1-3.36-1.68,6.22,6.22,0,0,1-1.42-4.17,6.42,6.42,0,0,1,1.37-4.23,4.19,4.19,0,0,1,3.33-1.65,3.78,3.78,0,0,1,1.7.38,4.65,4.65,0,0,1,1.46,1.13Zm-2.64,2.3a2.43,2.43,0,0,0-1.94.92,3.5,3.5,0,0,0-.77,2.35,3.57,3.57,0,0,0,.78,2.38,2.53,2.53,0,0,0,3.9,0,3.62,3.62,0,0,0,.78-2.41,3.48,3.48,0,0,0-.78-2.36A2.5,2.5,0,0,0,199.78,369.14Z" transform="translate(-13.54 -2.3)"/><path d="M222,378H207.47V366.84H210v8.47h3.46v-8.47H216v8.47h3.46v-8.47H222Z" transform="translate(-13.54 -2.3)"/><path d="M231.9,366.84h2.51V378H231.9v-1.18a5,5,0,0,1-1.48,1.12,3.79,3.79,0,0,1-1.61.35,4.29,4.29,0,0,1-3.36-1.68,6.27,6.27,0,0,1-1.42-4.17,6.37,6.37,0,0,1,1.38-4.23,4.17,4.17,0,0,1,3.33-1.65,3.74,3.74,0,0,1,1.69.38,4.68,4.68,0,0,1,1.47,1.13Zm-2.65,2.3a2.44,2.44,0,0,0-1.94.92,4,4,0,0,0,0,4.73,2.43,2.43,0,0,0,1.93.93,2.48,2.48,0,0,0,2-.91,3.62,3.62,0,0,0,.78-2.41,3.48,3.48,0,0,0-.78-2.36A2.51,2.51,0,0,0,229.25,369.14Z" transform="translate(-13.54 -2.3)"/><path d="M245.92,378h-2.56l-2.51-7-2.56,7h-2.55L240,366.84h1.62Z" transform="translate(-13.54 -2.3)"/><path d="M255,370.86h3.76v-4h2.52V378H258.8v-4.62H255V378h-2.52V366.84H255Z" transform="translate(-13.54 -2.3)"/><path d="M271.27,366.84h2.51V378h-2.51v-1.18a5.11,5.11,0,0,1-1.48,1.12,3.79,3.79,0,0,1-1.61.35,4.26,4.26,0,0,1-3.36-1.68,6.22,6.22,0,0,1-1.42-4.17,6.42,6.42,0,0,1,1.37-4.23,4.21,4.21,0,0,1,3.34-1.65,3.77,3.77,0,0,1,1.69.38,4.68,4.68,0,0,1,1.47,1.13Zm-2.65,2.3a2.44,2.44,0,0,0-1.94.92,4,4,0,0,0,0,4.73,2.53,2.53,0,0,0,3.9,0,3.57,3.57,0,0,0,.79-2.41,3.44,3.44,0,0,0-.79-2.36A2.49,2.49,0,0,0,268.62,369.14Z" transform="translate(-13.54 -2.3)"/><path d="M281.61,378V366.84h4a3.34,3.34,0,0,1,2.69.87,3,3,0,0,1,.71,2,2.43,2.43,0,0,1-1.46,2.35,2.84,2.84,0,0,1,2,2.86,3.17,3.17,0,0,1-.53,1.88,2.44,2.44,0,0,1-1.33,1,7.87,7.87,0,0,1-2.26.25Zm2.52-6.77h1a1.3,1.3,0,0,0,1-.34,1.08,1.08,0,0,0,.34-.76,1.37,1.37,0,0,0-.33-1,1,1,0,0,0-.77-.35h-1.17Zm0,4.62h1.26a1.25,1.25,0,0,0,1.05-.39,1.2,1.2,0,0,0,.3-.75,1.68,1.68,0,0,0-.34-1,1.44,1.44,0,0,0-1.22-.45h-1.05Z" transform="translate(-13.54 -2.3)"/><path d="M301.76,373.23h-8.08a3,3,0,0,0,.93,1.89,2.76,2.76,0,0,0,1.94.71,3.2,3.2,0,0,0,2.43-1.1l2.12,1.11a5.23,5.23,0,0,1-1.9,1.85,5.43,5.43,0,0,1-2.63.6,4.9,4.9,0,0,1-3.84-1.66,6,6,0,0,1-1.49-4.15,6.24,6.24,0,0,1,1.48-4.24,4.76,4.76,0,0,1,3.72-1.68,4.91,4.91,0,0,1,3.85,1.68,6.51,6.51,0,0,1,1.48,4.46Zm-2.51-2.2a2.86,2.86,0,0,0-1-1.52,2.63,2.63,0,0,0-1.7-.58,2.81,2.81,0,0,0-1.85.65,3.73,3.73,0,0,0-.92,1.45Z" transform="translate(-13.54 -2.3)"/><path d="M309.25,373.57h-2a4.9,4.9,0,0,1-3.15-.88,3.44,3.44,0,0,1-1.11-2.88v-3h2.52v2.75q0,1.47,1.77,1.47h2v-4.21h2.52V378h-2.52Z" transform="translate(-13.54 -2.3)"/><path d="M324.35,373.23h-8.08a3,3,0,0,0,.93,1.89,2.76,2.76,0,0,0,1.94.71,3.21,3.21,0,0,0,2.43-1.1l2.12,1.11a5.23,5.23,0,0,1-1.9,1.85,5.43,5.43,0,0,1-2.63.6,4.9,4.9,0,0,1-3.84-1.66,6,6,0,0,1-1.49-4.15,6.24,6.24,0,0,1,1.48-4.24,4.75,4.75,0,0,1,3.71-1.68,4.91,4.91,0,0,1,3.86,1.68,6.51,6.51,0,0,1,1.48,4.46Zm-2.52-2.2a2.79,2.79,0,0,0-1-1.52,2.65,2.65,0,0,0-1.7-.58,2.81,2.81,0,0,0-1.85.65,3.73,3.73,0,0,0-.92,1.45Z" transform="translate(-13.54 -2.3)"/><path d="M328.89,366.84v1.23a4.68,4.68,0,0,1,1.47-1.13,3.81,3.81,0,0,1,1.7-.38,4.21,4.21,0,0,1,3.34,1.65,6.42,6.42,0,0,1,1.37,4.23,6.22,6.22,0,0,1-1.42,4.17,4.29,4.29,0,0,1-3.36,1.68,3.83,3.83,0,0,1-1.62-.35,5,5,0,0,1-1.48-1.12v5.26h-2.5V366.84Zm2.64,2.3a2.5,2.5,0,0,0-2,.9,3.48,3.48,0,0,0-.78,2.36,3.62,3.62,0,0,0,.78,2.41,2.48,2.48,0,0,0,2,.91,2.44,2.44,0,0,0,1.94-.93,4,4,0,0,0,0-4.73A2.47,2.47,0,0,0,331.53,369.14Z" transform="translate(-13.54 -2.3)"/><path d="M340.18,378h-1.34V366.84h2.46v6.56l5.13-6.56h1.21V378h-2.45v-6.42Z" transform="translate(-13.54 -2.3)"/><path d="M352.69,370.86h3.77v-4H359V378h-2.51v-4.62h-3.77V378h-2.51V366.84h2.51Z" transform="translate(-13.54 -2.3)"/><path d="M361.52,366.84H364V371l3.47-4.18h3.07l-4.46,5.44,4.52,5.72h-3.34l-3-3.94-.27.35V378h-2.51Z" transform="translate(-13.54 -2.3)"/><path d="M373,378h-1.34V366.84h2.45v6.56l5.14-6.56h1.2V378H378v-6.42Z" transform="translate(-13.54 -2.3)"/><path d="M384.36,375.08a1.35,1.35,0,0,1,1,.46,1.66,1.66,0,0,1,.42,1.14,1.67,1.67,0,0,1-.42,1.14,1.36,1.36,0,0,1-1,.47,1.33,1.33,0,0,1-1-.47,1.67,1.67,0,0,1-.42-1.14,1.66,1.66,0,0,1,.42-1.14A1.32,1.32,0,0,1,384.36,375.08Z" transform="translate(-13.54 -2.3)"/></svg>