<svg id="Слой_1" data-name="Слой 1" xmlns="http://www.w3.org/2000/svg" viewBox="0 0 373.56 278.36"><title>fill-text-04</title><path d="M143.41,6.84h2.25L144,12.46,145.66,18h-2.25l-1.62-5.54Zm4,0h2.26L148,12.46,149.66,18h-2.25l-1.63-5.54Z" transform="translate(-12.48 -2.92)"/><path d="M151.38,18V2.92h2a9.51,9.51,0,0,1,2.6.26,3.47,3.47,0,0,1,1.86,1.34,3.85,3.85,0,0,1,.69,2.29,3.79,3.79,0,0,1-.31,1.57,3.83,3.83,0,0,1-1,1.31A4.32,4.32,0,0,1,159,11.31a4.65,4.65,0,0,1,.55,2.29,4.77,4.77,0,0,1-.57,2.32,3.81,3.81,0,0,1-1.46,1.56A4.88,4.88,0,0,1,155,18Zm2.47-12.35V8.83h.54a1.82,1.82,0,0,0,1.35-.44,1.62,1.62,0,0,0,.44-1.2,1.51,1.51,0,0,0-.42-1.12,1.72,1.72,0,0,0-1.27-.42Zm0,5.75v3.86h.62a3.41,3.41,0,0,0,2.08-.45,1.61,1.61,0,0,0,.54-1.31,2,2,0,0,0-.63-1.54,3.09,3.09,0,0,0-2.09-.56Z" transform="translate(-12.48 -2.92)"/><path d="M171,9.1l-2,1.28a3.46,3.46,0,0,0-1.11-1,3,3,0,0,0-1.3-.27,2.79,2.79,0,0,0-2.19.94,3.44,3.44,0,0,0-.84,2.4,3.33,3.33,0,0,0,.81,2.32,2.7,2.7,0,0,0,2.11.9A2.89,2.89,0,0,0,169,14.44L170.92,16a4.94,4.94,0,0,1-4.37,2.34,4.85,4.85,0,0,1-4-1.75,6.2,6.2,0,0,1-1.44-4.08,6.51,6.51,0,0,1,.7-3,5.38,5.38,0,0,1,1.95-2.14,5.18,5.18,0,0,1,2.8-.78,5,5,0,0,1,2.57.66A5.16,5.16,0,0,1,171,9.1Z" transform="translate(-12.48 -2.92)"/><path d="M182.83,13.23h-7.75a3.1,3.1,0,0,0,.9,1.89,2.55,2.55,0,0,0,1.86.71,3,3,0,0,0,2.32-1.1l2,1.11a4.69,4.69,0,0,1-4.34,2.45,4.62,4.62,0,0,1-3.68-1.66,6.13,6.13,0,0,1-1.42-4.15,6.4,6.4,0,0,1,1.41-4.24,4.48,4.48,0,0,1,3.56-1.68,4.63,4.63,0,0,1,3.7,1.68,6.74,6.74,0,0,1,1.42,4.46ZM180.42,11a2.86,2.86,0,0,0-.95-1.52,2.47,2.47,0,0,0-1.63-.58,2.62,2.62,0,0,0-1.77.65,3.65,3.65,0,0,0-.88,1.45Z" transform="translate(-12.48 -2.92)"/><path d="M193.37,18h-2.45l-2.41-7-2.45,7h-2.45l4.1-11.16h1.56Z" transform="translate(-12.48 -2.92)"/><path d="M204.28,13.23h-7.75a3.14,3.14,0,0,0,.89,1.89,2.58,2.58,0,0,0,1.86.71,3,3,0,0,0,2.33-1.1l2,1.11a5.13,5.13,0,0,1-1.82,1.85,5.05,5.05,0,0,1-2.52.6,4.59,4.59,0,0,1-3.68-1.66,6.14,6.14,0,0,1-1.43-4.15,6.41,6.41,0,0,1,1.42-4.24,4.47,4.47,0,0,1,3.56-1.68,4.61,4.61,0,0,1,3.69,1.68,6.69,6.69,0,0,1,1.43,4.46ZM201.86,11a2.84,2.84,0,0,0-.94-1.52,2.47,2.47,0,0,0-1.63-.58,2.58,2.58,0,0,0-1.77.65,3.65,3.65,0,0,0-.89,1.45Z" transform="translate(-12.48 -2.92)"/><path d="M208.63,10.86h3.61v-4h2.41V18h-2.41V13.38h-3.61V18h-2.41V6.84h2.41Z" transform="translate(-12.48 -2.92)"/><path d="M219.49,10.86h3.61v-4h2.41V18H223.1V13.38h-3.61V18h-2.41V6.84h2.41Z" transform="translate(-12.48 -2.92)"/><path d="M235.05,6.84h2.41V18h-2.41V16.82a4.8,4.8,0,0,1-1.42,1.12,3.48,3.48,0,0,1-1.54.35,4,4,0,0,1-3.22-1.68,6.39,6.39,0,0,1-1.36-4.17,6.61,6.61,0,0,1,1.31-4.23A4,4,0,0,1,232,6.56a3.45,3.45,0,0,1,1.62.38,4.48,4.48,0,0,1,1.41,1.13Zm-2.54,2.3a2.29,2.29,0,0,0-1.86.92,3.63,3.63,0,0,0-.74,2.35,3.66,3.66,0,0,0,.75,2.38,2.36,2.36,0,0,0,3.74,0,3.71,3.71,0,0,0,.75-2.41A3.57,3.57,0,0,0,234.4,10,2.36,2.36,0,0,0,232.51,9.14Z" transform="translate(-12.48 -2.92)"/><path d="M241.54,13.42a2.51,2.51,0,0,1-1.28-1.12,3.46,3.46,0,0,1-.5-1.86,3.83,3.83,0,0,1,.61-2.17,2.62,2.62,0,0,1,1.45-1.18,10.39,10.39,0,0,1,2.64-.25h2.44V18h-2.42V14H244l-2.3,4h-2.86Zm2.94-1.56V9.18h-.84a1.19,1.19,0,0,0-1.37,1.33q0,1.35,1.53,1.35Z" transform="translate(-12.48 -2.92)"/><path d="M250.58,18h-2.24L250,12.38l-1.65-5.54h2.27l1.62,5.54Zm4,0h-2.25L254,12.38l-1.65-5.54h2.26l1.62,5.54Z" transform="translate(-12.48 -2.92)"/><path d="M141.57,20.87V19H256.43v1.89Z" transform="translate(-12.48 -2.92)"/><path d="M19.67,50.4V35.32h2a9.56,9.56,0,0,1,2.6.26,3.47,3.47,0,0,1,1.86,1.34,3.85,3.85,0,0,1,.69,2.29,3.57,3.57,0,0,1-1.34,2.88,4.19,4.19,0,0,1,1.73,1.62A4.51,4.51,0,0,1,27.81,46a4.88,4.88,0,0,1-.56,2.32,3.88,3.88,0,0,1-1.46,1.56,4.91,4.91,0,0,1-2.47.52Zm2.48-12.35v3.18h.54A1.79,1.79,0,0,0,24,40.79a1.59,1.59,0,0,0,.44-1.2,1.54,1.54,0,0,0-.41-1.12,1.74,1.74,0,0,0-1.27-.42Zm0,5.75v3.86h.62a3.41,3.41,0,0,0,2.08-.45,1.64,1.64,0,0,0,.53-1.31,2,2,0,0,0-.63-1.54,3.08,3.08,0,0,0-2.09-.56Z" transform="translate(-12.48 -2.92)"/><path d="M39.32,41.5l-2,1.28a3.48,3.48,0,0,0-1.12-1,2.93,2.93,0,0,0-1.3-.27,2.79,2.79,0,0,0-2.19.94,3.48,3.48,0,0,0-.83,2.4,3.37,3.37,0,0,0,.8,2.32,2.72,2.72,0,0,0,2.12.9,2.89,2.89,0,0,0,2.52-1.28l1.9,1.51a4.93,4.93,0,0,1-4.36,2.34,4.87,4.87,0,0,1-4-1.75,6.25,6.25,0,0,1-1.43-4.08,6.38,6.38,0,0,1,.7-3,5.29,5.29,0,0,1,1.94-2.14,5.21,5.21,0,0,1,2.8-.78,5,5,0,0,1,2.57.66A5.26,5.26,0,0,1,39.32,41.5Z" transform="translate(-12.48 -2.92)"/><path d="M51.12,45.63H43.37a3.21,3.21,0,0,0,.9,1.89,2.58,2.58,0,0,0,1.86.71,3,3,0,0,0,2.33-1.1l2,1.11a5.21,5.21,0,0,1-1.82,1.85,5.05,5.05,0,0,1-2.52.6A4.63,4.63,0,0,1,42.46,49,6.18,6.18,0,0,1,41,44.88a6.35,6.35,0,0,1,1.42-4.24A4.47,4.47,0,0,1,46,39a4.61,4.61,0,0,1,3.69,1.68,6.68,6.68,0,0,1,1.42,4.46Zm-2.41-2.2a2.84,2.84,0,0,0-.94-1.52,2.47,2.47,0,0,0-1.63-.58,2.58,2.58,0,0,0-1.77.65,3.65,3.65,0,0,0-.89,1.45Z" transform="translate(-12.48 -2.92)"/><path d="M61.67,50.4H59.21l-2.4-7-2.45,7H51.91L56,39.24h1.55Z" transform="translate(-12.48 -2.92)"/><path d="M72.57,45.63H64.82a3.1,3.1,0,0,0,.9,1.89,2.55,2.55,0,0,0,1.86.71,3,3,0,0,0,2.32-1.1l2,1.11a5,5,0,0,1-1.82,1.85,5,5,0,0,1-2.51.6A4.63,4.63,0,0,1,63.91,49a6.13,6.13,0,0,1-1.42-4.15,6.35,6.35,0,0,1,1.42-4.24A4.45,4.45,0,0,1,67.46,39a4.62,4.62,0,0,1,3.7,1.68,6.68,6.68,0,0,1,1.42,4.46Zm-2.41-2.2a2.84,2.84,0,0,0-.94-1.52,2.49,2.49,0,0,0-1.64-.58,2.62,2.62,0,0,0-1.77.65,3.65,3.65,0,0,0-.88,1.45Z" transform="translate(-12.48 -2.92)"/><path d="M76.93,43.26h3.6v-4H83V50.4H80.53V45.78h-3.6V50.4H74.52V39.24h2.41Z" transform="translate(-12.48 -2.92)"/><path d="M87.79,43.26h3.6v-4h2.42V50.4H91.39V45.78h-3.6V50.4H85.38V39.24h2.41Z" transform="translate(-12.48 -2.92)"/><path d="M103.34,39.24h2.41V50.4h-2.41V49.22a4.68,4.68,0,0,1-1.42,1.12,3.45,3.45,0,0,1-1.54.35A4,4,0,0,1,97.16,49a6.45,6.45,0,0,1-1.36-4.17,6.56,6.56,0,0,1,1.32-4.23A4,4,0,0,1,100.31,39a3.52,3.52,0,0,1,1.63.38,4.56,4.56,0,0,1,1.4,1.13Zm-2.54,2.3a2.29,2.29,0,0,0-1.85.92,3.58,3.58,0,0,0-.74,2.35A3.66,3.66,0,0,0,99,47.19a2.3,2.3,0,0,0,1.85.93,2.34,2.34,0,0,0,1.89-.91,3.71,3.71,0,0,0,.75-2.41,3.57,3.57,0,0,0-.75-2.36A2.36,2.36,0,0,0,100.8,41.54Z" transform="translate(-12.48 -2.92)"/><path d="M109.83,45.82a2.54,2.54,0,0,1-1.28-1.12,3.55,3.55,0,0,1-.5-1.86,3.83,3.83,0,0,1,.61-2.17,2.65,2.65,0,0,1,1.45-1.18,10.5,10.5,0,0,1,2.64-.25h2.44V50.4h-2.41v-4h-.47l-2.3,4h-2.85Zm3-1.56V41.58h-.84a1.2,1.2,0,0,0-1.38,1.33c0,.9.51,1.35,1.54,1.35Z" transform="translate(-12.48 -2.92)"/><path d="M124.29,45.67v-2h.48a1.45,1.45,0,0,0,.85-.26,1,1,0,0,0,.36-.86,1.18,1.18,0,0,0-.32-.85,1.07,1.07,0,0,0-.79-.33,2.74,2.74,0,0,0-1.49.66l-.95-1.93A4,4,0,0,1,125.2,39a3.32,3.32,0,0,1,2.33.84,3,3,0,0,1,.93,2.28,2.73,2.73,0,0,1-1.35,2.36,2.79,2.79,0,0,1,1.8,2.78,3.32,3.32,0,0,1-1,2.48,3.8,3.8,0,0,1-2.79,1,4.39,4.39,0,0,1-3.22-1.27l1.33-2a2.59,2.59,0,0,0,1.63.74,1.37,1.37,0,0,0,1-.35,1.16,1.16,0,0,0,.36-.88,1.34,1.34,0,0,0-.34-.92,1.17,1.17,0,0,0-.93-.39Z" transform="translate(-12.48 -2.92)"/><path d="M137.93,39.24h2.41V50.4h-2.41V49.22a4.68,4.68,0,0,1-1.42,1.12,3.48,3.48,0,0,1-1.54.35A4,4,0,0,1,131.75,49a6.39,6.39,0,0,1-1.36-4.17,6.56,6.56,0,0,1,1.32-4.23A4,4,0,0,1,134.9,39a3.52,3.52,0,0,1,1.63.38,4.56,4.56,0,0,1,1.4,1.13Zm-2.54,2.3a2.32,2.32,0,0,0-1.86.92,3.63,3.63,0,0,0-.74,2.35,3.67,3.67,0,0,0,.76,2.38,2.3,2.3,0,0,0,1.85.93,2.34,2.34,0,0,0,1.89-.91A3.71,3.71,0,0,0,138,44.8a3.57,3.57,0,0,0-.74-2.36A2.36,2.36,0,0,0,135.39,41.54Z" transform="translate(-12.48 -2.92)"/><path d="M152,34.7v2.65a17.58,17.58,0,0,1-2,.14,16.79,16.79,0,0,0-2.67.18,3.27,3.27,0,0,0-1.57.74,3.18,3.18,0,0,0-1,1.33,7.39,7.39,0,0,0-.34,2.17C145.11,40,146.31,39,148,39a4.16,4.16,0,0,1,3.24,1.58,6.05,6.05,0,0,1,1.37,4.09A6.35,6.35,0,0,1,151.14,49a4.58,4.58,0,0,1-3.63,1.72,4.44,4.44,0,0,1-3.1-1.25,5.76,5.76,0,0,1-1.72-3,17.34,17.34,0,0,1-.38-3.69,12.79,12.79,0,0,1,.54-4.08,5.52,5.52,0,0,1,1.42-2.37,4.44,4.44,0,0,1,2-1,20.16,20.16,0,0,1,3.4-.38C150.73,34.83,151.48,34.77,152,34.7Zm-1.8,10.12a3.57,3.57,0,0,0-.73-2.31,2.41,2.41,0,0,0-3.79,0,3.56,3.56,0,0,0-.75,2.31,3.62,3.62,0,0,0,.74,2.36,2.36,2.36,0,0,0,1.88.89,2.39,2.39,0,0,0,1.88-.89A3.53,3.53,0,0,0,150.18,44.82Z" transform="translate(-12.48 -2.92)"/><path d="M159.09,39a4.54,4.54,0,0,1,2.56.79,5.34,5.34,0,0,1,1.87,2.14,6.45,6.45,0,0,1,.67,2.92,6.58,6.58,0,0,1-.67,2.95,5.28,5.28,0,0,1-1.85,2.15,4.55,4.55,0,0,1-6.1-.93,6.19,6.19,0,0,1-1.46-4.15,6.11,6.11,0,0,1,1.65-4.36A4.49,4.49,0,0,1,159.09,39Zm0,2.63a2.31,2.31,0,0,0-1.87.91,3.51,3.51,0,0,0-.75,2.32,3.62,3.62,0,0,0,.74,2.36,2.41,2.41,0,0,0,3.76,0,3.58,3.58,0,0,0,.75-2.35,3.5,3.5,0,0,0-.74-2.33A2.33,2.33,0,0,0,159.13,41.59Z" transform="translate(-12.48 -2.92)"/><path d="M165.31,39.24h9v2.67h-3.2V50.4h-2.42V41.91h-3.34Z" transform="translate(-12.48 -2.92)"/><path d="M184.44,50.4H182l-2.4-7-2.45,7h-2.45l4.1-11.16h1.55Z" transform="translate(-12.48 -2.92)"/><path d="M187,50.4H185.7V39.24h2.35V45.8L193,39.24h1.16V50.4h-2.35V44Z" transform="translate(-12.48 -2.92)"/><path d="M196.57,50.4V39.24h3.86a3.12,3.12,0,0,1,2.58.87,3.06,3.06,0,0,1,.68,2,2.44,2.44,0,0,1-1.39,2.35,2.83,2.83,0,0,1,1.91,2.86,3.23,3.23,0,0,1-.51,1.88,2.34,2.34,0,0,1-1.28,1,7.16,7.16,0,0,1-2.16.25ZM199,43.63h.93a1.19,1.19,0,0,0,.92-.34,1.08,1.08,0,0,0,.33-.77,1.45,1.45,0,0,0-.31-1,1,1,0,0,0-.74-.35H199Zm0,4.62h1.22a1.18,1.18,0,0,0,1-.39,1.25,1.25,0,0,0,.28-.75,1.66,1.66,0,0,0-.32-1,1.35,1.35,0,0,0-1.17-.45h-1Z" transform="translate(-12.48 -2.92)"/><path d="M213.35,39.24h2.41V50.4h-2.41V49.22a4.68,4.68,0,0,1-1.42,1.12,3.45,3.45,0,0,1-1.54.35A4,4,0,0,1,207.17,49a6.45,6.45,0,0,1-1.36-4.17,6.56,6.56,0,0,1,1.32-4.23A4,4,0,0,1,210.32,39a3.52,3.52,0,0,1,1.63.38,4.56,4.56,0,0,1,1.4,1.13Zm-2.54,2.3a2.29,2.29,0,0,0-1.85.92,3.58,3.58,0,0,0-.74,2.35,3.66,3.66,0,0,0,.75,2.38,2.3,2.3,0,0,0,1.85.93,2.34,2.34,0,0,0,1.89-.91,3.71,3.71,0,0,0,.75-2.41,3.57,3.57,0,0,0-.75-2.36A2.36,2.36,0,0,0,210.81,41.54Z" transform="translate(-12.48 -2.92)"/><path d="M219.84,45.82a2.54,2.54,0,0,1-1.28-1.12,3.55,3.55,0,0,1-.5-1.86,3.83,3.83,0,0,1,.61-2.17,2.64,2.64,0,0,1,1.46-1.18,10.35,10.35,0,0,1,2.63-.25h2.44V50.4h-2.41v-4h-.47l-2.3,4h-2.85Zm2.95-1.56V41.58H222a1.2,1.2,0,0,0-1.38,1.33c0,.9.51,1.35,1.54,1.35Z" transform="translate(-12.48 -2.92)"/><path d="M241.89,34.7v2.65a17.58,17.58,0,0,1-2,.14,16.54,16.54,0,0,0-2.66.18,3.3,3.3,0,0,0-1.58.74,3.15,3.15,0,0,0-1,1.33,7.34,7.34,0,0,0-.35,2.17c.7-1.93,1.89-2.9,3.59-2.9a4.16,4.16,0,0,1,3.23,1.58,6,6,0,0,1,1.37,4.09A6.35,6.35,0,0,1,241.05,49a4.56,4.56,0,0,1-3.62,1.72,4.4,4.4,0,0,1-3.1-1.25,5.63,5.63,0,0,1-1.72-3,16.72,16.72,0,0,1-.38-3.69,12.79,12.79,0,0,1,.54-4.08,5.52,5.52,0,0,1,1.42-2.37,4.35,4.35,0,0,1,2-1,20.3,20.3,0,0,1,3.41-.38C240.64,34.83,241.4,34.77,241.89,34.7Zm-1.8,10.12a3.62,3.62,0,0,0-.72-2.31,2.42,2.42,0,0,0-3.8,0,4,4,0,0,0,0,4.67,2.34,2.34,0,0,0,1.88.89,2.4,2.4,0,0,0,1.88-.89A3.52,3.52,0,0,0,240.09,44.82Z" transform="translate(-12.48 -2.92)"/><path d="M251.59,39.24H254V50.4h-2.41V49.22a4.68,4.68,0,0,1-1.42,1.12,3.48,3.48,0,0,1-1.54.35A4,4,0,0,1,245.41,49a6.39,6.39,0,0,1-1.36-4.17,6.56,6.56,0,0,1,1.32-4.23A4,4,0,0,1,248.56,39a3.52,3.52,0,0,1,1.63.38,4.56,4.56,0,0,1,1.4,1.13Zm-2.54,2.3a2.32,2.32,0,0,0-1.86.92,3.63,3.63,0,0,0-.74,2.35,3.67,3.67,0,0,0,.76,2.38,2.3,2.3,0,0,0,1.85.93,2.34,2.34,0,0,0,1.89-.91,3.71,3.71,0,0,0,.74-2.41,3.57,3.57,0,0,0-.74-2.36A2.36,2.36,0,0,0,249.05,41.54Z" transform="translate(-12.48 -2.92)"/><path d="M258.84,50.4h-2.41V39.24h2.41v4.42h1.29A6,6,0,0,1,262,40.2,4.5,4.5,0,0,1,265,39a4.65,4.65,0,0,1,3.61,1.69,6.12,6.12,0,0,1,1.49,4.16A6.21,6.21,0,0,1,268.67,49a4.58,4.58,0,0,1-6.77.46,5.68,5.68,0,0,1-1.77-3.18h-1.29Zm8.85-5.58a3.56,3.56,0,0,0-.74-2.33,2.35,2.35,0,0,0-1.9-.9,2.29,2.29,0,0,0-1.87.93,3.57,3.57,0,0,0-.74,2.29,3.63,3.63,0,0,0,.74,2.37,2.34,2.34,0,0,0,1.87.89,2.4,2.4,0,0,0,1.88-.89A3.52,3.52,0,0,0,267.69,44.82Z" transform="translate(-12.48 -2.92)"/><path d="M272.09,39.24h2.41v4.18l3.32-4.18h2.95l-4.28,5.44,4.33,5.72h-3.2l-2.86-3.94-.26.35V50.4h-2.41Z" transform="translate(-12.48 -2.92)"/><path d="M288.91,39.24h2.41V50.4h-2.41V49.22a4.8,4.8,0,0,1-1.42,1.12,3.48,3.48,0,0,1-1.54.35A4,4,0,0,1,282.73,49a6.39,6.39,0,0,1-1.36-4.17,6.61,6.61,0,0,1,1.31-4.23,4,4,0,0,1,3.2-1.65,3.45,3.45,0,0,1,1.62.38,4.48,4.48,0,0,1,1.41,1.13Zm-2.54,2.3a2.31,2.31,0,0,0-1.86.92,4.1,4.1,0,0,0,0,4.73,2.28,2.28,0,0,0,1.85.93,2.32,2.32,0,0,0,1.88-.91A3.71,3.71,0,0,0,289,44.8a3.57,3.57,0,0,0-.75-2.36A2.36,2.36,0,0,0,286.37,41.54Z" transform="translate(-12.48 -2.92)"/><path d="M303.39,45.63h-7.75a3.1,3.1,0,0,0,.9,1.89,2.55,2.55,0,0,0,1.86.71,3,3,0,0,0,2.32-1.1l2,1.11a5,5,0,0,1-1.82,1.85,5,5,0,0,1-2.51.6A4.63,4.63,0,0,1,294.73,49a6.13,6.13,0,0,1-1.42-4.15,6.35,6.35,0,0,1,1.42-4.24A4.45,4.45,0,0,1,298.28,39a4.62,4.62,0,0,1,3.7,1.68,6.74,6.74,0,0,1,1.42,4.46ZM301,43.43a2.9,2.9,0,0,0-.94-1.52,2.49,2.49,0,0,0-1.64-.58,2.62,2.62,0,0,0-1.77.65,3.65,3.65,0,0,0-.88,1.45Z" transform="translate(-12.48 -2.92)"/><path d="M304.49,39.24h9v2.67h-3.2V50.4h-2.42V41.91h-3.34Z" transform="translate(-12.48 -2.92)"/><path d="M321,46.47a2.79,2.79,0,0,0,2.31,1.59,1.89,1.89,0,0,0,1.42-.57,2.19,2.19,0,0,0,.54-1.53,2.31,2.31,0,0,0-.53-1.55,2.87,2.87,0,0,0-2.18-.61H322V41.23h.53a2,2,0,0,0,1.49-.52,1.93,1.93,0,0,0,.51-1.4A1.85,1.85,0,0,0,324.1,38a1.45,1.45,0,0,0-1.12-.47,2.41,2.41,0,0,0-1.71,1l-1.46-1.89a5.27,5.27,0,0,1,2-1.47,5,5,0,0,1,1.45-.24A3.66,3.66,0,0,1,325.9,36a3.92,3.92,0,0,1,1.08,2.9,5.26,5.26,0,0,1-.24,1.58,3.57,3.57,0,0,1-1.36,1.63,4.16,4.16,0,0,1,2.29,4,4.69,4.69,0,0,1-1.22,3.38,4.15,4.15,0,0,1-3.13,1.28,4.53,4.53,0,0,1-2.16-.51,6.57,6.57,0,0,1-2.08-2.19Z" transform="translate(-12.48 -2.92)"/><path d="M339.39,45.63h-7.75a3.1,3.1,0,0,0,.9,1.89,2.57,2.57,0,0,0,1.86.71,3,3,0,0,0,2.32-1.1l2,1.11a5.21,5.21,0,0,1-1.82,1.85,5.05,5.05,0,0,1-2.52.6A4.63,4.63,0,0,1,330.73,49a6.13,6.13,0,0,1-1.42-4.15,6.35,6.35,0,0,1,1.42-4.24A4.45,4.45,0,0,1,334.28,39a4.62,4.62,0,0,1,3.7,1.68,6.68,6.68,0,0,1,1.42,4.46ZM337,43.43a2.84,2.84,0,0,0-.94-1.52,2.49,2.49,0,0,0-1.64-.58,2.62,2.62,0,0,0-1.77.65,3.65,3.65,0,0,0-.88,1.45Z" transform="translate(-12.48 -2.92)"/><path d="M347.23,46.28l2.95-7h1.59l2.41,11.16h-2.36l-1.29-6.55-2.86,6.55h-1l-2.8-6.55-1.3,6.55h-2.35l2.41-11.16h1.59Z" transform="translate(-12.48 -2.92)"/><path d="M364.11,50.4h-2.46l-2.4-7-2.45,7h-2.45l4.1-11.16H360Z" transform="translate(-12.48 -2.92)"/><path d="M367.78,50.4h-2.41V39.24h2.41v4.42h1.29a6,6,0,0,1,1.85-3.46A4.52,4.52,0,0,1,374,39a4.62,4.62,0,0,1,3.61,1.69,6.12,6.12,0,0,1,1.49,4.16A6.21,6.21,0,0,1,377.61,49a4.58,4.58,0,0,1-6.77.46,5.68,5.68,0,0,1-1.77-3.18h-1.29Zm8.85-5.58a3.56,3.56,0,0,0-.74-2.33,2.34,2.34,0,0,0-1.9-.9,2.29,2.29,0,0,0-1.87.93,3.57,3.57,0,0,0-.74,2.29,3.63,3.63,0,0,0,.74,2.37,2.34,2.34,0,0,0,1.87.89,2.39,2.39,0,0,0,1.88-.89A3.52,3.52,0,0,0,376.63,44.82Z" transform="translate(-12.48 -2.92)"/><path d="M34.54,60.52H37v5.2l3.53-5.2h3L39,67.25l5,8.35H41.05l-4-6.7v6.7h-2.5Z" transform="translate(-12.48 -2.92)"/><path d="M52.58,64.44H55V75.6H52.58V74.42a4.8,4.8,0,0,1-1.42,1.12,3.48,3.48,0,0,1-1.54.35,4,4,0,0,1-3.22-1.68A6.39,6.39,0,0,1,45,70a6.61,6.61,0,0,1,1.31-4.23,4,4,0,0,1,3.2-1.65,3.45,3.45,0,0,1,1.62.38,4.48,4.48,0,0,1,1.41,1.13ZM50,66.74a2.32,2.32,0,0,0-1.86.92,4.1,4.1,0,0,0,0,4.73,2.35,2.35,0,0,0,3.73,0A3.71,3.71,0,0,0,52.68,70a3.57,3.57,0,0,0-.75-2.36A2.34,2.34,0,0,0,50,66.74Z" transform="translate(-12.48 -2.92)"/><path d="M62.65,71.17H60.71a4.59,4.59,0,0,1-3-.88,3.55,3.55,0,0,1-1.06-2.88v-3h2.42v2.75c0,1,.56,1.47,1.69,1.47h1.91V64.44h2.41V75.6H62.65Z" transform="translate(-12.48 -2.92)"/><path d="M74.59,64.44H77V75.6H74.59V74.42a4.68,4.68,0,0,1-1.42,1.12,3.45,3.45,0,0,1-1.54.35,4,4,0,0,1-3.22-1.68A6.39,6.39,0,0,1,67.05,70a6.56,6.56,0,0,1,1.32-4.23,4,4,0,0,1,3.19-1.65,3.52,3.52,0,0,1,1.63.38,4.56,4.56,0,0,1,1.4,1.13Zm-2.54,2.3a2.29,2.29,0,0,0-1.85.92A3.58,3.58,0,0,0,69.46,70a3.66,3.66,0,0,0,.75,2.38,2.3,2.3,0,0,0,1.85.93A2.34,2.34,0,0,0,74,72.41,3.71,3.71,0,0,0,74.7,70,3.57,3.57,0,0,0,74,67.64,2.36,2.36,0,0,0,72.05,66.74Z" transform="translate(-12.48 -2.92)"/><path d="M89.07,70.83H81.32a3.12,3.12,0,0,0,.9,1.89,2.58,2.58,0,0,0,1.86.71,3,3,0,0,0,2.33-1.1l2,1.11a5.21,5.21,0,0,1-1.82,1.85,5.05,5.05,0,0,1-2.52.6,4.63,4.63,0,0,1-3.69-1.66A6.18,6.18,0,0,1,79,70.08a6.35,6.35,0,0,1,1.42-4.24A4.46,4.46,0,0,1,84,64.16a4.61,4.61,0,0,1,3.69,1.68,6.68,6.68,0,0,1,1.42,4.46Zm-2.41-2.2a2.84,2.84,0,0,0-.94-1.52,2.47,2.47,0,0,0-1.63-.58,2.63,2.63,0,0,0-1.78.65,3.85,3.85,0,0,0-.88,1.45Z" transform="translate(-12.48 -2.92)"/><path d="M96.91,71.48l3-7h1.59l2.41,11.16H101.5l-1.29-6.55L97.35,75.6h-1l-2.8-6.55-1.3,6.55H89.91l2.41-11.16h1.59Z" transform="translate(-12.48 -2.92)"/><path d="M114.61,66.7l-2,1.28a3.38,3.38,0,0,0-1.12-1,2.89,2.89,0,0,0-1.29-.27,2.79,2.79,0,0,0-2.19.94,3.44,3.44,0,0,0-.84,2.4,3.33,3.33,0,0,0,.81,2.32,2.69,2.69,0,0,0,2.11.9A2.89,2.89,0,0,0,112.6,72l1.91,1.51a4.94,4.94,0,0,1-4.37,2.34,4.85,4.85,0,0,1-4-1.75,6.2,6.2,0,0,1-1.44-4.08,6.51,6.51,0,0,1,.7-3,5.38,5.38,0,0,1,1.95-2.14,5.18,5.18,0,0,1,2.8-.78,5,5,0,0,1,2.57.66A5.16,5.16,0,0,1,114.61,66.7Z" transform="translate(-12.48 -2.92)"/><path d="M118.43,71a2.51,2.51,0,0,1-1.28-1.12,3.47,3.47,0,0,1-.51-1.86,3.91,3.91,0,0,1,.61-2.17,2.67,2.67,0,0,1,1.46-1.18,10.39,10.39,0,0,1,2.64-.25h2.43V75.6h-2.41v-4h-.47l-2.29,4h-2.86Zm2.94-1.56V66.78h-.84a1.2,1.2,0,0,0-1.38,1.33c0,.9.52,1.35,1.54,1.35Z" transform="translate(-12.48 -2.92)"/><path d="M137.16,71.48l3-7h1.59l2.41,11.16h-2.36l-1.29-6.55L137.6,75.6h-1l-2.8-6.55-1.29,6.55h-2.35l2.4-11.16h1.59Z" transform="translate(-12.48 -2.92)"/><path d="M147.86,68.46h.71a7.76,7.76,0,0,1,2.33.27,2.7,2.7,0,0,1,1.37,1.14,3.89,3.89,0,0,1,.55,2.16,4.25,4.25,0,0,1-.5,2.15A2.52,2.52,0,0,1,151,75.32a6.65,6.65,0,0,1-2.19.28h-3.4V64.44h2.42Zm0,5h.73a3,3,0,0,0,.95-.11,1.08,1.08,0,0,0,.52-.42,1.42,1.42,0,0,0-1.2-2.18h-1Zm6.64-9h2.41V75.6H154.5Z" transform="translate(-12.48 -2.92)"/><path d="M164.42,75.6V64.44h3.86a2.73,2.73,0,0,1,3.26,2.83,2.45,2.45,0,0,1-1.4,2.35,2.82,2.82,0,0,1,1.91,2.86,3.31,3.31,0,0,1-.5,1.88,2.37,2.37,0,0,1-1.28,1,7.16,7.16,0,0,1-2.16.25Zm2.41-6.77h.93a1.2,1.2,0,0,0,.92-.34,1.06,1.06,0,0,0,.32-.76,1.41,1.41,0,0,0-.31-1,1,1,0,0,0-.73-.35h-1.13Zm0,4.62H168a1.16,1.16,0,0,0,1-.39,1.27,1.27,0,0,0,.29-.75,1.72,1.72,0,0,0-.32-1,1.36,1.36,0,0,0-1.17-.45h-1Z" transform="translate(-12.48 -2.92)"/><path d="M180.77,70.87v-2h.48a1.43,1.43,0,0,0,.85-.26,1,1,0,0,0,.36-.86,1.18,1.18,0,0,0-.32-.85,1.07,1.07,0,0,0-.79-.33,2.74,2.74,0,0,0-1.49.66l-1-1.92a4,4,0,0,1,2.77-1.15A3.32,3.32,0,0,1,184,65a3,3,0,0,1,.93,2.28,2.73,2.73,0,0,1-1.35,2.36,2.79,2.79,0,0,1,1.8,2.78,3.32,3.32,0,0,1-1,2.48,3.8,3.8,0,0,1-2.79,1,4.39,4.39,0,0,1-3.22-1.27l1.33-2a2.59,2.59,0,0,0,1.63.74,1.37,1.37,0,0,0,1-.35,1.16,1.16,0,0,0,.36-.88,1.34,1.34,0,0,0-.34-.92,1.15,1.15,0,0,0-.93-.39Z" transform="translate(-12.48 -2.92)"/><path d="M187.31,75.6V64.44h3.86a3.16,3.16,0,0,1,2.59.87,3.11,3.11,0,0,1,.68,2,2.45,2.45,0,0,1-1.4,2.35A2.83,2.83,0,0,1,195,72.48a3.23,3.23,0,0,1-.51,1.88,2.35,2.35,0,0,1-1.27,1,7.25,7.25,0,0,1-2.16.25Zm2.42-6.77h.93a1.21,1.21,0,0,0,.92-.34,1.1,1.1,0,0,0,.32-.76,1.41,1.41,0,0,0-.31-1,1,1,0,0,0-.74-.35h-1.12Zm0,4.62h1.21a1.17,1.17,0,0,0,1-.39,1.27,1.27,0,0,0,.29-.75,1.67,1.67,0,0,0-.33-1,1.33,1.33,0,0,0-1.16-.45h-1Z" transform="translate(-12.48 -2.92)"/><path d="M206.63,70.83h-7.75a3.07,3.07,0,0,0,.9,1.89,2.55,2.55,0,0,0,1.86.71,3,3,0,0,0,2.32-1.1l2,1.11a5,5,0,0,1-1.82,1.85,5,5,0,0,1-2.51.6A4.63,4.63,0,0,1,198,74.23a6.13,6.13,0,0,1-1.42-4.15A6.35,6.35,0,0,1,198,65.84a4.45,4.45,0,0,1,3.55-1.68,4.62,4.62,0,0,1,3.7,1.68,6.68,6.68,0,0,1,1.42,4.46Zm-2.41-2.2a2.9,2.9,0,0,0-.94-1.52,2.49,2.49,0,0,0-1.64-.58,2.62,2.62,0,0,0-1.77.65,3.73,3.73,0,0,0-.88,1.45Z" transform="translate(-12.48 -2.92)"/><path d="M210.19,70.87v-2h.48a1.45,1.45,0,0,0,.85-.26,1,1,0,0,0,.36-.86,1.18,1.18,0,0,0-.32-.85,1.07,1.07,0,0,0-.79-.33,2.74,2.74,0,0,0-1.49.66l-.95-1.92a4,4,0,0,1,2.77-1.15,3.33,3.33,0,0,1,2.33.84,2.94,2.94,0,0,1,.92,2.28A2.72,2.72,0,0,1,213,69.64a2.78,2.78,0,0,1,1.79,2.78,3.31,3.31,0,0,1-1,2.48,3.8,3.8,0,0,1-2.79,1,4.38,4.38,0,0,1-3.22-1.27l1.33-2a2.56,2.56,0,0,0,1.63.74,1.37,1.37,0,0,0,1-.35,1.16,1.16,0,0,0,.36-.88,1.34,1.34,0,0,0-.34-.92,1.17,1.17,0,0,0-.93-.39Z" transform="translate(-12.48 -2.92)"/><path d="M218,75.6v1.94h-2.15V73.23h1.45l3.32-8.79h1.55l3.37,8.79H227v4.31h-2.3V75.6Zm5-2.37-1.57-4.7-1.64,4.7Z" transform="translate(-12.48 -2.92)"/><path d="M230.91,68.46h3.61v-4h2.41V75.6h-2.41V71h-3.61V75.6H228.5V64.44h2.41Z" transform="translate(-12.48 -2.92)"/><path d="M243.89,64.16a4.56,4.56,0,0,1,2.56.79,5.31,5.31,0,0,1,1.86,2.14A6.46,6.46,0,0,1,249,70a6.59,6.59,0,0,1-.68,2.95,5.25,5.25,0,0,1-1.84,2.15,4.54,4.54,0,0,1-2.57.78,4.48,4.48,0,0,1-3.53-1.71A6.14,6.14,0,0,1,238.9,70a6.08,6.08,0,0,1,1.66-4.36A4.46,4.46,0,0,1,243.89,64.16Zm0,2.63a2.33,2.33,0,0,0-1.88.91,4.07,4.07,0,0,0,0,4.68,2.31,2.31,0,0,0,1.87.9,2.33,2.33,0,0,0,1.88-.91,4,4,0,0,0,0-4.68A2.36,2.36,0,0,0,243.93,66.79Z" transform="translate(-12.48 -2.92)"/><path d="M252.23,75.6H251V64.44h2.35V71l4.92-6.56h1.16V75.6H257V69.18Zm-.6-16.08h2a1.5,1.5,0,0,0,.64.63,2.2,2.2,0,0,0,1,.21,2.39,2.39,0,0,0,1.09-.24,1.43,1.43,0,0,0,.56-.6h1.95a3.19,3.19,0,0,1-1.07,2.09,3.72,3.72,0,0,1-2.53.79,4.2,4.2,0,0,1-1.84-.35,3,3,0,0,1-1.19-1A3.48,3.48,0,0,1,251.63,59.52Z" transform="translate(-12.48 -2.92)"/><path d="M266.88,64.44h2.41v4.18l3.33-4.18h2.94l-4.28,5.44,4.33,5.72h-3.2l-2.86-3.94-.26.35V75.6h-2.41Z" transform="translate(-12.48 -2.92)"/><path d="M281.12,64.16a4.51,4.51,0,0,1,2.55.79,5.26,5.26,0,0,1,1.87,2.14,6.45,6.45,0,0,1,.67,2.92,6.58,6.58,0,0,1-.67,2.95,5.33,5.33,0,0,1-1.84,2.15,4.54,4.54,0,0,1-2.57.78,4.48,4.48,0,0,1-3.53-1.71A6.14,6.14,0,0,1,276.13,70a6.08,6.08,0,0,1,1.66-4.36A4.46,4.46,0,0,1,281.12,64.16Zm0,2.63a2.33,2.33,0,0,0-1.88.91,4.07,4.07,0,0,0,0,4.68,2.31,2.31,0,0,0,1.87.9,2.33,2.33,0,0,0,1.88-.91,4,4,0,0,0,0-4.68A2.36,2.36,0,0,0,281.16,66.79Z" transform="translate(-12.48 -2.92)"/><path d="M296.78,75.6h-2.46l-2.4-7-2.45,7H287l4.1-11.16h1.55Z" transform="translate(-12.48 -2.92)"/><path d="M300.45,68.46h.72a7.69,7.69,0,0,1,2.32.27,2.66,2.66,0,0,1,1.37,1.14,3.89,3.89,0,0,1,.56,2.16,4.15,4.15,0,0,1-.51,2.15,2.46,2.46,0,0,1-1.28,1.14,6.68,6.68,0,0,1-2.2.28H298V64.44h2.41Zm0,5h.74a3.06,3.06,0,0,0,.95-.11,1.11,1.11,0,0,0,.51-.42,1.2,1.2,0,0,0,.22-.74,1.26,1.26,0,0,0-1.42-1.44h-1Zm6.65-9h2.41V75.6H307.1Z" transform="translate(-12.48 -2.92)"/><path d="M321.15,59.9v2.65a17.58,17.58,0,0,1-2,.14,16.79,16.79,0,0,0-2.67.18,3.34,3.34,0,0,0-1.58.74,3.31,3.31,0,0,0-1,1.33,7.69,7.69,0,0,0-.35,2.17q1.05-2.89,3.59-2.9a4.18,4.18,0,0,1,3.24,1.58,6.05,6.05,0,0,1,1.37,4.09,6.35,6.35,0,0,1-1.47,4.29,4.58,4.58,0,0,1-3.63,1.72,4.42,4.42,0,0,1-3.1-1.25,5.7,5.7,0,0,1-1.72-3,17.34,17.34,0,0,1-.38-3.69,12.79,12.79,0,0,1,.54-4.08,5.52,5.52,0,0,1,1.42-2.37,4.53,4.53,0,0,1,2-1.05,20.16,20.16,0,0,1,3.4-.38C319.9,60,320.65,60,321.15,59.9ZM319.34,70a3.62,3.62,0,0,0-.72-2.31,2.32,2.32,0,0,0-1.91-.92,2.35,2.35,0,0,0-1.89.92,4.05,4.05,0,0,0,0,4.67,2.34,2.34,0,0,0,1.88.89,2.4,2.4,0,0,0,1.88-.89A3.52,3.52,0,0,0,319.34,70Z" transform="translate(-12.48 -2.92)"/><path d="M333.38,70.83h-7.75a3.07,3.07,0,0,0,.9,1.89,2.54,2.54,0,0,0,1.85.71,3,3,0,0,0,2.33-1.1l2,1.11a5.13,5.13,0,0,1-1.82,1.85,5,5,0,0,1-2.52.6,4.61,4.61,0,0,1-3.68-1.66,6.14,6.14,0,0,1-1.43-4.15,6.41,6.41,0,0,1,1.42-4.24,4.47,4.47,0,0,1,3.56-1.68A4.6,4.6,0,0,1,332,65.84a6.69,6.69,0,0,1,1.43,4.46ZM331,68.63a2.86,2.86,0,0,0-1-1.52,2.47,2.47,0,0,0-1.63-.58,2.62,2.62,0,0,0-1.77.65,3.85,3.85,0,0,0-.89,1.45Z" transform="translate(-12.48 -2.92)"/><path d="M343.92,75.6h-2.46l-2.4-7-2.45,7h-2.45l4.1-11.16h1.56Z" transform="translate(-12.48 -2.92)"/><path d="M346.46,75.6h-1.28V64.44h2.35V71l4.93-6.56h1.15V75.6h-2.35V69.18Z" transform="translate(-12.48 -2.92)"/><path d="M357.21,72.76l1.72,1-2.18,4.33-1.2-.66Z" transform="translate(-12.48 -2.92)"/><path d="M48.57,85.72h2.51l5,15.08H53.51l-1-3.11H47.18l-1,3.11H43.56Zm1.27,4-1.75,5.17h3.48Z" transform="translate(-12.48 -2.92)"/><path d="M61.72,89.64h2.47l2.49,7,2.76-7h2.47l-6,15.24H63.4l2-4.91Z" transform="translate(-12.48 -2.92)"/><path d="M72.43,89.64h9v2.67h-3.2v8.49H75.78V92.31H72.43Z" transform="translate(-12.48 -2.92)"/><path d="M85.37,89.64v1.23a4.48,4.48,0,0,1,1.41-1.13,3.52,3.52,0,0,1,1.63-.38A4,4,0,0,1,91.61,91a6.61,6.61,0,0,1,1.31,4.23,6.39,6.39,0,0,1-1.36,4.17,4,4,0,0,1-3.22,1.68,3.52,3.52,0,0,1-1.55-.35,4.68,4.68,0,0,1-1.42-1.12v5.26H83V89.64Zm2.53,2.3a2.36,2.36,0,0,0-1.89.9,3.57,3.57,0,0,0-.75,2.36A3.71,3.71,0,0,0,86,97.61a2.34,2.34,0,0,0,1.89.91,2.3,2.3,0,0,0,1.86-.93,4.1,4.1,0,0,0,0-4.73A2.33,2.33,0,0,0,87.9,91.94Z" transform="translate(-12.48 -2.92)"/><path d="M99.44,89.36a4.53,4.53,0,0,1,2.55.79,5.34,5.34,0,0,1,1.87,2.14,6.45,6.45,0,0,1,.67,2.92,6.58,6.58,0,0,1-.67,3,5.33,5.33,0,0,1-1.84,2.15,4.55,4.55,0,0,1-2.58.78,4.49,4.49,0,0,1-3.53-1.71,6.19,6.19,0,0,1-1.46-4.15,6.11,6.11,0,0,1,1.65-4.36A4.5,4.5,0,0,1,99.44,89.36Zm0,2.63a2.33,2.33,0,0,0-1.87.91,3.51,3.51,0,0,0-.75,2.32,3.62,3.62,0,0,0,.74,2.36,2.41,2.41,0,0,0,3.76,0,3.58,3.58,0,0,0,.75-2.35,3.5,3.5,0,0,0-.74-2.33A2.33,2.33,0,0,0,99.47,92Z" transform="translate(-12.48 -2.92)"/><path d="M112.39,96.68l3-7h1.59l2.41,11.16H117l-1.29-6.55-2.86,6.55h-1L109,94.25l-1.3,6.55h-2.35l2.41-11.16h1.59Z" transform="translate(-12.48 -2.92)"/><path d="M128.15,100.8h-2.42V89.64h8.43V100.8h-2.41V92.34h-3.6Z" transform="translate(-12.48 -2.92)"/><path d="M139,89.64v1.23a4.48,4.48,0,0,1,1.41-1.13,3.52,3.52,0,0,1,1.63-.38,4,4,0,0,1,3.2,1.65,6.61,6.61,0,0,1,1.31,4.23,6.39,6.39,0,0,1-1.36,4.17,4,4,0,0,1-3.22,1.68,3.52,3.52,0,0,1-1.55-.35A4.68,4.68,0,0,1,139,99.62v5.26h-2.4V89.64Zm2.53,2.3a2.36,2.36,0,0,0-1.89.9,3.57,3.57,0,0,0-.75,2.36,3.71,3.71,0,0,0,.75,2.41,2.34,2.34,0,0,0,1.89.91,2.3,2.3,0,0,0,1.86-.93,4.1,4.1,0,0,0,0-4.73A2.33,2.33,0,0,0,141.53,91.94Z" transform="translate(-12.48 -2.92)"/><path d="M153.07,89.36a4.51,4.51,0,0,1,2.55.79,5.26,5.26,0,0,1,1.87,2.14,6.46,6.46,0,0,1,.68,2.92,6.59,6.59,0,0,1-.68,3,5.33,5.33,0,0,1-1.84,2.15,4.56,4.56,0,0,1-6.11-.93,6.19,6.19,0,0,1-1.46-4.15,6.11,6.11,0,0,1,1.65-4.36A4.5,4.5,0,0,1,153.07,89.36Zm0,2.63a2.33,2.33,0,0,0-1.88.91,3.51,3.51,0,0,0-.74,2.32,3.57,3.57,0,0,0,.74,2.36,2.31,2.31,0,0,0,1.87.9,2.33,2.33,0,0,0,1.88-.91,4.07,4.07,0,0,0,0-4.68A2.36,2.36,0,0,0,153.11,92Z" transform="translate(-12.48 -2.92)"/><path d="M169.55,91.9l-2,1.28a3.48,3.48,0,0,0-1.12-1,2.93,2.93,0,0,0-1.3-.27,2.79,2.79,0,0,0-2.19.94,3.48,3.48,0,0,0-.83,2.4,3.37,3.37,0,0,0,.8,2.32,2.71,2.71,0,0,0,2.12.9,2.89,2.89,0,0,0,2.52-1.28l1.9,1.51a4.94,4.94,0,0,1-4.36,2.34,4.85,4.85,0,0,1-4-1.75,6.25,6.25,0,0,1-1.43-4.08,6.38,6.38,0,0,1,.7-3,5.29,5.29,0,0,1,1.94-2.14,5.21,5.21,0,0,1,2.8-.78,5,5,0,0,1,2.57.66A5.26,5.26,0,0,1,169.55,91.9Z" transform="translate(-12.48 -2.92)"/><path d="M174.12,93.66h.72a7.76,7.76,0,0,1,2.33.27,2.64,2.64,0,0,1,1.36,1.14,3.89,3.89,0,0,1,.56,2.16,4.25,4.25,0,0,1-.5,2.15,2.52,2.52,0,0,1-1.29,1.14,6.68,6.68,0,0,1-2.2.28h-3.39V89.64h2.41Zm0,5h.74a3.06,3.06,0,0,0,.95-.11,1.06,1.06,0,0,0,.51-.42,1.21,1.21,0,0,0,.23-.74,1.27,1.27,0,0,0-1.42-1.44h-1Zm6.65-9h2.41V100.8h-2.41Z" transform="translate(-12.48 -2.92)"/><path d="M188,100.8h-2.41V89.64H194V100.8h-2.41V92.34H188Z" transform="translate(-12.48 -2.92)"/><path d="M203.58,89.64H206V100.8h-2.41V99.62a4.8,4.8,0,0,1-1.42,1.12,3.48,3.48,0,0,1-1.54.35,4,4,0,0,1-3.22-1.68A6.39,6.39,0,0,1,196,95.24,6.61,6.61,0,0,1,197.35,91a4,4,0,0,1,3.2-1.65,3.45,3.45,0,0,1,1.62.38,4.48,4.48,0,0,1,1.41,1.13ZM201,91.94a2.32,2.32,0,0,0-1.86.92,4.1,4.1,0,0,0,0,4.73,2.3,2.3,0,0,0,1.85.93,2.34,2.34,0,0,0,1.89-.91,3.77,3.77,0,0,0,.74-2.41,3.62,3.62,0,0,0-.74-2.36A2.38,2.38,0,0,0,201,91.94Z" transform="translate(-12.48 -2.92)"/><path d="M218.06,96h-7.75a3.1,3.1,0,0,0,.9,1.89,2.55,2.55,0,0,0,1.86.71,3,3,0,0,0,2.32-1.1l2,1.11a5,5,0,0,1-1.82,1.85,5,5,0,0,1-2.51.6,4.63,4.63,0,0,1-3.69-1.66A6.13,6.13,0,0,1,208,95.28,6.35,6.35,0,0,1,209.4,91,4.45,4.45,0,0,1,213,89.36a4.62,4.62,0,0,1,3.7,1.68,6.68,6.68,0,0,1,1.42,4.46Zm-2.41-2.2a2.84,2.84,0,0,0-.94-1.52,2.49,2.49,0,0,0-1.64-.58,2.62,2.62,0,0,0-1.77.65,3.65,3.65,0,0,0-.88,1.45Z" transform="translate(-12.48 -2.92)"/><path d="M225.9,96.68l2.95-7h1.59l2.41,11.16h-2.36l-1.29-6.55-2.86,6.55h-1l-2.8-6.55-1.3,6.55H218.9l2.41-11.16h1.59Z" transform="translate(-12.48 -2.92)"/><path d="M243.6,91.9l-2,1.28a3.48,3.48,0,0,0-1.12-1,2.92,2.92,0,0,0-1.29-.27,2.76,2.76,0,0,0-2.19.94,3.44,3.44,0,0,0-.84,2.4,3.33,3.33,0,0,0,.81,2.32,2.69,2.69,0,0,0,2.11.9,2.89,2.89,0,0,0,2.52-1.28l1.9,1.51a4.93,4.93,0,0,1-4.36,2.34,4.83,4.83,0,0,1-4-1.75,6.2,6.2,0,0,1-1.44-4.08,6.38,6.38,0,0,1,.7-3,5.24,5.24,0,0,1,2-2.14,5.15,5.15,0,0,1,2.79-.78,5.05,5.05,0,0,1,2.58.66A5.16,5.16,0,0,1,243.6,91.9Z" transform="translate(-12.48 -2.92)"/><path d="M247.41,96.22a2.54,2.54,0,0,1-1.28-1.12,3.55,3.55,0,0,1-.5-1.86,3.91,3.91,0,0,1,.61-2.17,2.64,2.64,0,0,1,1.46-1.18,10.35,10.35,0,0,1,2.63-.25h2.44V100.8h-2.41v-4h-.47l-2.29,4h-2.86Zm3-1.56V92h-.84a1.2,1.2,0,0,0-1.38,1.33c0,.9.51,1.35,1.54,1.35Z" transform="translate(-12.48 -2.92)"/><path d="M260.27,100.8V89.64h3.86a3.15,3.15,0,0,1,2.58.87,3.11,3.11,0,0,1,.68,2,2.45,2.45,0,0,1-1.4,2.35,2.82,2.82,0,0,1,1.91,2.86,3.31,3.31,0,0,1-.5,1.88,2.37,2.37,0,0,1-1.28,1,7.21,7.21,0,0,1-2.16.25ZM262.68,94h.93a1.2,1.2,0,0,0,.92-.34,1.11,1.11,0,0,0,.32-.77,1.4,1.4,0,0,0-.31-1,1,1,0,0,0-.73-.35h-1.13Zm0,4.62h1.21a1.16,1.16,0,0,0,1-.39,1.27,1.27,0,0,0,.29-.75,1.72,1.72,0,0,0-.32-1,1.36,1.36,0,0,0-1.17-.45h-1Z" transform="translate(-12.48 -2.92)"/><path d="M277.42,100.8H275V89.64h8.43V100.8H281V92.34h-3.6Z" transform="translate(-12.48 -2.92)"/><path d="M290.39,89.36a4.54,4.54,0,0,1,2.56.79,5.34,5.34,0,0,1,1.87,2.14,6.45,6.45,0,0,1,.67,2.92,6.59,6.59,0,0,1-.68,3,5.25,5.25,0,0,1-1.84,2.15,4.55,4.55,0,0,1-6.1-.93,6.61,6.61,0,0,1,.19-8.51A4.49,4.49,0,0,1,290.39,89.36Zm0,2.63a2.31,2.31,0,0,0-1.87.91,3.51,3.51,0,0,0-.75,2.32,3.62,3.62,0,0,0,.74,2.36,2.41,2.41,0,0,0,3.76,0,4,4,0,0,0,0-4.68A2.33,2.33,0,0,0,290.43,92Z" transform="translate(-12.48 -2.92)"/><path d="M306.87,91.9l-2,1.28a3.38,3.38,0,0,0-1.12-1,2.89,2.89,0,0,0-1.29-.27,2.79,2.79,0,0,0-2.19.94,3.44,3.44,0,0,0-.84,2.4,3.33,3.33,0,0,0,.81,2.32,2.69,2.69,0,0,0,2.11.9,2.89,2.89,0,0,0,2.52-1.28l1.91,1.51a5,5,0,0,1-4.37,2.34,4.85,4.85,0,0,1-4-1.75A6.2,6.2,0,0,1,297,95.26a6.38,6.38,0,0,1,.7-3,5.31,5.31,0,0,1,1.95-2.14,5.16,5.16,0,0,1,2.8-.78A5,5,0,0,1,305,90,5.16,5.16,0,0,1,306.87,91.9Z" transform="translate(-12.48 -2.92)"/><path d="M308.19,89.64h9v2.67H314v8.49h-2.41V92.31h-3.35Z" transform="translate(-12.48 -2.92)"/><path d="M328.36,96h-7.75a3.1,3.1,0,0,0,.9,1.89,2.58,2.58,0,0,0,1.86.71,3,3,0,0,0,2.32-1.1l2,1.11a5.21,5.21,0,0,1-1.82,1.85,5.05,5.05,0,0,1-2.52.6,4.63,4.63,0,0,1-3.69-1.66,6.13,6.13,0,0,1-1.42-4.15A6.35,6.35,0,0,1,319.7,91a4.46,4.46,0,0,1,3.56-1.68A4.61,4.61,0,0,1,327,91a6.68,6.68,0,0,1,1.42,4.46ZM326,93.83a2.84,2.84,0,0,0-.94-1.52,2.49,2.49,0,0,0-1.63-.58,2.63,2.63,0,0,0-1.78.65,3.77,3.77,0,0,0-.88,1.45Z" transform="translate(-12.48 -2.92)"/><path d="M338.91,100.8h-2.46l-2.41-7-2.44,7h-2.45l4.1-11.16h1.55Z" transform="translate(-12.48 -2.92)"/><path d="M341.45,100.8h-1.28V89.64h2.35V96.2l4.92-6.56h1.16V100.8h-2.35V94.38Z" transform="translate(-12.48 -2.92)"/><path d="M352.2,98l1.72,1-2.18,4.33-1.2-.66Z" transform="translate(-12.48 -2.92)"/><path d="M35.27,126V110.92h2a9.56,9.56,0,0,1,2.6.26,3.47,3.47,0,0,1,1.86,1.34,3.85,3.85,0,0,1,.69,2.29,3.57,3.57,0,0,1-1.34,2.88,4.35,4.35,0,0,1,1.74,1.62,4.64,4.64,0,0,1,.54,2.29,4.88,4.88,0,0,1-.56,2.32,3.88,3.88,0,0,1-1.46,1.56,4.91,4.91,0,0,1-2.47.52Zm2.48-12.35v3.18h.54a1.79,1.79,0,0,0,1.34-.44,1.59,1.59,0,0,0,.44-1.2,1.54,1.54,0,0,0-.41-1.12,1.72,1.72,0,0,0-1.27-.42Zm0,5.75v3.86h.62a3.41,3.41,0,0,0,2.08-.45A1.64,1.64,0,0,0,41,121.5a2,2,0,0,0-.63-1.54,3.08,3.08,0,0,0-2.09-.56Z" transform="translate(-12.48 -2.92)"/><path d="M47.91,118.86h.72a7.69,7.69,0,0,1,2.32.27,2.66,2.66,0,0,1,1.37,1.14,3.89,3.89,0,0,1,.56,2.16,4.15,4.15,0,0,1-.51,2.15,2.46,2.46,0,0,1-1.28,1.14,6.72,6.72,0,0,1-2.2.28H45.5V114.84h2.41Zm0,5h.74a3.1,3.1,0,0,0,1-.11,1.11,1.11,0,0,0,.51-.42,1.2,1.2,0,0,0,.22-.74,1.26,1.26,0,0,0-1.42-1.44h-1Zm6.65-9H57V126H54.56Z" transform="translate(-12.48 -2.92)"/><path d="M58.54,114.84h2.8l1.9,3,1.89-3h2.76l-3.27,5.25,3.7,5.91H65.51l-2.28-3.66L61,126H58.2l3.65-5.87Z" transform="translate(-12.48 -2.92)"/><path d="M74.06,114.56a4.54,4.54,0,0,1,2.56.79,5.34,5.34,0,0,1,1.87,2.14,6.72,6.72,0,0,1,0,5.87,5.25,5.25,0,0,1-1.84,2.15,4.55,4.55,0,0,1-6.1-.93,6.61,6.61,0,0,1,.19-8.51A4.48,4.48,0,0,1,74.06,114.56Zm0,2.63a2.31,2.31,0,0,0-1.87.91,3.51,3.51,0,0,0-.75,2.32,3.62,3.62,0,0,0,.74,2.36,2.32,2.32,0,0,0,1.87.9,2.35,2.35,0,0,0,1.89-.91,4,4,0,0,0,0-4.68A2.33,2.33,0,0,0,74.1,117.19Z" transform="translate(-12.48 -2.92)"/><path d="M82.38,126v1.94H80.23v-4.31h1.44L85,114.84h1.56l3.37,8.79h1.47v4.31h-2.3V126Zm5-2.37-1.58-4.7-1.63,4.7Z" transform="translate(-12.48 -2.92)"/><path d="M94.18,126H92.9V114.84h2.35v6.56l4.92-6.56h1.16V126H99v-6.42Z" transform="translate(-12.48 -2.92)"/><path d="M109.65,121.88l2.95-7h1.59L116.6,126h-2.36L113,119.45,110.09,126h-1l-2.8-6.55L105,126h-2.35l2.4-11.16h1.59Z" transform="translate(-12.48 -2.92)"/><path d="M123,126V114.84h3.86a2.73,2.73,0,0,1,3.26,2.83,2.45,2.45,0,0,1-1.4,2.35,2.82,2.82,0,0,1,1.91,2.86,3.31,3.31,0,0,1-.5,1.88,2.37,2.37,0,0,1-1.28,1,7.16,7.16,0,0,1-2.16.25Zm2.41-6.77h.93a1.2,1.2,0,0,0,.92-.34,1.06,1.06,0,0,0,.32-.76,1.41,1.41,0,0,0-.31-1,1,1,0,0,0-.73-.35h-1.13Zm0,4.62h1.21a1.16,1.16,0,0,0,1-.39,1.27,1.27,0,0,0,.29-.75,1.72,1.72,0,0,0-.32-1,1.36,1.36,0,0,0-1.17-.45h-1Z" transform="translate(-12.48 -2.92)"/><path d="M143.64,121.88l3-7h1.59L150.59,126h-2.36l-1.29-6.55L144.08,126h-1l-2.8-6.55L139,126h-2.35l2.41-11.16h1.59Z" transform="translate(-12.48 -2.92)"/><path d="M153.2,126h-1.28V114.84h2.35v6.56l4.92-6.56h1.16V126H158v-6.42Z" transform="translate(-12.48 -2.92)"/><path d="M165.19,114.84v1.23a4.48,4.48,0,0,1,1.41-1.13,3.52,3.52,0,0,1,1.63-.38,4,4,0,0,1,3.19,1.65,6.56,6.56,0,0,1,1.32,4.23,6.39,6.39,0,0,1-1.36,4.17,4,4,0,0,1-3.23,1.68,3.51,3.51,0,0,1-1.54-.35,4.68,4.68,0,0,1-1.42-1.12v5.26h-2.4V114.84Zm2.53,2.3a2.36,2.36,0,0,0-1.89.9,3.57,3.57,0,0,0-.75,2.36,3.71,3.71,0,0,0,.75,2.41,2.34,2.34,0,0,0,1.89.91,2.3,2.3,0,0,0,1.86-.93,4.1,4.1,0,0,0,0-4.73A2.33,2.33,0,0,0,167.72,117.14Z" transform="translate(-12.48 -2.92)"/><path d="M181.07,126h-1.28V114.84h2.35v6.56l4.93-6.56h1.15V126h-2.35v-6.42Z" transform="translate(-12.48 -2.92)"/><path d="M205.14,117.1l-2,1.28a3.48,3.48,0,0,0-1.12-.95,2.93,2.93,0,0,0-1.3-.27,2.79,2.79,0,0,0-2.19.94,3.48,3.48,0,0,0-.83,2.4,3.37,3.37,0,0,0,.8,2.32,2.71,2.71,0,0,0,2.12.9,2.89,2.89,0,0,0,2.52-1.28L205,124a4.94,4.94,0,0,1-4.36,2.34,4.85,4.85,0,0,1-4-1.75,6.25,6.25,0,0,1-1.43-4.08,6.38,6.38,0,0,1,.7-3,5.29,5.29,0,0,1,1.94-2.14,5.21,5.21,0,0,1,2.8-.78,5,5,0,0,1,2.57.66A5.26,5.26,0,0,1,205.14,117.1Z" transform="translate(-12.48 -2.92)"/><path d="M213.19,121.88l2.95-7h1.59L220.14,126h-2.36l-1.28-6.55L213.63,126h-1l-2.8-6.55L208.55,126H206.2l2.4-11.16h1.6Z" transform="translate(-12.48 -2.92)"/><path d="M226,114.56a4.54,4.54,0,0,1,2.56.79,5.34,5.34,0,0,1,1.87,2.14,6.72,6.72,0,0,1,0,5.87,5.25,5.25,0,0,1-1.84,2.15,4.55,4.55,0,0,1-6.1-.93,6.61,6.61,0,0,1,.19-8.51A4.48,4.48,0,0,1,226,114.56Zm0,2.63a2.31,2.31,0,0,0-1.87.91,3.51,3.51,0,0,0-.75,2.32,3.62,3.62,0,0,0,.74,2.36,2.41,2.41,0,0,0,3.76,0,4,4,0,0,0,0-4.68A2.33,2.33,0,0,0,226,117.19Z" transform="translate(-12.48 -2.92)"/><path d="M232.21,114.84h9v2.67H238V126h-2.41v-8.49h-3.35Z" transform="translate(-12.48 -2.92)"/><path d="M245.15,114.84v1.23a4.71,4.71,0,0,1,1.41-1.13,3.52,3.52,0,0,1,1.63-.38,4,4,0,0,1,3.2,1.65,6.56,6.56,0,0,1,1.32,4.23,6.45,6.45,0,0,1-1.36,4.17,4.06,4.06,0,0,1-3.23,1.68,3.56,3.56,0,0,1-1.55-.35,4.8,4.8,0,0,1-1.42-1.12v5.26h-2.39V114.84Zm2.54,2.3a2.39,2.39,0,0,0-1.9.9,3.57,3.57,0,0,0-.75,2.36,3.71,3.71,0,0,0,.75,2.41,2.37,2.37,0,0,0,1.9.91,2.33,2.33,0,0,0,1.86-.93,4.13,4.13,0,0,0,0-4.73A2.32,2.32,0,0,0,247.69,117.14Z" transform="translate(-12.48 -2.92)"/><path d="M256,126h-1.29V114.84H257v6.56l4.93-6.56h1.16V126h-2.36v-6.42Z" transform="translate(-12.48 -2.92)"/><path d="M271.45,121.88l2.95-7H276l2.4,11.16H276l-1.29-6.55L271.89,126h-1l-2.8-6.55L266.8,126h-2.35l2.41-11.16h1.59Z" transform="translate(-12.48 -2.92)"/><path d="M287.21,118.86h3.6v-4h2.41V126h-2.41v-4.62h-3.6V126h-2.42V114.84h2.42Z" transform="translate(-12.48 -2.92)"/><path d="M302.76,114.84h2.41V126h-2.41v-1.18a4.8,4.8,0,0,1-1.42,1.12,3.48,3.48,0,0,1-1.54.35,4,4,0,0,1-3.22-1.68,6.39,6.39,0,0,1-1.36-4.17,6.56,6.56,0,0,1,1.32-4.23,4,4,0,0,1,3.19-1.65,3.45,3.45,0,0,1,1.62.38,4.48,4.48,0,0,1,1.41,1.13Zm-2.54,2.3a2.32,2.32,0,0,0-1.86.92,3.63,3.63,0,0,0-.74,2.35,3.67,3.67,0,0,0,.76,2.38,2.3,2.3,0,0,0,1.85.93,2.34,2.34,0,0,0,1.89-.91,3.77,3.77,0,0,0,.74-2.41,3.62,3.62,0,0,0-.74-2.36A2.36,2.36,0,0,0,300.22,117.14Z" transform="translate(-12.48 -2.92)"/><path d="M314.28,121.27v-2h.48a1.45,1.45,0,0,0,.85-.26,1,1,0,0,0,.36-.86,1.18,1.18,0,0,0-.32-.85,1.07,1.07,0,0,0-.79-.33,2.71,2.71,0,0,0-1.49.66l-1-1.92a4,4,0,0,1,2.78-1.15,3.33,3.33,0,0,1,2.33.84,2.94,2.94,0,0,1,.92,2.28A2.72,2.72,0,0,1,317.1,120a2.78,2.78,0,0,1,1.79,2.78,3.31,3.31,0,0,1-1,2.48,3.82,3.82,0,0,1-2.79,1,4.38,4.38,0,0,1-3.22-1.27l1.33-2a2.56,2.56,0,0,0,1.63.74,1.37,1.37,0,0,0,1-.35,1.16,1.16,0,0,0,.36-.88,1.34,1.34,0,0,0-.34-.92,1.18,1.18,0,0,0-.93-.39Z" transform="translate(-12.48 -2.92)"/><path d="M327.92,114.84h2.41V126h-2.41v-1.18a4.8,4.8,0,0,1-1.42,1.12,3.48,3.48,0,0,1-1.54.35,4,4,0,0,1-3.22-1.68,6.39,6.39,0,0,1-1.36-4.17,6.61,6.61,0,0,1,1.31-4.23,4,4,0,0,1,3.2-1.65,3.45,3.45,0,0,1,1.62.38,4.48,4.48,0,0,1,1.41,1.13Zm-2.54,2.3a2.31,2.31,0,0,0-1.86.92,4.1,4.1,0,0,0,0,4.73,2.35,2.35,0,0,0,3.73,0,3.71,3.71,0,0,0,.75-2.41,3.57,3.57,0,0,0-.75-2.36A2.34,2.34,0,0,0,325.38,117.14Z" transform="translate(-12.48 -2.92)"/><path d="M335.16,114.84v1.23a4.63,4.63,0,0,1,1.42-1.13,3.48,3.48,0,0,1,1.62-.38,4,4,0,0,1,3.2,1.65,6.56,6.56,0,0,1,1.32,4.23,6.45,6.45,0,0,1-1.36,4.17,4,4,0,0,1-3.23,1.68,3.48,3.48,0,0,1-1.54-.35,4.71,4.71,0,0,1-1.43-1.12v5.26h-2.39V114.84Zm2.54,2.3a2.36,2.36,0,0,0-1.89.9,3.57,3.57,0,0,0-.75,2.36,3.71,3.71,0,0,0,.75,2.41,2.34,2.34,0,0,0,1.89.91,2.31,2.31,0,0,0,1.86-.93,3.66,3.66,0,0,0,.75-2.38,3.58,3.58,0,0,0-.74-2.35A2.31,2.31,0,0,0,337.7,117.14Z" transform="translate(-12.48 -2.92)"/><path d="M347.12,126h-2.41V114.84h2.41v4.42h1.28a6.07,6.07,0,0,1,1.85-3.46,4.53,4.53,0,0,1,3.05-1.24,4.61,4.61,0,0,1,3.6,1.69,6.07,6.07,0,0,1,1.49,4.16,6.21,6.21,0,0,1-1.45,4.14,4.58,4.58,0,0,1-6.77.46,5.74,5.74,0,0,1-1.77-3.18h-1.28Zm8.84-5.58a3.55,3.55,0,0,0-.73-2.33,2.36,2.36,0,0,0-1.9-.9,2.28,2.28,0,0,0-1.87.93,3.52,3.52,0,0,0-.74,2.29,3.58,3.58,0,0,0,.74,2.37,2.33,2.33,0,0,0,1.87.89,2.37,2.37,0,0,0,1.87-.89A3.52,3.52,0,0,0,356,120.42Z" transform="translate(-12.48 -2.92)"/><path d="M361.68,123.08a1.25,1.25,0,0,1,1,.46,1.7,1.7,0,0,1,.41,1.14,1.72,1.72,0,0,1-.41,1.14,1.26,1.26,0,0,1-2,0,1.72,1.72,0,0,1-.41-1.14,1.7,1.7,0,0,1,.41-1.14A1.25,1.25,0,0,1,361.68,123.08Z" transform="translate(-12.48 -2.92)"/><path d="M73.13,160.94a6.08,6.08,0,0,1,4.75,2.31,8.41,8.41,0,0,1,2,5.65,8.26,8.26,0,0,1-2,5.59,6.14,6.14,0,0,1-9.61-.06,8.48,8.48,0,0,1-1.94-5.58,8.84,8.84,0,0,1,.9-4A7.31,7.31,0,0,1,69.73,162,6,6,0,0,1,73.13,160.94Zm0,2.81a3.82,3.82,0,0,0-3,1.45,5.55,5.55,0,0,0-1.23,3.7,5.18,5.18,0,0,0,1.55,4A3.89,3.89,0,0,0,73.15,174a3.78,3.78,0,0,0,3-1.48,5.94,5.94,0,0,0,0-7.28A3.79,3.79,0,0,0,73.11,163.75Z" transform="translate(-12.48 -2.92)"/><path d="M84.33,169.26h3.61v-4h2.41V176.4H87.94v-4.62H84.33v4.62H81.92V165.24h2.41Z" transform="translate(-12.48 -2.92)"/><path d="M99.89,165.24h2.41V176.4H99.89v-1.18a4.8,4.8,0,0,1-1.42,1.12,3.48,3.48,0,0,1-1.54.35A4,4,0,0,1,93.71,175a6.39,6.39,0,0,1-1.36-4.17,6.61,6.61,0,0,1,1.31-4.23,4,4,0,0,1,3.2-1.65,3.45,3.45,0,0,1,1.62.38,4.48,4.48,0,0,1,1.41,1.13Zm-2.54,2.3a2.29,2.29,0,0,0-1.86.92,4.13,4.13,0,0,0,0,4.73,2.36,2.36,0,0,0,3.74,0,3.71,3.71,0,0,0,.75-2.41,3.57,3.57,0,0,0-.75-2.36A2.36,2.36,0,0,0,97.35,167.54Z" transform="translate(-12.48 -2.92)"/><path d="M116.9,165.24h2.41V176.4H116.9v-1.18a4.8,4.8,0,0,1-1.42,1.12,3.48,3.48,0,0,1-1.54.35,4,4,0,0,1-3.22-1.68,6.39,6.39,0,0,1-1.36-4.17,6.61,6.61,0,0,1,1.31-4.23,4,4,0,0,1,3.2-1.65,3.45,3.45,0,0,1,1.62.38,4.48,4.48,0,0,1,1.41,1.13Zm-2.54,2.3a2.31,2.31,0,0,0-1.86.92,4.1,4.1,0,0,0,0,4.73,2.3,2.3,0,0,0,1.85.93,2.32,2.32,0,0,0,1.88-.91,3.71,3.71,0,0,0,.75-2.41,3.57,3.57,0,0,0-.75-2.36A2.36,2.36,0,0,0,114.36,167.54Z" transform="translate(-12.48 -2.92)"/><path d="M130.34,176.4h-2.46l-2.4-7-2.45,7h-2.45l4.1-11.16h1.56Z" transform="translate(-12.48 -2.92)"/><path d="M141.24,171.63h-7.75a3.1,3.1,0,0,0,.9,1.89,2.58,2.58,0,0,0,1.86.71,3,3,0,0,0,2.32-1.1l2,1.11a5.21,5.21,0,0,1-1.82,1.85,5.05,5.05,0,0,1-2.52.6,4.63,4.63,0,0,1-3.69-1.66,6.13,6.13,0,0,1-1.42-4.15,6.35,6.35,0,0,1,1.42-4.24,4.45,4.45,0,0,1,3.55-1.68,4.62,4.62,0,0,1,3.7,1.68,6.68,6.68,0,0,1,1.42,4.46Zm-2.41-2.2a2.84,2.84,0,0,0-.94-1.52,2.49,2.49,0,0,0-1.64-.58,2.62,2.62,0,0,0-1.77.65,3.77,3.77,0,0,0-.88,1.45Z" transform="translate(-12.48 -2.92)"/><path d="M152.83,171.63h-7.75a3.14,3.14,0,0,0,.89,1.89,2.58,2.58,0,0,0,1.86.71,3,3,0,0,0,2.33-1.1l2,1.11a5.13,5.13,0,0,1-1.82,1.85,5.05,5.05,0,0,1-2.52.6,4.61,4.61,0,0,1-3.68-1.66,6.14,6.14,0,0,1-1.43-4.15,6.41,6.41,0,0,1,1.42-4.24,4.47,4.47,0,0,1,3.56-1.68,4.61,4.61,0,0,1,3.69,1.68,6.69,6.69,0,0,1,1.43,4.46Zm-2.41-2.2a2.86,2.86,0,0,0-.95-1.52,2.47,2.47,0,0,0-1.63-.58,2.62,2.62,0,0,0-1.77.65,3.65,3.65,0,0,0-.89,1.45Z" transform="translate(-12.48 -2.92)"/><path d="M153.92,165.24h9v2.67h-3.19v8.49h-2.42v-8.49h-3.35Z" transform="translate(-12.48 -2.92)"/><path d="M165.62,173.56l1.73,1-2.19,4.33-1.2-.66Z" transform="translate(-12.48 -2.92)"/><path d="M184,167.5l-2,1.28a3.48,3.48,0,0,0-1.12-.95,2.93,2.93,0,0,0-1.3-.27,2.79,2.79,0,0,0-2.19.94,3.44,3.44,0,0,0-.84,2.4,3.33,3.33,0,0,0,.81,2.32,2.7,2.7,0,0,0,2.11.9,2.92,2.92,0,0,0,2.53-1.28l1.9,1.51a4.94,4.94,0,0,1-4.37,2.34,4.85,4.85,0,0,1-4-1.75,6.2,6.2,0,0,1-1.44-4.08,6.51,6.51,0,0,1,.7-3,5.38,5.38,0,0,1,2-2.14,5.18,5.18,0,0,1,2.8-.78,5,5,0,0,1,2.57.66A5.16,5.16,0,0,1,184,167.5Z" transform="translate(-12.48 -2.92)"/><path d="M194.77,176.4h-2.46l-2.4-7-2.45,7H185l4.1-11.16h1.56Z" transform="translate(-12.48 -2.92)"/><path d="M200.56,165a4.51,4.51,0,0,1,2.55.79,5.26,5.26,0,0,1,1.87,2.14,6.45,6.45,0,0,1,.67,2.92,6.58,6.58,0,0,1-.67,2.95,5.33,5.33,0,0,1-1.84,2.15A4.56,4.56,0,0,1,197,175a6.19,6.19,0,0,1-1.46-4.15,6.11,6.11,0,0,1,1.65-4.36A4.5,4.5,0,0,1,200.56,165Zm0,2.63a2.33,2.33,0,0,0-1.88.91,3.51,3.51,0,0,0-.74,2.32,3.62,3.62,0,0,0,.73,2.36,2.41,2.41,0,0,0,3.76,0,3.58,3.58,0,0,0,.75-2.35,3.5,3.5,0,0,0-.74-2.33A2.32,2.32,0,0,0,200.6,167.59Z" transform="translate(-12.48 -2.92)"/><path d="M207.63,176.4V165.24h3.86a3.15,3.15,0,0,1,2.58.87,3.11,3.11,0,0,1,.68,2,2.45,2.45,0,0,1-1.4,2.35,2.83,2.83,0,0,1,1.91,2.86,3.31,3.31,0,0,1-.5,1.88,2.41,2.41,0,0,1-1.28,1,7.25,7.25,0,0,1-2.16.25Zm2.41-6.77H211a1.2,1.2,0,0,0,.92-.34,1.11,1.11,0,0,0,.32-.77,1.4,1.4,0,0,0-.31-1,1,1,0,0,0-.74-.35H210Zm0,4.62h1.21a1.17,1.17,0,0,0,1-.39,1.27,1.27,0,0,0,.29-.75,1.67,1.67,0,0,0-.33-1,1.33,1.33,0,0,0-1.16-.45h-1Z" transform="translate(-12.48 -2.92)"/><path d="M219.71,169.26h3.61v-4h2.41V176.4h-2.41v-4.62h-3.61v4.62H217.3V165.24h2.41Z" transform="translate(-12.48 -2.92)"/><path d="M232.69,165a4.51,4.51,0,0,1,2.55.79,5.26,5.26,0,0,1,1.87,2.14,6.46,6.46,0,0,1,.68,2.92,6.59,6.59,0,0,1-.68,2.95,5.33,5.33,0,0,1-1.84,2.15,4.54,4.54,0,0,1-2.57.78,4.48,4.48,0,0,1-3.53-1.71,6.14,6.14,0,0,1-1.47-4.15,6.08,6.08,0,0,1,1.66-4.36A4.46,4.46,0,0,1,232.69,165Zm0,2.63a2.33,2.33,0,0,0-1.88.91,4.07,4.07,0,0,0,0,4.68,2.31,2.31,0,0,0,1.87.9,2.33,2.33,0,0,0,1.88-.91,4,4,0,0,0,0-4.68A2.36,2.36,0,0,0,232.73,167.59Z" transform="translate(-12.48 -2.92)"/><path d="M246.09,176.4h-1.28V165.24h2.35v6.56l4.92-6.56h1.16V176.4h-2.35V170Z" transform="translate(-12.48 -2.92)"/><path d="M255.68,176.4V165.24h3.86a3.12,3.12,0,0,1,2.58.87,3.06,3.06,0,0,1,.68,2,2.44,2.44,0,0,1-1.39,2.35,2.83,2.83,0,0,1,1.9,2.86,3.23,3.23,0,0,1-.5,1.88,2.34,2.34,0,0,1-1.28,1,7.16,7.16,0,0,1-2.16.25Zm2.41-6.77H259a1.19,1.19,0,0,0,.92-.34,1.08,1.08,0,0,0,.33-.77,1.45,1.45,0,0,0-.31-1,1,1,0,0,0-.74-.35h-1.13Zm0,4.62h1.22a1.15,1.15,0,0,0,1-.39,1.21,1.21,0,0,0,.29-.75,1.66,1.66,0,0,0-.32-1,1.35,1.35,0,0,0-1.17-.45h-1Z" transform="translate(-12.48 -2.92)"/><path d="M272.46,165.24h2.41V176.4h-2.41v-1.18a4.68,4.68,0,0,1-1.42,1.12,3.45,3.45,0,0,1-1.54.35,4,4,0,0,1-3.22-1.68,6.45,6.45,0,0,1-1.36-4.17,6.56,6.56,0,0,1,1.32-4.23,4,4,0,0,1,3.19-1.65,3.52,3.52,0,0,1,1.63.38,4.56,4.56,0,0,1,1.4,1.13Zm-2.54,2.3a2.29,2.29,0,0,0-1.85.92,3.58,3.58,0,0,0-.74,2.35,3.66,3.66,0,0,0,.75,2.38,2.3,2.3,0,0,0,1.85.93,2.34,2.34,0,0,0,1.89-.91,3.71,3.71,0,0,0,.75-2.41,3.57,3.57,0,0,0-.75-2.36A2.36,2.36,0,0,0,269.92,167.54Z" transform="translate(-12.48 -2.92)"/><path d="M279.72,169.26h3.6v-4h2.41V176.4h-2.41v-4.62h-3.6v4.62H277.3V165.24h2.42Z" transform="translate(-12.48 -2.92)"/><path d="M288.51,169.54H293v2.6h-4.49Z" transform="translate(-12.48 -2.92)"/><path d="M301,172h-1.94a4.57,4.57,0,0,1-3-.88,3.51,3.51,0,0,1-1.06-2.88v-3h2.41V168c0,1,.57,1.47,1.7,1.47H301v-4.21h2.41V176.4H301Z" transform="translate(-12.48 -2.92)"/><path d="M312.93,165.24h2.42V176.4h-2.42v-1.18a4.78,4.78,0,0,1-1.41,1.12,3.51,3.51,0,0,1-1.54.35,4.06,4.06,0,0,1-3.23-1.68,6.44,6.44,0,0,1-1.35-4.17,6.56,6.56,0,0,1,1.31-4.23,4,4,0,0,1,3.2-1.65,3.51,3.51,0,0,1,1.62.38,4.45,4.45,0,0,1,1.4,1.13Zm-2.53,2.3a2.29,2.29,0,0,0-1.86.92,4.13,4.13,0,0,0,0,4.73,2.3,2.3,0,0,0,1.86.93,2.33,2.33,0,0,0,1.88-.91,3.71,3.71,0,0,0,.75-2.41,3.57,3.57,0,0,0-.75-2.36A2.36,2.36,0,0,0,310.4,167.54Z" transform="translate(-12.48 -2.92)"/><path d="M319.06,176.4h-1.28V165.24h2.35v6.56l4.92-6.56h1.16V176.4h-2.35V170Zm-.6-16.08h2a1.5,1.5,0,0,0,.64.63,2.17,2.17,0,0,0,1,.21,2.42,2.42,0,0,0,1.09-.24,1.43,1.43,0,0,0,.56-.6h1.95a3.19,3.19,0,0,1-1.07,2.09,3.73,3.73,0,0,1-2.54.79,4.15,4.15,0,0,1-1.83-.35,3,3,0,0,1-1.19-1A3.36,3.36,0,0,1,318.46,160.32Z" transform="translate(-12.48 -2.92)"/><path d="M329.8,173.56l1.73,1-2.19,4.33-1.2-.66Z" transform="translate(-12.48 -2.92)"/><path d="M57.49,186.52h2.63a7.63,7.63,0,0,1,3.07.45,3.36,3.36,0,0,1,1.48,1.48,5.15,5.15,0,0,1,.54,2.45,4.52,4.52,0,0,1-.71,2.62A3.68,3.68,0,0,1,62.57,195a10,10,0,0,1-2.6.23v6.39H57.49ZM60,192.41h.78a3.78,3.78,0,0,0,1.29-.15,1.17,1.17,0,0,0,.57-.51,1.66,1.66,0,0,0,.21-.86,1.45,1.45,0,0,0-.58-1.28,3.07,3.07,0,0,0-1.58-.29H60Z" transform="translate(-12.48 -2.92)"/><path d="M74.47,190.44h2.41V201.6H74.47v-1.18a4.8,4.8,0,0,1-1.42,1.12,3.48,3.48,0,0,1-1.54.35,4,4,0,0,1-3.22-1.68A6.39,6.39,0,0,1,66.93,196a6.61,6.61,0,0,1,1.31-4.23,4,4,0,0,1,3.2-1.65,3.45,3.45,0,0,1,1.62.38,4.48,4.48,0,0,1,1.41,1.13Zm-2.54,2.3a2.29,2.29,0,0,0-1.86.92,4.13,4.13,0,0,0,0,4.73,2.36,2.36,0,0,0,3.74,0,3.71,3.71,0,0,0,.75-2.41,3.57,3.57,0,0,0-.75-2.36A2.36,2.36,0,0,0,71.93,192.74Z" transform="translate(-12.48 -2.92)"/><path d="M80.93,196.87v-2h.47a1.43,1.43,0,0,0,.85-.26,1,1,0,0,0,.36-.86,1.14,1.14,0,0,0-.32-.85,1.06,1.06,0,0,0-.79-.33,2.74,2.74,0,0,0-1.49.66l-1-1.92a4,4,0,0,1,2.78-1.15,3.31,3.31,0,0,1,2.32.84,3,3,0,0,1,.93,2.28,2.74,2.74,0,0,1-1.34,2.36,2.79,2.79,0,0,1,1.79,2.78,3.32,3.32,0,0,1-1,2.48,3.8,3.8,0,0,1-2.78,1,4.4,4.4,0,0,1-3.23-1.27l1.33-2a2.61,2.61,0,0,0,1.63.74,1.37,1.37,0,0,0,1-.35,1.13,1.13,0,0,0,.37-.88,1.39,1.39,0,0,0-.34-.92,1.19,1.19,0,0,0-.94-.39Z" transform="translate(-12.48 -2.92)"/><path d="M96.06,201.6H93.6l-2.41-7-2.44,7H86.3l4.1-11.16H92Z" transform="translate(-12.48 -2.92)"/><path d="M98.6,201.6H97.32V190.44h2.35V197l4.92-6.56h1.16V201.6H103.4v-6.42Z" transform="translate(-12.48 -2.92)"/><path d="M107.33,190.44h9v2.67h-3.2v8.49h-2.41v-8.49h-3.35Z" transform="translate(-12.48 -2.92)"/><path d="M120.28,194.46H121a7.76,7.76,0,0,1,2.33.27,2.7,2.7,0,0,1,1.37,1.14,3.89,3.89,0,0,1,.55,2.16,4.15,4.15,0,0,1-.5,2.15,2.48,2.48,0,0,1-1.29,1.14,6.65,6.65,0,0,1-2.19.28h-3.4V190.44h2.42Zm0,5H121a3,3,0,0,0,.95-.11,1.08,1.08,0,0,0,.52-.42,1.42,1.42,0,0,0-1.2-2.18h-1Zm6.64-9h2.41V201.6h-2.41Z" transform="translate(-12.48 -2.92)"/><path d="M133.05,201.6h-1.29V190.44h2.36V197l4.92-6.56h1.16V201.6h-2.36v-6.42Zm-.6-16.08h2a1.5,1.5,0,0,0,.64.63,2.17,2.17,0,0,0,1,.21,2.45,2.45,0,0,0,1.09-.24,1.43,1.43,0,0,0,.56-.6h1.95a3.16,3.16,0,0,1-1.08,2.09,3.69,3.69,0,0,1-2.53.79,4.15,4.15,0,0,1-1.83-.35,3,3,0,0,1-1.19-1A3.36,3.36,0,0,1,132.45,185.52Z" transform="translate(-12.48 -2.92)"/><path d="M150.1,201.6h-2.41V190.44h8.43V201.6h-2.41v-8.46H150.1Z" transform="translate(-12.48 -2.92)"/><path d="M163.07,190.16a4.54,4.54,0,0,1,2.56.79,5.34,5.34,0,0,1,1.87,2.14,6.45,6.45,0,0,1,.67,2.92,6.58,6.58,0,0,1-.67,3,5.28,5.28,0,0,1-1.85,2.15,4.55,4.55,0,0,1-6.1-.93,6.19,6.19,0,0,1-1.46-4.15,6.11,6.11,0,0,1,1.65-4.36A4.49,4.49,0,0,1,163.07,190.16Zm0,2.63a2.31,2.31,0,0,0-1.87.91,3.51,3.51,0,0,0-.75,2.32,3.62,3.62,0,0,0,.74,2.36,2.41,2.41,0,0,0,3.76,0,3.58,3.58,0,0,0,.75-2.35,3.5,3.5,0,0,0-.74-2.33A2.33,2.33,0,0,0,163.11,192.79Z" transform="translate(-12.48 -2.92)"/><path d="M179.72,190.16a4.54,4.54,0,0,1,2.56.79,5.34,5.34,0,0,1,1.87,2.14,6.45,6.45,0,0,1,.67,2.92,6.58,6.58,0,0,1-.67,3,5.35,5.35,0,0,1-1.85,2.15,4.55,4.55,0,0,1-6.1-.93,6.19,6.19,0,0,1-1.46-4.15,6.11,6.11,0,0,1,1.65-4.36A4.49,4.49,0,0,1,179.72,190.16Zm0,2.63a2.31,2.31,0,0,0-1.87.91,3.51,3.51,0,0,0-.75,2.32,3.62,3.62,0,0,0,.74,2.36,2.41,2.41,0,0,0,3.76,0,4,4,0,0,0,0-4.68A2.33,2.33,0,0,0,179.76,192.79Z" transform="translate(-12.48 -2.92)"/><path d="M196,185.9v2.65a17.58,17.58,0,0,1-2,.14,16.79,16.79,0,0,0-2.67.18,3.42,3.42,0,0,0-2.54,2.07,7.39,7.39,0,0,0-.34,2.17c.69-1.93,1.89-2.9,3.58-2.9a4.16,4.16,0,0,1,3.24,1.58,6.05,6.05,0,0,1,1.37,4.09,6.35,6.35,0,0,1-1.47,4.29,4.58,4.58,0,0,1-3.63,1.72,4.44,4.44,0,0,1-3.1-1.25,5.76,5.76,0,0,1-1.72-3,17.34,17.34,0,0,1-.38-3.69,12.79,12.79,0,0,1,.54-4.08,5.62,5.62,0,0,1,1.42-2.37,4.53,4.53,0,0,1,2-1.05,20.17,20.17,0,0,1,3.41-.38C194.74,186,195.5,186,196,185.9ZM194.19,196a3.57,3.57,0,0,0-.73-2.31,2.41,2.41,0,0,0-3.79,0,3.56,3.56,0,0,0-.75,2.31,3.62,3.62,0,0,0,.74,2.36,2.43,2.43,0,0,0,3.76,0A3.53,3.53,0,0,0,194.19,196Z" transform="translate(-12.48 -2.92)"/><path d="M203.11,190.16a4.51,4.51,0,0,1,2.55.79,5.34,5.34,0,0,1,1.87,2.14,6.45,6.45,0,0,1,.67,2.92,6.58,6.58,0,0,1-.67,3,5.33,5.33,0,0,1-1.84,2.15,4.55,4.55,0,0,1-2.58.78,4.49,4.49,0,0,1-3.53-1.71,6.19,6.19,0,0,1-1.46-4.15,6.11,6.11,0,0,1,1.65-4.36A4.5,4.5,0,0,1,203.11,190.16Zm0,2.63a2.31,2.31,0,0,0-1.87.91,3.51,3.51,0,0,0-.75,2.32,3.62,3.62,0,0,0,.74,2.36,2.41,2.41,0,0,0,3.76,0,3.58,3.58,0,0,0,.75-2.35,3.5,3.5,0,0,0-.74-2.33A2.33,2.33,0,0,0,203.14,192.79Z" transform="translate(-12.48 -2.92)"/><path d="M215.4,197.17h-1.94a4.57,4.57,0,0,1-3-.88,3.51,3.51,0,0,1-1.06-2.88v-3h2.41v2.75c0,1,.57,1.47,1.7,1.47h1.91v-4.21h2.41V201.6H215.4Z" transform="translate(-12.48 -2.92)"/><path d="M221.51,201.6h-1.28V190.44h2.35V197l4.92-6.56h1.16V201.6h-2.35v-6.42Z" transform="translate(-12.48 -2.92)"/><path d="M233.5,194.46h3.61v-4h2.41V201.6h-2.41V197H233.5v4.62h-2.41V190.44h2.41Z" transform="translate(-12.48 -2.92)"/><path d="M249.06,190.44h2.41V201.6h-2.41v-1.18a4.8,4.8,0,0,1-1.42,1.12,3.48,3.48,0,0,1-1.54.35,4,4,0,0,1-3.22-1.68,6.39,6.39,0,0,1-1.36-4.17,6.61,6.61,0,0,1,1.31-4.23,4,4,0,0,1,3.2-1.65,3.45,3.45,0,0,1,1.62.38,4.48,4.48,0,0,1,1.41,1.13Zm-2.54,2.3a2.32,2.32,0,0,0-1.86.92,4.1,4.1,0,0,0,0,4.73,2.28,2.28,0,0,0,1.85.93,2.31,2.31,0,0,0,1.88-.91,3.71,3.71,0,0,0,.75-2.41,3.57,3.57,0,0,0-.75-2.36A2.34,2.34,0,0,0,246.52,192.74Z" transform="translate(-12.48 -2.92)"/><path d="M259.79,197.48l2.95-7h1.59l2.41,11.16h-2.36l-1.29-6.55-2.86,6.55h-1l-2.8-6.55-1.29,6.55h-2.36l2.41-11.16h1.59Z" transform="translate(-12.48 -2.92)"/><path d="M274.39,201.6v1.94h-2.15v-4.31h1.45l3.32-8.79h1.56l3.36,8.79h1.48v4.31h-2.3V201.6Zm5-2.37-1.58-4.7-1.63,4.7Z" transform="translate(-12.48 -2.92)"/><path d="M289.44,190.16A4.54,4.54,0,0,1,292,191a5.34,5.34,0,0,1,1.87,2.14,6.45,6.45,0,0,1,.67,2.92,6.59,6.59,0,0,1-.68,3,5.25,5.25,0,0,1-1.84,2.15,4.55,4.55,0,0,1-6.1-.93,6.19,6.19,0,0,1-1.46-4.15,6.11,6.11,0,0,1,1.65-4.36A4.49,4.49,0,0,1,289.44,190.16Zm0,2.63a2.31,2.31,0,0,0-1.87.91,3.51,3.51,0,0,0-.75,2.32,3.62,3.62,0,0,0,.74,2.36,2.41,2.41,0,0,0,3.76,0,4,4,0,0,0,0-4.68A2.33,2.33,0,0,0,289.48,192.79Z" transform="translate(-12.48 -2.92)"/><path d="M298.91,190.44v1.23a4.48,4.48,0,0,1,1.41-1.13,3.52,3.52,0,0,1,1.63-.38,4,4,0,0,1,3.19,1.65,6.56,6.56,0,0,1,1.32,4.23,6.39,6.39,0,0,1-1.36,4.17,4,4,0,0,1-3.22,1.68,3.49,3.49,0,0,1-1.55-.35,4.68,4.68,0,0,1-1.42-1.12v5.26h-2.4V190.44Zm2.53,2.3a2.36,2.36,0,0,0-1.89.9,3.57,3.57,0,0,0-.75,2.36,3.71,3.71,0,0,0,.75,2.41,2.34,2.34,0,0,0,1.89.91,2.3,2.3,0,0,0,1.86-.93,3.67,3.67,0,0,0,.76-2.38,3.58,3.58,0,0,0-.75-2.35A2.3,2.3,0,0,0,301.44,192.74Z" transform="translate(-12.48 -2.92)"/><path d="M313,190.16a4.54,4.54,0,0,1,2.56.79,5.34,5.34,0,0,1,1.87,2.14,6.45,6.45,0,0,1,.67,2.92,6.58,6.58,0,0,1-.67,3,5.28,5.28,0,0,1-1.85,2.15,4.55,4.55,0,0,1-6.1-.93A6.19,6.19,0,0,1,308,196a6.11,6.11,0,0,1,1.65-4.36A4.49,4.49,0,0,1,313,190.16Zm0,2.63a2.31,2.31,0,0,0-1.87.91,3.51,3.51,0,0,0-.75,2.32,3.62,3.62,0,0,0,.74,2.36,2.41,2.41,0,0,0,3.76,0,3.58,3.58,0,0,0,.75-2.35,3.5,3.5,0,0,0-.74-2.33A2.33,2.33,0,0,0,313,192.79Z" transform="translate(-12.48 -2.92)"/><path d="M320,190.44h5.62v2.67h-3.2v8.49H320Z" transform="translate(-12.48 -2.92)"/><path d="M328.55,201.6h-1.28V190.44h2.35V197l4.92-6.56h1.16V201.6h-2.35v-6.42Z" transform="translate(-12.48 -2.92)"/><path d="M339.46,198.68a1.25,1.25,0,0,1,1,.46,1.7,1.7,0,0,1,.41,1.14,1.72,1.72,0,0,1-.41,1.14,1.26,1.26,0,0,1-2,0,1.72,1.72,0,0,1-.41-1.14,1.7,1.7,0,0,1,.41-1.14A1.25,1.25,0,0,1,339.46,198.68Z" transform="translate(-12.48 -2.92)"/><path d="M12.48,211.72H15v5.69h4.33v-5.69h2.51V226.8H19.32v-6.61H15v6.61H12.48Z" transform="translate(-12.48 -2.92)"/><path d="M29,215.36a4.54,4.54,0,0,1,2.56.79,5.34,5.34,0,0,1,1.87,2.14,6.45,6.45,0,0,1,.67,2.92,6.65,6.65,0,0,1-.67,3,5.37,5.37,0,0,1-1.84,2.14,4.55,4.55,0,0,1-2.58.78,4.49,4.49,0,0,1-3.53-1.71,6.19,6.19,0,0,1-1.46-4.15,6.11,6.11,0,0,1,1.65-4.36A4.49,4.49,0,0,1,29,215.36Zm0,2.63a2.31,2.31,0,0,0-1.87.91,3.51,3.51,0,0,0-.75,2.32,3.62,3.62,0,0,0,.74,2.36,2.41,2.41,0,0,0,3.76,0,3.58,3.58,0,0,0,.75-2.35,3.5,3.5,0,0,0-.74-2.33A2.33,2.33,0,0,0,29.08,218Z" transform="translate(-12.48 -2.92)"/><path d="M50.59,217.9l-2,1.28a3.48,3.48,0,0,0-1.12-1,2.92,2.92,0,0,0-1.29-.27,2.76,2.76,0,0,0-2.19.94,3.44,3.44,0,0,0-.84,2.4,3.37,3.37,0,0,0,.8,2.32,2.72,2.72,0,0,0,2.12.9,2.89,2.89,0,0,0,2.52-1.28l1.9,1.51a4.93,4.93,0,0,1-4.36,2.34,4.83,4.83,0,0,1-4-1.75,6.2,6.2,0,0,1-1.44-4.08,6.38,6.38,0,0,1,.7-3,5.24,5.24,0,0,1,2-2.14,5.15,5.15,0,0,1,2.79-.78,5,5,0,0,1,2.57.66A5.19,5.19,0,0,1,50.59,217.9Z" transform="translate(-12.48 -2.92)"/><path d="M57.28,215.36a4.54,4.54,0,0,1,2.56.79,5.34,5.34,0,0,1,1.87,2.14,6.59,6.59,0,0,1,.67,2.92,6.66,6.66,0,0,1-.68,3,5.29,5.29,0,0,1-1.84,2.14,4.54,4.54,0,0,1-2.57.78,4.48,4.48,0,0,1-3.53-1.71,6.57,6.57,0,0,1,.19-8.51A4.46,4.46,0,0,1,57.28,215.36Zm0,2.63a2.3,2.3,0,0,0-1.87.91,3.51,3.51,0,0,0-.75,2.32,3.57,3.57,0,0,0,.74,2.36,2.31,2.31,0,0,0,1.87.9,2.33,2.33,0,0,0,1.88-.91,4,4,0,0,0,0-4.68A2.33,2.33,0,0,0,57.32,218Z" transform="translate(-12.48 -2.92)"/><path d="M72.94,226.8H70.48l-2.4-7-2.45,7H63.18l4.1-11.16h1.56Z" transform="translate(-12.48 -2.92)"/><path d="M76.61,219.66h3.61v-4h2.41V226.8H80.22v-4.63H76.61v4.63H74.2V215.64h2.41Z" transform="translate(-12.48 -2.92)"/><path d="M85.06,226.8V215.64h2.41v8.47h3.61v-8.47h2.41v8.47h2.45v4.65h-2.3v-2Z" transform="translate(-12.48 -2.92)"/><path d="M106.9,222H99.15a3.11,3.11,0,0,0,.89,1.89,2.58,2.58,0,0,0,1.86.71,3,3,0,0,0,2.33-1.1l2,1.11a5.13,5.13,0,0,1-1.82,1.85,5.05,5.05,0,0,1-2.52.6,4.61,4.61,0,0,1-3.68-1.66,6.14,6.14,0,0,1-1.43-4.15A6.41,6.41,0,0,1,98.23,217a4.47,4.47,0,0,1,3.56-1.68,4.6,4.6,0,0,1,3.69,1.68,6.69,6.69,0,0,1,1.43,4.46Zm-2.41-2.2a2.86,2.86,0,0,0-.95-1.52,2.47,2.47,0,0,0-1.63-.58,2.62,2.62,0,0,0-1.77.65,3.73,3.73,0,0,0-.89,1.45Z" transform="translate(-12.48 -2.92)"/><path d="M113.91,226.8V215.64h3.87a3.15,3.15,0,0,1,2.58.87,3.11,3.11,0,0,1,.68,2,2.45,2.45,0,0,1-1.4,2.35,2.83,2.83,0,0,1,1.91,2.86,3.31,3.31,0,0,1-.5,1.88,2.41,2.41,0,0,1-1.28,1,7.25,7.25,0,0,1-2.16.25Zm2.42-6.77h.93a1.21,1.21,0,0,0,.92-.34,1.11,1.11,0,0,0,.32-.77,1.4,1.4,0,0,0-.31-1,1,1,0,0,0-.74-.35h-1.12Zm0,4.62h1.21a1.17,1.17,0,0,0,1-.39,1.27,1.27,0,0,0,.29-.75,1.67,1.67,0,0,0-.33-1,1.33,1.33,0,0,0-1.16-.45h-1Z" transform="translate(-12.48 -2.92)"/><path d="M133,217.9l-2,1.28a3.38,3.38,0,0,0-1.12-1,2.92,2.92,0,0,0-1.29-.27,2.76,2.76,0,0,0-2.19.94,3.44,3.44,0,0,0-.84,2.4,3.33,3.33,0,0,0,.81,2.32,2.69,2.69,0,0,0,2.11.9,2.89,2.89,0,0,0,2.52-1.28l1.9,1.51a4.93,4.93,0,0,1-4.36,2.34,4.83,4.83,0,0,1-4-1.75,6.2,6.2,0,0,1-1.44-4.08,6.38,6.38,0,0,1,.7-3,5.24,5.24,0,0,1,2-2.14,5.15,5.15,0,0,1,2.79-.78,5.05,5.05,0,0,1,2.58.66A5.16,5.16,0,0,1,133,217.9Z" transform="translate(-12.48 -2.92)"/><path d="M134.33,215.64h9v2.67h-3.2v8.49h-2.41v-8.49h-3.35Z" transform="translate(-12.48 -2.92)"/><path d="M152,215.64h2.41V226.8H152v-1.18a4.8,4.8,0,0,1-1.42,1.12,3.48,3.48,0,0,1-1.54.35,4,4,0,0,1-3.22-1.68,6.39,6.39,0,0,1-1.36-4.17,6.61,6.61,0,0,1,1.31-4.23,4,4,0,0,1,3.2-1.65,3.45,3.45,0,0,1,1.62.38,4.48,4.48,0,0,1,1.41,1.13Zm-2.54,2.3a2.29,2.29,0,0,0-1.86.92,3.63,3.63,0,0,0-.74,2.35,3.68,3.68,0,0,0,.75,2.38,2.36,2.36,0,0,0,3.74,0,3.71,3.71,0,0,0,.75-2.41,3.57,3.57,0,0,0-.75-2.36A2.36,2.36,0,0,0,149.43,217.94Z" transform="translate(-12.48 -2.92)"/><path d="M165.41,226.8H163l-2.4-7-2.45,7h-2.45l4.1-11.16h1.55Z" transform="translate(-12.48 -2.92)"/><path d="M171.2,215.36a4.51,4.51,0,0,1,2.55.79,5.34,5.34,0,0,1,1.87,2.14,6.45,6.45,0,0,1,.67,2.92,6.65,6.65,0,0,1-.67,3,5.37,5.37,0,0,1-1.84,2.14,4.56,4.56,0,0,1-6.11-.93,6.19,6.19,0,0,1-1.46-4.15,6.11,6.11,0,0,1,1.65-4.36A4.5,4.5,0,0,1,171.2,215.36Zm0,2.63a2.33,2.33,0,0,0-1.87.91,3.51,3.51,0,0,0-.75,2.32,3.62,3.62,0,0,0,.74,2.36,2.41,2.41,0,0,0,3.76,0,3.58,3.58,0,0,0,.75-2.35,3.5,3.5,0,0,0-.74-2.33A2.33,2.33,0,0,0,171.23,218Z" transform="translate(-12.48 -2.92)"/><path d="M179.42,224l1.73,1L179,229.29l-1.2-.66Z" transform="translate(-12.48 -2.92)"/><path d="M189.64,226.8v1.94h-2.15v-4.31h1.45l3.32-8.79h1.55l3.37,8.79h1.47v4.31h-2.3V226.8Zm5-2.37-1.57-4.7-1.64,4.7Z" transform="translate(-12.48 -2.92)"/><path d="M209.8,222h-7.75a3.12,3.12,0,0,0,.9,1.89,2.58,2.58,0,0,0,1.86.71,3,3,0,0,0,2.32-1.1l2,1.11a5.21,5.21,0,0,1-1.82,1.85,5.05,5.05,0,0,1-2.52.6,4.63,4.63,0,0,1-3.69-1.66,6.13,6.13,0,0,1-1.42-4.15,6.35,6.35,0,0,1,1.42-4.24,4.46,4.46,0,0,1,3.56-1.68,4.61,4.61,0,0,1,3.69,1.68,6.68,6.68,0,0,1,1.42,4.46Zm-2.41-2.2a2.84,2.84,0,0,0-.94-1.52,2.49,2.49,0,0,0-1.64-.58,2.62,2.62,0,0,0-1.77.65,3.85,3.85,0,0,0-.88,1.45Z" transform="translate(-12.48 -2.92)"/><path d="M214.16,219.66h3.61v-4h2.41V226.8h-2.41v-4.63h-3.61v4.63h-2.41V215.64h2.41Z" transform="translate(-12.48 -2.92)"/><path d="M225,219.66h.72a7.69,7.69,0,0,1,2.32.27,2.66,2.66,0,0,1,1.37,1.14,3.89,3.89,0,0,1,.56,2.16,4.15,4.15,0,0,1-.51,2.15,2.46,2.46,0,0,1-1.28,1.14,6.72,6.72,0,0,1-2.2.28h-3.39V215.64H225Zm0,5h.74a3.1,3.1,0,0,0,1-.11,1.11,1.11,0,0,0,.51-.42,1.2,1.2,0,0,0,.22-.74,1.26,1.26,0,0,0-1.42-1.44h-1Z" transform="translate(-12.48 -2.92)"/><path d="M239.3,215.64v1.23a4.71,4.71,0,0,1,1.41-1.13,3.52,3.52,0,0,1,1.63-.38,4,4,0,0,1,3.2,1.65,6.56,6.56,0,0,1,1.32,4.23,6.45,6.45,0,0,1-1.36,4.17,4.06,4.06,0,0,1-3.23,1.68,3.56,3.56,0,0,1-1.55-.35,4.8,4.8,0,0,1-1.42-1.12v5.26h-2.39V215.64Zm2.54,2.3a2.36,2.36,0,0,0-1.89.9,3.57,3.57,0,0,0-.75,2.36,3.71,3.71,0,0,0,.75,2.41,2.37,2.37,0,0,0,3.75,0,3.68,3.68,0,0,0,.75-2.38,3.58,3.58,0,0,0-.74-2.35A2.32,2.32,0,0,0,241.84,217.94Z" transform="translate(-12.48 -2.92)"/><path d="M256,215.64h2.41V226.8H256v-1.18a4.68,4.68,0,0,1-1.42,1.12,3.48,3.48,0,0,1-1.54.35,4,4,0,0,1-3.22-1.68,6.39,6.39,0,0,1-1.36-4.17,6.56,6.56,0,0,1,1.32-4.23,4,4,0,0,1,3.19-1.65,3.52,3.52,0,0,1,1.63.38,4.56,4.56,0,0,1,1.4,1.13Zm-2.54,2.3a2.32,2.32,0,0,0-1.86.92,3.63,3.63,0,0,0-.74,2.35,3.69,3.69,0,0,0,.76,2.38,2.3,2.3,0,0,0,1.85.93,2.34,2.34,0,0,0,1.89-.91,3.71,3.71,0,0,0,.74-2.41,3.57,3.57,0,0,0-.74-2.36A2.36,2.36,0,0,0,253.41,217.94Z" transform="translate(-12.48 -2.92)"/><path d="M270.21,217.9l-2,1.28a3.38,3.38,0,0,0-1.12-1,2.89,2.89,0,0,0-1.29-.27,2.79,2.79,0,0,0-2.19.94,3.44,3.44,0,0,0-.84,2.4,3.33,3.33,0,0,0,.81,2.32,2.69,2.69,0,0,0,2.11.9,2.89,2.89,0,0,0,2.52-1.28l1.91,1.51a5,5,0,0,1-4.37,2.34,4.85,4.85,0,0,1-4-1.75,6.2,6.2,0,0,1-1.44-4.08,6.38,6.38,0,0,1,.7-3,5.31,5.31,0,0,1,2-2.14,5.16,5.16,0,0,1,2.8-.78,5,5,0,0,1,2.57.66A5.16,5.16,0,0,1,270.21,217.9Z" transform="translate(-12.48 -2.92)"/><path d="M274.79,226.8h-2.41V215.64h8.43V226.8h-2.42v-8.46h-3.6Z" transform="translate(-12.48 -2.92)"/><path d="M285.64,215.64v1.23a4.71,4.71,0,0,1,1.41-1.13,3.52,3.52,0,0,1,1.63-.38,4,4,0,0,1,3.2,1.65,6.56,6.56,0,0,1,1.32,4.23,6.45,6.45,0,0,1-1.36,4.17,4.06,4.06,0,0,1-3.23,1.68,3.56,3.56,0,0,1-1.55-.35,4.8,4.8,0,0,1-1.42-1.12v5.26h-2.39V215.64Zm2.54,2.3a2.36,2.36,0,0,0-1.89.9,3.57,3.57,0,0,0-.75,2.36,3.71,3.71,0,0,0,.75,2.41,2.37,2.37,0,0,0,3.75,0,3.68,3.68,0,0,0,.75-2.38,3.63,3.63,0,0,0-.74-2.35A2.31,2.31,0,0,0,288.18,217.94Z" transform="translate(-12.48 -2.92)"/><path d="M302.29,215.64h2.41V226.8h-2.41v-1.18a4.68,4.68,0,0,1-1.42,1.12,3.45,3.45,0,0,1-1.54.35,4,4,0,0,1-3.22-1.68,6.45,6.45,0,0,1-1.36-4.17,6.56,6.56,0,0,1,1.32-4.23,4,4,0,0,1,3.19-1.65,3.52,3.52,0,0,1,1.63.38,4.56,4.56,0,0,1,1.4,1.13Zm-2.54,2.3a2.29,2.29,0,0,0-1.85.92,3.58,3.58,0,0,0-.74,2.35,3.68,3.68,0,0,0,.75,2.38,2.3,2.3,0,0,0,1.85.93,2.34,2.34,0,0,0,1.89-.91,3.71,3.71,0,0,0,.75-2.41,3.57,3.57,0,0,0-.75-2.36A2.36,2.36,0,0,0,299.75,217.94Z" transform="translate(-12.48 -2.92)"/><path d="M307.14,226.8V215.64H311a3.12,3.12,0,0,1,2.58.87,3.06,3.06,0,0,1,.68,2,2.44,2.44,0,0,1-1.39,2.35,2.83,2.83,0,0,1,1.91,2.86,3.23,3.23,0,0,1-.51,1.88,2.35,2.35,0,0,1-1.27,1,7.28,7.28,0,0,1-2.17.25Zm2.41-6.77h.94a1.18,1.18,0,0,0,.91-.34,1.08,1.08,0,0,0,.33-.77,1.45,1.45,0,0,0-.31-1,1,1,0,0,0-.74-.35h-1.13Zm0,4.62h1.22a1.18,1.18,0,0,0,1-.39,1.25,1.25,0,0,0,.28-.75,1.66,1.66,0,0,0-.32-1,1.34,1.34,0,0,0-1.17-.45h-1Z" transform="translate(-12.48 -2.92)"/><path d="M318.1,226.8h-1.28V215.64h2.35v6.56l4.92-6.56h1.16V226.8H322.9v-6.42Z" transform="translate(-12.48 -2.92)"/><path d="M336.28,226.8h-2.46l-2.4-7-2.45,7h-2.45l4.1-11.16h1.55Z" transform="translate(-12.48 -2.92)"/><path d="M345,219.66h3.6v-4H351V226.8h-2.41v-4.63H345v4.63H342.6V215.64H345Z" transform="translate(-12.48 -2.92)"/><path d="M358,215.36a4.54,4.54,0,0,1,2.56.79,5.34,5.34,0,0,1,1.87,2.14,6.59,6.59,0,0,1,.67,2.92,6.66,6.66,0,0,1-.68,3,5.29,5.29,0,0,1-1.84,2.14,4.54,4.54,0,0,1-2.57.78,4.48,4.48,0,0,1-3.53-1.71,6.14,6.14,0,0,1-1.47-4.15,6.08,6.08,0,0,1,1.66-4.36A4.46,4.46,0,0,1,358,215.36Zm0,2.63a2.3,2.3,0,0,0-1.87.91,3.51,3.51,0,0,0-.75,2.32,3.57,3.57,0,0,0,.74,2.36,2.39,2.39,0,0,0,3.75,0,4,4,0,0,0,0-4.68A2.34,2.34,0,0,0,358,218Z" transform="translate(-12.48 -2.92)"/><path d="M365.05,215.64h5.61v2.67h-3.2v8.49h-2.41Z" transform="translate(-12.48 -2.92)"/><path d="M373.57,226.8h-1.28V215.64h2.35v6.56l4.92-6.56h1.16V226.8h-2.35v-6.42Z" transform="translate(-12.48 -2.92)"/><path d="M384.31,224l1.73,1-2.19,4.33-1.2-.66Z" transform="translate(-12.48 -2.92)"/><path d="M46.71,249.42v-12.5h2.5v12.5h3.53v-12.5h2.51V252H40.73V236.92h2.51v12.5Z" transform="translate(-12.48 -2.92)"/><path d="M65,240.84h2.42V252H65v-1.18a4.78,4.78,0,0,1-1.41,1.12,3.51,3.51,0,0,1-1.54.35,4,4,0,0,1-3.23-1.68,6.44,6.44,0,0,1-1.35-4.17,6.56,6.56,0,0,1,1.31-4.23,4,4,0,0,1,3.2-1.65,3.51,3.51,0,0,1,1.62.38,4.45,4.45,0,0,1,1.4,1.13Zm-2.53,2.3a2.29,2.29,0,0,0-1.86.92,4.13,4.13,0,0,0,0,4.73,2.3,2.3,0,0,0,1.86.93,2.33,2.33,0,0,0,1.88-.91,3.71,3.71,0,0,0,.75-2.41,3.57,3.57,0,0,0-.75-2.36A2.36,2.36,0,0,0,62.5,243.14Z" transform="translate(-12.48 -2.92)"/><path d="M69.88,240.84h5.61v2.67h-3.2V252H69.88Z" transform="translate(-12.48 -2.92)"/><path d="M79.53,244.86h3.6v-4h2.41V252H83.13v-4.62h-3.6V252H77.11V240.84h2.42Z" transform="translate(-12.48 -2.92)"/><path d="M86.92,240.84h2.46l2.5,7,2.75-7h2.48l-6,15.24H88.59l2-4.91Z" transform="translate(-12.48 -2.92)"/><path d="M107.07,252h-2.45l-2.41-7-2.45,7H97.31l4.1-11.16H103Z" transform="translate(-12.48 -2.92)"/><path d="M115.81,244.86h3.61v-4h2.41V252h-2.41v-4.62h-3.61V252H113.4V240.84h2.41Z" transform="translate(-12.48 -2.92)"/><path d="M131.36,240.84h2.41V252h-2.41v-1.18a4.78,4.78,0,0,1-1.41,1.12,3.51,3.51,0,0,1-1.54.35,4,4,0,0,1-3.23-1.68,6.45,6.45,0,0,1-1.36-4.17,6.56,6.56,0,0,1,1.32-4.23,4,4,0,0,1,3.19-1.65,3.52,3.52,0,0,1,1.63.38,4.56,4.56,0,0,1,1.4,1.13Zm-2.53,2.3a2.29,2.29,0,0,0-1.86.92,3.59,3.59,0,0,0-.74,2.35,3.66,3.66,0,0,0,.75,2.38,2.3,2.3,0,0,0,1.85.93,2.34,2.34,0,0,0,1.89-.91,3.71,3.71,0,0,0,.75-2.41,3.57,3.57,0,0,0-.75-2.36A2.36,2.36,0,0,0,128.83,243.14Z" transform="translate(-12.48 -2.92)"/><path d="M142.89,247.27v-2h.47a1.43,1.43,0,0,0,.85-.26,1,1,0,0,0,.36-.86,1.14,1.14,0,0,0-.32-.85,1.06,1.06,0,0,0-.79-.33,2.74,2.74,0,0,0-1.49.66l-.95-1.92a4,4,0,0,1,2.77-1.15,3.32,3.32,0,0,1,2.33.84,3,3,0,0,1,.93,2.28,2.73,2.73,0,0,1-1.34,2.36,2.78,2.78,0,0,1,1.79,2.78,3.32,3.32,0,0,1-1,2.48,3.8,3.8,0,0,1-2.78,1,4.4,4.4,0,0,1-3.23-1.27l1.33-2a2.61,2.61,0,0,0,1.63.74,1.37,1.37,0,0,0,1-.35,1.13,1.13,0,0,0,.37-.88,1.39,1.39,0,0,0-.34-.92,1.19,1.19,0,0,0-.94-.39Z" transform="translate(-12.48 -2.92)"/><path d="M159.06,247.23h-7.75a3.11,3.11,0,0,0,.89,1.89,2.58,2.58,0,0,0,1.86.71,3,3,0,0,0,2.33-1.1l2,1.11a5.13,5.13,0,0,1-1.82,1.85,5.05,5.05,0,0,1-2.52.6,4.61,4.61,0,0,1-3.68-1.66,6.14,6.14,0,0,1-1.43-4.15,6.41,6.41,0,0,1,1.42-4.24,4.47,4.47,0,0,1,3.56-1.68,4.61,4.61,0,0,1,3.69,1.68,6.69,6.69,0,0,1,1.43,4.46Zm-2.41-2.2a2.86,2.86,0,0,0-1-1.52,2.47,2.47,0,0,0-1.63-.58,2.62,2.62,0,0,0-1.77.65,3.73,3.73,0,0,0-.89,1.45Z" transform="translate(-12.48 -2.92)"/><path d="M166.89,247.88l3-7h1.59L173.84,252h-2.36l-1.28-6.55L167.33,252h-1l-2.8-6.55L162.25,252H159.9l2.4-11.16h1.6Z" transform="translate(-12.48 -2.92)"/><path d="M183.78,252h-2.46l-2.41-7-2.45,7H174l4.1-11.16h1.55Z" transform="translate(-12.48 -2.92)"/><path d="M187.45,252H185V240.84h2.41v4.42h1.28a6.07,6.07,0,0,1,1.85-3.46,4.53,4.53,0,0,1,3-1.24,4.65,4.65,0,0,1,3.61,1.69,6.1,6.1,0,0,1,1.49,4.16,6.26,6.26,0,0,1-1.45,4.14,4.59,4.59,0,0,1-6.78.46,5.8,5.8,0,0,1-1.77-3.18h-1.28Zm8.85-5.58a3.56,3.56,0,0,0-.74-2.33,2.36,2.36,0,0,0-1.9-.9,2.28,2.28,0,0,0-1.87.93,3.52,3.52,0,0,0-.74,2.29,3.58,3.58,0,0,0,.74,2.37,2.33,2.33,0,0,0,1.87.89,2.37,2.37,0,0,0,1.87-.89A3.53,3.53,0,0,0,196.3,246.42Z" transform="translate(-12.48 -2.92)"/><path d="M215.17,243.1l-2,1.28a3.38,3.38,0,0,0-1.12-.95,2.89,2.89,0,0,0-1.29-.27,2.79,2.79,0,0,0-2.19.94,3.44,3.44,0,0,0-.84,2.4,3.33,3.33,0,0,0,.81,2.32,2.69,2.69,0,0,0,2.11.9,2.89,2.89,0,0,0,2.52-1.28l1.91,1.51a5,5,0,0,1-4.37,2.34,4.85,4.85,0,0,1-4-1.75,6.2,6.2,0,0,1-1.44-4.08,6.38,6.38,0,0,1,.7-3,5.31,5.31,0,0,1,1.95-2.14,5.16,5.16,0,0,1,2.8-.78,5,5,0,0,1,2.57.66A5.16,5.16,0,0,1,215.17,243.1Z" transform="translate(-12.48 -2.92)"/><path d="M217.35,252V240.84h3.86a3.15,3.15,0,0,1,2.58.87,3.11,3.11,0,0,1,.68,2,2.45,2.45,0,0,1-1.4,2.35,2.83,2.83,0,0,1,1.91,2.86,3.31,3.31,0,0,1-.5,1.88,2.41,2.41,0,0,1-1.28,1A7.25,7.25,0,0,1,221,252Zm2.41-6.77h.93a1.2,1.2,0,0,0,.92-.34,1.1,1.1,0,0,0,.32-.76,1.41,1.41,0,0,0-.31-1,1,1,0,0,0-.74-.35h-1.12Zm0,4.62H221a1.16,1.16,0,0,0,1-.39,1.24,1.24,0,0,0,.29-.75,1.72,1.72,0,0,0-.32-1,1.36,1.36,0,0,0-1.17-.45h-1Z" transform="translate(-12.48 -2.92)"/><path d="M236.66,247.23h-7.75a3.07,3.07,0,0,0,.9,1.89,2.58,2.58,0,0,0,1.86.71,3,3,0,0,0,2.32-1.1l2,1.11a5.21,5.21,0,0,1-1.82,1.85,5.05,5.05,0,0,1-2.52.6,4.63,4.63,0,0,1-3.69-1.66,6.13,6.13,0,0,1-1.42-4.15,6.35,6.35,0,0,1,1.42-4.24,4.45,4.45,0,0,1,3.55-1.68,4.62,4.62,0,0,1,3.7,1.68,6.68,6.68,0,0,1,1.42,4.46Zm-2.41-2.2a2.84,2.84,0,0,0-.94-1.52,2.49,2.49,0,0,0-1.64-.58,2.62,2.62,0,0,0-1.77.65A3.85,3.85,0,0,0,229,245Z" transform="translate(-12.48 -2.92)"/><path d="M237.76,240.84h9v2.67h-3.2V252h-2.41v-8.49h-3.35Z" transform="translate(-12.48 -2.92)"/><path d="M256.89,252h-2.45L252,245l-2.45,7h-2.45l4.1-11.16h1.56Z" transform="translate(-12.48 -2.92)"/><path d="M262.68,240.56a4.54,4.54,0,0,1,2.56.79,5.34,5.34,0,0,1,1.87,2.14,6.59,6.59,0,0,1,.67,2.92,6.66,6.66,0,0,1-.68,3,5.29,5.29,0,0,1-1.84,2.14,4.54,4.54,0,0,1-2.57.78,4.48,4.48,0,0,1-3.53-1.71,6.57,6.57,0,0,1,.19-8.51A4.46,4.46,0,0,1,262.68,240.56Zm0,2.63a2.3,2.3,0,0,0-1.87.91,3.51,3.51,0,0,0-.75,2.32,3.57,3.57,0,0,0,.74,2.36,2.31,2.31,0,0,0,1.87.9,2.33,2.33,0,0,0,1.88-.91,4,4,0,0,0,0-4.68A2.33,2.33,0,0,0,262.72,243.19Z" transform="translate(-12.48 -2.92)"/><path d="M272.15,252h-2.41V240.84h2.41v4.42h1.28a6.08,6.08,0,0,1,1.86-3.46,4.5,4.5,0,0,1,3-1.24,4.65,4.65,0,0,1,3.61,1.69,6.1,6.1,0,0,1,1.49,4.16,6.26,6.26,0,0,1-1.45,4.14,4.58,4.58,0,0,1-6.77.46,5.75,5.75,0,0,1-1.78-3.18h-1.28Zm8.85-5.58a3.56,3.56,0,0,0-.74-2.33,2.35,2.35,0,0,0-1.9-.9,2.28,2.28,0,0,0-1.87.93,3.52,3.52,0,0,0-.74,2.29,3.58,3.58,0,0,0,.74,2.37,2.33,2.33,0,0,0,1.87.89,2.4,2.4,0,0,0,1.88-.89A3.58,3.58,0,0,0,281,246.42Z" transform="translate(-12.48 -2.92)"/><path d="M290.46,252V240.84h3.86a3.12,3.12,0,0,1,2.58.87,3.06,3.06,0,0,1,.68,2,2.44,2.44,0,0,1-1.39,2.35,2.83,2.83,0,0,1,1.91,2.86,3.23,3.23,0,0,1-.51,1.88,2.35,2.35,0,0,1-1.27,1,7.25,7.25,0,0,1-2.16.25Zm2.41-6.77h.94a1.18,1.18,0,0,0,.91-.34,1.07,1.07,0,0,0,.33-.76,1.46,1.46,0,0,0-.31-1,1,1,0,0,0-.74-.35h-1.13Zm0,4.62h1.22a1.18,1.18,0,0,0,1-.39,1.24,1.24,0,0,0,.29-.75,1.67,1.67,0,0,0-.33-1,1.34,1.34,0,0,0-1.17-.45h-1Z" transform="translate(-12.48 -2.92)"/><path d="M304.66,240.56a4.54,4.54,0,0,1,2.56.79,5.34,5.34,0,0,1,1.87,2.14,6.45,6.45,0,0,1,.67,2.92,6.65,6.65,0,0,1-.67,3,5.39,5.39,0,0,1-1.85,2.14,4.55,4.55,0,0,1-6.1-.93,6.19,6.19,0,0,1-1.46-4.15,6.11,6.11,0,0,1,1.65-4.36A4.49,4.49,0,0,1,304.66,240.56Zm0,2.63a2.31,2.31,0,0,0-1.87.91,3.51,3.51,0,0,0-.75,2.32,3.62,3.62,0,0,0,.74,2.36,2.41,2.41,0,0,0,3.76,0,4,4,0,0,0,0-4.68A2.33,2.33,0,0,0,304.7,243.19Z" transform="translate(-12.48 -2.92)"/><path d="M320.32,252h-2.45l-2.41-7L313,252h-2.45l4.1-11.16h1.56Z" transform="translate(-12.48 -2.92)"/><path d="M324,244.86h3.6v-4H330V252H327.6v-4.62H324V252h-2.42V240.84H324Z" transform="translate(-12.48 -2.92)"/><path d="M337,240.56a4.54,4.54,0,0,1,2.56.79,5.34,5.34,0,0,1,1.87,2.14,6.59,6.59,0,0,1,.67,2.92,6.66,6.66,0,0,1-.68,3,5.29,5.29,0,0,1-1.84,2.14,4.55,4.55,0,0,1-6.1-.93,6.61,6.61,0,0,1,.19-8.51A4.46,4.46,0,0,1,337,240.56Zm0,2.63a2.31,2.31,0,0,0-1.87.91,3.51,3.51,0,0,0-.75,2.32,3.62,3.62,0,0,0,.74,2.36,2.32,2.32,0,0,0,1.87.9,2.35,2.35,0,0,0,1.89-.91,4,4,0,0,0,0-4.68A2.33,2.33,0,0,0,337,243.19Z" transform="translate(-12.48 -2.92)"/><path d="M345.31,252H344V240.84h2.35v6.56l4.92-6.56h1.16V252h-2.35v-6.42Zm-.6-16.08h2a1.55,1.55,0,0,0,.64.63,2.22,2.22,0,0,0,1,.21,2.38,2.38,0,0,0,1.08-.24,1.37,1.37,0,0,0,.56-.6h1.95a3.19,3.19,0,0,1-1.07,2.09,3.71,3.71,0,0,1-2.53.79,4.23,4.23,0,0,1-1.84-.35,3,3,0,0,1-1.18-1A3.49,3.49,0,0,1,344.71,235.92Z" transform="translate(-12.48 -2.92)"/><path d="M356.06,249.16l1.72,1-2.18,4.33-1.2-.66Z" transform="translate(-12.48 -2.92)"/><path d="M25.43,270.5l-.34-.43-3.66,7.13H18.49l4.81-8.73-4.37-6.35h3l3.52,5.4v-5.4h2.51v5.39l3.52-5.39h3l-4.37,6.36,4.8,8.72H32l-3.67-7.13-.34.43v6.7H25.43Z" transform="translate(-12.48 -2.92)"/><path d="M37.64,277.2H36.36V266h2.35v6.56L43.63,266h1.16V277.2H42.44v-6.42Z" transform="translate(-12.48 -2.92)"/><path d="M47.23,277.2V266h3.86a3.12,3.12,0,0,1,2.58.87,3.06,3.06,0,0,1,.68,2A2.44,2.44,0,0,1,53,271.22a2.83,2.83,0,0,1,1.91,2.86,3.23,3.23,0,0,1-.51,1.88,2.35,2.35,0,0,1-1.27,1,7.28,7.28,0,0,1-2.17.25Zm2.41-6.77h.94a1.18,1.18,0,0,0,.91-.34,1.07,1.07,0,0,0,.33-.76,1.46,1.46,0,0,0-.31-1,1,1,0,0,0-.74-.35H49.64Zm0,4.62h1.22a1.18,1.18,0,0,0,1-.39,1.23,1.23,0,0,0,.28-.75,1.66,1.66,0,0,0-.32-1,1.35,1.35,0,0,0-1.17-.45h-1Z" transform="translate(-12.48 -2.92)"/><path d="M61.43,265.76a4.54,4.54,0,0,1,2.56.79,5.34,5.34,0,0,1,1.87,2.14,6.74,6.74,0,0,1,0,5.88A5.29,5.29,0,0,1,64,276.71a4.55,4.55,0,0,1-6.1-.93,6.19,6.19,0,0,1-1.46-4.15,6.11,6.11,0,0,1,1.65-4.36A4.49,4.49,0,0,1,61.43,265.76Zm0,2.63a2.31,2.31,0,0,0-1.87.91,3.51,3.51,0,0,0-.75,2.32,3.62,3.62,0,0,0,.74,2.36,2.41,2.41,0,0,0,3.76,0,4,4,0,0,0,0-4.68A2.33,2.33,0,0,0,61.47,268.39Z" transform="translate(-12.48 -2.92)"/><path d="M78.13,272.43H70.38a3.12,3.12,0,0,0,.9,1.89,2.58,2.58,0,0,0,1.86.71,3,3,0,0,0,2.33-1.1l2,1.11a5.21,5.21,0,0,1-1.82,1.85,5.05,5.05,0,0,1-2.52.6,4.63,4.63,0,0,1-3.69-1.66,6.18,6.18,0,0,1-1.42-4.15,6.35,6.35,0,0,1,1.42-4.24A4.47,4.47,0,0,1,73,265.76a4.61,4.61,0,0,1,3.69,1.68,6.68,6.68,0,0,1,1.42,4.46Zm-2.41-2.2a2.84,2.84,0,0,0-.94-1.52,2.47,2.47,0,0,0-1.63-.58,2.58,2.58,0,0,0-1.77.65,3.73,3.73,0,0,0-.89,1.45Z" transform="translate(-12.48 -2.92)"/><path d="M85.15,277.2V266H89a3.12,3.12,0,0,1,2.58.87,3.06,3.06,0,0,1,.68,2,2.44,2.44,0,0,1-1.39,2.35,2.83,2.83,0,0,1,1.91,2.86,3.23,3.23,0,0,1-.51,1.88A2.34,2.34,0,0,1,91,277a7.16,7.16,0,0,1-2.16.25Zm2.41-6.77h.93a1.19,1.19,0,0,0,.92-.34,1.07,1.07,0,0,0,.33-.76,1.46,1.46,0,0,0-.31-1,1,1,0,0,0-.74-.35H87.56Zm0,4.62h1.22a1.18,1.18,0,0,0,1-.39,1.23,1.23,0,0,0,.28-.75,1.66,1.66,0,0,0-.32-1,1.35,1.35,0,0,0-1.17-.45h-1Z" transform="translate(-12.48 -2.92)"/><path d="M104.25,268.3l-2,1.28a3.48,3.48,0,0,0-1.12-.95,2.93,2.93,0,0,0-1.3-.27,2.79,2.79,0,0,0-2.19.94,3.48,3.48,0,0,0-.83,2.4,3.37,3.37,0,0,0,.8,2.32,2.71,2.71,0,0,0,2.12.9,2.89,2.89,0,0,0,2.52-1.28l1.9,1.51a4.94,4.94,0,0,1-4.37,2.34,4.85,4.85,0,0,1-4-1.75,6.25,6.25,0,0,1-1.43-4.08,6.5,6.5,0,0,1,.69-3,5.38,5.38,0,0,1,2-2.14,5.21,5.21,0,0,1,2.8-.78,5,5,0,0,1,2.57.66A5.26,5.26,0,0,1,104.25,268.3Z" transform="translate(-12.48 -2.92)"/><path d="M116.05,272.43H108.3a3.07,3.07,0,0,0,.9,1.89,2.58,2.58,0,0,0,1.86.71,3,3,0,0,0,2.32-1.1l2,1.11a5.21,5.21,0,0,1-1.82,1.85,5.05,5.05,0,0,1-2.52.6,4.63,4.63,0,0,1-3.69-1.66,6.13,6.13,0,0,1-1.42-4.15,6.35,6.35,0,0,1,1.42-4.24,4.46,4.46,0,0,1,3.56-1.68,4.61,4.61,0,0,1,3.69,1.68,6.68,6.68,0,0,1,1.42,4.46Zm-7-11.36a1.15,1.15,0,0,1,.91.43,1.57,1.57,0,0,1,.37,1,1.56,1.56,0,0,1-.37,1,1.16,1.16,0,0,1-1.8,0,1.51,1.51,0,0,1-.37-1,1.52,1.52,0,0,1,.37-1A1.14,1.14,0,0,1,109.05,261.07Zm4.59,9.16a2.84,2.84,0,0,0-.94-1.52,2.49,2.49,0,0,0-1.64-.58,2.62,2.62,0,0,0-1.77.65,3.85,3.85,0,0,0-.88,1.45Zm-.67-9.16a1.14,1.14,0,0,1,.9.43,1.52,1.52,0,0,1,.37,1,1.51,1.51,0,0,1-.37,1,1.14,1.14,0,0,1-.9.43,1.11,1.11,0,0,1-.89-.43,1.51,1.51,0,0,1-.37-1,1.52,1.52,0,0,1,.37-1A1.11,1.11,0,0,1,113,261.07Z" transform="translate(-12.48 -2.92)"/><path d="M127.58,265.76a4.54,4.54,0,0,1,2.56.79,5.34,5.34,0,0,1,1.87,2.14,6.45,6.45,0,0,1,.67,2.92,6.62,6.62,0,0,1-.67,3,5.37,5.37,0,0,1-1.84,2.14,4.55,4.55,0,0,1-2.58.78,4.49,4.49,0,0,1-3.53-1.71,6.19,6.19,0,0,1-1.46-4.15,6.11,6.11,0,0,1,1.65-4.36A4.49,4.49,0,0,1,127.58,265.76Zm0,2.63a2.33,2.33,0,0,0-1.87.91,3.51,3.51,0,0,0-.75,2.32,3.62,3.62,0,0,0,.74,2.36,2.41,2.41,0,0,0,3.76,0,3.58,3.58,0,0,0,.75-2.35,3.52,3.52,0,0,0-.74-2.33A2.33,2.33,0,0,0,127.62,268.39Z" transform="translate(-12.48 -2.92)"/><path d="M143.85,261.5v2.65a17.58,17.58,0,0,1-2,.14,16.54,16.54,0,0,0-2.66.18,3.3,3.3,0,0,0-1.58.74,3.27,3.27,0,0,0-1,1.33,7.68,7.68,0,0,0-.34,2.17c.7-1.93,1.89-2.9,3.59-2.9a4.16,4.16,0,0,1,3.23,1.58,6.05,6.05,0,0,1,1.37,4.09,6.35,6.35,0,0,1-1.47,4.29,4.56,4.56,0,0,1-3.62,1.72,4.4,4.4,0,0,1-3.1-1.25,5.63,5.63,0,0,1-1.72-3,16.72,16.72,0,0,1-.38-3.69,12.79,12.79,0,0,1,.54-4.08,5.52,5.52,0,0,1,1.42-2.37,4.45,4.45,0,0,1,2-1.05,20.3,20.3,0,0,1,3.41-.38C142.6,261.63,143.36,261.57,143.85,261.5Zm-1.8,10.12a3.62,3.62,0,0,0-.72-2.31,2.41,2.41,0,0,0-3.8,0,3.51,3.51,0,0,0-.75,2.3,3.57,3.57,0,0,0,.75,2.36,2.34,2.34,0,0,0,1.87.89,2.41,2.41,0,0,0,1.89-.89A3.52,3.52,0,0,0,142.05,271.62Z" transform="translate(-12.48 -2.92)"/><path d="M148.85,270.06h3.61v-4h2.41V277.2h-2.41v-4.62h-3.61v4.62h-2.41V266h2.41Z" transform="translate(-12.48 -2.92)"/><path d="M159,272.62a2.54,2.54,0,0,1-1.28-1.12,3.55,3.55,0,0,1-.5-1.86,3.83,3.83,0,0,1,.61-2.17,2.65,2.65,0,0,1,1.45-1.18,10.5,10.5,0,0,1,2.64-.25h2.44V277.2H161.9v-4h-.47l-2.3,4h-2.85Zm3-1.56v-2.68h-.84a1.2,1.2,0,0,0-1.38,1.33c0,.9.51,1.35,1.54,1.35Z" transform="translate(-12.48 -2.92)"/><path d="M166.74,277.2V266h3.86a3.12,3.12,0,0,1,2.58.87,3.06,3.06,0,0,1,.68,2,2.44,2.44,0,0,1-1.39,2.35,2.83,2.83,0,0,1,1.91,2.86,3.23,3.23,0,0,1-.51,1.88,2.35,2.35,0,0,1-1.27,1,7.28,7.28,0,0,1-2.17.25Zm2.41-6.77h.93a1.19,1.19,0,0,0,.92-.34,1.07,1.07,0,0,0,.33-.76,1.46,1.46,0,0,0-.31-1,1,1,0,0,0-.74-.35h-1.13Zm0,4.62h1.22a1.18,1.18,0,0,0,1-.39,1.23,1.23,0,0,0,.28-.75,1.66,1.66,0,0,0-.32-1,1.35,1.35,0,0,0-1.17-.45h-1Z" transform="translate(-12.48 -2.92)"/><path d="M181.75,277.2V262.12h6.79v2.8h-4.32v2.89h.54a7.3,7.3,0,0,1,2.69.42,3.63,3.63,0,0,1,1.73,1.58,5.24,5.24,0,0,1,.7,2.76,5.12,5.12,0,0,1-.53,2.51,4.12,4.12,0,0,1-1.43,1.53,4.66,4.66,0,0,1-2.53.59Zm2.47-6.83v4.09h.62A3,3,0,0,0,187,274a2,2,0,0,0,.45-1.38c0-1.47-.9-2.2-2.71-2.2Z" transform="translate(-12.48 -2.92)"/><path d="M196.3,265.76a4.54,4.54,0,0,1,2.56.79,5.34,5.34,0,0,1,1.87,2.14,6.45,6.45,0,0,1,.67,2.92,6.63,6.63,0,0,1-.68,3,5.29,5.29,0,0,1-1.84,2.14,4.55,4.55,0,0,1-6.1-.93,6.61,6.61,0,0,1,.19-8.51A4.49,4.49,0,0,1,196.3,265.76Zm0,2.63a2.31,2.31,0,0,0-1.87.91,3.51,3.51,0,0,0-.75,2.32,3.62,3.62,0,0,0,.74,2.36,2.41,2.41,0,0,0,3.76,0,4,4,0,0,0,0-4.68A2.33,2.33,0,0,0,196.34,268.39Z" transform="translate(-12.48 -2.92)"/><path d="M208.24,273.61l-.26-.34-2.86,3.93h-3.2l4.34-5.73L202,266h2.95l3.32,4.18V266h2.41v4.18L214,266h3l-4.28,5.44L217,277.2h-3.2l-2.86-3.94-.26.35v3.59h-2.41Z" transform="translate(-12.48 -2.92)"/><path d="M227.59,272.43h-7.75a3.07,3.07,0,0,0,.9,1.89,2.55,2.55,0,0,0,1.86.71,3,3,0,0,0,2.32-1.1l2,1.11a5.15,5.15,0,0,1-1.83,1.85,5,5,0,0,1-2.51.6,4.63,4.63,0,0,1-3.69-1.66,6.13,6.13,0,0,1-1.42-4.15,6.35,6.35,0,0,1,1.42-4.24,4.45,4.45,0,0,1,3.55-1.68,4.62,4.62,0,0,1,3.7,1.68,6.68,6.68,0,0,1,1.42,4.46Zm-2.41-2.2a2.84,2.84,0,0,0-.94-1.52,2.49,2.49,0,0,0-1.64-.58,2.62,2.62,0,0,0-1.77.65,3.73,3.73,0,0,0-.88,1.45Z" transform="translate(-12.48 -2.92)"/><path d="M239,268.3l-2,1.28a3.48,3.48,0,0,0-1.12-.95,2.93,2.93,0,0,0-1.3-.27,2.79,2.79,0,0,0-2.19.94,3.48,3.48,0,0,0-.83,2.4,3.37,3.37,0,0,0,.8,2.32,2.71,2.71,0,0,0,2.12.9,2.89,2.89,0,0,0,2.52-1.28l1.9,1.51a4.94,4.94,0,0,1-4.37,2.34,4.85,4.85,0,0,1-4-1.75,6.19,6.19,0,0,1-1.43-4.08,6.5,6.5,0,0,1,.69-3,5.38,5.38,0,0,1,1.95-2.14,5.21,5.21,0,0,1,2.8-.78,5,5,0,0,1,2.57.66A5.26,5.26,0,0,1,239,268.3Z" transform="translate(-12.48 -2.92)"/><path d="M240.27,266h9v2.67H246v8.49h-2.41v-8.49h-3.35Z" transform="translate(-12.48 -2.92)"/><path d="M250.82,277.2V266h3.86a3.15,3.15,0,0,1,2.58.87,3.11,3.11,0,0,1,.68,2,2.45,2.45,0,0,1-1.4,2.35,2.83,2.83,0,0,1,1.91,2.86A3.31,3.31,0,0,1,258,276a2.37,2.37,0,0,1-1.28,1,7.25,7.25,0,0,1-2.16.25Zm2.41-6.77h.93a1.2,1.2,0,0,0,.92-.34,1.1,1.1,0,0,0,.32-.76,1.41,1.41,0,0,0-.31-1,1,1,0,0,0-.74-.35h-1.12Zm0,4.62h1.21a1.16,1.16,0,0,0,1-.39,1.24,1.24,0,0,0,.29-.75,1.67,1.67,0,0,0-.33-1,1.33,1.33,0,0,0-1.16-.45h-1Z" transform="translate(-12.48 -2.92)"/><path d="M270.13,272.43h-7.75a3.07,3.07,0,0,0,.9,1.89,2.57,2.57,0,0,0,1.86.71,3,3,0,0,0,2.32-1.1l2,1.11a5.21,5.21,0,0,1-1.82,1.85,5.05,5.05,0,0,1-2.52.6,4.63,4.63,0,0,1-3.69-1.66,6.13,6.13,0,0,1-1.42-4.15,6.35,6.35,0,0,1,1.42-4.24,4.46,4.46,0,0,1,3.56-1.68,4.61,4.61,0,0,1,3.69,1.68,6.68,6.68,0,0,1,1.42,4.46Zm-2.41-2.2a2.84,2.84,0,0,0-.94-1.52,2.49,2.49,0,0,0-1.64-.58,2.62,2.62,0,0,0-1.77.65,3.73,3.73,0,0,0-.88,1.45Z" transform="translate(-12.48 -2.92)"/><path d="M274.49,270.06h3.6v-4h2.42V277.2h-2.42v-4.62h-3.6v4.62h-2.41V266h2.41Z" transform="translate(-12.48 -2.92)"/><path d="M285.35,270.06H289v-4h2.41V277.2H289v-4.62h-3.61v4.62h-2.41V266h2.41Z" transform="translate(-12.48 -2.92)"/><path d="M298.32,265.76a4.54,4.54,0,0,1,2.56.79,5.34,5.34,0,0,1,1.87,2.14,6.45,6.45,0,0,1,.67,2.92,6.62,6.62,0,0,1-.67,3,5.39,5.39,0,0,1-1.85,2.14,4.55,4.55,0,0,1-6.1-.93,6.19,6.19,0,0,1-1.46-4.15,6.11,6.11,0,0,1,1.65-4.36A4.49,4.49,0,0,1,298.32,265.76Zm0,2.63a2.31,2.31,0,0,0-1.87.91,3.51,3.51,0,0,0-.75,2.32,3.62,3.62,0,0,0,.74,2.36,2.41,2.41,0,0,0,3.76,0,4,4,0,0,0,0-4.68A2.33,2.33,0,0,0,298.36,268.39Z" transform="translate(-12.48 -2.92)"/><path d="M306.66,277.2h-1.28V266h2.35v6.56l4.93-6.56h1.15V277.2h-2.35v-6.42Zm-.6-16.08h2a1.44,1.44,0,0,0,.64.63,2.15,2.15,0,0,0,1,.21,2.45,2.45,0,0,0,1.09-.24,1.41,1.41,0,0,0,.55-.6h2a3.2,3.2,0,0,1-1.08,2.09,3.71,3.71,0,0,1-2.53.79,4.15,4.15,0,0,1-1.83-.35,3,3,0,0,1-1.19-1A3.49,3.49,0,0,1,306.06,261.12Z" transform="translate(-12.48 -2.92)"/><path d="M323.71,266v1.23a4.63,4.63,0,0,1,1.42-1.13,3.45,3.45,0,0,1,1.62-.38,4,4,0,0,1,3.2,1.65,6.56,6.56,0,0,1,1.32,4.23,6.45,6.45,0,0,1-1.36,4.17,4.06,4.06,0,0,1-3.23,1.68,3.56,3.56,0,0,1-1.55-.35,4.65,4.65,0,0,1-1.42-1.12v5.26h-2.39V266Zm2.54,2.3a2.36,2.36,0,0,0-1.89.9,3.58,3.58,0,0,0-.76,2.36,3.72,3.72,0,0,0,.76,2.41,2.37,2.37,0,0,0,3.75,0,3.66,3.66,0,0,0,.75-2.38,3.59,3.59,0,0,0-.74-2.35A2.31,2.31,0,0,0,326.25,268.34Z" transform="translate(-12.48 -2.92)"/><path d="M332.2,266h2.46l2.5,7,2.75-7h2.48l-6,15.24h-2.5l2-4.91Z" transform="translate(-12.48 -2.92)"/><path d="M343.76,266h2.41v4.18L349.5,266h2.94l-4.28,5.44,4.33,5.72h-3.2l-2.86-3.94-.26.35v3.59h-2.41Z" transform="translate(-12.48 -2.92)"/><path d="M358,265.76a4.56,4.56,0,0,1,2.56.79,5.31,5.31,0,0,1,1.86,2.14,6.46,6.46,0,0,1,.68,2.92,6.63,6.63,0,0,1-.68,3,5.29,5.29,0,0,1-1.84,2.14,4.54,4.54,0,0,1-2.57.78,4.48,4.48,0,0,1-3.53-1.71,6.14,6.14,0,0,1-1.47-4.15,6.08,6.08,0,0,1,1.66-4.36A4.46,4.46,0,0,1,358,265.76Zm0,2.63a2.3,2.3,0,0,0-1.87.91,3.51,3.51,0,0,0-.75,2.32,3.57,3.57,0,0,0,.74,2.36,2.31,2.31,0,0,0,1.87.9,2.33,2.33,0,0,0,1.88-.91,3.53,3.53,0,0,0,.76-2.35,3.57,3.57,0,0,0-.74-2.33A2.36,2.36,0,0,0,358,268.39Z" transform="translate(-12.48 -2.92)"/><path d="M366.34,277.2h-1.28V266h2.35v6.56l4.92-6.56h1.16V277.2h-2.35v-6.42Zm-.6-16.08h1.95a1.5,1.5,0,0,0,.64.63,2.22,2.22,0,0,0,1,.21,2.38,2.38,0,0,0,1.08-.24,1.43,1.43,0,0,0,.56-.6h1.95a3.19,3.19,0,0,1-1.07,2.09,3.72,3.72,0,0,1-2.53.79,4.2,4.2,0,0,1-1.84-.35,3.07,3.07,0,0,1-1.19-1A3.48,3.48,0,0,1,365.74,261.12Z" transform="translate(-12.48 -2.92)"/><path d="M377.24,274a1.39,1.39,0,0,1,1.07.51,1.93,1.93,0,0,1,0,2.48,1.4,1.4,0,0,1-1.07.52,1.34,1.34,0,0,1-1.07-.52,1.93,1.93,0,0,1,0-2.48A1.36,1.36,0,0,1,377.24,274ZM376,261.74h2.44v11H376Z" transform="translate(-12.48 -2.92)"/></svg>