<svg id="_1" data-name="1" xmlns="http://www.w3.org/2000/svg" viewBox="0 0 120 19.2"><defs><style>.cls-1{fill:#e8b533;}.cls-2{fill:none;stroke:#000;stroke-miterlimit:22.93;fill-rule:evenodd;}</style></defs><title>hande</title><rect class="cls-1" width="120" height="19.2"/><path class="cls-2" d="M58.32,8.55A2.78,2.78,0,0,1,56.2,6.2H46.74V7.31l-21.87-2,21.87-2.5V4H56.4a3.18,3.18,0,0,1,6,0h9.52V2.85L97.46,5,71.87,7.31V6.2H62.55a3.4,3.4,0,0,1-2.18,2.51"/><path class="cls-2" d="M58.66,11.59l-.12-.15c-.26-.39-.5-.9-1.18-.91a1.08,1.08,0,0,0-1,1.26c0,.27,2,3.12,2.42,3.78a4.44,4.44,0,0,0,1.44,1.59A3.53,3.53,0,0,0,64.1,17c2.07-1.48,1.41-3.83,1.07-6-.16-1-1-1.62-1.85-1-.35-.8-1.38-.3-1.57-.27-.09-.21,0-.14-.24-.28s-.6-.1-1.07,0L60,6.78A1.05,1.05,0,0,0,58,6.58C57.87,7,58.57,11,58.66,11.59Z"/></svg>