<?xml version="1.0" encoding="UTF-8"?>
<!DOCTYPE svg PUBLIC "-//W3C//DTD SVG 1.1//EN" "http://www.w3.org/Graphics/SVG/1.1/DTD/svg11.dtd">
<!-- Creator: CorelDRAW X7 -->
<svg xmlns="http://www.w3.org/2000/svg" xml:space="preserve" width="800px" height="350px" version="1.1" style="shape-rendering:geometricPrecision; text-rendering:geometricPrecision; image-rendering:optimizeQuality; fill-rule:evenodd; clip-rule:evenodd"
viewBox="0 0 800 350"
 xmlns:xlink="http://www.w3.org/1999/xlink"
 enable-background="new 0 0 800 300">
 <defs>
  <style type="text/css">
   <![CDATA[
    .str3 {stroke:#2B2A29;stroke-width:0.999215}
    .str2 {stroke:black;stroke-width:0.999215}
    .str0 {stroke:#2B2A29;stroke-width:1.99961}
    .str1 {stroke:black;stroke-width:1.99961}
    .fil0 {fill:#E8B533}
    .fil3 {fill:#E8B533}
    .fil5 {fill:#F15A24}
    .fil6 {fill:#F15A24}
    .fil4 {fill:white}
    .fil2 {fill:#FEFEFE;fill-rule:nonzero}
    .fil7 {fill:black;fill-rule:nonzero}
    .fil8 {fill:#F15A24;fill-rule:nonzero}
    .fil1 {fill:white;fill-rule:nonzero}
   ]]>
  </style>
 </defs>
 <g id="Слой_x0020_1">
  <metadata id="CorelCorpID_0Corel-Layer"/>
  <polygon class="fil0" points="0,350 800,350 800,0 0,0 "/>
  <g id="_2482544001168">
   <path class="fil1 str0" d="M251 30c6,0 13,1 19,4 6,2 11,6 16,10 4,5 8,10 11,16 2,6 3,12 3,19 0,7 -1,13 -3,19 -3,6 -7,11 -11,16 -5,4 -10,8 -16,10 -6,3 -13,4 -19,4l-204 0c0,39 0,64 0,64 0,0 -12,0 -22,0 0,0 -14,0 -14,-16l0 -128c0,-5 2,-9 6,-13 3,-3 7,-5 12,-5l222 0z"/>
   <path class="fil2 str0" d="M312 87c2,0 4,-1 5,-1 1,-1 2,-2 3,-3 1,-1 1,-2 1,-3 1,-1 1,-2 1,-3 0,-1 0,-2 -1,-4 0,-1 0,-2 -1,-3 -1,-1 -2,-2 -3,-2 -1,-1 -3,-1 -5,-1l-33 0c-2,0 -4,0 -5,1 -1,0 -2,1 -3,2 -1,1 -1,2 -1,3 -1,2 -1,3 -1,4 0,1 0,2 1,3 0,1 0,2 1,3 1,1 2,2 3,3 1,0 3,1 5,1l33 0zm17 -10c0,2 0,4 -1,6 0,2 -1,4 -3,6 -1,2 -3,3 -5,4 -1,1 -4,2 -6,2l-38 0c-2,0 -4,-1 -6,-2 -2,-1 -3,-3 -5,-4 -1,-2 -2,-4 -2,-6 -1,-2 -1,-4 -1,-6 0,-2 0,-5 1,-7 0,-2 1,-4 3,-6 1,-1 3,-3 4,-4 2,-1 5,-1 7,-1l38 0c2,0 4,0 6,1 2,2 3,3 5,5 1,1 2,3 2,5 1,3 1,5 1,7zm74 14c0,1 0,2 -1,3 -1,0 -2,1 -3,1 -1,0 -2,-1 -3,-1 -1,-1 -1,-2 -1,-3l0 -10 -49 0 0 10c0,1 -1,2 -1,3 -1,0 -2,1 -3,1 -1,0 -2,-1 -3,-1 -1,-1 -1,-2 -1,-3l0 -28c0,-2 0,-3 1,-3 1,-1 2,-1 3,-1 1,0 2,0 3,1 0,0 1,1 1,3l0 10 49 0 0 -10c0,-2 0,-3 1,-3 1,-1 2,-1 3,-1 1,0 2,0 3,1 1,0 1,1 1,3l0 28zm16 -18l19 0c3,0 6,-1 9,-1 3,-1 5,-2 8,-3 3,-2 5,-3 8,-5 2,-1 4,-3 7,-4 1,-1 2,-1 2,-1 2,0 3,0 3,1 1,0 1,1 1,3 0,0 0,1 0,2 -1,0 -1,1 -2,1 -1,1 -3,2 -4,3 -1,1 -3,2 -4,3 -1,1 -3,2 -4,2 -1,1 -3,2 -5,3 2,0 4,1 5,2 1,1 3,2 4,2 1,1 3,2 4,3 1,1 3,2 4,3 1,1 1,1 2,2 0,0 0,1 0,2 0,1 0,2 -1,3 0,0 -1,1 -3,1 0,0 -1,-1 -2,-1 -3,-2 -5,-4 -7,-5 -3,-2 -5,-3 -8,-4 -3,-2 -5,-3 -8,-3 -3,-1 -6,-1 -9,-1l-19 0 0 10c0,1 0,2 -1,3 -1,0 -2,1 -3,1 -1,0 -2,-1 -3,-1 0,-1 -1,-2 -1,-3l0 -28c0,-2 1,-3 1,-3 1,-1 2,-1 3,-1 1,0 2,0 3,1 1,0 1,1 1,3l0 10zm117 14c1,0 3,-1 4,-1 1,-1 2,-2 3,-3 1,-1 1,-2 2,-3 0,-1 0,-2 0,-3 0,-1 0,-2 0,-4 -1,-1 -1,-2 -2,-3 -1,-1 -2,-2 -3,-2 -1,-1 -3,-1 -4,-1l-34 0c-2,0 -4,0 -5,1 -1,0 -2,1 -3,2 0,1 -1,2 -1,3 0,2 0,3 0,4 0,1 0,2 0,3 0,1 1,2 1,3 1,1 2,2 3,3 1,0 3,1 5,1l34 0zm17 -10c0,2 -1,4 -1,6 -1,2 -2,4 -3,6 -2,2 -3,3 -5,4 -2,1 -4,2 -7,2l-38 0c-2,0 -4,-1 -6,-2 -2,-1 -3,-3 -4,-4 -2,-2 -3,-4 -3,-6 -1,-2 -1,-4 -1,-6 0,-2 0,-5 1,-7 1,-2 2,-4 3,-6 1,-1 3,-3 5,-4 2,-1 4,-1 6,-1l38 0c2,0 4,0 6,1 2,2 4,3 5,5 1,1 2,3 3,5 0,3 1,5 1,7zm8 0c0,-2 0,-5 1,-7 1,-2 2,-4 3,-6 1,-1 3,-3 5,-4 2,-1 4,-1 6,-1l49 0c1,0 2,0 3,1 0,0 1,1 1,3 0,1 -1,2 -1,2 -1,1 -2,2 -3,2l-47 0c-2,0 -3,0 -5,1 -1,0 -2,1 -2,2 -1,1 -2,2 -2,3 0,2 0,3 0,4 0,1 0,2 0,3 0,1 1,2 2,3 0,1 1,2 2,3 2,0 3,1 5,1l47 0c1,0 2,0 3,1 0,1 1,2 1,3 0,1 -1,2 -1,3 -1,0 -2,1 -3,1l-50 0c-2,0 -4,-1 -6,-2 -1,-1 -3,-2 -4,-4 -1,-2 -2,-4 -3,-6 -1,-2 -1,-4 -1,-6zm84 -4l19 0c3,0 6,-1 9,-1 3,-1 5,-2 8,-3 3,-2 5,-3 8,-5 2,-1 4,-3 7,-4 0,-1 1,-1 2,-1 1,0 2,0 3,1 1,0 1,1 1,3 0,0 0,1 0,2 -1,0 -1,1 -2,1 -1,1 -3,2 -4,3 -1,1 -3,2 -4,3 -1,1 -3,2 -4,2 -2,1 -3,2 -5,3 2,0 3,1 5,2 1,1 3,2 4,2 1,1 3,2 4,3 1,1 3,2 4,3 1,1 1,1 2,2 0,0 0,1 0,2 0,1 0,2 -1,3 -1,0 -2,1 -3,1 -1,0 -2,-1 -2,-1 -3,-2 -5,-4 -8,-5 -2,-2 -4,-3 -7,-4 -3,-2 -5,-3 -8,-3 -3,-1 -6,-1 -9,-1l-19 0 0 10c0,1 0,2 -1,3 -1,0 -2,1 -3,1 -1,0 -2,-1 -3,-1 0,-1 -1,-2 -1,-3l0 -28c0,-2 1,-3 1,-3 1,-1 2,-1 3,-1 1,0 2,0 3,1 1,0 1,1 1,3l0 10zm74 6c0,2 0,3 0,5 0,1 1,1 2,1 0,0 1,0 1,0 1,-1 2,-1 3,-2l38 -23c1,-1 1,-1 2,-1 1,0 2,0 2,0 3,0 5,0 6,2 2,1 2,3 2,6l0 24c0,1 0,2 -1,3 -1,0 -1,1 -3,1 -1,0 -2,-1 -2,-1 -1,-1 -2,-2 -2,-3l0 -17c0,-2 0,-3 0,-4 0,-1 -1,-2 -1,-2 -1,0 -1,0 -2,1 -1,0 -2,1 -3,1l-38 24c-1,0 -1,0 -2,1 -1,0 -2,0 -2,0 -3,0 -4,-1 -6,-2 -2,-2 -2,-4 -2,-6l0 -24c0,-2 0,-3 1,-3 1,-1 2,-1 3,-1 1,0 2,0 3,1 0,0 1,1 1,3l0 16z"/>
   <path class="fil3 str0" d="M299 87l-1 8 -22 0c-2,0 -4,-1 -6,-2 -2,-1 -3,-3 -4,-4 -2,-2 -3,-4 -3,-6 -1,-2 -1,-4 -1,-6 0,-2 0,-5 1,-7 0,-2 1,-4 3,-5 1,-2 3,-4 5,-5 2,-1 4,-1 6,-1l19 0 4 8 -21 0c-2,0 -4,0 -5,1 -1,0 -2,1 -3,2 0,1 -1,2 -1,3 0,2 -1,3 -1,4 0,1 1,2 1,3 0,1 1,2 1,3 1,1 2,2 3,3 1,1 3,1 5,1l20 0zm-234 -8l24 0 -9 -12c0,0 -1,-1 -1,-1 -1,-1 -1,-1 -2,-1 -1,0 -1,0 -2,1 0,0 -1,1 -1,1l-9 12zm30 8l-36 0 -5 6c-1,1 -2,2 -3,2 -1,0 -2,0 -3,-1 0,-1 -1,-2 -1,-3 0,-1 0,-2 1,-3l20 -27c1,-1 2,-2 4,-3 2,-1 3,-1 5,-1 2,0 3,0 5,1 1,1 2,2 3,3l21 27c0,0 0,1 0,1 1,1 1,1 1,2 0,1 -1,2 -1,3 -1,1 -2,1 -3,1 -2,0 -3,-1 -3,-2l-5 -6zm28 -8c0,2 0,4 0,5 1,1 1,1 2,1 1,0 1,0 2,0 0,-1 1,-1 2,-2l39 -23c0,-1 1,-1 2,-1 0,0 1,0 2,0 2,0 4,0 6,2 1,1 2,3 2,6l0 24c0,1 -1,2 -1,3 -1,1 -2,1 -3,1 -1,0 -2,0 -3,-1 -1,-1 -1,-2 -1,-3l0 -17c0,-2 0,-3 0,-4 -1,-1 -1,-2 -2,-2 0,0 -1,0 -2,1 0,0 -1,1 -2,1l-39 24c0,0 -1,0 -2,1 0,0 -1,0 -2,0 -2,0 -4,-1 -6,-2 -1,-2 -2,-4 -2,-6l0 -24c0,-2 1,-2 1,-3 1,-1 2,-1 3,-1 1,0 2,0 3,1 1,1 1,1 1,3l0 16zm13 -35c0,-1 0,-2 1,-2 1,-1 2,-2 3,-2 1,0 2,1 3,2l5 5 6 -5c0,-1 1,-2 2,-2 2,0 3,1 3,2 1,0 2,1 2,2 0,2 -1,2 -2,3l-8 8 0 0c-1,1 -1,2 -3,2 -1,0 -2,-1 -3,-2l0 0 -8 -8c-1,-1 -1,-1 -1,-3zm60 29l19 0c3,0 6,-1 9,-1 3,-1 5,-2 8,-3 3,-2 5,-3 8,-5 2,-1 4,-3 7,-4 0,-1 1,-1 2,-1 1,0 2,0 3,1 1,1 1,1 1,3 0,0 0,1 0,2 -1,0 -1,1 -2,1 -1,1 -3,2 -4,3 -1,1 -3,2 -4,3 -1,1 -3,2 -4,2 -2,1 -3,2 -5,3 2,1 3,1 5,2 1,1 3,2 4,2 1,1 3,2 4,3 1,1 3,2 4,3 1,1 1,1 2,2 0,0 0,1 0,2 0,1 0,2 -1,3 -1,1 -2,1 -3,1 -1,0 -2,0 -2,-1 -3,-2 -5,-4 -7,-5 -3,-2 -5,-3 -8,-4 -3,-1 -5,-2 -8,-3 -3,-1 -6,-1 -9,-1l-19 0 0 10c0,1 0,2 -1,3 -1,1 -2,1 -3,1 -1,0 -2,0 -3,-1 0,-1 -1,-2 -1,-3l0 -28c0,-2 1,-2 1,-3 1,-1 2,-1 3,-1 1,0 2,0 3,1 1,1 1,1 1,3l0 10z"/>
   <polygon class="fil3" points="289,89 301,88 300,93 289,93 "/>
   <polygon class="fil3" points="289,64 301,65 298,60 289,60 "/>
  </g>
  <g id="_2482543992944">
   <path class="fil4 str1" d="M725 300c0,0 0,0 0,0l-2 -1c0,-2 2,-1 4,-2l0 0c1,0 1,0 3,0 1,0 1,1 3,1 1,0 2,1 3,3 1,1 2,1 2,-1 1,-1 1,-1 2,-2 1,-1 0,0 2,0 2,0 1,0 2,-1 1,-1 1,1 2,1l1 1c1,0 1,0 2,0 0,0 1,0 1,0 0,0 1,0 1,-1l1 0c0,1 0,1 0,1 0,1 -1,2 -1,3 1,1 1,0 5,-1l1 0c1,-1 2,-1 3,-1 1,-1 1,-1 2,-1 1,0 1,-1 2,-1 1,0 2,0 2,-1 1,0 2,0 2,-1l1 -1c1,-1 1,-1 1,-2 1,0 1,-1 2,-1 0,0 2,2 3,0l1 0c2,-1 2,0 3,1 2,1 2,1 2,2l6 0c2,-3 0,-4 2,-5 2,-1 1,-1 1,-2 0,-1 0,0 0,0l0 -1 0 -1c1,-2 1,-2 1,-4 0,-3 0,-1 0,-2 0,-3 -1,-2 -1,-4 0,-2 0,0 0,-1 0,-1 -1,-2 -2,-2 0,0 -1,0 -2,0 1,-1 2,-2 2,-4 1,-1 1,-6 1,-9 -1,-2 -1,-1 -2,-1 -1,0 -1,-1 -2,-1l-1 0c-1,1 -1,1 -2,1 -4,-2 -4,0 -9,-6l0 -1c-1,-1 -2,-3 -2,-4 0,-2 0,-5 1,-7 0,-2 0,-4 0,-6 0,0 0,0 0,-1 0,-1 -1,-1 -2,-1 0,0 0,-1 -1,-2l0 0c-1,-1 -1,-2 -1,-2 0,-1 1,-1 1,-1 1,-1 2,0 4,0 1,0 3,0 4,-2 1,0 2,-1 1,-3 0,-1 0,-2 1,-3 0,-1 3,-11 1,-15 -1,0 -1,-1 -1,-1l-3 -4c-1,-1 0,-1 -1,-2 1,-1 0,-1 -1,-4 -1,-2 -1,-4 -2,-6l-1 -2 0 0 -1 -2c0,-1 -1,-4 -2,-4 -1,-1 -1,-1 -2,-1 -1,-5 1,-14 0,-17 0,-1 0,-2 -1,-3l0 -1 -1 -1c0,0 1,0 0,-1 -1,0 -1,0 -2,0l0 0 0 -1c-1,-1 0,-1 0,-1l0 0c-1,-1 0,-1 0,-3 0,0 0,0 0,0 0,-1 -1,-1 -1,-1l0 -1c-1,0 -1,-1 -2,-2 0,0 0,-1 0,-1l0 0 0 0 -4 -5c-1,0 -2,-1 -2,-2l-1 -2c-2,-2 -2,-3 -5,-5l-2 -1c-1,-1 -3,-1 -5,0 0,2 0,2 -2,2 0,1 -1,1 -1,2 0,1 0,1 0,1 0,1 0,0 -1,1 -1,0 -2,-1 -3,-1 -1,0 -1,0 -2,-1 -2,-1 0,-4 -2,-4l-1 -1 0 0 0 -2c0,-1 0,-2 0,-2 -2,0 -3,-1 -5,-2l-9 -2 -2 -1 -7 -2c-5,-1 -5,-1 -4,3l1 6c0,2 0,4 1,6 1,5 0,7 1,10 2,2 1,3 1,5 -1,1 -1,1 -1,2l-2 0c-1,0 -2,0 -3,0 0,0 -1,0 -1,1 0,1 0,1 1,2 0,1 -1,-1 -3,4l0 1c0,0 0,1 0,1 -1,1 -3,1 -2,3 1,2 1,1 1,1 1,1 1,1 1,1 0,1 0,2 -1,2 -1,0 -2,0 -3,2 -1,3 -1,6 0,9 1,2 1,3 3,2l1 2c0,0 -1,1 -2,1 -1,1 -1,1 -1,2 0,1 0,3 0,3 0,1 0,1 0,2 0,1 1,0 1,1 0,0 1,1 1,1 1,1 2,2 2,3 0,3 -1,5 -2,8 -1,2 -1,2 -3,4 -1,0 -1,0 -2,0 -4,2 -1,4 0,6 0,0 4,8 4,8 1,0 2,1 2,2 1,1 1,1 2,2l1 2c1,1 1,2 1,3l1 3c1,1 1,2 2,3 0,1 0,2 1,3 0,1 0,0 -1,1l-3 4c0,1 0,1 0,1 -1,2 -2,3 -4,5 0,1 0,1 -1,2l-3 2c-1,1 -1,2 -2,2 -2,1 -3,2 -5,3 -1,2 -3,3 -4,4 -1,1 -1,2 -2,2 -1,1 -1,2 -2,2 -1,1 -2,1 -3,2l-1 1 -2 1c0,1 0,1 -1,2l-2 1c-1,1 -2,1 -3,2 -1,0 0,1 -2,2 0,0 -1,1 -2,1 0,2 0,3 1,4 0,1 1,1 2,1 0,1 0,2 0,2 0,1 2,1 4,2 0,0 1,1 2,1 1,0 0,0 1,0l1 1 4 2 0 0 3 2c0,0 0,0 1,0 1,0 0,0 3,1l2 2 1 0 11 6c1,1 1,1 2,1l1 1 3 2c1,0 0,0 1,0l0 0 1 1 0 0 0 0 1 0 1 1c2,0 5,2 8,1 1,-1 1,-1 2,-1 1,0 0,-1 0,-2 0,0 0,0 1,0 0,-1 3,0 3,-4 0,1 1,2 2,2l0 0c0,1 1,1 2,1l1 0c0,-1 0,-1 0,-1 1,0 1,0 1,-1 0,-1 0,-1 1,-2l0 0c0,0 0,0 0,-1 0,0 0,0 0,0 -1,-1 -1,-1 -1,-1 -1,-1 -1,-1 -2,-1 -1,0 0,0 -1,0l1 1z"/>
   <path class="fil5 str1" d="M738 205c1,8 0,20 0,29 0,9 1,22 0,29 -5,21 -36,32 -57,17 -16,-11 -12,-27 -12,-46 0,-9 -1,-20 0,-29l69 0zm11 -5c0,-5 0,-4 5,-6 5,-2 6,-1 6,-10 -3,1 -9,4 -11,4 -2,-11 4,-10 -11,-10l0 10c-4,0 -8,-3 -12,-4l0 7c2,2 10,3 11,5 2,1 -47,0 -56,0l0 -6c-4,-2 -8,-4 -12,-6l0 -6 -10 0 0 6c-4,2 -8,4 -11,6l0 8c3,-1 8,-5 11,-5 0,5 -1,3 -5,6l-6 3 0 8c3,-1 7,-4 11,-5l0 4c-4,1 -8,3 -11,5l0 8c3,-1 7,-4 11,-5 0,4 0,3 -1,4 -12,6 -10,0 -10,13 3,-1 8,-5 11,-5l0 3 -11 5 0 8c4,-1 7,-4 11,-4l0 3 -11 4 0 8c4,-1 7,-4 11,-4 0,3 1,2 -5,5 -7,3 -5,1 -6,10 4,0 8,-4 12,-4 1,2 2,5 3,7 3,7 7,12 13,17 19,15 49,12 65,-8 0,-1 1,-2 2,-3 2,-2 2,-5 4,-7 1,-3 5,-4 7,-4 8,-4 7,-2 7,-11 -4,0 -8,4 -12,4l0 -3c4,-2 8,-4 12,-6l0 -7c-4,0 -8,4 -12,4l0 -3 11 -5 0 -8c-3,1 -8,4 -11,4l0 -3c4,-2 6,-4 10,-5 3,-1 2,0 2,-3l0 -6c-3,1 -9,5 -12,5l0 -2c0,-2 7,-4 11,-6l0 -8c-3,1 -9,4 -11,5l0 -3c2,-2 10,-4 11,-6l0 -7c-4,1 -8,4 -11,5z"/>
   <path class="fil6 str1" d="M725 219c-1,-1 -2,-1 -3,-2 0,-1 0,0 1,-1l1 0c-3,-5 -3,-1 -5,-5l0 -1 0 0c-4,0 -4,2 -6,2 -2,0 -3,0 -5,0 -3,1 -2,2 -4,3 -2,1 -3,1 -5,2l1 2c3,0 5,-3 7,0 0,1 -1,2 -2,2l-3 0c1,2 2,1 5,1l0 0c-6,4 -9,6 -10,10 -2,2 -5,4 -7,5 -2,1 -1,-2 -9,-2l-1 -1c-2,1 -1,0 -1,1 0,0 1,-1 0,1l-1 0 1 1 -2 1 1 1 -1 1c2,1 1,1 2,3 1,2 0,-1 3,-1l0 1c2,4 3,1 3,1l0 0c1,1 2,2 3,2l0 -2 1 1 1 1c2,-1 -1,-3 3,-3 1,1 2,2 2,3 1,2 1,1 2,3 0,2 0,4 0,6 2,-2 1,-2 3,-2 0,2 0,3 1,5l1 -1c1,-2 -1,2 0,0 1,-2 0,-1 1,-1 1,2 2,5 2,7 1,1 3,3 4,4l1 -2c2,7 5,1 6,5 -2,0 -3,-1 -5,1l2 0 -1 1 1 1 0 2 2 0 -1 1c2,0 1,0 2,0 1,1 0,1 1,1 2,0 1,-2 4,-5 3,-2 4,-2 6,-3 1,-1 -2,-2 -3,-4l2 0c-2,-3 -2,-3 -4,-4l2 -1c0,-3 -2,-3 -3,-4 -1,-2 1,0 2,-2 -3,-1 -2,0 -5,-3 -3,-3 3,-2 4,-4 1,-2 -4,0 -6,-2 -1,-1 -2,-2 -2,-4l1 -3c1,1 1,1 1,1 1,1 0,1 1,1 1,-1 1,-3 0,-4 2,0 1,0 3,1l0 -4c2,1 2,1 3,2 0,-4 0,-4 -1,-7l2 0c0,-2 0,-4 -1,-6 1,0 1,0 3,0 0,-1 -1,-2 -2,-3l1 0z"/>
   <path class="fil6 str1" d="M699 172c0,-1 0,0 1,-1l3 -3c1,1 4,2 4,4 -1,1 -2,3 -4,4 -2,-1 -3,-3 -4,-4l0 0zm-16 -7c1,2 6,5 6,7 0,1 -5,5 -5,7l11 0 0 10c2,-1 5,-5 8,-6 3,-1 4,4 7,6 0,-13 -3,-10 13,-10 -1,-2 -6,-4 -7,-7 -1,-2 5,-4 7,-7l-13 0 0 -10c-1,1 -2,1 -3,3 -1,1 -3,2 -4,2l-8 -5 0 10 -12 0z"/>
   <path class="fil6 str1" d="M696 259c-4,-8 1,-5 -3,-9 -3,1 -9,9 -9,16l2 0c-1,1 -1,2 0,4 1,0 1,0 1,0 1,0 1,-1 1,0 0,1 -1,1 -3,0 -1,0 0,0 -2,0 -2,0 0,1 -1,2 -2,0 1,1 -1,2 3,1 1,0 2,2 1,1 0,-1 1,1 5,0 3,-1 6,-2 2,1 4,1 6,2l0 -5c1,0 1,1 3,1 0,-1 0,-3 0,-4 1,0 1,0 2,1 0,-2 0,-3 0,-4 1,-1 2,1 0,-6l-1 2 0 0c0,-1 -1,-2 -2,-3 0,-1 0,-2 0,-3 -1,1 -1,2 -2,3z"/>
   <path class="fil6 str1" d="M690 223c0,-3 1,-2 -1,-3 -1,-2 -1,-1 0,-3l-2 -1 -2 1c-1,1 1,2 -2,1l0 1 -2 0c0,1 0,2 0,3 1,0 2,0 2,2 0,1 -1,0 -1,3l1 0c1,0 0,-1 1,0 1,1 0,2 0,4 0,2 0,-1 2,-1 -2,6 2,2 2,2 0,0 1,1 1,2 2,0 2,-1 2,-2 -1,-1 0,0 2,-2l1 -1 2 -2 -6 -4z"/>
   <path class="fil3 str1" d="M693 217c1,2 2,3 3,4l8 -2c-3,0 -5,1 -6,0l-5 -2z"/>
  </g>
  <g id="_2482543985136">
   <path class="fil7 str2" d="M64 278c0,3 0,4 1,4 0,0 1,0 1,0 0,0 1,0 1,0 0,0 0,0 0,0 0,0 0,1 -1,1 -1,0 -2,0 -3,0 -2,0 -3,-1 -3,-5 0,-6 4,-17 12,-33 1,-2 2,-4 4,-7 0,0 0,-1 0,-1 0,0 0,-1 1,-2 1,-1 1,-2 2,-3 0,0 1,-1 3,-1 1,0 1,0 1,1 0,0 0,0 0,0 -1,1 -2,4 -4,7 -10,16 -15,29 -15,39zm7 -35c0,1 -1,3 -2,6 -1,5 -4,9 -7,13 -3,5 -7,8 -10,11 -2,1 -5,2 -7,2 -4,0 -5,-2 -5,-5 0,-3 1,-6 4,-11 2,-4 5,-8 7,-12 3,-5 4,-8 4,-11 0,-2 -2,-3 -5,-3 -3,0 -6,0 -9,1 -3,1 -6,2 -8,4 -4,2 -6,5 -6,7 0,2 2,4 6,5 1,0 1,1 1,1 0,0 0,0 0,0 0,0 -1,0 -1,0 -6,-1 -9,-3 -9,-6 0,-2 3,-5 8,-8 2,-2 5,-3 8,-4 4,-1 7,-2 10,-2 5,0 8,2 8,6 0,2 -2,7 -6,14 -5,8 -8,13 -8,15 -1,1 -1,2 -1,3 0,3 1,4 3,4 1,0 3,-1 5,-2 3,-2 7,-5 10,-9 3,-4 5,-8 7,-12 0,-2 1,-4 2,-7 0,0 0,0 0,0 1,0 1,0 1,0zm35 9l-1 2c-1,0 -2,3 -3,6 -1,3 -3,7 -5,12 0,0 1,0 2,0 1,0 1,1 1,1 0,0 -1,0 -3,0l0 0c-2,5 -5,9 -8,12 -4,4 -8,6 -12,6 -2,0 -4,-1 -5,-1 -2,-1 -3,-3 -3,-5 0,-3 4,-7 10,-9 4,-2 9,-3 16,-4 0,-2 1,-4 2,-6 1,-2 1,-3 2,-5 -1,1 -3,3 -5,6 -3,2 -5,4 -6,4 -1,0 -2,-1 -2,-2 0,-2 2,-6 4,-9 2,-5 5,-7 7,-6 1,-1 2,-1 3,-1 1,0 1,0 2,0l0 0c1,-1 2,-1 3,-1 0,0 1,0 1,0l0 0zm-5 2c0,0 -1,0 -1,0 -2,0 -3,1 -4,2 -2,1 -3,3 -4,5 -1,3 -2,5 -2,6 -1,1 -1,1 -1,1 0,0 0,1 1,1 0,0 0,-1 1,-1 2,-2 4,-4 6,-6 1,-2 2,-4 4,-8zm-7 19c-6,1 -10,2 -14,4 -6,3 -8,5 -8,9 0,1 0,2 1,3 1,0 2,1 4,1 3,0 7,-2 10,-6 3,-3 5,-7 7,-11zm21 -13c0,0 0,0 0,0 0,0 -1,0 -2,0 0,1 -1,1 -2,2 0,1 -1,1 -2,2 0,1 -1,1 -1,2 1,-1 2,-1 3,-2 1,0 2,0 4,-1 0,-1 0,-2 0,-3zm0 4c-1,0 -2,0 -3,1 -1,0 -1,1 -2,1 -1,0 -2,1 -2,1 -1,1 -1,1 -1,2 0,0 0,0 1,1 0,0 1,0 1,0 2,0 4,-2 6,-6zm-7 1c1,-3 3,-4 4,-5 2,-1 3,-2 4,-2 1,0 1,1 1,1 1,1 1,3 0,4 1,0 1,0 1,0 0,0 0,0 0,0 1,0 1,0 1,0 0,0 0,0 -1,0 0,0 0,1 -1,1 0,1 -1,3 -2,4 0,1 -1,2 -3,2 0,0 -1,0 -1,0 0,1 -1,1 -1,1 0,0 0,0 0,0 -1,0 -1,0 -1,0 -1,0 -1,0 -2,-1 0,0 0,0 -1,0 0,0 0,0 0,0 0,0 -1,0 -1,0 0,-1 0,-1 0,-1 -1,-1 0,-3 0,-6 1,-3 2,-6 5,-10 0,-1 1,-1 2,-1l0 0c0,0 0,0 1,0 0,0 0,0 0,1 0,0 0,0 0,1 0,0 0,0 -1,1 0,0 0,1 0,1 -1,0 -1,1 -1,1 -1,1 -2,3 -2,4 -1,2 -1,3 -1,4zm14 5c-2,0 -3,-1 -3,-3 0,-2 1,-3 2,-5 0,-1 1,-3 2,-6 0,0 1,-1 1,-2 1,-1 2,-1 3,-1l0 0 0 0c0,0 0,0 0,0 0,0 1,0 1,1 0,0 -1,1 -1,2 -1,1 -1,1 -1,2 -1,1 -2,3 -3,4 -1,2 -1,3 -1,5 0,1 0,1 2,1 0,0 2,0 3,-2 2,-1 3,-1 3,-1 0,0 0,0 0,0 0,0 0,0 0,1 -1,1 -2,2 -4,2 -1,1 -2,2 -4,2zm32 -4c0,2 1,3 2,3 1,0 2,0 3,-2 1,0 1,0 1,-1 0,0 1,0 1,0 0,0 0,0 0,-1 0,0 1,0 1,0 0,1 -1,1 -1,1 0,1 -1,2 -3,3 -1,1 -2,2 -3,2 -1,0 -1,0 -2,-1 -1,0 -1,0 -1,-1 -1,0 -1,-1 -1,-2 0,0 0,-1 0,-2 1,-2 2,-4 2,-5 0,0 1,-1 1,-1 -1,1 -2,2 -3,3 -1,1 -3,2 -4,3 -1,1 -2,2 -3,3 -1,0 -2,1 -2,1 0,0 -1,-1 -1,-2 0,-1 1,-2 1,-4 1,-1 1,-3 2,-5 0,1 -1,2 -2,3 -1,1 -2,2 -2,4 -1,1 -2,2 -3,3 -1,1 -2,1 -2,2 -1,0 -2,0 -3,0 -1,0 -2,0 -2,-1 -1,0 -1,0 -1,-1 0,0 0,-1 0,-1 1,-1 1,-1 1,-1 1,-1 1,-1 2,0 0,1 1,2 1,2 1,0 2,0 3,-1 1,0 1,-1 2,-2 1,-2 2,-3 3,-4 1,-1 2,-2 2,-3 1,-1 1,-2 2,-2 0,-1 1,-2 1,-3 1,-1 2,-1 3,-1 0,0 0,0 0,0 0,0 0,0 0,1 0,1 -1,2 -1,3 -1,2 -1,3 -2,4 0,1 -1,2 -1,3 0,1 0,2 0,2 0,1 0,1 0,1 0,0 1,0 1,-1 1,0 2,-1 2,-2 1,-1 2,-2 3,-3 1,-1 1,-2 2,-3 1,-1 2,-2 2,-2 1,-1 1,-2 2,-3 0,0 0,0 0,0 0,0 1,0 1,-1 0,0 1,0 1,0 0,0 1,0 1,0 0,0 0,0 0,0l0 0c0,1 -1,1 -1,2 -1,1 -1,3 -2,4 0,1 -1,3 -2,4 0,2 -1,3 -1,5zm62 -29c0,0 0,1 0,1 -1,0 -1,0 -1,-1 -2,-1 -4,-1 -7,-1 5,2 7,6 7,10 0,4 -1,9 -5,14 -3,4 -7,7 -11,9 -4,3 -9,5 -13,5 -9,0 -14,-4 -14,-10 0,-5 2,-9 6,-14 0,-2 -1,-4 -1,-5 0,-4 3,-7 7,-10 3,-1 7,-2 12,-2 4,0 7,0 10,1l0 0c4,0 7,1 9,2 1,0 1,1 1,1zm-16 -2c-2,0 -4,-1 -6,-1 -4,0 -7,1 -9,3 -4,2 -5,4 -5,8 0,1 0,2 0,2 6,-6 13,-10 20,-12zm12 13c0,-3 -1,-5 -3,-7 -1,-2 -4,-4 -6,-5 -4,1 -8,2 -12,5 -4,2 -8,5 -10,9 0,1 1,2 2,4 2,2 3,3 4,3 1,0 1,-1 1,-2 0,0 1,-1 1,-2 0,0 0,0 0,0 1,0 1,0 1,0 0,3 -1,4 -3,4 -2,0 -3,0 -5,-2 -1,-1 -2,-2 -3,-4 -3,4 -4,8 -4,12 0,2 1,5 3,6 2,2 5,3 8,3 4,0 8,-1 12,-3 4,-3 7,-5 10,-8 3,-5 4,-9 4,-13zm32 17c0,0 0,0 0,0 0,0 0,0 -1,1 0,1 -1,2 -2,3 -2,1 -3,1 -4,1 -3,0 -4,-1 -4,-4 0,-2 1,-4 2,-8 -2,2 -4,5 -7,8 0,1 -1,2 -2,2 0,1 -1,2 -2,2 -1,0 -1,0 -1,0 0,0 0,-1 0,-1 1,-2 2,-4 3,-6 1,-3 2,-5 2,-6 0,-1 -1,-1 -1,-1 -1,0 -2,2 -5,5 -2,2 -3,4 -4,6 -1,0 -2,1 -2,3 0,0 -1,0 -2,1 0,0 -1,0 -1,0 -1,0 -1,0 -1,0 1,-2 3,-6 6,-12l0 -2c0,0 0,0 0,0 0,0 0,0 0,0l2 -4c0,0 0,0 1,-1 0,0 1,0 1,0 1,0 1,0 1,1 0,0 -1,1 -2,4 -2,4 -2,6 -2,6 1,-1 3,-3 5,-6 3,-2 5,-4 6,-4 1,0 1,1 1,1 0,2 -1,6 -3,10 4,-3 6,-6 8,-8 0,-1 1,-1 1,-1 1,0 1,1 1,1 0,1 0,2 0,2 0,1 -1,2 -1,2 -1,2 -1,4 -1,5 0,3 1,4 2,4 1,0 2,-1 3,-2 2,-2 3,-2 3,-2zm13 -5c0,0 0,0 -1,0 0,0 0,0 -1,0 0,0 0,0 -1,0 -2,0 -4,1 -7,1 -1,3 -2,5 -2,6 0,2 1,2 2,2 2,0 3,0 4,-1 2,-1 3,-2 4,-3 1,-1 1,-2 1,-2 0,0 0,1 0,1 0,1 0,2 -2,3 -3,2 -7,4 -10,4 -1,0 -2,-1 -2,-1 0,0 0,-1 0,-2 0,-1 0,-3 2,-6 0,0 0,0 0,0 0,0 0,-1 0,-1 0,-1 1,-1 1,-2 2,-3 4,-5 6,-5 1,-1 1,-1 1,-1 1,0 1,0 1,1 0,0 0,0 -1,0 -1,1 -2,3 -4,6 2,-1 4,-1 6,-1 1,-2 2,-3 2,-5 0,0 0,-1 -1,-1 0,0 0,0 0,0 -1,0 -1,0 -1,0 0,0 0,-1 1,-1 1,0 1,0 2,0 1,0 1,1 1,2 0,0 0,1 -1,3 -1,1 -1,2 -2,2 2,1 2,1 2,1zm13 -3c-1,0 -1,0 -2,0 0,0 -1,0 -1,0 -1,0 -1,0 -1,0 -1,0 -1,0 -1,0 -1,0 -1,0 -1,0 0,0 0,1 -1,1 0,1 -1,2 -1,2 -1,1 -1,2 -2,2 0,1 0,1 -1,1 0,0 0,0 0,0 0,0 0,-1 1,-1 0,-1 1,-2 1,-2 0,-1 1,-2 1,-3 0,-1 1,-1 1,-2 0,-1 0,-1 0,-2l0 0c0,-1 0,-1 1,-1 0,0 1,0 1,0 0,0 0,0 0,0 0,0 0,0 0,0 0,1 0,1 0,1 0,1 0,1 1,1 0,1 0,1 1,1 0,0 1,1 2,1 0,0 1,0 1,-1 0,0 0,0 1,0 0,-1 0,-1 0,-1 1,0 1,-1 2,-1l0 0c0,0 0,0 0,0 0,0 1,1 1,1 0,0 0,0 0,0 0,1 0,1 -1,1 0,1 0,1 0,1 -1,1 -1,1 -1,1 0,1 -1,1 -1,1 -1,1 -1,3 -2,4 -1,1 -1,3 -2,4 0,2 0,3 1,3 1,0 1,-1 2,-1 1,0 2,-1 2,-1 1,-1 2,-1 2,-2 1,0 1,0 1,0 0,0 0,0 0,0 0,1 -1,1 -1,2 -1,0 -2,1 -3,2 0,0 -1,0 -2,1 -1,0 -2,0 -2,0 -1,0 -1,0 -1,0 -1,0 -1,-1 -1,-1 0,-1 0,-1 0,-1 0,-1 0,-1 0,-2 0,-1 1,-2 2,-4 1,-2 2,-3 3,-5zm22 3c0,0 -1,0 -1,0 0,0 -1,0 -1,0 -1,0 -1,0 -1,0 -2,0 -5,1 -7,1 -2,3 -3,5 -3,6 0,2 1,2 3,2 1,0 2,0 4,-1 1,-1 2,-2 3,-3 1,-1 2,-2 2,-2 0,0 0,1 0,1 0,1 -1,2 -2,3 -4,2 -7,4 -11,4 -1,0 -1,-1 -2,-1 0,0 0,-1 0,-2 0,-1 1,-3 2,-6 0,0 0,0 0,0 0,0 0,-1 0,-1 1,-1 1,-1 2,-2 1,-3 3,-5 6,-5 0,-1 1,-1 1,-1 0,0 0,0 0,1 0,0 0,0 -1,0 -1,1 -2,3 -3,6 2,-1 4,-1 5,-1 1,-2 2,-3 2,-5 0,0 0,-1 0,-1 0,0 -1,0 -1,0 0,0 -1,0 -1,0 0,0 1,-1 1,-1 1,0 2,0 2,0 1,0 2,1 2,2 0,0 -1,1 -1,3 -1,1 -2,2 -3,2 2,1 3,1 3,1zm17 -6c0,1 -1,2 -1,3 -1,1 -2,1 -2,1 -1,0 -1,0 -1,0 0,0 0,0 0,0 1,-1 1,-2 1,-3 0,-1 0,-2 -1,-2 -1,0 -2,1 -3,1 -1,1 -2,3 -4,6 -2,3 -2,6 -2,7 0,2 0,2 2,2 1,0 2,0 4,-1 1,-1 2,-2 3,-3 1,-1 2,-2 2,-2 0,0 0,1 0,1 0,1 -1,2 -2,3 -4,2 -7,4 -11,4 -1,0 -1,-1 -2,-1 0,0 0,-1 0,-2 0,0 0,-1 0,-2 1,-3 3,-7 5,-9 3,-3 6,-5 9,-5 2,0 3,1 3,2zm28 11c1,0 1,0 1,0 0,0 -1,0 -1,1 0,1 -1,2 -3,3 -1,1 -2,1 -3,1 -3,0 -4,-1 -4,-4 0,-2 1,-4 2,-8 -2,2 -4,5 -7,8 0,1 -1,2 -2,2 -1,1 -2,2 -3,2 0,0 0,0 0,0 0,0 0,-1 0,-1 1,-2 2,-4 3,-6 1,-3 1,-5 1,-6 0,-1 0,-1 0,-1 -1,0 -2,2 -5,5 -2,2 -3,4 -5,6 0,0 -1,1 -1,3 -1,0 -1,0 -2,1 -1,0 -1,0 -2,0 0,0 0,0 0,0 1,-2 3,-6 5,-12l1 -2c0,0 0,0 0,0 -1,0 -1,0 -1,0l3 -4c0,0 0,0 1,-1 0,0 1,0 1,0 0,0 1,0 1,1 0,0 -1,1 -2,4 -2,4 -3,6 -3,6 2,-1 4,-3 6,-6 3,-2 5,-4 6,-4 1,0 1,1 1,1 0,2 -1,6 -3,10 4,-3 6,-6 8,-8 0,-1 0,-1 1,-1 1,0 1,1 1,1 0,1 0,2 0,2 -1,1 -1,2 -1,2 -1,2 -1,4 -1,5 0,3 0,4 2,4 1,0 2,-1 3,-2 2,-2 2,-2 2,-2z"/>
   <path class="fil7 str2" d="M351 255c0,0 0,-1 -1,-1 0,0 -1,1 -1,2 -1,0 -2,1 -3,2 -1,1 -2,2 -3,3 -1,2 -2,2 -2,3 1,-1 2,-1 3,-2 2,-1 3,-2 5,-2 1,-3 2,-4 2,-5zm-2 5c-1,1 -2,1 -3,2 -1,1 -2,1 -3,2 -1,1 -2,2 -3,2 -1,1 -1,2 -2,3 1,0 2,1 2,1 3,0 6,-3 9,-10zm-7 -5c-1,0 -1,0 -2,1 -1,0 -1,0 -1,0 0,-1 0,-1 0,-1 0,0 1,0 3,-1l0 0c1,-3 3,-6 4,-8 2,-3 4,-5 5,-7 2,-2 4,-4 6,-6 2,-1 4,-2 6,-3 2,0 3,0 5,0 1,1 2,2 2,4 0,1 -1,3 -2,5 -1,1 -3,3 -5,5 -3,2 -5,4 -8,5 -4,2 -7,4 -11,5 -1,2 -1,3 -2,5 -1,1 -1,3 -2,4 6,-7 10,-11 13,-11 0,0 1,1 1,1 0,2 -1,3 -1,6 0,-1 1,-1 1,-1 0,0 0,0 0,0 0,0 0,1 0,1 -1,0 -1,0 -2,0 -1,3 -2,5 -3,7 -1,1 -3,3 -4,3 -1,0 -2,1 -2,1 -1,0 -1,0 -1,1 -1,0 -1,0 -1,0 0,0 -1,0 -1,0 -1,0 -2,0 -3,-1 0,1 0,1 0,1 -1,0 -1,0 -1,-1 0,0 -1,0 -1,-1 0,0 1,-1 1,-1 0,-1 1,-2 1,-4 1,-1 2,-2 2,-4 1,-2 2,-3 3,-5zm2 -2c4,-1 7,-3 10,-4 2,-2 5,-4 7,-5 2,-2 3,-4 4,-5 2,-2 2,-3 2,-5 0,-1 0,-2 -1,-2 -1,-1 -2,-1 -3,0 -2,0 -3,1 -5,2 -2,1 -3,3 -5,5 -1,1 -3,4 -4,6 -2,2 -3,5 -5,8zm23 18c-2,0 -2,-2 -2,-4 0,-2 0,-4 0,-6 -1,1 -2,3 -5,6 -2,2 -5,4 -6,4 -1,0 -1,-1 -1,-2 0,-2 1,-6 3,-9 3,-5 5,-7 8,-6 1,-1 2,-1 3,-1 0,0 1,0 2,0 1,0 1,0 2,0 0,0 0,0 0,0 0,0 0,1 0,2 -1,1 -1,2 -1,2 -1,1 -2,3 -2,5 0,2 -1,3 -1,5 0,1 1,2 2,2 1,0 2,-1 3,-2 1,-1 2,-1 2,-1 0,0 0,0 0,0 0,1 -1,2 -3,3 -2,1 -3,2 -4,2zm0 -17c0,0 0,0 -1,0 -1,0 -3,1 -4,2 -1,1 -2,3 -3,5 -2,3 -2,5 -3,6 0,1 0,1 0,1 0,0 0,1 0,1 0,0 1,-1 2,-1 2,-2 4,-4 5,-6 1,-2 3,-4 4,-8zm31 3c1,-1 1,-1 2,-2 0,0 1,0 2,0 1,0 1,0 1,0 0,0 0,0 0,1 -1,0 -1,0 -1,1l-2 1c0,0 0,1 0,2 -1,0 -1,1 -1,2 -1,1 -1,2 -1,2 -1,1 -1,2 -1,2 0,2 0,3 1,3 0,0 1,0 1,-1 1,0 1,0 2,-1 0,0 1,0 1,-1 1,0 1,0 1,0 0,0 -1,1 -1,1 0,1 -1,1 -2,2 0,0 -1,0 -2,1 0,0 -1,0 -2,0 -1,0 -2,-1 -1,-3 0,0 0,-1 0,-2 0,-1 1,-1 1,-2 0,-1 0,-1 1,-2 -1,0 -1,0 -1,0 -1,0 -2,1 -3,1 -1,0 -3,1 -4,1l0 0c0,2 -1,3 -1,4 -1,1 -1,2 -1,3 -1,0 -1,0 -1,0 0,0 -1,0 -1,1 0,0 -1,0 -1,0 0,0 -1,0 -1,0 0,0 0,0 0,0l0 0c1,-2 2,-4 3,-6 0,0 0,0 0,0 1,-3 2,-5 3,-8 0,0 0,0 0,0 0,0 0,0 0,0 0,0 0,-1 2,-4 0,0 1,0 1,-1 1,0 1,0 1,0 1,0 1,0 1,1 0,-1 0,0 0,0 -1,1 -1,2 -1,3 -1,1 -1,2 -2,3 0,1 -1,2 -1,3 0,0 1,0 1,-1 1,0 2,0 3,0 1,-1 2,-1 3,-1 0,0 0,-1 0,-1l1 -2zm19 14c-1,0 -2,-2 -2,-4 0,-2 0,-4 1,-6 -2,1 -3,3 -5,6 -3,2 -5,4 -7,4 -1,0 -1,-1 -1,-2 0,-2 1,-6 3,-9 3,-5 5,-7 8,-6 1,-1 2,-1 3,-1 0,0 1,0 2,0 1,0 1,0 2,0 0,0 1,0 1,0 0,0 -1,1 -1,2 -1,1 -1,2 -1,2 -1,1 -1,3 -2,5 0,2 0,3 0,5 0,1 0,2 1,2 1,0 2,-1 3,-2 1,-1 2,-1 2,-1 0,0 0,0 0,0 0,1 -1,2 -3,3 -1,1 -2,2 -4,2zm1 -17c-1,0 -1,0 -2,0 -1,0 -2,1 -4,2 -1,1 -2,3 -3,5 -1,3 -2,5 -3,6 0,1 0,1 0,1 0,0 0,1 0,1 1,0 1,-1 2,-1 2,-2 4,-4 6,-6 0,-2 2,-4 4,-8zm29 12c0,2 0,3 2,3 0,0 2,0 3,-2 0,0 1,0 1,-1 0,0 1,0 1,0 0,0 0,0 0,-1 0,0 0,0 0,0 0,1 0,1 0,1 -1,1 -2,2 -3,3 -1,1 -2,2 -3,2 -1,0 -2,0 -2,-1 -1,0 -1,0 -1,-1 -1,0 -1,-1 -1,-2 0,0 0,-1 0,-2 1,-2 1,-4 2,-5 0,0 1,-1 1,-1 -1,1 -2,2 -3,3 -1,1 -3,2 -4,3 -1,1 -2,2 -3,3 -1,0 -2,1 -2,1 -1,0 -1,-1 -1,-2 0,-1 0,-2 1,-4 1,-1 1,-3 2,-5 -1,1 -1,2 -2,3 -1,1 -2,2 -2,4 -1,1 -2,2 -3,3 -1,1 -2,1 -3,2 0,0 -1,0 -2,0 -1,0 -2,0 -3,-1 0,0 0,0 0,-1 0,0 0,-1 0,-1 1,-1 1,-1 1,-1 1,-1 1,-1 2,0 0,1 0,2 1,2 1,0 2,0 3,-1 0,0 1,-1 2,-2 1,-2 2,-3 3,-4 1,-1 2,-2 2,-3 1,-1 1,-2 1,-2 1,-1 2,-2 2,-3 1,-1 2,-1 3,-1 0,0 0,0 0,0 0,0 0,0 0,1 0,1 -1,2 -2,3 0,2 -1,3 -1,4 0,1 -1,2 -1,3 0,1 0,2 0,2 0,1 0,1 0,1 0,0 1,0 1,-1 1,0 2,-1 2,-2 1,-1 2,-2 3,-3 1,-1 1,-2 2,-3 1,-1 1,-2 2,-2 1,-1 1,-2 1,-3 0,0 1,0 1,0 0,0 0,0 1,-1 0,0 1,0 1,0 0,0 0,0 1,0 0,0 0,0 0,0 0,1 -1,1 -1,2 -1,1 -1,3 -2,4 -1,1 -1,3 -2,4 0,2 -1,3 -1,5z"/>
  </g>
  <g id="_2482543986352">
   <path class="fil7 str2" d="M558 319c0,1 0,1 0,1 -1,1 -2,1 -2,1 -1,0 -2,0 -3,-1 -1,0 -1,0 -2,0 -1,0 -1,0 -1,0 -1,0 -1,0 -1,0 -1,1 -1,2 -2,4 0,1 0,2 -1,4 0,1 0,2 -1,3 0,2 -1,3 -2,4 0,1 -1,2 -2,2 -1,1 -2,1 -3,2 -1,0 -2,0 -3,0 -2,1 -3,1 -4,0 -1,0 -2,0 -3,0 -1,-1 -2,-2 -2,-2 -1,-1 -1,-2 -2,-3 0,-1 0,-2 1,-4 0,0 0,-1 0,-1 1,-1 1,-1 1,-1 1,-1 1,-1 1,-1 0,0 0,0 0,1 0,0 0,0 0,0 0,0 0,1 -1,1 0,0 0,0 0,1 -1,0 -1,1 -1,1 0,1 0,2 0,3 1,1 1,1 1,2 1,0 1,1 2,1 0,1 1,1 2,1 0,0 1,1 2,1 0,0 1,0 2,0 1,0 2,-1 2,-1 1,0 2,-1 3,-1 0,0 1,-1 2,-1 0,-1 1,-1 1,-2 0,-1 1,-1 1,-2 1,-1 1,-2 2,-3 0,-1 0,-2 1,-3 0,-1 0,-2 1,-3 0,-1 0,-2 1,-2 0,-1 0,-1 0,-2 -1,0 -3,0 -4,0 -1,0 -2,0 -4,0 -1,0 -2,0 -3,1 -1,0 -2,0 -2,1 -1,1 -1,1 -2,2 0,1 0,2 0,2 0,1 0,1 0,2 1,0 1,1 2,1 1,0 1,0 2,0 1,-1 1,-1 1,-1 1,-1 1,-1 1,-2 0,0 1,0 0,-1l0 0c1,0 1,0 1,0 0,0 0,0 0,1 0,0 0,1 -1,1 0,1 0,1 -1,2 0,0 -1,0 -1,1 -1,0 -2,0 -2,-1 -1,0 -2,0 -2,-1 -1,0 -1,-1 -1,-2 -1,-1 -1,-2 0,-2 0,-1 0,-2 1,-3 1,-1 2,-1 3,-2 1,0 2,0 4,0 1,0 2,0 2,0 1,0 2,0 3,0 1,0 1,0 2,1 1,0 1,0 2,0 0,0 0,0 0,0 0,-1 0,-1 0,-1 0,0 1,0 1,-1 0,0 0,0 0,0l0 0c0,0 1,0 1,0 0,0 0,0 0,0 0,1 0,1 0,1 0,0 0,0 0,0 -1,0 -1,0 -1,0 0,0 0,0 0,0 0,0 0,1 0,1 -1,0 -1,0 -1,0 1,0 1,0 2,0 0,0 1,1 2,1 0,0 1,0 1,0 1,0 2,0 2,0 1,0 1,0 1,0 1,-1 1,-1 1,-1 0,0 0,0 0,0 0,0 0,0 0,0 0,0 0,0 0,0zm-11 23c0,0 0,0 0,1 -1,0 -1,0 -1,0 -1,0 -1,0 -1,0 0,0 0,0 -1,0 1,0 1,0 1,-1 0,0 0,-1 1,-2 0,-1 0,-1 1,-2 0,-1 0,-2 1,-3 0,-1 0,-1 0,-2 1,-1 1,-1 1,-2 0,0 0,1 -1,1 0,0 0,0 0,-1 0,0 0,0 0,0 1,0 1,-1 1,-1 0,0 0,0 0,-1 0,0 0,0 0,-1 0,0 0,0 0,-1 0,0 0,0 -1,0 1,0 1,0 1,0 0,0 0,0 0,0 1,0 1,0 1,0 0,0 0,0 0,0 0,0 0,0 0,0 1,0 1,0 1,0 0,0 0,0 0,1 0,0 0,0 0,1 0,0 0,0 0,1 -1,0 -1,1 -1,1 0,0 0,1 0,1 0,0 1,-1 1,-1 0,-1 1,-1 1,-2 0,0 1,0 1,-1 0,0 1,0 1,-1 1,0 1,0 2,0 0,0 0,-1 1,-1 -1,1 -1,2 -2,3 0,1 0,1 0,1 0,1 0,1 0,2 -1,0 -1,0 -1,1 0,0 0,0 0,0 0,1 0,1 0,1 0,1 0,1 1,1 0,0 0,-1 1,-1 0,0 0,-1 0,-1 1,-1 1,-1 1,-2 0,0 1,-1 1,-1 0,0 0,0 0,0 0,0 0,0 0,0 0,0 0,1 -1,2 0,0 0,1 0,1 -1,1 -1,1 -1,2 -1,0 -1,0 -2,0 0,0 0,0 0,0 -1,0 -1,0 -1,0 0,0 0,-1 0,-1 0,0 0,-1 0,-2 0,0 0,0 0,-1 0,0 1,-1 1,-1 0,-1 0,-1 0,-1 0,0 0,0 0,0 0,0 -1,0 -1,0 0,0 -1,0 -1,1 0,0 0,0 -1,1 0,0 0,0 0,1 -1,0 -1,1 -1,1 -1,1 -1,2 -1,2l-2 7zm20 -13c0,1 0,1 0,2 -1,0 -1,1 -1,1 -1,1 -1,1 -1,2 -1,0 -1,0 -1,0 -1,0 -1,0 -1,0 -1,0 -1,0 -1,0 0,-1 0,-1 0,-2 0,0 0,0 0,-1 0,0 0,1 -1,1 0,1 0,1 0,1 -1,1 -1,1 -1,1 0,1 -1,1 -1,1 0,0 0,0 -1,0 0,0 0,0 0,0 0,0 0,-1 0,-1 -1,0 -1,0 -1,0 0,-1 0,-1 0,-1 0,0 0,-1 0,-1 0,0 0,0 0,-1 1,0 1,0 1,0 0,0 0,0 0,0 -1,0 -1,-1 -1,-1 1,0 1,0 1,0 0,0 0,-1 0,-1 0,0 0,-1 0,-1 1,-1 1,-1 1,-2 0,0 0,0 0,0 1,0 1,0 1,0l2 0c-1,0 -1,0 -1,0 0,0 0,0 0,0 0,1 0,1 -1,1 0,0 0,1 0,1 0,0 0,1 0,1 -1,1 -1,1 -1,1 0,1 0,1 0,1 0,1 -1,2 -1,2 0,0 1,1 1,1 0,0 0,0 0,0 1,0 1,-1 1,-1 1,0 1,-1 1,-2 1,0 1,-1 1,-1 1,-1 1,-2 1,-2 0,-1 0,-2 1,-2 0,0 0,0 0,-1 0,0 0,0 1,0l1 0c0,0 0,0 0,1 -1,0 -1,0 -1,0 0,0 0,1 0,1 0,0 0,0 -1,1 0,0 0,1 0,1 0,0 0,1 0,1 -1,1 -1,1 -1,1 0,1 0,1 0,1 0,1 0,1 0,1 0,0 1,1 1,1 0,0 0,-1 1,-1 0,0 0,-1 0,-1 1,0 1,-1 1,-1 0,-1 1,-2 1,-2 0,0 0,0 0,0 0,0 0,0 0,0zm9 -1c0,1 0,1 -1,1 0,1 0,2 0,2 -1,1 -1,1 -1,2 -1,0 -1,0 -2,0 0,0 -1,0 -1,0 0,0 0,0 0,0 -1,0 -1,0 -2,1 0,0 0,0 -1,0 0,0 -1,0 -1,0 0,-1 0,-1 -1,-1 0,-1 0,-1 0,-2 0,-1 0,-1 1,-2 0,0 0,-1 0,-1 1,-1 1,-1 2,-2 0,0 0,-1 1,-1 0,0 1,0 1,0 1,0 1,0 1,0 1,0 1,0 1,1 0,0 0,1 0,1 0,1 0,2 0,2 0,1 -1,1 -1,2 0,0 -1,1 -1,1 0,1 1,1 1,1 1,0 1,0 1,-1 1,0 1,-1 1,-1 0,-1 1,-1 1,-2 0,0 0,-1 0,-1 0,0 1,0 1,0 0,0 0,0 0,0zm-4 -3c-1,0 -1,0 -1,1 0,0 -1,0 -1,0 0,1 -1,1 -1,2 0,0 0,1 -1,1 0,1 0,1 0,2 0,0 0,1 0,1 0,0 0,1 0,1 0,0 0,0 1,0 0,0 0,0 0,0 1,0 1,0 1,-1 0,0 0,0 0,0 0,0 0,-1 0,-1 0,0 0,0 0,-1 0,0 0,0 0,0 1,0 1,0 1,0 0,0 0,1 0,1 0,0 0,0 0,0 0,0 0,0 0,0 1,0 1,-1 1,-1 0,-1 0,-2 0,-2 0,-1 0,-1 0,-1 0,-1 0,-1 0,-1 0,0 0,-1 0,-1zm-4 -11c1,0 1,-1 2,-1 0,-1 1,-1 2,-1 0,0 1,0 1,0 0,0 1,0 1,0 0,0 1,0 1,0 0,1 1,1 1,1 1,0 1,-1 2,-1 0,0 0,0 0,-1 0,0 0,0 0,0 1,0 1,0 1,0 0,0 0,0 0,0 0,0 0,0 0,0 0,1 0,1 0,1 -1,0 -1,1 -1,1 -1,0 -1,0 -1,1 -1,0 -1,0 -2,0 0,0 0,0 -1,0 0,0 0,0 -1,0 0,-1 0,-1 -1,-1 0,0 0,0 -1,0 0,0 -1,0 -1,1 0,0 0,0 -1,1 0,0 0,0 0,1 0,0 0,1 0,1 1,0 1,1 1,1 0,1 0,1 1,2 0,0 0,1 1,2 0,1 1,2 1,4 0,0 0,0 0,0 0,0 0,0 0,0 -1,0 -1,-1 -1,-1 0,-1 0,-2 -1,-2 0,-1 -1,-2 -1,-3 0,0 0,0 0,-1 -1,0 -1,-1 -1,-1 0,-1 0,-1 -1,-2 0,-1 0,-1 0,-2zm16 13c0,1 0,1 0,2 0,0 -1,1 -1,1 0,1 0,1 -1,2 0,0 -1,0 -1,0 -1,0 -1,0 -1,0 -1,0 -1,0 -1,0 0,0 -1,0 -1,1 0,0 -1,0 -1,0 -1,0 -1,0 -1,0 -1,-1 -1,-1 -1,-1 0,-1 0,-1 0,-2 0,0 0,-1 0,-2 0,0 1,-1 1,-1 0,-1 1,-1 1,-2 0,0 1,-1 1,-1 1,0 1,0 2,0 0,0 0,0 1,0 0,0 0,1 0,1 1,0 1,1 1,2 0,0 0,1 -1,1 0,1 0,1 0,2 -1,0 -1,1 -2,1 1,1 1,1 2,1 0,0 1,0 1,-1 0,0 0,0 1,-1 0,0 0,-1 0,-2 1,0 1,0 1,-1 0,0 0,0 0,0 0,0 0,0 0,0zm-4 -3c0,0 0,0 -1,1 0,0 0,0 -1,0 0,1 0,1 0,2 -1,0 -1,1 -1,1 0,1 0,1 -1,2 0,0 0,1 0,1 0,0 0,1 1,1 0,0 0,0 0,0 0,0 1,0 1,0 0,0 0,0 1,0 0,-1 -1,-1 -1,-1 0,0 0,0 0,-1 0,0 0,0 0,0 0,-1 1,-1 1,-1 0,0 0,0 1,0 0,0 0,1 0,1 0,0 0,0 0,0 0,0 0,0 0,0 0,0 0,-1 0,-1 1,-1 1,-1 1,-2 0,0 0,-1 0,-1 0,-1 0,-1 0,-1 0,0 -1,0 -1,-1zm11 3c-1,0 -1,1 -1,2 0,0 -1,1 -1,1 0,1 -1,1 -1,2 -1,0 -1,0 -2,0 0,0 -1,0 -2,0 0,-1 0,-1 -1,-2 0,0 0,-1 0,-1 1,-1 1,-1 1,-2 0,0 0,0 0,-1 0,0 1,-1 1,-1 0,0 1,-1 1,-1 0,0 1,-1 1,-1 0,0 1,0 1,0 1,0 1,0 1,0 0,0 1,0 1,1 0,0 0,0 0,1 0,0 -1,0 -1,1 0,0 0,0 -1,1 0,0 0,0 -1,0 0,0 0,1 0,1 -1,0 -1,0 -1,0 -1,0 -1,0 -1,0 0,0 0,1 0,1 0,1 0,1 0,1 0,1 0,1 0,1 1,1 1,1 1,1 1,0 1,-1 2,-1 0,0 1,-1 1,-1 0,-1 0,-1 1,-2 0,0 0,-1 0,-1 0,0 0,0 0,0 0,-1 0,-1 0,-1 1,0 1,0 1,1 0,0 0,0 0,0zm-3 -1c0,0 0,0 1,-1 0,0 0,0 0,-1 0,0 0,0 0,-1 0,0 0,0 0,0 -1,0 -1,0 -1,1 -1,0 -1,1 -1,1 -1,1 -1,1 -1,2 -1,0 -1,0 -1,1 0,0 1,0 1,0 0,0 0,-1 0,-1 1,0 1,0 1,0 0,0 1,0 1,-1zm13 0c-1,1 -1,1 -1,2 0,0 -1,1 -1,1 0,1 0,1 -1,1 0,1 0,1 -1,1 0,1 0,2 -1,3 0,1 -1,2 -2,3 0,1 -1,1 -2,2 -1,0 -1,1 -2,1 -2,0 -3,-1 -3,-2 0,0 0,-1 1,-2 0,0 0,-1 1,-1 1,0 1,-1 2,-1 0,0 1,-1 1,-1 1,0 2,-1 2,-1 1,0 1,0 2,0 0,-1 0,-1 0,-2 0,0 0,-1 0,-1 0,-1 0,-1 0,-2 0,0 0,0 0,0 -1,0 -1,0 -1,1 0,1 -1,1 -1,2 0,0 -1,1 -1,1 -1,0 -1,1 -2,0 0,0 -1,0 -1,-1 0,0 0,-1 0,-1 0,-1 0,-2 0,-3 1,0 1,-1 1,-2 1,0 1,-1 2,-1 0,0 0,-1 1,-1 1,0 1,0 2,0 0,0 1,0 1,1 0,0 1,0 1,0 0,0 0,0 0,1 0,0 -1,0 -1,0 0,0 0,0 0,-1 0,0 0,0 -1,0 0,-1 0,0 -1,0 0,0 -1,0 -1,0 0,1 -1,1 -1,2 0,0 -1,1 -1,2 0,0 -1,1 -1,1 0,1 0,1 0,2 0,0 0,1 1,1 0,0 0,0 1,-1 0,0 1,-1 1,-1 0,-1 1,-1 1,-2 0,-1 0,-1 1,-2 0,0 0,0 0,0 0,0 0,0 0,-1 0,0 1,0 1,0 0,0 0,0 0,0 0,1 0,2 0,3 1,1 0,2 0,3 1,0 1,0 1,0 0,-1 1,-1 1,-1 0,-1 1,-2 1,-2 0,-1 0,-1 0,-1 0,0 0,-1 0,-1 1,0 1,1 1,1zm-6 6c0,0 0,0 0,1 0,0 0,0 -1,0 0,0 -1,1 -2,1 -1,1 -2,1 -3,2 0,0 -1,0 -1,1 0,0 0,1 0,1 0,1 0,1 0,1 0,0 0,0 1,0 0,0 1,0 1,0 0,0 0,0 1,0 0,0 0,-1 1,-1 0,0 0,0 0,0 0,-1 1,-1 1,-1 0,-1 1,-1 1,-2 1,-1 1,-2 1,-3z"/>
   <path class="fil7 str2" d="M609 325c0,0 0,1 0,1 0,1 -1,1 -1,2 0,0 -1,1 -1,1 0,1 -1,1 -1,1 -1,0 -1,0 -1,0 -1,0 -1,0 -1,-1 0,1 -1,1 -1,1 -1,0 -1,1 -1,1 -1,0 -1,-1 -1,-1 -1,0 -1,0 -1,-1 0,0 0,-1 0,-1 0,-1 0,-1 0,-2 0,-1 1,-1 1,-2 0,0 1,-1 1,-1 0,-1 1,-1 1,-1 1,-1 1,-1 1,-1 1,0 1,0 2,1 0,0 0,0 0,1 0,0 1,1 1,1 -1,1 -1,1 -1,2 0,0 0,1 -1,1 0,1 0,2 -1,2 1,0 1,1 2,1 0,0 0,-1 1,-1 0,0 0,-1 1,-1 0,-1 0,-1 0,-2 0,0 1,-1 1,-1 0,0 0,0 0,0 0,0 0,0 0,0zm-4 -3c0,0 0,0 -1,0 0,0 0,1 -1,1 0,0 0,1 -1,1 0,1 0,1 0,2 0,0 -1,1 -1,1 0,1 0,1 0,2 0,0 0,0 0,1 0,0 1,0 1,0 0,0 0,0 1,0 0,0 0,-1 1,-1 -1,0 -1,0 -1,0 0,-1 0,-1 0,-1 0,0 0,-1 0,-1 0,0 1,0 1,0 0,0 0,0 0,0 1,0 1,0 1,0 0,0 0,1 0,1 0,0 0,0 0,0 0,-1 0,-1 0,-2 1,0 1,-1 1,-1 0,-1 0,-1 0,-2 0,0 0,0 0,-1 0,0 -1,0 -1,0zm7 -2c2,-1 3,-2 4,-3 2,0 3,-2 4,-3 0,-1 1,-1 1,-2 1,-1 1,-1 1,-2 0,-1 0,-1 0,-2 0,0 0,0 -1,0 0,0 -1,0 -2,1 0,0 -1,1 -1,1 -1,1 -1,2 -2,3 0,0 -1,1 -1,2 -1,1 -1,2 -2,2 0,1 0,2 -1,3zm-2 1c1,-1 1,-3 2,-4 1,-2 1,-3 2,-4 1,-1 1,-1 2,-2 0,-1 1,-1 1,-2 1,0 1,-1 2,-1 0,-1 1,-1 2,-1 0,0 1,0 1,0 0,0 1,1 1,1 0,0 0,1 0,1 0,1 0,1 0,2 -1,1 -1,1 -1,2 -1,0 -1,1 -2,2 -1,1 -2,2 -3,3 -2,1 -3,2 -5,2 0,1 0,1 -1,1 0,1 0,1 0,1 0,1 0,2 -1,3 0,0 0,1 0,2 0,0 0,1 0,1 0,1 1,1 1,1 1,0 1,0 2,-2 0,0 1,-1 1,-1 0,-1 1,-1 1,-2 0,0 0,-1 0,-1 0,-1 0,-1 0,-1 0,-1 0,-1 -1,-1 0,0 0,0 -1,0 0,0 0,0 0,0 0,0 0,0 0,0 0,0 0,0 0,-1 0,0 0,0 1,0 0,0 1,1 1,1 0,0 0,0 1,0 0,1 0,1 0,2 0,0 0,0 0,1 0,0 0,1 0,1 0,1 -1,2 -1,2 0,1 -1,1 -1,1 -1,1 -1,1 -2,1 0,1 -1,1 -1,1 -1,0 -1,0 -2,-1 0,0 0,0 0,-1 0,0 0,0 0,-1 0,0 0,-1 0,-1 0,-1 0,-1 1,-2 -1,1 -1,2 -2,3 0,1 0,2 -1,2 0,0 0,0 0,0 0,0 0,0 0,0 0,-1 1,-1 1,-2 0,0 0,-1 1,-2 0,0 0,-1 0,-2 1,-1 1,-1 1,-2zm0 0c0,0 0,0 -1,0 0,0 0,0 -1,-1 0,0 0,0 0,0 0,0 0,0 0,0 0,-1 0,-1 0,-1 0,0 0,0 0,0 0,0 0,0 0,0 1,0 1,0 1,1l0 0c0,0 0,0 0,0 1,0 1,0 2,0l-1 1zm34 -11c0,0 0,1 -1,1 0,1 0,1 -1,2 0,1 -1,1 -2,2 -1,0 -2,0 -4,1 -1,0 -3,0 -4,0 -1,0 -2,0 -4,0 0,0 0,1 0,1 -1,1 -1,1 -1,2 -1,0 -1,1 -1,2 0,0 -1,1 -1,2 0,1 0,3 0,4 0,1 0,1 1,1 1,1 2,1 3,0 1,0 2,-1 3,-2 0,-1 1,-2 2,-2 0,-1 1,-2 1,-3 1,0 1,-1 2,-2 0,-1 0,-1 1,-2 0,-1 0,-1 1,-1 0,-1 0,-1 0,0 1,0 1,0 1,0 0,1 0,1 -1,2 0,0 0,1 -1,1 0,1 0,1 -1,2 0,1 0,1 0,2 0,1 0,1 0,2 -1,1 -1,2 0,2 0,1 0,1 1,1 0,0 0,0 1,-1 0,0 1,-1 1,-1 1,-1 1,-2 1,-2 1,-1 1,-2 1,-2 0,0 0,-1 1,-1 0,0 0,1 0,1 0,0 0,0 -1,1 0,0 0,1 0,1 0,0 0,1 -1,1 0,0 0,1 0,1 0,0 -1,1 -1,1 0,0 0,1 -1,1 0,0 0,0 -1,0 0,1 0,1 -1,1 0,0 -1,0 -1,-1 0,0 -1,0 -1,0 0,-1 0,-1 0,-2 0,0 0,-1 0,-1 0,-1 0,-1 0,-2 0,0 0,0 1,-1 -1,1 -1,1 -2,2 0,0 -1,1 -1,2 -1,0 -1,1 -2,1 0,1 -1,1 -2,1 0,1 -1,1 -2,1 0,0 -1,0 -1,0 -1,0 -2,0 -2,-1 0,-1 -1,-2 -1,-2 0,-1 0,-2 1,-4 0,-1 0,-2 1,-3 0,-1 0,-1 1,-2 0,0 0,-1 1,-2 -1,0 -1,0 -2,0 0,0 -1,-1 -1,-1 0,0 0,0 -1,-1 0,0 0,0 0,-1 0,0 0,0 0,0 0,-1 0,-1 0,-1 1,0 1,0 1,0 0,0 0,0 0,1 0,0 0,0 0,1 0,0 0,0 1,0 0,1 1,2 2,2 1,-1 2,-2 2,-3 1,-1 2,-2 3,-2 1,-1 2,-2 3,-2 1,-1 3,-1 4,-1 1,0 2,0 3,1 1,0 1,1 2,2zm-2 0c0,-1 0,-2 -1,-2 0,0 -1,0 -2,0 -1,0 -2,0 -3,1 -1,0 -2,1 -3,1 -1,1 -2,2 -2,3 -1,0 -2,1 -2,2 1,1 2,1 3,1 1,0 2,-1 4,-1 1,0 2,0 3,-1 1,0 1,-1 2,-1 0,0 1,-1 1,-2 0,0 1,-1 0,-1zm4 16c0,0 0,0 0,0 -1,1 -1,1 -1,1 0,0 -1,0 -1,-1 0,0 0,0 0,0 0,-1 0,-1 0,-1 1,0 1,0 1,0 0,0 1,0 1,0 0,0 0,0 0,1zm20 -6c0,0 0,1 0,1 -1,1 -1,1 -1,2 0,0 -1,1 -1,1 0,0 -1,1 -1,1 -1,1 -2,1 -2,2 -1,0 -2,0 -3,1 -1,0 -2,0 -2,0 -1,0 -2,0 -3,-1 -1,0 -2,0 -3,-1 -1,-1 -1,-2 -2,-3 0,-1 0,-2 0,-3 0,-1 0,-2 0,-3 0,-1 0,-2 1,-3 0,-1 0,-2 1,-3 0,0 0,0 0,-1 -1,0 -1,-1 -1,-1 0,-1 0,-1 0,-2 0,0 0,-1 0,-1 0,-1 0,-1 0,-1 0,0 1,0 1,0 0,0 0,0 0,0 0,0 0,1 0,1 0,1 0,1 0,2 0,1 0,2 0,3 2,-2 3,-4 5,-5 2,-1 4,-1 6,-1 1,0 2,0 3,0 1,1 1,1 2,2 0,0 1,1 1,2 0,1 0,1 0,2 0,1 -1,2 -1,2 -1,1 -1,2 -2,2 -1,1 -2,1 -3,2 -1,0 -2,0 -3,0 -2,0 -3,0 -4,-1 -1,0 -2,-1 -3,-3 0,1 0,1 -1,2 0,0 0,1 0,2 0,1 -1,2 -1,3 0,1 0,2 1,3 0,1 0,2 1,2 1,1 2,2 3,2 1,0 3,0 4,0 2,-1 3,-1 4,-2 1,0 1,-1 1,-1 1,-1 1,-1 1,-2 1,0 1,-1 1,-1 0,-1 1,-1 1,-2 0,0 0,0 0,0 0,0 0,0 0,1zm-5 -14c-1,0 -2,0 -3,0 -1,0 -2,1 -3,2 0,0 -1,1 -2,2 -1,1 -1,1 -2,2 1,2 2,3 3,4 1,0 3,0 4,0 1,0 3,0 4,0 1,-1 2,-1 3,-2 0,-1 1,-2 1,-3 0,-1 0,-2 0,-2 -1,-1 -1,-2 -2,-2 -1,-1 -2,-1 -3,-1zm8 17c0,1 0,1 0,1 0,0 0,0 -1,0 0,0 0,0 0,0 -1,0 -1,0 -1,-1 0,0 1,0 1,0 0,-1 0,-1 1,-1 0,0 0,0 0,1 0,0 1,0 0,0z"/>
  </g>
  <g id="_2482544044880">
   <path class="fil8 str3" d="M228 163c-3,1 -5,1 -9,1 -4,0 -8,-1 -11,-3 -2,-3 -4,-6 -4,-10 0,-4 2,-8 5,-10 3,-3 7,-4 11,-4 3,0 6,0 8,1l0 5c-2,-1 -5,-2 -7,-2 -3,0 -6,1 -8,3 -2,2 -3,4 -3,7 0,2 1,5 3,6 2,2 4,3 7,3 3,0 5,-1 8,-2l0 5zm24 -18l-9 21c-2,4 -5,7 -9,7 -1,0 -2,-1 -3,-1l0 -4c0,0 1,1 2,1 2,0 3,-1 4,-3l1 -2 -8 -19 6 0 4 12c1,1 1,1 1,2 0,0 0,-1 1,-2l4 -12 6 0zm2 9c0,-3 1,-5 3,-7 2,-2 5,-3 8,-3 4,0 6,1 8,3 2,2 3,4 3,7 0,3 -1,6 -3,7 -2,2 -4,3 -8,3 -3,0 -6,-1 -8,-3 -2,-1 -3,-4 -3,-7zm6 0c0,4 1,6 5,6 4,0 6,-2 6,-6 0,-4 -2,-6 -6,-6 -2,0 -3,1 -4,2 -1,1 -1,2 -1,4zm39 10l-6 0 0 -8 -2 0c-1,0 -2,1 -3,3l-3 5 -6 0 3 -6c1,-1 2,-2 4,-3 -3,0 -5,-2 -5,-5 0,-3 3,-5 9,-5l9 0 0 19zm-6 -11l0 -5 -3 0c-2,0 -3,1 -3,3 0,1 1,2 3,2l3 0zm18 8l0 11 -6 0 0 -27 6 0 0 3c1,-3 4,-4 7,-4 2,0 5,1 6,3 2,1 3,4 3,7 0,3 -1,5 -3,7 -2,2 -4,3 -7,3 -3,0 -5,-1 -6,-3zm0 -6c0,2 0,3 1,4 1,1 2,1 3,1 2,0 3,0 4,-2 1,-1 2,-2 2,-4 0,-4 -2,-6 -5,-6 -2,0 -3,1 -4,2 -1,1 -1,2 -1,4l0 1zm20 9l0 -19 11 0c5,0 8,1 8,4 0,3 -1,4 -4,5 1,0 3,0 3,1 1,1 2,2 2,3 0,2 -1,3 -2,4 -2,1 -4,2 -6,2l-12 0zm6 -16l0 4 4 0c2,0 3,0 3,-2 0,-1 -1,-2 -3,-2l-4 0zm0 8l0 4 4 0c3,0 4,-1 4,-2 0,-2 -1,-2 -4,-2l-4 0zm35 7c-2,1 -4,1 -7,1 -3,0 -6,-1 -8,-3 -2,-1 -3,-4 -3,-6 0,-4 1,-6 4,-8 2,-2 5,-3 8,-3 2,0 4,1 6,1l0 5c-2,-1 -4,-2 -5,-2 -2,0 -4,1 -5,2 -1,1 -2,2 -2,4 0,2 1,4 2,5 1,1 3,1 4,1 2,0 4,0 6,-1l0 4zm25 1l-7 0 -8 -10 0 10 -6 0 0 -19 6 0 0 8 7 -8 7 0 -8 9 9 10zm23 0l-5 0 0 -14c-1,1 -1,2 -2,3l-8 11 -6 0 0 -19 6 0 0 13c0,-1 1,-2 1,-3l8 -10 6 0 0 19zm26 0l-5 0 0 -14c0,1 -1,2 -1,3l-8 11 -6 0 0 -19 5 0 0 13c1,-1 1,-2 2,-3l8 -10 5 0 0 19zm-3 -28c0,2 -1,3 -2,4 -2,1 -3,2 -5,2 -2,0 -3,-1 -5,-2 -1,-1 -1,-2 -2,-4l4 0c0,2 1,3 3,3 2,0 3,-1 4,-3l3 0zm30 25l0 11 -6 0 0 -27 6 0 0 3c2,-3 4,-4 7,-4 3,0 5,1 7,3 1,1 2,4 2,7 0,3 -1,5 -3,7 -1,2 -4,3 -7,3 -2,0 -4,-1 -6,-3zm0 -6c0,2 0,3 1,4 1,1 2,1 4,1 1,0 3,0 4,-2 1,-1 1,-2 1,-4 0,-4 -1,-6 -5,-6 -1,0 -3,1 -4,2 -1,1 -1,2 -1,4l0 1zm21 -9c1,-1 2,-1 4,-1 2,-1 3,-1 4,-1 6,0 9,3 9,8l0 12 -6 0 0 -3c-1,2 -3,3 -6,3 -2,0 -4,0 -5,-1 -1,-1 -2,-3 -2,-5 0,-3 3,-5 7,-6l6 -1c0,-2 -1,-3 -4,-3 -2,0 -5,1 -7,2l0 -4zm7 9c-2,0 -4,1 -4,3 0,1 1,1 1,2 1,0 2,0 3,0 1,0 2,0 3,-1 1,-1 1,-2 1,-3l0 -1 -4 0zm36 9l-5 0 0 -14c-1,1 -1,2 -2,3l-8 11 -5 0 0 -19 5 0 0 13c0,-1 1,-2 1,-3l8 -10 6 0 0 19zm-4 -28c0,2 -1,3 -2,4 -1,1 -3,2 -4,2 -2,0 -4,-1 -5,-2 -1,-1 -2,-2 -2,-4l3 0c0,2 2,3 4,3 2,0 3,-1 3,-3l3 0zm9 18c0,-3 1,-5 3,-7 2,-2 5,-3 8,-3 4,0 6,1 8,3 2,2 3,4 3,7 0,3 -1,6 -3,7 -2,2 -4,3 -8,3 -3,0 -6,-1 -8,-3 -2,-1 -3,-4 -3,-7zm6 0c0,4 1,6 5,6 4,0 6,-2 6,-6 0,-4 -2,-6 -6,-6 -2,0 -3,1 -4,2 -1,1 -1,2 -1,4zm41 10l-6 0 0 -8 -8 0 0 8 -6 0 0 -19 6 0 0 7 8 0 0 -7 6 0 0 19z"/>
   <path class="fil8 str3" d="M184 199l0 9 -6 0 0 -26 10 0c8,0 12,2 12,8 0,3 -2,5 -4,6 -2,2 -5,3 -8,3l-4 0zm0 -13l0 9 3 0c4,0 6,-2 6,-5 0,-3 -2,-4 -6,-4l-3 0zm39 14l-15 0c0,3 2,5 6,5 3,0 5,-1 7,-2l0 4c-2,1 -5,2 -8,2 -3,0 -6,-1 -8,-3 -2,-2 -3,-4 -3,-7 0,-3 1,-6 3,-7 2,-2 5,-3 8,-3 3,0 5,1 7,2 2,2 3,4 3,7l0 2zm-6 -3c0,-3 -1,-5 -4,-5 -1,0 -2,1 -3,1 -1,1 -2,2 -2,4l9 0zm26 10c-2,1 -4,2 -7,2 -3,0 -5,-1 -7,-3 -2,-2 -3,-4 -3,-7 0,-3 1,-6 3,-8 2,-1 5,-2 8,-2 3,0 5,0 6,1l0 4c-2,-1 -3,-1 -5,-1 -2,0 -4,0 -5,1 -1,1 -2,3 -2,5 0,2 1,3 2,4 1,1 3,2 5,2 2,0 3,-1 5,-2l0 4zm24 1l-5 0 0 -15 -9 0 0 15 -6 0 0 -19 20 0 0 19zm26 -19l-9 21c-2,5 -5,7 -9,7 -1,0 -3,0 -4,0l0 -5c1,1 2,1 3,1 2,0 3,-1 4,-2l1 -3 -9 -19 7 0 4 13c0,0 1,1 1,2 0,-1 0,-2 1,-2l4 -13 6 0zm21 -5c0,0 -1,1 -2,1 -4,0 -6,0 -7,1 -1,0 -2,1 -3,2 0,1 -1,2 -1,4 1,-1 4,-2 7,-2 2,0 5,0 7,2 1,2 2,4 2,7 0,3 -1,5 -3,7 -2,2 -5,3 -8,3 -4,0 -6,-1 -8,-4 -2,-2 -3,-5 -3,-9 0,-3 0,-5 1,-8 1,-2 2,-3 3,-4 2,-1 3,-2 4,-2 2,0 5,-1 8,-1 2,-1 3,-1 3,-1l0 4zm-13 12c-1,3 0,5 1,7 1,1 2,2 4,2 2,0 3,-1 4,-2 1,-1 1,-2 1,-4 0,-2 0,-3 -1,-4 -1,-1 -2,-2 -4,-2 -2,0 -4,1 -5,3zm40 12l-6 0 0 -15 -4 0c-1,6 -2,10 -3,12 -2,2 -4,3 -6,3 -1,0 -2,0 -3,0l0 -4c1,1 1,1 2,1 1,0 2,-1 3,-3 1,-2 2,-6 3,-13l14 0 0 19zm26 0l-5 0 0 -13c0,1 -1,2 -1,2l-9 11 -5 0 0 -19 5 0 0 13c1,-1 1,-1 2,-2l8 -11 5 0 0 19zm27 0l-7 0 -8 -9 0 9 -6 0 0 -19 6 0 0 9 7 -9 7 0 -8 9 9 10zm23 0l-5 0 0 -13c0,1 -1,2 -2,2l-8 11 -5 0 0 -19 5 0 0 13c0,-1 1,-1 1,-2l9 -11 5 0 0 19zm46 0l-8 0 -9 -12c-1,0 -1,0 -1,-1l0 13 -6 0 0 -26 6 0 0 12c0,0 0,-1 1,-1l9 -11 7 0 -11 12 12 14zm3 -18c1,0 2,-1 4,-1 1,0 3,0 4,0 6,0 9,2 9,7l0 12 -6 0 0 -3c-2,2 -4,4 -7,4 -2,0 -3,-1 -4,-2 -2,-1 -2,-2 -2,-4 0,-4 2,-6 7,-6l6 -1c0,-3 -1,-4 -4,-4 -3,0 -5,1 -7,2l0 -4zm7 9c-3,1 -4,2 -4,3 0,1 0,2 1,2 1,1 1,1 2,1 2,0 3,-1 4,-1 1,-1 1,-2 1,-4l0 -1 -4 0zm21 7l0 11 -6 0 0 -28 6 0 0 3c2,-2 4,-3 7,-3 3,0 5,1 6,2 2,2 3,4 3,7 0,3 -1,6 -3,8 -2,2 -4,3 -7,3 -3,0 -5,-1 -6,-3zm0 -6c0,1 0,2 1,3 1,1 2,2 4,2 1,0 3,-1 4,-2 0,-1 1,-3 1,-5 0,-4 -2,-5 -5,-5 -2,0 -3,0 -4,1 -1,1 -1,2 -1,4l0 2zm39 0l-14 0c0,3 2,5 6,5 3,0 5,-1 7,-2l0 4c-2,1 -5,2 -8,2 -4,0 -6,-1 -8,-3 -2,-2 -3,-4 -3,-7 0,-3 1,-6 3,-7 2,-2 5,-3 8,-3 3,0 5,1 7,2 1,2 2,4 2,7l0 2zm-5 -3c0,-3 -2,-5 -4,-5 -2,0 -3,1 -3,1 -1,1 -2,2 -2,4l9 0zm29 11l-6 0 0 -15 -4 0c-1,6 -2,10 -4,12 -1,2 -3,3 -6,3 -1,0 -1,0 -2,0l0 -4c0,1 1,1 2,1 1,0 2,-1 3,-3 1,-2 2,-6 2,-13l15 0 0 19zm26 0l-5 0 0 -13c0,1 -1,2 -2,2l-8 11 -5 0 0 -19 5 0 0 13c0,-1 1,-1 1,-2l8 -11 6 0 0 19zm24 0l-6 0 0 -7 -2 0c-1,0 -2,1 -3,3l-2 4 -7 0 3 -5c1,-2 3,-3 4,-3 -3,-1 -5,-3 -5,-5 0,-4 3,-6 9,-6l9 0 0 19zm-6 -10l0 -5 -3 0c-2,0 -3,0 -3,2 0,2 1,3 3,3l3 0z"/>
  </g>
  <g id="_2482544038928">
   <path class="fil7 str2" d="M305 292c0,1 0,2 -1,3 -1,1 -1,1 -2,1 0,0 0,0 0,0 0,0 0,0 0,0 0,-1 0,-2 0,-3 0,-1 0,-2 -1,-2 0,0 -1,1 -2,1 -1,1 -3,3 -4,6 -2,3 -3,6 -3,7 0,1 1,2 2,2 1,0 3,0 4,-1 1,-1 2,-2 4,-3 1,-1 1,-2 1,-2 0,0 0,0 0,1 0,1 0,2 -2,3 -3,2 -7,4 -10,4 -1,0 -2,-1 -2,-1 0,0 -1,-1 -1,-2 0,0 1,-1 1,-2 1,-3 2,-7 5,-9 2,-3 5,-5 9,-5 1,0 2,1 2,2zm11 12c0,0 1,1 1,2 0,1 0,1 1,1 1,0 2,-1 3,-2 1,0 1,-1 1,-1 1,0 1,0 1,0 0,-1 1,-1 1,-1 0,0 0,0 0,0 0,0 0,1 -1,1 0,1 -1,2 -2,3 -2,1 -3,2 -4,2 -1,0 -1,-1 -2,-1 0,0 -1,-1 -1,-1 0,-1 -1,-1 -1,-2 0,-1 0,-2 1,-3 0,-1 0,-2 0,-3 1,-1 1,-1 1,-2 0,1 -1,2 -2,3 -1,1 -1,2 -2,3 -1,1 -2,2 -2,3 -1,1 -2,1 -3,2 -1,0 -1,0 -2,0 -1,0 -2,0 -3,-1 0,0 0,-1 0,-1 0,-1 0,-1 0,-1 0,-1 1,-1 1,-1 1,-1 1,-1 2,0 0,1 0,2 1,2 1,0 2,0 3,-1 0,0 1,-1 2,-2 1,-2 2,-3 3,-4 1,-1 2,-3 2,-4 1,-1 1,-1 1,-1 1,-1 1,-2 2,-2 0,-1 1,-1 2,-1 0,0 0,0 0,0 0,0 0,1 -1,1 0,1 0,2 -1,4 0,1 0,2 -1,4 0,1 0,2 -1,4zm22 5c-2,0 -3,-2 -3,-4 0,-2 1,-4 1,-6 -1,1 -3,3 -5,6 -2,2 -5,4 -6,4 -1,0 -1,-1 -1,-2 0,-2 1,-6 3,-9 3,-5 5,-7 7,-6 2,-1 3,-1 4,-1 0,0 1,0 2,0 1,0 1,-1 2,-1 0,0 0,1 0,1 0,0 0,1 0,2 -1,1 -1,2 -2,2 0,1 -1,3 -1,5 0,2 -1,3 -1,4 0,2 1,3 2,3 1,0 2,-1 3,-2 1,-1 2,-1 2,-1 0,0 0,0 0,0 0,1 -1,2 -3,3 -2,1 -3,2 -4,2zm0 -17c0,0 0,0 -1,0 -1,0 -3,1 -4,2 -1,1 -2,3 -4,5 -1,3 -2,5 -2,6 0,1 0,1 0,1 0,0 0,1 0,1 0,0 1,-1 1,-1 3,-2 5,-4 6,-6 1,-2 2,-4 4,-8zm25 -2l-1 2c0,0 -1,3 -3,6 -1,3 -2,7 -5,12 1,0 1,0 2,0 1,0 1,1 1,1 0,0 -1,0 -3,0l0 0c-2,5 -5,9 -8,12 -3,4 -7,6 -12,6 -2,0 -3,-1 -5,-2 -2,-1 -3,-2 -3,-4 0,-3 4,-7 10,-9 5,-2 10,-3 16,-4 1,-2 2,-4 2,-6 1,-2 1,-3 2,-5 -1,1 -3,3 -5,6 -3,2 -5,4 -6,4 -1,0 -1,-1 -1,-2 0,-2 1,-6 3,-9 3,-5 5,-7 7,-6 2,-1 3,-1 3,-1 1,0 1,0 2,0l1 0c0,-1 1,-1 2,-1 1,0 1,0 1,0l0 0zm-5 2c0,0 -1,0 -1,0 -1,0 -3,1 -4,2 -1,1 -2,3 -4,5 -1,3 -2,5 -2,6 0,1 0,1 0,1 0,0 0,1 0,1 0,0 1,-1 1,-1 3,-2 4,-4 6,-6 1,-2 2,-4 4,-8zm-7 19c-5,1 -10,2 -14,4 -5,2 -8,5 -8,8 0,2 0,3 2,4 0,0 2,1 3,1 4,0 7,-2 11,-6 2,-3 5,-7 6,-11zm22 -22c2,0 3,1 3,3 0,2 0,5 -2,8 -2,3 -4,5 -6,7 1,0 2,1 3,1 0,0 0,0 0,0 0,0 0,0 0,0 -1,0 -2,0 -3,-1 -2,1 -3,2 -5,2 -2,0 -3,-1 -3,-3 0,-2 0,-4 2,-7 1,-2 2,-4 4,-5l0 0c0,-2 1,-3 2,-4 2,0 3,-1 5,-1zm1 4c0,-2 -1,-2 -2,-2 -1,0 -2,0 -2,1 0,1 0,1 0,1 0,1 0,1 0,1 -1,0 -2,1 -3,2 0,1 0,2 0,4 0,2 0,4 1,6 1,-1 2,-3 4,-6 1,-3 2,-5 2,-7zm-7 13c-1,-2 -2,-4 -2,-7 -1,2 -2,4 -2,5 0,2 1,3 2,3 1,0 2,0 2,-1zm16 -8l0 1c4,-5 8,-7 10,-9 0,0 1,0 1,0 1,0 1,0 1,1 0,0 -1,1 -3,2 -3,2 -7,4 -9,7 0,1 1,2 2,4 1,2 2,3 3,3 1,0 1,-1 2,-2 1,-2 2,-3 2,-3 0,0 0,1 0,1 0,0 0,0 0,0 -1,2 -1,3 -2,4 -1,1 -2,1 -3,1 -1,0 -2,0 -4,-2 -1,-2 -1,-3 -1,-5 -2,1 -3,3 -3,4 0,0 0,0 0,0 0,1 -1,2 -2,3 0,1 -1,1 -2,1 0,0 -1,0 -1,0 1,-1 1,-1 2,-2 1,-2 2,-5 4,-9 0,-1 0,-1 0,-2 0,0 0,-1 2,-1 3,-8 6,-14 9,-19 0,0 0,0 0,0 0,-1 0,-1 0,-1 1,-2 2,-3 2,-3 1,-1 2,-1 3,-1 1,0 2,0 2,0 0,0 -1,2 -3,4 -3,5 -6,10 -9,16 -2,4 -3,6 -3,7zm34 11c-1,0 -2,-2 -2,-4 0,-1 0,-2 0,-4 0,-2 1,-3 1,-3 -6,6 -10,10 -12,10 -1,0 -2,-1 -2,-2 0,-2 1,-3 1,-5 1,-1 1,-2 3,-5l0 0c0,0 -1,0 -1,0 0,0 0,-1 0,-1 2,-2 2,-3 3,-3 0,-1 2,-1 3,-1 0,0 1,0 1,0 0,0 -2,2 -4,6 0,1 -1,2 -2,4 -1,2 -1,3 -1,4 0,0 0,1 1,1 0,0 1,-1 2,-2 3,-2 6,-6 8,-10l1 0c0,-2 1,-3 1,-3 1,0 2,-1 3,-1 1,0 1,1 1,1 0,0 0,1 -1,1 -1,1 -1,2 -2,2 0,1 -1,3 -1,5 0,2 0,4 0,5 0,2 0,3 1,3 1,0 2,-1 3,-2 1,-1 2,-1 2,-1 0,0 0,0 0,0 0,1 -1,2 -3,3 -1,1 -3,2 -4,2zm38 -6c0,0 0,0 0,0 0,0 0,0 0,1 -1,1 -2,2 -3,3 -1,1 -3,1 -4,1 -2,0 -4,-1 -4,-4 0,-1 1,-4 2,-7 0,-1 1,-2 1,-2 0,-1 -1,-1 -1,-1 0,0 -1,0 -1,1 -2,1 -4,3 -6,6 -2,2 -3,5 -4,6 0,1 -1,1 -2,2 -1,0 -1,0 -1,0 -1,0 -1,0 -1,0 2,-3 4,-8 6,-12 0,-1 0,-1 1,-2 0,0 0,0 -1,0 0,0 0,0 0,0 0,0 1,-1 2,-4 0,0 1,0 1,-1 1,0 1,0 2,0 0,0 0,0 0,1 0,0 -1,3 -5,10 2,-1 4,-3 6,-6 3,-3 5,-4 6,-4 1,0 1,0 1,1 0,1 0,2 -1,3 -1,5 -2,8 -2,9 0,2 1,3 2,3 1,0 2,-1 4,-2 1,-2 2,-2 2,-2z"/>
   <path class="fil7 str2" d="M460 309c-2,0 -3,-1 -4,-1 -4,7 -6,12 -6,15 0,2 1,3 2,3 1,0 2,0 3,-1 1,-1 2,-2 2,-2 0,0 0,0 0,0 0,1 -1,2 -3,4 -2,1 -3,1 -4,1 -2,0 -3,-1 -3,-4 0,-3 3,-9 7,-18 0,0 0,-1 0,-1 0,-2 1,-3 3,-3 2,-4 4,-7 6,-11 -1,-2 -2,-3 -2,-3 -1,0 -1,0 -1,0 0,-1 1,-1 1,-2 1,0 1,0 1,0 1,0 2,1 3,3 2,-2 3,-3 3,-3 0,0 0,0 0,0 0,0 -1,1 -2,4 2,4 4,7 4,10 0,2 -1,4 -3,6 -2,2 -5,3 -7,3zm7 -8c0,-2 -1,-5 -3,-9 -2,3 -3,6 -5,9 0,-1 1,-1 1,-1 0,0 0,0 0,1 0,0 0,1 -2,1 0,1 -1,2 -1,4 0,1 2,1 4,1 2,0 3,0 4,-1 2,-1 2,-3 2,-5zm20 8c-2,0 -3,-2 -3,-4 0,-1 0,-2 0,-4 0,-2 1,-3 1,-3 -6,6 -9,10 -12,10 -1,0 -2,-1 -2,-2 0,-2 1,-3 2,-5 0,-1 1,-2 2,-5l0 0c0,0 0,0 0,0 0,0 0,-1 0,-1 1,-2 1,-3 2,-3 0,-1 2,-1 3,-1 1,0 1,0 1,0 0,0 -1,2 -4,6 0,1 -1,2 -2,4 0,2 -1,3 -1,4 0,0 0,1 1,1 0,0 1,-1 2,-2 3,-2 6,-6 9,-10l0 0c0,-2 1,-3 1,-3 1,0 2,-1 3,-1 1,0 1,1 1,1 0,0 0,1 -1,1 -1,1 -1,2 -1,2 -1,1 -1,3 -2,5 0,2 0,4 0,5 0,2 0,3 1,3 1,0 2,-1 3,-2 1,-1 2,-1 2,-1 0,0 0,0 0,0 0,1 -1,2 -3,3 -1,1 -2,2 -3,2zm11 -16c1,-1 2,-2 3,-2 1,0 2,-1 3,-1 1,0 2,1 2,2 0,1 0,2 -1,4 0,1 -1,2 -2,4 0,0 0,0 0,0 0,-1 0,-1 1,-1 0,0 1,-1 1,-1 0,0 0,0 0,0 0,0 0,1 0,1 0,0 0,1 0,1 0,1 -1,1 -1,2 0,1 0,1 0,2 0,0 0,1 1,2 0,1 1,1 1,1 1,0 2,-1 4,-2 0,0 0,0 1,-1 0,0 0,0 0,0 1,0 1,-1 1,-1 0,0 0,0 0,0 0,0 0,1 0,1 -1,1 -2,2 -3,3 -1,1 -3,2 -4,2 0,0 -1,-1 -1,-1 -1,0 -1,-1 -2,-1 0,-1 0,-1 0,-2 0,-1 0,-2 0,-3 0,0 -1,0 -1,0l-1 2c-1,1 -2,2 -3,3 -1,1 -2,1 -3,1 -1,1 -2,0 -4,-1 0,0 0,0 0,-1 0,0 0,-1 0,-1 0,-1 1,-1 1,-1 1,0 1,0 2,0 0,1 0,2 1,2 0,0 1,1 1,1 1,0 1,-1 2,-1 0,-1 1,-1 1,-2 0,0 1,0 1,-1 0,0 1,-1 1,-1 -1,0 -2,0 -3,0 -1,-1 -2,-2 -2,-3 0,-1 1,-1 1,-2 0,-1 1,-2 2,-2l0 0c0,0 -1,1 -1,1 0,1 0,1 0,2 0,0 1,1 2,2 0,0 1,0 2,0l0 0c1,-1 1,-2 1,-2 1,-1 1,-2 1,-3 1,0 1,-1 1,-1 0,-1 0,-1 -1,-1 0,-1 0,-1 -1,-1 -1,0 -1,0 -2,0 0,0 -1,1 -1,2 0,0 0,0 -1,0 0,0 0,0 0,-1zm43 10c0,0 0,0 0,0 0,0 0,0 0,1 -1,1 -2,2 -3,3 -2,1 -3,1 -4,1 -3,0 -4,-1 -4,-4 0,-2 1,-4 2,-8 -2,2 -4,5 -7,8 0,1 -1,2 -1,2 -1,1 -2,2 -3,2 -1,0 -1,0 -1,0 0,-1 0,-1 0,-1 1,-2 2,-4 3,-6 1,-3 2,-5 2,-6 0,-1 0,-1 -1,-1 0,0 -2,2 -5,5 -2,2 -3,4 -4,5 -1,1 -2,2 -2,3 0,1 -1,1 -2,2 0,0 -1,0 -1,0 -1,0 -1,0 -1,0 1,-2 3,-6 6,-12l0 -2c0,0 0,0 0,0 0,0 0,0 0,0l2 -4c0,0 0,0 1,-1 1,0 1,0 1,0 1,0 1,0 1,1 0,0 -1,1 -2,4 -1,4 -2,6 -2,6 1,-1 3,-3 5,-6 3,-2 5,-4 6,-4 1,0 1,1 1,1 0,2 -1,6 -3,10 4,-3 6,-6 8,-8 0,-1 1,-1 1,-1 1,0 1,1 1,1 0,1 0,2 0,2 0,1 -1,2 -1,2 -1,2 -1,4 -1,5 0,3 1,4 2,4 1,0 2,-1 4,-2 1,-2 2,-2 2,-2zm13 -5c0,0 0,0 0,0 -1,0 -1,0 -2,0 0,0 0,0 -1,0 -2,0 -4,1 -7,1 -1,3 -2,5 -2,6 0,1 1,2 2,2 2,0 3,0 5,-1 1,-1 2,-2 3,-3 1,-1 1,-2 1,-2 0,0 1,0 1,1 0,1 -1,2 -3,3 -3,2 -6,4 -10,4 -1,0 -2,-1 -2,-1 0,0 0,-1 0,-2 0,-1 0,-3 2,-6 0,0 0,0 0,0 0,0 0,-1 0,-1 0,-1 1,-1 1,-2 2,-3 4,-5 6,-5 1,-1 1,-1 2,-1 0,0 0,0 0,1 0,0 0,0 -1,0 -1,1 -2,3 -4,6 2,-1 4,-1 6,-1 1,-2 2,-3 2,-5 0,0 0,-1 -1,-1 0,0 0,0 0,0 -1,0 -1,0 -1,0 0,0 0,-1 1,-1 1,0 1,0 2,0 1,0 1,0 1,2 0,0 0,1 -1,3 -1,1 -1,2 -2,2 2,1 2,1 2,1zm16 -3c0,-1 1,-2 2,-2 0,0 1,0 2,0 1,0 1,0 1,0 0,0 0,0 -1,1 0,0 0,0 0,1l-2 1c0,0 0,1 -1,1 0,1 0,2 -1,3 0,1 0,2 0,2 -1,1 -1,2 -1,2 0,2 0,3 1,3 0,0 1,0 1,-1 1,0 1,0 2,-1 0,0 1,0 1,-1 0,0 1,0 1,0 0,0 -1,1 -1,1 -1,0 -1,1 -2,1 0,1 -1,1 -2,2 0,0 -1,0 -2,0 -1,0 -2,-1 -1,-3 0,0 0,-1 0,-2 0,-1 1,-1 1,-2 0,-1 0,-1 0,-2 0,0 0,0 0,0 -1,0 -2,1 -3,1 -2,0 -3,1 -4,1l0 0c0,2 -1,3 -1,4 -1,1 -1,2 -2,2 0,1 0,1 0,1 -1,0 -1,0 -1,1 0,0 -1,0 -1,0 0,0 -1,0 -1,0 0,0 0,0 0,0l0 0c1,-2 2,-4 3,-6 0,0 0,0 0,0 1,-3 2,-5 3,-8 0,0 0,0 0,0 0,0 0,0 0,0 0,0 0,-1 2,-4 0,0 0,0 1,-1 1,0 1,0 1,0 1,0 1,0 1,1 0,-1 0,0 -1,0 0,1 0,2 -1,3 0,1 -1,2 -1,3 -1,1 -1,2 -1,3 0,0 0,0 1,-1 1,0 2,0 3,0 1,-1 2,-1 3,-1 0,0 0,-1 0,-1l1 -2zm24 -19c0,1 -1,1 -1,1 -6,9 -9,16 -11,22 0,0 0,0 0,1 -1,0 -1,0 -1,0 0,0 0,0 0,0 0,-2 1,-6 4,-12 3,-6 5,-10 6,-11 0,-1 1,-1 2,-1 0,0 1,0 1,0zm-13 29c0,0 0,0 0,1 -1,1 -1,1 -1,1 -1,1 -1,2 -2,2 -1,0 -1,-1 -1,-2 0,0 0,-1 1,-1 1,-1 2,-1 3,-1l0 0 0 0 0 0z"/>
  </g>
 </g>
</svg>
