<?xml version="1.0" encoding="UTF-8"?>
<!DOCTYPE svg PUBLIC "-//W3C//DTD SVG 1.1//EN" "http://www.w3.org/Graphics/SVG/1.1/DTD/svg11.dtd">
<!-- Creator: CorelDRAW X7 -->
<svg xmlns="http://www.w3.org/2000/svg" xml:space="preserve" width="1000px" height="250px" version="1.1" style="shape-rendering:geometricPrecision; text-rendering:geometricPrecision; image-rendering:optimizeQuality; fill-rule:evenodd; clip-rule:evenodd"
viewBox="0 0 1000 250"
 xmlns:xlink="http://www.w3.org/1999/xlink"
 enable-background="new 0 0 800 300">
 <defs>
  <style type="text/css">
   <![CDATA[
    .str3 {stroke:#2B2A29;stroke-width:0.999213}
    .str2 {stroke:black;stroke-width:0.999213}
    .str0 {stroke:#2B2A29;stroke-width:1.99961}
    .str1 {stroke:black;stroke-width:1.99961}
    .fil0 {fill:#E8B533}
    .fil3 {fill:#E8B533}
    .fil5 {fill:#F15A24}
    .fil6 {fill:#F15A24}
    .fil4 {fill:white}
    .fil2 {fill:#FEFEFE;fill-rule:nonzero}
    .fil7 {fill:black;fill-rule:nonzero}
    .fil8 {fill:#F15A24;fill-rule:nonzero}
    .fil1 {fill:white;fill-rule:nonzero}
   ]]>
  </style>
 </defs>
 <g id="Слой_x0020_1">
  <metadata id="CorelCorpID_0Corel-Layer"/>
  <polygon class="fil0" points="0,250 1000,250 1000,0 0,0 "/>
  <g id="_2482533259952">
   <path class="fil1 str0" d="M284 16c7,0 15,2 21,5 7,2 13,6 18,11 5,5 8,11 11,17 3,7 5,14 5,21 0,8 -2,15 -5,21 -3,7 -6,12 -11,17 -5,5 -11,9 -18,12 -6,2 -14,4 -21,4l-223 0c0,42 0,69 0,69 0,0 -13,1 -24,0 0,0 -15,0 -15,-17l0 -140c0,-6 2,-10 6,-14 4,-4 8,-6 14,-6l242 0z"/>
   <path class="fil2 str0" d="M351 78c3,0 4,0 6,-1 1,0 2,-1 3,-2 1,-2 1,-3 1,-4 1,-1 1,-3 1,-4 0,-1 0,-2 -1,-3 0,-2 0,-3 -1,-4 -1,-1 -2,-2 -3,-3 -2,0 -3,-1 -6,-1l-36 0c-2,0 -4,1 -6,1 -1,1 -2,2 -3,3 0,1 -1,2 -1,4 0,1 -1,2 -1,3 0,1 1,3 1,4 0,1 1,2 1,4 1,1 2,2 3,2 2,1 4,1 6,1l36 0zm19 -11c0,3 0,5 -1,7 -1,3 -2,5 -3,7 -2,2 -4,3 -6,4 -2,2 -4,2 -7,2l-41 0c-3,0 -5,-1 -7,-2 -2,-1 -3,-3 -5,-5 -1,-1 -2,-3 -3,-6 -1,-2 -1,-4 -1,-7 0,-2 0,-4 1,-7 1,-2 2,-4 3,-6 2,-2 4,-3 6,-5 2,-1 4,-2 7,-2l41 0c3,1 5,1 7,3 2,1 4,2 5,4 1,2 2,4 3,7 1,2 1,4 1,6zm81 16c0,1 -1,2 -2,3 0,1 -1,1 -3,1 -1,0 -2,0 -3,-1 -1,-1 -1,-2 -1,-3l0 -11 -54 0 0 11c0,1 0,2 -1,3 -1,1 -2,1 -3,1 -2,0 -3,0 -3,-1 -1,-1 -2,-2 -2,-3l0 -31c0,-1 1,-2 2,-3 0,-1 1,-2 3,-2 1,0 2,1 3,2 1,1 1,2 1,3l0 11 54 0 0 -11c0,-1 0,-2 1,-3 1,-1 2,-2 3,-2 2,0 3,1 3,2 1,1 2,2 2,3l0 31zm18 -20l21 0c3,0 6,0 9,-1 3,-1 6,-2 9,-3 3,-2 5,-3 8,-5 3,-2 5,-3 8,-5 1,-1 2,-2 3,-2 1,0 2,1 3,2 1,1 1,2 1,3 0,1 0,1 -1,2 0,1 -1,1 -1,2 -2,1 -3,2 -5,3 -1,1 -3,2 -4,3 -2,1 -3,2 -5,3 -1,1 -3,2 -5,2 2,1 4,2 5,3 2,1 3,2 5,3 1,0 3,1 4,3 2,1 3,2 5,3 0,0 1,1 1,2 1,0 1,1 1,2 0,1 0,2 -1,3 -1,1 -2,1 -3,1 -1,0 -2,0 -3,-1 -3,-2 -5,-4 -8,-5 -3,-2 -5,-4 -8,-5 -3,-1 -6,-2 -9,-3 -3,-1 -6,-1 -9,-1l-21 0 0 11c0,1 -1,2 -2,3 -1,1 -2,1 -3,1 -1,0 -2,0 -3,-1 -1,-1 -1,-2 -1,-3l0 -31c0,-1 0,-2 1,-3 1,-1 2,-2 3,-2 1,0 2,1 3,2 1,1 2,2 2,3l0 11zm127 15c2,0 4,0 5,-1 1,0 2,-1 3,-2 1,-2 1,-3 2,-4 0,-1 0,-3 0,-4 0,-1 0,-2 0,-3 -1,-2 -1,-3 -2,-4 -1,-1 -2,-2 -3,-3 -1,0 -3,-1 -5,-1l-37 0c-2,0 -4,1 -5,1 -1,1 -2,2 -3,3 -1,1 -2,2 -2,4 0,1 0,2 0,3 0,1 0,3 0,4 0,1 1,2 2,4 1,1 2,2 3,2 1,1 3,1 5,1l37 0zm19 -11c0,3 -1,5 -2,7 0,3 -1,5 -3,7 -1,2 -3,3 -5,4 -2,2 -5,2 -7,2l-42 0c-2,0 -5,-1 -6,-2 -2,-1 -4,-3 -5,-5 -2,-1 -3,-3 -4,-6 0,-2 -1,-4 -1,-7 0,-2 1,-4 1,-7 1,-2 2,-4 4,-6 1,-2 3,-3 5,-5 2,-1 4,-2 7,-2l42 0c2,1 4,1 6,3 2,1 4,2 5,4 2,2 3,4 3,7 1,2 2,4 2,6zm9 0c0,-2 0,-4 1,-7 1,-2 2,-4 3,-6 2,-2 3,-3 5,-5 3,-1 5,-2 7,-2l54 0c1,0 2,1 3,2 1,1 1,2 1,3 0,1 0,2 -1,3 -1,1 -2,1 -3,1l-52 0c-2,0 -3,1 -5,1 -1,1 -2,2 -3,3 -1,1 -1,2 -1,4 -1,1 -1,2 -1,3 0,1 0,3 1,4 0,1 0,2 1,4 1,1 2,2 3,2 2,1 3,1 5,1l52 0c1,0 2,1 3,2 1,1 1,2 1,3 0,1 0,2 -1,3 -1,1 -2,1 -3,1l-54 0c-3,0 -5,0 -7,-2 -2,-1 -4,-2 -5,-4 -1,-2 -2,-4 -3,-7 -1,-2 -1,-4 -1,-7zm92 -4l21 0c3,0 6,0 9,-1 3,-1 6,-2 9,-3 3,-2 6,-3 8,-5 3,-2 6,-3 8,-5 1,-1 2,-2 3,-2 1,0 2,1 3,2 1,1 1,2 1,3 0,1 0,1 0,2 -1,1 -1,1 -2,2 -2,1 -3,2 -5,3 -1,1 -2,2 -4,3 -1,1 -3,2 -4,3 -2,1 -4,2 -5,2 1,1 3,2 5,3 1,1 3,2 4,3 2,0 3,1 4,3 2,1 3,2 5,3 1,0 1,1 2,2 0,0 0,1 0,2 0,1 0,2 -1,3 -1,1 -2,1 -3,1 -1,0 -2,0 -3,-1 -2,-2 -5,-4 -8,-5 -2,-2 -5,-4 -8,-5 -3,-1 -6,-2 -9,-3 -3,-1 -6,-1 -9,-1l-21 0 0 11c0,1 -1,2 -1,3 -1,1 -2,1 -3,1 -2,0 -3,0 -4,-1 0,-1 -1,-2 -1,-3l0 -31c0,-1 1,-2 1,-3 1,-1 2,-2 3,-2 2,0 3,1 4,2 0,1 1,2 1,3l0 11zm80 7c0,2 0,4 1,5 0,1 1,2 1,2 1,0 2,-1 2,-1 1,0 2,-1 3,-2l42 -25c1,-1 1,-1 2,-1 1,0 2,-1 3,-1 2,0 4,1 6,3 2,2 2,4 2,6l0 27c0,1 0,2 -1,3 -1,1 -2,1 -3,1 -1,0 -2,0 -3,-1 -1,-1 -1,-2 -1,-3l0 -18c0,-2 0,-4 -1,-5 0,-1 0,-2 -1,-2 -1,0 -1,0 -2,1 -1,0 -2,1 -3,1l-42 26c-1,0 -1,1 -2,1 -1,0 -2,0 -3,0 -2,0 -4,-1 -6,-2 -2,-2 -2,-4 -2,-7l0 -26c0,-1 0,-2 1,-3 1,-1 2,-2 3,-2 1,0 2,1 3,2 1,1 1,2 1,3l0 18z"/>
   <path class="fil3 str0" d="M337 79l-2 8 -23 0c-3,0 -5,-1 -7,-2 -2,-1 -3,-3 -5,-4 -1,-2 -2,-4 -3,-7 -1,-2 -1,-4 -1,-7 0,-2 0,-4 1,-7 1,-2 2,-4 4,-6 1,-2 3,-3 5,-5 2,-1 4,-2 7,-1l21 0 4 8 -23 0c-2,0 -4,1 -5,1 -2,1 -3,2 -3,3 -1,1 -2,2 -2,4 0,1 0,2 0,3 0,2 0,3 0,4 0,1 1,3 2,4 0,1 1,2 3,2 1,1 3,2 5,2l22 0zm-256 -9l26 0 -10 -13c0,0 -1,-1 -1,-1 -1,-1 -1,-1 -2,-1 -1,0 -1,0 -2,1 -1,0 -1,1 -2,1l-9 13zm32 9l-39 0 -5 7c-1,1 -2,1 -3,1 -2,0 -3,0 -4,-1 0,-1 -1,-2 -1,-3 0,-1 0,-2 1,-3l22 -30c1,-1 3,-2 4,-3 2,-1 4,-1 6,-1 2,0 3,0 5,1 2,1 3,2 4,3l22 30c1,0 1,1 1,1 0,1 0,1 0,2 0,1 0,2 -1,3 -1,1 -2,1 -3,1 -1,0 -2,0 -3,-1l-6 -7zm31 -9c0,2 0,4 1,5 0,1 1,2 1,2 1,0 2,-1 2,-1 1,0 2,-1 3,-2l42 -25c1,-1 1,-1 2,-1 1,0 2,0 3,0 2,0 4,0 6,2 2,2 2,4 2,6l0 27c0,1 0,2 -1,3 -1,1 -2,1 -3,1 -1,0 -2,0 -3,-1 -1,-1 -1,-2 -1,-3l0 -18c0,-2 0,-4 -1,-5 0,-1 0,-2 -1,-2 -1,0 -1,0 -2,1 -1,0 -2,1 -3,1l-42 26c-1,0 -1,1 -2,1 -1,0 -2,0 -3,0 -2,0 -4,-1 -6,-2 -2,-2 -2,-4 -2,-7l0 -26c0,-1 0,-2 1,-3 1,-1 2,-1 3,-1 1,0 2,0 3,1 1,1 1,2 1,3l0 18zm15 -38c0,-1 0,-2 1,-3 1,-1 2,-1 3,-1 1,0 2,0 3,1l6 6 6 -6c1,-1 2,-1 3,-1 1,0 2,0 3,1 1,1 1,2 1,3 0,1 0,2 -1,3l-9 9 0 0c-1,1 -2,1 -3,1 -1,0 -2,0 -3,-1l0 0 -9 -9c-1,-1 -1,-2 -1,-3zm65 31l21 0c4,0 7,0 10,-1 3,-1 6,-2 9,-3 2,-2 5,-3 8,-5 3,-2 5,-3 7,-5 2,-1 3,-1 4,-1 1,0 2,0 3,1 1,1 1,2 1,3 0,1 0,1 -1,2 0,1 -1,1 -2,2 -1,1 -3,2 -4,3 -2,1 -3,2 -4,3 -2,1 -3,2 -5,3 -2,1 -3,2 -5,2 2,1 3,2 5,3 2,1 3,2 5,3 1,1 2,2 4,3 1,1 3,2 4,3 1,0 2,1 2,2 1,0 1,1 1,2 0,1 0,2 -1,3 -1,1 -2,1 -3,1 -1,0 -2,0 -4,-1 -2,-2 -5,-4 -7,-5 -3,-2 -6,-3 -8,-5 -3,-1 -6,-2 -9,-3 -3,-1 -6,-1 -10,-1l-21 0 0 11c0,1 0,2 -1,3 -1,1 -2,1 -3,1 -1,0 -2,0 -3,-1 -1,-1 -1,-2 -1,-3l0 -31c0,-1 0,-2 1,-3 1,-1 2,-1 3,-1 1,0 2,0 3,1 1,1 1,2 1,3l0 11z"/>
   <polygon class="fil3" points="326,81 339,80 338,85 326,85 "/>
   <polygon class="fil3" points="326,53 339,55 336,49 326,49 "/>
  </g>
  <path class="fil4 str1" d="M925 220c0,0 0,0 0,0l-2 -1c0,-2 2,-1 4,-2l0 0c1,0 1,0 3,0 1,0 1,1 3,1 1,0 2,1 3,3 1,1 2,1 2,-1 1,-1 1,-1 2,-2 1,-1 0,0 2,0 2,0 1,0 2,-1 1,-1 1,1 2,1l1 1c1,0 1,0 2,0 0,0 1,0 1,0 0,0 1,0 1,-1l1 0c0,1 0,1 0,1 0,1 -1,2 -1,3 1,1 1,0 5,-1l1 0c1,-1 2,-1 3,-1 1,-1 1,-1 2,-1 1,0 1,-1 2,-1 1,0 2,0 2,-1 1,0 2,0 2,-1l1 -1c1,-1 1,-1 1,-2 1,0 1,-1 2,-1 0,0 1,2 3,0l1 0c2,-1 2,0 3,1 2,1 2,1 2,2l6 0c2,-3 0,-4 2,-5 2,-1 1,-1 1,-2 0,-1 0,0 0,0l0 -1 0 -1c1,-2 1,-2 1,-4 0,-3 0,-1 0,-2 0,-3 -1,-2 -1,-4 0,-2 0,0 0,-1 0,-1 -1,-2 -2,-2 0,0 -1,0 -2,0 1,-1 2,-2 2,-4 1,-1 1,-6 1,-9 -1,-2 -1,-1 -2,-1 -1,0 -1,-1 -2,-1l-1 0c-1,1 -1,1 -2,1 -4,-2 -4,0 -9,-6l0 -1c-1,-1 -2,-3 -2,-4 0,-2 0,-5 1,-7 0,-2 0,-4 0,-6 0,0 0,0 0,-1 0,-1 -1,-1 -2,-1 0,0 0,-1 -1,-2l0 0c-1,-1 -1,-2 -1,-2 0,-1 1,-1 1,-1 1,-1 2,0 4,0 1,0 3,0 4,-2 1,0 2,-1 1,-3 0,-1 0,-2 1,-3 0,-1 3,-11 1,-15 -1,0 -1,-1 -1,-1l-3 -4c-1,-1 0,-1 -1,-2 1,-1 0,-1 -1,-4 -1,-2 -1,-4 -2,-6l-1 -2 0 0 -1 -2c0,-1 -1,-4 -2,-4 -1,-1 -1,-1 -2,-1 -1,-5 1,-14 0,-17 0,-1 0,-2 -1,-3l0 -1 -1 -1c0,0 1,0 0,-1 -1,0 -1,0 -2,0l0 0 0 -1c-1,-1 0,-1 0,-1l0 0c-1,-1 0,-1 0,-3 0,0 0,0 0,0 0,-1 -1,-1 -1,-1l0 -1c-1,0 -1,-1 -2,-2 0,0 0,-1 0,-1l0 0 0 0 -4 -5c-1,0 -2,-1 -2,-2l-1 -2c-2,-2 -2,-3 -5,-5l-2 -1c-1,-1 -3,-1 -5,0 0,2 0,2 -2,2 0,1 -1,1 -1,2 0,1 0,1 0,1 0,1 0,0 -1,1 -1,0 -2,-1 -3,-1 -1,0 -1,0 -2,-1 -2,-1 0,-4 -2,-4l-1 -1 0 0 0 -2c0,-1 0,-2 0,-2 -2,0 -3,-1 -5,-2l-9 -2 -2 -1 -7 -2c-5,-1 -5,-1 -4,3l1 6c0,2 0,4 1,6 1,5 0,7 1,10 2,2 1,3 1,5 -1,1 -1,1 -1,2l-2 0c-1,0 -2,0 -3,0 0,0 -1,0 -1,1 0,1 0,1 1,2 0,1 -1,-1 -3,4l0 1c0,0 0,1 0,1 -1,1 -3,1 -2,3 1,2 1,1 1,1 1,1 1,1 1,1 0,1 0,2 -1,2 -1,0 -2,0 -3,2 -1,3 -1,6 0,9 1,2 1,3 3,2l1 2c0,0 -1,1 -2,1 -1,1 -1,1 -1,2 0,1 0,3 0,3 0,1 0,1 0,2 0,1 1,0 1,1 0,0 1,1 1,1 1,1 2,2 2,3 0,3 -1,5 -2,8 -1,2 -1,2 -3,4 -1,0 -1,0 -2,0 -4,2 -1,4 0,6 0,0 4,8 4,8 1,0 2,1 2,2 1,1 1,1 2,2l1 2c1,1 1,2 1,3l1 3c1,1 1,2 2,3 0,1 0,2 1,3 0,1 0,0 -1,1l-3 4c0,1 0,1 0,1 -1,2 -2,3 -4,5 0,1 0,1 -1,2l-3 2c-1,1 -1,2 -2,2 -2,1 -3,2 -5,3 -1,2 -3,3 -4,4 -1,1 -1,2 -2,2 -1,1 -1,2 -2,2 -1,1 -2,1 -3,2l-1 1 -2 1c0,1 0,1 -1,2l-2 1c-1,1 -2,1 -3,2 -1,0 0,1 -2,2 0,0 -1,1 -2,1 0,2 0,3 1,4 0,1 1,1 2,1 0,1 0,2 0,2 0,1 2,1 4,2 0,0 1,1 2,1 1,0 0,0 1,0l1 1 4 2 0 0 3 2c0,0 0,0 1,0 1,0 0,0 3,1l2 2 1 0 11 6c1,1 1,1 2,1l1 1 3 2c1,0 0,0 1,0l0 0 1 1 0 0 0 0 1 0 1 1c2,0 5,2 8,1 1,-1 1,-1 2,-1 1,0 0,-1 0,-2 0,0 0,0 1,0 0,-1 3,0 3,-4 0,1 1,2 2,2l0 0c0,1 1,1 2,1l1 0c0,-1 0,-1 0,-1 1,0 1,0 1,-1 0,-1 0,-1 1,-2l0 0c0,0 0,0 0,-1 0,0 0,0 0,0 -1,-1 -1,-1 -1,-1 -1,-1 -1,-1 -2,-1 -1,0 0,0 -1,0l1 1z"/>
  <path class="fil5 str1" d="M938 125c1,8 0,20 0,29 0,9 1,22 0,29 -5,21 -36,32 -57,17 -16,-11 -12,-27 -12,-46 0,-9 -1,-20 0,-29l69 0zm11 -5c0,-5 0,-4 5,-6 5,-2 6,-1 6,-10 -3,1 -9,4 -11,4 -2,-11 4,-10 -11,-10l0 10c-4,0 -8,-3 -12,-4l0 7c2,2 10,3 11,5 2,1 -47,0 -56,0l0 -6c-4,-2 -8,-4 -12,-6l0 -6 -10 0 0 6c-4,2 -8,4 -12,6l0 8c4,-1 9,-5 12,-5 0,5 -1,3 -5,6l-6 3 0 8c3,-1 7,-4 11,-5l0 4c-4,1 -8,3 -11,5l0 8c3,-1 7,-4 11,-5 0,4 0,3 -1,4 -12,6 -10,0 -10,13 3,-1 8,-5 11,-5l0 3 -11 5 0 8c4,-1 7,-4 11,-4l0 3 -11 4 0 8c4,-1 7,-4 11,-4 0,3 1,2 -5,5 -7,3 -5,1 -6,10 4,0 8,-4 12,-4 1,2 2,5 3,7 3,7 7,12 13,17 19,15 49,12 65,-8 0,-1 1,-2 2,-3 2,-2 2,-5 4,-7 1,-3 5,-4 7,-4 8,-4 7,-2 7,-11 -4,0 -8,4 -12,4l0 -3c4,-2 8,-4 12,-6l0 -7c-4,0 -8,4 -12,4l0 -3 11 -5 0 -8c-3,1 -8,4 -11,4l0 -3c4,-2 6,-4 10,-5 3,-1 2,0 2,-3l0 -6c-3,1 -9,5 -12,5l0 -2c0,-2 7,-4 11,-6l0 -8c-3,1 -9,4 -11,5l0 -3c2,-2 10,-4 11,-6l0 -7c-4,1 -8,4 -11,5z"/>
  <path class="fil6 str1" d="M925 139c-1,-1 -2,-1 -3,-2 0,-1 0,0 1,-1l1 0c-3,-5 -3,-1 -5,-5l0 -1 0 0c-4,0 -4,2 -6,2 -2,0 -3,0 -5,0 -3,1 -2,2 -4,3 -2,1 -3,1 -5,2l1 2c3,0 5,-3 7,0 0,1 -1,2 -2,2l-3 0c1,2 2,1 5,1l0 0c-6,4 -9,6 -10,10 -2,2 -5,4 -7,5 -2,1 -1,-2 -9,-2l-1 -1c-2,1 -1,0 -1,1 0,0 1,-1 0,1l-1 0 1 1 -2 1 1 1 -1 1c2,1 1,1 2,3 1,2 0,-1 3,-1l0 1c2,4 3,1 3,1l0 0c1,1 2,2 3,2l0 -2 1 1 1 1c2,-1 -1,-3 3,-3 1,1 2,2 2,3 1,2 1,1 2,3 0,2 0,4 0,6 2,-2 1,-2 3,-2 0,2 0,3 1,5l1 -1c1,-2 -1,2 0,0 1,-2 0,-1 1,-1 1,2 2,5 2,7 1,1 3,3 4,4l1 -2c2,7 5,1 6,5 -2,0 -3,-1 -5,1l2 0 -1 1 1 1 0 2 2 0 -1 1c2,0 1,0 2,0 1,1 0,1 1,1 2,0 1,-2 4,-5 3,-2 4,-2 6,-3 1,-1 -2,-2 -3,-4l2 0c-2,-3 -2,-3 -4,-4l2 -1c0,-3 -2,-3 -3,-4 -1,-2 1,0 2,-2 -3,-1 -2,0 -5,-3 -3,-3 3,-2 4,-4 1,-2 -4,0 -6,-2 -1,-1 -2,-2 -2,-4l1 -3c1,1 1,1 1,1 1,1 0,1 1,1 1,-1 1,-3 0,-4 2,0 1,0 3,1l0 -4c2,1 2,1 3,2 0,-4 0,-4 -1,-7l2 0c0,-2 0,-4 -1,-6 1,0 1,0 3,0 0,-1 -1,-2 -2,-3l1 0z"/>
  <path class="fil6 str1" d="M899 92c0,-1 0,0 1,-1l3 -3c1,1 4,2 4,4 -1,1 -2,3 -4,4 -2,-1 -3,-3 -4,-4l0 0zm-16 -7c1,2 6,5 6,7 0,1 -5,5 -5,7l11 0 0 10c2,-1 5,-5 8,-6 3,-1 4,4 7,6 0,-13 -3,-10 13,-10 -1,-2 -6,-4 -7,-7 -1,-2 5,-4 7,-7l-13 0 0 -10c-1,1 -2,1 -3,3 -1,1 -3,2 -4,2l-8 -5 0 10 -12 0z"/>
  <path class="fil6 str1" d="M896 179c-4,-8 1,-5 -3,-9 -3,1 -9,9 -9,16l2 0c-1,1 -1,2 0,4 1,0 1,0 1,0 1,0 1,-1 1,0 0,1 -1,1 -3,0 -1,0 0,0 -2,0 -2,0 0,1 -1,2 -2,0 1,1 -1,2 3,1 1,0 2,2 1,1 0,-1 1,1 5,0 3,-1 6,-2 2,1 4,1 6,2l0 -5c1,0 1,1 3,1 0,-1 0,-3 0,-4 1,0 1,0 2,1 0,-2 0,-3 0,-4 1,-1 2,1 0,-6l-1 2 0 0c0,-1 -1,-2 -2,-3 0,-1 0,-2 0,-3 -1,1 -1,2 -2,3z"/>
  <path class="fil6 str1" d="M890 143c0,-3 1,-2 -1,-3 -1,-2 -1,-1 0,-3l-2 -1 -2 1c-1,1 1,2 -2,1l0 1 -2 0c0,1 0,2 0,3 1,0 2,0 2,2 0,1 -1,0 -1,3l1 0c1,0 0,-1 1,0 1,1 0,2 0,4 0,2 0,-1 2,-1 -2,6 2,2 2,2 0,0 1,1 1,2 2,0 2,-1 2,-2 -1,-1 0,0 2,-2l1 -1 2 -2 -6 -4z"/>
  <path class="fil3 str1" d="M893 137c1,2 2,3 3,4l8 -2c-3,0 -5,1 -6,0l-5 -2z"/>
  <g id="_2482533265360">
   <path class="fil7 str2" d="M84 219c0,3 0,4 1,4 0,0 1,0 1,0 1,0 1,0 1,0 0,0 1,0 1,0 0,0 -1,1 -2,1 -1,0 -2,0 -2,0 -3,0 -4,-1 -4,-4 0,-7 4,-18 12,-34 1,-2 2,-4 4,-7 0,0 0,0 0,-1 0,0 0,-1 1,-2 1,-1 1,-2 2,-3 0,0 1,-1 3,-1 1,0 1,1 1,1 0,0 0,0 0,0 -1,2 -2,4 -4,7 -10,16 -15,29 -15,39zm7 -35c0,2 -1,4 -2,6 -1,5 -4,9 -7,13 -3,5 -6,9 -10,11 -2,1 -5,2 -7,2 -3,0 -5,-2 -5,-5 0,-2 1,-6 4,-11 2,-4 5,-8 7,-12 3,-5 4,-8 4,-11 0,-2 -2,-3 -5,-3 -3,0 -6,0 -9,1 -3,1 -5,3 -8,4 -4,2 -5,5 -5,7 0,2 2,4 5,5 1,1 1,1 1,1 0,0 0,0 0,0 0,0 -1,0 -1,0 -6,-1 -8,-3 -8,-5 0,-3 2,-6 7,-9 2,-1 5,-3 8,-4 4,-1 7,-2 10,-2 5,0 8,2 8,6 0,2 -2,7 -6,14 -5,8 -8,13 -8,15 -1,1 -1,3 -1,4 0,2 1,3 3,3 1,0 3,-1 5,-2 3,-2 7,-5 10,-9 3,-4 5,-8 7,-12 1,-1 1,-4 2,-7 0,0 0,0 0,0 1,0 1,0 1,0zm35 9l-1 2c-1,1 -2,3 -3,6 -1,3 -3,7 -5,13 1,-1 1,-1 2,-1 1,0 1,1 1,1 0,0 -1,0 -3,0l0 0c-2,5 -5,9 -8,12 -3,4 -8,6 -12,6 -2,0 -4,0 -5,-1 -2,-1 -3,-3 -3,-5 0,-3 4,-6 10,-9 4,-2 10,-3 16,-3 1,-2 1,-5 2,-7 1,-1 1,-3 2,-5 -1,2 -3,4 -5,6 -3,2 -5,4 -6,4 -1,0 -2,-1 -2,-2 0,-2 2,-5 4,-9 2,-5 5,-7 7,-6 2,-1 3,-1 3,-1 1,0 1,0 2,0l0 0c1,-1 2,-1 3,-1 0,0 1,0 1,0l0 0zm-5 2c0,0 -1,0 -1,0 -2,0 -3,1 -4,2 -1,1 -3,3 -4,5 -1,3 -2,5 -2,6 -1,1 -1,1 -1,1 0,1 1,1 1,1 0,0 1,-1 1,-1 2,-2 4,-4 6,-6 1,-2 2,-4 4,-8zm-7 19c-5,1 -10,2 -14,4 -6,3 -8,6 -8,9 0,1 0,2 1,3 1,0 2,1 4,1 3,0 7,-2 10,-6 3,-3 5,-6 7,-11zm21 -13c0,0 0,0 0,0 0,0 -1,0 -1,0 -1,1 -2,1 -2,2 -1,1 -2,1 -2,2 -1,1 -2,1 -2,2 1,-1 2,-1 3,-1 1,-1 2,-1 4,-1 0,-2 0,-3 0,-4zm0 4c-1,0 -2,1 -3,1 -1,0 -1,1 -2,1 -1,1 -1,1 -2,1 -1,1 -1,1 -1,2 0,0 1,0 1,1 0,0 1,0 1,0 2,0 4,-2 6,-6zm-7 1c1,-2 3,-4 5,-5 1,-1 2,-2 3,-2 1,0 2,1 2,2 0,1 0,2 -1,3 1,0 1,0 1,0 0,0 1,0 1,0 0,0 0,0 0,0 0,0 0,0 -1,1 0,0 0,0 -1,0 0,2 -1,3 -2,4 0,1 -1,2 -2,2 -1,0 -2,0 -2,1 0,0 -1,0 -1,0 0,0 0,0 0,0 0,0 -1,0 -1,0 0,0 -1,0 -1,0 -1,-1 -1,-1 -2,-1 0,0 0,0 0,0 0,0 -1,0 -1,0 0,0 0,-1 0,-1 -1,-1 0,-3 0,-6 1,-2 3,-6 5,-10 0,0 1,-1 2,-1l0 0c0,0 1,0 1,0 0,0 0,0 0,1 0,0 0,0 0,1 0,0 0,1 -1,1 0,0 0,1 0,1 -1,0 -1,1 -1,1 -1,1 -2,3 -2,4 -1,2 -1,3 -1,4zm14 5c-2,0 -3,-1 -3,-3 0,-1 1,-3 2,-5 0,-1 1,-3 2,-5 1,-1 1,-2 1,-3 1,0 2,-1 3,-1l0 0 0 0c0,0 0,0 0,0 1,0 1,0 1,1 0,0 -1,1 -1,2 -1,1 -1,2 -1,2 -1,1 -2,3 -3,4 -1,2 -1,4 -1,5 0,1 0,1 2,1 1,0 2,0 4,-1 1,-2 2,-2 2,-2 0,0 0,0 0,0 0,0 0,0 0,1 -1,1 -2,2 -4,3 -1,1 -2,1 -4,1zm32 -4c0,2 1,3 2,3 1,0 2,0 3,-2 1,0 1,0 1,0 0,-1 1,-1 1,-1 0,0 0,0 0,-1 1,0 1,1 1,1 0,0 0,0 -1,0 0,2 -1,3 -3,3 -1,1 -2,2 -3,2 -1,0 -1,0 -2,-1 0,0 -1,0 -1,-1 -1,0 -1,-1 -1,-2 0,0 0,-1 1,-2 0,-2 1,-4 1,-4 1,-1 1,-2 1,-2 -1,1 -2,2 -3,3 -1,1 -2,2 -4,3 -1,1 -2,2 -3,3 -1,1 -1,1 -2,1 0,0 -1,-1 -1,-1 0,-1 1,-3 1,-4 1,-2 1,-4 2,-6 0,1 -1,2 -2,3 -1,1 -1,3 -2,4 -1,1 -2,2 -3,3 -1,1 -2,1 -2,2 -1,0 -2,1 -3,1 -1,0 -2,-1 -2,-2 -1,0 -1,0 -1,-1 0,0 0,-1 0,-1 1,-1 1,-1 1,-1 1,0 1,0 2,0 0,1 1,2 1,2 1,1 2,0 3,0 1,-1 2,-2 2,-3 1,-1 2,-3 3,-4 1,-1 2,-2 2,-3 1,-1 1,-2 2,-2 0,-1 1,-2 2,-3 0,0 1,-1 2,-1 0,0 0,0 0,1 0,0 0,0 0,0 0,1 -1,2 -1,4 -1,1 -1,2 -2,3 0,1 -1,2 -1,3 0,1 0,2 0,2 0,1 0,1 0,1 0,0 1,0 1,-1 1,0 2,-1 2,-2 1,-1 2,-1 3,-3 1,-1 2,-2 2,-3 1,-1 2,-1 2,-2 1,-1 1,-2 2,-2 0,-1 0,-1 0,-1 0,0 1,0 1,0 0,-1 1,-1 1,-1 0,0 1,0 1,0 0,0 0,0 0,0l0 0c0,1 -1,2 -1,3 -1,1 -1,2 -2,3 0,1 -1,3 -2,4 0,2 -1,3 -1,5zm62 -29c0,1 0,1 0,1 0,0 -1,0 -1,0 -2,-1 -4,-2 -6,-2 4,2 7,6 7,10 0,4 -2,9 -6,14 -3,4 -6,7 -11,10 -4,2 -9,4 -13,4 -9,0 -14,-4 -14,-10 0,-4 2,-9 6,-14 0,-2 -1,-3 -1,-5 0,-4 3,-7 7,-9 3,-2 7,-3 12,-3 4,0 7,0 10,2l1 0c3,0 6,0 9,1 0,1 0,1 0,1zm-16 -2c-2,0 -4,0 -6,0 -4,0 -7,0 -9,2 -4,2 -5,4 -5,8 0,1 0,2 0,3 6,-7 13,-11 20,-13zm12 13c0,-3 -1,-5 -2,-7 -2,-2 -4,-4 -7,-5 -4,1 -8,2 -12,5 -4,2 -7,5 -10,9 0,1 1,2 2,4 2,2 3,3 4,3 1,0 1,-1 1,-2 1,0 1,-1 1,-2 0,0 0,0 0,0 1,0 1,0 1,0 0,3 -1,5 -3,5 -2,0 -3,-1 -5,-3 -1,-1 -2,-2 -3,-3 -2,4 -4,7 -4,11 0,3 1,5 3,7 2,1 5,2 8,2 4,0 8,-1 12,-3 4,-2 7,-5 10,-8 3,-5 4,-9 4,-13zm32 17c0,0 0,0 0,0 0,0 0,1 0,1 -1,1 -2,2 -3,3 -2,1 -3,1 -4,1 -3,0 -4,-1 -4,-4 0,-2 1,-4 2,-8 -2,2 -4,5 -7,8 0,1 -1,2 -1,3 -1,1 -2,1 -3,1 -1,0 -1,0 -1,0 0,0 0,0 0,0 1,-3 2,-5 3,-7 1,-3 2,-5 2,-6 0,-1 0,-1 -1,-1 0,0 -2,2 -5,5 -2,2 -3,4 -4,6 -1,1 -2,2 -2,3 0,0 -1,0 -2,1 0,0 -1,0 -1,0 -1,0 -1,0 -1,0 1,-2 3,-6 6,-12l0 -2c0,0 0,0 0,0 0,0 0,0 0,0l2 -4c0,0 0,0 1,0 1,-1 1,-1 1,-1 1,0 1,0 1,1 0,0 -1,1 -2,5 -1,3 -2,5 -2,5 1,-1 3,-3 5,-5 3,-3 5,-5 6,-5 1,0 1,1 1,2 0,2 -1,5 -3,9 4,-3 6,-6 8,-8 0,0 1,-1 1,-1 1,0 1,1 1,2 0,0 0,1 0,2 0,0 -1,1 -1,1 -1,2 -1,4 -1,5 0,3 1,4 2,4 1,0 2,-1 4,-2 1,-1 2,-2 2,-2zm13 -5c0,1 0,1 0,1 -1,0 -1,0 -2,0 0,-1 0,-1 -1,-1 -2,0 -4,1 -7,1 -1,3 -2,5 -2,6 0,2 1,2 2,2 2,0 3,0 5,-1 1,-1 2,-2 3,-3 1,-1 1,-1 1,-1 0,0 1,0 1,0 0,1 -1,2 -3,3 -3,3 -6,4 -10,4 -1,0 -2,0 -2,-1 0,0 0,-1 0,-1 0,-2 0,-4 2,-7 0,0 0,0 0,0 0,0 0,-1 0,-1 0,-1 1,-1 1,-2 2,-3 4,-5 6,-5 1,0 1,-1 2,-1 0,0 0,1 0,1 0,0 0,0 -1,0 -1,1 -2,3 -4,6 2,-1 4,-1 6,-1 1,-1 2,-3 2,-5 0,0 0,-1 -1,-1 0,0 0,0 0,0 -1,0 -1,0 -1,0 0,0 0,0 1,-1 1,0 1,0 2,0 1,0 1,1 1,2 0,1 0,2 -1,3 -1,1 -1,2 -2,2 2,1 2,1 2,1zm13 -3c-1,0 -1,1 -2,0 0,0 -1,0 -1,0 -1,0 -1,0 -1,0 -1,0 -1,0 -1,0 0,0 -1,0 -1,0 0,0 0,1 -1,1 0,1 -1,2 -1,3 -1,0 -1,1 -2,2 0,0 0,0 -1,0 0,0 0,0 0,0 0,0 0,0 1,-1 0,-1 1,-1 1,-2 0,-1 1,-2 1,-3 0,0 1,-1 1,-2 0,0 0,-1 0,-2l0 0c0,0 0,-1 1,-1 0,0 1,0 1,0 0,0 0,0 0,0 0,0 0,0 0,1 0,0 0,0 0,0 0,1 0,1 1,1 0,1 0,1 1,1 0,1 1,1 2,1 0,0 1,0 1,0 0,0 0,-1 1,-1 0,0 0,-1 0,-1 1,0 2,0 2,0l0 0c0,0 0,0 0,0 0,0 1,0 1,0 0,0 0,0 0,1 0,0 0,0 -1,0 0,1 0,1 0,1 -1,1 -1,1 -1,1 0,1 -1,1 -1,1 0,1 -1,3 -2,4 -1,2 -1,3 -1,4 -1,2 -1,3 0,3 1,0 1,0 2,-1 1,0 2,-1 2,-1 1,-1 2,-1 2,-1 1,-1 1,-1 1,-1 0,0 0,0 0,0 0,1 0,1 -1,2 -1,1 -2,1 -2,2 -1,0 -2,1 -3,1 -1,0 -2,0 -2,0 -1,0 -1,0 -1,0 -1,0 -1,-1 -1,-1 0,0 0,-1 0,-1 0,-1 0,-1 0,-2 0,-1 1,-2 2,-4 1,-2 2,-3 3,-5zm22 3c0,1 0,1 -1,1 0,0 -1,0 -1,0 -1,-1 -1,-1 -1,-1 -2,0 -4,1 -7,1 -2,3 -2,5 -2,6 0,2 0,2 2,2 1,0 2,0 4,-1 1,-1 2,-2 3,-3 1,-1 2,-1 2,-1 0,0 0,0 0,0 0,1 -1,2 -2,3 -4,3 -7,4 -11,4 -1,0 -1,0 -2,-1 0,0 0,-1 0,-1 0,-2 1,-4 2,-7 0,0 0,0 0,0 0,0 0,-1 1,-1 0,-1 0,-1 1,-2 1,-3 3,-5 6,-5 0,0 1,-1 1,-1 0,0 0,1 0,1 0,0 0,0 0,0 -2,1 -3,3 -4,6 2,-1 4,-1 5,-1 1,-1 2,-3 2,-5 0,0 0,-1 0,-1 0,0 0,0 -1,0 0,0 0,0 0,0 0,0 0,0 1,-1 0,0 1,0 1,0 1,0 2,1 2,2 0,1 -1,2 -1,3 -1,1 -2,2 -3,2 2,1 3,1 3,1zm17 -6c0,1 -1,2 -1,3 -1,1 -2,1 -2,1 -1,0 -1,0 -1,0 0,0 0,0 0,0 1,-1 1,-2 1,-3 0,-1 0,-2 -1,-2 -1,0 -2,1 -2,1 -2,1 -3,3 -5,6 -2,3 -2,6 -2,7 0,2 0,2 2,2 1,0 2,0 4,-1 1,-1 2,-2 3,-3 1,-1 2,-1 2,-1 0,0 0,0 0,0 0,1 -1,2 -2,3 -4,3 -7,4 -11,4 -1,0 -1,0 -2,-1 0,0 0,-1 0,-1 0,-1 0,-2 0,-2 1,-4 3,-7 5,-10 3,-3 6,-5 10,-5 1,0 2,1 2,2zm29 11c0,0 0,0 0,0 0,0 0,1 -1,1 0,1 -1,2 -3,3 -1,1 -2,1 -3,1 -3,0 -4,-1 -4,-4 0,-2 1,-4 2,-8 -2,2 -4,5 -7,8 0,1 -1,2 -2,3 -1,1 -2,1 -3,1 0,0 0,0 0,0 0,0 0,0 0,0 1,-3 2,-5 3,-7 1,-3 1,-5 1,-6 0,-1 0,-1 0,-1 -1,0 -2,2 -5,5 -2,2 -3,4 -5,6 0,1 -1,2 -1,3 0,0 -1,0 -2,1 -1,0 -1,0 -2,0 0,0 0,0 0,0 1,-2 3,-6 5,-12l1 -2c0,0 0,0 0,0 0,0 -1,0 -1,0l3 -4c0,0 0,0 1,0 0,-1 1,-1 1,-1 1,0 1,0 1,1 0,0 -1,1 -2,5 -2,3 -2,5 -3,5 2,-1 4,-3 6,-5 3,-3 5,-5 6,-5 1,0 1,1 1,2 0,2 -1,5 -3,9 4,-3 6,-6 8,-8 0,0 0,-1 1,-1 1,0 1,1 1,2 0,0 0,1 0,2 -1,0 -1,1 -1,1 -1,2 -1,4 -1,5 0,3 1,4 2,4 1,0 2,-1 3,-2 2,-1 3,-2 3,-2z"/>
   <path class="fil7 str2" d="M371 196c0,0 0,0 -1,0 0,0 -1,0 -1,1 -1,0 -2,1 -3,2 -1,1 -2,2 -3,4 -1,1 -2,2 -2,2 1,0 2,-1 4,-2 1,-1 3,-2 4,-2 1,-3 2,-4 2,-5zm-2 5c-1,1 -2,1 -3,2 -1,1 -2,1 -3,2 -1,1 -2,2 -3,3 -1,0 -1,1 -2,2 1,0 2,1 3,1 2,0 5,-3 8,-10zm-7 -5c-1,0 -1,1 -2,1 0,0 -1,0 -1,0 0,0 0,-1 0,-1 0,0 1,0 3,-1l0 0c1,-3 3,-6 4,-8 2,-3 4,-5 5,-7 2,-2 4,-4 6,-5 2,-2 4,-3 6,-3 2,-1 3,-1 5,0 1,0 2,1 2,3 0,1 -1,3 -2,5 -1,1 -3,3 -5,5 -2,2 -5,4 -8,6 -3,1 -7,3 -11,4 -1,2 -1,3 -2,5 0,1 -1,3 -2,4 6,-7 10,-11 13,-11 1,0 1,1 1,2 0,1 0,3 -1,5 1,-1 1,-1 1,-1 0,0 1,0 1,0 0,1 -1,1 -1,1 -1,0 -1,0 -2,0 -1,3 -2,5 -3,7 -1,2 -3,3 -4,3 -1,1 -2,1 -2,1 -1,0 -1,1 -1,1 -1,0 -1,0 -1,0 0,0 -1,0 -1,0 -1,0 -2,0 -3,-1 0,1 0,1 0,1 -1,0 -1,0 -1,-1 0,0 0,0 0,-1 0,0 0,0 0,-1 0,-1 1,-2 1,-4 1,-1 2,-2 2,-4 1,-2 2,-3 3,-5zm2 -2c4,-1 7,-2 10,-4 2,-2 5,-3 7,-5 2,-2 3,-4 5,-5 1,-2 1,-3 1,-4 0,-2 0,-3 -1,-3 -1,-1 -2,-1 -3,0 -2,0 -3,1 -5,2 -2,1 -3,3 -5,5 -1,2 -3,4 -4,6 -2,3 -3,5 -5,8zm23 18c-1,0 -2,-1 -2,-4 0,-2 0,-4 0,-6 -1,2 -2,4 -5,6 -2,2 -4,4 -6,4 -1,0 -1,-1 -1,-2 0,-2 1,-5 3,-9 3,-5 5,-7 8,-6 1,-1 2,-1 3,-1 0,0 1,0 2,0 1,0 1,0 2,0 0,0 0,0 0,0 0,1 0,1 0,2 -1,1 -1,2 -1,2 -1,1 -1,3 -2,5 0,2 -1,3 -1,5 0,1 1,2 2,2 1,0 2,-1 3,-2 1,-1 2,-1 2,-1 0,0 0,0 0,0 0,1 -1,2 -3,3 -1,1 -3,2 -4,2zm0 -17c0,0 0,0 -1,0 -1,0 -3,1 -4,2 -1,1 -2,3 -3,5 -2,3 -2,5 -3,6 0,1 0,1 0,1 0,1 0,1 0,1 0,0 1,-1 2,-1 2,-2 4,-4 5,-6 1,-2 3,-4 4,-8zm31 4c1,-2 1,-2 2,-3 1,0 1,0 2,0 1,0 1,0 1,0 0,0 0,1 0,1 -1,0 -1,0 -1,1l-2 1c0,0 0,1 0,2 -1,0 -1,1 -1,2 -1,1 -1,2 -1,3 0,0 -1,1 -1,2 0,1 0,2 1,2 0,0 1,0 1,0 1,-1 1,-1 2,-1 1,-1 1,-1 1,-1 1,-1 1,-1 1,-1 0,0 0,1 -1,1 0,1 -1,1 -1,2 -1,0 -2,1 -2,1 -1,0 -2,1 -3,1 -1,0 -2,-2 -1,-4 0,0 0,-1 0,-2 0,0 1,-1 1,-2 0,-1 0,-1 1,-2 -1,0 -1,0 -1,0 -1,1 -2,1 -3,1 -1,0 -3,1 -4,1l0 0c0,2 -1,3 -1,4 -1,1 -1,2 -1,3 0,0 -1,0 -1,0 0,0 -1,1 -1,1 0,0 -1,0 -1,0 0,0 -1,0 -1,0 0,0 0,0 0,0l0 0c1,-2 2,-4 3,-6 0,0 0,0 0,0 1,-2 2,-5 3,-8 0,0 0,0 0,0 0,0 0,0 0,0 0,0 1,-1 2,-4 0,0 1,0 1,0 1,-1 1,-1 2,-1 0,0 0,0 0,1 0,0 0,0 0,1 -1,0 -1,1 -1,2 -1,1 -1,2 -2,4 0,0 -1,1 -1,2 0,0 1,0 1,0 1,-1 2,-1 3,-1 1,0 2,-1 3,-1 0,0 0,-1 0,-1l1 -1zm20 13c-2,0 -3,-1 -3,-4 0,-2 0,-4 1,-6 -2,2 -3,4 -5,6 -3,2 -5,4 -7,4 -1,0 -1,-1 -1,-2 0,-2 1,-5 4,-9 2,-5 5,-7 7,-6 1,-1 2,-1 3,-1 0,0 1,0 2,0 1,0 2,0 2,0 0,0 1,0 1,0 0,1 -1,1 -1,2 -1,1 -1,2 -1,2 -1,1 -1,3 -2,5 0,2 0,3 0,5 0,1 0,2 1,2 1,0 2,-1 3,-2 1,-1 2,-1 2,-1 0,0 0,0 0,0 0,1 -1,2 -3,3 -1,1 -2,2 -3,2zm0 -17c-1,0 -1,0 -1,0 -2,0 -3,1 -5,2 -1,1 -2,3 -3,5 -1,3 -2,5 -3,6 0,1 0,1 0,1 0,1 0,1 0,1 1,0 1,-1 2,-1 2,-2 4,-4 6,-6 0,-2 2,-4 4,-8zm29 12c0,2 0,3 2,3 1,0 2,0 3,-2 1,0 1,0 1,0 0,-1 1,-1 1,-1 0,0 0,0 0,-1 0,0 0,1 0,1 1,0 0,0 0,0 -1,2 -1,3 -3,3 -1,1 -2,2 -3,2 -1,0 -2,0 -2,-1 -1,0 -1,0 -1,-1 -1,0 -1,-1 -1,-2 0,0 0,-1 0,-2 1,-2 1,-4 2,-4 0,-1 1,-2 1,-2 -1,1 -2,2 -3,3 -1,1 -3,2 -4,3 -1,1 -2,2 -3,3 -1,1 -2,1 -2,1 0,0 -1,-1 -1,-1 0,-1 1,-3 1,-4 1,-2 1,-4 2,-6 0,1 -1,2 -2,3 -1,1 -2,3 -2,4 -1,1 -2,2 -3,3 -1,1 -2,1 -3,2 0,0 -1,1 -2,1 -1,0 -2,-1 -2,-2 -1,0 -1,0 -1,-1 0,0 0,-1 0,-1 1,-1 1,-1 1,-1 1,0 1,0 2,0 0,1 0,2 1,2 1,1 2,0 3,0 0,-1 1,-2 2,-3 1,-1 2,-3 3,-4 1,-1 2,-2 2,-3 1,-1 1,-2 1,-2 1,-1 2,-2 2,-3 1,0 2,-1 3,-1 0,0 0,0 0,1 0,0 0,0 0,0 0,1 -1,2 -1,4 -1,1 -1,2 -2,3 0,1 -1,2 -1,3 0,1 0,2 0,2 0,1 0,1 0,1 0,0 1,0 1,-1 1,0 2,-1 2,-2 1,-1 2,-1 3,-3 1,-1 1,-2 2,-3 1,-1 2,-1 2,-2 1,-1 1,-2 1,-2 1,-1 1,-1 1,-1 0,0 1,0 1,0 0,-1 1,-1 1,-1 0,0 1,0 1,0 0,0 0,0 0,0l0 0c0,1 -1,2 -1,3 -1,1 -1,2 -2,3 0,1 -1,3 -2,4 0,2 -1,3 -1,5zm34 -12c0,1 -1,2 -1,3 -1,1 -2,1 -2,1 -1,0 -1,0 -1,0 0,0 0,0 0,0 1,-1 1,-2 1,-3 0,-1 0,-2 -1,-2 -1,0 -2,1 -2,1 -2,1 -3,3 -5,6 -2,3 -2,6 -2,7 0,2 0,2 2,2 1,0 2,0 4,-1 1,-1 2,-2 3,-3 1,-1 2,-1 2,-1 0,0 0,0 0,0 0,1 -1,2 -2,3 -4,3 -7,4 -11,4 -1,0 -1,0 -2,-1 0,0 0,-1 0,-1 0,-1 0,-2 0,-2 1,-4 3,-7 5,-10 3,-3 6,-5 9,-5 2,0 3,1 3,2zm11 12c0,1 0,1 0,2 1,1 1,1 1,1 1,0 3,-1 4,-2 0,0 1,0 1,-1 0,0 0,0 1,0 0,0 0,-1 0,-1 0,0 0,0 0,0 0,1 0,1 0,1 -1,1 -2,2 -3,3 -1,1 -2,2 -3,2 -1,0 -2,0 -2,-1 -1,0 -1,0 -1,-1 -1,-1 -1,-1 -1,-2 0,-1 0,-2 0,-3 0,-1 1,-2 1,-2 0,-1 1,-2 1,-3 -1,1 -2,2 -2,3 -1,1 -2,2 -2,3 -1,1 -2,2 -3,3 -1,1 -1,1 -2,2 -1,0 -2,1 -3,1 0,0 -1,-1 -2,-2 0,0 -1,0 -1,-1 0,0 1,-1 1,-1 0,-1 0,-1 1,-1 0,-1 1,-1 1,0 0,1 1,2 2,2 0,0 1,0 2,0 1,-1 2,-2 3,-3 1,-2 2,-3 3,-4 0,-1 1,-2 2,-3 0,-1 1,-2 1,-2 0,-1 1,-2 1,-2 1,-1 1,-1 2,-1 1,0 1,0 1,0 0,0 -1,1 -1,2 0,0 -1,1 -1,3 0,1 -1,2 -1,4 -1,1 -1,3 -1,4zm22 5c-2,0 -3,-1 -3,-4 0,-2 0,-4 1,-6 -1,2 -3,4 -5,6 -3,2 -5,4 -7,4 0,0 -1,-1 -1,-2 0,-2 1,-5 4,-9 2,-5 5,-7 7,-6 1,-1 2,-1 3,-1 0,0 1,0 3,0 0,0 1,0 1,0 1,0 1,0 1,0 0,1 0,1 -1,2 0,1 -1,2 -1,2 -1,1 -1,3 -1,5 -1,2 -1,3 -1,5 0,1 0,2 1,2 1,0 2,-1 3,-2 2,-1 2,-1 2,-1 0,0 0,0 0,0 0,1 -1,2 -3,3 -1,1 -2,2 -3,2zm0 -17c0,0 -1,0 -1,0 -2,0 -3,1 -4,2 -2,1 -3,3 -4,5 -1,3 -2,5 -3,6 0,1 0,1 0,1 0,1 0,1 1,1 0,0 0,-1 1,-1 2,-2 4,-4 6,-6 1,-2 2,-4 4,-8zm24 -2l0 2c-1,1 -2,3 -3,6 -1,3 -3,7 -5,13 0,-1 1,-1 2,-1 1,0 1,1 1,1 0,0 -1,0 -3,0l0 0c-2,5 -5,9 -8,12 -4,4 -8,6 -12,6 -2,0 -4,0 -5,-1 -2,-1 -3,-3 -3,-5 0,-3 3,-6 10,-9 4,-2 9,-3 15,-3 1,-2 2,-5 3,-7 0,-1 1,-3 2,-5 -1,2 -3,4 -5,6 -3,2 -5,4 -7,4 0,0 -1,-1 -1,-2 0,-2 1,-5 4,-9 2,-5 5,-7 7,-6 1,-1 2,-1 3,-1 0,0 1,0 2,0l0 0c1,-1 2,-1 3,-1 0,0 0,0 0,0l0 0zm-4 2c-1,0 -1,0 -1,0 -2,0 -3,1 -5,2 -1,1 -2,3 -3,5 -1,3 -2,5 -3,6 0,1 0,1 0,1 0,1 0,1 0,1 1,0 1,-1 2,-1 2,-2 4,-4 6,-6 1,-2 2,-4 4,-8zm-7 19c-6,1 -11,2 -14,4 -6,3 -8,6 -8,9 0,1 0,2 1,3 1,0 2,1 4,1 3,0 7,-2 10,-6 3,-3 5,-6 7,-11zm21 -22c3,0 4,1 4,4 0,2 -1,4 -3,7 -2,3 -3,5 -5,7 1,1 1,1 2,1 1,0 1,0 1,0 0,0 0,0 -1,0 -1,0 -2,0 -3,-1 -1,1 -3,2 -5,2 -2,0 -3,-1 -3,-3 0,-1 1,-4 2,-6 2,-3 3,-4 4,-6l0 0c0,-2 1,-3 3,-4 1,0 3,-1 4,-1zm1 4c0,-1 0,-2 -1,-2 -1,0 -2,0 -3,2 0,0 1,0 1,1 0,0 0,0 -1,0 -1,1 -2,1 -2,2 -1,1 -1,3 -1,4 0,2 1,4 1,6 2,-1 3,-3 4,-6 2,-3 2,-5 2,-7zm-6 13c-1,-2 -2,-4 -2,-7 -1,2 -2,4 -2,6 0,1 0,2 2,2 0,0 1,0 2,-1zm15 -7l0 0c5,-5 8,-7 10,-8 1,-1 1,-1 2,-1 0,0 1,1 1,1 0,0 -1,1 -3,2 -4,2 -7,5 -9,7 0,1 1,3 1,4 2,2 3,3 3,3 1,0 2,-1 3,-2 1,-2 1,-2 1,-2 0,0 0,0 0,0 0,0 0,0 0,1 0,1 -1,2 -1,3 -1,1 -2,2 -3,2 -2,0 -3,-1 -4,-3 -1,-2 -2,-3 -2,-5 -1,1 -2,3 -3,4 0,0 0,1 0,1 0,0 0,1 -1,2 -1,1 -2,1 -3,1 0,0 0,0 0,0 0,0 1,-1 1,-2 1,-2 3,-5 5,-9 -1,-1 -1,-1 -1,-1 0,-1 1,-2 2,-2 4,-8 7,-14 10,-18 0,-1 0,-1 0,-1 0,0 0,-1 0,-1 1,-1 1,-3 2,-3 0,-1 1,-1 3,-1 1,0 1,0 1,1 0,0 -1,1 -2,4 -3,4 -7,9 -10,15 -2,4 -3,6 -3,8zm35 10c-2,0 -3,-1 -3,-4 0,-1 0,-2 1,-4 0,-2 0,-3 0,-3 -5,7 -9,10 -11,10 -2,0 -2,-1 -2,-2 0,-2 0,-3 1,-5 0,-1 1,-2 2,-5l0 0c0,0 0,0 0,0 0,0 0,0 0,-1 1,-2 2,-3 2,-3 1,-1 2,-1 4,-1 0,0 0,0 0,0 0,0 -1,2 -3,6 -1,1 -1,2 -2,4 -1,2 -1,3 -1,4 0,0 0,1 0,1 1,0 2,-1 3,-2 3,-2 5,-5 8,-10l0 0c1,-2 1,-2 2,-3 0,0 1,0 3,0 0,0 0,0 0,0 0,0 0,1 -1,2 0,1 -1,1 -1,1 0,1 -1,3 -1,5 -1,2 -1,4 -1,5 0,2 1,3 2,3 0,0 1,-1 3,-2 1,-1 2,-1 1,-1 1,0 1,0 1,0 0,1 -1,2 -3,3 -2,1 -3,2 -4,2zm38 -6c0,0 0,0 0,0 0,0 0,1 -1,1 0,1 -1,2 -2,3 -2,1 -3,1 -4,1 -3,0 -4,-1 -4,-4 0,-1 0,-3 2,-7 0,-1 0,-2 0,-2 0,-1 0,-1 0,-1 0,0 -1,1 -2,1 -1,1 -3,3 -5,6 -2,3 -4,5 -5,7 0,0 0,0 -1,1 -1,0 -2,0 -2,0 0,0 0,0 0,0 2,-3 4,-7 6,-12 0,-1 0,-1 0,-2 0,0 0,0 0,0 0,0 0,0 0,0 0,0 0,-1 2,-4 0,0 0,0 1,0 0,-1 1,-1 1,-1 1,0 1,0 1,1 0,0 -2,4 -5,10 1,-1 3,-3 6,-5 3,-3 5,-5 6,-5 0,0 0,1 0,1 0,1 0,2 0,4 -1,4 -2,7 -2,8 0,2 1,3 2,3 1,0 2,-1 3,-2 2,-1 3,-2 3,-2z"/>
   <path class="fil7 str2" d="M656 212c-2,0 -4,-1 -5,-1 -3,7 -5,12 -5,16 0,2 0,3 1,3 1,0 2,-1 3,-2 2,-1 2,-2 2,-2 0,0 0,0 0,0 0,1 -1,3 -3,4 -1,1 -2,1 -3,1 -2,0 -3,-1 -3,-4 0,-3 2,-9 7,-18 0,0 0,0 0,-1 0,-1 1,-2 2,-3 2,-4 4,-7 7,-11 -1,-1 -2,-2 -3,-3 0,0 0,0 0,0 0,-1 0,-1 1,-1 0,-1 1,-1 1,-1 0,0 1,1 3,3 1,-2 2,-3 3,-3 0,0 0,0 0,0 0,0 -1,1 -3,4 3,4 4,7 4,10 0,2 -1,4 -3,6 -2,2 -4,3 -6,3zm7 -7c0,-3 -1,-6 -3,-10 -2,3 -4,6 -5,9 0,0 0,0 1,0 0,0 0,0 0,0 0,0 -1,1 -2,1 -1,2 -1,3 -2,4 1,1 2,2 4,2 2,0 4,-1 5,-2 1,-1 2,-3 2,-4zm19 7c-2,0 -3,-1 -3,-4 0,-1 1,-2 1,-4 0,-2 0,-3 0,-3 -5,7 -9,10 -11,10 -1,0 -2,-1 -2,-2 0,-2 0,-3 1,-5 0,-1 1,-2 3,-5l-1 0c0,0 0,0 0,0 0,0 0,0 0,-1 1,-2 2,-3 2,-3 1,-1 2,-1 4,-1 0,0 0,0 0,0 0,0 -1,2 -3,6 -1,1 -1,2 -2,4 -1,2 -1,3 -1,4 0,0 0,1 0,1 1,0 2,-1 3,-2 3,-2 6,-5 8,-10l0 0c1,-2 1,-2 2,-3 1,0 2,0 3,0 0,0 1,0 1,0 0,0 -1,1 -1,2 -1,1 -2,1 -2,1 0,1 -1,3 -1,5 -1,2 -1,4 -1,5 0,2 1,3 2,3 0,0 2,-1 3,-2 1,-1 2,-1 2,-1 0,0 0,0 0,0 0,1 -1,2 -3,3 -2,1 -3,2 -4,2zm12 -16c1,-1 2,-1 3,-2 1,0 1,0 2,0 2,0 2,0 2,2 0,0 0,1 0,3 -1,1 -2,2 -3,4 0,0 0,0 0,0 1,0 1,-1 1,-1 1,0 1,0 2,-1 0,0 0,1 0,1 0,0 0,0 0,0 -1,0 -1,1 -1,1 0,1 0,2 0,2 0,1 0,1 0,2 0,1 0,1 0,2 1,1 1,1 2,1 1,0 2,0 3,-2 1,0 1,0 1,-1 0,0 1,0 1,0 0,0 0,0 0,-1 1,0 1,0 1,0 0,1 0,1 -1,1 0,1 -1,2 -3,3 -1,1 -2,2 -3,2 -1,0 -1,0 -2,-1 0,0 -1,0 -1,-1 -1,-1 -1,-1 -1,-2 0,-1 0,-2 1,-3 -1,0 -1,0 -1,0l-2 2c-1,1 -1,2 -2,3 -1,1 -2,1 -3,2 -1,0 -3,-1 -4,-1 0,-1 0,-1 0,-2 0,0 0,-1 0,-1 0,0 0,-1 1,-1 0,0 1,0 1,0 0,1 1,2 1,2 1,1 1,1 2,1 0,0 1,-1 1,-1 1,0 1,-1 2,-1 0,-1 0,-1 1,-2 0,0 0,0 0,-1 -1,0 -1,0 -2,0 -1,-1 -2,-1 -2,-3 0,0 0,-1 1,-2 0,-1 0,-1 1,-2l1 0c-1,0 -1,1 -1,1 0,1 0,1 0,2 0,1 0,1 1,2 1,0 2,0 3,0l0 0c0,-1 1,-1 1,-2 0,-1 1,-2 1,-2 0,-1 0,-1 0,-2 0,0 0,-1 0,-1 0,-1 -1,-1 -1,-1 -1,0 -2,0 -2,0 0,1 -1,1 -1,2 -1,0 -1,0 -1,0 0,0 0,0 0,-1zm42 10c0,0 0,0 0,0 0,0 0,1 0,1 -1,1 -2,2 -3,3 -1,1 -2,1 -4,1 -2,0 -3,-1 -3,-4 0,-2 0,-4 2,-8 -2,2 -4,5 -7,8 -1,1 -1,2 -2,3 -1,1 -2,1 -3,1 0,0 0,0 0,0 0,0 0,0 0,0 1,-3 2,-5 2,-7 2,-3 2,-5 2,-6 0,-1 0,-1 0,-1 -1,0 -3,2 -5,5 -2,2 -4,4 -5,6 0,1 -1,2 -2,3 0,0 0,0 -1,1 -1,0 -1,0 -2,0 0,0 0,0 0,0 1,-2 3,-6 5,-12l1 -2c0,0 0,0 0,0 -1,0 -1,0 -1,0l2 -4c1,0 1,0 2,0 0,-1 1,-1 1,-1 0,0 0,0 0,1 0,0 0,1 -1,5 -2,3 -3,5 -3,5 2,-1 3,-3 6,-5 3,-3 5,-5 6,-5 0,0 1,1 1,2 0,2 -1,5 -3,9 3,-3 6,-6 7,-8 1,0 1,-1 2,-1 1,0 1,1 1,2 0,0 0,1 -1,2 0,0 0,1 0,1 -1,2 -1,4 -1,5 0,3 0,4 1,4 1,0 3,-1 4,-2 2,-1 2,-2 2,-2zm14 -5c0,1 0,1 -1,1 0,0 0,0 -1,0 0,-1 -1,-1 -1,-1 -2,0 -4,1 -7,1 -2,3 -2,5 -2,6 0,2 0,2 2,2 1,0 3,0 4,-1 1,-1 2,-2 3,-3 1,-1 2,-1 2,-1 0,0 0,0 0,0 0,1 -1,2 -2,3 -3,3 -7,4 -11,4 -1,0 -1,0 -1,-1 -1,0 -1,-1 -1,-1 0,-2 1,-4 2,-7 0,0 0,0 0,0 0,0 0,-1 1,-1 0,-1 0,-1 1,-2 2,-3 4,-5 6,-5 0,0 1,-1 1,-1 0,0 1,1 1,1 0,0 -1,0 -1,0 -1,1 -3,3 -4,6 2,-1 4,-1 5,-1 2,-1 2,-3 2,-5 0,0 0,-1 0,-1 0,0 0,0 -1,0 0,0 0,0 0,0 0,0 0,0 1,-1 0,0 1,0 1,0 1,0 2,1 2,2 0,1 0,2 -1,3 -1,1 -2,2 -2,2 1,1 2,1 2,1zm16 -2c0,-2 1,-2 1,-3 1,0 2,0 3,0 0,0 0,0 0,0 0,0 0,1 0,1 0,0 -1,0 -1,1l-1 1c0,0 -1,1 -1,2 0,0 -1,1 -1,2 0,1 -1,2 -1,3 0,0 0,1 0,2 -1,1 0,2 0,2 1,0 1,0 2,0 0,-1 1,-1 1,-1 1,-1 1,-1 2,-1 0,-1 0,-1 0,-1 0,0 0,1 -1,1 0,1 0,1 -1,2 -1,0 -1,1 -2,1 -1,0 -2,1 -2,1 -2,0 -2,-2 -2,-4 0,0 0,-1 1,-2 0,0 0,-1 0,-2 1,-1 1,-1 1,-2 0,0 0,0 -1,0 -1,1 -2,1 -3,1 -1,0 -2,1 -3,1l0 0c-1,2 -1,3 -2,4 0,1 -1,2 -1,3 0,0 0,0 -1,0 0,0 0,1 -1,1 0,0 0,0 -1,0 0,0 0,0 0,0 -1,0 -1,0 -1,0l0 0c1,-2 2,-4 3,-6 0,0 0,0 0,0 1,-2 3,-5 4,-8 0,0 0,0 -1,0 0,0 0,0 0,0 0,0 1,-1 2,-4 1,0 1,0 2,0 0,-1 1,-1 1,-1 0,0 0,0 0,1 0,0 0,0 0,1 0,0 -1,1 -1,2 -1,1 -1,2 -2,4 0,0 0,1 -1,2 1,0 1,0 1,0 2,-1 3,-1 4,-1 1,0 2,-1 2,-1 1,0 1,-1 1,-1l1 -1zm23 -19c0,0 0,0 0,0 -6,9 -10,16 -12,22 0,0 0,0 0,1 0,0 0,1 0,1 -1,0 -1,-1 -1,-1 0,-1 2,-5 4,-12 3,-6 5,-10 6,-11 1,-1 2,-1 2,-1 1,0 1,0 1,1zm-12 28c0,0 0,0 -1,1 0,1 -1,1 -1,1 0,2 -1,2 -2,2 0,0 -1,0 -1,-1 0,-1 1,-2 2,-2 1,-1 2,-1 3,-1l0 0 0 0 0 0z"/>
  </g>
  <g id="_2482533262000">
   <path class="fil7 str2" d="M745 225c0,1 0,1 -1,1 0,1 -1,1 -2,1 -1,0 -2,0 -2,-1 -1,0 -2,0 -2,0 -1,0 -1,0 -2,0 0,0 0,0 0,0 -1,1 -2,2 -2,4 0,1 -1,2 -1,4 0,1 -1,2 -1,3 0,2 -1,3 -2,4 -1,1 -1,2 -2,2 -1,1 -2,1 -3,2 -1,0 -2,0 -4,0 -1,1 -2,1 -3,0 -1,0 -2,0 -3,0 -1,-1 -2,-2 -3,-2 0,-1 -1,-2 -1,-3 0,-1 0,-2 0,-4 0,0 1,-1 1,-1 0,-1 1,-1 1,-1 0,-1 1,-1 1,-1 0,0 0,0 0,1 0,0 0,0 0,0 -1,0 -1,1 -1,1 0,0 -1,0 -1,1 0,0 0,1 0,1 0,1 0,2 0,3 0,1 1,1 1,2 0,0 1,1 1,1 1,1 2,1 2,1 1,0 2,1 2,1 1,0 2,0 2,0 1,0 2,-1 3,-1 1,0 2,-1 2,-1 1,0 2,-1 2,-1 1,-1 1,-1 2,-2 0,-1 1,-1 1,-2 0,-1 1,-2 1,-3 1,-1 1,-2 1,-3 1,-1 1,-2 1,-3 1,-1 1,-2 1,-2 1,-1 1,-1 1,-2 -2,0 -3,0 -4,0 -1,0 -3,0 -4,0 -1,0 -2,0 -3,1 -1,0 -2,0 -3,1 0,1 -1,1 -1,2 0,1 -1,2 0,2 0,1 0,1 0,2 0,0 1,1 2,1 0,0 1,0 2,0 0,-1 1,-1 1,-1 1,-1 1,-1 1,-2 0,0 0,0 0,-1l0 0c0,0 0,0 1,0 0,0 0,0 0,1 0,0 0,1 -1,1 0,1 -1,1 -1,2 -1,0 -1,0 -2,1 0,0 -1,0 -2,-1 -1,0 -1,0 -2,-1 0,0 -1,-1 -1,-2 0,-1 0,-2 0,-2 1,-1 1,-2 2,-3 0,-1 1,-1 3,-2 1,0 2,0 4,0 0,0 1,0 2,0 1,0 2,0 2,0 1,0 2,0 3,1 0,0 1,0 1,0 0,0 0,0 0,0 1,-1 1,-1 1,-1 0,0 0,0 0,-1 1,0 1,0 1,0l0 0c0,0 0,0 0,0 1,0 1,0 1,0 0,1 0,1 0,1 0,0 -1,0 -1,0 0,0 0,0 0,0 0,0 0,0 0,0 -1,0 -1,1 -1,1 0,0 0,0 0,0 0,0 1,0 1,0 1,0 2,1 2,1 1,0 1,0 2,0 1,0 1,0 2,0 0,0 1,0 1,0 0,-1 0,-1 0,-1 0,0 0,0 1,0 0,0 0,0 0,0 0,0 0,0 0,0zm-11 23c0,0 -1,0 -1,1 0,0 0,0 -1,0 0,0 0,0 0,0 0,0 -1,0 -1,0 0,0 0,0 1,-1 0,0 0,-1 0,-2 1,-1 1,-1 1,-2 1,-1 1,-2 1,-3 1,-1 1,-1 1,-2 0,-1 0,-1 0,-2 0,0 0,1 0,1 0,0 0,0 0,-1 0,0 0,0 0,0 0,0 0,-1 0,-1 0,0 0,0 1,-1 0,0 0,0 0,-1 0,0 0,0 0,-1 -1,0 -1,0 -1,0 0,0 1,0 1,0 0,0 0,0 0,0 0,0 0,0 0,0 1,0 1,0 1,0 0,0 0,0 0,0 0,0 0,0 0,0 0,0 0,0 0,1 0,0 0,0 0,1 0,0 0,0 0,1 0,0 0,1 0,1 0,0 0,1 0,1 0,0 0,-1 1,-1 0,-1 0,-1 1,-2 0,0 0,0 1,-1 0,0 1,0 1,-1 0,0 1,0 1,0 1,0 1,-1 1,-1 0,1 -1,2 -1,3 0,1 0,1 0,1 -1,1 -1,1 -1,2 0,0 0,0 0,1 0,0 0,0 0,0 0,1 0,1 0,1 0,1 0,1 0,1 1,0 1,-1 1,-1 1,0 1,-1 1,-1 0,-1 1,-1 1,-2 0,0 0,-1 0,-1 0,0 1,0 1,0 0,0 0,0 0,0 0,0 -1,1 -1,2 0,0 0,1 -1,1 0,1 0,1 -1,2 0,0 -1,0 -1,0 0,0 0,0 -1,0 0,0 0,0 0,0 -1,0 -1,-1 -1,-1 0,0 0,-1 0,-2 0,0 1,0 1,-1 0,0 0,-1 0,-1 1,-1 1,-1 1,-1 0,0 0,0 -1,0 0,0 0,0 0,0 0,0 -1,0 -1,1 -1,0 -1,0 -1,1 0,0 -1,0 -1,1 0,0 0,1 -1,1 0,1 0,2 0,2l-2 7zm20 -13c0,1 -1,1 -1,2 0,0 0,1 -1,1 0,1 0,1 -1,2 0,0 0,0 -1,0 0,0 0,0 -1,0 0,0 0,0 0,0 0,-1 0,-1 0,-2 0,0 0,0 0,-1 0,0 -1,1 -1,1 0,1 0,1 -1,1 0,1 0,1 -1,1 0,1 0,1 0,1 -1,0 -1,0 -1,0 0,0 0,0 0,0 -1,0 -1,-1 -1,-1 0,0 0,0 0,0 0,-1 0,-1 0,-1 0,0 0,-1 0,-1 0,0 0,0 0,-1 0,0 0,0 0,0 0,0 0,0 0,0 0,0 0,-1 0,-1 0,0 0,0 0,0 0,0 0,-1 1,-1 0,0 0,-1 0,-1 0,-1 1,-1 1,-2 0,0 0,0 0,0 0,0 0,0 1,0l1 0c0,0 0,0 0,0 0,0 0,0 -1,0 0,1 0,1 0,1 0,0 0,1 0,1 0,0 -1,1 -1,1 0,1 0,1 0,1 0,1 0,1 -1,1 0,1 0,2 0,2 0,0 0,1 0,1 1,0 1,0 1,0 0,0 1,-1 1,-1 0,0 1,-1 1,-2 0,0 1,-1 1,-1 0,-1 0,-2 1,-2 0,-1 0,-2 0,-2 0,0 1,0 1,-1 0,0 0,0 0,0l2 0c-1,0 -1,0 -1,1 0,0 0,0 0,0 0,0 0,1 0,1 -1,0 -1,0 -1,1 0,0 0,1 0,1 0,0 -1,1 -1,1 0,1 0,1 0,1 0,1 0,1 0,1 0,1 0,1 0,1 0,0 0,1 0,1 1,0 1,-1 1,-1 1,0 1,-1 1,-1 0,0 1,-1 1,-1 0,-1 0,-2 0,-2 1,0 1,0 1,0 0,0 0,0 0,0zm8 -1c0,1 0,1 0,1 0,1 0,2 -1,2 0,1 0,1 -1,2 0,0 -1,0 -1,0 -1,0 -1,0 -1,0 0,0 -1,0 -1,0 0,0 0,0 -1,1 0,0 -1,0 -1,0 0,0 -1,0 -1,0 0,-1 -1,-1 -1,-1 0,-1 0,-1 0,-2 0,-1 0,-1 0,-2 1,0 1,-1 1,-1 0,-1 1,-1 1,-2 1,0 1,-1 1,-1 1,0 1,0 2,0 0,0 1,0 1,0 0,0 1,0 1,1 0,0 0,1 0,1 0,1 0,2 -1,2 0,1 0,1 0,2 -1,0 -1,1 -1,1 0,1 0,1 1,1 0,0 1,0 1,-1 0,0 1,-1 1,-1 0,-1 0,-1 1,-2 0,0 0,-1 0,-1 0,0 0,0 0,0 0,0 1,0 0,0zm-4 -3c0,0 0,0 0,1 -1,0 -1,0 -1,0 -1,1 -1,1 -1,2 0,0 -1,1 -1,1 0,1 0,1 0,2 0,0 -1,1 -1,1 0,0 1,1 1,1 0,0 0,0 0,0 0,0 1,0 1,0 0,0 1,0 1,-1 0,0 0,0 -1,0 0,0 0,-1 0,-1 0,0 0,0 0,-1 1,0 1,0 1,0 0,0 1,0 1,0 0,0 0,1 0,1 0,0 0,0 0,0 0,0 0,0 0,0 0,0 0,-1 1,-1 0,-1 0,-2 0,-2 0,-1 0,-1 0,-1 0,-1 0,-1 0,-1 0,0 0,-1 -1,-1zm-3 -11c0,0 1,-1 1,-1 1,-1 2,-1 3,-1 0,0 0,0 1,0 0,0 0,0 1,0 0,0 0,0 1,0 0,1 1,1 1,1 0,0 1,-1 1,-1 1,0 1,0 1,-1 0,0 0,0 0,0 0,0 0,0 0,0 1,0 1,0 1,0 0,0 0,0 0,0 0,1 -1,1 -1,1 0,0 0,1 -1,1 0,0 0,0 -1,1 0,0 0,0 -1,0 0,0 -1,0 -1,0 0,0 -1,0 -1,0 0,-1 -1,-1 -1,-1 0,0 -1,0 -1,0 -1,0 -1,0 -1,1 -1,0 -1,0 -1,1 0,0 0,0 0,1 0,0 0,1 0,1 0,0 0,1 1,1 0,1 0,1 0,2 0,0 1,1 1,2 1,1 1,2 2,4 0,0 0,0 0,0 0,0 -1,0 -1,0 0,0 0,-1 0,-1 0,-1 -1,-2 -1,-2 -1,-1 -1,-2 -1,-3 0,0 -1,0 -1,-1 0,0 0,-1 0,-1 -1,-1 -1,-1 -1,-2 0,-1 0,-1 0,-2zm16 13c0,1 0,1 0,2 -1,0 -1,1 -1,1 0,1 -1,1 -1,2 -1,0 -1,0 -2,0 0,0 0,0 -1,0 0,0 0,0 0,0 -1,0 -1,0 -1,1 -1,0 -1,0 -1,0 -1,0 -1,0 -2,0 0,-1 0,-1 0,-1 0,-1 0,-1 0,-2 0,0 0,-1 0,-2 0,0 0,-1 1,-1 0,-1 0,-1 1,-2 0,0 1,-1 1,-1 0,0 1,0 1,0 1,0 1,0 1,0 1,0 1,1 1,1 0,0 0,1 0,2 0,0 0,1 0,1 0,1 0,1 -1,2 0,0 0,1 -1,1 0,1 1,1 1,1 1,0 1,0 2,-1 0,0 0,0 0,-1 1,0 1,-1 1,-2 0,0 0,0 1,-1 0,0 0,0 0,0 0,0 0,0 0,0zm-4 -3c0,0 -1,0 -1,1 0,0 -1,0 -1,0 0,1 0,1 -1,2 0,0 0,1 0,1 -1,1 -1,1 -1,2 0,0 0,1 0,1 0,0 0,1 0,1 0,0 0,0 1,0 0,0 0,0 1,0 0,0 0,0 0,0 0,-1 0,-1 0,-1 0,0 0,0 0,-1 0,0 0,0 0,0 0,-1 0,-1 1,-1 0,0 0,0 0,0 0,0 0,1 0,1 0,0 0,0 0,0 0,0 0,0 0,0 1,0 1,-1 1,-1 0,-1 0,-1 1,-2 0,0 0,-1 0,-1 0,-1 0,-1 -1,-1 0,0 0,0 0,-1zm10 3c0,0 0,1 0,2 -1,0 -1,1 -1,1 -1,1 -1,1 -1,2 -1,0 -1,0 -2,0 -1,0 -1,0 -2,0 0,-1 -1,-1 -1,-2 0,0 0,-1 0,-1 0,-1 0,-1 0,-2 1,0 1,0 1,-1 0,0 0,-1 1,-1 0,0 0,-1 1,-1 0,0 0,-1 1,-1 0,0 0,0 1,0 0,0 1,0 1,0 0,0 0,0 0,1 0,0 0,0 0,1 0,0 0,0 0,1 0,0 -1,0 -1,1 0,0 -1,0 -1,0 0,0 0,1 -1,1 0,0 0,0 -1,0 0,0 0,0 0,0 0,0 0,1 0,1 0,1 0,1 0,1 0,1 0,1 0,1 0,1 1,1 1,1 1,0 1,-1 1,-1 1,0 1,-1 2,-1 0,-1 0,-1 0,-2 0,0 1,-1 1,-1 0,0 0,0 0,0 0,0 0,-1 0,-1 0,0 0,0 0,1 0,0 0,0 0,0zm-2 -1c0,0 0,0 0,-1 0,0 1,0 1,-1 0,0 0,0 0,-1 0,0 -1,0 -1,0 0,0 0,0 -1,1 0,0 0,1 -1,1 0,1 0,1 -1,2 0,0 0,0 0,1 0,0 0,0 0,0 1,0 1,-1 1,-1 0,0 1,0 1,0 0,0 0,0 1,-1zm12 0c0,1 0,1 0,2 -1,0 -1,1 -1,1 0,1 -1,1 -1,1 0,1 -1,1 -1,1 0,1 -1,2 -1,3 -1,1 -1,2 -2,3 0,1 -1,1 -2,2 -1,0 -2,1 -3,1 -1,0 -2,-1 -2,-2 0,0 0,-1 0,-2 1,0 1,-1 2,-1 0,0 1,-1 1,-1 1,0 2,-1 2,-1 1,0 1,-1 2,-1 0,0 1,0 1,0 0,-1 0,-1 0,-2 0,0 1,-1 1,-1 0,-1 0,-1 -1,-2 0,0 0,0 0,0 0,0 0,0 0,1 -1,1 -1,1 -1,2 -1,0 -1,1 -2,1 0,0 -1,1 -1,0 -1,0 -1,0 -1,-1 -1,0 -1,-1 -1,-1 0,-1 1,-2 1,-3 0,0 1,-1 1,-2 0,0 1,-1 1,-1 1,0 1,-1 2,-1 0,0 1,0 1,0 1,0 1,0 2,1 0,0 0,0 0,0 0,0 0,0 0,1 0,0 0,0 0,0 0,0 0,0 0,-1 -1,0 -1,0 -1,0 0,-1 -1,0 -1,0 0,0 -1,0 -1,0 -1,1 -1,1 -1,2 -1,0 -1,1 -1,2 -1,0 -1,1 -1,1 0,1 0,1 0,2 0,0 0,1 0,1 1,0 1,0 1,-1 1,0 1,-1 2,-1 0,-1 0,-1 1,-2 0,-1 0,-1 0,-2 0,0 0,0 1,0 0,0 0,0 0,-1 0,0 0,0 0,0 1,0 1,0 1,0 0,1 0,2 0,3 0,1 0,2 0,3 0,0 1,0 1,0 0,-1 0,-1 1,-1 0,-1 0,-2 0,-2 1,-1 1,-1 1,-1 0,0 0,-1 0,-1 0,0 0,1 0,1zm-5 6c0,0 0,0 0,1 -1,0 -1,0 -1,0 -1,0 -2,1 -3,1 -1,1 -1,1 -2,2 -1,0 -1,0 -1,1 0,0 -1,1 -1,1 0,1 0,1 1,1 0,0 0,0 1,0 0,0 0,0 1,0 0,0 0,0 0,0 1,0 1,-1 1,-1 0,0 1,0 1,0 0,-1 0,-1 1,-1 0,-1 1,-1 1,-2 0,-1 1,-2 1,-3z"/>
   <path class="fil7 str2" d="M796 231c0,0 0,1 -1,1 0,1 0,1 0,2 -1,0 -1,1 -1,1 -1,1 -1,1 -2,1 0,0 0,0 -1,0 0,0 0,0 0,-1 -1,1 -1,1 -1,1 -1,0 -1,1 -2,1 0,0 0,-1 -1,-1 0,0 0,0 0,-1 -1,0 -1,-1 -1,-1 0,-1 1,-1 1,-2 0,-1 0,-1 1,-2 0,0 0,-1 1,-1 0,-1 0,-1 1,-1 0,-1 1,-1 1,-1 1,0 1,0 1,1 1,0 1,0 1,1 0,0 0,1 0,1 0,1 0,1 0,2 0,0 -1,1 -1,1 0,1 -1,2 -1,2 0,0 1,1 1,1 1,0 1,-1 1,-1 1,0 1,-1 1,-1 1,-1 1,-1 1,-2 0,0 0,-1 0,-1 0,0 1,0 1,0 0,0 0,0 0,0zm-4 -3c0,0 -1,0 -1,0 0,0 -1,1 -1,1 0,0 -1,1 -1,1 0,1 0,1 -1,2 0,0 0,1 0,1 0,1 0,1 0,2 0,0 0,0 0,1 0,0 0,0 1,0 0,0 0,0 0,0 1,0 1,-1 1,-1 0,0 0,0 0,0 0,-1 0,-1 0,-1 0,0 0,-1 0,-1 0,0 0,0 1,0 0,0 0,0 0,0 0,0 0,0 0,0 0,0 0,1 0,1 0,0 0,0 0,0 1,-1 1,-1 1,-2 0,0 0,-1 0,-1 1,-1 1,-1 1,-2 0,0 -1,0 -1,-1 0,0 0,0 0,0zm7 -2c1,-1 3,-2 4,-3 1,0 2,-2 3,-3 1,-1 2,-1 2,-2 0,-1 1,-1 1,-2 0,-1 0,-1 0,-2 0,0 -1,0 -1,0 -1,0 -1,0 -2,1 -1,0 -1,1 -2,1 0,1 -1,2 -1,3 -1,0 -1,1 -2,2 0,1 -1,2 -1,2 0,1 -1,2 -1,3zm-2 1c1,-1 1,-3 2,-4 0,-2 1,-3 2,-4 0,-1 1,-1 1,-2 1,-1 1,-1 2,-2 0,0 1,-1 2,-1 0,-1 1,-1 1,-1 1,0 1,0 2,0 0,0 0,1 1,1 0,0 0,1 0,1 0,1 -1,1 -1,2 0,1 0,1 -1,2 0,0 0,1 -1,2 -1,1 -2,2 -3,3 -2,1 -3,2 -5,2 -1,1 -1,1 -1,1 0,1 0,1 0,1 -1,1 -1,2 -1,3 0,0 0,1 0,2 0,0 0,1 0,1 0,1 0,1 1,1 0,0 1,0 2,-2 0,0 0,-1 1,-1 0,-1 0,-1 0,-2 0,0 1,-1 1,-1 0,-1 0,-1 0,-1 -1,-1 -1,-1 -1,-1 0,0 -1,0 -1,0 0,0 0,0 0,0 0,0 0,0 0,0 0,0 0,0 0,-1 0,0 0,0 0,0 1,0 1,1 2,1 0,0 0,0 0,0 1,1 1,1 1,2 0,0 0,0 0,1 0,0 0,1 -1,1 0,1 0,2 0,2 -1,1 -1,1 -1,1 -1,1 -1,1 -2,1 -1,1 -1,1 -2,1 0,0 -1,0 -1,-1 0,0 0,0 -1,-1 0,0 0,0 0,-1 0,0 1,-1 1,-1 0,-1 0,-1 0,-2 0,1 -1,2 -1,3 0,1 -1,2 -1,2 0,0 0,0 0,0 0,0 0,0 0,0 0,-1 0,-1 0,-2 1,0 1,-1 1,-2 1,0 1,-1 1,-2 0,-1 1,-1 1,-2zm0 0c0,0 -1,0 -1,0 0,0 -1,0 -1,-1 0,0 0,0 0,0 0,0 0,0 0,0 0,-1 0,-1 0,-1 0,0 0,0 0,0 0,0 0,0 0,0 0,0 0,0 0,1l0 0c0,0 1,0 1,0 0,0 1,0 1,0l0 1zm33 -11c0,0 0,1 0,1 0,1 -1,1 -1,2 -1,1 -2,1 -3,2 -1,0 -2,0 -3,1 -2,0 -3,0 -4,0 -1,0 -3,0 -4,0 0,0 0,1 -1,1 0,1 0,1 -1,2 0,0 0,1 0,2 -1,0 -1,1 -1,2 -1,1 -1,3 0,4 0,1 0,1 1,1 1,1 1,1 2,0 1,0 2,-1 3,-2 1,-1 2,-2 2,-2 1,-1 1,-2 2,-3 0,0 1,-1 1,-2 1,-1 1,-1 1,-2 1,-1 1,-1 1,-1 1,-1 1,-1 1,0 0,0 0,0 0,0 0,1 0,1 0,2 0,0 -1,1 -1,1 0,1 -1,1 -1,2 0,1 0,1 0,2 -1,1 -1,1 -1,2 0,1 0,2 0,2 1,1 1,1 1,1 1,0 1,0 2,-1 0,0 1,-1 1,-1 0,-1 1,-2 1,-2 0,-1 1,-2 1,-2 0,0 0,-1 0,-1 0,0 1,1 0,1 0,0 0,0 0,1 0,0 0,1 0,1 -1,0 -1,1 -1,1 0,0 0,1 -1,1 0,0 0,1 0,1 -1,0 -1,1 -1,1 0,0 -1,0 -1,0 0,1 -1,1 -1,1 -1,0 -1,0 -1,-1 -1,0 -1,0 -1,0 0,-1 0,-1 0,-2 0,0 0,-1 0,-1 0,-1 0,-1 0,-2 0,0 0,0 0,-1 0,1 0,1 -1,2 0,0 -1,1 -1,2 -1,0 -1,1 -2,1 -1,1 -1,1 -2,1 -1,1 -1,1 -2,1 0,0 -1,0 -2,0 0,0 -1,0 -1,-1 -1,-1 -1,-2 -1,-2 0,-1 0,-2 0,-4 0,-1 1,-2 1,-3 1,-1 1,-1 1,-2 1,0 1,-1 1,-2 0,0 -1,0 -1,0 -1,0 -1,-1 -1,-1 -1,0 -1,0 -1,-1 0,0 0,0 0,-1 0,0 0,0 0,0 0,-1 0,-1 0,-1 0,0 0,0 0,0 1,0 1,0 1,1 -1,0 -1,0 0,1 0,0 0,0 0,0 1,1 2,2 3,2 0,-1 1,-2 2,-3 1,-1 2,-2 3,-2 1,-1 2,-2 3,-2 1,-1 2,-1 4,-1 1,0 2,0 3,1 1,0 1,1 1,2zm-1 0c0,-1 0,-2 -1,-2 -1,0 -1,0 -2,0 -2,0 -3,0 -4,1 -1,0 -1,1 -2,1 -1,1 -2,2 -3,3 0,0 -1,1 -2,2 1,1 2,1 4,1 1,0 2,-1 4,-1 1,0 2,0 3,-1 0,0 1,-1 2,-1 0,0 1,-1 1,-2 0,0 0,-1 0,-1zm4 16c0,0 0,0 -1,0 0,1 0,1 0,1 -1,0 -1,0 -1,-1 0,0 0,0 0,0 0,-1 0,-1 0,-1 0,0 0,0 1,0 0,0 0,0 0,0 1,0 1,0 1,1zm20 -6c0,0 -1,1 -1,1 0,1 0,1 -1,2 0,0 0,1 0,1 -1,0 -1,1 -2,1 0,1 -1,1 -2,2 -1,0 -1,0 -2,1 -1,0 -2,0 -3,0 -1,0 -2,0 -3,-1 -1,0 -2,0 -2,-1 -1,-1 -2,-2 -2,-3 0,-1 -1,-2 -1,-3 0,-1 0,-2 0,-3 1,-1 1,-2 1,-3 1,-1 1,-2 2,-3 -1,0 -1,0 -1,-1 0,0 0,-1 0,-1 0,-1 0,-1 0,-2 0,0 0,-1 0,-1 0,-1 0,-1 0,-1 0,0 0,0 0,0 0,0 0,0 0,0 0,0 0,1 0,1 0,1 0,1 1,2 0,1 0,2 0,3 1,-2 3,-4 5,-5 1,-1 3,-1 5,-1 2,0 3,0 4,0 0,1 1,1 2,2 0,0 0,1 1,2 0,1 0,1 0,2 -1,1 -1,2 -1,2 -1,1 -2,2 -2,2 -1,1 -2,1 -3,2 -1,0 -2,0 -4,0 -1,0 -2,0 -4,-1 -1,0 -2,-1 -2,-3 -1,1 -1,1 -1,2 0,0 0,1 -1,2 0,1 0,2 0,3 0,1 0,2 0,3 1,1 1,2 2,2 0,1 1,2 2,2 2,0 3,0 5,0 1,-1 3,-1 4,-2 0,0 1,-1 1,-1 1,-1 1,-1 1,-2 0,0 1,-1 1,-1 0,-1 0,-1 1,-2 0,0 0,0 0,0 0,0 0,0 0,1zm-5 -14c-1,0 -2,0 -3,0 -1,0 -2,1 -3,2 -1,0 -1,1 -2,2 -1,1 -2,1 -2,2 1,2 2,3 3,4 1,0 2,0 4,0 1,0 2,0 4,0 1,-1 2,-1 2,-2 1,-1 1,-2 1,-3 1,-1 1,-2 0,-2 0,-1 -1,-2 -1,-2 -1,-1 -2,-1 -3,-1zm8 17c0,1 0,1 0,1 0,0 -1,0 -1,0 0,0 0,0 -1,0 0,0 0,0 0,-1 0,0 0,0 0,0 1,-1 1,-1 1,-1 0,0 1,0 1,1 0,0 0,0 0,0z"/>
  </g>
  <path class="fil8 str3" d="M93 155c-2,0 -4,1 -7,1 -4,0 -8,-1 -10,-3 -2,-3 -4,-5 -4,-9 0,-4 2,-7 4,-9 3,-3 7,-4 11,-4 2,0 5,0 6,1l0 5c-1,-1 -3,-2 -6,-2 -3,0 -5,1 -6,3 -2,1 -3,3 -3,6 0,2 1,4 2,6 2,1 4,2 7,2 2,0 4,-1 6,-2l0 5zm23 -17l-9 19c-1,4 -4,7 -8,7 -1,0 -2,-1 -3,-1l0 -4c1,1 2,1 3,1 1,0 2,-1 3,-2l1 -3 -8 -17 6 0 4 12c0,0 0,1 1,2l0 0c0,-1 0,-2 0,-2l4 -12 6 0zm1 9c0,-3 1,-5 3,-7 2,-1 4,-2 8,-2 3,0 5,1 7,2 2,2 3,4 3,7 0,3 -1,5 -3,6 -2,2 -5,3 -8,3 -3,0 -5,-1 -7,-3 -2,-1 -3,-3 -3,-6zm5 0c0,4 2,5 5,5 4,0 5,-2 5,-5 0,-4 -1,-6 -5,-6 -1,0 -2,1 -3,2 -1,1 -2,2 -2,4zm36 8l-5 0 0 -6 -2 0c-1,0 -2,1 -3,2l-2 4 -6 0 3 -5c1,-1 2,-2 3,-2 -3,-1 -5,-2 -5,-5 0,-3 3,-5 8,-5l9 0 0 17zm-5 -9l0 -5 -3 0c-2,0 -3,1 -3,3 0,1 1,2 3,2l3 0zm15 7l0 10 -5 0 0 -25 5 0 0 3 0 0c2,-2 4,-3 7,-3 2,0 4,1 6,2 1,2 2,4 2,6 0,3 -1,6 -3,7 -1,2 -3,3 -6,3 -2,0 -4,-1 -6,-3l0 0zm0 -5c0,1 1,2 2,3 0,1 1,1 3,1 1,0 2,0 3,-1 1,-1 1,-3 1,-5 0,-3 -1,-5 -4,-5 -1,0 -3,1 -3,2 -1,1 -2,2 -2,3l0 2zm19 7l0 -17 10 0c5,0 7,2 7,5 0,2 -1,3 -4,3 2,1 3,1 3,2 1,0 2,1 2,2 0,2 -1,3 -2,4 -1,1 -3,1 -5,1l-11 0zm5 -14l0 4 4 0c2,0 3,0 3,-2 0,-1 -1,-2 -3,-2l-4 0zm0 7l0 4 4 0c2,0 3,0 3,-2 0,-1 -1,-2 -3,-2l-4 0zm31 7c-1,1 -3,1 -5,1 -3,0 -6,-1 -7,-2 -2,-2 -3,-4 -3,-7 0,-3 1,-5 3,-7 2,-1 4,-2 8,-2 2,0 3,0 4,1l0 4c-1,-1 -2,-2 -4,-2 -2,0 -3,1 -4,2 -1,1 -2,2 -2,4 0,2 1,3 2,4 1,1 2,1 4,1 1,0 3,0 4,-1l0 4zm23 0l-6 0 -7 -8 0 0 0 8 -5 0 0 -17 5 0 0 8 0 0 6 -8 7 0 -8 8 8 9zm21 0l-5 0 0 -11c0,0 0,1 -1,2l-7 9 -5 0 0 -17 4 0 0 12c1,-1 1,-1 2,-2l7 -10 5 0 0 17zm24 0l-5 0 0 -11c0,0 -1,1 -1,2l-7 9 -5 0 0 -17 4 0 0 12c1,-1 1,-1 2,-2l7 -10 5 0 0 17zm-3 -24c0,1 -1,3 -2,3 -1,1 -3,2 -4,2 -2,0 -3,-1 -5,-2 -1,-1 -1,-2 -1,-3l3 0c0,1 1,2 3,2 2,0 3,-1 3,-2l3 0zm27 22l0 10 -5 0 0 -25 5 0 0 3 0 0c2,-2 4,-3 7,-3 2,0 4,1 5,2 2,2 2,4 2,6 0,3 0,6 -2,7 -2,2 -4,3 -6,3 -3,0 -5,-1 -6,-3l0 0zm0 -5c0,1 0,2 1,3 1,1 2,1 3,1 2,0 3,0 4,-1 1,-1 1,-3 1,-5 0,-3 -1,-5 -4,-5 -2,0 -3,1 -4,2 -1,1 -1,2 -1,3l0 2zm19 -9c1,0 2,0 4,-1 1,0 2,0 3,0 6,0 8,2 8,7l0 10 -5 0 0 -2 0 0c-1,2 -3,3 -6,3 -2,0 -3,-1 -4,-2 -1,0 -2,-2 -2,-3 0,-4 2,-5 7,-6l5 -1c0,-2 -1,-3 -3,-3 -3,0 -5,1 -7,2l0 -4zm6 9c-2,0 -3,1 -3,2 0,1 0,1 1,2 0,0 1,1 2,1 1,0 2,-1 3,-2 1,0 1,-1 1,-2l0 -2 -4 1zm33 7l-5 0 0 -11c0,0 -1,1 -1,2l-8 9 -5 0 0 -17 5 0 0 12c0,-1 1,-1 1,-2l8 -10 5 0 0 17zm-3 -24c-1,1 -1,3 -2,3 -2,1 -3,2 -5,2 -1,0 -3,-1 -4,-2 -1,-1 -2,-2 -2,-3l3 0c1,1 2,2 3,2 2,0 3,-1 4,-2l3 0zm7 16c0,-3 1,-5 3,-7 2,-1 4,-2 8,-2 3,0 5,1 7,2 2,2 3,4 3,7 0,3 -1,5 -3,6 -2,2 -5,3 -8,3 -3,0 -5,-1 -7,-3 -2,-1 -3,-3 -3,-6zm5 0c0,4 2,5 5,5 4,0 5,-2 5,-5 0,-4 -1,-6 -5,-6 -1,0 -2,1 -3,2 -1,1 -2,2 -2,4zm38 8l-5 0 0 -7 -8 0 0 7 -5 0 0 -17 5 0 0 7 8 0 0 -7 5 0 0 17zm24 -8l0 8 -5 0 0 -23 9 0c7,0 10,2 10,7 0,2 -1,4 -3,6 -2,1 -4,2 -7,2l-4 0zm0 -12l0 8 3 0c4,0 6,-1 6,-4 0,-2 -2,-4 -6,-4l-3 0zm35 13l-13 0c0,3 2,5 6,5 2,0 4,-1 5,-2l0 4c-1,0 -4,1 -7,1 -3,0 -5,-1 -7,-2 -1,-2 -2,-4 -2,-7 0,-3 1,-5 2,-7 2,-1 5,-2 7,-2 3,0 5,1 7,2 1,2 2,4 2,6l0 2zm-5 -3c0,-3 -1,-4 -4,-4 -1,0 -2,1 -3,1 0,1 -1,2 -1,3l8 0zm23 10c-1,1 -3,1 -6,1 -2,0 -5,-1 -7,-2 -1,-2 -2,-4 -2,-7 0,-3 1,-5 3,-7 2,-1 4,-2 7,-2 2,0 4,0 5,1l0 4c-1,-1 -3,-2 -4,-2 -2,0 -3,1 -4,2 -2,1 -2,2 -2,4 0,2 0,3 1,4 1,1 3,1 5,1 1,0 3,0 4,-1l0 4zm22 0l-5 0 0 -13 -7 0 0 13 -6 0 0 -17 18 0 0 17zm24 -17l-9 19c-2,4 -4,7 -8,7 -1,0 -2,-1 -3,-1l0 -4c1,1 2,1 2,1 2,0 3,-1 4,-2l1 -3 -8 -17 6 0 4 12c0,0 0,1 0,2l1 0c0,-1 0,-2 0,-2l4 -12 6 0zm19 -4c-1,0 -2,0 -3,0 -3,1 -5,1 -6,1 -1,1 -2,1 -2,2 -1,1 -1,2 -1,4l0 0c1,-1 3,-2 6,-2 2,0 4,1 6,2 2,1 2,3 2,6 0,3 -1,5 -2,6 -2,2 -5,3 -8,3 -3,0 -5,-1 -7,-3 -2,-2 -3,-5 -3,-8 0,-3 1,-5 1,-7 1,-2 2,-3 3,-4 1,-1 3,-2 4,-2 1,0 4,-1 7,-1 1,-1 2,-1 3,-1l0 4zm-13 11c0,2 1,4 2,5 1,2 2,2 3,2 2,0 3,0 4,-1 1,-1 1,-2 1,-4 0,-1 0,-3 -1,-3 -1,-1 -2,-2 -4,-2 -2,0 -3,1 -5,3zm37 10l-5 0 0 -13 -4 0c-1,5 -2,9 -3,11 -2,2 -3,3 -6,3 0,0 -1,0 -2,-1l0 -3c1,0 1,0 2,0 1,0 2,0 3,-2 0,-2 1,-6 2,-12l13 0 0 17zm24 0l-5 0 0 -11c0,0 -1,1 -1,2l-8 9 -5 0 0 -17 5 0 0 12c0,-1 1,-1 1,-2l8 -10 5 0 0 17zm24 0l-7 0 -7 -8 0 0 0 8 -5 0 0 -17 5 0 0 8 0 0 7 -8 6 0 -7 8 8 9zm21 0l-5 0 0 -11c0,0 -1,1 -1,2l-8 9 -5 0 0 -17 5 0 0 12c0,-1 1,-1 1,-2l8 -10 5 0 0 17zm41 0l-7 0 -9 -10c0,0 0,-1 -1,-1l0 0 0 11 -5 0 0 -23 5 0 0 11 0 0c1,0 1,-1 1,-1l9 -10 6 0 -10 11 11 12zm3 -16c0,0 2,0 3,-1 1,0 3,0 4,0 5,0 8,2 8,7l0 10 -5 0 0 -2 0 0c-2,2 -4,3 -6,3 -2,0 -4,-1 -5,-2 -1,0 -1,-2 -1,-3 0,-4 2,-5 6,-6l6 -1c0,-2 -2,-3 -4,-3 -2,0 -4,1 -6,2l0 -4zm6 9c-2,0 -4,1 -4,2 0,1 1,1 1,2 1,0 2,1 2,1 2,0 3,-1 3,-2 1,0 2,-1 2,-2l0 -2 -4 1zm19 5l0 10 -5 0 0 -25 5 0 0 3 0 0c1,-2 4,-3 6,-3 3,0 5,1 6,2 2,2 2,4 2,6 0,3 -1,6 -2,7 -2,2 -4,3 -7,3 -2,0 -4,-1 -5,-3l0 0zm0 -5c0,1 0,2 1,3 1,1 2,1 3,1 2,0 3,0 4,-1 1,-1 1,-3 1,-5 0,-3 -2,-5 -4,-5 -2,0 -3,1 -4,2 -1,1 -1,2 -1,3l0 2zm35 0l-13 0c1,3 3,5 6,5 2,0 4,-1 6,-2l0 4c-2,0 -4,1 -7,1 -3,0 -5,-1 -7,-2 -2,-2 -3,-4 -3,-7 0,-3 1,-5 3,-7 2,-1 4,-2 7,-2 3,0 5,1 6,2 2,2 2,4 2,6l0 2zm-4 -3c0,-3 -2,-4 -4,-4 -1,0 -2,1 -3,1 -1,1 -1,2 -2,3l9 0zm26 10l-6 0 0 -13 -3 0c-1,5 -2,9 -3,11 -2,2 -4,3 -6,3 -1,0 -1,0 -2,-1l0 -3c0,0 1,0 1,0 2,0 2,0 3,-2 1,-2 2,-6 3,-12l13 0 0 17zm24 0l-5 0 0 -11c-1,0 -1,1 -2,2l-7 9 -5 0 0 -17 5 0 0 12c0,-1 0,-1 1,-2l7 -10 6 0 0 17zm21 0l-5 0 0 -6 -2 0c-1,0 -2,1 -3,2l-2 4 -6 0 3 -5c1,-1 2,-2 3,-2 -3,-1 -4,-2 -4,-5 0,-3 2,-5 8,-5l8 0 0 17zm-5 -9l0 -5 -3 0c-2,0 -3,1 -3,3 0,1 1,2 3,2l3 0z"/>
 </g>
</svg>
