<svg id="Слой_1" data-name="Слой 1" xmlns="http://www.w3.org/2000/svg" viewBox="0 0 900 200"><defs><style>.cls-1{fill:#fff;}.cls-2{fill:#4d75a1;}.cls-3{fill-rule:evenodd;}</style></defs><title>news05</title><rect class="cls-1" width="900" height="200"/><rect class="cls-1" x="41.04" y="42.67" width="157.96" height="119.33"/><path class="cls-2" d="M48.16,13H192.7A16.39,16.39,0,0,1,209,29.3V168.73A16.39,16.39,0,0,1,192.7,185H48.16A16.4,16.4,0,0,1,32,168.73V29.3A16.39,16.39,0,0,1,48.34,13Zm17,57.8a60.25,60.25,0,0,0-7-5.66,11.51,11.51,0,0,0-4.57-2.28c-1.32,0-2,1.18-2,3.56a46.78,46.78,0,0,0,1,9.13A69.33,69.33,0,0,0,55.32,85q2.82,7.88,7.35,17.54c3,6.43,5.89,12,8.77,16.89Q74.23,124,78.7,130.7a43.51,43.51,0,0,0,6.16,7.44A23,23,0,0,0,91.3,142a32.84,32.84,0,0,0,5.75,1.65,30.57,30.57,0,0,0,4.57.5,7.26,7.26,0,0,0,4.84-1.46,18.22,18.22,0,0,0,3.6-6.94,139.3,139.3,0,0,0,4.16-15.94,168.62,168.62,0,0,0,2.69-17.16c.32-3.38.51-8.13.51-14.25,0-11.14-1.28-17.89-3.79-20.31a19.22,19.22,0,0,0-5-3,39.24,39.24,0,0,0-7.31-2.6,18,18,0,0,0-4.56-.73c-3,0-4.57,1.64-4.57,4.93,0,1.74.19,5.07.55,10,.69,10,1,17.8,1,23.47a135,135,0,0,1-1.37,22.28c-.51,2.32-.92,4-1.15,4.93a61.88,61.88,0,0,1-4.42-5.53c-1.1-1.69-2.1-3.56-3.11-5.48A91.91,91.91,0,0,1,79.16,107a114.67,114.67,0,0,1-6-20,35.41,35.41,0,0,0-3.47-10.59,25.68,25.68,0,0,0-4.57-5.66Zm125.23,60.54c0-3.52-2.74-4.25-5.89-3.7-11.56,2-15.71,1.07-23.22-4.74a2.92,2.92,0,0,1-.45-.41,26.49,26.49,0,0,1-4.09-5.81,45.48,45.48,0,0,1-3.33-5c-2.09-3.64,3.37-7.09,11.26-15.32l.22-.21q6.17-5.28,12.85-9.93l.18-.13c2.11-1.76,3.91-3.37,5.44-4.82a33.84,33.84,0,0,0,3.65-4.1,8.9,8.9,0,0,1,1.32-1l.12-.08c2.54-1.59,5-5.34,5-8.34V67.7a4.68,4.68,0,0,0-2.29-4.11l-2.69,1-2.33-.23a6.26,6.26,0,0,0-3,.91,7.8,7.8,0,0,1-2.55,1,19.94,19.94,0,0,0-6,1.42c-1.32.63-2,1.46-2,2.37,0,8.22-29.91,27.39-37,36.52a2.52,2.52,0,0,1-.82-1.59,4.31,4.31,0,0,1,.27-1.33,6.58,6.58,0,0,1,.55-1.64,12.79,12.79,0,0,0,.68-1.78,11.77,11.77,0,0,0,.41-1.24c1.33-4.06,2.56-7.62,3.66-10.63s2.1-5.53,3-7.49l.41-1,.92-2a11.7,11.7,0,0,0,.68-1.69,7.88,7.88,0,0,0,0-1.19,16,16,0,0,0-1.46-4.25V69.2a11.56,11.56,0,0,1-.59-1.23c-.6-2.28-.78-2.51-1.33-2.15s-2.05-.68-2.51-.41-.86,0-1.18,0c-2.52-.5-4.3,1.46-6.12,2.24s-9.64,7.85-9.91,10.18c-.68,6-10.5,54.79-4.56,65.2,3.46,6,9.58-2.06,11.18-5.21a39,39,0,0,0,3.61-17.8c-.23-1.42,1.05-1.78,1.46-2.15,13.69,19.4,23.1,29.31,45,19.4,2.7-1.18,5-2.23,6.85-3.19A47.1,47.1,0,0,0,190.42,131.34Z"/><path class="cls-3" d="M843.7,168.65v11.09c0,1.32.1,2.28.1,3.56,0,1.49-.3,4.14.48,5a1.53,1.53,0,0,0,1.36.7H846c1,0,4-5,4.44-5.65l11.3-17.76c.2-.34.34-.52.51-.85h23.9c.77,0,2.78,0,3.27-.44a1.83,1.83,0,0,0,.7-1.69v-.15c0-1.12-1.31-1.9-2.34-2.81-2.51-2.21-6.36-5.6-9-7.73l-7.63-6.56c-.48-.43-.94-.77-1.41-1.2l-5.55-4.78c-4-3.28-8.46-7.28-12.53-10.72l-1.35-1.16c-1-.8-3.4-3.27-4.54-3.27a3,3,0,0,0-1.83,1c-.37.46-.15,2-.15,2.71v17.53c0,1.06-.1,1.73-.1,2.77Z"/><path class="cls-3" d="M813,124.38c0,5.72.14,9.19,2.1,14.33a34.72,34.72,0,0,0,7.65,12.19,33.08,33.08,0,0,0,7.38,5.73c1.22.69,3.47,1.92,5,1.92a1.53,1.53,0,0,0,1-.58,2.26,2.26,0,0,0,0-2.75c-1-.82-3.55-1.95-4.84-2.76a28,28,0,0,1-4.4-3.21c-.3-.25-.46-.5-.78-.76-1.86-1.51-4.09-4.87-5.33-7a32.55,32.55,0,0,1-3.89-14.84,31.83,31.83,0,0,1,1.17-8.88c.17-.52.26-1,.44-1.42,1.77-4.63,3.33-7.7,6.87-11.41.29-.31.55-.61.85-.89l3-2.51a26.53,26.53,0,0,1,4.5-2.72,29.65,29.65,0,0,1,5.25-1.92,27,27,0,0,1,16.06.77,27.5,27.5,0,0,1,10.64,6.77,29.64,29.64,0,0,1,3.21,3.78,37.12,37.12,0,0,1,2.63,4.47c1.36,2.86,3,7.81,3,11.19,0,4.49.14,7.25-1.24,11.57-.39,1.23-1.28,3.85.62,4.43,2.43.73,2.93-2.44,3.44-4.13a40.85,40.85,0,0,0,1-14.06,38.47,38.47,0,0,0-2.72-9.73l-1.35-2.74a34.63,34.63,0,0,0-2.42-3.81,29.81,29.81,0,0,0-3.32-3.84l-1.56-1.53A33.63,33.63,0,0,0,861,95.84c-.49-.31-.89-.43-1.41-.7A29.62,29.62,0,0,0,846.54,92h-3.35a19.67,19.67,0,0,0-3.4.45A32.19,32.19,0,0,0,830,96.12a36,36,0,0,0-4.08,2.75c-.22.17-.31.27-.53.44l-2,1.82a34,34,0,0,0-5.91,7.77l-1.35,2.65a36.92,36.92,0,0,0-2,5.88A29.32,29.32,0,0,0,813,124.38Z"/><path class="cls-3" d="M824.52,125.77a22.25,22.25,0,0,0,5.13,15.12L833,144.2c1.18.92,4.36,3.06,5.78,3.06a1.93,1.93,0,0,0,1.89-1.78c0-1.33-.27-1.73-1.76-2.52l-1.26-.65c-.44-.23-.77-.46-1.2-.73a17.12,17.12,0,0,1-4-3.69c-.28-.37-.55-.67-.79-1a19,19,0,0,1-3.08-8.65,15.81,15.81,0,0,1,.3-5.72,19.25,19.25,0,0,1,4.39-8.66,17,17,0,0,1,2.2-2,16.43,16.43,0,0,1,9.4-3.52,16.18,16.18,0,0,1,8.37,1.72,17.54,17.54,0,0,1,4.83,3.65A18.21,18.21,0,0,1,863,125.87c0,5.28-1.13,6.08-1.13,7.92a1.89,1.89,0,0,0,.46,1.21,2,2,0,0,0,3.29-.75,12,12,0,0,0,.71-2.22c1.35-5.65.61-12.54-2.38-17.25l-1.66-2.42a21.61,21.61,0,0,0-8.21-6.55c-.65-.29-1.31-.5-1.95-.73a20.36,20.36,0,0,0-12.24-.17,24.54,24.54,0,0,0-3.59,1.48,21.2,21.2,0,0,0-6.44,5.13c-.2.27-.38.41-.58.68a22.43,22.43,0,0,0-3.58,6.75A21,21,0,0,0,824.52,125.77Z"/><path d="M244.59,80.17c-3.66,0-4.88-1.32-4.88-4.84V49.81A3.59,3.59,0,0,1,243.47,46h8.64l1.08,5.55h-6.06c-.84,0-1.08.37-1.08,1.08V73.54c0,.71.14,1.08,1,1.08h6.15l-1.12,5.55Z"/><path d="M256.48,60.24,257.56,55h10c2.11,0,3.29,1.08,3.29,3.14v22h-5.36V77.54l-2.21,2.63H258.5a2.72,2.72,0,0,1-3-3v-10c0-2.07,1.09-3.11,3.15-3.11h6.77v-3c0-.75-.23-.85-.89-.85Zm5,8c-.66,0-.94.19-.94,1v4.79c0,.85.33.94,1,.94h3.9V68.28Z"/><path d="M279.09,65.83V80.17h-5.45V55h5.73l3.72,11.27c1-3.24,2.58-7.94,3.66-11.27h5.78V80.17h-5.45V65.83l-4,11Z"/><path d="M300.8,63.3h7.1c2.12,0,3,1.12,3,2.86V77.35c0,1.74-.89,2.82-3,2.82H295.35V55h5.45Zm3.76,12c.71,0,.9-.38.9-1V69.17c0-.75-.1-1-1-1H300.8v7.19Zm14.76,4.84h-5.59V55h5.59Z"/><path d="M327.5,74c0,.85.33.85.94.85h8.36l-1.12,5.36H325a2.59,2.59,0,0,1-2.87-2.82V58.08a2.75,2.75,0,0,1,3-3h9.07a2.68,2.68,0,0,1,3,3V70.77H327.5Zm0-7h4.75V60.81c0-.8-.38-.94-1-.94h-2.82c-.61,0-.94.14-.94.94Z"/><path d="M351.52,65.93h1.64l3.43-10.43a.72.72,0,0,1,.71-.47h3.9l1.45,5.21h-1.59c-.43,0-.57,0-.76.57l-1.92,5.92,4.09,13.44h-6l-3-10.62h-2V80.17h-5.64V55h5.64Z"/><path d="M366,55h15.56V80.17H376.1V59.87h-4.61v20.3h-6.91l-1.45-5.36H366Z"/><path d="M385.31,60.24,386.39,55h10c2.12,0,3.29,1.08,3.29,3.14v22h-5.35V77.54l-2.21,2.63h-4.75a2.72,2.72,0,0,1-3-3v-10c0-2.07,1.08-3.11,3.15-3.11h6.77v-3c0-.75-.24-.85-.9-.85Zm5,8c-.66,0-.94.19-.94,1v4.79c0,.85.33.94,1,.94h3.91V68.28Z"/><path d="M408.15,73.87c0,.85.38.94,1,.94h6L414,80.17h-8.7a2.63,2.63,0,0,1-2.87-2.87V58a2.69,2.69,0,0,1,3-3h8.28l1.45,5.21h-6c-.61,0-1,.14-1,.89Z"/><path d="M423.05,73.87c0,.85.38.94,1,.94h6l-1.13,5.36h-8.69a2.63,2.63,0,0,1-2.87-2.87V58a2.69,2.69,0,0,1,3-3h8.28l1.45,5.21h-6c-.61,0-1,.14-1,.89Z"/><path d="M448,55V80.17h-5.45V69.92h-4.66V80.17H432.4V55h5.45V66.26h4.66V55Z"/><path d="M456.23,63.3h7.1c2.11,0,3,1.12,3,2.86V77.35c0,1.74-.89,2.82-3,2.82H450.78V55h5.45Zm3.76,12c.71,0,.89-.38.89-1V69.17c0-.75-.09-1-1-1h-3.67v7.19Zm14.76,4.84h-5.59V55h5.59Z"/><path d="M482.93,74c0,.85.33.85.94.85h8.36l-1.13,5.36H480.44a2.59,2.59,0,0,1-2.87-2.82V58.08a2.75,2.75,0,0,1,3-3h9.07a2.69,2.69,0,0,1,3,3V70.77h-9.68Zm0-7h4.74V60.81c0-.8-.37-.94-1-.94h-2.82c-.61,0-.94.14-.94.94Z"/><path d="M524.33,66.82c1.37,4.51,2.82,8.84,4.18,13.35h-6.15l-2.82-10.62h-2V80.17h-5.45V69.55h-1.93c-.85,3.43-2,7.19-2.92,10.62h-6.06l4.14-13.35-1.79-6c-.14-.47-.28-.61-.84-.61h-1.84L502.24,55h4.23a.65.65,0,0,1,.66.47l3.34,10.8h1.6V55h5.45V66.3h1.64l3.34-10.8a.71.71,0,0,1,.7-.47h4.19l1.45,5.21H527c-.61,0-.7.14-.84.61Z"/><path d="M536.65,72.18l4.46-16.4V55h5.41V80.17h-5.41V62.78l-4.46,16.73v.66H531.2V55h5.45Z"/><path d="M552.81,60.24H548.4L549.81,55h11.65l1.46,5.21H558.5V80.17h-5.69Z"/><path d="M570.16,74c0,.85.33.85.94.85h8.36l-1.13,5.36H567.67a2.59,2.59,0,0,1-2.87-2.82V58.08a2.75,2.75,0,0,1,3-3h9.07a2.69,2.69,0,0,1,3,3V70.77h-9.68Zm0-7h4.74V60.81c0-.8-.37-.94-1-.94H571.1c-.61,0-.94.14-.94.94Z"/><path d="M584.12,55h15.55V80.17h-5.45V59.87h-4.6v20.3h-6.91l-1.46-5.36h2.87Z"/><path d="M607.94,72.18l4.47-16.4V55h5.4V80.17h-5.4V62.78l-4.47,16.73v.66h-5.45V55h5.45Z"/><path d="M643.33,66.87c0,2.49-1.64,4-4.55,4h-6.25v9.31h-6V46H639.1c2.92,0,4.23,1.55,4.23,4Zm-10.8-15.7V66h3.8c1,0,1.18-.37,1.18-1.27V52.25c0-.75-.29-1.08-1.13-1.08Z"/><path d="M647,60.24,648,55h10c2.11,0,3.29,1.08,3.29,3.14v22h-5.36V77.54l-2.21,2.63H649a2.73,2.73,0,0,1-3-3v-10c0-2.07,1.09-3.11,3.15-3.11h6.77v-3c0-.75-.23-.85-.89-.85Zm5,8c-.65,0-.94.19-.94,1v4.79c0,.85.33.94,1,.94h3.9V68.28Z"/><path d="M669.56,72.18,674,55.78V55h5.4V80.17H674V62.78l-4.47,16.73v.66h-5.45V55h5.45ZM678.77,48c-.19,4.61-3.29,5.6-7,5.6s-6.81-1-7-5.6H668c.14,3.15,2,3.11,3.81,3.11,2,0,3.71,0,3.81-3.11Z"/><path d="M687.89,65.93h1.65L693,55.5a.7.7,0,0,1,.7-.47h3.9L699,60.24h-1.6c-.42,0-.56,0-.75.57l-1.93,5.92,4.09,13.44h-6l-3-10.62h-2V80.17h-5.64V55h5.64Z"/><path d="M701.15,58.17c0-2.06,1-3.14,3.1-3.14h9.35c2.11,0,3.1,1.08,3.1,3.14V77c0,2.07-1,3.15-3.1,3.15h-9.35c-2.07,0-3.1-1.08-3.1-3.15Zm9.25,17.06c.66,0,.94-.09.94-.89V60.62c0-.8-.33-1-1-1h-2.87c-.61,0-1,.19-1,1V74.34c0,.8.33.89.94.89Z"/><path d="M735.08,55V80.17h-5.45V69.92H725V80.17h-5.45V55H725V66.26h4.66V55Z"/><path d="M743.54,65.93h1.64l3.43-10.43a.72.72,0,0,1,.71-.47h3.9l1.46,5.21h-1.6c-.42,0-.56,0-.75.57l-1.93,5.92,4.09,13.44h-6l-3-10.62h-2V80.17H737.9V55h5.64Z"/><path d="M756.79,58.17c0-2.06,1-3.14,3.11-3.14h9.35c2.11,0,3.1,1.08,3.1,3.14V77c0,2.07-1,3.15-3.1,3.15H759.9c-2.07,0-3.11-1.08-3.11-3.15Zm9.26,17.06c.66,0,.94-.09.94-.89V60.62c0-.8-.33-1-1-1h-2.86c-.61,0-1,.19-1,1V74.34c0,.8.33.89.94.89Z"/><path d="M780.86,73.87c0,.85.37.94,1,.94h6l-1.13,5.36H778a2.63,2.63,0,0,1-2.87-2.87V58a2.69,2.69,0,0,1,3-3h8.27l1.46,5.21h-6c-.61,0-1,.14-1,.89Z"/><path d="M795.85,65.93h1.65l3.43-10.43a.7.7,0,0,1,.7-.47h3.9L807,60.24h-1.6c-.42,0-.56,0-.75.57l-1.93,5.92,4.09,13.44h-6l-3-10.62h-2V80.17h-5.64V55h5.64Z"/><path d="M814.79,72.18l4.47-16.4V55h5.4V80.17h-5.4V62.78l-4.47,16.73v.66h-5.45V55h5.45Z"/><path d="M830.68,73.35A3.67,3.67,0,0,1,834.34,77,3.67,3.67,0,0,1,827,77,3.68,3.68,0,0,1,830.68,73.35ZM827.2,46h6.91L832.6,71.43h-3.94Z"/><path d="M839.89,73.35A3.67,3.67,0,0,1,843.55,77a3.67,3.67,0,0,1-7.33,0A3.68,3.68,0,0,1,839.89,73.35ZM836.41,46h6.91l-1.5,25.43h-4Z"/><path d="M849.1,73.35A3.68,3.68,0,0,1,852.77,77a3.67,3.67,0,1,1-3.67-3.67ZM845.62,46h6.91L851,71.43h-3.95Z"/><path d="M323.65,116.27v20.3h-5.46V102.4h5.46v11.66l2.25-2.64h4.75c2.11,0,3.1,1.09,3.1,3.15v22H328.3V117.21c0-.8-.33-.94-1-.94Z"/><path d="M343.39,111.42h4.13v5.22h-4.13v13.63c0,.75.23.94.94.94h4l-1.13,5.36h-6.16c-2.16,0-3.24-1.22-3.24-3V116.64H336.2v-5.22h1.64v-5.07l5.55-4.18Z"/><path d="M357.16,111.42h4.13v5.22h-4.13v13.63c0,.75.23.94.94.94h4L361,136.57h-6.16c-2.16,0-3.24-1.22-3.24-3V116.64H350v-5.22h1.64v-5.07l5.55-4.18Z"/><path d="M372,136.57l-2.25-2.63v12.5h-5.36v-35H377a2.63,2.63,0,0,1,2.86,3v19c0,2.07-1,3.15-3.1,3.15Zm1.5-5.17c.66,0,1.09-.24,1.09-1.08v-13c0-.85-.43-1-1.09-1h-3.75V131.4Z"/><path d="M391.65,126.51H385a2.13,2.13,0,0,1-2.31-2.4v-9.49a3,3,0,0,1,3.2-3.2h9l1.46,5.22H389c-.61,0-.89,0-.89.8v3.81c0,.84.28.8.89.8h5.41c1.74,0,2.49.84,2.49,2.44v9a2.9,2.9,0,0,1-3.15,3.1h-9.45l-1.12-5.36h7.56c.61,0,.94-.05.94-.89Z"/><path d="M403.26,112a3.64,3.64,0,1,1,0,7.28,3.64,3.64,0,1,1,0-7.28Zm0,17.71a3.68,3.68,0,0,1,3.67,3.67,3.67,3.67,0,1,1-3.67-3.67Z"/><path d="M424.36,101.93,413.93,137h-4.65l10.38-35.11Z"/><path d="M441.33,101.93,430.9,137h-4.66l10.39-35.11Z"/><path d="M446.55,136.57l-5.92-25.15h5.92l3.29,19,3.38-19h6l-6.11,25.15Z"/><path d="M472,111.42h5.54l-4.7,9.4,4.65,15.75h-6.06L467.7,123h-.89v13.54h-5.46V102.4h5.46v17.53h.79Z"/><path d="M482.93,129.75a3.67,3.67,0,0,1,3.66,3.67,3.67,3.67,0,0,1-7.33,0A3.68,3.68,0,0,1,482.93,129.75Z"/><path d="M495.1,130.27c0,.85.38.94,1,.94h6L501,136.57h-8.69a2.63,2.63,0,0,1-2.87-2.87V114.43a2.7,2.7,0,0,1,3-3h8.28l1.45,5.22h-6c-.61,0-1,.14-1,.89Z"/><path d="M504.45,114.57c0-2.06,1-3.15,3.1-3.15h9.36c2.11,0,3.1,1.09,3.1,3.15v18.85c0,2.07-1,3.15-3.1,3.15h-9.36c-2.06,0-3.1-1.08-3.1-3.15Zm9.26,17.06c.66,0,.94-.09.94-.89V117c0-.8-.33-1-1-1H510.8c-.61,0-1,.19-1,1v13.72c0,.8.33.89.94.89Z"/><path d="M542.94,117.21c0-.8-.32-.94-1-.94h-3.67v20.3h-5.36V117.21c0-.8-.32-.94-1-.94h-3.67v20.3h-5.45V111.42h5.45v2.64l2.26-2.64h14.57a3,3,0,0,1,3.29,3.29v21.86h-5.46Z"/><path d="M565.6,101.93,555.17,137h-4.66l10.39-35.11Z"/><path d="M570.82,130.27c0,.85.37.94,1,.94h6l-1.13,5.36H568a2.62,2.62,0,0,1-2.87-2.87V114.43a2.69,2.69,0,0,1,3-3h8.27l1.46,5.22h-6c-.61,0-1,.14-1,.89Z"/><path d="M585.86,136.57h-5.6V102.4h5.6Z"/><path d="M597.93,131.87c.66,0,.8-.38.8-.85v-19.6H604v22.47a2.42,2.42,0,0,1-2.35,2.68H591.26a2.49,2.49,0,0,1-2.44-2.68V111.42h5.26V131c0,.47.14.85.8.85Z"/><path d="M619.18,111.42c2.11,0,3.24,1,3.24,3.11v19.08a2.63,2.63,0,0,1-2.87,3h-5.07l-2.26-2.63v2.63h-5.35V102.4h5.35v9Zm-7,4.85V131.4h3.86c.65,0,1-.1,1-.94V117.25c0-.8-.33-1-1-1Z"/><path d="M632.86,102.4h8.78v23.22h1.93v4.56h-1.93v6.39h-6v-6.39H625v-7.33l7.85-19.51Zm2.82,23.22V111.33h-.85l-4.09,11.75v2.54Z"/><path d="M659.65,122.28v10.11c0,2.77-1.41,4.18-4.19,4.18h-8.93L645.45,131h6.68c.89,0,1.45-.09,1.45-1.36v-5.83c0-.84-.09-1.27-1.27-1.27H647.1v-5.07h5.12c1.13,0,1.36-.28,1.36-1.46v-6.81c0-1.13-.42-1.27-1.22-1.27h-7l1.08-5.55h8.78c2.78,0,4.19,1.32,4.19,4.09v9.64c0,1.36-.66,3.14-2.59,3.28C658.89,119.41,659.65,120.64,659.65,122.28Z"/><path d="M670.08,102.4h8.79v23.22h1.92v4.56h-1.92v6.39h-6v-6.39H662.23v-7.33l7.85-19.51Zm2.82,23.22V111.33h-.85L668,123.08v2.54Z"/><path d="M697.76,131.77c0,3.53-1.17,4.8-4.84,4.8h-8.5L683.33,131h7.43c.61,0,.89-.28.89-.94v-8.41c0-.71-.33-.8-.8-.8h-6.29c-.52-.61-1.13-1.17-1.65-1.78V102.4h13l1,5.55h-8.09v8.22h4.75c3.24,0,4.18,1.41,4.18,4.23Z"/><path d="M705.47,136.57c-3.67,0-4.89-1.32-4.89-4.84V106.21a3.58,3.58,0,0,1,3.72-3.81h10.33l1.09,5.55h-8c-.71,0-1,.28-1,.94v6.48h7.38c2,0,3.29,1,3.29,3.25v12.92c0,3.52-1.22,5-4.89,5Zm1.22-6.16c0,.75.24,1,.94,1h3c.61,0,.94-.19.94-1v-9.92c0-.61-.24-.89-.85-.89h-4Z"/><path d="M734.89,131.77c0,3.53-1.17,4.8-4.84,4.8h-8.51L720.46,131h7.43c.61,0,.89-.28.89-.94v-8.41c0-.71-.33-.8-.8-.8h-6.29c-.52-.61-1.13-1.17-1.65-1.78V102.4h13l1,5.55H726v8.22h4.75c3.24,0,4.18,1.41,4.18,4.23Z"/><path d="M737.38,106.58c0-2.77,1.46-4.18,4.28-4.18H750c2.77,0,4.18,1.41,4.18,4.18v25c0,3.53-1.32,4.94-5,4.94h-9.64L738.51,131h8.56c.7,0,1-.28,1-.94v-5.45h-7.43a3,3,0,0,1-3.29-3.24Zm10.72,2c0-.75-.19-1-.89-1h-3.06c-.61,0-.89.19-.89,1v11c0,.56.19.7.8.7h4Z"/><path d="M761.92,136.57c-3.67,0-4.89-1.32-4.89-4.84V106.21a3.58,3.58,0,0,1,3.71-3.81h10.34l1.08,5.55h-8c-.7,0-1,.28-1,.94v6.48h7.38c2,0,3.29,1,3.29,3.25v12.92c0,3.52-1.22,5-4.89,5Zm1.22-6.16c0,.75.24,1,.94,1h3c.61,0,.94-.19.94-1v-9.92c0-.61-.24-.89-.85-.89h-4Z"/></svg>