<svg id="Слой_1" data-name="Слой 1" xmlns="http://www.w3.org/2000/svg" viewBox="0 0 900 200"><defs><style>.cls-1{fill:#fff;}.cls-2{fill:#4d75a1;}.cls-3{fill-rule:evenodd;}</style></defs><title>news04</title><rect class="cls-1" width="900" height="200"/><rect class="cls-1" x="41.04" y="42.67" width="157.96" height="119.33"/><path class="cls-2" d="M48.16,13H192.7A16.39,16.39,0,0,1,209,29.3V168.73A16.39,16.39,0,0,1,192.7,185H48.16A16.4,16.4,0,0,1,32,168.73V29.3A16.39,16.39,0,0,1,48.34,13Zm17,57.8a60.25,60.25,0,0,0-7-5.66,11.51,11.51,0,0,0-4.57-2.28c-1.32,0-2,1.18-2,3.56a46.78,46.78,0,0,0,1,9.13A69.33,69.33,0,0,0,55.32,85q2.82,7.88,7.35,17.54c3,6.43,5.89,12,8.77,16.89Q74.23,124,78.7,130.7a43.51,43.51,0,0,0,6.16,7.44A23,23,0,0,0,91.3,142a32.84,32.84,0,0,0,5.75,1.65,30.57,30.57,0,0,0,4.57.5,7.26,7.26,0,0,0,4.84-1.46,18.22,18.22,0,0,0,3.6-6.94,139.3,139.3,0,0,0,4.16-15.94,168.62,168.62,0,0,0,2.69-17.16c.32-3.38.51-8.13.51-14.25,0-11.14-1.28-17.89-3.79-20.31a19.22,19.22,0,0,0-5-3,39.24,39.24,0,0,0-7.31-2.6,18,18,0,0,0-4.56-.73c-3,0-4.57,1.64-4.57,4.93,0,1.74.19,5.07.55,10,.69,10,1,17.8,1,23.47a135,135,0,0,1-1.37,22.28c-.51,2.32-.92,4-1.15,4.93a61.88,61.88,0,0,1-4.42-5.53c-1.1-1.69-2.1-3.56-3.11-5.48A91.91,91.91,0,0,1,79.16,107a114.67,114.67,0,0,1-6-20,35.41,35.41,0,0,0-3.47-10.59,25.68,25.68,0,0,0-4.57-5.66Zm125.23,60.54c0-3.52-2.74-4.25-5.89-3.7-11.56,2-15.71,1.07-23.22-4.74a2.92,2.92,0,0,1-.45-.41,26.49,26.49,0,0,1-4.09-5.81,45.48,45.48,0,0,1-3.33-5c-2.09-3.64,3.37-7.09,11.26-15.32l.22-.21q6.17-5.28,12.85-9.93l.18-.13c2.11-1.76,3.91-3.37,5.44-4.82a33.84,33.84,0,0,0,3.65-4.1,8.9,8.9,0,0,1,1.32-1l.12-.08c2.54-1.59,5-5.34,5-8.34V67.7a4.68,4.68,0,0,0-2.29-4.11l-2.69,1-2.33-.23a6.26,6.26,0,0,0-3,.91,7.8,7.8,0,0,1-2.55,1,19.94,19.94,0,0,0-6,1.42c-1.32.63-2,1.46-2,2.37,0,8.22-29.91,27.39-37,36.52a2.52,2.52,0,0,1-.82-1.59,4.31,4.31,0,0,1,.27-1.33,6.58,6.58,0,0,1,.55-1.64,12.79,12.79,0,0,0,.68-1.78,11.77,11.77,0,0,0,.41-1.24c1.33-4.06,2.56-7.62,3.66-10.63s2.1-5.53,3-7.49l.41-1,.92-2a11.7,11.7,0,0,0,.68-1.69,7.88,7.88,0,0,0,0-1.19,16,16,0,0,0-1.46-4.25V69.2a11.56,11.56,0,0,1-.59-1.23c-.6-2.28-.78-2.51-1.33-2.15s-2.05-.68-2.51-.41-.86,0-1.18,0c-2.52-.5-4.3,1.46-6.12,2.24s-9.64,7.85-9.91,10.18c-.68,6-10.5,54.79-4.56,65.2,3.46,6,9.58-2.06,11.18-5.21a39,39,0,0,0,3.61-17.8c-.23-1.42,1.05-1.78,1.46-2.15,13.69,19.4,23.1,29.31,45,19.4,2.7-1.18,5-2.23,6.85-3.19A47.1,47.1,0,0,0,190.42,131.34Z"/><path class="cls-3" d="M843.7,168.65v11.09c0,1.32.1,2.28.1,3.56,0,1.49-.3,4.14.48,5a1.53,1.53,0,0,0,1.36.7H846c1,0,4-5,4.44-5.65l11.3-17.76c.2-.34.34-.52.51-.85h23.9c.77,0,2.78,0,3.27-.44a1.83,1.83,0,0,0,.7-1.69v-.15c0-1.12-1.31-1.9-2.34-2.81-2.51-2.21-6.36-5.6-9-7.73l-7.63-6.56c-.48-.43-.94-.77-1.41-1.2l-5.55-4.78c-4-3.28-8.46-7.28-12.53-10.72l-1.35-1.16c-1-.8-3.4-3.27-4.54-3.27a3,3,0,0,0-1.83,1c-.37.46-.15,2-.15,2.71v17.53c0,1.06-.1,1.73-.1,2.77Z"/><path class="cls-3" d="M813,124.38c0,5.72.14,9.19,2.1,14.33a34.72,34.72,0,0,0,7.65,12.19,33.08,33.08,0,0,0,7.38,5.73c1.22.69,3.47,1.92,5,1.92a1.53,1.53,0,0,0,1-.58,2.26,2.26,0,0,0,0-2.75c-1-.82-3.55-1.95-4.84-2.76a28,28,0,0,1-4.4-3.21c-.3-.25-.46-.5-.78-.76-1.86-1.51-4.09-4.87-5.33-7a32.55,32.55,0,0,1-3.89-14.84,31.83,31.83,0,0,1,1.17-8.88c.17-.52.26-1,.44-1.42,1.77-4.63,3.33-7.7,6.87-11.41.29-.31.55-.61.85-.89l3-2.51a26.53,26.53,0,0,1,4.5-2.72,29.65,29.65,0,0,1,5.25-1.92,27,27,0,0,1,16.06.77,27.5,27.5,0,0,1,10.64,6.77,29.64,29.64,0,0,1,3.21,3.78,37.12,37.12,0,0,1,2.63,4.47c1.36,2.86,3,7.81,3,11.19,0,4.49.14,7.25-1.24,11.57-.39,1.23-1.28,3.85.62,4.43,2.43.73,2.93-2.44,3.44-4.13a40.85,40.85,0,0,0,1-14.06,38.47,38.47,0,0,0-2.72-9.73l-1.35-2.74a34.63,34.63,0,0,0-2.42-3.81,29.81,29.81,0,0,0-3.32-3.84l-1.56-1.53A33.63,33.63,0,0,0,861,95.84c-.49-.31-.89-.43-1.41-.7A29.62,29.62,0,0,0,846.54,92h-3.35a19.67,19.67,0,0,0-3.4.45A32.19,32.19,0,0,0,830,96.12a36,36,0,0,0-4.08,2.75c-.22.17-.31.27-.53.44l-2,1.82a34,34,0,0,0-5.91,7.77l-1.35,2.65a36.92,36.92,0,0,0-2,5.88A29.32,29.32,0,0,0,813,124.38Z"/><path class="cls-3" d="M824.52,125.77a22.25,22.25,0,0,0,5.13,15.12L833,144.2c1.18.92,4.36,3.06,5.78,3.06a1.93,1.93,0,0,0,1.89-1.78c0-1.33-.27-1.73-1.76-2.52l-1.26-.65c-.44-.23-.77-.46-1.2-.73a17.12,17.12,0,0,1-4-3.69c-.28-.37-.55-.67-.79-1a19,19,0,0,1-3.08-8.65,15.81,15.81,0,0,1,.3-5.72,19.25,19.25,0,0,1,4.39-8.66,17,17,0,0,1,2.2-2,16.43,16.43,0,0,1,9.4-3.52,16.18,16.18,0,0,1,8.37,1.72,17.54,17.54,0,0,1,4.83,3.65A18.21,18.21,0,0,1,863,125.87c0,5.28-1.13,6.08-1.13,7.92a1.89,1.89,0,0,0,.46,1.21,2,2,0,0,0,3.29-.75,12,12,0,0,0,.71-2.22c1.35-5.65.61-12.54-2.38-17.25l-1.66-2.42a21.61,21.61,0,0,0-8.21-6.55c-.65-.29-1.31-.5-1.95-.73a20.36,20.36,0,0,0-12.24-.17,24.54,24.54,0,0,0-3.59,1.48,21.2,21.2,0,0,0-6.44,5.13c-.2.27-.38.41-.58.68a22.43,22.43,0,0,0-3.58,6.75A21,21,0,0,0,824.52,125.77Z"/><path d="M316.72,69.87c0,2.49-1.65,4-4.56,4h-6.25v9.31h-6V49h12.6c2.91,0,4.23,1.55,4.23,4Zm-10.81-15.7V69h3.81c1,0,1.17-.37,1.17-1.27V55.25c0-.75-.28-1.08-1.13-1.08Z"/><path d="M324.19,78.8l-.61,4.37h-6.06l6-34.17h7.09l5.93,34.17h-6l-.66-4.37Zm.71-4.56h4.27l-2.11-16.87Z"/><path d="M344.59,73.3l5.26-23.22V49H356V83.17h-6.16V58.45l-5.26,23.64v1.08h-6.2V49h6.2ZM354.74,42c-.19,4.61-3.76,5.59-7.47,5.59s-7.28-1-7.47-5.59H343c.14,3.15,2.45,2.92,4.28,2.92,2,0,4.18.23,4.28-2.92Z"/><path d="M365,64.13h1.83l4.56-14.47a1,1,0,0,1,1.08-.66h4.74l1.09,5.55h-1.93c-.61,0-.75.09-.94.7L372.6,64.7c1.79,6.06,3.57,12.36,5.36,18.47h-6.72l-3.9-14.62H365V83.17h-6.21V49H365Z"/><path d="M397.65,78.66c0,2.44-.94,4.51-4.46,4.51H385c-3.52,0-4.51-2.07-4.51-4.51V53c0-2.44,1.27-4,4.23-4h8.79c2.91,0,4.18,1.6,4.18,4Zm-10-24.49c-.84,0-1.08.42-1.08,1.18V76.78c0,.89.14,1.22,1.13,1.22h2.68c1,0,1.17-.33,1.17-1.22V55.35c0-.76-.28-1.18-1.12-1.18Z"/><path d="M417.63,83.17h-6.16v-14h-4.79v14h-6.21V49h6.21V64.09h4.79V49h6.16Z"/><path d="M426.65,64.13h1.84L433,49.66a1,1,0,0,1,1.09-.66h4.74L440,54.55H438c-.62,0-.76.09-.94.7l-2.87,9.45c1.78,6.06,3.57,12.36,5.36,18.47h-6.72L429,68.55h-2.31V83.17h-6.2V49h6.2Z"/><path d="M459.27,78.66c0,2.44-.94,4.51-4.47,4.51h-8.22c-3.53,0-4.51-2.07-4.51-4.51V53c0-2.44,1.27-4,4.23-4h8.79c2.91,0,4.18,1.6,4.18,4Zm-10-24.49c-.85,0-1.08.42-1.08,1.18V76.78c0,.89.14,1.22,1.13,1.22H452c1,0,1.18-.33,1.18-1.22V55.35c0-.76-.28-1.18-1.13-1.18Z"/><path d="M467,83.17c-3.67,0-4.89-1.32-4.89-4.84V52.81A3.59,3.59,0,0,1,465.85,49h8.65l1.08,5.55h-6.06c-.85,0-1.09.37-1.09,1.08V76.54c0,.71.15,1.08,1,1.08h6.16l-1.13,5.55Z"/><path d="M484.13,64.13H486l4.56-14.47A1,1,0,0,1,491.6,49h4.75l1.08,5.55h-1.92c-.62,0-.76.09-.94.7L491.7,64.7c1.78,6.06,3.57,12.36,5.36,18.47h-6.72l-3.91-14.62h-2.3V83.17h-6.2V49h6.2Z"/><path d="M505.75,73.3,511,50.08V49h6.16V83.17H511V58.45l-5.26,23.64v1.08h-6.2V49h6.2Z"/><path d="M532.21,85.05a31.54,31.54,0,0,1,0-37.93h4.33a48.37,48.37,0,0,0-3.95,19,46.6,46.6,0,0,0,3.95,18.94Z"/><path d="M555.48,69.4c0,1.31-1.18,2.58-3.34,2.58l3.67,11.19h-6.3L546.12,72h-1.69V83.17h-6V49h12.83c2.82,0,4.23,1.41,4.23,4.18ZM544.43,54.17V67.33h4c.89,0,1.13-.33,1.13-1.22V55.39c0-.75-.33-1.22-1.13-1.22Z"/><path d="M558.2,61.17c0-2.06,1-3.15,3.1-3.15h9.36c2.11,0,3.1,1.09,3.1,3.15V80c0,2.07-1,3.15-3.1,3.15H561.3c-2.06,0-3.1-1.08-3.1-3.15Zm9.26,17.06c.66,0,.94-.09.94-.89V63.62c0-.8-.33-1-1-1h-2.86c-.61,0-1,.19-1,1V77.34c0,.8.33.89.94.89Z"/><path d="M583,52.1a3.57,3.57,0,1,1-3.57-3.62A3.56,3.56,0,0,1,583,52.1ZM576.67,59l5.46-1.69v25.9h-5.46Z"/><path d="M595.66,58h5.55l-4.7,9.4,4.65,15.75H595.1l-3.72-13.54h-.89V83.17H585V49h5.45V66.53h.8Z"/><path d="M602.48,61.17c0-2.06,1-3.15,3.1-3.15h9.35c2.12,0,3.1,1.09,3.1,3.15V80c0,2.07-1,3.15-3.1,3.15h-9.35c-2.07,0-3.1-1.08-3.1-3.15Zm9.26,17.06c.65,0,.94-.09.94-.89V63.62c0-.8-.33-1-1-1h-2.87c-.61,0-1,.19-1,1V77.34c0,.8.33.89.95.89Z"/><path d="M626.31,62.87v20.3h-5.46V58h5.46v2.64L628.56,58h4.7c2.12,0,3.15,1,3.15,3.06V83.17H631V63.76c0-.8-.38-.89-1-.89Z"/><path d="M649.85,58h5.55l-4.7,9.4,4.65,15.75h-6.06l-3.71-13.54h-.9V83.17h-5.45V49h5.45V66.53h.8Z"/><path d="M656.67,61.17c0-2.06,1-3.15,3.1-3.15h9.35c2.12,0,3.1,1.09,3.1,3.15V80c0,2.07-1,3.15-3.1,3.15h-9.35c-2.07,0-3.1-1.08-3.1-3.15Zm9.26,17.06c.65,0,.94-.09.94-.89V63.62c0-.8-.33-1-1-1H663c-.61,0-1,.19-1,1V77.34c0,.8.33.89.94.89Z"/><path d="M684,73.11h-6.62a2.12,2.12,0,0,1-2.3-2.4V61.22a3,3,0,0,1,3.19-3.2h9l1.46,5.22H681.3c-.61,0-.9,0-.9.8v3.81c0,.84.29.8.9.8h5.4c1.74,0,2.49.84,2.49,2.44v9a2.9,2.9,0,0,1-3.15,3.1H676.6l-1.13-5.36H683c.61,0,.93,0,.93-.89Z"/><path d="M702.63,58h5.55l-4.7,9.4,4.65,15.75h-6.06l-3.71-13.54h-.9V83.17H692V49h5.45V66.53h.8Z"/><path d="M716.31,52.1a3.57,3.57,0,1,1-3.57-3.62A3.56,3.56,0,0,1,716.31,52.1ZM710,59l5.45-1.69v25.9H710Z"/><path d="M721.39,66.11a48.55,48.55,0,0,0-3.95-19h4.32a31.5,31.5,0,0,1,0,37.93h-4.32A46.76,46.76,0,0,0,721.39,66.11Z"/><path d="M299.4,119.27v20.3H294V105.4h5.45v11.66l2.26-2.64h4.74c2.12,0,3.11,1.09,3.11,3.15v22h-5.46V120.21c0-.8-.33-.94-1-.94Z"/><path d="M319.14,114.42h4.14v5.22h-4.14v13.63c0,.75.24.94.94.94h4L323,139.57h-6.15c-2.16,0-3.25-1.22-3.25-3V119.64H312v-5.22h1.64v-5.07l5.55-4.18Z"/><path d="M332.91,114.42h4.14v5.22h-4.14v13.63c0,.75.24.94.94.94h4l-1.12,5.36h-6.16c-2.16,0-3.24-1.22-3.24-3V119.64h-1.65v-5.22h1.65v-5.07l5.54-4.18Z"/><path d="M347.72,139.57l-2.26-2.63v12.5H340.1v-35h12.69a2.64,2.64,0,0,1,2.87,3v19c0,2.07-1,3.15-3.1,3.15Zm1.5-5.17c.66,0,1.08-.24,1.08-1.08v-13c0-.85-.42-1-1.08-1h-3.76V134.4Z"/><path d="M367.41,129.51h-6.63a2.13,2.13,0,0,1-2.3-2.4v-9.49a3,3,0,0,1,3.19-3.2h9l1.45,5.22h-7.42c-.61,0-.89,0-.89.8v3.81c0,.84.28.8.89.8h5.4c1.74,0,2.5.84,2.5,2.44v9a2.9,2.9,0,0,1-3.15,3.1H360l-1.13-5.36h7.57c.61,0,.94-.05.94-.89Z"/><path d="M379,115a3.64,3.64,0,1,1-3.67,3.66A3.66,3.66,0,0,1,379,115Zm0,17.71a3.67,3.67,0,0,1,3.66,3.67,3.67,3.67,0,0,1-7.33,0A3.68,3.68,0,0,1,379,132.75Z"/><path d="M400.12,104.93,389.69,140H385l10.39-35.11Z"/><path d="M417.09,104.93,406.65,140H402l10.39-35.11Z"/><path d="M422.3,139.57l-5.92-25.15h5.92l3.29,19,3.39-19h6l-6.11,25.15Z"/><path d="M447.73,114.42h5.55l-4.7,9.4,4.65,15.75h-6.06L443.45,126h-.89v13.54h-5.45V105.4h5.45v17.53h.8Z"/><path d="M458.68,132.75a3.68,3.68,0,0,1,3.67,3.67,3.67,3.67,0,1,1-3.67-3.67Z"/><path d="M470.85,133.27c0,.85.38.94,1,.94h6l-1.13,5.36H468a2.62,2.62,0,0,1-2.86-2.87V117.43a2.69,2.69,0,0,1,3-3h8.27l1.46,5.22h-6c-.61,0-1,.14-1,.9Z"/><path d="M480.21,117.57c0-2.06,1-3.15,3.1-3.15h9.35c2.12,0,3.1,1.09,3.1,3.15v18.85c0,2.07-1,3.15-3.1,3.15h-9.35c-2.07,0-3.1-1.08-3.1-3.15Zm9.26,17.06c.65,0,.94-.09.94-.89V120c0-.8-.33-1-1-1h-2.87c-.61,0-1,.19-1,1v13.72c0,.8.32.89.94.89Z"/><path d="M518.7,120.21c0-.8-.33-.94-1-.94h-3.66v20.3h-5.36V120.21c0-.8-.33-.94-1-.94H504v20.3h-5.46V114.42H504v2.64l2.25-2.64h14.57a3,3,0,0,1,3.29,3.29v21.86H518.7Z"/><path d="M541.35,104.93,530.92,140h-4.65l10.38-35.11Z"/><path d="M549,139.57l-2.26-2.63v12.5h-5.35v-35H554a2.64,2.64,0,0,1,2.87,3v19c0,2.07-1,3.15-3.1,3.15Zm1.5-5.17c.66,0,1.08-.24,1.08-1.08v-13c0-.85-.42-1-1.08-1h-3.76V134.4Z"/><path d="M560.67,119.64l1.08-5.22h10c2.11,0,3.29,1.09,3.29,3.15v22h-5.36v-2.63l-2.21,2.63h-4.75a2.72,2.72,0,0,1-3-3v-10c0-2.06,1.08-3.1,3.15-3.1h6.77v-3.05c0-.75-.24-.85-.89-.85Zm5,8c-.66,0-.94.19-.94,1v4.79c0,.84.33.94,1,.94h3.9v-6.72Z"/><path d="M586.94,134.87c.66,0,.8-.38.8-.85v-19.6h5.31v22.47a2.42,2.42,0,0,1-2.35,2.68H580.27a2.49,2.49,0,0,1-2.44-2.68V114.42h5.26V134c0,.47.14.85.8.85Z"/><path d="M606.5,114.42H612l-4.7,9.4L612,139.57h-6.07L602.22,126h-.89v13.54h-5.45V105.4h5.45v17.53h.8Z"/><path d="M613.31,117.57c0-2.06,1-3.15,3.1-3.15h9.36c2.11,0,3.1,1.09,3.1,3.15v18.85c0,2.07-1,3.15-3.1,3.15h-9.36c-2.06,0-3.1-1.08-3.1-3.15Zm9.26,17.06c.66,0,.94-.09.94-.89V120c0-.8-.33-1-1-1h-2.86c-.61,0-1,.19-1,1v13.72c0,.8.33.89.94.89Z"/><path d="M637.14,119.27v20.3h-5.45V114.42h5.45v2.64l2.26-2.64h4.7c2.11,0,3.15,1,3.15,3.06v22.09h-5.46V120.16c0-.8-.37-.89-1-.89Z"/><path d="M660.69,114.42h5.54l-4.7,9.4,4.66,15.75h-6.07L656.41,126h-.89v13.54h-5.45V105.4h5.45v17.53h.8Z"/><path d="M667.5,117.57c0-2.06,1-3.15,3.11-3.15H680c2.11,0,3.1,1.09,3.1,3.15v18.85c0,2.07-1,3.15-3.1,3.15h-9.35c-2.07,0-3.11-1.08-3.11-3.15Zm9.26,17.06c.66,0,.94-.09.94-.89V120c0-.8-.33-1-1-1h-2.86c-.61,0-1,.19-1,1v13.72c0,.8.33.89.94.89Z"/><path d="M691.57,133.27c0,.85.37.94,1,.94h6l-1.13,5.36h-8.69a2.62,2.62,0,0,1-2.87-2.87V117.43a2.7,2.7,0,0,1,3-3h8.27l1.46,5.22h-6c-.61,0-1,.14-1,.9Z"/><path d="M711.54,114.42h5.55l-4.7,9.4L717,139.57H711L707.27,126h-.9v13.54h-5.45V105.4h5.45v17.53h.8Z"/><path d="M728,134.87c.65,0,.79-.38.79-.85v-19.6h5.31v22.47a2.42,2.42,0,0,1-2.34,2.68H721.27a2.49,2.49,0,0,1-2.44-2.68V114.42h5.26V134c0,.47.14.85.8.85Z"/></svg>