<svg id="_1" data-name=" 1" xmlns="http://www.w3.org/2000/svg" viewBox="0 0 217.31 49.5"><defs><style>.cls-1{fill:#436df7;}.cls-2{fill:#fefe01;}.cls-2,.cls-3,.cls-4,.cls-7,.cls-8,.cls-9{stroke:#000;stroke-miterlimit:22.93;}.cls-2,.cls-3,.cls-4{stroke-width:0.24px;}.cls-3,.cls-8{fill:none;}.cls-4{fill:#d8d312;}.cls-5,.cls-7{fill:#fff;}.cls-6{fill:#009833;}.cls-7,.cls-8,.cls-9{stroke-width:0.1px;}.cls-9{fill:#ff0;}.cls-10{fill:#f1f305;}.cls-11{fill:#111305;}.cls-12{fill:#848484;}.cls-13{fill:#fcfcfc;fill-rule:evenodd;}</style></defs><title>news01</title><rect class="cls-1" width="217.31" height="49.5"/><path class="cls-1" d="M57.64,26.08l-1,.25-1.08.29c-.36.1-.71.21-1,.32s-.61.21-.91.34a3.87,3.87,0,0,0-1.23.85,2.69,2.69,0,0,0-.66,1,1.12,1.12,0,0,0,0,.88.85.85,0,0,0,.81.36A2.7,2.7,0,0,0,53.89,30a9.66,9.66,0,0,0,1.31-1,12.92,12.92,0,0,0,1.16-1.18c.35-.41.64-.78.86-1.09.06-.1.13-.21.2-.34l.23-.37Z" transform="translate(0.42 0.58)"/><path class="cls-2" d="M11.34,13.33c0-.81,4.22-1.48,9.43-1.48s9.41.61,9.41,1.43l3.84-9L31,5.37l-.28,2L29,8.37l-.55-1.64.81-1.88L27.83,2,25.3,3.85,25.16,6,23.77,7.31,22.39,5.6l.55-2.11L20.73,1.08,18.54,3.49,19.1,5.6,17.71,7.31,16.33,6l-.09-2.19L13.65,2,12.24,4.85,13,6.76,12.43,8.4l-1.76-1-.27-2-3-1.09Z" transform="translate(0.42 0.58)"/><polyline class="cls-3" points="8.24 5.71 10.34 6.47 10.53 8.2 13.02 9.74 14.13 7.2 13.35 5.52 14.22 3.61 15.88 4.75 16.11 6.7 18.1 8.75 20.27 6.48 19.72 4.29 21.15 2.66 22.58 4.16 22.16 6.39 24.15 8.8 26.41 6.62 26.36 4.8 27.94 3.62 28.95 5.26 28.21 7.08 29.13 9.8 31.76 8.48 32.04 6.48 34.09 5.71"/><path class="cls-4" d="M20.77,14.81c5.19,0,9.42-.66,9.42-1.48S26,11.85,20.77,11.85s-9.43.67-9.43,1.48S15.57,14.81,20.77,14.81Z" transform="translate(0.42 0.58)"/><path class="cls-3" d="M11,12.57a.11.11,0,0,0,0,.08m.67.42c1.46.54,5,.92,9.08.92s7.7-.39,9.12-.94m.64-.4v-.08" transform="translate(0.42 0.58)"/><path class="cls-3" d="M10.18,10.64c.23-1.09,4.85-2.4,10.66-2.4S31,9.74,31.24,10.83" transform="translate(0.42 0.58)"/><path class="cls-3" d="M10.45,11.32c.22-1.08,4.73-2.38,10.4-2.38s9.9,1.48,10.12,2.57" transform="translate(0.42 0.58)"/><path class="cls-3" d="M11.08,12.47c.21-.64,4.46-1.39,9.82-1.39s9.36.86,9.57,1.5" transform="translate(0.42 0.58)"/><rect class="cls-5" x="6.55" y="13.58" width="28.52" height="8.77"/><path class="cls-6" d="M6,20.79V38.14a4.21,4.21,0,0,0,2.92,3.59c5.08,1.68,9.5.54,11.51,3.92,1.12-2.77,6.2-2.68,10-3.6,2.51-.61,4.41-1.86,4.41-4V20.82c-.72-.26-.46-.86-.55-1.42-.41.15-.6.85-1.34.53a1.09,1.09,0,0,1,0-.44c0-.28,0-.18.16-.32l.54-.48c.51-.5.78-.53.69-1.3-1.28-.08-.67.33-1.39.55A7.22,7.22,0,0,0,33,17c0-.15-.26-.33-.47-.47-.65.23-.51.89-.51,1.42-.52-.23-.46-.77-1.4-.55,0,.4-.07.56.16.77.87.82,1.38,1,1.21,1.79-1.1.09-.78-.29-1.38-.57v1l-.48.38a1.28,1.28,0,0,1-.5-.48v-.94c-.52.22-.45.75-1.37.55,0-.32-.07-.59.14-.79l.91-.89c.28-.23.22-.37.18-.81-1.25,0-.65.2-1.38.58-.1-1.09.24-.77-.5-1.42a1.19,1.19,0,0,0-.49.48V18c-.5-.23-.53-.79-1.4-.55,0,.4-.06.56.15.77.91.87,1.38,1,1.22,1.79-1.19.08-.76-.36-1.37-.57v1a2,2,0,0,0-.48.38,1.6,1.6,0,0,1-.49-.48,7.37,7.37,0,0,1,0-.94c-.55.2-.49.78-1.4.55-.1-.75.18-.83.67-1.27s.8-.49.71-1.3c-.45,0-.63-.07-.89.16s-.33.36-.5.42c0-1,.17-.88-.49-1.43-.63.38-.48.78-.5,1.42-.41-.11-.5-.82-1.4-.53,0,.42-.07.52.16.75.85.82,1.38.95,1.22,1.8-.48,0-.62.07-.87-.17s-.32-.36-.51-.39c0,1,.16.88-.51,1.41-.64-.47-.46-.46-.51-1.4-.46,0-.29.7-1.34.54v-.09h0a.78.78,0,0,1,.16-.69c.19-.17.36-.3.54-.47.54-.51.75-.48.69-1.28-.48,0-.62-.08-.89.17s-.34.37-.5.41c0-.9.12-1-.5-1.42-.67.5-.46.44-.5,1.42-.63-.24-.13-.63-1.39-.58-.1.77.19.82.71,1.3s.77.54.67,1.27c-.85.22-.93-.33-1.38-.56-.1.94.18,1-.53,1.43a2,2,0,0,0-.48-.38v-1c-.48.1-.29.71-1.35.55a.75.75,0,0,1,.13-.81c.85-1,1.25-1,1.13-1.81-.87-.23-1,.33-1.38.56V17c0-.22-.33-.4-.49-.48-.7.62-.44.32-.5,1.41-.65-.29-.17-.64-1.39-.56-.1.75.23.83.73,1.28.33.31.85.57.64,1.26l-.25,0h-.26c-.4,0-.55-.43-.89-.6v1a1.28,1.28,0,0,1-.5.48c-.69-.41-.41-.58-.5-1.41-.57.16-.18.66-1.37.56-.12-.74.2-.86.68-1.3s.76-.5.69-1.26c-.93-.21-.91.33-1.38.57V17a1.11,1.11,0,0,0-.5-.48c-.88.55-.25.73-.54,1.41l-.11-.08-.06-.06c-.47-.4-.37-.47-1.18-.42-.08.75.18.84.7,1.3l.53.49a.67.67,0,0,1,.14.75H7.12a2.47,2.47,0,0,0-.7-.59v1A.86.86,0,0,1,6,20.79Z" transform="translate(0.42 0.58)"/><path class="cls-7" d="M13.2,21.2a5.23,5.23,0,0,1,5.36,2,4.78,4.78,0,0,1,0,5.5l-1.48,2.38-.32.48.76-.28c-.33,1.56-.56,1.51,0,2.81a11.49,11.49,0,0,0-.9,1.21,16.37,16.37,0,0,1,3,2.76c.52.77,1,1.49.69,2.32a4.43,4.43,0,0,0-1.25-.62,1.2,1.2,0,0,0,1.05.79c-.47.3-2,.14-3.26-.29a5.79,5.79,0,0,1-4-5.13,3,3,0,0,1,0-.85l.1-.92a3.48,3.48,0,0,1,.14-.64l.23-.69a2.19,2.19,0,0,1-.66-1.24c-.06-.24.12-.43.34-.71l.79-.53a5.76,5.76,0,0,0,.3,1c.38-.48.75-1,1.12-1.45L15,28.2l1.2-.88c.07.23,0,.52.13.62l2-1.9L17.7,24.6c-1.4-1.37-2.48.23-3.19,1.3a3.78,3.78,0,0,0-.31-1,1.57,1.57,0,0,1,0-1.09c.11-.26.37-.42.54-.64s.07-.18.13-.27c-.11-.19-.41-.28-.64-.35s-.43-.56-.62-1C13.54,21.33,13.33,21.33,13.2,21.2Z" transform="translate(0.42 0.58)"/><line class="cls-8" x1="13.69" y1="32.62" x2="14.46" y2="31.14"/><line class="cls-8" x1="15.58" y1="29.69" x2="16.75" y2="28.53"/><line class="cls-8" x1="13.85" y1="32.27" x2="13.45" y2="31.47"/><line class="cls-8" x1="14.07" y1="31.87" x2="13.89" y2="31.47"/><line class="cls-8" x1="14.24" y1="31.57" x2="14.01" y2="30.87"/><line class="cls-8" x1="15.78" y1="28.88" x2="15.88" y2="29.39"/><line class="cls-8" x1="16.06" y1="28.59" x2="16.14" y2="29.14"/><line class="cls-8" x1="16.34" y1="28.28" x2="16.41" y2="28.85"/><path class="cls-8" d="M16.63,35.3" transform="translate(0.42 0.58)"/><path class="cls-8" d="M16.73,31.61" transform="translate(0.42 0.58)"/><path class="cls-8" d="M16.76,31.56c-.87.79-.77,3.21-.13,3.74" transform="translate(0.42 0.58)"/><line class="cls-8" x1="16.69" y1="35.25" x2="17.23" y2="34.69"/><line class="cls-8" x1="16.58" y1="34.73" x2="16.96" y2="34.33"/><line class="cls-8" x1="16.54" y1="34.24" x2="17.04" y2="33.81"/><line class="cls-8" x1="16.58" y1="33.71" x2="16.96" y2="33.54"/><line class="cls-8" x1="16.67" y1="33.16" x2="17.25" y2="32.86"/><line class="cls-8" x1="16.84" y1="32.6" x2="17.51" y2="32.35"/><path class="cls-3" d="M20.4,45.89c-2-3.4-6.42-2.25-11.49-4A4.25,4.25,0,0,1,6,38.33V12.88H34.75V38.24c0,2.16-1.9,3.41-4.4,4C26.59,43.24,21.52,43.1,20.4,45.89Z" transform="translate(0.42 0.58)"/><path class="cls-7" d="M27.26,21.51c-.19.44-.39.93-.62,1s-.53.16-.64.35c.06.09,0,.05.13.27s.43.38.54.64a1.57,1.57,0,0,1,0,1.09,3.78,3.78,0,0,0-.31,1c-.71-1.07-1.79-2.67-3.19-1.3L22.53,26l2,1.9c.13-.1.06-.39.13-.62l1.2.88-.16.9c.37.45.74,1,1.12,1.45a5.76,5.76,0,0,0,.3-1l.79.53c.22.28.4.47.34.71A2.19,2.19,0,0,1,27.59,32l.23.69a2.82,2.82,0,0,1,.14.64l.1.92a3,3,0,0,1,0,.85,5.78,5.78,0,0,1-4,5.13c-1.26.43-2.79.59-3.26.29a1.19,1.19,0,0,0,1.05-.79,4.56,4.56,0,0,0-1.25.62c-.31-.83.17-1.55.69-2.32a16.37,16.37,0,0,1,3-2.76,11.49,11.49,0,0,0-.9-1.21c.57-1.3.34-1.25,0-2.81l.76.28-.32-.48L22.31,28.7a4.78,4.78,0,0,1,0-5.5,5.23,5.23,0,0,1,5.36-2C27.54,21.33,27.33,21.33,27.26,21.51Z" transform="translate(0.42 0.58)"/><line class="cls-8" x1="28.01" y1="32.62" x2="27.24" y2="31.14"/><line class="cls-8" x1="26.12" y1="29.69" x2="24.95" y2="28.53"/><line class="cls-8" x1="27.85" y1="32.27" x2="28.26" y2="31.47"/><line class="cls-8" x1="27.63" y1="31.87" x2="27.82" y2="31.47"/><line class="cls-8" x1="27.47" y1="31.57" x2="27.7" y2="30.87"/><line class="cls-8" x1="25.92" y1="28.88" x2="25.82" y2="29.39"/><line class="cls-8" x1="25.65" y1="28.59" x2="25.56" y2="29.14"/><line class="cls-8" x1="25.37" y1="28.28" x2="25.29" y2="28.85"/><path class="cls-8" d="M24.24,35.3" transform="translate(0.42 0.58)"/><path class="cls-8" d="M24.14,31.61" transform="translate(0.42 0.58)"/><path class="cls-8" d="M24.11,31.56c.87.79.77,3.21.13,3.74" transform="translate(0.42 0.58)"/><line class="cls-8" x1="25.02" y1="35.25" x2="24.48" y2="34.69"/><line class="cls-8" x1="25.12" y1="34.73" x2="24.75" y2="34.33"/><line class="cls-8" x1="25.16" y1="34.24" x2="24.66" y2="33.81"/><line class="cls-8" x1="25.13" y1="33.71" x2="24.75" y2="33.54"/><line class="cls-8" x1="25.04" y1="33.16" x2="24.46" y2="32.86"/><line class="cls-8" x1="24.87" y1="32.6" x2="24.19" y2="32.35"/><path class="cls-9" d="M20.4,24.85l.91.92a6.88,6.88,0,0,1-.94.93l-.91-.93Zm-.92,0H17l.84.86c-.15.3-.63.57-.83.9h2.46v2.44a1.19,1.19,0,0,0,.47-.39l.42-.41a9.71,9.71,0,0,1,.89.81c.06-.5-.07-2.12,0-2.41.07-.08,2.35,0,2.44,0-.11-.3-.61-.59-.8-.88.2-.29.6-.55.81-.85H21.23V22.45c-.31.16-.61.66-.9.81-.29-.19-.61-.68-.89-.81Z" transform="translate(0.42 0.58)"/><path class="cls-10" d="M22.24,38.59A.39.39,0,0,1,22,39L21.63,39V38.8c.3.17.48,0,.35-.33H21.8c.16-.14.27-.07.39,0Z" transform="translate(0.42 0.58)"/><path d="M21.55,38.8V39l.39.06c-.22.19-.16-.06-.9.38l.09-.13.11,0a1.74,1.74,0,0,0,.11-.18.49.49,0,0,0,.08-.23c0-.15,0-.12.07-.25v.2h0l.06-.13c.18,0,.06,0,.15.08C21.62,38.79,21.7,38.71,21.55,38.8Z" transform="translate(0.42 0.58)"/><path class="cls-11" d="M21.55,38.8c.15-.09.07,0,.16-.13-.09-.09,0,0-.15-.08l-.06.13h0v-.2h0c.12,0,.16-.06.26-.09h.18C22,38.8,21.85,39,21.55,38.8Z" transform="translate(0.42 0.58)"/><path d="M22.24,38.59l-.09-.09c-.12-.12-.23-.19-.39,0s-.14.06-.26.09a.84.84,0,0,1,.34-.7c-.11.24-.22.25-.25.58C21.83,38.24,22.1,38.24,22.24,38.59Z" transform="translate(0.42 0.58)"/><path class="cls-12" d="M20.64,39.38c.06-.19,0-.07.13-.12.17.17.08.21-.1.29C20.64,39.47,20.62,39.46,20.64,39.38Z" transform="translate(0.42 0.58)"/><path d="M15.18,37.88c0-.24,0-.09-.09-.14a.64.64,0,0,0-.22.74l-.22-.19a1.64,1.64,0,0,1-.21-.25,4.14,4.14,0,0,1-.38-.55A1.72,1.72,0,0,1,13.8,36c0,.07,0,0,0,.12a2.06,2.06,0,0,0,.18.91,6.26,6.26,0,0,1-.14-.73,1.48,1.48,0,0,1,.1-.83c.15.2-.06.61.18,1.15-.05-.39-.25-1.07,0-1.39.08.12,0,.31,0,.42s.05.25.06.47c.13-.34-.32-.91.27-1.15a4.72,4.72,0,0,0,.67,2.84c.17,0,.07,0,.15,0a4.09,4.09,0,0,1-.65-3c-.38,0-.8.5-.94.81a2.28,2.28,0,0,0,.63,2.58c.13.14.7.76.91.77,0-.17-.25-.31-.33-.52a.42.42,0,0,1,.23-.54Z" transform="translate(0.42 0.58)"/><path d="M21.92,28.07a.38.38,0,0,0,.16.23c0-.11,0-.09.16-.14a1.27,1.27,0,0,1,.28-.06,5.83,5.83,0,0,1-.11.82l.13.19.09-.08c-.2-.11-.07.08-.11-.1l.09-.86c.69,0,.57,0,.48.22-.19.41,0,.53-.34.6.11.08.09,0,.18.05l-.05.7.08.12a3.22,3.22,0,0,1,.5-.23,3,3,0,0,0-.14.66l-.08,0h0a1.79,1.79,0,0,1,.6-.17,1.87,1.87,0,0,0-.17.31,1.66,1.66,0,0,1-.12.31l.08.11a3.55,3.55,0,0,1,.73-.08l.06.17c.11-.21.13-.14.44-.15a.19.19,0,0,0-.12-.07,5,5,0,0,0-1.09,0,1.8,1.8,0,0,1,.23-.58l.06-.08a2.2,2.2,0,0,1,1.16.17c0-.07.08-.1-.35-.2-1-.2-.68,0-1.44.08a1.84,1.84,0,0,1,.17-.69,2.41,2.41,0,0,1,1,0h-.05l-.16-.08h-.21a2.35,2.35,0,0,0-.53,0,.76.76,0,0,1,.1-.3c.17-.31.1-.21,0-.28-.21.48-.14.59-.76.81,0-.55-.05-.75.22-.8-.09-.08-.1,0-.16-.14l.25-.66-.61-.09c-.05-.13,0-.11-.07-.25a.45.45,0,0,1,0,.23c-.07.14-.19.09-.5.22a3.38,3.38,0,0,1,0-.45v.26A.26.26,0,0,1,21.92,28.07Z" transform="translate(0.42 0.58)"/><path d="M17.8,29.65c-.16-.06-.48-.18-.55-.33L17,28.76a2,2,0,0,1,.76.14v.75Zm-.73,1.29h0v-.07a3.38,3.38,0,0,0-.22-.52c-.06-.1,0,0-.06-.12l.49.12c.11.06,0,0,.09.08s0,0,.11-.12c-.08-.06,0,0-.09-.12l-.12-.58.45.18c.12,0,.07-.12.08-.27a1.31,1.31,0,0,0,0-.28v-.18c.09,0,.07,0,.28,0h0c-.25-.23-.24-.07-.31-.41s-.42-.54.39-.49l.09.94a.31.31,0,0,0,.11-.09,3.23,3.23,0,0,1-.1-.82,1.67,1.67,0,0,1,.44.11v-.06c-.56-.24-.44,0-.51-.33l-.12.13a3.82,3.82,0,0,0-.57.11c0,.14,0,0,.08.15a1.63,1.63,0,0,1,.17.57c-.17,0-.86-.19-.81,0l.37,1a2.23,2.23,0,0,0,.1.43c-.21-.1-.66-.13-.76-.32v.12a2,2,0,0,0-1,.23c.12.07.16,0,.51-.11a3.86,3.86,0,0,1,.68,0,1.49,1.49,0,0,1,.26.67,2.64,2.64,0,0,0-.69,0,.48.48,0,0,0-.5.08h1.14Z" transform="translate(0.42 0.58)"/><path d="M19.46,33.52" transform="translate(0.42 0.58)"/><path d="M18.68,23.51l-.09-.1c-.42.08-.35-.17-.35-.17l-.19.12h-.61a1.76,1.76,0,0,1,.15-.44h.69l-.1-.09h-.6l.07-.39.3.08a.52.52,0,0,1-.11-.19c-.06.11.06.05-.28.05l-.63.11c-.2.07-.14,0-.24.21a2.23,2.23,0,0,1,.83-.26v.35c-.38.07-.31.11-.37.18l.34-.08a1.8,1.8,0,0,1-.19.55,3,3,0,0,1,.73-.09l.1.16C18.24,23.36,18.41,23.51,18.68,23.51Z" transform="translate(0.42 0.58)"/><path class="cls-11" d="M19.57,25.77a4.33,4.33,0,0,1,.81-.79c.15.08.11.08.23.2l.58.59a4.71,4.71,0,0,1-.81.8c-.21-.13,0,0-.23-.2L20,26.18A3,3,0,0,1,19.57,25.77Zm-.11,0,.91.93a6.88,6.88,0,0,0,.94-.93l-.91-.92Z" transform="translate(0.42 0.58)"/><path d="M23.83,35.73l0,.11c.94.14.63.33.69,1.22.19-.26,0-.7,0-1,.25.08.5.3.68.32A3.94,3.94,0,0,0,25,35.3l.32.05h0c-.49-.2-.12.11-.42-.37-.07-.11,0,0-.09-.1a2.8,2.8,0,0,1,.13.41l-.42.06a.32.32,0,0,0-.16.09l.6-.09v.12a3.37,3.37,0,0,1,.14.89c-.2-.09-.65-.28-.69-.49-.18.14.06,0-.11.08A1.5,1.5,0,0,1,23.83,35.73Z" transform="translate(0.42 0.58)"/><path d="M22.52,23.24v-.3h.67l.17.46a1.52,1.52,0,0,0-.67-.06Zm.33-.66.25,0,.08.37h-.65l-.09.15a.33.33,0,0,0,0,.14c0,.12,0,0,.06.08v.12l-.36.06-.09.08h.48l.25.3a1.27,1.27,0,0,1-.13-.32,2.06,2.06,0,0,1,.78.09c-.05-.16-.05-.08-.11-.24a1.6,1.6,0,0,1-.1-.31l.35.07v-.05L23.42,23l-.18-.11v-.36h-.09c-.17,0-.13.06-.21,0Z" transform="translate(0.42 0.58)"/><path d="M24.61,32c.33-.15.24-.69,1-.2l.32.28h0l.05.06c-.37.13-.47.23-.65.17a1.72,1.72,0,0,0-.77-.19V32Zm.33-.51c0,.15,0,.15-.12.25s-.17.11-.21.26l-.07.06-.05.06v.12c.05-.07,0-.08.41,0,.17,0,.27.1.42.13v.09l-.09.09h0c.19-.05.1-.05.21-.08s0,0,.15,0l.26.2c0-.17,0-.06-.1-.17s-.05,0-.16-.11c.15-.09.44-.16.59-.23a3.16,3.16,0,0,0-.42-.4c-.19-.12-.39-.19-.54-.29a1.29,1.29,0,0,0,.44-.25C25.32,31.33,25.24,31.47,24.94,31.5Z" transform="translate(0.42 0.58)"/><path d="M18.07,36.57l-.22-.18c-.14.08-.13,0-.31,0a1.58,1.58,0,0,0-.38,0c0-.23,0-.31.14-.38l-.06-.12c-.26.94-.21.44-.45.83.18-.08,0,0,.15-.1l.11-.07V37a.74.74,0,0,1,0,.21l-.09.13c.71-.1.26-.2,1.26,0a.68.68,0,0,0-.49-.18,3,3,0,0,0-.6,0v-.63C17.15,36.45,17.79,36.4,18.07,36.57Z" transform="translate(0.42 0.58)"/><path d="M24.76,33.17a2,2,0,0,1,0,.78c.18,0,.07,0,.24.1a.4.4,0,0,0-.16-.22,2.36,2.36,0,0,1,.66-.41,1.47,1.47,0,0,1,.56.93h.1c-.32-.84-.35-.57-.57-.93l.65-.18a.85.85,0,0,0-.44-.52,1.86,1.86,0,0,1,.36.52c-.57,0-.43.19-.88-.05l.14.2-.18.09-.32.19-.11.09A1.31,1.31,0,0,0,24.76,33.17Z" transform="translate(0.42 0.58)"/><path d="M18.24,40.24a2.7,2.7,0,0,0-.4-.14,1,1,0,0,1-.31-.2,1.14,1.14,0,0,1-.4-.67c-.26-1.1.7-1,.92-1.1-.06,0,.1-.05-.16-.06a1.12,1.12,0,0,0-.69.31,1.25,1.25,0,0,0,.29,1.6C17.68,40.09,18.09,40.35,18.24,40.24Z" transform="translate(0.42 0.58)"/><path d="M24.67,34.49v.17a2.23,2.23,0,0,1,.68-.2c.17.17.45.65.34.91v.1c.23.06.11-.36.07-.49a4.41,4.41,0,0,0-.28-.58,3,3,0,0,1,.67.08v-.13h-.72c-.13,0,0-.17-.33-.27.12.22.14.07.24.3C24.51,34.63,24.71,34.56,24.67,34.49Z" transform="translate(0.42 0.58)"/><path d="M22.7,38.12c.2.09,1.19,0,.91,1.1a1.17,1.17,0,0,1-.71.87c-.44.19-.28,0-.39.18a1.33,1.33,0,0,0,1.18-1,.89.89,0,0,0-.58-1.12.75.75,0,0,0-.26,0C22.52,38.08,22.8,38,22.7,38.12Z" transform="translate(0.42 0.58)"/><path d="M23.46,36.06h.08l.07.35h-.38c-.14,0-.18.06-.3,0l-.16.14a1.24,1.24,0,0,1,.85,0c.11.34.13.56,0,.75.19.08.34.14.51.23-.08-.19.09,0-.14-.19a.26.26,0,0,1-.17-.08v-.65a3.71,3.71,0,0,1,.41.28c-.17-.33.08,0-.09-.14L24,36.68c-.36-.23-.21-.32-.37-.7Z" transform="translate(0.42 0.58)"/><path d="M16.27,34.78v-.16h-.06c0,.14.06,0,0,.07a4.51,4.51,0,0,0-.52-.17.27.27,0,0,1,.1-.25c-.11.06-.06,0-.13.07l-.21.16c-.19-.14-.51,0-.68,0,.09.06,0,0,.14,0h.54c.13,0-.6,1.22-.23,1.07.06-.13,0,.07,0-.1a1,1,0,0,1,.06-.48,3.23,3.23,0,0,1,.25-.49A2.76,2.76,0,0,1,16.27,34.78Z" transform="translate(0.42 0.58)"/><path d="M18.7,28.16c.2.07.13.08.16-.11-.12,0,0,0-.1-.42,0-.2-.09-.28-.13-.46l.35-.05v-.07H18.7c-.13,0-.15-.07-.21-.12h0v.21a.73.73,0,0,0-.57.24l.62-.2A1.45,1.45,0,0,1,18.7,28.16Z" transform="translate(0.42 0.58)"/><path d="M19,24.24l-.09-.13h0L18.68,24c0-.3.12-.25.15-.27s0,0,0,0h0l-.06-.08-.11.44L18,24l.12-.2a.4.4,0,0,0-.27.32,2.06,2.06,0,0,1,.7,0l.1.05C19,24.15,18.7,24.1,19,24.24Z" transform="translate(0.42 0.58)"/><path d="M14.92,31.93c.31-.09.41-.32.82-.32l.22.17c-.08-.12-.11-.09-.15-.22.22-.07.13,0,.31-.11a2.94,2.94,0,0,1-.42,0c-.08,0-.2-.09-.33-.12.07.08,0,0,.12.11s0,0,.09,0C15.33,31.7,15.08,31.67,14.92,31.93Z" transform="translate(0.42 0.58)"/><path d="M21.55,38.44l-.06.13c.15,0,.11,0,.23.1-.07.11,0,0-.15.11.17.1.21.12.37,0l-.05-.27c-.19,0-.16-.07-.3,0Z" transform="translate(0.42 0.58)"/><path d="M25.66,38c0-.24,0-.09.09-.14a.64.64,0,0,1,.22.74,1.85,1.85,0,0,1,.27-.19,1.27,1.27,0,0,0,.21-.25,4.07,4.07,0,0,0,.37-.55c.38-.61.33-.71.26-1.47,0,.07,0,0,0,.12a2.06,2.06,0,0,1-.18.91,3.62,3.62,0,0,0,.14-.73,1.39,1.39,0,0,0-.1-.83c-.15.2.06.61-.18,1.15.05-.39.25-1.07,0-1.39-.08.12,0,.31-.05.42s0,.25-.05.47c-.14-.34.31-.91-.28-1.15A4.65,4.65,0,0,1,25.66,38c-.16,0-.06,0-.14,0a4.13,4.13,0,0,0,.65-3c.37,0,.79.5.93.81a2.27,2.27,0,0,1-.62,2.58c-.14.14-.71.76-.92.77.05-.17.25-.31.34-.52A.42.42,0,0,0,25.66,38Z" transform="translate(0.42 0.58)"/><path d="M14.9,32.43h0l-.24.35c-.13.31-.08,0-.1.42l.86.13c-.16-.22.21-.28-.72-.24Z" transform="translate(0.42 0.58)"/><path d="M20.75,39.53c.07,0,.09.07.09-.13s-.06-.11-.16-.16-.07-.08-.05.17S20.7,39.51,20.75,39.53Z" transform="translate(0.42 0.58)"/><path d="M20.13,39.38c-.05-.19,0-.07-.12-.12-.18.17-.08.21.1.29C20.13,39.47,20.16,39.46,20.13,39.38Z" transform="translate(0.42 0.58)"/><path class="cls-5" d="M21.55,39.12l.08-.07h0L21.51,39l-.09.19Z" transform="translate(0.42 0.58)"/><path class="cls-10" d="M18.45,38.59a.39.39,0,0,0,.22.45l.39-.06V38.8c-.3.17-.48,0-.35-.33h.18c-.16-.14-.27-.07-.38,0Z" transform="translate(0.42 0.58)"/><path d="M19.1,38.8V39l-.39.06c.23.19.16-.06.9.38l-.09-.13v-.07a1.74,1.74,0,0,1-.11-.18.63.63,0,0,1-.08-.23c0-.15,0-.12-.07-.25v.2h0l-.06-.13c-.17,0-.06,0-.15.08S19,38.71,19.1,38.8Z" transform="translate(0.42 0.58)"/><path class="cls-11" d="M19.1,38.8c-.15-.09-.07,0-.16-.13.09-.09,0,0,.15-.08l.06.13h0v-.2h0c-.12,0-.16-.06-.26-.09h-.18C18.62,38.8,18.8,39,19.1,38.8Z" transform="translate(0.42 0.58)"/><path d="M18.45,38.59l.1-.09c.11-.12.22-.19.38,0s.14.06.26.09a.84.84,0,0,0-.34-.7c.11.24.22.25.25.58C18.82,38.24,18.55,38.24,18.45,38.59Z" transform="translate(0.42 0.58)"/><path d="M19.1,38.44l.06.13c-.15,0-.11,0-.23.1.07.11,0,0,.15.11-.17.1-.21.12-.36,0v-.27c.19,0,.16-.07.3,0Z" transform="translate(0.42 0.58)"/><path class="cls-5" d="M19.1,39.12,19,39.05h0l.12-.06.09.19Z" transform="translate(0.42 0.58)"/><path class="cls-5" d="M49.93,14.56h-.44c0-.61,0-1.1,0-1.47a4,4,0,0,0-.48-2.3,1.45,1.45,0,0,0-1.21-.65,2.91,2.91,0,0,0-2,1.13A9.24,9.24,0,0,0,44,14.8a16.05,16.05,0,0,0-.76,4.92,8.19,8.19,0,0,0,.7,3.76,2.06,2.06,0,0,0,1.76,1.31c1,0,1.83-.82,2.63-2.46.08-.17.17-.25.25-.25a.21.21,0,0,1,.18.1.38.38,0,0,1,.08.23,3.3,3.3,0,0,1-.55,1.24,5.08,5.08,0,0,1-1.37,1.54,2.73,2.73,0,0,1-1.63.62,2.68,2.68,0,0,1-1.79-.72A4.74,4.74,0,0,1,42.23,23a10,10,0,0,1-.46-3.18,14.59,14.59,0,0,1,.94-5.11,10.58,10.58,0,0,1,2.35-3.92,4,4,0,0,1,2.75-1.38,3.2,3.2,0,0,1,1,.15c.13,0,.7.31,1.68.81A21,21,0,0,0,49.93,14.56Z" transform="translate(0.42 0.58)"/><path class="cls-5" d="M50.29,16,50,15.49l.6-.58a12.35,12.35,0,0,1,1.25-1.12.71.71,0,0,1,.38-.14c.11,0,.22.1.32.29a13.29,13.29,0,0,1,1.22,3.5,20.15,20.15,0,0,1,.49,4.28c0,.18,0,.46,0,.82a17.54,17.54,0,0,0,1.38-5.79,6.75,6.75,0,0,0-.13-1.18,7.54,7.54,0,0,1-.15-1.18,1,1,0,0,1,.15-.56.44.44,0,0,1,.38-.22.51.51,0,0,1,.46.31,1.88,1.88,0,0,1,.18.91,18.68,18.68,0,0,1-.48,3.76,31.42,31.42,0,0,1-1.52,4.86,21.13,21.13,0,0,1-1.89,3.85A7.12,7.12,0,0,1,51,29.11a2.73,2.73,0,0,1-1.51.54,1.11,1.11,0,0,1-.82-.29,1,1,0,0,1-.27-.68.92.92,0,0,1,.21-.61.76.76,0,0,1,.58-.25,2.77,2.77,0,0,1,.76.15,3,3,0,0,0,.7.17,1.52,1.52,0,0,0,1.06-.6,6.12,6.12,0,0,0,1.21-1.95,6.43,6.43,0,0,0,.44-2.3A28,28,0,0,0,53,19.38a11.69,11.69,0,0,0-.94-3.49c-.2-.41-.41-.62-.64-.62S50.79,15.53,50.29,16Z" transform="translate(0.42 0.58)"/><path class="cls-5" d="M61.08,13.65a1.55,1.55,0,0,1,1.34.92A5.14,5.14,0,0,1,63,17.11a8.62,8.62,0,0,1-1.28,4.67Q60.4,23.85,59,23.85A1.62,1.62,0,0,1,57.56,23,4,4,0,0,1,57,20.79a10.48,10.48,0,0,1,1-4.55C58.83,14.52,59.86,13.65,61.08,13.65Zm-.69.88c-.47,0-.91.48-1.35,1.43a9.73,9.73,0,0,0-.65,3.93,5.84,5.84,0,0,0,.4,2.4c.2.43.46.65.79.65s.87-.41,1.25-1.22a9.52,9.52,0,0,0,.72-3.93,6.81,6.81,0,0,0-.33-2.51C61,14.78,60.72,14.53,60.39,14.53Z" transform="translate(0.42 0.58)"/><path class="cls-5" d="M63.61,21.17a9.27,9.27,0,0,0,.3,1.3.32.32,0,0,0,.3.23c.26,0,.56-.4.9-1.21A6.66,6.66,0,0,1,66,19.83a3,3,0,0,1,1.25-.75v-.15H67A1.88,1.88,0,0,1,65,17a2.62,2.62,0,0,1,1.13-2.17,4.89,4.89,0,0,1,3-.86l1.46.05-.77,4.08c-.45,2.38-.67,3.73-.67,4.05s.08.46.23.46S70,22.05,70.7,21l.27.43c-1.09,1.63-1.9,2.45-2.42,2.45a.53.53,0,0,1-.45-.32,1.9,1.9,0,0,1-.19-.93,8.28,8.28,0,0,1,.17-1.5l.37-2a1.3,1.3,0,0,0-1.11.56A11.46,11.46,0,0,0,66.23,22c-.51,1.3-1.1,2-1.74,2a.89.89,0,0,1-.69-.38,6.11,6.11,0,0,1-.6-2.17ZM69.22,15a2.94,2.94,0,0,0-1.09-.2,1.66,1.66,0,0,0-1.25.59,2.08,2.08,0,0,0-.57,1.52c0,1.08.51,1.63,1.52,1.63a5.64,5.64,0,0,0,.75-.08Z" transform="translate(0.42 0.58)"/><path class="cls-5" d="M71.7,16.56l-.32-.47a7,7,0,0,1,1.48-1.88,2.14,2.14,0,0,1,1.28-.61.37.37,0,0,1,.32.14.67.67,0,0,1,.12.43,5.62,5.62,0,0,1,0,.7c0,.24-.15.8-.33,1.69a16.52,16.52,0,0,1,1.71-2.21,2.17,2.17,0,0,1,1.41-.72c.28,0,.51.19.7.56a3.91,3.91,0,0,1,.29,1.7,12.13,12.13,0,0,1-1.24,5.39c-.82,1.71-1.73,2.56-2.73,2.56a1.9,1.9,0,0,1-1.18-.46l-.7,3.87a3.45,3.45,0,0,0-.06.57.73.73,0,0,0,.23.62,3.24,3.24,0,0,0,1.48.48l-.11.59a19.49,19.49,0,0,0-2.07-.15,17.59,17.59,0,0,0-2,.15l.11-.59a1.26,1.26,0,0,0,.91-.49A3.72,3.72,0,0,0,71.38,27l1.48-8.89c.28-1.66.42-2.58.42-2.77s-.07-.3-.2-.3S72.38,15.55,71.7,16.56Zm1.66,5.53Q74,23,74.68,23c.66,0,1.23-.73,1.73-2.19a13.43,13.43,0,0,0,.74-4.28,2,2,0,0,0-.21-1,.62.62,0,0,0-.56-.35,1.29,1.29,0,0,0-.88.55,7.41,7.41,0,0,0-1.17,1.7,8.82,8.82,0,0,0-.53,2.11Z" transform="translate(0.42 0.58)"/><path class="cls-5" d="M82.67,17.94h.41c.73,0,1.09.52,1.09,1.55a4.34,4.34,0,0,1-1.27,3,3.55,3.55,0,0,1-2.5,1.39c-1,0-1.52-.77-1.52-2.31a12.6,12.6,0,0,1,1.18-5.32c.78-1.72,1.7-2.58,2.75-2.58.79,0,1.19.52,1.19,1.56A3.66,3.66,0,0,1,82.67,17.94Zm-2.35,1.77A11.4,11.4,0,0,0,80.25,21a4.5,4.5,0,0,0,.17,1.48.58.58,0,0,0,.57.42c.4,0,.8-.3,1.21-.91a3.56,3.56,0,0,0,.62-2.1c0-.82-.22-1.23-.65-1.23A4.12,4.12,0,0,0,80.32,19.71Zm.07-.84q2.43-1.5,2.43-3.27c0-.74-.21-1.11-.64-1.11C81.33,14.49,80.74,16,80.39,18.87Z" transform="translate(0.42 0.58)"/><path class="cls-5" d="M89.6,21l.17.68c-1.3,1.46-2.4,2.19-3.29,2.19a1.07,1.07,0,0,1-1-.73,4.47,4.47,0,0,1-.32-1.84,11.45,11.45,0,0,1,.68-3.81,8.59,8.59,0,0,1,1.67-3,2.37,2.37,0,0,1,1.74-.81,1.22,1.22,0,0,1,.92.33,1.12,1.12,0,0,1,.31.8,1.05,1.05,0,0,1-.16.59.55.55,0,0,1-.46.23,1.33,1.33,0,0,1-.74-.38,1.34,1.34,0,0,0-.78-.39,1.07,1.07,0,0,0-.8.52,6,6,0,0,0-.75,2,12.26,12.26,0,0,0-.37,3,3.94,3.94,0,0,0,.31,1.72.69.69,0,0,0,.62.47C88,22.56,88.71,22,89.6,21Z" transform="translate(0.42 0.58)"/><path class="cls-5" d="M93.24,18a9.22,9.22,0,0,0,1-1.53,12.52,12.52,0,0,1,1.81-2.68,1.84,1.84,0,0,1,1.23-.61c.46,0,.7.26.7.78s-.21.75-.63.75h-.23l-.27,0a1.5,1.5,0,0,0-1,.39,7.56,7.56,0,0,0-1.24,1.6,11,11,0,0,1-1.06,1.53,4.53,4.53,0,0,1,1.52,1.51,23.93,23.93,0,0,1,1.27,3.76,12.56,12.56,0,0,0,1.17,3,1.59,1.59,0,0,0,1.34.87,1,1,0,0,0,.62-.23.67.67,0,0,0,.28-.52,2.34,2.34,0,0,0-.09-.49,2.34,2.34,0,0,1-.08-.48.92.92,0,0,1,.14-.48.43.43,0,0,1,.35-.21.48.48,0,0,1,.4.26,1.32,1.32,0,0,1,.16.7,2.26,2.26,0,0,1-.55,1.52,1.79,1.79,0,0,1-1.4.63,2.78,2.78,0,0,1-2.22-1.35,17.32,17.32,0,0,1-2-5.51A10.1,10.1,0,0,0,94,19.43a2.66,2.66,0,0,0-.81-1l-.83,5.06H91.1l.58-3.15c.53-3,.8-4.67.8-5.07,0-.17-.06-.26-.18-.26s-.66.47-1.3,1.43L90.75,16a6.59,6.59,0,0,1,1.62-1.84,2.5,2.5,0,0,1,1.14-.57q.33,0,.33.36a6.13,6.13,0,0,1-.11.8Z" transform="translate(0.42 0.58)"/><path class="cls-5" d="M103.71,14h1.17l-.77,4.09c-.45,2.38-.68,3.74-.68,4.07a.66.66,0,0,0,.07.34.22.22,0,0,0,.17.11.53.53,0,0,0,.32-.17A12.67,12.67,0,0,0,105,21l.27.43c-1.1,1.63-1.91,2.45-2.43,2.45a.53.53,0,0,1-.44-.29,1.43,1.43,0,0,1-.19-.81,9.85,9.85,0,0,1,.18-1.63,8.64,8.64,0,0,1-1.8,2.1,2,2,0,0,1-1.24.59.51.51,0,0,1-.45-.27,1.66,1.66,0,0,1-.16-.85,8.85,8.85,0,0,1,.07-1c.08-.49.26-1.48.55-3a29.17,29.17,0,0,0,.54-3.39c0-.22,0-.33-.16-.33a.76.76,0,0,0-.4.22,7.55,7.55,0,0,0-.87,1.05l-.36-.41a11.72,11.72,0,0,1,1.67-1.85,1.79,1.79,0,0,1,.93-.44.35.35,0,0,1,.32.21,1.2,1.2,0,0,1,.13.64,31.6,31.6,0,0,1-.59,4c-.35,1.9-.53,3-.53,3.25a.82.82,0,0,0,.11.42q.12.18.24.18c.31,0,.74-.37,1.31-1.09a5.61,5.61,0,0,0,1.1-2.46Z" transform="translate(0.42 0.58)"/><path class="cls-5" d="M111.43,14h1.16l-.77,4.09c-.45,2.38-.68,3.74-.68,4.07a.66.66,0,0,0,.08.34.21.21,0,0,0,.16.11.58.58,0,0,0,.33-.17,13.11,13.11,0,0,0,1-1.36l.27.43c-1.09,1.63-1.9,2.45-2.42,2.45a.54.54,0,0,1-.45-.29,1.52,1.52,0,0,1-.18-.81,9.85,9.85,0,0,1,.18-1.63,8.64,8.64,0,0,1-1.8,2.1,2.07,2.07,0,0,1-1.24.59.51.51,0,0,1-.45-.27,1.66,1.66,0,0,1-.16-.85,7,7,0,0,1,.07-1q.11-.73.54-3a27.92,27.92,0,0,0,.55-3.39c0-.22-.06-.33-.16-.33a.78.78,0,0,0-.41.22,7.74,7.74,0,0,0-.86,1.05l-.36-.41a11.72,11.72,0,0,1,1.67-1.85,1.76,1.76,0,0,1,.93-.44.36.36,0,0,1,.32.21,1.32,1.32,0,0,1,.12.64,29.71,29.71,0,0,1-.59,4c-.35,1.9-.52,3-.52,3.25a.73.73,0,0,0,.11.42q.1.18.24.18c.31,0,.74-.37,1.3-1.09a5.74,5.74,0,0,0,1.11-2.46Zm1-4.37.25.43a3.82,3.82,0,0,1-2.94,1.88,2.37,2.37,0,0,1-1.12-.29,1,1,0,0,1-.53-.92c0-.47.17-.7.52-.7a2.13,2.13,0,0,1,.84.35,3.1,3.1,0,0,0,1.41.51C111.25,10.85,111.78,10.43,112.43,9.59Z" transform="translate(0.42 0.58)"/><path class="cls-5" d="M42,33.1l-.23-.26q1.06-1.41,1.62-1.41c.18,0,.28.16.3.47L44,36.39l2.1-4.77h.71l-.48,2.52c-.27,1.47-.41,2.3-.41,2.5s0,.28.15.28.39-.31.83-.93l.16.26c-.67,1-1.17,1.51-1.49,1.51a.33.33,0,0,1-.26-.18.79.79,0,0,1-.13-.5,20.34,20.34,0,0,1,.35-2.41L45.88,33l-2.05,4.7h-.39l-.32-4.19A14.24,14.24,0,0,1,42,37.06a1.22,1.22,0,0,1-1,.64.46.46,0,0,1-.41-.21.84.84,0,0,1-.14-.47.85.85,0,0,1,.12-.46.34.34,0,0,1,.3-.19.55.55,0,0,1,.3.11.75.75,0,0,0,.29.1c.15,0,.3-.12.45-.38a11.08,11.08,0,0,0,.67-1.91A10.78,10.78,0,0,0,43,32.44q0-.18-.12-.18C42.68,32.26,42.38,32.54,42,33.1Z" transform="translate(0.42 0.58)"/><path class="cls-5" d="M47.46,32.91l-.16-.34.38-.36a6.45,6.45,0,0,1,.76-.69.42.42,0,0,1,.24-.09c.07,0,.13.06.2.18a8.64,8.64,0,0,1,.75,2.16,12.29,12.29,0,0,1,.3,2.64c0,.11,0,.28,0,.5a10.76,10.76,0,0,0,.85-3.57,5,5,0,0,0-.08-.73,4,4,0,0,1-.1-.72.63.63,0,0,1,.1-.35.28.28,0,0,1,.23-.14.33.33,0,0,1,.29.2,1.21,1.21,0,0,1,.11.56,11.4,11.4,0,0,1-.3,2.32,18.45,18.45,0,0,1-.94,3,12.87,12.87,0,0,1-1.16,2.38,4.51,4.51,0,0,1-1,1.11,1.72,1.72,0,0,1-.94.34.65.65,0,0,1-.5-.18.61.61,0,0,1-.17-.42.62.62,0,0,1,.13-.38.46.46,0,0,1,.36-.15,1.78,1.78,0,0,1,.47.09,1.59,1.59,0,0,0,.43.1.94.94,0,0,0,.65-.36,3.81,3.81,0,0,0,.75-1.21,3.92,3.92,0,0,0,.27-1.41,18.2,18.2,0,0,0-.2-2.42,7.49,7.49,0,0,0-.58-2.15c-.13-.25-.26-.38-.4-.38S47.77,32.59,47.46,32.91Z" transform="translate(0.42 0.58)"/><path class="cls-5" d="M56,36.25c-.68,1-1.17,1.51-1.5,1.51a.33.33,0,0,1-.26-.18.9.9,0,0,1-.12-.5,5.57,5.57,0,0,1,.1-.95l.23-1.44h-1.4l-.47,2.82h-.75c0-.06,0-.25.11-.59s.13-.73.27-1.49l.44-2.58a1.45,1.45,0,0,0,0-.32c0-.14,0-.21-.11-.21s-.4.26-.77.78l-.23-.25c.71-.94,1.25-1.42,1.61-1.42.18,0,.27.18.27.53a17,17,0,0,1-.33,2.29h1.41L55,31.62h.72l-.48,2.52c-.28,1.47-.42,2.3-.42,2.5s0,.28.15.28.4-.31.83-.94Z" transform="translate(0.42 0.58)"/><path class="cls-5" d="M59.78,31.62h.72L60,34.15c-.28,1.46-.42,2.3-.42,2.5a.41.41,0,0,0,0,.21.13.13,0,0,0,.1.07.31.31,0,0,0,.21-.11,8.32,8.32,0,0,0,.63-.83l.16.26c-.67,1-1.17,1.51-1.49,1.51a.35.35,0,0,1-.28-.17,1,1,0,0,1-.11-.51,6.51,6.51,0,0,1,.11-1,5.27,5.27,0,0,1-1.11,1.29,1.26,1.26,0,0,1-.76.37.3.3,0,0,1-.28-.17,1,1,0,0,1-.1-.52,4.45,4.45,0,0,1,0-.61c0-.31.16-.92.34-1.83a19.54,19.54,0,0,0,.34-2.09c0-.14,0-.2-.1-.2a.4.4,0,0,0-.25.13,3.82,3.82,0,0,0-.54.65l-.22-.26a7.17,7.17,0,0,1,1-1.14,1.08,1.08,0,0,1,.58-.27.23.23,0,0,1,.19.13.78.78,0,0,1,.08.39,19.35,19.35,0,0,1-.36,2.46c-.22,1.17-.33,1.84-.33,2a.44.44,0,0,0,.07.26c0,.07.1.11.15.11s.45-.22.8-.67a3.34,3.34,0,0,0,.68-1.52Z" transform="translate(0.42 0.58)"/><path class="cls-5" d="M63.51,38.41a3.69,3.69,0,0,0,.93.15.53.53,0,0,0,.39-.15A.55.55,0,0,0,65,38c0-.06,0-.14,0-.24a1.85,1.85,0,0,1,0-.3,2,2,0,0,1,.1-.59v0q-.6.9-1,.9a.35.35,0,0,1-.28-.17,1,1,0,0,1-.11-.51,5.45,5.45,0,0,1,.11-1,5.27,5.27,0,0,1-1.11,1.29,1.28,1.28,0,0,1-.77.37.29.29,0,0,1-.27-.17,1,1,0,0,1-.1-.52,4.45,4.45,0,0,1,0-.61q.07-.46.33-1.83a17.06,17.06,0,0,0,.34-2.09c0-.14,0-.2-.1-.2a.45.45,0,0,0-.25.13,4.55,4.55,0,0,0-.53.65l-.22-.26a6.71,6.71,0,0,1,1-1.14,1.09,1.09,0,0,1,.57-.27.24.24,0,0,1,.2.13A.78.78,0,0,1,63,32a20.19,20.19,0,0,1-.37,2.46c-.21,1.17-.32,1.84-.32,2a.44.44,0,0,0,.07.26.18.18,0,0,0,.15.11c.18,0,.45-.22.8-.67A3.56,3.56,0,0,0,64,34.59l.55-3h.72l-.48,2.53c-.28,1.46-.42,2.3-.42,2.5s0,.28.15.28.4-.31.83-.94l.17.26a1.59,1.59,0,0,0-.33,1,3,3,0,0,0,0,.43,2.53,2.53,0,0,1,.06.45A1.17,1.17,0,0,1,64,39.27,8.5,8.5,0,0,1,63,39.21l-.48-.06c-.21,0-.31.12-.31.36s.06.25.18.27a.26.26,0,0,1,.23.29.38.38,0,0,1-.07.22.21.21,0,0,1-.17.1c-.12,0-.23-.08-.33-.25a1.29,1.29,0,0,1-.15-.64,1.2,1.2,0,0,1,.31-.87.9.9,0,0,1,.67-.33A3.12,3.12,0,0,1,63.51,38.41Z" transform="translate(0.42 0.58)"/><path class="cls-5" d="M69.3,31.62H70l-.48,2.53c-.28,1.46-.42,2.3-.42,2.5a.41.41,0,0,0,0,.21s.06.07.1.07a.31.31,0,0,0,.2-.11A8.32,8.32,0,0,0,70.1,36l.17.26c-.68,1-1.18,1.51-1.5,1.51a.33.33,0,0,1-.27-.17.92.92,0,0,1-.12-.51,6.51,6.51,0,0,1,.11-1,5.27,5.27,0,0,1-1.11,1.29,1.24,1.24,0,0,1-.76.37.3.3,0,0,1-.28-.17,1.11,1.11,0,0,1-.1-.52,4.55,4.55,0,0,1,.05-.61q.06-.46.33-1.83A17.06,17.06,0,0,0,67,32.52c0-.14,0-.2-.1-.2a.45.45,0,0,0-.25.13,4.55,4.55,0,0,0-.53.65l-.23-.26a7.09,7.09,0,0,1,1-1.14,1,1,0,0,1,.57-.27.24.24,0,0,1,.2.13.8.8,0,0,1,.07.39,19.35,19.35,0,0,1-.36,2.46c-.22,1.17-.32,1.84-.32,2a.53.53,0,0,0,.06.26c0,.07.1.11.15.11s.46-.22.8-.67a3.46,3.46,0,0,0,.69-1.52Z" transform="translate(0.42 0.58)"/><path class="cls-5" d="M70.79,33.13l-.17-.25a6.53,6.53,0,0,1,1-1.18,1.22,1.22,0,0,1,.66-.29.21.21,0,0,1,.17.07.2.2,0,0,1,.06.15,1.58,1.58,0,0,1,0,.23l-.23,1.45a8,8,0,0,1,1.29-1.52,1.18,1.18,0,0,1,.68-.37.33.33,0,0,1,.31.18.94.94,0,0,1,.11.52,3.25,3.25,0,0,1,0,.51c-.06.31-.2,1-.43,2a12.18,12.18,0,0,0-.32,2,.61.61,0,0,0,0,.22.09.09,0,0,0,.09.07c.1,0,.25-.13.46-.4s.29-.37.44-.53l.13.26a5.34,5.34,0,0,1-1,1.17.84.84,0,0,1-.52.29.32.32,0,0,1-.3-.2,1.44,1.44,0,0,1-.1-.64,20.58,20.58,0,0,1,.56-3.2c.11-.61.17-1,.17-1.07s-.06-.22-.19-.22a.89.89,0,0,0-.52.3,3.81,3.81,0,0,0-.79,1.06A4.23,4.23,0,0,0,72,35l-.41,2.53h-.75c.14-.72.26-1.42.37-2.08l.45-2.75c0-.11,0-.19,0-.23s0-.2-.1-.2-.13,0-.23.15A3.68,3.68,0,0,0,70.79,33.13Z" transform="translate(0.42 0.58)"/><path class="cls-5" d="M78.84,31.31l.33-.1L78.8,33c-.16.72-.3,1.56-.43,2.51a8,8,0,0,0-.11,1c0,.15,0,.22.12.22s.14-.05.26-.15a3.87,3.87,0,0,0,.6-.66l.16.28a11.4,11.4,0,0,1-.74.91,2.64,2.64,0,0,1-.61.47.77.77,0,0,1-.38.1.22.22,0,0,1-.19-.09.36.36,0,0,1-.07-.25,2.51,2.51,0,0,1,0-.3l.2-1a5,5,0,0,1-1,1.28,1.07,1.07,0,0,1-.68.33.51.51,0,0,1-.45-.29,2.26,2.26,0,0,1-.21-1,6,6,0,0,1,.29-1.71A7.17,7.17,0,0,1,76.33,33a3.87,3.87,0,0,1,1-1.12,1.86,1.86,0,0,1,1-.28,1.84,1.84,0,0,1,.33,0Zm-.62,1.11a1.53,1.53,0,0,0-.46-.08,1.09,1.09,0,0,0-.8.35A3.64,3.64,0,0,0,76.33,34,6.31,6.31,0,0,0,76,35.83a1.53,1.53,0,0,0,.12.71.34.34,0,0,0,.3.22c.24,0,.48-.18.75-.54a3.8,3.8,0,0,0,.59-1.55Z" transform="translate(0.42 0.58)"/><path class="cls-5" d="M84.17,36.23c-.64,1-1.14,1.47-1.52,1.47a.37.37,0,0,1-.3-.21,2.69,2.69,0,0,1-.21-1.09l-.2-3a15.92,15.92,0,0,1-1.21,3.55c-.32.51-.67.77-1,.77a.5.5,0,0,1-.4-.19.73.73,0,0,1-.15-.48.78.78,0,0,1,.13-.48.37.37,0,0,1,.31-.18.59.59,0,0,1,.28.11.76.76,0,0,0,.29.1.66.66,0,0,0,.49-.35,9.84,9.84,0,0,0,.73-2,16.25,16.25,0,0,0,.48-1.8c0-.15,0-.22-.14-.22s-.5.28-.91.86l-.21-.26c.71-.94,1.26-1.41,1.64-1.41a.27.27,0,0,1,.28.2,3.06,3.06,0,0,1,.11.82l.21,3.48c0,.65.15,1,.32,1s.24-.13.45-.4A5.92,5.92,0,0,1,84,36Z" transform="translate(0.42 0.58)"/><path class="cls-5" d="M85.66,34.06a2.34,2.34,0,0,1,1-.43.92.92,0,0,1,.76.37,1.61,1.61,0,0,1,.29,1,2.88,2.88,0,0,1-.7,1.93,2.07,2.07,0,0,1-1.55.8c-.67,0-1-.3-1-.9a12.68,12.68,0,0,1,.19-1.4l.45-2.58a1.45,1.45,0,0,0,0-.32c0-.14,0-.21-.11-.21s-.41.26-.78.78l-.22-.25c.71-.94,1.24-1.42,1.6-1.42.19,0,.28.18.28.53A14.55,14.55,0,0,1,85.66,34.06Zm-.37,2.55a.86.86,0,0,0,.11.47.5.5,0,0,0,.42.16,1.09,1.09,0,0,0,.9-.46,2.33,2.33,0,0,0,.34-1.36c0-.74-.27-1.12-.79-1.12a1.37,1.37,0,0,0-.66.23C85.4,35.75,85.29,36.45,85.29,36.61Z" transform="translate(0.42 0.58)"/><path class="cls-5" d="M92.7,36.25c-.67,1-1.17,1.51-1.49,1.51-.1,0-.18-.06-.27-.18a.9.9,0,0,1-.12-.5,5.57,5.57,0,0,1,.1-.95l.24-1.44H89.75l-.46,2.82h-.75c0-.06,0-.25.1-.59s.14-.73.27-1.49l.45-2.58a2.23,2.23,0,0,0,0-.32c0-.14,0-.21-.1-.21s-.41.26-.78.78l-.22-.25c.71-.94,1.24-1.42,1.6-1.42.19,0,.28.18.28.53a17,17,0,0,1-.33,2.29h1.4l.49-2.63h.72L92,34.14c-.28,1.47-.42,2.3-.42,2.5s0,.28.14.28.4-.31.84-.94Z" transform="translate(0.42 0.58)"/><path class="cls-5" d="M94.6,34.06a2.36,2.36,0,0,1,1-.43.93.93,0,0,1,.77.37,1.61,1.61,0,0,1,.29,1A2.84,2.84,0,0,1,96,36.93a2,2,0,0,1-1.54.8c-.67,0-1-.3-1-.9a14,14,0,0,1,.2-1.4l.45-2.58a2.51,2.51,0,0,0,0-.32c0-.14,0-.21-.11-.21s-.41.26-.78.78L93,32.85c.71-.94,1.24-1.42,1.6-1.42.18,0,.28.18.28.53A14.55,14.55,0,0,1,94.6,34.06Zm-.37,2.55a.78.78,0,0,0,.11.47.49.49,0,0,0,.42.16,1.06,1.06,0,0,0,.89-.46A2.26,2.26,0,0,0,96,35.42c0-.74-.26-1.12-.78-1.12a1.34,1.34,0,0,0-.66.23C94.33,35.75,94.23,36.45,94.23,36.61Zm3.82-5h.72l-.48,2.52c-.27,1.46-.41,2.29-.41,2.49s.05.28.14.28.4-.31.83-.93l.17.26c-.67,1-1.17,1.51-1.5,1.51a.34.34,0,0,1-.26-.17.91.91,0,0,1-.13-.51,18.78,18.78,0,0,1,.36-2.4Z" transform="translate(0.42 0.58)"/><path class="cls-5" d="M102.8,31.62h.72l-.47,2.53c-.28,1.46-.42,2.3-.42,2.5a.41.41,0,0,0,0,.21s.07.07.11.07a.31.31,0,0,0,.2-.11,8.32,8.32,0,0,0,.63-.83l.17.26c-.68,1-1.18,1.51-1.5,1.51a.32.32,0,0,1-.27-.17.92.92,0,0,1-.12-.51,6.51,6.51,0,0,1,.11-1,5.27,5.27,0,0,1-1.11,1.29,1.26,1.26,0,0,1-.76.37.3.3,0,0,1-.28-.17,1,1,0,0,1-.1-.52,4.55,4.55,0,0,1,0-.61q.06-.46.33-1.83a17.06,17.06,0,0,0,.34-2.09c0-.14,0-.2-.1-.2a.43.43,0,0,0-.25.13,5.14,5.14,0,0,0-.54.65l-.22-.26a6.65,6.65,0,0,1,1-1.14,1,1,0,0,1,.57-.27.26.26,0,0,1,.2.13.8.8,0,0,1,.07.39,19.35,19.35,0,0,1-.36,2.46c-.22,1.17-.33,1.84-.33,2a.53.53,0,0,0,.07.26c0,.07.1.11.15.11s.46-.22.8-.67a3.34,3.34,0,0,0,.68-1.52Zm.62-2.69.15.26a2.34,2.34,0,0,1-1.81,1.16,1.42,1.42,0,0,1-.69-.18.6.6,0,0,1-.32-.56c0-.29.1-.44.32-.44a1.29,1.29,0,0,1,.51.22,2,2,0,0,0,.87.32C102.7,29.71,103,29.45,103.42,28.93Z" transform="translate(0.42 0.58)"/><path class="cls-5" d="M106.5,33.23l-.2-.29a4.44,4.44,0,0,1,.91-1.17,1.35,1.35,0,0,1,.79-.37.24.24,0,0,1,.2.09.4.4,0,0,1,.07.26,3.22,3.22,0,0,1,0,.43c0,.15-.09.5-.2,1a9.88,9.88,0,0,1,1-1.37,1.39,1.39,0,0,1,.87-.44c.17,0,.32.12.44.35a2.51,2.51,0,0,1,.17,1,7.52,7.52,0,0,1-.76,3.33c-.51,1-1.07,1.57-1.68,1.57a1.16,1.16,0,0,1-.73-.28L107,39.81a1.86,1.86,0,0,0,0,.36.45.45,0,0,0,.14.38,2.13,2.13,0,0,0,.91.3l-.06.36a12.51,12.51,0,0,0-1.28-.09,10.88,10.88,0,0,0-1.24.09l.06-.36a.78.78,0,0,0,.56-.31,2.13,2.13,0,0,0,.28-.87l.91-5.48c.18-1,.26-1.59.26-1.71s0-.19-.12-.19S106.91,32.6,106.5,33.23Zm1,3.41c.27.38.54.57.82.57s.75-.45,1.06-1.35a8.34,8.34,0,0,0,.46-2.64,1.32,1.32,0,0,0-.13-.63.4.4,0,0,0-.35-.21.79.79,0,0,0-.54.34,4.38,4.38,0,0,0-.72,1.05,5.24,5.24,0,0,0-.33,1.3Z" transform="translate(0.42 0.58)"/><path class="cls-5" d="M114.42,31.31l.33-.1L114.37,33c-.15.72-.29,1.56-.43,2.51-.07.52-.11.85-.11,1s0,.22.13.22a.49.49,0,0,0,.25-.15,3.87,3.87,0,0,0,.6-.66l.17.28c-.39.5-.63.8-.74.91a2.67,2.67,0,0,1-.62.47.76.76,0,0,1-.37.1.24.24,0,0,1-.2-.09.42.42,0,0,1-.06-.25,1.37,1.37,0,0,1,0-.3l.2-1a5.25,5.25,0,0,1-1,1.28,1.05,1.05,0,0,1-.67.33.49.49,0,0,1-.45-.29,2.26,2.26,0,0,1-.21-1,6,6,0,0,1,.28-1.71,7.19,7.19,0,0,1,.77-1.71,3.73,3.73,0,0,1,1-1.12,1.86,1.86,0,0,1,1-.28l.32,0Zm-.63,1.11a1.48,1.48,0,0,0-.46-.08,1.07,1.07,0,0,0-.79.35,3.33,3.33,0,0,0-.63,1.29,6,6,0,0,0-.29,1.85,1.71,1.71,0,0,0,.11.71.34.34,0,0,0,.31.22c.23,0,.48-.18.74-.54a3.67,3.67,0,0,0,.59-1.55Z" transform="translate(0.42 0.58)"/><path class="cls-5" d="M118.73,31.62h.71L119,34.15c-.28,1.46-.42,2.3-.42,2.5a.41.41,0,0,0,0,.21s.06.07.1.07a.31.31,0,0,0,.2-.11,8.32,8.32,0,0,0,.63-.83l.17.26c-.68,1-1.18,1.51-1.5,1.51a.32.32,0,0,1-.27-.17.92.92,0,0,1-.12-.51,6.51,6.51,0,0,1,.11-1,5.27,5.27,0,0,1-1.11,1.29,1.24,1.24,0,0,1-.76.37.3.3,0,0,1-.28-.17,1.11,1.11,0,0,1-.1-.52,4.55,4.55,0,0,1,0-.61q.06-.46.33-1.83a17.06,17.06,0,0,0,.34-2.09c0-.14,0-.2-.1-.2a.45.45,0,0,0-.25.13,4.55,4.55,0,0,0-.53.65l-.23-.26a7.09,7.09,0,0,1,1-1.14,1.06,1.06,0,0,1,.57-.27.24.24,0,0,1,.2.13.8.8,0,0,1,.07.39,19.35,19.35,0,0,1-.36,2.46c-.22,1.17-.32,1.84-.32,2a.53.53,0,0,0,.06.26c0,.07.1.11.15.11s.46-.22.8-.67a3.46,3.46,0,0,0,.69-1.52Zm.61-2.69.16.26a2.37,2.37,0,0,1-1.82,1.16,1.36,1.36,0,0,1-.68-.18.59.59,0,0,1-.33-.56c0-.29.11-.44.32-.44a1.37,1.37,0,0,1,.52.22,1.91,1.91,0,0,0,.86.32C118.62,29.71,118.94,29.45,119.34,28.93Z" transform="translate(0.42 0.58)"/><path class="cls-5" d="M122.58,31.43a1,1,0,0,1,.82.57,3.11,3.11,0,0,1,.33,1.57,5.41,5.41,0,0,1-.79,2.87c-.53.85-1.08,1.28-1.67,1.28a1,1,0,0,1-.87-.51,2.47,2.47,0,0,1-.33-1.38,6.41,6.41,0,0,1,.61-2.8C121.19,32,121.82,31.43,122.58,31.43Zm-.43.55c-.29,0-.57.29-.83.87a6,6,0,0,0-.41,2.43,3.72,3.72,0,0,0,.25,1.48c.12.26.28.4.49.4s.54-.25.77-.76a5.91,5.91,0,0,0,.44-2.42,4.3,4.3,0,0,0-.2-1.54C122.52,32.13,122.35,32,122.15,32Z" transform="translate(0.42 0.58)"/><path class="cls-5" d="M128.59,36.25c-.67,1-1.17,1.51-1.49,1.51a.33.33,0,0,1-.27-.18.9.9,0,0,1-.12-.5,5.57,5.57,0,0,1,.1-.95l.23-1.44h-1.4l-.47,2.82h-.75c0-.06,0-.25.11-.59s.14-.73.27-1.49l.45-2.58a2.23,2.23,0,0,0,0-.32c0-.14,0-.21-.11-.21s-.4.26-.77.78l-.22-.25c.7-.94,1.24-1.42,1.6-1.42.18,0,.28.18.28.53a17.74,17.74,0,0,1-.34,2.29h1.41l.49-2.63h.72l-.48,2.52c-.28,1.47-.42,2.3-.42,2.5s0,.28.15.28.4-.31.83-.94Z" transform="translate(0.42 0.58)"/><path class="cls-5" d="M133.53,30.6l.06-.33a6.08,6.08,0,0,0,1.25-.29c-.08.34-.17.78-.27,1.33l-.38,2,.46,0a1.26,1.26,0,0,0,.71-.23,2.19,2.19,0,0,0,.68-.89,3.2,3.2,0,0,0,.3-1.38,1.67,1.67,0,0,0-.37-1.15,1.36,1.36,0,0,0-1.11-.43,2.85,2.85,0,0,0-1.68.61,4.12,4.12,0,0,0-1.27,1.56,4.39,4.39,0,0,0-.45,1.88,2.34,2.34,0,0,0,.12.79,2,2,0,0,0,.41.66.73.73,0,0,1,.25.51.45.45,0,0,1-.08.26.23.23,0,0,1-.19.11c-.2,0-.4-.19-.58-.58a3.4,3.4,0,0,1-.28-1.48,5.37,5.37,0,0,1,.88-3,3.52,3.52,0,0,1,3.09-1.77,2.43,2.43,0,0,1,1.21.27,1.69,1.69,0,0,1,.7.75,2.3,2.3,0,0,1,.24,1,3.18,3.18,0,0,1-.33,1.39,2.71,2.71,0,0,1-1,1.1,2.55,2.55,0,0,1-1.43.42l-.38,0-.4,2.24c-.07.38-.14.76-.23,1.13a2.17,2.17,0,0,0,.69.14,1.92,1.92,0,0,0,.79-.2l-.06.4a2,2,0,0,1-.67.15,5.76,5.76,0,0,1-.76-.08,3.7,3.7,0,0,0-.66-.07,3.23,3.23,0,0,0-1,.17l.06-.39a1.3,1.3,0,0,0,.71-.35,3.1,3.1,0,0,0,.45-1.31l.76-4.33a3.64,3.64,0,0,0,0-.42.31.31,0,0,0-.07-.21.18.18,0,0,0-.15-.09Z" transform="translate(0.42 0.58)"/><path class="cls-5" d="M139.47,35.7l.16.31c-.82,1.13-1.53,1.69-2.12,1.69a.61.61,0,0,1-.55-.35,2.51,2.51,0,0,1-.19-1.11,7.73,7.73,0,0,1,.66-3.08c.49-1.16,1.08-1.74,1.76-1.74a.62.62,0,0,1,.55.26,1.12,1.12,0,0,1,.19.7,2.05,2.05,0,0,1-.23.92,3.06,3.06,0,0,1-.81,1,14.64,14.64,0,0,1-1.25.86,6.59,6.59,0,0,0,0,.75,1.48,1.48,0,0,0,.12.71.34.34,0,0,0,.33.2.82.82,0,0,0,.45-.16A7.45,7.45,0,0,0,139.47,35.7Zm-1.77-1.05a4.18,4.18,0,0,0,1.22-1.12,1.47,1.47,0,0,0,.28-.83.93.93,0,0,0-.12-.5.33.33,0,0,0-.29-.18.5.5,0,0,0-.36.2,2,2,0,0,0-.4.81A9,9,0,0,0,137.7,34.65Z" transform="translate(0.42 0.58)"/><path class="cls-5" d="M143.11,35.94l.1.42c-.8.9-1.47,1.35-2,1.35a.68.68,0,0,1-.64-.45,2.79,2.79,0,0,1-.2-1.13,7.18,7.18,0,0,1,.43-2.35,5.26,5.26,0,0,1,1-1.85,1.46,1.46,0,0,1,1.07-.5.74.74,0,0,1,.57.21.7.7,0,0,1,.19.49.64.64,0,0,1-.1.36.33.33,0,0,1-.29.14.76.76,0,0,1-.45-.23.82.82,0,0,0-.48-.24.63.63,0,0,0-.49.32,3.53,3.53,0,0,0-.47,1.24,7.88,7.88,0,0,0-.22,1.86,2.53,2.53,0,0,0,.18,1.06.43.43,0,0,0,.39.28C142.09,36.92,142.56,36.6,143.11,35.94Z" transform="translate(0.42 0.58)"/><path class="cls-5" d="M144,33.13l-.17-.25a6.16,6.16,0,0,1,1-1.18,1.19,1.19,0,0,1,.66-.29.19.19,0,0,1,.16.07.2.2,0,0,1,.06.15,1.22,1.22,0,0,1,0,.23l-.23,1.45a7.29,7.29,0,0,1,1.29-1.52,1.15,1.15,0,0,1,.68-.37.34.34,0,0,1,.31.18,1,1,0,0,1,.11.52,3.25,3.25,0,0,1,0,.51c-.06.31-.2,1-.43,2a12.18,12.18,0,0,0-.32,2,.61.61,0,0,0,0,.22.09.09,0,0,0,.09.07c.09,0,.25-.13.46-.4a5.89,5.89,0,0,1,.44-.53l.13.26a5.34,5.34,0,0,1-1,1.17.84.84,0,0,1-.52.29.32.32,0,0,1-.3-.2,1.41,1.41,0,0,1-.11-.64,22,22,0,0,1,.56-3.2,9.7,9.7,0,0,0,.18-1.07c0-.14-.07-.22-.19-.22a.86.86,0,0,0-.52.3,3.81,3.81,0,0,0-.79,1.06,4.23,4.23,0,0,0-.34,1.24l-.41,2.53h-.75c.14-.72.26-1.42.37-2.08l.44-2.75a1.58,1.58,0,0,0,0-.23c0-.13,0-.2-.1-.2s-.13,0-.23.15A3.68,3.68,0,0,0,144,33.13Z" transform="translate(0.42 0.58)"/><path class="cls-5" d="M148.59,32.91l-.16-.34.37-.36a7.17,7.17,0,0,1,.77-.69.4.4,0,0,1,.23-.09c.07,0,.14.06.2.18a7.9,7.9,0,0,1,.75,2.16,12.29,12.29,0,0,1,.3,2.64c0,.11,0,.28,0,.5a10.82,10.82,0,0,0,.86-3.57,4.06,4.06,0,0,0-.09-.73,4.83,4.83,0,0,1-.09-.72.63.63,0,0,1,.09-.35.31.31,0,0,1,.24-.14.32.32,0,0,1,.28.2,1.09,1.09,0,0,1,.11.56,11.4,11.4,0,0,1-.3,2.32,18.35,18.35,0,0,1-.93,3A13.45,13.45,0,0,1,150,39.85,4.16,4.16,0,0,1,149,41a1.72,1.72,0,0,1-.93.34.65.65,0,0,1-.5-.18.61.61,0,0,1,0-.8.44.44,0,0,1,.35-.15,1.71,1.71,0,0,1,.47.09,1.63,1.63,0,0,0,.44.1,1,1,0,0,0,.65-.36,3.78,3.78,0,0,0,.74-1.21,3.73,3.73,0,0,0,.28-1.41,16.83,16.83,0,0,0-.21-2.42,7.21,7.21,0,0,0-.57-2.15c-.13-.25-.26-.38-.4-.38S148.9,32.59,148.59,32.91Z" transform="translate(0.42 0.58)"/><path class="cls-5" d="M154.1,32.7c.53-.83,1-1.24,1.5-1.24a.63.63,0,0,1,.59.45,3,3,0,0,1,.19,1.17,6.57,6.57,0,0,1-.77,3.16c-.51,1-1.07,1.46-1.7,1.46a.86.86,0,0,1-.75-.41,1.74,1.74,0,0,1-.27-1,10.22,10.22,0,0,1,.14-1.38l.6-3.81a5.66,5.66,0,0,1,1.08-3,2,2,0,0,1,1.31-.74,1.7,1.7,0,0,1,.44.07,8.1,8.1,0,0,0,1.26.26c.12,0,.27-.13.45-.38l.16.15a2.63,2.63,0,0,1-.55.94.91.91,0,0,1-.57.19,7.22,7.22,0,0,1-1.49-.28,2.28,2.28,0,0,0-.48-.09c-.17,0-.3.12-.39.35a9.5,9.5,0,0,0-.34,1.58Zm-.54,3.63a1.07,1.07,0,0,0,.18.63.5.5,0,0,0,.39.26c.4,0,.74-.44,1-1.31a7.85,7.85,0,0,0,.43-2.48,2.55,2.55,0,0,0-.12-.81c-.08-.24-.2-.36-.37-.36s-.38.16-.62.48a4.47,4.47,0,0,0-.64,1.58A8.51,8.51,0,0,0,153.56,36.33Z" transform="translate(0.42 0.58)"/><path class="cls-5" d="M161.36,36.23c-.64,1-1.15,1.47-1.52,1.47a.37.37,0,0,1-.3-.21,2.69,2.69,0,0,1-.21-1.09l-.2-3a15.92,15.92,0,0,1-1.21,3.55c-.32.51-.67.77-1,.77a.47.47,0,0,1-.4-.19.73.73,0,0,1-.15-.48.78.78,0,0,1,.13-.48.35.35,0,0,1,.3-.18.59.59,0,0,1,.29.11.73.73,0,0,0,.28.1.66.66,0,0,0,.5-.35,9.43,9.43,0,0,0,.72-2,15.17,15.17,0,0,0,.49-1.8c0-.15,0-.22-.14-.22s-.51.28-.91.86l-.21-.26c.71-.94,1.25-1.41,1.64-1.41a.27.27,0,0,1,.28.2,3.56,3.56,0,0,1,.11.82l.2,3.48c0,.65.15,1,.33,1s.24-.13.45-.4.36-.46.43-.54Z" transform="translate(0.42 0.58)"/><path class="cls-5" d="M164.73,31.62h.72L165,34.15c-.28,1.46-.42,2.3-.42,2.5a.41.41,0,0,0,0,.21.13.13,0,0,0,.1.07.31.31,0,0,0,.21-.11,8.32,8.32,0,0,0,.63-.83l.16.26c-.67,1-1.17,1.51-1.49,1.51a.35.35,0,0,1-.28-.17,1,1,0,0,1-.11-.51,6.51,6.51,0,0,1,.11-1,5.27,5.27,0,0,1-1.11,1.29,1.26,1.26,0,0,1-.76.37.3.3,0,0,1-.28-.17,1,1,0,0,1-.1-.52,4.45,4.45,0,0,1,0-.61c.05-.31.16-.92.34-1.83a19.54,19.54,0,0,0,.34-2.09c0-.14,0-.2-.11-.2a.41.41,0,0,0-.24.13,3.82,3.82,0,0,0-.54.65l-.22-.26a6.71,6.71,0,0,1,1-1.14,1.08,1.08,0,0,1,.58-.27.23.23,0,0,1,.19.13.78.78,0,0,1,.08.39,18.25,18.25,0,0,1-.37,2.46c-.21,1.17-.32,1.84-.32,2a.44.44,0,0,0,.07.26.18.18,0,0,0,.15.11c.19,0,.45-.22.8-.67a3.45,3.45,0,0,0,.68-1.52Z" transform="translate(0.42 0.58)"/><path class="cls-5" d="M167.58,34.11a5.4,5.4,0,0,0,.64-1,8.12,8.12,0,0,1,1.12-1.65,1.11,1.11,0,0,1,.76-.37c.28,0,.43.16.43.47s-.13.47-.39.47H170l-.17,0a.93.93,0,0,0-.59.25,4.29,4.29,0,0,0-.76,1,6.44,6.44,0,0,1-.66.94,2.86,2.86,0,0,1,.94.93,15.42,15.42,0,0,1,.78,2.32,7.28,7.28,0,0,0,.72,1.86,1,1,0,0,0,.83.54.59.59,0,0,0,.38-.14.41.41,0,0,0,.18-.32,1.27,1.27,0,0,0-.06-.3,1.53,1.53,0,0,1-.05-.3.5.5,0,0,1,.09-.29.26.26,0,0,1,.21-.14.3.3,0,0,1,.25.17.88.88,0,0,1,.1.43,1.4,1.4,0,0,1-.34.93,1.12,1.12,0,0,1-.86.4,1.73,1.73,0,0,1-1.38-.84,11,11,0,0,1-1.24-3.4A5.8,5.8,0,0,0,168,35a1.8,1.8,0,0,0-.5-.61L167,37.51h-.77l.36-1.94c.33-1.84.49-2.88.49-3.12s0-.17-.11-.17-.41.29-.8.88l-.15-.25a3.85,3.85,0,0,1,1-1.14,1.57,1.57,0,0,1,.71-.35c.13,0,.2.07.2.22s0,.22-.06.49Z" transform="translate(0.42 0.58)"/><path class="cls-5" d="M174,31.62h.72l-.48,2.53c-.28,1.46-.42,2.3-.42,2.5a.41.41,0,0,0,0,.21s.06.07.1.07a.29.29,0,0,0,.2-.11,8.32,8.32,0,0,0,.63-.83l.17.26c-.68,1-1.18,1.51-1.5,1.51a.34.34,0,0,1-.27-.17.92.92,0,0,1-.11-.51,5.45,5.45,0,0,1,.11-1,5.27,5.27,0,0,1-1.11,1.29,1.28,1.28,0,0,1-.77.37.29.29,0,0,1-.27-.17,1,1,0,0,1-.1-.52,4.45,4.45,0,0,1,0-.61c0-.31.16-.92.33-1.83a17.06,17.06,0,0,0,.34-2.09c0-.14,0-.2-.1-.2a.45.45,0,0,0-.25.13,4.55,4.55,0,0,0-.53.65l-.22-.26a6.71,6.71,0,0,1,1-1.14,1.09,1.09,0,0,1,.57-.27.24.24,0,0,1,.2.13.8.8,0,0,1,.07.39,19.35,19.35,0,0,1-.36,2.46c-.21,1.17-.32,1.84-.32,2a.44.44,0,0,0,.07.26c0,.07.09.11.14.11s.46-.22.81-.67a3.56,3.56,0,0,0,.68-1.52Z" transform="translate(0.42 0.58)"/><path class="cls-5" d="M184.61,29l0,.19a2.09,2.09,0,0,0-.68.36,4.88,4.88,0,0,0-.72.78,21.16,21.16,0,0,1-2.1,2.32,5.9,5.9,0,0,1,.43,1c.13.38.34,1.24.64,2.6a8.22,8.22,0,0,0,.82,2.44c.28.43.57.64.86.64s.46-.21.57-.64a1.8,1.8,0,0,1,.15-.46.27.27,0,0,1,.2-.11.26.26,0,0,1,.21.12.45.45,0,0,1,.09.28,1.26,1.26,0,0,1-.36.84,1.16,1.16,0,0,1-.91.4,1.39,1.39,0,0,1-.9-.34,3,3,0,0,1-.78-1.09,12.47,12.47,0,0,1-.73-2.31c-.23-1-.4-1.65-.53-2a7.11,7.11,0,0,0-.52-1.15l-.53,2.93c-.11.59-.18,1-.21,1.27a1.23,1.23,0,0,0,.62.21l.19,0-.07.36h-.12a3.71,3.71,0,0,1-.48,0,4,4,0,0,0-.53-.05,6.23,6.23,0,0,0-1.32.23l0-.35a1.26,1.26,0,0,0,.68-.38,1.89,1.89,0,0,0,.31-.76c.18-.78.41-2,.69-3.52l.62-3.34a2.51,2.51,0,0,0-1.58.65,1.28,1.28,0,0,0-.45.95,1.33,1.33,0,0,0,.13.48,1.19,1.19,0,0,1,.11.42.57.57,0,0,1-.1.34.27.27,0,0,1-.23.15c-.11,0-.2-.07-.28-.22a1.27,1.27,0,0,1-.13-.6,2.73,2.73,0,0,1,.7-1.81,3.13,3.13,0,0,1,2.43-.8h.33c-.19.69-.31,1.18-.36,1.49l-.41,2.19a4,4,0,0,0,.88-.69,13.32,13.32,0,0,0,.95-1,11.49,11.49,0,0,0,1-1.23.24.24,0,0,0,0-.13s0-.07-.1-.1a2.35,2.35,0,0,0-.59-.06l.07-.41a7.92,7.92,0,0,0,1.06.09A6.24,6.24,0,0,0,184.61,29Z" transform="translate(0.42 0.58)"/><path class="cls-5" d="M187.93,31.31l.33-.1L187.88,33c-.15.72-.29,1.56-.43,2.51-.07.52-.11.85-.11,1s0,.22.13.22a.49.49,0,0,0,.25-.15,4.37,4.37,0,0,0,.61-.66l.16.28c-.39.5-.63.8-.74.91a2.67,2.67,0,0,1-.62.47.76.76,0,0,1-.37.1.24.24,0,0,1-.2-.09.42.42,0,0,1-.06-.25,1.37,1.37,0,0,1,0-.3l.2-1a5.25,5.25,0,0,1-1,1.28,1.05,1.05,0,0,1-.67.33.49.49,0,0,1-.45-.29,2.26,2.26,0,0,1-.21-1,6,6,0,0,1,.28-1.71,7.19,7.19,0,0,1,.77-1.71,3.73,3.73,0,0,1,1-1.12,1.86,1.86,0,0,1,1-.28l.32,0Zm-.63,1.11a1.48,1.48,0,0,0-.46-.08,1.07,1.07,0,0,0-.79.35,3.33,3.33,0,0,0-.63,1.29,6.31,6.31,0,0,0-.29,1.85,1.71,1.71,0,0,0,.11.71.34.34,0,0,0,.31.22c.23,0,.48-.18.74-.54a3.67,3.67,0,0,0,.59-1.55Z" transform="translate(0.42 0.58)"/><path class="cls-5" d="M188.9,33.23l-.2-.29a4.25,4.25,0,0,1,.92-1.17,1.3,1.3,0,0,1,.79-.37.22.22,0,0,1,.19.09.4.4,0,0,1,.08.26,3.22,3.22,0,0,1,0,.43l-.21,1a10.5,10.5,0,0,1,1.06-1.37,1.34,1.34,0,0,1,.86-.44c.18,0,.32.12.44.35a2.34,2.34,0,0,1,.18,1,7.53,7.53,0,0,1-.77,3.33c-.5,1-1.07,1.57-1.68,1.57a1.18,1.18,0,0,1-.73-.28l-.43,2.38a1.86,1.86,0,0,0,0,.36.48.48,0,0,0,.14.38,2.18,2.18,0,0,0,.91.3l-.06.36a12.33,12.33,0,0,0-1.28-.09,11,11,0,0,0-1.24.09l.07-.36a.76.76,0,0,0,.55-.31,2.13,2.13,0,0,0,.28-.87l.92-5.48c.17-1,.26-1.59.26-1.71s0-.19-.13-.19S189.32,32.6,188.9,33.23Zm1,3.41c.27.38.54.57.82.57s.76-.45,1.06-1.35a8.07,8.07,0,0,0,.46-2.64,1.21,1.21,0,0,0-.13-.63.39.39,0,0,0-.34-.21.79.79,0,0,0-.55.34,4.32,4.32,0,0,0-.71,1.05,5.62,5.62,0,0,0-.34,1.3Z" transform="translate(0.42 0.58)"/><path class="cls-5" d="M196,35.7l.17.31c-.83,1.13-1.53,1.69-2.12,1.69a.6.6,0,0,1-.55-.35,2.38,2.38,0,0,1-.19-1.11,7.73,7.73,0,0,1,.66-3.08c.49-1.16,1.07-1.74,1.76-1.74a.63.63,0,0,1,.55.26,1.19,1.19,0,0,1,.19.7,2.05,2.05,0,0,1-.23.92,3.06,3.06,0,0,1-.81,1c-.2.16-.62.45-1.26.86a6.51,6.51,0,0,0,0,.75,1.65,1.65,0,0,0,.11.71.36.36,0,0,0,.33.2.85.85,0,0,0,.46-.16A7.55,7.55,0,0,0,196,35.7Zm-1.77-1.05a4.37,4.37,0,0,0,1.23-1.12,1.54,1.54,0,0,0,.27-.83,1,1,0,0,0-.11-.5.35.35,0,0,0-.3-.18.51.51,0,0,0-.36.2,2.18,2.18,0,0,0-.4.81A11.07,11.07,0,0,0,194.25,34.65Z" transform="translate(0.42 0.58)"/><path class="cls-5" d="M201.32,36.23c-.64,1-1.14,1.47-1.52,1.47a.37.37,0,0,1-.3-.21,2.69,2.69,0,0,1-.21-1.09l-.2-3a15.92,15.92,0,0,1-1.21,3.55c-.32.51-.67.77-1,.77a.48.48,0,0,1-.4-.19.73.73,0,0,1-.15-.48.78.78,0,0,1,.13-.48.37.37,0,0,1,.31-.18.59.59,0,0,1,.28.11.76.76,0,0,0,.29.1.66.66,0,0,0,.49-.35,9.84,9.84,0,0,0,.73-2,16.25,16.25,0,0,0,.48-1.8c0-.15,0-.22-.14-.22s-.5.28-.91.86l-.21-.26c.71-.94,1.26-1.41,1.64-1.41a.27.27,0,0,1,.28.2,3.06,3.06,0,0,1,.11.82l.2,3.48c0,.65.15,1,.33,1s.24-.13.45-.4a5.92,5.92,0,0,1,.44-.54Z" transform="translate(0.42 0.58)"/><path class="cls-5" d="M204.69,31.62h.72l-.47,2.53c-.28,1.46-.42,2.3-.42,2.5a.41.41,0,0,0,0,.21.13.13,0,0,0,.11.07.31.31,0,0,0,.2-.11,8.32,8.32,0,0,0,.63-.83l.17.26c-.68,1-1.18,1.51-1.5,1.51a.32.32,0,0,1-.27-.17.92.92,0,0,1-.12-.51,6.51,6.51,0,0,1,.11-1,5.27,5.27,0,0,1-1.11,1.29,1.26,1.26,0,0,1-.76.37.3.3,0,0,1-.28-.17,1,1,0,0,1-.1-.52,4.55,4.55,0,0,1,.05-.61q.06-.46.33-1.83a17.06,17.06,0,0,0,.34-2.09c0-.14,0-.2-.1-.2a.43.43,0,0,0-.25.13,4.38,4.38,0,0,0-.54.65l-.22-.26a7.17,7.17,0,0,1,1-1.14,1.08,1.08,0,0,1,.58-.27.23.23,0,0,1,.19.13.78.78,0,0,1,.08.39,19.35,19.35,0,0,1-.36,2.46c-.22,1.17-.33,1.84-.33,2a.53.53,0,0,0,.07.26c.05.07.1.11.15.11s.46-.22.8-.67a3.34,3.34,0,0,0,.68-1.52Z" transform="translate(0.42 0.58)"/><path class="cls-5" d="M206,36.06a6.16,6.16,0,0,0,.19.81.2.2,0,0,0,.19.14c.15,0,.34-.25.55-.74a3.94,3.94,0,0,1,.55-1,1.78,1.78,0,0,1,.77-.46v-.1h-.13a1.16,1.16,0,0,1-1.28-1.22,1.59,1.59,0,0,1,.7-1.33,3,3,0,0,1,1.85-.53l.9,0-.47,2.52q-.42,2.19-.42,2.49c0,.19,0,.28.14.28s.4-.31.84-.93l.16.26c-.67,1-1.17,1.51-1.49,1.51a.33.33,0,0,1-.28-.19,1.24,1.24,0,0,1-.11-.58,5,5,0,0,1,.1-.93l.23-1.25a.84.84,0,0,0-.69.35,7.22,7.22,0,0,0-.68,1.4c-.32.8-.68,1.2-1.07,1.2a.54.54,0,0,1-.43-.23,3.75,3.75,0,0,1-.37-1.34Zm3.46-3.81a1.78,1.78,0,0,0-.67-.12,1.05,1.05,0,0,0-.77.36,1.3,1.3,0,0,0-.35.94c0,.67.31,1,.94,1a2.4,2.4,0,0,0,.46,0Z" transform="translate(0.42 0.58)"/><path class="cls-13" d="M201.87,22.73v2.1c0,.26,0,.44,0,.68s0,.79.1,1a.28.28,0,0,0,.26.13h.06c.21,0,.79-1,.87-1.07l2.19-3.37a1.51,1.51,0,0,0,.1-.17h4.64a1.75,1.75,0,0,0,.63-.08.34.34,0,0,0,.14-.32h0c0-.21-.26-.36-.46-.53-.48-.42-1.23-1.07-1.74-1.47l-1.48-1.25-.27-.22-1.08-.91c-.78-.63-1.64-1.39-2.43-2l-.26-.22c-.19-.15-.66-.62-.88-.62a.62.62,0,0,0-.36.18c-.07.09,0,.38,0,.52v3.33c0,.2,0,.33,0,.52Z" transform="translate(0.42 0.58)"/><path class="cls-13" d="M195.92,14.32a6.35,6.35,0,0,0,.41,2.72,6.24,6.24,0,0,0,.76,1.45,6.65,6.65,0,0,0,.72.87,6.33,6.33,0,0,0,1.43,1.08,2.39,2.39,0,0,0,1,.37.28.28,0,0,0,.18-.11.4.4,0,0,0,0-.52c-.19-.16-.69-.37-.94-.53a5.24,5.24,0,0,1-.85-.61,1.92,1.92,0,0,1-.15-.14,5.89,5.89,0,0,1-1-1.33,6.11,6.11,0,0,1-.75-2.82,5.5,5.5,0,0,1,.23-1.68c0-.1,0-.19.08-.27a5.62,5.62,0,0,1,1.33-2.17c.06-.06.11-.12.17-.17l.58-.48a4.72,4.72,0,0,1,.87-.51,5.18,5.18,0,0,1,1-.37,5.28,5.28,0,0,1,3.12.15,5.38,5.38,0,0,1,2.06,1.28,5.15,5.15,0,0,1,.62.72,6.17,6.17,0,0,1,.51.85,5.68,5.68,0,0,1,.59,2.12,6,6,0,0,1-.24,2.2c-.08.24-.25.73.12.84s.57-.46.67-.78a7.57,7.57,0,0,0,.19-2.67,7.28,7.28,0,0,0-.53-1.85l-.26-.52a7.44,7.44,0,0,0-.47-.72,5.73,5.73,0,0,0-.65-.73l-.3-.29a6.25,6.25,0,0,0-1.15-.8c-.09-.06-.17-.08-.27-.14a5.85,5.85,0,0,0-2.54-.59h-.65a3.56,3.56,0,0,0-.65.08,6.52,6.52,0,0,0-1.91.7,8.28,8.28,0,0,0-.79.52l-.1.09-.4.34a6.61,6.61,0,0,0-1.15,1.48l-.26.5a8.66,8.66,0,0,0-.4,1.12A5.74,5.74,0,0,0,195.92,14.32Z" transform="translate(0.42 0.58)"/><path class="cls-13" d="M198.15,14.58a4.13,4.13,0,0,0,1,2.87l.65.63a3,3,0,0,0,1.12.58.37.37,0,0,0,.37-.33c0-.26,0-.33-.34-.48l-.25-.13-.23-.13a3.28,3.28,0,0,1-.78-.7l-.16-.2a3.7,3.7,0,0,1-.6-1.65A3.23,3.23,0,0,1,199,14a3.72,3.72,0,0,1,.85-1.65,3.89,3.89,0,0,1,.43-.39,3.24,3.24,0,0,1,1.82-.67,3.17,3.17,0,0,1,1.63.33,3.36,3.36,0,0,1,.94.69,3.42,3.42,0,0,1,1,2.33,7.48,7.48,0,0,1-.22,1.51.37.37,0,0,0,.09.22.38.38,0,0,0,.64-.14,2.3,2.3,0,0,0,.14-.42,4.43,4.43,0,0,0-.46-3.28l-.32-.46a4.2,4.2,0,0,0-1.6-1.24l-.38-.14a4,4,0,0,0-2.37,0,4.86,4.86,0,0,0-.7.28,4.15,4.15,0,0,0-1.25,1l-.11.12a4.33,4.33,0,0,0-.69,1.29A3.84,3.84,0,0,0,198.15,14.58Z" transform="translate(0.42 0.58)"/></svg>