<svg id="_1" data-name="1" xmlns="http://www.w3.org/2000/svg" viewBox="0 0 216 48"><defs><style>.cls-1{fill:#fff;}.cls-2,.cls-4{fill:#cd1f39;}.cls-3{fill:#fefefe;}.cls-3,.cls-4,.cls-5,.cls-6,.cls-8{fill-rule:evenodd;}.cls-6,.cls-7,.cls-8{stroke:#000;stroke-miterlimit:22.93;}.cls-6{stroke-width:0.48px;}.cls-7,.cls-8{stroke-width:0.57px;}</style></defs><title>0000</title><rect class="cls-1" width="216" height="48"/><rect class="cls-2" x="1.92" y="1.73" width="44.2" height="44.35" rx="3.36" ry="3.36"/><path class="cls-3" d="M25.67,35.86c-2.43.24-4.87.11-7.39.43-1.05.13-2.45.6-3.25.15a11.15,11.15,0,0,1-1.94-1.76C3.31,23.53,11.77,8.12,24.89,8.48A15.49,15.49,0,0,1,40,24.27a16.27,16.27,0,0,1-4.49,10.86c-2.24,2.23-2.07,1.37-5.6,1.08-2.59-.21-.7.39-1.58-5.6,1.26-.29.53,0,1.32-.63l.59-.42-.55-3.23.79-.41c1.06-.67.18-.83.52-2.2.31-1.22.67-.5.33-3.35-.71-5.82-.57-4.52-3.28-5.34.08-.38,1.91-4.22-1.87-4.33-2.08,3.2-.53,3.18-.36,4.63-1.69.19-2.22,2.51-5.81,2.87-4.51.45-4.08,1.13-6.49,2.14l1.17,1.07c.46-.61,0-.54.37-.65.16,0,.43.26,1.17-.79l.34.87.15-.09c1.08-.55,1.37.61,2.93-.08,2.08-.9,1.25-.31,3.14-1.11.17,4.5-.74,3.48-.95,5.82-.12,1.22.06.07.14,1.16s-.64,3.56-.39,4c1,1,1.16.26,2.43.74a7.36,7.36,0,0,1,1.62,4.58ZM5.83,26.1A18.74,18.74,0,1,0,22.36,5.42,18.72,18.72,0,0,0,5.83,26.1Z"/><path class="cls-4" d="M25.67,35.86a7.36,7.36,0,0,0-1.62-4.58c-1.27-.48-1.41.27-2.43-.74-.25-.44.46-2.87.39-4s-.26.06-.14-1.16c.21-2.34,1.12-1.32.95-5.82-1.89.8-1.06.21-3.14,1.11-1.56.69-1.85-.47-2.93.08l-.15.09L16.26,20c-.74,1.05-1,.75-1.17.79-.41.11.09,0-.37.65l-1.17-1.07c2.41-1,2-1.69,6.49-2.14,3.59-.36,4.12-2.68,5.81-2.87-.17-1.45-1.72-1.43.36-4.63,3.78.11,1.95,4,1.87,4.33,2.71.82,2.57-.48,3.28,5.34.34,2.85,0,2.13-.33,3.35-.34,1.37.54,1.53-.52,2.2l-.79.41.55,3.23-.59.42c-.79.63-.06.34-1.32.63.88,6-1,5.39,1.58,5.6,3.53.29,3.36,1.15,5.6-1.08A16.27,16.27,0,0,0,40,24.27,15.49,15.49,0,0,0,24.89,8.48c-13.12-.36-21.58,15.05-11.8,26.2A11.15,11.15,0,0,0,15,36.44c.8.45,2.2,0,3.25-.15C20.8,36,23.24,36.1,25.67,35.86Z"/><path class="cls-5" d="M196.39,38.06v7.52l11.22,0,0-2.1s4.08,2.18,4.08,2.28v-7.8l-4.08,2.2v-2c-1.75,0-2.58,0-4.41,0-.36,0-.83-1.47-1.31-1.46s-.73,1.46-1.18,1.47C199.58,38.08,198.19,38.06,196.39,38.06Z"/><path class="cls-5" d="M103.92,42.48h2.81c.94.76,3.88,3.36,3.88,3.36l0-12.7-3.88,3.58s-1.16,0-2.76,0Z"/><path class="cls-5" d="M115.08,35.3c-.5-.88-1.57-2.17-2.76-2.12-.32,1.4-.19.78.67,1.46,2.68,2.13,2.66,7.76-.08,9.76-.91.68-1,.07-.55,1.46C115.38,45.71,117.39,39.34,115.08,35.3Z"/><path class="cls-5" d="M111.21,36.64c1.82.82,1.7,3.71.87,4.85s-1,.24-.65,1.51c.7.3,1.1-.11,1.66-1,1.16-1.79,1.16-5.22-1.48-6.51Z"/><path class="cls-5" d="M63.26,2.72H52.08V27.47h3.71V7.5h3.76v20h3.71V2.72Zm6.95,20V17.22H75.4v-4.6H70.21V7.5h5.72V2.72H66.5V27.47h9.69V22.7Zm18.25-20h-11V7.5h3.58v20h3.82V7.5h3.57V2.72Zm7.06,0H90.21V27.47h3.71V19.52h1.6c3.78,0,6-3.11,6-8.38s-2.25-8.42-6-8.42Zm-.06,12H93.92V7.5h1.54c1.49,0,2.28,1.23,2.28,3.64s-.79,3.61-2.28,3.61ZM109.31,27.9c3.7,0,5.93-3.15,5.93-8.45v-8.7c0-5.3-2.23-8.45-5.93-8.45s-5.93,3.15-5.93,8.45v8.7c0,5.3,2.22,8.45,5.93,8.45Zm0-4.88c-1.39,0-2.09-1.24-2.09-3.57v-8.7c0-2.33.7-3.57,2.09-3.57s2.09,1.24,2.09,3.57v8.7c0,2.33-.71,3.57-2.09,3.57Zm16.45-8.49c1.78-1,2.43-2.58,2.43-5,0-4.45-2.19-7.32-5.54-7.32-3.73,0-5.61,3.43-5.82,8.1h3.65c.06-1.77.53-3.29,2.2-3.29,1.15,0,1.75,1,1.75,2.62,0,1.94-.6,3-2.27,3h-1v4.35h1.26C124.09,16.94,125,18,125,20s-1.07,3.11-2.35,3.11c-1.73,0-2.38-1.8-2.41-3.18h-3.73c.13,4.17,2.27,8,6.14,8,3.42,0,6.13-2.9,6.13-7.64,0-2.72-.7-4.88-3-5.8Zm11.7,12.94-.6-4.1H133l-.61,4.1h-3.83l4.38-24.75h4l4.39,24.75Zm-3.73-8.87h2.4l-.42-2.83C135.48,14,135.16,11,135,9h-.1c-.19,2-.47,5-.74,6.79l-.41,2.83ZM152,14.82a8.52,8.52,0,0,0,1.54-5.06c0-4.21-2-7-4.83-7H143V27.47h5.77c3.14,0,5.38-3,5.38-7.39A6.64,6.64,0,0,0,152,14.82ZM148,7.46c1.2,0,1.72.85,1.72,2.51s-.54,2.65-1.59,2.65h-1.46V7.46Zm.08,15.28h-1.41V17.33h1.49c1.38,0,2.14.92,2.14,2.72s-.76,2.69-2.22,2.69ZM162,27.9c3.71,0,5.93-3.15,5.93-8.45v-8.7c0-5.3-2.22-8.45-5.93-8.45S156,5.45,156,10.75v8.7c0,5.3,2.22,8.45,5.93,8.45ZM162,23c-1.38,0-2.09-1.24-2.09-3.57v-8.7c0-2.33.71-3.57,2.09-3.57s2.09,1.24,2.09,3.57v8.7c0,2.33-.7,3.57-2.09,3.57Zm20.69-.25v-20h-9.94L172.43,13c-.1,3.4-.54,7.39-2.16,9.76h-1.18v8.91h3.66V27.47h7.91v4.21h3.68V22.77Zm-3.66,0h-4.42A24.56,24.56,0,0,0,176,14.5l.21-7H179V22.77Zm12.35,5.13c3.71,0,5.83-2.8,5.91-8h-3.71c-.11,2.19-.76,3.11-2.2,3.11-1.14,0-1.77-1-1.77-3.11V10.29c0-2.19.65-3.18,1.77-3.18,1.42,0,2,.92,2.15,3.18h3.71c-.14-5.23-2.17-8.06-5.83-8.06s-5.67,2.83-5.67,8.06v9.62c0,5.19,2.09,8,5.64,8Zm16-.43h4.18l-5.43-13.93,4.65-10.82h-4.23L204,9.44l-.94,2.76V2.72h-3.66V27.47h3.66V20.33l1-2.23Z"/><path class="cls-6" d="M52.23,33h4.65v2.15H53.62V45.73H52.23V33Zm5,6.46a14.36,14.36,0,0,1,.32-3.28,7.46,7.46,0,0,1,.64-1.76A3.54,3.54,0,0,1,59,33.24a2.39,2.39,0,0,1,1.49-.5,2.73,2.73,0,0,1,2.43,1.75,10.82,10.82,0,0,1,.91,4.88,10.69,10.69,0,0,1-.91,4.84,2.56,2.56,0,0,1-4.85,0,10.42,10.42,0,0,1-.91-4.79Zm1.43-.09a7.84,7.84,0,0,0,.54,3.29c.36.75.82,1.12,1.37,1.12s1-.37,1.37-1.11a8.13,8.13,0,0,0,.53-3.34A7.82,7.82,0,0,0,61.9,36Q61.38,35,60.52,35c-.57,0-1,.36-1.38,1.09a8,8,0,0,0-.53,3.3ZM64.93,33h2.74a4.57,4.57,0,0,1,1.22.12,1.51,1.51,0,0,1,.72.53,3.38,3.38,0,0,1,.53,1.06,4.92,4.92,0,0,1,.21,1.49,5,5,0,0,1-.26,1.64,2.44,2.44,0,0,1-.71,1.12,2.27,2.27,0,0,1,1,1.16A5.16,5.16,0,0,1,70.68,42a6.88,6.88,0,0,1-.21,1.7,3.86,3.86,0,0,1-.6,1.32,1.53,1.53,0,0,1-.93.6,11.41,11.41,0,0,1-1.67.09H64.93V33Zm1.39,2.12V38h.91a6,6,0,0,0,1-.05.81.81,0,0,0,.56-.45,2,2,0,0,0,.2-1,2.2,2.2,0,0,0-.17-1,.75.75,0,0,0-.52-.45,8.82,8.82,0,0,0-1.18,0Zm0,5.06v3.42H67.6a3.21,3.21,0,0,0,1-.08.92.92,0,0,0,.5-.51,2.52,2.52,0,0,0,.19-1.08,2.81,2.81,0,0,0-.15-1,1.17,1.17,0,0,0-.43-.59,2.68,2.68,0,0,0-1.23-.18Zm5-.72a14.42,14.42,0,0,1,.31-3.28,7.93,7.93,0,0,1,.64-1.76,3.56,3.56,0,0,1,.89-1.15,2.36,2.36,0,0,1,1.48-.5,2.73,2.73,0,0,1,2.43,1.75A10.69,10.69,0,0,1,78,39.37a10.7,10.7,0,0,1-.9,4.84,2.56,2.56,0,0,1-4.86,0,10.56,10.56,0,0,1-.9-4.79Zm1.43-.09a7.84,7.84,0,0,0,.54,3.29c.36.75.81,1.12,1.37,1.12s1-.37,1.36-1.11a8,8,0,0,0,.53-3.34A7.82,7.82,0,0,0,76,36,1.55,1.55,0,0,0,74.67,35c-.58,0-1,.36-1.39,1.09a8,8,0,0,0-.52,3.3Zm6.31,6.39V33H81.3a4.34,4.34,0,0,1,1.64.19,2.22,2.22,0,0,1,1,1.25,6.47,6.47,0,0,1,.4,2.48,7.37,7.37,0,0,1-.23,2,3.89,3.89,0,0,1-.58,1.26,1.92,1.92,0,0,1-.72.6,4.36,4.36,0,0,1-1.43.19h-.91v4.81Zm1.39-10.61v3.64h.76a2,2,0,0,0,1.09-.2,1.24,1.24,0,0,0,.43-.63,2.8,2.8,0,0,0,.16-1,2.59,2.59,0,0,0-.22-1.15,1,1,0,0,0-.56-.57,3.43,3.43,0,0,0-1-.09Zm5-2.15h1.29v8.49L89.56,33H91V45.73h-1.3V37.37l-2.78,8.36H85.49V33Zm8.42,12.76V35.12h-2V33h5.45v2.15h-2V45.73Z"/><path class="cls-5" d="M128.41,32.76h-5.77V45.7h1.92V35.25h1.94V45.7h1.91V32.76Zm4.47,13.16c1.91,0,3.06-1.64,3.06-4.42V37c0-2.77-1.15-4.42-3.06-4.42s-3.06,1.65-3.06,4.42V41.5c0,2.78,1.14,4.42,3.06,4.42Zm0-2.55c-.72,0-1.08-.65-1.08-1.87V37c0-1.22.36-1.86,1.08-1.86S134,35.73,134,37V41.5c0,1.22-.37,1.87-1.08,1.87Zm8.59,2.33h2.16l-2.81-7.28,2.4-5.66H141l-1.32,3.51-.49,1.44v-5h-1.89V45.7h1.89V42l.53-1.17,1.71,4.9Zm6.8,0h2L148,32.76h-2L143.67,45.7h2l.31-2.14h2l.31,2.14Zm-1.93-4.64.21-1.48c.14-.92.29-2.5.38-3.55H147c.09,1,.25,2.63.37,3.55l.22,1.48Zm8.82-2.13a2.63,2.63,0,0,0,1.25-2.62c0-2.33-1.13-3.83-2.85-3.83-1.93,0-2.9,1.79-3,4.23h1.89c0-.92.27-1.72,1.13-1.72.59,0,.9.54.9,1.37,0,1-.31,1.56-1.17,1.56h-.51v2.27h.64c.87,0,1.33.56,1.33,1.61s-.56,1.63-1.22,1.63c-.89,0-1.23-1-1.24-1.67h-1.93c.07,2.18,1.18,4.2,3.17,4.2,1.77,0,3.17-1.52,3.17-4,0-1.43-.36-2.56-1.55-3Zm2.48,6.77h2.54c2,0,2.93-1.24,2.93-4,0-2.36-.88-4.06-2.93-4.06h-.55V32.76h-2V45.7Zm6.35,0h1.92V32.76H164V45.7Zm-4.36-2.4V40.17H160c.75,0,1.09.48,1.09,1.57s-.34,1.56-1.09,1.56Zm12.59-4.22a4.47,4.47,0,0,0,.8-2.64c0-2.2-1-3.68-2.5-3.68h-2.94V45.7h3c1.62,0,2.78-1.55,2.78-3.86a3.52,3.52,0,0,0-1.12-2.76Zm-2-3.85c.62,0,.89.45.89,1.32s-.29,1.38-.83,1.38h-.75v-2.7Zm0,8h-.73V40.39h.77c.71,0,1.1.48,1.1,1.43s-.39,1.4-1.14,1.4ZM178,45.7h2l-2.27-12.94H175.7L173.44,45.7h2l.31-2.14h2L178,45.7Zm-1.93-4.64.21-1.48c.14-.92.29-2.5.38-3.55h.06c.09,1,.25,2.63.37,3.55l.22,1.48Zm6.7,2.14V40.34h2.69V37.93h-2.69V35.25h3V32.76H180.9V45.7h5V43.2Zm9.43-10.44h-5.67v2.49h1.85V45.7h2V35.25h1.85Z"/><ellipse class="cls-7" cx="199.29" cy="35.58" rx="2.73" ry="2.7"/><path class="cls-8" d="M204.45,38.4a2.76,2.76,0,1,0-2.79-2.76A2.78,2.78,0,0,0,204.45,38.4Z"/></svg>