<svg id="_1" data-name=" 1" xmlns="http://www.w3.org/2000/svg" viewBox="0 0 216 48"><defs><style>.cls-1{fill:#2a7eff;}.cls-2{fill:#008641;}.cls-3{fill:#0265a9;}.cls-4{fill:#d6261b;}.cls-5{fill:#f8c301;}.cls-6{stroke:#ffd61f;stroke-miterlimit:22.93;stroke-width:0.25px;}.cls-7{fill:#f5c306;}.cls-8{fill:#d42919;}.cls-9{fill:#fff;}.cls-10{fill:#fcfcfc;fill-rule:evenodd;}</style></defs><title>news03</title><rect class="cls-1" width="216" height="48"/><ellipse class="cls-2" cx="22.67" cy="33.92" rx="10.33" ry="9"/><rect class="cls-3" x="12.69" y="24.53" width="20.59" height="8.28"/><rect class="cls-4" x="12.69" y="15.86" width="20.09" height="8.62"/><path class="cls-5" d="M13.09,32.81V16.3H32.17V32.83a6.75,6.75,0,0,1-.58,2.94,7.23,7.23,0,0,1-.73,1.6c-.13.2-.33.49-.48.69s-.34.42-.53.64a7.43,7.43,0,0,1-1.49,1.42l-.35.24a8.47,8.47,0,0,1-1.5.84,10.06,10.06,0,0,1-3.86.83,9.88,9.88,0,0,1-3-.5,8.51,8.51,0,0,1-.83-.34,9.73,9.73,0,0,1-2.2-1.3,13.14,13.14,0,0,1-1.18-1.18,10.25,10.25,0,0,1-1-1.35,11.52,11.52,0,0,1-1.07-2.44,9.38,9.38,0,0,1-.27-2.11Zm2-19.23H13v-1l2.08,1Zm-7.9-2v2.71c.21,0,2.73-1.61,3-1.71v1c-1,.52-3.07,1.88-3.07,1.88v2.33L10.27,16v1.28c-.06,0-2.91,1.65-3,1.69v2.67c.19,0,2.82-1.49,3-1.55V21c-.17.06-2.84,1.46-2.87,1.48v.11h.13v2.09c0,.19,0,.07.06.13s.09,0,.09-.24v.19a.28.28,0,0,0,.18.14H7.79c-.12.05,0,0-.12.07s0,0,.07,0,1.57-.8,1.9-1a3.55,3.55,0,0,1,.64-.33v.87c-.29.17-1.87.93-2.28,1.15-.22.11-.54.29-.76.37v3c.25,0,2.71-1.38,3-1.48v.85l-3,1.53v2.6a15.59,15.59,0,0,0,1.52-.73l1.5-.77v.87l-3,1.45V36c.15,0,2-1,2.36-1.21l.39-.2c.36-.2.45-.24.5,0v.2A12.88,12.88,0,0,0,12.85,40l.1.15.14.15a9.65,9.65,0,0,0,.92,1l.86.8a2,2,0,0,1,.31.27c.07,0,0,0,.1.05A12,12,0,0,0,23.14,45,12,12,0,0,0,30,42.37a2.42,2.42,0,0,1,.36-.27L31.48,41a3.41,3.41,0,0,1,.37-.39,3.57,3.57,0,0,1,.38-.49c.12-.15.26-.35.38-.51a24.62,24.62,0,0,0,1.93-3.53s2.47-1.46,3.11-1.81a4.31,4.31,0,0,1,.47-.26V31.38C38,31.41,35.29,33,35,33V32c.21-.06,2.88-1.6,3.09-1.67V27.65c-.2,0-2.85,1.53-3.09,1.6V28.3c0-.06,2.3-1.25,2.7-1.46l.4-.21V24a14.47,14.47,0,0,0-1.54.76L35,25.57v-1c.18-.05,2.7-1.38,3.1-1.57V20.3c-.35.07-2.94,1.49-3.09,1.56v-.95c.22-.12.47-.23.69-.34l.68-.35c.27-.13,1.25-.64,1.42-.7l.3-.16V16.8a14.11,14.11,0,0,0-1.53.7l-.78.37q-.37.19-.78.36v-.87c.11,0,.26-.13.37-.17.64-.29,2.28-1.11,2.72-1.28V13.14a5.28,5.28,0,0,0-.76.36L35,14.67V13.6c.6-.33,3.09-1.42,3.09-1.42V9.69c-.22,0-2.75,1.34-3.09,1.44V7.8H32.12v3.25L28.67,9.69v2.43s2.86,1.11,3.45,1.45H16.44v-2.1a6.84,6.84,0,0,1-.85-.44c-.76-.41-1.78-1-2.52-1.35v-1A4.25,4.25,0,0,0,13,7.74H10.27v2l-2.66,1.6c-.13.06-.25.15-.38.21Z"/><path class="cls-5" d="M21.28,8c.16-.23.86-.84,1.09-1.11.09,0,0,0,.11.06l1,1a5.21,5.21,0,0,1-.56.59c-.19.18-.37.38-.56.55a5,5,0,0,1-.57-.56A3.64,3.64,0,0,1,21.28,8Zm1.85-4.55a2.22,2.22,0,0,1-.37.38,4,4,0,0,1-.38.34,6.12,6.12,0,0,1-.8-.69,6.74,6.74,0,0,1-.78-.73c-.18-.06-.47-.5-.56-.39s.05,3.41,0,3.48a2.89,2.89,0,0,1-.83,0H16.8c0,.17.15.14.18.28l1.23,1.36a4.31,4.31,0,0,1,.39.46l-1.7,2-.1.12c0,.11,0,0,.09.06h3.32v3.17c.16-.07,1.36-1.2,1.62-1.42a6,6,0,0,1,.54-.46c.18.08,1.83,1.79,2,1.86V10.15h3.75v-.1c-.09,0-2-2-2.07-2.1l1.4-1.36V6.53h0l.27-.27c.1-.09.3-.24.34-.37H24.45c-.09-.34.05-2.91,0-3.58-.22.18-.44.38-.64.58a5.82,5.82,0,0,1-.68.52Z"/><path class="cls-6" d="M17.19,25.21a1.29,1.29,0,0,0,.31.59c.1-.13.06-.45.28-.63.08.14-.18.41.16,1.06l.07.13a.24.24,0,0,1,.08.09c.19-.09.36-.41.53-.52l.35.54a7.15,7.15,0,0,1-.73.49c-.09-.1-.08-.24-.17-.35H16.72l.06-.56-1.37.52c.09.1.22.17.31.26-.12.12-.34.13-.46.24.06.07.29.2.41.3-.13.1-.34.1-.48.19.07.13.24.19.35.38l-.5.26a4.51,4.51,0,0,0,.55.52c.12.12.07.27.09.46v.52c.1,0,.15-.1.23-.19s.6-.68.77-.49-.12.61.68,1a2.82,2.82,0,0,1,.38.21h.08a1,1,0,0,1-.11-.51c.23.16.1.3.88.61l.4.16c0-.21-.25-.46-.27-.68a1.67,1.67,0,0,0,1,.59c-.1-.62-.43-1.22.24-1.17l.45,1.15c-.07.09-.21.2-.33.32a14.7,14.7,0,0,0-1.37,1.87c-.18.3-.27.57-.43.89a6.13,6.13,0,0,0-.34,1.34,3.32,3.32,0,0,0,.15,1.47,1.77,1.77,0,0,1,.33-.52,2,2,0,0,0-.07.43c0,.13.08.27.08.4l-.78.07.14.47-.6.1c0,.19.28.41.33.6l-.28.23-.29.26a.63.63,0,0,0,.27.06h.32c0,.14-.19.31-.24.47h.6l-.06.42c1.38,0,1.05,0,1.65-.46l.18-.16c.12-.07,1.61.46,1.93.5l-.11-1.47c.32.17.22.42.37.63a1.68,1.68,0,0,0,.43-.65,1.16,1.16,0,0,0,.12-1c.13.11.21.3.34.41A2.5,2.5,0,0,0,23,35.49a2.12,2.12,0,0,1,.32-.36,12.85,12.85,0,0,0,1,1.52,3.47,3.47,0,0,0,.46.4,2.1,2.1,0,0,1,.05-.75h0c.11.2,0,.24.25.46a4.14,4.14,0,0,1,.41.39,5.73,5.73,0,0,0-.73.57l.53.1a5.81,5.81,0,0,1-.4.57h.6c-.06.16-.31.48-.31.62l.62.08-.21.44h.72l.05.55a8.8,8.8,0,0,0,1.21-.55c-.06-.1-.13-.14-.18-.24a5.87,5.87,0,0,1,.43-.67c.18-.26.27-.26.6-.48l.65-.44a5.91,5.91,0,0,0,.66-.45c-.15-.18-.9-1-.95-1.1a3.59,3.59,0,0,1,.72.11,2.48,2.48,0,0,0-.41-.94,1.87,1.87,0,0,0-.51-.46l-.1-.07-.06,0h0c.2-.13.35-.07.61-.07a1.81,1.81,0,0,0-.14-.69c-.11-.27-.26-.33-.35-.48a1.55,1.55,0,0,1-.39-.28,1,1,0,0,0,.6-.62c-.08-.07-.69-.24-.85-.32a1.5,1.5,0,0,1-.59-.58c.26-.27.42-.24.79-.71a3,3,0,0,0,.54-1,3.52,3.52,0,0,1-.62.22,1.52,1.52,0,0,1-.76-.11,1,1,0,0,1-.46-.38l-.27-.39a.21.21,0,0,1-.07-.13c-.07-.05-.07-.07-.12-.14-.43-.66-.34-.34,0-1.14a.54.54,0,0,1,.31.38,5,5,0,0,1,.16.55,2.08,2.08,0,0,0,.41-1.18c0-.18-.07-.31-.07-.48.27.09.25.42.42.56a2.15,2.15,0,0,0,.21-1.47c.31.09.36.56.47.76.23-.09.36-.49.38-.78a3.72,3.72,0,0,0-.14-1l-.24-.59a6.21,6.21,0,0,1,.74.2,6.59,6.59,0,0,0-.1-1.09,9.41,9.41,0,0,0-.25-.91c.32,0,.54.28.71.31a1.71,1.71,0,0,0-.06-.84c-.22-.44-.15-.26-.41-.48,0-.17.4-.49.45-.65-.24-.09-1.15-.11-1-.46.15-.07.36,0,.53,0a2,2,0,0,0-.66-1.31c-.72-.57-.6-.16-.8-1.19a4.2,4.2,0,0,0-1,.11,1.36,1.36,0,0,0-.63.4c-.16.1-.54-.18-.84-.1l-.81.21c-.46.12-.47.06-.74.32-.46.45-.41.58-.83.72l-1.13.42.48,1c-.42.09-.26.08-.65-.09-.24-.11-1.67-.78-1.79-.8.24.37.8,1.14,1.1,1.57a6,6,0,0,1,.36.52l1.3-.52c.09.15.14.37.23.5a3.93,3.93,0,0,0,.84,0s-1.25.61-1.46.71-.31.21-.5.12c-.65-.3-1.36-.61-2-.93.1-.52.23-.51,0-.74a3.8,3.8,0,0,1-.42-.57l.3-.18-1-1a1.77,1.77,0,0,0-.09.56l-.47-.29v.55A3.57,3.57,0,0,1,17,20.5v.59c-.11,0-.39-.22-.55-.25a6.91,6.91,0,0,1,0,.91c0,.15-.3.4-.35.58h.76l.15.43c-.17.26-.34.32-.34.76a5.55,5.55,0,0,0,.09,1c.2-.21.15-.3.42-.46a1.53,1.53,0,0,0-.06,1.15Z"/><path class="cls-7" d="M7.23,22.55v2.78a1.22,1.22,0,0,0,.37-.16l.12-.09H7.65c-.07,0,0,0,.12-.07h.07a.28.28,0,0,1-.18-.14c-.06-.15,0-1.92,0-2.19v2c0,.25,0,.21-.09.24s0,.06-.06-.13V22.6H7.38v-.11Z"/><path class="cls-8" d="M23.66,19.68a2.28,2.28,0,0,0,.15.36h.44a1.56,1.56,0,0,0,.37.1l-.11-.27a1.19,1.19,0,0,1-.53,0C23.86,19.77,23.87,19.58,23.66,19.68Z"/><circle class="cls-4" cx="24.16" cy="20.37" r="0.2"/><polygon class="cls-4" points="21.05 22.08 21.58 21.81 20.55 21.37 21.05 22.08"/><path class="cls-9" d="M58.34,9.84a9.11,9.11,0,0,1-1.16,1.48,7.67,7.67,0,0,1-1.52,1.22,5.92,5.92,0,0,1-.14.94q-.1.46-.27,1a8.19,8.19,0,0,1-.79,1.72,11.12,11.12,0,0,1-1.19,1.65,11.89,11.89,0,0,1-1.51,1.41,8.21,8.21,0,0,1-1.74,1,6,6,0,0,1-1.87.49,4.67,4.67,0,0,1-1.92-.22,2.85,2.85,0,0,1-1.33-.9,4.34,4.34,0,0,1-.83-1.58,6.3,6.3,0,0,1-.22-2,7,7,0,0,1,.53-2.3,3.44,3.44,0,0,1-1-1A2.8,2.8,0,0,1,43,11.46a4.47,4.47,0,0,1,.36-2.33,4.94,4.94,0,0,1,1.39-1.76,6.71,6.71,0,0,1,2.07-1.14,8.12,8.12,0,0,1,2.43-.47A7.67,7.67,0,0,1,51.67,6,5.8,5.8,0,0,1,53.8,7.12a5.2,5.2,0,0,1,1.47,1.93,6.2,6.2,0,0,1,.46,2.86,11.2,11.2,0,0,0,1.37-1,4.08,4.08,0,0,0,1-1.22.38.38,0,0,1,.14-.14.19.19,0,0,1,.14,0,.14.14,0,0,1,.08.11A.3.3,0,0,1,58.34,9.84Zm-3.7,2.65a7.56,7.56,0,0,0-.26-3,4.94,4.94,0,0,0-1.18-2,4.49,4.49,0,0,0-1.81-1.09,6.09,6.09,0,0,0-2.12-.26,6.55,6.55,0,0,0-2.11.49,5.75,5.75,0,0,0-1.8,1.14A4.68,4.68,0,0,0,44.2,9.43a4.11,4.11,0,0,0-.22,2.2A2,2,0,0,0,44.7,13a13.19,13.19,0,0,1,.67-1.18,11.28,11.28,0,0,1,1-1.33A12.49,12.49,0,0,1,47.5,9.24a5.89,5.89,0,0,1,1.32-.93,3.65,3.65,0,0,1,1.39-.42,2.31,2.31,0,0,1,1.38.32c.14.07.17.14.12.2s-.14.08-.26.05a1.78,1.78,0,0,0-1.16,0,4.16,4.16,0,0,0-1.19.63,7.61,7.61,0,0,0-1.13,1,12.65,12.65,0,0,0-1,1.23,13,13,0,0,0-.81,1.23,8.52,8.52,0,0,0-.53,1,5.24,5.24,0,0,0,1.89.49A10,10,0,0,0,49.82,14a15.33,15.33,0,0,0,2.47-.56A13.25,13.25,0,0,0,54.64,12.49Zm-.11.63a13.64,13.64,0,0,1-2.36,1,13.06,13.06,0,0,1-2.46.53,11.64,11.64,0,0,1-2.35.06,6.74,6.74,0,0,1-2-.45A8.78,8.78,0,0,0,44.88,16a5.92,5.92,0,0,0-.05,1.67,3.91,3.91,0,0,0,.45,1.4,2.35,2.35,0,0,0,1,.95,3.45,3.45,0,0,0,1.6.38A4.46,4.46,0,0,0,49.46,20a6.59,6.59,0,0,0,1.5-.92,9.9,9.9,0,0,0,1.34-1.33,12.44,12.44,0,0,0,1.1-1.62,9.69,9.69,0,0,0,.8-1.74c.08-.21.14-.42.2-.64A5.59,5.59,0,0,0,54.53,13.12Z"/><path class="cls-9" d="M59.23,13.84,58.74,15c-.14.31-.29.63-.46,1a8.34,8.34,0,0,1-.44.82l-.55.89a8.45,8.45,0,0,1-.81,1.08,5.18,5.18,0,0,1-.92.85,1.09,1.09,0,0,1-.94.2,1.08,1.08,0,0,1-.81-.74,2.82,2.82,0,0,1,0-1.3,5.78,5.78,0,0,1,.55-1.51,8.41,8.41,0,0,1,.89-1.38,4.39,4.39,0,0,1,.85-.77,3.37,3.37,0,0,1,1-.48,3,3,0,0,1,1-.12,2.27,2.27,0,0,1,1,.33Zm-2.48,5.08c.64-1.48,1.26-2.85,1.85-4.13s1.13-2.37,1.64-3.31a4.09,4.09,0,0,1,.63-.92,1.27,1.27,0,0,1,1.28-.27.82.82,0,0,0,.41,0,13.94,13.94,0,0,0-2,2.61,37.3,37.3,0,0,0-2.45,4.86c0,.09-.09.2-.15.35l-.21.47-.2.46c-.06.14-.1.26-.14.34l-1.71,4.27a2.29,2.29,0,0,1-.51.77,1,1,0,0,1-.7.16,1.72,1.72,0,0,1-.37-.07,1,1,0,0,0-.38,0,3.84,3.84,0,0,0,.46-.67c.22-.38.47-.84.76-1.38s.59-1.12.9-1.74S56.48,19.49,56.75,18.92Zm-1.64-2a3.77,3.77,0,0,0-.5,1.43,1,1,0,0,0,.19.81c.16.14.39.14.69,0a3.14,3.14,0,0,0,1-1,18.64,18.64,0,0,0,1.15-1.8q.63-1.1,1.26-2.28a.77.77,0,0,0-.83-.17,3.32,3.32,0,0,0-1,.63A7.11,7.11,0,0,0,56,15.63,9.18,9.18,0,0,0,55.11,17ZM57.3,19.2,58,17.8c.08-.18.17-.35.25-.51l.22-.44q.09-.21.21-.45c.13-.22.32-.52.56-.89a9.42,9.42,0,0,1,.8-1.08,4.53,4.53,0,0,1,.92-.85,1.12,1.12,0,0,1,.94-.21,1,1,0,0,1,.81.75,2.7,2.7,0,0,1,0,1.3,6,6,0,0,1-.56,1.51,7.36,7.36,0,0,1-.89,1.37,4.42,4.42,0,0,1-.84.78,4,4,0,0,1-1,.48,2.77,2.77,0,0,1-1,.11,2.26,2.26,0,0,1-1-.32Zm4.09-3a3.69,3.69,0,0,0,.49-1.42A1,1,0,0,0,61.7,14c-.16-.15-.39-.14-.7,0a3.18,3.18,0,0,0-1,1,18.64,18.64,0,0,0-1.15,1.8c-.42.73-.84,1.5-1.26,2.29a.77.77,0,0,0,.82.17,3.16,3.16,0,0,0,1.06-.61,7.8,7.8,0,0,0,1.07-1.13A9.25,9.25,0,0,0,61.39,16.18Z"/><path class="cls-9" d="M68.84,16.4l-.51,1a7.57,7.57,0,0,1-.64,1.07,3.79,3.79,0,0,1-.8.84,1.46,1.46,0,0,1-.91.33,1,1,0,0,1-.54-.15.91.91,0,0,1-.36-.45,2.2,2.2,0,0,1-.11-.73,3.09,3.09,0,0,1,.18-1c-.16.27-.33.55-.52.82a6.18,6.18,0,0,1-.59.74,3.26,3.26,0,0,1-.66.54,1.32,1.32,0,0,1-.66.2l-.32,0a1.1,1.1,0,0,1-.33-.12,1.18,1.18,0,0,1-.3-.25,1,1,0,0,1-.19-.42,1.76,1.76,0,0,1,0-.56,2.05,2.05,0,0,1,.13-.53,4.52,4.52,0,0,1,.23-.5l.27-.5a.31.31,0,0,1-.18-.05c-.05,0-.05-.11,0-.23a3.07,3.07,0,0,0,.17-.31,1.91,1.91,0,0,1,.16-.32l.54-1,.47-.93a.58.58,0,0,1,.27-.3,1.1,1.1,0,0,1,.43-.08h1.1a2.43,2.43,0,0,0-.29.22,2.38,2.38,0,0,0-.26.28,2.77,2.77,0,0,0-.28.4A5.29,5.29,0,0,0,64,15q-.24.47-.45.9c-.13.25-.25.51-.37.77s-.23.48-.31.65a3.44,3.44,0,0,0-.36,1.17.93.93,0,0,0,.13.66c.12.13.29.14.52.05a2.15,2.15,0,0,0,.77-.64,8.19,8.19,0,0,0,.75-1c.24-.4.48-.81.71-1.23s.45-.85.66-1.27.4-.81.56-1.17a.63.63,0,0,1,.28-.3,1.1,1.1,0,0,1,.43-.08h1c-.13.11-.25.21-.34.3a2.21,2.21,0,0,0-.28.32,3.24,3.24,0,0,0-.28.47c-.1.19-.21.42-.34.7s-.27.51-.39.78-.25.54-.36.8-.21.5-.3.72a2.79,2.79,0,0,0-.16.57,1.28,1.28,0,0,0,0,.82.44.44,0,0,0,.33.26,1,1,0,0,0,.66-.29,3.93,3.93,0,0,0,.64-.73,8,8,0,0,0,.58-1c.19-.35.36-.69.52-1,.07-.15.15-.21.24-.17S68.92,16.22,68.84,16.4Z"/><path class="cls-9" d="M74.56,16.38c-.14.31-.31.66-.5,1a8.7,8.7,0,0,1-.65,1.07,4.32,4.32,0,0,1-.79.85,1.46,1.46,0,0,1-.92.34,1,1,0,0,1-.54-.15.84.84,0,0,1-.35-.45,2,2,0,0,1-.12-.73,3.09,3.09,0,0,1,.18-1c-.16.27-.33.55-.51.82a7.43,7.43,0,0,1-.6.74,3.51,3.51,0,0,1-.65.54,1.36,1.36,0,0,1-.67.2l-.32,0a1.1,1.1,0,0,1-.33-.12,1.18,1.18,0,0,1-.3-.25.9.9,0,0,1-.18-.42,1.52,1.52,0,0,1,0-.56,2.56,2.56,0,0,1,.13-.53,4.59,4.59,0,0,1,.24-.5c.09-.16.17-.33.26-.5a.26.26,0,0,1-.17-.05c-.06,0,0-.11,0-.23a3,3,0,0,0,.16-.31,3.18,3.18,0,0,1,.16-.32l.54-1c.18-.35.34-.66.47-.93a.55.55,0,0,1,.28-.3,1,1,0,0,1,.42-.08h1.1a2.43,2.43,0,0,0-.29.22,3.71,3.71,0,0,0-.26.28,3.86,3.86,0,0,0-.28.4,5.45,5.45,0,0,0-.32.61q-.26.47-.45.9c-.14.25-.26.51-.38.77s-.22.48-.31.65a4,4,0,0,0-.36,1.17.88.88,0,0,0,.14.66c.11.13.28.14.51.05a2.07,2.07,0,0,0,.77-.64,7.29,7.29,0,0,0,.75-1c.25-.4.48-.81.71-1.23s.45-.85.66-1.27.4-.81.57-1.17a.58.58,0,0,1,.27-.3,1.1,1.1,0,0,1,.43-.08h1c-.13.11-.25.21-.34.3a1.78,1.78,0,0,0-.28.32,4.49,4.49,0,0,0-.28.47c-.1.18-.21.41-.34.69s-.26.51-.39.78-.25.54-.36.8-.21.49-.3.72a3.88,3.88,0,0,0-.16.56,1.28,1.28,0,0,0,0,.82.44.44,0,0,0,.33.26,1,1,0,0,0,.66-.29,3.81,3.81,0,0,0,.64-.72,9.05,9.05,0,0,0,.58-1c.19-.35.36-.69.52-1,.07-.16.15-.22.24-.17S74.64,16.2,74.56,16.38Zm-2,3a8.89,8.89,0,0,0-.73.67,9.78,9.78,0,0,0-.69.77,4.46,4.46,0,0,0-.51.8,2,2,0,0,0-.22.7.77.77,0,0,0,.11.42c.07.12.21.17.42.17a.82.82,0,0,0,.49-.18,3.92,3.92,0,0,0,.42-.36.22.22,0,0,1,.13,0c.06,0,.08,0,0,.11a.77.77,0,0,1-.17.32,1.5,1.5,0,0,1-.37.32,2,2,0,0,1-.53.26,1.69,1.69,0,0,1-.64.11.85.85,0,0,1-.58-.2.7.7,0,0,1-.23-.61,2.18,2.18,0,0,1,.35-.95,7,7,0,0,1,.81-1.05,10.06,10.06,0,0,1,1-.9,4.33,4.33,0,0,1,.82-.54h.1S72.55,19.26,72.53,19.38Z"/><path class="cls-9" d="M80.28,16.4c-.14.31-.31.65-.5,1a8.7,8.7,0,0,1-.65,1.07,3.75,3.75,0,0,1-.79.84,1.51,1.51,0,0,1-.92.33,1,1,0,0,1-.54-.15.89.89,0,0,1-.35-.45,2,2,0,0,1-.12-.73,3.09,3.09,0,0,1,.18-1c-.15.27-.33.55-.51.82a7.43,7.43,0,0,1-.6.74,3.21,3.21,0,0,1-.65.54,1.36,1.36,0,0,1-.67.2l-.31,0a1.06,1.06,0,0,1-.34-.12,1.33,1.33,0,0,1-.29-.25.9.9,0,0,1-.19-.42,1.52,1.52,0,0,1,0-.56,2.56,2.56,0,0,1,.13-.53,4.59,4.59,0,0,1,.24-.5c.09-.16.18-.33.26-.5a.26.26,0,0,1-.17-.05c-.06,0,0-.11,0-.23a3,3,0,0,0,.16-.31,3.18,3.18,0,0,1,.16-.32l.54-1c.18-.35.34-.66.47-.93a.55.55,0,0,1,.28-.3,1,1,0,0,1,.42-.08h1.1a2.43,2.43,0,0,0-.29.22,3.71,3.71,0,0,0-.26.28,3.86,3.86,0,0,0-.28.4c-.09.15-.2.36-.32.61s-.32.61-.45.9-.26.51-.38.77-.22.48-.31.65A4,4,0,0,0,74,18.5a.88.88,0,0,0,.14.66c.11.13.28.14.51.05a2.17,2.17,0,0,0,.78-.64,7.28,7.28,0,0,0,.74-1c.25-.4.49-.81.71-1.23s.45-.85.66-1.27.4-.81.57-1.17a.55.55,0,0,1,.28-.3,1,1,0,0,1,.42-.08h1l-.34.3a2.21,2.21,0,0,0-.28.32,4.49,4.49,0,0,0-.28.47c-.09.19-.21.42-.34.7s-.26.51-.39.78l-.36.8c-.11.26-.21.5-.29.72a2.9,2.9,0,0,0-.17.57,1.28,1.28,0,0,0,0,.82.43.43,0,0,0,.34.26,1,1,0,0,0,.65-.29,3.59,3.59,0,0,0,.64-.73,8,8,0,0,0,.59-1q.27-.53.51-1c.07-.15.15-.21.24-.17S80.36,16.22,80.28,16.4Z"/><path class="cls-9" d="M84.8,14.81a3.45,3.45,0,0,0-.39.53c-.16.26-.33.56-.5.89a9.33,9.33,0,0,0-.48,1,6,6,0,0,0-.31.94q-.21,1.08.18,1.08a.76.76,0,0,0,.42-.16,2.56,2.56,0,0,0,.41-.4c.13-.16.26-.32.38-.49s.22-.33.29-.46.19-.22.28-.17.08.14,0,.31a6.75,6.75,0,0,1-.94,1.27,1.62,1.62,0,0,1-1,.57,1.19,1.19,0,0,1-.47-.08.89.89,0,0,1-.41-.36,1.58,1.58,0,0,1-.19-.72,3.69,3.69,0,0,1,.17-1.17c-.14.24-.33.52-.56.84a6.19,6.19,0,0,1-.74.86,2.08,2.08,0,0,1-1,.59.92.92,0,0,1-.75-.13,1.29,1.29,0,0,1-.44-.72,2.83,2.83,0,0,1,0-1.14,5.09,5.09,0,0,1,.44-1.44,6.9,6.9,0,0,1,1-1.59,3.71,3.71,0,0,1,1-.83,4.11,4.11,0,0,1,1.15-.49,2.7,2.7,0,0,1,1.13,0,1.61,1.61,0,0,1,.93.52.34.34,0,0,1,.12.38.26.26,0,0,1-.32.14.79.79,0,0,0-.58-.61,1.33,1.33,0,0,0-1,.16A5.07,5.07,0,0,0,81.43,15a9.22,9.22,0,0,0-1.13,1.52l-.16.28c-.08.14-.15.29-.23.46s-.15.36-.22.54a3.13,3.13,0,0,0-.13.53,1,1,0,0,0,.06.69.43.43,0,0,0,.38.21,1.09,1.09,0,0,0,.57-.2,3.43,3.43,0,0,0,.65-.59,11.42,11.42,0,0,0,.85-1.21c.26-.43.51-.86.75-1.31a5.07,5.07,0,0,1,.55-.88.73.73,0,0,1,.67-.27l.37.06A.86.86,0,0,0,84.8,14.81ZM87,18.88a3.2,3.2,0,0,0,.65-.75,8.64,8.64,0,0,0,.56-.94c.18-.34.34-.68.49-1l.42-1c.13-.3.26-.57.38-.81a2,2,0,0,1,.38-.53,1,1,0,0,1,.29-.22,1,1,0,0,1,.34-.09,3,3,0,0,1,.46,0h.65s.06,0,0,0a.55.55,0,0,1-.16.1,1.28,1.28,0,0,1-.26.1,1,1,0,0,1-.26,0,.92.92,0,0,0-.74.2,3.84,3.84,0,0,0-.45.64A12.6,12.6,0,0,0,89.11,16c-.22.56-.48,1.12-.76,1.67a7.09,7.09,0,0,1-.95,1.41,1.64,1.64,0,0,1-1.23.59,2.16,2.16,0,0,1-.81-.15,1.26,1.26,0,0,1-.6-.59,1.2,1.2,0,0,1-.19-.95.74.74,0,0,1,.39-.46.38.38,0,0,1,.43.09c.12.13.1.36,0,.69a.47.47,0,0,0,0,.31.83.83,0,0,0,.14.3.64.64,0,0,0,.25.21.6.6,0,0,0,.31.08,2,2,0,0,0,.53-.08A1,1,0,0,0,87,18.88Zm3.87-5a.55.55,0,0,1,.28-.3,1,1,0,0,1,.42-.08h1l-.34.3a1.78,1.78,0,0,0-.28.32,4.49,4.49,0,0,0-.28.47c-.09.18-.21.41-.34.69s-.26.51-.39.78l-.36.8c-.11.25-.21.49-.29.72a3.05,3.05,0,0,0-.17.56,1.28,1.28,0,0,0,0,.82.43.43,0,0,0,.34.26,1,1,0,0,0,.65-.29,3.81,3.81,0,0,0,.64-.72,9.07,9.07,0,0,0,.59-1l.51-1c.07-.16.15-.22.24-.17s.1.15,0,.33-.31.66-.5,1a7.62,7.62,0,0,1-.65,1.07,4,4,0,0,1-.79.85,1.46,1.46,0,0,1-.92.34,1,1,0,0,1-.54-.15.89.89,0,0,1-.35-.45,2,2,0,0,1-.12-.73,3.09,3.09,0,0,1,.18-1c.09-.27.19-.55.31-.85s.25-.6.38-.91l.42-.91C90.6,14.4,90.72,14.13,90.83,13.88Z"/><path class="cls-9" d="M91.33,19.08a1.26,1.26,0,0,1-.11-.6,2,2,0,0,1,.2-.79c.15-.3.27-.56.38-.8s.22-.46.33-.67.22-.44.34-.67l.41-.77a3.6,3.6,0,0,1,.6-.9.85.85,0,0,1,.68-.24,2.66,2.66,0,0,1,.37.07.86.86,0,0,0,.39,0,1.71,1.71,0,0,0-.47.47c-.18.24-.37.52-.57.85s-.4.67-.59,1l-.55,1a6.1,6.1,0,0,0-.35.82,3.13,3.13,0,0,0-.17.69,1.08,1.08,0,0,0,.07.5.46.46,0,0,0,.3.24.74.74,0,0,0,.4-.07,1.4,1.4,0,0,0,.52-.42,4.85,4.85,0,0,0,.51-.74,3.19,3.19,0,0,0,.28-.72,2.07,2.07,0,0,0,.08-.88c0-.2-.25-.29-.58-.27,0,0,0,0,0,0a.38.38,0,0,1,.09-.09.35.35,0,0,1,.15-.07.34.34,0,0,1,.2,0,1,1,0,0,1,.51.56,1.38,1.38,0,0,1,.07.92,3.21,3.21,0,0,1-.61,1.26,2.89,2.89,0,0,1-1.08.86,1.37,1.37,0,0,1-1.05.06A1.23,1.23,0,0,1,91.33,19.08ZM94.88,18a2.46,2.46,0,0,1-.68-.31,2.08,2.08,0,0,1-.51-.46.83.83,0,0,1-.21-.39.85.85,0,0,1,0-.39.58.58,0,0,1,.2-.28.55.55,0,0,1,.36-.11.52.52,0,0,1,.37.16.51.51,0,0,1,.17.36.41.41,0,0,1,0,.16.54.54,0,0,0,0,.16.88.88,0,0,0,.15.38,1,1,0,0,0,.27.33.88.88,0,0,0,.36.15,1.11,1.11,0,0,0,.59,0,1.71,1.71,0,0,0,.67-.43,3.39,3.39,0,0,0,.63-1c.06-.17.13-.23.23-.18s.1.16,0,.34a4.64,4.64,0,0,1-.62,1,1.88,1.88,0,0,1-.65.52,1.56,1.56,0,0,1-.66.13A2.05,2.05,0,0,1,94.88,18Z"/><path class="cls-9" d="M97.1,17.1a4,4,0,0,0-.18.38,3.15,3.15,0,0,0-.17.36c-.06.14-.14.33-.25.57s-.26.58-.45,1a.39.39,0,0,1-.25.23,1.6,1.6,0,0,1-.43,0l-.34,0a.54.54,0,0,0-.28.09c.44-.87.85-1.72,1.24-2.56s.8-1.67,1.25-2.48a3.94,3.94,0,0,1,.59-.9.89.89,0,0,1,.69-.24,2.66,2.66,0,0,1,.37.07.81.81,0,0,0,.38,0,1.86,1.86,0,0,0-.47.47,8.29,8.29,0,0,0-.58.85c-.2.32-.4.67-.59,1S97.25,16.77,97.1,17.1Zm2.88-1a1.71,1.71,0,0,1-.38.58.75.75,0,0,1-.63.25,1.68,1.68,0,0,1-.64-.19,1.39,1.39,0,0,0-.62-.19.48.48,0,0,0-.33.08.68.68,0,0,0-.21.24s-.06,0-.15,0-.11,0-.09-.06a2.41,2.41,0,0,1,.41-.54.73.73,0,0,1,.62-.23,1.56,1.56,0,0,1,.64.17,1.74,1.74,0,0,0,.6.19.41.41,0,0,0,.34-.07.84.84,0,0,0,.22-.27s.07,0,.14,0S100,16.08,100,16.11Zm.3,1c-.08.17-.17.37-.26.62a4.28,4.28,0,0,0-.19.72,1.18,1.18,0,0,0,0,.6.37.37,0,0,0,.4.25,1,1,0,0,0,.71-.37,5.86,5.86,0,0,0,.7-.89,11.41,11.41,0,0,0,.58-1c.18-.34.31-.61.41-.8s.15-.22.24-.17.09.15,0,.33-.3.6-.5,1a9.09,9.09,0,0,1-.67,1.11,4.8,4.8,0,0,1-.83.9,1.44,1.44,0,0,1-1,.38.88.88,0,0,1-.42-.11,1.35,1.35,0,0,1-.39-.37,2.1,2.1,0,0,1-.23-.71,1.46,1.46,0,0,1,.07-.88l.38-.8c.1-.23.21-.46.32-.67l.34-.67.41-.77a3.6,3.6,0,0,1,.6-.9.88.88,0,0,1,.68-.24,2.41,2.41,0,0,1,.37.07.86.86,0,0,0,.39,0,2,2,0,0,0-.48.47,8.33,8.33,0,0,0-.57.85c-.2.32-.4.67-.6,1S100.44,16.77,100.28,17.1Z"/><path class="cls-9" d="M101.16,19.08a1.26,1.26,0,0,1-.11-.6,2,2,0,0,1,.2-.79c.15-.3.27-.56.38-.8s.22-.46.33-.67.22-.44.34-.67l.41-.77a3.6,3.6,0,0,1,.6-.9.85.85,0,0,1,.68-.24,2.66,2.66,0,0,1,.37.07.86.86,0,0,0,.39,0,1.71,1.71,0,0,0-.47.47c-.18.24-.37.52-.57.85s-.39.67-.59,1l-.55,1a6.1,6.1,0,0,0-.35.82,2.59,2.59,0,0,0-.16.69,1,1,0,0,0,.06.5.46.46,0,0,0,.3.24.74.74,0,0,0,.4-.07,1.4,1.4,0,0,0,.52-.42,4.85,4.85,0,0,0,.51-.74,2.78,2.78,0,0,0,.28-.72,2.07,2.07,0,0,0,.08-.88c0-.2-.24-.29-.58-.27,0,0,0,0,0,0a.38.38,0,0,1,.09-.09.35.35,0,0,1,.15-.07.34.34,0,0,1,.2,0,1,1,0,0,1,.52.56,1.44,1.44,0,0,1,.06.92,3.21,3.21,0,0,1-.61,1.26,2.89,2.89,0,0,1-1.08.86,1.37,1.37,0,0,1-1,.06A1.23,1.23,0,0,1,101.16,19.08Zm3.19-1.48-.35-.11a1.09,1.09,0,0,1-.48-.3.81.81,0,0,1-.2-.39.86.86,0,0,1,0-.39.58.58,0,0,1,.2-.28.55.55,0,0,1,.36-.11.52.52,0,0,1,.37.16.47.47,0,0,1,.17.36.61.61,0,0,1,0,.16c0,.07,0,.13-.06.16a.58.58,0,0,0,0,.18c0,.05,0,.11.1.17a.87.87,0,0,0,.37.15,1.07,1.07,0,0,0,.58,0,1.65,1.65,0,0,0,.67-.43,3.39,3.39,0,0,0,.63-1c.06-.17.13-.23.23-.18s.1.16,0,.34a5,5,0,0,1-.61,1,2,2,0,0,1-.63.51,1.54,1.54,0,0,1-.65.13A2.89,2.89,0,0,1,104.35,17.6Zm2.54-.5a4.84,4.84,0,0,0-.26.62,3.5,3.5,0,0,0-.19.72,1.18,1.18,0,0,0,0,.6c0,.17.18.25.4.25a1,1,0,0,0,.71-.37,5.25,5.25,0,0,0,.69-.89,9.47,9.47,0,0,0,.59-1l.4-.8c.08-.16.16-.22.25-.17s.09.15,0,.33l-.5,1a10.55,10.55,0,0,1-.67,1.11,5.15,5.15,0,0,1-.83.9,1.46,1.46,0,0,1-1,.38,1,1,0,0,1-.43-.11,1.46,1.46,0,0,1-.38-.37,2.08,2.08,0,0,1-.24-.71,1.63,1.63,0,0,1,.07-.88c.15-.3.27-.56.38-.8s.22-.46.33-.67.22-.44.34-.67l.41-.77a3.6,3.6,0,0,1,.6-.9.85.85,0,0,1,.68-.24,2.66,2.66,0,0,1,.37.07.86.86,0,0,0,.39,0,2,2,0,0,0-.48.47A8.29,8.29,0,0,0,108,15c-.19.32-.39.67-.59,1S107,16.77,106.89,17.1Z"/><path class="cls-9" d="M115.22,16.38c-.14.31-.31.66-.5,1a8.7,8.7,0,0,1-.65,1.07,4.32,4.32,0,0,1-.79.85,1.46,1.46,0,0,1-.92.34,1,1,0,0,1-.54-.15.89.89,0,0,1-.35-.45,2,2,0,0,1-.12-.73,3.09,3.09,0,0,1,.18-1c-.16.27-.33.55-.51.82a7.43,7.43,0,0,1-.6.74,3.51,3.51,0,0,1-.65.54,1.36,1.36,0,0,1-.67.2l-.31,0a1.06,1.06,0,0,1-.34-.12,1.33,1.33,0,0,1-.29-.25.9.9,0,0,1-.19-.42,1.52,1.52,0,0,1,0-.56,2.56,2.56,0,0,1,.13-.53,4.59,4.59,0,0,1,.24-.5c.09-.16.18-.33.26-.5a.26.26,0,0,1-.17-.05c-.06,0,0-.11,0-.23a3,3,0,0,0,.16-.31,3.18,3.18,0,0,1,.16-.32l.54-1c.18-.35.34-.66.47-.93a.55.55,0,0,1,.28-.3,1,1,0,0,1,.42-.08h1.1a2.43,2.43,0,0,0-.29.22A3.71,3.71,0,0,0,111,14a3.86,3.86,0,0,0-.28.4,5.45,5.45,0,0,0-.32.61q-.25.47-.45.9c-.14.25-.26.51-.38.77s-.22.48-.31.65a4,4,0,0,0-.36,1.17.88.88,0,0,0,.14.66c.11.13.28.14.51.05a2.07,2.07,0,0,0,.77-.64,6.58,6.58,0,0,0,.75-1c.25-.4.48-.81.71-1.23s.45-.85.66-1.27.4-.81.57-1.17a.55.55,0,0,1,.28-.3,1,1,0,0,1,.42-.08h1c-.13.11-.25.21-.34.3a1.78,1.78,0,0,0-.28.32,4.49,4.49,0,0,0-.28.47c-.1.18-.21.41-.34.69l-.39.78-.36.8q-.16.38-.3.72a3.88,3.88,0,0,0-.16.56,1.28,1.28,0,0,0,0,.82.44.44,0,0,0,.33.26,1,1,0,0,0,.66-.29,3.81,3.81,0,0,0,.64-.72,11,11,0,0,0,.59-1l.51-1c.07-.16.15-.22.24-.17S115.3,16.2,115.22,16.38Zm-.67-6.18a.35.35,0,0,1,.28-.13c.11,0,.14.06.12.15a2.59,2.59,0,0,1-1,1.14,2.86,2.86,0,0,1-1.52.41,3,3,0,0,1-.5,0,2.58,2.58,0,0,1-.49-.17,1.55,1.55,0,0,1-.41-.3.78.78,0,0,1-.2-.43,1,1,0,0,1,0-.64.31.31,0,0,1,.26-.17.1.1,0,0,1,.1.07l.09.18a2,2,0,0,0,.09.22.72.72,0,0,0,.17.23,1.55,1.55,0,0,0,.56.36,2.24,2.24,0,0,0,.68.09,2.91,2.91,0,0,0,.64-.07,1.86,1.86,0,0,0,.45-.2,1.92,1.92,0,0,0,.34-.3A3.32,3.32,0,0,0,114.55,10.2Z"/><path class="cls-9" d="M126.31,16.4c-.15.31-.31.65-.51,1a7.57,7.57,0,0,1-.64,1.07,3.79,3.79,0,0,1-.8.84,1.46,1.46,0,0,1-.91.33,1,1,0,0,1-.54-.15.84.84,0,0,1-.35-.45,2,2,0,0,1-.12-.73,3.09,3.09,0,0,1,.18-1c-.16.27-.33.55-.51.82a7.43,7.43,0,0,1-.6.74,3.26,3.26,0,0,1-.66.54,1.32,1.32,0,0,1-.66.2l-.32,0a1.1,1.1,0,0,1-.33-.12,1.18,1.18,0,0,1-.3-.25,1,1,0,0,1-.19-.42,1.76,1.76,0,0,1,0-.56,2.56,2.56,0,0,1,.13-.53,4.59,4.59,0,0,1,.24-.5c.09-.16.17-.33.26-.5a.26.26,0,0,1-.17-.05c-.06,0-.06-.11,0-.23a3.07,3.07,0,0,0,.17-.31,1.91,1.91,0,0,1,.16-.32l.54-1,.47-.93a.55.55,0,0,1,.28-.3,1,1,0,0,1,.42-.08h1.1a2.43,2.43,0,0,0-.29.22,2.38,2.38,0,0,0-.26.28,2.77,2.77,0,0,0-.28.4,5.29,5.29,0,0,0-.33.61q-.24.47-.45.9c-.13.25-.25.51-.37.77s-.23.48-.31.65A3.44,3.44,0,0,0,120,18.5a.88.88,0,0,0,.14.66c.11.13.28.14.51.05a2.15,2.15,0,0,0,.77-.64,8.19,8.19,0,0,0,.75-1c.25-.4.48-.81.71-1.23s.45-.85.66-1.27.4-.81.56-1.17a.63.63,0,0,1,.28-.3,1.1,1.1,0,0,1,.43-.08h1c-.13.11-.25.21-.34.3a2.21,2.21,0,0,0-.28.32,3.24,3.24,0,0,0-.28.47c-.1.19-.21.42-.34.7s-.26.51-.39.78-.25.54-.36.8l-.3.72a2.79,2.79,0,0,0-.16.57,1.28,1.28,0,0,0,0,.82.44.44,0,0,0,.33.26,1,1,0,0,0,.66-.29,3.93,3.93,0,0,0,.64-.73,8,8,0,0,0,.58-1c.19-.35.36-.69.52-1,.07-.15.15-.21.24-.17S126.39,16.22,126.31,16.4Z"/><path class="cls-9" d="M126.12,17.1l-.18.38a2.1,2.1,0,0,0-.16.36c-.07.14-.15.33-.26.57s-.25.58-.45,1a.39.39,0,0,1-.25.23,1.55,1.55,0,0,1-.43,0l-.33,0a.51.51,0,0,0-.28.09c.43-.87.84-1.72,1.23-2.56s.81-1.67,1.25-2.48a3.6,3.6,0,0,1,.6-.9.85.85,0,0,1,.68-.24,2.66,2.66,0,0,1,.37.07.86.86,0,0,0,.39,0,1.72,1.72,0,0,0-.48.47,8.29,8.29,0,0,0-.58.85c-.2.32-.39.67-.59,1S126.27,16.77,126.12,17.1Zm2.88-1a1.57,1.57,0,0,1-.38.58.75.75,0,0,1-.63.25,1.68,1.68,0,0,1-.64-.19,1.39,1.39,0,0,0-.62-.19.44.44,0,0,0-.32.08.71.71,0,0,0-.22.24s-.06,0-.14,0-.12,0-.09-.06a2.35,2.35,0,0,1,.4-.54.73.73,0,0,1,.62-.23,1.56,1.56,0,0,1,.64.17,1.74,1.74,0,0,0,.6.19.44.44,0,0,0,.35-.07,1,1,0,0,0,.21-.27s.07,0,.15,0S129,16.08,129,16.11Zm.3,1c-.08.17-.17.37-.26.62a4.28,4.28,0,0,0-.19.72,1.46,1.46,0,0,0,0,.6c.05.17.19.25.41.25a1.05,1.05,0,0,0,.71-.37,6.53,6.53,0,0,0,.69-.89,9.36,9.36,0,0,0,.58-1c.18-.34.31-.61.41-.8s.15-.22.24-.17.1.15,0,.33l-.49,1a10.65,10.65,0,0,1-.68,1.11,4.8,4.8,0,0,1-.83.9,1.44,1.44,0,0,1-1,.38.94.94,0,0,1-.42-.11,1.35,1.35,0,0,1-.39-.37,2.35,2.35,0,0,1-.23-.71,1.54,1.54,0,0,1,.07-.88l.38-.8c.11-.23.21-.46.32-.67l.34-.67c.12-.23.26-.49.42-.77a3.63,3.63,0,0,1,.59-.9.89.89,0,0,1,.69-.24,2.29,2.29,0,0,1,.36.07.86.86,0,0,0,.39,0,2,2,0,0,0-.48.47c-.18.24-.37.52-.57.85s-.4.67-.6,1S129.46,16.77,129.3,17.1Z"/><path class="cls-9" d="M140.46,16.38c-.13.27-.29.6-.49,1a10.65,10.65,0,0,1-.68,1.11,4.8,4.8,0,0,1-.83.9,1.43,1.43,0,0,1-1.47.29.91.91,0,0,1-.43-.33,1.32,1.32,0,0,1-.2-.65,2.67,2.67,0,0,1,.16-1,4,4,0,0,1,.36-.82c.17-.31.38-.67.63-1.07a1.12,1.12,0,0,0,.18-.47c0-.13,0-.21-.14-.24a.79.79,0,0,0-.47.15,4.83,4.83,0,0,0-.85.66,9.52,9.52,0,0,0-.69.75,12.07,12.07,0,0,0-.78,1,9.91,9.91,0,0,0-.68,1.1,3.77,3.77,0,0,0-.39.94.52.52,0,0,1-.47-.3.94.94,0,0,1-.1-.69,4.19,4.19,0,0,1,.3-1.07l.45-1c.15-.3.28-.6.4-.88a1.63,1.63,0,0,0,.17-.63c0-.14-.11-.16-.3-.07a5.26,5.26,0,0,0-1,.8,9.86,9.86,0,0,0-1.09,1.23,17.36,17.36,0,0,0-1.39,2.28.41.41,0,0,1-.23.25,1.72,1.72,0,0,1-.45,0l-.33,0a.54.54,0,0,0-.27.09c.43-.86.84-1.71,1.22-2.54s.79-1.65,1.23-2.46a3.94,3.94,0,0,1,.59-.9.89.89,0,0,1,.69-.24,2.66,2.66,0,0,1,.37.07.81.81,0,0,0,.38,0,1.86,1.86,0,0,0-.47.47,8.29,8.29,0,0,0-.58.85c-.2.32-.4.67-.59,1s-.38.71-.53,1c.18-.23.4-.5.67-.8a7.93,7.93,0,0,1,.82-.82l.69-.62q.38-.33.72-.6a3.8,3.8,0,0,1,.67-.4.74.74,0,0,1,.55-.07.48.48,0,0,1,.32.3.66.66,0,0,1,0,.49c-.17.38-.38.79-.62,1.21s-.48.86-.7,1.31c.18-.23.41-.5.68-.8a7.93,7.93,0,0,1,.82-.82,7.78,7.78,0,0,1,.8-.62q.48-.33,1-.6a5.84,5.84,0,0,1,.92-.4,1.06,1.06,0,0,1,.65-.07c-.36.64-.69,1.26-1,1.85-.13.25-.26.51-.38.77l-.34.77c-.11.25-.2.48-.28.69a3.73,3.73,0,0,0-.17.56,1.16,1.16,0,0,0,0,.73.32.32,0,0,0,.28.17,1.05,1.05,0,0,0,.72-.37,4.83,4.83,0,0,0,.72-.87,9.2,9.2,0,0,0,.62-1c.18-.35.31-.63.41-.83s.15-.22.24-.17S140.55,16.2,140.46,16.38Zm-.63-4.68a3.2,3.2,0,0,1-.35.44,2.68,2.68,0,0,1-.48.4,2.38,2.38,0,0,1-.6.29,2.07,2.07,0,0,1-.71.09,3.11,3.11,0,0,1-.69-.11l-.66-.18c-.22-.07-.43-.13-.65-.18a2.84,2.84,0,0,0-.65-.1,1.18,1.18,0,0,0-.69.11,1.49,1.49,0,0,0-.44.37s0,0-.11.05h-.18l-.16,0c-.05,0-.07,0-.07,0a3.86,3.86,0,0,1,.85-.79,2.12,2.12,0,0,1,1.31-.35,3.73,3.73,0,0,1,.67.09l.67.17.65.18a2.76,2.76,0,0,0,.64.1,1.27,1.27,0,0,0,.73-.11,1.51,1.51,0,0,0,.49-.41l.08,0h.16l.15,0S139.84,11.69,139.83,11.7Z"/><path class="cls-9" d="M144.07,16.34l-.54,1.15a6.22,6.22,0,0,1-.68,1.11,3.7,3.7,0,0,1-.93.84,2.47,2.47,0,0,1-1.29.32,1.82,1.82,0,0,1-1.19-.42,1.62,1.62,0,0,1-.54-1.29,4.35,4.35,0,0,1,.1-.84,5.78,5.78,0,0,1,.29-.89,7,7,0,0,1,.44-.86,6.33,6.33,0,0,1,.56-.77,4.7,4.7,0,0,1,.76-.72,3.46,3.46,0,0,1,.83-.5,2.13,2.13,0,0,1,.8-.17,1.16,1.16,0,0,1,.69.22.76.76,0,0,1,.3.5,1.43,1.43,0,0,1-.1.68,3.12,3.12,0,0,1-.45.74,4.13,4.13,0,0,1-.74.7,4,4,0,0,1-.51.31,4.73,4.73,0,0,1-.62.25c-.22.07-.43.13-.62.17a1.9,1.9,0,0,1-.46.07,2.63,2.63,0,0,0-.19.66,2.82,2.82,0,0,0-.06.81,1.45,1.45,0,0,0,.22.7.71.71,0,0,0,.64.29,1.74,1.74,0,0,0,1.07-.35,3.72,3.72,0,0,0,.84-.84,6,6,0,0,0,.63-1c.18-.35.32-.65.43-.89a.42.42,0,0,1,.13-.18.23.23,0,0,1,.15-.07.09.09,0,0,1,.09.07A.3.3,0,0,1,144.07,16.34Zm-1.87-.52a3,3,0,0,0,.6-.68,2.77,2.77,0,0,0,.33-.71,1,1,0,0,0,0-.54.24.24,0,0,0-.27-.2,1.15,1.15,0,0,0-.59.29,5.45,5.45,0,0,0-.94.94,7.16,7.16,0,0,0-.66.94c-.19.33-.34.58-.42.75a1.69,1.69,0,0,0,.34,0,3,3,0,0,0,.49-.15,3.77,3.77,0,0,0,.55-.25A4.41,4.41,0,0,0,142.2,15.82Z"/><path class="cls-9" d="M141.57,23.63a2.36,2.36,0,0,1-.51.78,1,1,0,0,1-.7.16,2.66,2.66,0,0,1-.37-.07.7.7,0,0,0-.38,0,4.15,4.15,0,0,0,.41-.62c.2-.34.44-.76.7-1.26s.55-1,.85-1.63.58-1.17.84-1.73.48-1.08.66-1.56a7.49,7.49,0,0,0,.37-1.12.75.75,0,0,1-.32.3c-.12,0-.15,0-.09-.14s.1-.23.18-.4l.18-.41a4,4,0,0,0,.22-.67,3.91,3.91,0,0,0,.13-.72,1.79,1.79,0,0,0,0-.58c0-.16-.11-.26-.21-.28l.37-.07a1.57,1.57,0,0,1,.3-.05l.21,0,.32,0a.31.31,0,0,1,.2,0,.38.38,0,0,1,.1.23,3.26,3.26,0,0,1,0,.49,2.66,2.66,0,0,1-.08.64c-.05.25-.11.5-.19.77s-.15.52-.23.77-.16.48-.23.67c.18-.23.4-.5.68-.8a9.11,9.11,0,0,1,.83-.82,7.78,7.78,0,0,1,.8-.62q.48-.33,1-.6a6.19,6.19,0,0,1,.91-.4,1.08,1.08,0,0,1,.66-.07c-.36.64-.69,1.26-1,1.85l-.39.77-.35.77c-.11.25-.2.48-.28.69a2.62,2.62,0,0,0-.15.56,1.21,1.21,0,0,0,0,.73.34.34,0,0,0,.29.17A1.11,1.11,0,0,0,148,19a6.06,6.06,0,0,0,.72-.89c.22-.34.43-.69.61-1s.32-.62.41-.81.16-.22.25-.17.09.15,0,.33-.29.6-.49,1a9.18,9.18,0,0,1-.68,1.11,4.75,4.75,0,0,1-.82.9,1.46,1.46,0,0,1-1,.38,1.45,1.45,0,0,1-.48-.09.84.84,0,0,1-.42-.33,1.22,1.22,0,0,1-.21-.65,2.67,2.67,0,0,1,.16-1,4,4,0,0,1,.36-.82c.17-.31.38-.67.63-1.07a1.12,1.12,0,0,0,.18-.47c0-.13,0-.21-.13-.24a.82.82,0,0,0-.48.15,4.83,4.83,0,0,0-.85.66l-.53.51a6.69,6.69,0,0,0-.63.71,7.87,7.87,0,0,0-.67,1,10.61,10.61,0,0,0-.67,1.35Z"/><path class="cls-9" d="M149.76,17.1l-.18.38c0,.09-.1.21-.16.36s-.14.33-.25.57-.26.58-.45,1a.42.42,0,0,1-.25.23,1.6,1.6,0,0,1-.43,0l-.34,0a.54.54,0,0,0-.28.09c.44-.87.85-1.72,1.24-2.56s.8-1.67,1.25-2.48a3.63,3.63,0,0,1,.59-.9.89.89,0,0,1,.69-.24,2.66,2.66,0,0,1,.37.07.81.81,0,0,0,.38,0,1.86,1.86,0,0,0-.47.47,8.29,8.29,0,0,0-.58.85c-.2.32-.4.67-.59,1S149.92,16.77,149.76,17.1Zm2.88-1a1.54,1.54,0,0,1-.37.58.75.75,0,0,1-.63.25,1.68,1.68,0,0,1-.64-.19,1.39,1.39,0,0,0-.62-.19.48.48,0,0,0-.33.08.68.68,0,0,0-.21.24s-.06,0-.15,0-.11,0-.09-.06a2.41,2.41,0,0,1,.41-.54.73.73,0,0,1,.62-.23,1.56,1.56,0,0,1,.64.17,1.74,1.74,0,0,0,.6.19.42.42,0,0,0,.34-.07.84.84,0,0,0,.22-.27s.07,0,.14,0S152.67,16.08,152.64,16.11Zm.31,1c-.08.17-.17.37-.26.62a4.28,4.28,0,0,0-.19.72,1.18,1.18,0,0,0,0,.6.37.37,0,0,0,.4.25,1,1,0,0,0,.71-.37,5.86,5.86,0,0,0,.7-.89,11.41,11.41,0,0,0,.58-1c.18-.34.31-.61.41-.8s.15-.22.24-.17.09.15,0,.33-.3.6-.5,1a9.09,9.09,0,0,1-.67,1.11,4.8,4.8,0,0,1-.83.9,1.44,1.44,0,0,1-1,.38.88.88,0,0,1-.42-.11,1.35,1.35,0,0,1-.39-.37,2.1,2.1,0,0,1-.23-.71,1.46,1.46,0,0,1,.07-.88c.14-.3.27-.56.37-.8s.22-.46.33-.67l.34-.67.41-.77a3.6,3.6,0,0,1,.6-.9.86.86,0,0,1,.68-.24,2.41,2.41,0,0,1,.37.07.86.86,0,0,0,.39,0,2,2,0,0,0-.48.47,8.33,8.33,0,0,0-.57.85c-.2.32-.4.67-.6,1S153.11,16.77,153,17.1Z"/><path class="cls-9" d="M159.26,16.34c-.16.36-.34.74-.54,1.15A6.22,6.22,0,0,1,158,18.6a3.38,3.38,0,0,1-.93.84,2.45,2.45,0,0,1-1.28.32,1.83,1.83,0,0,1-1.2-.42,1.62,1.62,0,0,1-.53-1.29,3.69,3.69,0,0,1,.1-.84,4.21,4.21,0,0,1,.29-.89,5.81,5.81,0,0,1,.44-.86,5.36,5.36,0,0,1,.55-.77,4.7,4.7,0,0,1,.76-.72,3.66,3.66,0,0,1,.83-.5,2.13,2.13,0,0,1,.8-.17,1.12,1.12,0,0,1,.69.22.76.76,0,0,1,.3.5,1.31,1.31,0,0,1-.1.68,3.12,3.12,0,0,1-.45.74,3.82,3.82,0,0,1-.74.7,3,3,0,0,1-.51.31,4.73,4.73,0,0,1-.62.25c-.22.07-.42.13-.61.17a2,2,0,0,1-.47.07,3.14,3.14,0,0,0-.19.66,3.21,3.21,0,0,0,0,.81,1.44,1.44,0,0,0,.21.7.72.72,0,0,0,.64.29,1.72,1.72,0,0,0,1.07-.35,4,4,0,0,0,.85-.84,7.59,7.59,0,0,0,.63-1c.17-.35.31-.65.42-.89a.44.44,0,0,1,.14-.18.21.21,0,0,1,.14-.07.09.09,0,0,1,.09.07S159.31,16.25,159.26,16.34Zm-1.87-.52a3.27,3.27,0,0,0,.61-.68,2.77,2.77,0,0,0,.33-.71,1,1,0,0,0,0-.54.23.23,0,0,0-.27-.2,1.15,1.15,0,0,0-.59.29,6.27,6.27,0,0,0-.94.94,7.11,7.11,0,0,0-.65.94c-.2.33-.34.58-.43.75a1.77,1.77,0,0,0,.35,0,3.2,3.2,0,0,0,.48-.15,4,4,0,0,0,1.08-.6Z"/><path class="cls-9" d="M167.8,16.38c-.13.27-.29.6-.49,1a9.18,9.18,0,0,1-.68,1.11,4.8,4.8,0,0,1-.83.9,1.47,1.47,0,0,1-1,.38,1.51,1.51,0,0,1-.5-.09.84.84,0,0,1-.42-.33,1.22,1.22,0,0,1-.21-.65,2.67,2.67,0,0,1,.16-1,4,4,0,0,1,.36-.82c.17-.31.38-.67.63-1.07a1.12,1.12,0,0,0,.18-.47c0-.13,0-.21-.13-.24a.82.82,0,0,0-.48.15,4.83,4.83,0,0,0-.85.66,9.52,9.52,0,0,0-.69.75,12.07,12.07,0,0,0-.78,1,11.67,11.67,0,0,0-.68,1.1,3.69,3.69,0,0,0-.38.94.52.52,0,0,1-.48-.3.94.94,0,0,1-.1-.69,3.82,3.82,0,0,1,.31-1.07c.14-.32.29-.65.45-1s.27-.6.39-.88a1.63,1.63,0,0,0,.17-.63c0-.14-.1-.16-.29-.07a4.68,4.68,0,0,0-1,.8,8.47,8.47,0,0,0-1.09,1.23,16.25,16.25,0,0,0-1.4,2.28.41.41,0,0,1-.23.25,1.72,1.72,0,0,1-.45,0l-.33,0a.54.54,0,0,0-.27.09c.44-.86.84-1.71,1.22-2.54s.79-1.65,1.23-2.46a3.6,3.6,0,0,1,.6-.9.85.85,0,0,1,.68-.24,2.66,2.66,0,0,1,.37.07.86.86,0,0,0,.39,0,1.72,1.72,0,0,0-.48.47,8.29,8.29,0,0,0-.58.85c-.2.32-.39.67-.59,1s-.38.71-.53,1c.18-.23.4-.5.67-.8a7.93,7.93,0,0,1,.82-.82l.69-.62q.38-.33.72-.6a3.8,3.8,0,0,1,.67-.4.74.74,0,0,1,.55-.07.46.46,0,0,1,.32.3.66.66,0,0,1,0,.49c-.17.38-.38.79-.62,1.21s-.48.86-.69,1.31c.18-.23.4-.5.67-.8a7.93,7.93,0,0,1,.82-.82,9.05,9.05,0,0,1,.8-.62q.48-.33,1-.6a5.84,5.84,0,0,1,.92-.4,1.06,1.06,0,0,1,.65-.07c-.36.64-.69,1.26-1,1.85-.13.25-.26.51-.38.77l-.34.77c-.11.25-.2.48-.28.69a5.44,5.44,0,0,0-.17.56,1.24,1.24,0,0,0,0,.73.32.32,0,0,0,.28.17,1.09,1.09,0,0,0,.73-.37,5.85,5.85,0,0,0,.72-.87,10.87,10.87,0,0,0,.61-1c.18-.35.32-.63.41-.83s.15-.22.24-.17S167.89,16.2,167.8,16.38Zm-.63-4.68a3.2,3.2,0,0,1-.35.44,2.61,2.61,0,0,1-.47.4,2.45,2.45,0,0,1-.61.29,2.07,2.07,0,0,1-.71.09,3.11,3.11,0,0,1-.69-.11l-.66-.18c-.21-.07-.43-.13-.65-.18a2.84,2.84,0,0,0-.64-.1,1.2,1.2,0,0,0-.7.11,1.63,1.63,0,0,0-.44.37s-.05,0-.11.05H161l-.16,0c-.05,0-.07,0-.07,0a3.86,3.86,0,0,1,.85-.79,2.14,2.14,0,0,1,1.31-.35,3.73,3.73,0,0,1,.67.09l.67.17.65.18a2.76,2.76,0,0,0,.64.1,1.32,1.32,0,0,0,.74-.11,1.59,1.59,0,0,0,.48-.41l.08,0H167l.15,0S167.19,11.69,167.17,11.7Z"/><path class="cls-9" d="M171.6,15.89a21.17,21.17,0,0,0-2.23.11l-1.8.2q-.09,0-.18-.12a.79.79,0,0,1-.12-.3.45.45,0,0,1,0-.3.24.24,0,0,1,.26-.15l1.47,0,2.49.06a.37.37,0,0,1,.38.25.17.17,0,0,1-.06.16A.34.34,0,0,1,171.6,15.89Z"/><path class="cls-9" d="M177.43,16.38l-.49,1a10.65,10.65,0,0,1-.68,1.11,4.8,4.8,0,0,1-.83.9,1.44,1.44,0,0,1-1,.38,1.46,1.46,0,0,1-.49-.09.94.94,0,0,1-.42-.33,1.42,1.42,0,0,1-.21-.65,2.92,2.92,0,0,1,.17-1,4,4,0,0,1,.36-.82c.17-.31.38-.67.63-1.07a1.12,1.12,0,0,0,.18-.47.2.2,0,0,0-.14-.24.79.79,0,0,0-.47.15,4.83,4.83,0,0,0-.85.66,9.54,9.54,0,0,0-1.11,1.25,14.81,14.81,0,0,0-1.39,2.32.41.41,0,0,1-.26.23,1.55,1.55,0,0,1-.43,0l-.33,0a.54.54,0,0,0-.28.09c.43-.87.84-1.72,1.23-2.56s.81-1.67,1.26-2.48a3.36,3.36,0,0,1,.59-.9.88.88,0,0,1,.68-.24,2.41,2.41,0,0,1,.37.07.86.86,0,0,0,.39,0,2,2,0,0,0-.48.47,8.33,8.33,0,0,0-.57.85c-.2.32-.4.67-.6,1s-.37.71-.53,1c.18-.23.41-.5.68-.8a9,9,0,0,1,.81-.82,9.34,9.34,0,0,1,.81-.62,10.9,10.9,0,0,1,1-.6,5.76,5.76,0,0,1,.91-.4,1.05,1.05,0,0,1,.65-.07c-.36.64-.69,1.26-1,1.85-.13.25-.26.51-.38.77s-.25.52-.35.77-.2.48-.28.69a3.55,3.55,0,0,0-.16.56,1.21,1.21,0,0,0,0,.73.35.35,0,0,0,.29.17,1.07,1.07,0,0,0,.72-.38,6.06,6.06,0,0,0,.72-.89,11.11,11.11,0,0,0,.61-1c.19-.35.32-.62.42-.81s.15-.22.24-.17S177.51,16.2,177.43,16.38Z"/><path class="cls-9" d="M182.74,16.32l-.35.8a7.28,7.28,0,0,1-.6,1.08,4.74,4.74,0,0,1-.84.94,1.53,1.53,0,0,1-1,.41,1.6,1.6,0,0,1-.69-.13,1.31,1.31,0,0,1-.46-.32,3.53,3.53,0,0,1-.77.44,1.88,1.88,0,0,1-.79.15,1.17,1.17,0,0,1-.82-.3,1.38,1.38,0,0,1-.4-.73,2.83,2.83,0,0,1,0-1.05,5.4,5.4,0,0,1,.34-1.18,6.8,6.8,0,0,1,.67-1.17,6.22,6.22,0,0,1,.85-1,4.66,4.66,0,0,1,.95-.66,2,2,0,0,1,.95-.22,1.09,1.09,0,0,1,.81.29,1.38,1.38,0,0,1,.41.75,3.12,3.12,0,0,1,0,1.06,5.17,5.17,0,0,1-.34,1.17,6.27,6.27,0,0,1-.6,1.06,6.2,6.2,0,0,1-.92,1.07.88.88,0,0,0,.85.45,1.19,1.19,0,0,0,.82-.36,4.47,4.47,0,0,0,.71-.87,8.61,8.61,0,0,0,.58-1c.16-.35.3-.63.41-.85a.17.17,0,0,1,.22-.09C182.78,16.11,182.8,16.19,182.74,16.32ZM180.11,14a1,1,0,0,0-.63.09,2.36,2.36,0,0,0-.68.48,6,6,0,0,0-.67.79,6.49,6.49,0,0,0-.57,1,7.38,7.38,0,0,0-.43,1.06,4.93,4.93,0,0,0-.19.89,1.62,1.62,0,0,0,.06.65.49.49,0,0,0,.34.34.93.93,0,0,0,.58-.06,2.2,2.2,0,0,0,.64-.39,2.27,2.27,0,0,1-.21-.45,1.44,1.44,0,0,1-.07-.44,1.21,1.21,0,0,1,.15-.54.52.52,0,0,1,.48-.23.49.49,0,0,1,.38.16.57.57,0,0,1,.16.38s0,.07,0,.1l0,.1a9.1,9.1,0,0,0,.56-1,6.28,6.28,0,0,0,.41-1.07,3.57,3.57,0,0,0,.16-.9,1.3,1.3,0,0,0-.09-.65A.52.52,0,0,0,180.11,14Z"/><path class="cls-9" d="M180.05,23.63a2.36,2.36,0,0,1-.51.78,1,1,0,0,1-.7.16,2.29,2.29,0,0,1-.36-.07.74.74,0,0,0-.39,0,4.15,4.15,0,0,0,.41-.62c.21-.34.44-.76.7-1.26s.55-1,.85-1.63.58-1.17.84-1.73.48-1.08.66-1.56a7.49,7.49,0,0,0,.37-1.12.7.7,0,0,1-.32.3c-.12,0-.15,0-.09-.14s.11-.23.18-.4l.18-.41a4,4,0,0,0,.22-.67,3.91,3.91,0,0,0,.13-.72,1.79,1.79,0,0,0,0-.58c0-.16-.11-.26-.21-.28l.37-.07a1.57,1.57,0,0,1,.3-.05l.21,0,.32,0a.3.3,0,0,1,.2,0,.38.38,0,0,1,.1.23,3,3,0,0,1,0,.49,2.72,2.72,0,0,1-.09.64c0,.25-.11.5-.18.77s-.15.52-.24.77-.16.48-.23.67c.18-.23.41-.5.68-.8a9.08,9.08,0,0,1,1.63-1.44q.48-.33,1-.6a6.19,6.19,0,0,1,.91-.4,1.08,1.08,0,0,1,.66-.07c-.36.64-.69,1.26-1,1.85l-.39.77-.35.77c-.11.25-.2.48-.28.69a3.4,3.4,0,0,0-.15.56,1.21,1.21,0,0,0,0,.73.34.34,0,0,0,.29.17,1.07,1.07,0,0,0,.72-.38,6.06,6.06,0,0,0,.72-.89,11.11,11.11,0,0,0,.61-1c.18-.35.32-.62.41-.81s.16-.22.25-.17.09.15,0,.33l-.5,1a10.55,10.55,0,0,1-.67,1.11,5.15,5.15,0,0,1-.83.9,1.41,1.41,0,0,1-1.46.29.84.84,0,0,1-.42-.33,1.22,1.22,0,0,1-.21-.65,2.87,2.87,0,0,1,.16-1,4,4,0,0,1,.36-.82c.17-.31.38-.67.63-1.07a1.12,1.12,0,0,0,.18-.47c0-.13,0-.21-.13-.24a.82.82,0,0,0-.48.15,4.83,4.83,0,0,0-.85.66l-.53.51a8,8,0,0,0-.63.71,9.1,9.1,0,0,0-.67,1,10.61,10.61,0,0,0-.67,1.35Z"/><path class="cls-9" d="M196.93,16.38l-.49,1a10.65,10.65,0,0,1-.68,1.11,4.53,4.53,0,0,1-.84.9,1.41,1.41,0,0,1-1.46.29.91.91,0,0,1-.43-.33,1.32,1.32,0,0,1-.2-.65,2.67,2.67,0,0,1,.16-1,4,4,0,0,1,.36-.82c.17-.31.38-.67.63-1.07a1.12,1.12,0,0,0,.18-.47c0-.13,0-.21-.14-.24a.79.79,0,0,0-.47.15,4.83,4.83,0,0,0-.85.66,9.52,9.52,0,0,0-.69.75c-.27.32-.53.66-.79,1a11.55,11.55,0,0,0-.67,1.1,3.77,3.77,0,0,0-.39.94.52.52,0,0,1-.47-.3.94.94,0,0,1-.1-.69,4.19,4.19,0,0,1,.3-1.07l.45-1c.15-.3.28-.6.4-.88a1.63,1.63,0,0,0,.17-.63c0-.14-.11-.16-.3-.07a5.26,5.26,0,0,0-1,.8,9.86,9.86,0,0,0-1.09,1.23,16.33,16.33,0,0,0-1.39,2.28.4.4,0,0,1-.24.25,1.62,1.62,0,0,1-.45,0l-.32,0a.54.54,0,0,0-.27.09c.43-.86.84-1.71,1.22-2.54s.78-1.65,1.23-2.46a3.63,3.63,0,0,1,.59-.9.89.89,0,0,1,.69-.24,2.66,2.66,0,0,1,.37.07.81.81,0,0,0,.38,0,1.86,1.86,0,0,0-.47.47,8.29,8.29,0,0,0-.58.85c-.2.32-.4.67-.59,1s-.38.71-.54,1c.18-.23.41-.5.68-.8a7.93,7.93,0,0,1,.82-.82l.69-.62q.38-.33.72-.6a3.8,3.8,0,0,1,.67-.4.74.74,0,0,1,.55-.07.5.5,0,0,1,.32.3.66.66,0,0,1-.05.49c-.17.38-.38.79-.62,1.21s-.48.86-.7,1.31c.18-.23.41-.5.68-.8a7.93,7.93,0,0,1,.82-.82,7.78,7.78,0,0,1,.8-.62q.48-.33,1-.6a5.46,5.46,0,0,1,.92-.4,1.06,1.06,0,0,1,.65-.07c-.36.64-.69,1.26-1,1.85-.14.25-.26.51-.38.77s-.24.52-.34.77-.2.48-.28.69a3.73,3.73,0,0,0-.17.56,1.27,1.27,0,0,0,0,.73.35.35,0,0,0,.29.17,1.05,1.05,0,0,0,.72-.37,5.85,5.85,0,0,0,.72-.87,9.11,9.11,0,0,0,.61-1l.42-.83c.07-.16.15-.22.24-.17S197,16.2,196.93,16.38Zm-.63-4.68a4.2,4.2,0,0,1-.35.44,2.68,2.68,0,0,1-.48.4,2.38,2.38,0,0,1-.6.29,2.07,2.07,0,0,1-.71.09,3.11,3.11,0,0,1-.69-.11l-.66-.18c-.22-.07-.43-.13-.65-.18a2.93,2.93,0,0,0-.65-.1,1.16,1.16,0,0,0-.69.11,1.49,1.49,0,0,0-.44.37s0,0-.11.05h-.18l-.16,0c-.05,0-.07,0-.07,0a3.65,3.65,0,0,1,.85-.79,2.12,2.12,0,0,1,1.31-.35,3.85,3.85,0,0,1,.67.09l.67.17.64.18a2.84,2.84,0,0,0,.64.1,1.31,1.31,0,0,0,.74-.11,1.63,1.63,0,0,0,.49-.41l.08,0h.16l.14,0C196.3,11.67,196.31,11.69,196.3,11.7Z"/><path class="cls-9" d="M201.39,14.81a4.49,4.49,0,0,0-.38.53c-.16.26-.33.56-.51.89s-.33.66-.47,1a5.12,5.12,0,0,0-.31.94q-.21,1.08.18,1.08a.73.73,0,0,0,.41-.16,2.25,2.25,0,0,0,.42-.4c.13-.16.26-.32.38-.49s.21-.33.28-.46.19-.22.28-.17.09.14,0,.31a6.72,6.72,0,0,1-.93,1.27,1.64,1.64,0,0,1-1,.57,1.16,1.16,0,0,1-.47-.08.91.91,0,0,1-.42-.36,1.58,1.58,0,0,1-.18-.72,3.42,3.42,0,0,1,.17-1.17c-.15.24-.33.52-.56.84a6.94,6.94,0,0,1-.74.86,2.13,2.13,0,0,1-1,.59.9.9,0,0,1-.75-.13,1.29,1.29,0,0,1-.44-.72,2.81,2.81,0,0,1,0-1.14,5.13,5.13,0,0,1,.45-1.44,6.58,6.58,0,0,1,1-1.59,3.66,3.66,0,0,1,1-.83,4.3,4.3,0,0,1,1.16-.49,2.7,2.7,0,0,1,1.13,0,1.64,1.64,0,0,1,.93.52.32.32,0,0,1,.11.38.25.25,0,0,1-.31.14.8.8,0,0,0-.59-.61,1.3,1.3,0,0,0-.94.16A5.07,5.07,0,0,0,198,15a9.89,9.89,0,0,0-1.14,1.52l-.16.28c-.07.14-.15.29-.22.46s-.15.36-.22.54a3.13,3.13,0,0,0-.13.53,1,1,0,0,0,.06.69.43.43,0,0,0,.38.21,1,1,0,0,0,.56-.2,2.92,2.92,0,0,0,.65-.59,11.5,11.5,0,0,0,.86-1.21c.26-.43.5-.86.74-1.31A6.67,6.67,0,0,1,200,15a.76.76,0,0,1,.68-.27l.37.06A.81.81,0,0,0,201.39,14.81Zm2.16,4.07a3.48,3.48,0,0,0,.66-.75,8.64,8.64,0,0,0,.56-.94c.17-.34.34-.68.49-1l.42-1c.13-.3.26-.57.38-.81a2,2,0,0,1,.37-.53,1.31,1.31,0,0,1,.29-.22,1.13,1.13,0,0,1,.34-.09,3.23,3.23,0,0,1,.46,0h.66s0,0,0,0a.74.74,0,0,1-.16.1l-.26.1a1,1,0,0,1-.27,0,.9.9,0,0,0-.73.2,2.94,2.94,0,0,0-.45.64,10.93,10.93,0,0,0-.62,1.37c-.23.56-.48,1.12-.76,1.67a7.09,7.09,0,0,1-.95,1.41,1.65,1.65,0,0,1-1.24.59,2.11,2.11,0,0,1-.8-.15,1.22,1.22,0,0,1-.6-.59,1.16,1.16,0,0,1-.19-.95.74.74,0,0,1,.39-.46.38.38,0,0,1,.43.09q.18.2-.06.69a.47.47,0,0,0,0,.31.81.81,0,0,0,.13.3.67.67,0,0,0,.26.21.58.58,0,0,0,.31.08,2,2,0,0,0,.53-.08A1,1,0,0,0,203.55,18.88Zm3.87-5a.63.63,0,0,1,.28-.3,1.1,1.1,0,0,1,.43-.08h1c-.13.11-.25.21-.34.3a1.78,1.78,0,0,0-.28.32,3.24,3.24,0,0,0-.28.47c-.1.18-.21.41-.34.69s-.26.51-.39.78-.25.54-.36.8-.21.49-.3.72a2.91,2.91,0,0,0-.16.56,1.28,1.28,0,0,0,0,.82.44.44,0,0,0,.33.26,1,1,0,0,0,.66-.29,4.19,4.19,0,0,0,.64-.72,9.05,9.05,0,0,0,.58-1c.19-.35.36-.69.52-1,.07-.16.15-.22.24-.17s.09.15,0,.33-.31.66-.51,1a7.57,7.57,0,0,1-.64,1.07,4.08,4.08,0,0,1-.8.85,1.41,1.41,0,0,1-.91.34,1,1,0,0,1-.54-.15.84.84,0,0,1-.35-.45,2,2,0,0,1-.12-.73,3.09,3.09,0,0,1,.18-1c.08-.27.18-.55.3-.85s.25-.6.39-.91l.42-.91C207.19,14.4,207.32,14.13,207.42,13.88Z"/><path class="cls-9" d="M81.13,26a4,4,0,0,1,1.56,1.45A2.48,2.48,0,0,1,83,29a3.48,3.48,0,0,1-.64,1.56,6.58,6.58,0,0,1-1.3,1.4,9.43,9.43,0,0,1-1.71,1.1,8.59,8.59,0,0,1-1.82.7,15.68,15.68,0,0,1-2.21.37,10.77,10.77,0,0,1-1.82.06c-.4.59-.82,1.15-1.26,1.7a16.33,16.33,0,0,1-1.44,1.57A7.22,7.22,0,0,1,68.31,39a6,6,0,0,1-2.8.3,3.06,3.06,0,0,1-1.44-.49,1.75,1.75,0,0,1-.68-.85,1.47,1.47,0,0,1,0-1,1.61,1.61,0,0,1,.67-.82,2.76,2.76,0,0,1,1.25-.41,4.35,4.35,0,0,1,1.79.26c.19.07.27.15.23.22s-.13.08-.29,0a2.58,2.58,0,0,0-1.25-.2,1.72,1.72,0,0,0-.86.34,1.34,1.34,0,0,0-.45.67,1.27,1.27,0,0,0,0,.77,1.29,1.29,0,0,0,.47.65,1.7,1.7,0,0,0,1,.3,4.34,4.34,0,0,0,2.21-.46A8.35,8.35,0,0,0,70.1,37a9.68,9.68,0,0,0,1.62-2.14c.49-.85,1-1.76,1.5-2.72s1.06-1.93,1.64-2.91a18.25,18.25,0,0,1,2-2.78l.48-.52a5.44,5.44,0,0,1,.48-.48c-.52-.08-1-.12-1.59-.15s-1.06,0-1.58,0-1,.05-1.49.1-.89.11-1.26.18A15.65,15.65,0,0,0,70,26a9.76,9.76,0,0,0-2,.89,7,7,0,0,0-1.67,1.31A3.37,3.37,0,0,0,65.47,30a2,2,0,0,0,0,.89,1.88,1.88,0,0,0,.36.72,1.84,1.84,0,0,0,.59.48,1.79,1.79,0,0,0,.77.2,2,2,0,0,0,.84-.15,3.12,3.12,0,0,0,.78-.47,3.25,3.25,0,0,0,.63-.7,3.72,3.72,0,0,0,.45-.86c0-.13.07-.19.14-.19s.11.08.11.21a2.18,2.18,0,0,1-.27,1.09,2.7,2.7,0,0,1-.7.8,3.06,3.06,0,0,1-1,.49,3.45,3.45,0,0,1-1,.14,3.31,3.31,0,0,1-1-.2,2.43,2.43,0,0,1-1.44-1.39,2.54,2.54,0,0,1-.18-1.2A3.1,3.1,0,0,1,65,28.41a4.7,4.7,0,0,1,1-1.17,6.87,6.87,0,0,1,1.36-.91,12,12,0,0,1,1.56-.66,14.5,14.5,0,0,1,1.57-.46c.52-.12,1-.21,1.42-.27a26.74,26.74,0,0,1,3.2-.26,14.26,14.26,0,0,1,3.28.28c.21-.16.41-.3.62-.43a5,5,0,0,1,.73-.33c.29-.12.45-.14.47-.05s-.07.19-.29.32l-.36.26c-.14.12-.29.25-.45.41A8,8,0,0,1,81.13,26Zm-.41.38a5.06,5.06,0,0,0-.93-.47,8.19,8.19,0,0,0-1.09-.34c-.45.65-.89,1.32-1.29,2S76.6,29,76.2,29.66L75,31.77c-.4.7-.82,1.39-1.25,2.06a7.36,7.36,0,0,0,1.51-.1,13.81,13.81,0,0,0,1.7-.39,8.47,8.47,0,0,0,3.33-1.91,6.47,6.47,0,0,0,1.08-1.31,3.58,3.58,0,0,0,.5-1.36,2.37,2.37,0,0,0-.18-1.29A2.5,2.5,0,0,0,80.72,26.38Z"/><path class="cls-9" d="M83.56,35.34c-.16.36-.34.74-.54,1.15a6.22,6.22,0,0,1-.68,1.11,3.38,3.38,0,0,1-.93.84,2.45,2.45,0,0,1-1.28.32,1.83,1.83,0,0,1-1.2-.42,1.62,1.62,0,0,1-.53-1.29,3.69,3.69,0,0,1,.1-.84,4.83,4.83,0,0,1,.28-.89,7,7,0,0,1,.45-.86,5.36,5.36,0,0,1,.55-.77,4.7,4.7,0,0,1,.76-.72,3.66,3.66,0,0,1,.83-.5,2.13,2.13,0,0,1,.8-.17,1.12,1.12,0,0,1,.69.22.76.76,0,0,1,.3.5,1.31,1.31,0,0,1-.1.68,3.12,3.12,0,0,1-.45.74,3.82,3.82,0,0,1-.74.7,3,3,0,0,1-.51.31,4.73,4.73,0,0,1-.62.25c-.22.07-.42.13-.61.17a2,2,0,0,1-.47.07,3.14,3.14,0,0,0-.19.66,3.21,3.21,0,0,0,0,.81,1.34,1.34,0,0,0,.21.7.72.72,0,0,0,.64.29,1.72,1.72,0,0,0,1.07-.35,4,4,0,0,0,.85-.84,7.59,7.59,0,0,0,.63-1c.17-.35.31-.65.42-.89a.44.44,0,0,1,.14-.18.21.21,0,0,1,.14-.07.09.09,0,0,1,.09.07S83.61,35.25,83.56,35.34Zm-1.87-.52a3,3,0,0,0,.6-.68,2.52,2.52,0,0,0,.34-.71,1,1,0,0,0,0-.54.23.23,0,0,0-.27-.2,1.15,1.15,0,0,0-.59.29,6.86,6.86,0,0,0-1.59,1.88c-.2.33-.34.58-.43.75a1.77,1.77,0,0,0,.35,0,3.2,3.2,0,0,0,.48-.15,4,4,0,0,0,1.08-.6Z"/><path class="cls-9" d="M87.59,35.4c-.22.46-.43.9-.65,1.31a5,5,0,0,1-.73,1.07,2.92,2.92,0,0,1-.93.72,2.8,2.8,0,0,1-1.27.26,2.14,2.14,0,0,1-1.12-.25,1.5,1.5,0,0,1-.59-.66,2,2,0,0,1-.15-.92,4.23,4.23,0,0,1,.19-1.08,7.47,7.47,0,0,1,.45-1.1,6.44,6.44,0,0,1,.61-1,3.76,3.76,0,0,1,1.13-1.06,2.58,2.58,0,0,1,1.28-.37,1.3,1.3,0,0,1,1,.35,1,1,0,0,1,.24.9,1.33,1.33,0,0,1-.17.45,1.76,1.76,0,0,1-.32.39.82.82,0,0,1-.37.21.35.35,0,0,1-.35-.1c.1-.12.2-.26.32-.42a1.77,1.77,0,0,0,.24-.5.89.89,0,0,0,0-.67.39.39,0,0,0-.37-.21,1.05,1.05,0,0,0-.5.14,4.9,4.9,0,0,0-.52.36,4.65,4.65,0,0,0-.49.5,6,6,0,0,0-.41.55,4.16,4.16,0,0,0-.3.48,7.19,7.19,0,0,0-.33.68c-.1.25-.18.51-.26.78a3.32,3.32,0,0,0-.1.81,2,2,0,0,0,.24,1,.86.86,0,0,0,.82.42,1.87,1.87,0,0,0,1-.3,3.71,3.71,0,0,0,.84-.75,6.7,6.7,0,0,0,.68-1c.21-.37.4-.74.58-1.1.08-.17.17-.23.25-.2S87.67,35.22,87.59,35.4Z"/><path class="cls-9" d="M93,35.38c-.13.27-.3.6-.5,1a10.55,10.55,0,0,1-.67,1.11,4.8,4.8,0,0,1-.83.9,1.44,1.44,0,0,1-1,.38,1.46,1.46,0,0,1-.49-.09.84.84,0,0,1-.42-.33,1.32,1.32,0,0,1-.21-.65,2.87,2.87,0,0,1,.16-1,5.42,5.42,0,0,1,.36-.82c.17-.31.38-.67.63-1.07a1.12,1.12,0,0,0,.18-.47.19.19,0,0,0-.13-.24.84.84,0,0,0-.48.15,4.83,4.83,0,0,0-.84.66,8.27,8.27,0,0,0-1.11,1.25,14.75,14.75,0,0,0-1.4,2.32.39.39,0,0,1-.25.23,1.55,1.55,0,0,1-.43,0l-.33,0a.51.51,0,0,0-.28.09c.43-.87.84-1.72,1.23-2.56s.81-1.67,1.25-2.48a3.6,3.6,0,0,1,.6-.9.85.85,0,0,1,.68-.24,2.66,2.66,0,0,1,.37.07.86.86,0,0,0,.39,0,1.72,1.72,0,0,0-.48.47,8.29,8.29,0,0,0-.58.85c-.2.32-.39.67-.59,1s-.38.71-.53,1c.18-.23.4-.5.67-.8a8.62,8.62,0,0,1,1.62-1.44,11,11,0,0,1,1-.6,6.77,6.77,0,0,1,.9-.4,1.09,1.09,0,0,1,.66-.07c-.36.64-.69,1.26-1,1.85l-.39.77-.35.77c-.1.25-.2.48-.28.69a4.81,4.81,0,0,0-.15.56,1.21,1.21,0,0,0,0,.73.34.34,0,0,0,.29.17A1.07,1.07,0,0,0,91,38a6.06,6.06,0,0,0,.72-.89,9.94,9.94,0,0,0,.61-1l.42-.81c.07-.16.15-.22.24-.17S93.09,35.2,93,35.38Z"/><path class="cls-9" d="M99.43,35.41c-.32.63-.59,1.15-.83,1.58a5.57,5.57,0,0,1-.8,1.1,5.2,5.2,0,0,1-1.06.81,11,11,0,0,1-1.6.69c-.29.5-.61,1-1,1.6a10,10,0,0,1-1.23,1.56,6.62,6.62,0,0,1-1.53,1.17,3.78,3.78,0,0,1-1.84.46,2.35,2.35,0,0,1-1.06-.2,1.16,1.16,0,0,1-.53-.52,1.21,1.21,0,0,1-.1-.71,2.48,2.48,0,0,1,.25-.77,2.66,2.66,0,0,1,.71-.86,5.32,5.32,0,0,1,1-.61,10.55,10.55,0,0,1,2.1-.71c.79-.19,1.55-.39,2.28-.59a8.66,8.66,0,0,0,.48-1c.16-.37.3-.74.44-1.11s.25-.73.36-1.07.19-.62.27-.86c-.16.28-.35.6-.56,1a8.89,8.89,0,0,1-.73,1.08,4.89,4.89,0,0,1-.88.88,1.59,1.59,0,0,1-1,.37l-.32,0a1.1,1.1,0,0,1-.33-.12,1.18,1.18,0,0,1-.3-.25,1,1,0,0,1-.19-.42,1.76,1.76,0,0,1,0-.56,2.56,2.56,0,0,1,.13-.53,4.59,4.59,0,0,1,.24-.5c.09-.16.17-.33.26-.5a.26.26,0,0,1-.17-.05c-.06,0-.06-.11,0-.23a3.07,3.07,0,0,0,.17-.31,1.91,1.91,0,0,1,.16-.32l.54-1,.47-.93a.55.55,0,0,1,.28-.3,1,1,0,0,1,.42-.08H95a3.38,3.38,0,0,1-.32.23,1.39,1.39,0,0,0-.35.42c-.31.52-.6,1.05-.85,1.58s-.52,1.06-.77,1.6a3.44,3.44,0,0,0-.36,1.17.88.88,0,0,0,.14.66c.11.13.28.14.51.05a2.15,2.15,0,0,0,.77-.64,10.76,10.76,0,0,0,.78-1c.26-.4.52-.81.76-1.23s.48-.85.7-1.27.42-.81.59-1.17a.55.55,0,0,1,.28-.3,1,1,0,0,1,.42-.08h1a2.41,2.41,0,0,0-.44.4,3.62,3.62,0,0,0-.35.52,5.65,5.65,0,0,0-.31.65l-.3.82q-.35.91-.69,2c-.24.71-.49,1.42-.75,2.14.19-.06.4-.13.64-.23a5.7,5.7,0,0,0,.69-.36,4.4,4.4,0,0,0,.67-.51,4.88,4.88,0,0,0,.59-.68,10.92,10.92,0,0,0,.7-1.17c.19-.37.34-.64.43-.81s.17-.21.26-.17S99.51,35.23,99.43,35.41ZM93.86,40l-.92.23c-.33.08-.67.17-1,.27l-1,.3a8.16,8.16,0,0,0-.85.31,3.56,3.56,0,0,0-1.14.79,2.55,2.55,0,0,0-.61,1,1,1,0,0,0,0,.82.79.79,0,0,0,.76.34,2.39,2.39,0,0,0,1.22-.37,7.74,7.74,0,0,0,1.22-.89,12.42,12.42,0,0,0,1.08-1.1c.33-.38.59-.72.8-1l.19-.31C93.72,40.22,93.79,40.11,93.86,40Z"/><path class="cls-9" d="M100.74,38.11a3.27,3.27,0,0,1-.77.46,1.76,1.76,0,0,1-.8.16,1.26,1.26,0,0,1-.82-.31,1.43,1.43,0,0,1-.39-.75,2.77,2.77,0,0,1,0-1,4.9,4.9,0,0,1,.34-1.18A6.2,6.2,0,0,1,99,34.28a5.79,5.79,0,0,1,.85-1,4.07,4.07,0,0,1,1-.66,2,2,0,0,1,.95-.22,1.13,1.13,0,0,1,.81.28,1.45,1.45,0,0,1,.41.76,3.06,3.06,0,0,1,0,1.05,4.81,4.81,0,0,1-.35,1.18,6.54,6.54,0,0,1-.59,1.06,6.2,6.2,0,0,1-.92,1.07.88.88,0,0,0,.85.45,1.21,1.21,0,0,0,.93-.47,8.15,8.15,0,0,0,.83-1.12.21.21,0,0,1,.25-.08c.1,0,.11.11,0,.24a6.54,6.54,0,0,1-.36.57,3.64,3.64,0,0,1-.48.56,2.37,2.37,0,0,1-.57.43,1.35,1.35,0,0,1-.68.17,1.45,1.45,0,0,1-.69-.12A1.51,1.51,0,0,1,100.74,38.11ZM102.09,33a1,1,0,0,0-.63.08,2.28,2.28,0,0,0-.68.49,5.43,5.43,0,0,0-.67.79,6.53,6.53,0,0,0-.58,1,7.17,7.17,0,0,0-.42,1,5.11,5.11,0,0,0-.19.89A1.65,1.65,0,0,0,99,38a.49.49,0,0,0,.34.33.89.89,0,0,0,.57-.05,2.38,2.38,0,0,0,.65-.4,1.54,1.54,0,0,1-.21-.45,1.41,1.41,0,0,1-.08-.43,1.36,1.36,0,0,1,.16-.54.49.49,0,0,1,.47-.23.5.5,0,0,1,.39.16.54.54,0,0,1,.15.38v.1l0,.09a8.21,8.21,0,0,0,.56-1,6.75,6.75,0,0,0,.41-1.06,3.72,3.72,0,0,0,.16-.9,1.65,1.65,0,0,0-.09-.66A.53.53,0,0,0,102.09,33Zm-1.51-7.9a1.75,1.75,0,0,1,.93-1.15,3.46,3.46,0,0,1,1.64-.26,4.64,4.64,0,0,1,.8.12,6.38,6.38,0,0,1,.7.23c.23.08.45.16.69.22a3,3,0,0,0,.76.12,1.82,1.82,0,0,0,.92-.15,1.77,1.77,0,0,0,.6-.52s0,0,.11,0a.74.74,0,0,1,.21,0,1.08,1.08,0,0,1,.19,0c.05,0,.07,0,.06.05a5.36,5.36,0,0,1-.46.55,3.32,3.32,0,0,1-.6.5,3.13,3.13,0,0,1-.76.36,2.38,2.38,0,0,1-.9.1,3.26,3.26,0,0,1-.79-.13l-.7-.25-.69-.23a3.18,3.18,0,0,0-.79-.13,1.08,1.08,0,0,0-.8.23,1.47,1.47,0,0,0-.47.73,2.84,2.84,0,0,0-.16.72,3.29,3.29,0,0,0,0,.75,7.12,7.12,0,0,0,.21.94c.09.35.22.75.39,1.22q.11.32.51,1.41a19.2,19.2,0,0,1,.73,3.09c0,.13,0,.17,0,.11a2.91,2.91,0,0,1-.21-.27c-.09-.13-.2-.31-.32-.52a13.1,13.1,0,0,0-.49-1.89c-.2-.61-.39-1.17-.56-1.66-.09-.27-.21-.58-.35-.92a9.6,9.6,0,0,1-.36-1.07,5.93,5.93,0,0,1-.2-1.13A2.89,2.89,0,0,1,100.58,25.12Zm5.09,12.76a3.48,3.48,0,0,0,.66-.75,10.6,10.6,0,0,0,.56-.94c.17-.34.33-.68.48-1l.43-1c.13-.3.25-.57.37-.81a2,2,0,0,1,.38-.53,1.11,1.11,0,0,1,.29-.22,1.13,1.13,0,0,1,.34-.09,3.13,3.13,0,0,1,.46,0h.66s0,0,0,0a.63.63,0,0,1-.17.1,1.28,1.28,0,0,1-.26.1,1,1,0,0,1-.26,0,.93.93,0,0,0-.74.2,3.84,3.84,0,0,0-.45.64,12.6,12.6,0,0,0-.62,1.37c-.22.56-.47,1.12-.75,1.67a7.12,7.12,0,0,1-1,1.41,1.61,1.61,0,0,1-1.23.59,2.07,2.07,0,0,1-.8-.15,1.18,1.18,0,0,1-.6-.59,1.16,1.16,0,0,1-.19-1,.75.75,0,0,1,.38-.46.4.4,0,0,1,.44.09q.18.2-.06.69a.42.42,0,0,0,0,.31.67.67,0,0,0,.13.3.72.72,0,0,0,.25.21.61.61,0,0,0,.32.08,2,2,0,0,0,.53-.08A1,1,0,0,0,105.67,37.88Zm3.87-5a.59.59,0,0,1,.28-.3,1,1,0,0,1,.42-.08h1c-.14.11-.25.21-.35.3a2.29,2.29,0,0,0-.28.32,3.27,3.27,0,0,0-.27.47c-.1.18-.21.41-.35.69s-.26.51-.38.78-.25.54-.36.8a6.94,6.94,0,0,0-.3.72,2.91,2.91,0,0,0-.16.56,1.21,1.21,0,0,0,0,.82.44.44,0,0,0,.33.26,1,1,0,0,0,.66-.29,4.19,4.19,0,0,0,.64-.72,11,11,0,0,0,.58-1c.19-.35.36-.69.51-1,.08-.16.16-.22.25-.17s.09.15,0,.33-.31.66-.5,1a7.62,7.62,0,0,1-.65,1.07,4,4,0,0,1-.79.85,1.44,1.44,0,0,1-.92.34,1,1,0,0,1-.54-.15,1,1,0,0,1-.35-.45,2,2,0,0,1-.11-.73,3.09,3.09,0,0,1,.18-1c.08-.27.18-.55.3-.85s.25-.6.39-.91.27-.61.41-.91S109.43,33.13,109.54,32.88Z"/><path class="cls-9" d="M117.49,35.4l-.51,1a7.62,7.62,0,0,1-.65,1.07,3.75,3.75,0,0,1-.79.84,1.48,1.48,0,0,1-.92.33,1,1,0,0,1-.54-.15,1,1,0,0,1-.35-.45,2.2,2.2,0,0,1-.11-.73,3.09,3.09,0,0,1,.18-1c-.16.27-.33.55-.52.82a6.18,6.18,0,0,1-.59.74,3.26,3.26,0,0,1-.66.54,1.35,1.35,0,0,1-.66.2l-.32,0a1.1,1.1,0,0,1-.33-.12,1.18,1.18,0,0,1-.3-.25,1,1,0,0,1-.19-.42,2.12,2.12,0,0,1,0-.56,2.6,2.6,0,0,1,.14-.53,4.52,4.52,0,0,1,.23-.5c.09-.16.18-.33.26-.5a.28.28,0,0,1-.17-.05s0-.11,0-.23a1.82,1.82,0,0,0,.16-.31,3.24,3.24,0,0,1,.17-.32l.54-1c.18-.35.33-.66.46-.93a.63.63,0,0,1,.28-.3,1.1,1.1,0,0,1,.43-.08h1.09l-.28.22a2.38,2.38,0,0,0-.26.28,2.16,2.16,0,0,0-.28.4,5.29,5.29,0,0,0-.33.61q-.25.47-.45.9c-.13.25-.26.51-.38.77l-.3.65a3.44,3.44,0,0,0-.36,1.17.89.89,0,0,0,.13.66c.12.13.29.14.52.05a2.24,2.24,0,0,0,.77-.64,8.19,8.19,0,0,0,.75-1c.24-.4.48-.81.71-1.23s.45-.85.66-1.27.39-.81.56-1.17a.59.59,0,0,1,.28-.3,1.08,1.08,0,0,1,.42-.08h1l-.35.3a3,3,0,0,0-.27.32,3.24,3.24,0,0,0-.28.47l-.35.7c-.13.25-.26.51-.38.78s-.25.54-.36.8-.22.5-.3.72a2.79,2.79,0,0,0-.16.57,1.22,1.22,0,0,0,0,.82.44.44,0,0,0,.33.26,1,1,0,0,0,.66-.29,3.93,3.93,0,0,0,.64-.73,8,8,0,0,0,.58-1q.28-.53.51-1c.08-.15.16-.21.25-.17S117.57,35.22,117.49,35.4Z"/><path class="cls-9" d="M117.73,35.2c.19-.24.4-.49.64-.76a10.46,10.46,0,0,1,.74-.75q.4-.36.81-.66a3.82,3.82,0,0,1,.83-.46,2.61,2.61,0,0,1,1.12-.2.69.69,0,0,1,.55.31.73.73,0,0,1,0,.41.66.66,0,0,1-.15.34.63.63,0,0,1-.3.21.62.62,0,0,1-.38,0,.4.4,0,0,0-.2-.3,1,1,0,0,0-.52-.1,2.69,2.69,0,0,0-.76.2,3.89,3.89,0,0,0-.93.56,5.7,5.7,0,0,0-.35,2.15,2.81,2.81,0,0,0,.44,1.47,1.21,1.21,0,0,0,1,.55,1.59,1.59,0,0,0,1.18-.62,4.82,4.82,0,0,0,.71-1c.25-.44.5-.92.75-1.45.07-.14.15-.19.22-.13s.08.15,0,.29a12.91,12.91,0,0,1-1,1.94,4.85,4.85,0,0,1-.92,1.06,1.87,1.87,0,0,1-.85.42,3.07,3.07,0,0,1-.8,0,1.64,1.64,0,0,1-.51-.12,1.58,1.58,0,0,1-.49-.3,2.25,2.25,0,0,1-.43-.52,2.18,2.18,0,0,1-.26-.77,5.2,5.2,0,0,1-.08-1,4.82,4.82,0,0,1,.06-.63l-.47.65a4.71,4.71,0,0,0-.43.7c-.07.15-.16.34-.26.58l-.44,1a.42.42,0,0,1-.25.23,1.6,1.6,0,0,1-.43,0h-.34a.48.48,0,0,0-.27.09q.65-1.29,1.23-2.55c.39-.84.81-1.67,1.25-2.49a4.47,4.47,0,0,1,.59-.9.92.92,0,0,1,.69-.23l.37.06a.81.81,0,0,0,.38,0,1.78,1.78,0,0,0-.37.34c-.13.17-.28.37-.44.61s-.31.49-.47.76S117.87,34.91,117.73,35.2Z"/><path class="cls-9" d="M128.86,35.4c-.15.31-.31.65-.51,1a7.57,7.57,0,0,1-.64,1.07,3.79,3.79,0,0,1-.8.84,1.46,1.46,0,0,1-.91.33,1,1,0,0,1-.54-.15.84.84,0,0,1-.35-.45,2,2,0,0,1-.12-.73,3.09,3.09,0,0,1,.18-1c-.16.27-.33.55-.51.82a7.43,7.43,0,0,1-.6.74,3.26,3.26,0,0,1-.66.54,1.32,1.32,0,0,1-.66.2l-.32,0a1.1,1.1,0,0,1-.33-.12,1.18,1.18,0,0,1-.3-.25,1,1,0,0,1-.19-.42,1.76,1.76,0,0,1,0-.56,2.56,2.56,0,0,1,.13-.53,4.59,4.59,0,0,1,.24-.5l.26-.5a.31.31,0,0,1-.18-.05c-.05,0-.05-.11,0-.23a3.07,3.07,0,0,0,.17-.31,1.91,1.91,0,0,1,.16-.32l.54-1,.47-.93a.55.55,0,0,1,.28-.3,1,1,0,0,1,.42-.08h1.1a2.43,2.43,0,0,0-.29.22,2.38,2.38,0,0,0-.26.28,2.77,2.77,0,0,0-.28.4A5.29,5.29,0,0,0,124,34l-.45.9c-.13.25-.25.51-.37.77s-.23.48-.31.65a3.44,3.44,0,0,0-.36,1.17.88.88,0,0,0,.14.66c.11.13.28.14.51.05a2.15,2.15,0,0,0,.77-.64,8.19,8.19,0,0,0,.75-1c.25-.4.48-.81.71-1.23s.45-.85.66-1.27.4-.81.56-1.17a.63.63,0,0,1,.28-.3,1.1,1.1,0,0,1,.43-.08h1c-.13.11-.25.21-.34.3a2.21,2.21,0,0,0-.28.32,3.24,3.24,0,0,0-.28.47c-.1.19-.21.42-.34.7s-.26.51-.39.78-.25.54-.36.8-.21.5-.3.72a2.79,2.79,0,0,0-.16.57,1.28,1.28,0,0,0,0,.82.44.44,0,0,0,.33.26,1,1,0,0,0,.66-.29,3.93,3.93,0,0,0,.64-.73,8,8,0,0,0,.58-1c.19-.35.36-.69.52-1,.07-.15.15-.21.24-.17S128.94,35.22,128.86,35.4Z"/><path class="cls-9" d="M152.2,24.29a.86.86,0,0,1,.8.08.58.58,0,0,1,.25.58,1.2,1.2,0,0,1-.56.71,3.44,3.44,0,0,1-1.58.47,16.83,16.83,0,0,0-1.23,2.76c-.36,1-.73,2.08-1.12,3.17s-.83,2.16-1.31,3.22a14.49,14.49,0,0,1-1.75,2.92,9.93,9.93,0,0,1-2.49,2.25,9,9,0,0,1-3.48,1.23,9.38,9.38,0,0,1-2,0,7.78,7.78,0,0,1-2-.42,7,7,0,0,1-1.68-.87,4.64,4.64,0,0,1-1.24-1.3,4.4,4.4,0,0,1-.63-1.7,5.18,5.18,0,0,1,.13-2.08,2.68,2.68,0,0,1,.41-.87,4.91,4.91,0,0,1,.58-.67,3.7,3.7,0,0,1,.61-.44,1.28,1.28,0,0,1,.47-.18c.15,0,.22,0,.23.08a.16.16,0,0,1-.1.17,3.6,3.6,0,0,0-.39.26,4.73,4.73,0,0,0-.55.55,4.85,4.85,0,0,0-.54.82,3.31,3.31,0,0,0-.32,1.09,4.06,4.06,0,0,0,.12,1.73,3.48,3.48,0,0,0,.74,1.3,4,4,0,0,0,1.17.9,5.92,5.92,0,0,0,1.42.53,6.34,6.34,0,0,0,1.49.19,6,6,0,0,0,1.38-.13,9.64,9.64,0,0,0,3.35-1.4,12.3,12.3,0,0,0,2.46-2.17,14,14,0,0,0,1.76-2.52c.47-.89.88-1.71,1.23-2.48l.28-.63c.13-.29.27-.62.44-1l.54-1.19.57-1.23.51-1.11c.16-.33.29-.6.4-.81l-1.25.13-1.34.12c-.45.05-.89.11-1.34.18s-.87.17-1.29.29A6.06,6.06,0,0,0,143.16,28a5.37,5.37,0,0,0-1.31,1.51,4,4,0,0,0-.5,1.63,2.71,2.71,0,0,0,.23,1.4,1.66,1.66,0,0,0,.85.84,2.06,2.06,0,0,0,2.2-.59,3.43,3.43,0,0,0,.51-.87,3.54,3.54,0,0,0,.23-1,4.24,4.24,0,0,0,0-.95c0-.09,0-.13.1-.1s.16.1.22.23a2.28,2.28,0,0,1,.13,1,3.37,3.37,0,0,1-.3,1.06,3.4,3.4,0,0,1-.64.91,2.47,2.47,0,0,1-.88.57,2.54,2.54,0,0,1-1.83.09,2.67,2.67,0,0,1-1.3-1,3,3,0,0,1-.57-1.59,3.44,3.44,0,0,1,.39-1.87,4.93,4.93,0,0,1,1.54-1.73,7.74,7.74,0,0,1,2.92-1.22c.49-.11,1-.19,1.49-.26s1-.12,1.5-.15l1.42-.1,1.28-.1c0-.05.1-.14.19-.29a5.07,5.07,0,0,1,.33-.45,4.26,4.26,0,0,1,.42-.43A1.42,1.42,0,0,1,152.2,24.29Zm9.22-.29a20.72,20.72,0,0,1-1.67,2.35,28.43,28.43,0,0,1-2,2.21c-.71.69-1.45,1.34-2.21,2s-1.51,1.15-2.24,1.63a19.55,19.55,0,0,1-2.09,1.2,8.85,8.85,0,0,1-1.77.69c-.06,0-.07.1,0,.36a8.33,8.33,0,0,0,.17,1c.09.43.22.91.38,1.43a15.64,15.64,0,0,0,.58,1.57,6.27,6.27,0,0,0,1.37,2.06,2.62,2.62,0,0,0,1.86.75,5.25,5.25,0,0,0,1.08-.12,5.46,5.46,0,0,0,1.06-.34,3.89,3.89,0,0,0,.92-.59,3,3,0,0,0,.66-.84.51.51,0,0,1,.14-.2s.1-.07.13,0,.06,0,.06.11a.68.68,0,0,1-.09.28,4,4,0,0,1-.7,1,5.36,5.36,0,0,1-1,.81,5.72,5.72,0,0,1-1.17.56,3.85,3.85,0,0,1-1.18.2,3.63,3.63,0,0,1-1.4-.26A4.47,4.47,0,0,1,151,41,5.1,5.1,0,0,1,150,40a8.27,8.27,0,0,1-.77-1.32,11.91,11.91,0,0,1-.61-1.7,10.91,10.91,0,0,1-.33-1.58,6,6,0,0,1-.08-1.19c0-.31.06-.48.14-.52a3.33,3.33,0,0,0,1.13-.3,14.21,14.21,0,0,0,1.88-.94c.73-.42,1.52-.93,2.38-1.51a28.4,28.4,0,0,0,2.57-2c.86-.75,1.69-1.55,2.5-2.4A19.76,19.76,0,0,0,161,23.77a.83.83,0,0,1,.29-.3.21.21,0,0,1,.2,0,.23.23,0,0,1,.08.21A.83.83,0,0,1,161.42,24Zm-9.2,1.46a1,1,0,0,0,.4-.31.37.37,0,0,0,.07-.28c0-.08-.09-.11-.19-.12a.57.57,0,0,0-.37.17,3.22,3.22,0,0,0-.37.37l-.33.39A2.36,2.36,0,0,0,152.22,25.46Z"/><path class="cls-9" d="M158.88,35.38c-.13.27-.3.6-.5,1a10,10,0,0,1-.65,1.08,4.89,4.89,0,0,1-.77.89,1.43,1.43,0,0,1-.8.41,1.19,1.19,0,0,1-.47-.08.89.89,0,0,1-.41-.36,1.58,1.58,0,0,1-.19-.72,3.69,3.69,0,0,1,.17-1.17c-.14.24-.33.52-.56.84a6.19,6.19,0,0,1-.74.86,2,2,0,0,1-1,.59.92.92,0,0,1-.75-.13,1.29,1.29,0,0,1-.44-.72,2.83,2.83,0,0,1,0-1.14,5.43,5.43,0,0,1,.44-1.44,6.64,6.64,0,0,1,1-1.59,3.51,3.51,0,0,1,1-.83,4.24,4.24,0,0,1,1.15-.49,2.7,2.7,0,0,1,1.13,0,1.61,1.61,0,0,1,.93.52.34.34,0,0,1,.12.38.26.26,0,0,1-.32.14.79.79,0,0,0-.58-.61,1.33,1.33,0,0,0-.95.16A5.45,5.45,0,0,0,154.43,34a9.22,9.22,0,0,0-1.13,1.52c0,.06-.09.15-.16.28s-.15.29-.23.46-.15.36-.21.54a2.46,2.46,0,0,0-.14.53,1,1,0,0,0,.06.69.43.43,0,0,0,.38.21,1.09,1.09,0,0,0,.57-.2,3.16,3.16,0,0,0,.65-.59,11.42,11.42,0,0,0,.85-1.21c.26-.43.51-.86.75-1.31a5.76,5.76,0,0,1,.55-.88.73.73,0,0,1,.67-.27,2.38,2.38,0,0,1,.37.06.86.86,0,0,0,.39,0,3.45,3.45,0,0,0-.39.53c-.16.26-.33.56-.5.89s-.33.66-.48,1a5,5,0,0,0-.3.94c-.15.72-.09,1.08.17,1.08a.84.84,0,0,0,.63-.34,5.85,5.85,0,0,0,.68-.87,11.65,11.65,0,0,0,.6-1l.42-.81c.08-.15.16-.21.25-.18S159,35.2,158.88,35.38Z"/><path class="cls-9" d="M156.22,42.63a2.21,2.21,0,0,1-.52.78,1,1,0,0,1-.69.16,2.66,2.66,0,0,1-.37-.07.73.73,0,0,0-.39,0,3.9,3.9,0,0,0,.42-.62c.2-.34.44-.76.7-1.26s.55-1,.85-1.63.57-1.17.83-1.73.48-1.08.67-1.56a7.49,7.49,0,0,0,.37-1.12.77.77,0,0,1-.33.3c-.12,0-.15,0-.09-.14a4.31,4.31,0,0,0,.18-.4,7,7,0,0,0,.41-1.08,3.91,3.91,0,0,0,.13-.72,2.61,2.61,0,0,0,0-.58c0-.16-.11-.26-.22-.28l.38-.07a1.45,1.45,0,0,1,.3-.05l.2,0,.33,0a.31.31,0,0,1,.2,0,.45.45,0,0,1,.1.23c0,.11,0,.28,0,.49a2.66,2.66,0,0,1-.08.64c-.05.25-.12.5-.19.77s-.15.52-.23.77-.16.48-.24.67c.18-.23.41-.5.69-.8a8,8,0,0,1,.83-.82,7.78,7.78,0,0,1,.8-.62q.48-.33,1-.6a6.86,6.86,0,0,1,.91-.4,1.08,1.08,0,0,1,.66-.07c-.36.64-.69,1.26-1,1.85-.14.25-.26.51-.39.77s-.24.52-.35.77-.2.48-.28.69a2.62,2.62,0,0,0-.15.56,1.07,1.07,0,0,0,0,.73.32.32,0,0,0,.28.17,1.07,1.07,0,0,0,.72-.38,5,5,0,0,0,.72-.89,10,10,0,0,0,.62-1l.41-.81c.07-.16.15-.22.24-.17s.1.15,0,.33-.29.6-.49,1a10.65,10.65,0,0,1-.68,1.11,4.8,4.8,0,0,1-.83.9,1.44,1.44,0,0,1-1,.38,1.4,1.4,0,0,1-.48-.09.91.91,0,0,1-.43-.33,1.32,1.32,0,0,1-.2-.65,2.67,2.67,0,0,1,.16-1,4,4,0,0,1,.36-.82c.17-.31.38-.67.63-1.07a1.12,1.12,0,0,0,.18-.47.2.2,0,0,0-.14-.24.79.79,0,0,0-.47.15,4.83,4.83,0,0,0-.85.66l-.53.51a6.69,6.69,0,0,0-.63.71,9.07,9.07,0,0,0-.68,1,10.65,10.65,0,0,0-.66,1.35Z"/><path class="cls-9" d="M166.57,35.14a3,3,0,0,1-.51.31,4.23,4.23,0,0,1-.62.25c-.22.07-.42.13-.61.17a2,2,0,0,1-.47.07,3.14,3.14,0,0,0-.19.66,3.21,3.21,0,0,0,0,.81,1.44,1.44,0,0,0,.21.7.72.72,0,0,0,.64.29,2,2,0,0,0,1.14-.38,4.26,4.26,0,0,0,1.09-1.26.46.46,0,0,1,.33-.22c.12,0,.13.08,0,.26a4.11,4.11,0,0,1-1.3,1.55,2.66,2.66,0,0,1-1.43.41,1.83,1.83,0,0,1-1.2-.42,1.62,1.62,0,0,1-.53-1.29,3.69,3.69,0,0,1,.1-.84,4.21,4.21,0,0,1,.29-.89,5.81,5.81,0,0,1,.44-.86,4.74,4.74,0,0,1,.56-.77,4.26,4.26,0,0,1,.75-.72,3.66,3.66,0,0,1,.83-.5,2.13,2.13,0,0,1,.8-.17,1.12,1.12,0,0,1,.69.22.76.76,0,0,1,.3.5,1.31,1.31,0,0,1-.1.68,2.82,2.82,0,0,1-.45.74A3.82,3.82,0,0,1,166.57,35.14Zm-.18-.32a3.27,3.27,0,0,0,.61-.68,2.77,2.77,0,0,0,.33-.71,1.15,1.15,0,0,0,0-.54.25.25,0,0,0-.28-.2,1.15,1.15,0,0,0-.59.29,5.85,5.85,0,0,0-.93.94,7.16,7.16,0,0,0-.66.94q-.3.49-.42.75a1.77,1.77,0,0,0,.34,0,3.2,3.2,0,0,0,.48-.15,3.35,3.35,0,0,0,.55-.25A3.74,3.74,0,0,0,166.39,34.82Zm2.94,3.06a3.2,3.2,0,0,0,.65-.75,8.64,8.64,0,0,0,.56-.94c.18-.34.34-.68.49-1l.42-1c.13-.3.26-.57.38-.81a2,2,0,0,1,.38-.53,1,1,0,0,1,.29-.22,1.05,1.05,0,0,1,.34-.09,3,3,0,0,1,.46,0H174c.05,0,.06,0,0,0a.74.74,0,0,1-.16.1,1.28,1.28,0,0,1-.26.1,1,1,0,0,1-.26,0,.92.92,0,0,0-.74.2,3.33,3.33,0,0,0-.45.64,12.6,12.6,0,0,0-.62,1.37c-.22.56-.48,1.12-.76,1.67a7.09,7.09,0,0,1-.95,1.41,1.64,1.64,0,0,1-1.23.59,2.16,2.16,0,0,1-.81-.15,1.26,1.26,0,0,1-.6-.59,1.2,1.2,0,0,1-.19-1,.74.74,0,0,1,.39-.46.38.38,0,0,1,.43.09c.12.13.1.36,0,.69a.47.47,0,0,0,0,.31.83.83,0,0,0,.14.3.64.64,0,0,0,.25.21.58.58,0,0,0,.31.08,2,2,0,0,0,.53-.08A1,1,0,0,0,169.33,37.88Zm3.87-5a.55.55,0,0,1,.28-.3,1,1,0,0,1,.42-.08h1l-.34.3a1.78,1.78,0,0,0-.28.32,4.49,4.49,0,0,0-.28.47c-.09.18-.21.41-.34.69s-.26.51-.39.78l-.36.8q-.16.38-.3.72a3.88,3.88,0,0,0-.16.56,1.28,1.28,0,0,0,0,.82.44.44,0,0,0,.33.26,1,1,0,0,0,.66-.29,3.81,3.81,0,0,0,.64-.72,11,11,0,0,0,.59-1l.51-1c.07-.16.15-.22.24-.17s.1.15,0,.33-.31.66-.5,1a8.7,8.7,0,0,1-.65,1.07,4.32,4.32,0,0,1-.79.85,1.46,1.46,0,0,1-.92.34,1,1,0,0,1-.54-.15.89.89,0,0,1-.35-.45,2,2,0,0,1-.12-.73,3.09,3.09,0,0,1,.18-1c.08-.27.19-.55.31-.85s.25-.6.38-.91l.42-.91C173,33.4,173.09,33.13,173.2,32.88Z"/><path class="cls-9" d="M180.55,32.52a3.62,3.62,0,0,0-.34.29,1.87,1.87,0,0,0-.28.33,2.77,2.77,0,0,0-.28.47c-.1.18-.21.41-.34.69s-.27.51-.39.78-.25.54-.36.79-.21.5-.3.72a3,3,0,0,0-.16.57,1.28,1.28,0,0,0,0,.82.44.44,0,0,0,.33.26,1.15,1.15,0,0,0,.82-.42,6.25,6.25,0,0,0,.82-1.13c.1-.14.19-.19.28-.15s.09.15,0,.31-.28.45-.43.67a4.1,4.1,0,0,1-.5.58,2.22,2.22,0,0,1-.56.42,1.45,1.45,0,0,1-.63.15,1,1,0,0,1-.54-.15.91.91,0,0,1-.36-.45,2.2,2.2,0,0,1-.11-.73,3.09,3.09,0,0,1,.18-1c-.16.27-.33.55-.52.82a6.18,6.18,0,0,1-.59.74,3.26,3.26,0,0,1-.66.54,1.32,1.32,0,0,1-.66.2l-.32,0a1.1,1.1,0,0,1-.33-.12.84.84,0,0,1-.3-.24,1,1,0,0,1-.19-.41,1.76,1.76,0,0,1,0-.56,2.05,2.05,0,0,1,.13-.53,4.52,4.52,0,0,1,.23-.5l.27-.5a.41.41,0,0,1-.18,0c-.05,0-.05-.11,0-.24a2.14,2.14,0,0,0,.17-.3,2.49,2.49,0,0,1,.16-.33l.54-1c.18-.35.33-.66.47-.94a.59.59,0,0,1,.27-.29.94.94,0,0,1,.43-.08h1.1a1.69,1.69,0,0,0-.29.22,2.38,2.38,0,0,0-.26.28,2.77,2.77,0,0,0-.28.4,5.29,5.29,0,0,0-.33.61q-.24.47-.45.9c-.13.25-.25.51-.37.77s-.23.48-.31.65a3.44,3.44,0,0,0-.36,1.17.84.84,0,0,0,.14.65q.17.19.51.06a2.15,2.15,0,0,0,.77-.64,9,9,0,0,0,.75-1c.24-.4.48-.81.71-1.24s.45-.85.66-1.27.4-.81.56-1.17a.66.66,0,0,1,.28-.29.94.94,0,0,1,.43-.08ZM184.22,36c-.19.35-.39.69-.59,1a5.41,5.41,0,0,1-.63.87,3.08,3.08,0,0,1-.72.61,1.59,1.59,0,0,1-.81.22A1.49,1.49,0,0,1,180,38a1.74,1.74,0,0,1-.25-.74,1,1,0,0,1,.11-.51.6.6,0,0,1,.3-.25.41.41,0,0,1,.31,0,.35.35,0,0,1,.18.26.85.85,0,0,1-.11.52.57.57,0,0,0,0,.34.73.73,0,0,0,.14.31.64.64,0,0,0,.25.24.6.6,0,0,0,.35.1,1.46,1.46,0,0,0,.53-.06,1.17,1.17,0,0,0,.42-.26,5.32,5.32,0,0,0,.8-.88,9.82,9.82,0,0,0,.71-1.1s.11,0,.26,0Zm-1.4-1.47a2.84,2.84,0,0,1,.22-.66,3.5,3.5,0,0,1,.37-.62,2.37,2.37,0,0,1,.5-.5,1.56,1.56,0,0,1,.6-.31,1.67,1.67,0,0,1,.84-.07.83.83,0,0,1,.54.32,1.11,1.11,0,0,1,.17.69,2.38,2.38,0,0,1-.27,1c-.27.32-.48.57-.65.73a1.1,1.1,0,0,1-.33.26c-.07,0,0-.11.13-.4s.29-.56.41-.83a3.23,3.23,0,0,0,.24-.7.7.7,0,0,0-.06-.49.49.49,0,0,0-.45-.21,1,1,0,0,0-.49.1,1.13,1.13,0,0,0-.42.37,7.57,7.57,0,0,0-.43.63,3.37,3.37,0,0,0-.33.66,1.36,1.36,0,0,0-.09.43,1,1,0,0,0,.07.46.67.67,0,0,0,.35.33,1.43,1.43,0,0,0,.77,0c.17,0,.25,0,.25.1s-.12.15-.36.17a2,2,0,0,1-.94-.06,1.08,1.08,0,0,1-.5-.37,1,1,0,0,1-.18-.52A1.91,1.91,0,0,1,182.82,34.57Zm2.48,1.55a5.84,5.84,0,0,0-.26.62,3.83,3.83,0,0,0-.19.72,1.18,1.18,0,0,0,0,.6.37.37,0,0,0,.4.25,1,1,0,0,0,.71-.38,5.31,5.31,0,0,0,.7-.88,11.41,11.41,0,0,0,.58-1c.17-.35.31-.61.41-.81s.15-.21.24-.17.09.16,0,.34-.3.6-.5,1a9.49,9.49,0,0,1-.67,1.1,4.25,4.25,0,0,1-.83.9,1.47,1.47,0,0,1-1,.37.88.88,0,0,1-.42-.11,1.09,1.09,0,0,1-.39-.36,1.59,1.59,0,0,1-.19-.7,1.87,1.87,0,0,1,.12-.88l.38-.8c.12-.23.23-.46.34-.68l.37-.66.42-.78c.12-.21.22-.39.29-.54a1.87,1.87,0,0,1,.24-.36.62.62,0,0,1,.25-.19.75.75,0,0,1,.35,0l.37.06a.86.86,0,0,0,.39,0,1.85,1.85,0,0,0-.48.47,8.29,8.29,0,0,0-.58.85c-.19.32-.39.67-.59,1S185.46,35.79,185.3,36.12Z"/><path class="cls-10" d="M203.87,41.74v2.1c0,.25,0,.44,0,.68s0,.79.1,1a.28.28,0,0,0,.26.13h.06c.21,0,.79-1,.87-1.07l2.19-3.38a.86.86,0,0,0,.1-.16h4.64a1.75,1.75,0,0,0,.63-.08.34.34,0,0,0,.14-.32h0c0-.21-.26-.36-.46-.53-.48-.42-1.23-1.07-1.74-1.47l-1.48-1.25c-.09-.08-.18-.14-.27-.23l-1.08-.9c-.78-.63-1.64-1.39-2.43-2l-.26-.22c-.19-.15-.66-.62-.88-.62a.62.62,0,0,0-.36.18c-.07.09,0,.38,0,.51v3.33c0,.21,0,.33,0,.53Z"/><path class="cls-10" d="M197.92,33.33a6.37,6.37,0,0,0,.41,2.72,6.44,6.44,0,0,0,.76,1.45,6,6,0,0,0,.72.86,6.09,6.09,0,0,0,1.43,1.09,2.54,2.54,0,0,0,1,.37.28.28,0,0,0,.18-.11.42.42,0,0,0,0-.53c-.19-.15-.69-.37-.94-.52a5.24,5.24,0,0,1-.85-.61l-.15-.14a5.89,5.89,0,0,1-1-1.33,6.11,6.11,0,0,1-.75-2.82,5.61,5.61,0,0,1,.23-1.69c0-.1,0-.18.08-.27a5.66,5.66,0,0,1,1.33-2.16c.06-.06.11-.12.17-.17l.58-.48a5.41,5.41,0,0,1,.87-.52,5.87,5.87,0,0,1,1-.36,5.52,5.52,0,0,1,5.18,1.43,5.15,5.15,0,0,1,.62.72,6.17,6.17,0,0,1,.51.85,5.68,5.68,0,0,1,.59,2.12,6,6,0,0,1-.24,2.2c-.08.24-.25.73.12.84s.57-.46.67-.78a7.57,7.57,0,0,0,.19-2.67,7.28,7.28,0,0,0-.53-1.85l-.26-.52a7.44,7.44,0,0,0-.47-.72,5.73,5.73,0,0,0-.65-.73l-.3-.3a6.19,6.19,0,0,0-1.15-.79,2.29,2.29,0,0,0-.27-.14,5.85,5.85,0,0,0-2.54-.59h-.65a3.56,3.56,0,0,0-.65.08,6.52,6.52,0,0,0-1.91.7,6.72,6.72,0,0,0-.79.52l-.1.09-.4.34a6.61,6.61,0,0,0-1.15,1.48l-.26.5a8.15,8.15,0,0,0-.4,1.12A5.74,5.74,0,0,0,197.92,33.33Z"/><path class="cls-10" d="M200.15,33.59a4.14,4.14,0,0,0,1,2.87l.65.63a3,3,0,0,0,1.12.58.37.37,0,0,0,.37-.34c0-.25,0-.32-.34-.47l-.25-.13a1.42,1.42,0,0,1-.23-.14,2.9,2.9,0,0,1-.78-.7,1.56,1.56,0,0,1-.16-.2,3.61,3.61,0,0,1-.6-1.64A3.23,3.23,0,0,1,201,33a3.72,3.72,0,0,1,.85-1.65,3.89,3.89,0,0,1,.43-.39,3.24,3.24,0,0,1,1.82-.67,3.17,3.17,0,0,1,1.63.33,3.36,3.36,0,0,1,.94.69,3.42,3.42,0,0,1,1,2.33,7.32,7.32,0,0,1-.22,1.5.37.37,0,0,0,.09.23.38.38,0,0,0,.64-.14,2.3,2.3,0,0,0,.14-.42,4.43,4.43,0,0,0-.46-3.28l-.32-.46a4.2,4.2,0,0,0-1.6-1.24c-.12-.06-.25-.09-.38-.14a4,4,0,0,0-2.37,0,4.86,4.86,0,0,0-.7.28,4,4,0,0,0-1.25,1l-.11.12a4.33,4.33,0,0,0-.69,1.29A3.79,3.79,0,0,0,200.15,33.59Z"/></svg>